<?xml version="1.0" encoding="UTF-8" standalone="no"?>
<!-- Created with Inkscape (http://www.inkscape.org/) -->

<svg
   width="707.09973"
   height="210.96771"
   viewBox="0 0 707.09973 210.96771"
   version="1.1"
   id="svg1"
   inkscape:version="1.3.2 (091e20e, 2023-11-25, custom)"
   sodipodi:docname="arm-back-bottom.svg"
   xmlns:inkscape="http://www.inkscape.org/namespaces/inkscape"
   xmlns:sodipodi="http://sodipodi.sourceforge.net/DTD/sodipodi-0.dtd"
   xmlns="http://www.w3.org/2000/svg"
   xmlns:svg="http://www.w3.org/2000/svg">
  <sodipodi:namedview
     id="namedview1"
     pagecolor="#ffffff"
     bordercolor="#000000"
     borderopacity="0.25"
     inkscape:showpageshadow="2"
     inkscape:pageopacity="0.0"
     inkscape:pagecheckerboard="0"
     inkscape:deskcolor="#d1d1d1"
     inkscape:document-units="px"
     inkscape:zoom="0.3"
     inkscape:cx="780"
     inkscape:cy="1215"
     inkscape:window-width="1304"
     inkscape:window-height="745"
     inkscape:window-x="1358"
     inkscape:window-y="-8"
     inkscape:window-maximized="1"
     inkscape:current-layer="g552" />
  <defs
     id="defs1">
    <filter
       style="color-interpolation-filters:sRGB"
       inkscape:label="Drop Shadow"
       id="filter846"
       x="-0.018784067"
       y="-0.080820097"
       width="1.0389987"
       height="1.39643">
      <feFlood
         result="flood"
         in="SourceGraphic"
         flood-opacity="0.623529"
         flood-color="rgb(0,0,0)"
         id="feFlood845" />
      <feGaussianBlur
         result="blur"
         in="SourceGraphic"
         stdDeviation="5.471125"
         id="feGaussianBlur845" />
      <feOffset
         result="offset"
         in="blur"
         dx="1.000000"
         dy="38.145897"
         id="feOffset845" />
      <feComposite
         result="comp1"
         operator="out"
         in="flood"
         in2="offset"
         id="feComposite845" />
      <feComposite
         result="comp2"
         operator="atop"
         in="comp1"
         in2="SourceGraphic"
         id="feComposite846" />
    </filter>
  </defs>
  <g
     id="g629"
     inkscape:label="skeleton"
     transform="matrix(-1,0,0,1,1028.6392,-646.20599)"
     inkscape:export-filename="arm-back-bottom.svg"
     inkscape:export-xdpi="96"
     inkscape:export-ydpi="96">
    <g
       id="g397"
       inkscape:label="arm back"
       transform="rotate(13.223163,906.39488,442.22147)"
       style="filter:url(#filter846)">
      <g
         inkscape:groupmode="layer"
         id="g366"
         inkscape:label="plantas arm - hands - back"
         style="display:inline">
        <path
           id="path359"
           style="display:inline;opacity:1;fill:#003f00;fill-opacity:0.992157;stroke-width:1.37953;stroke-linecap:round;stroke-linejoin:round"
           d="m 1001.8984,749.77734 c -1.97079,-0.007 -3.93917,0.0333 -5.8984,0.26368 -5.20589,1.40543 -9.21946,4.98989 -13.08398,8.5625 -5.45793,5.513 -11.27409,10.6558 -16.55274,16.34179 -4.56578,4.78803 -8.63005,9.97684 -12.65039,15.21875 -4.74005,6.835 -8.69613,14.18366 -13.02539,21.28711 -3.75703,6.55506 -7.19404,13.20988 -12.42188,18.72852 -4.19517,4.85519 -7.20975,7.14221 -13.14648,9.44726 -4.95822,1.65665 -10.18618,1.87503 -15.36328,2.02344 -7.4578,0.71043 -14.01789,-2.17116 -20.43555,-5.59961 -1.21096,-0.65697 -2.42915,-1.30045 -3.63281,-1.9707 -1.2593,-0.70123 -2.50528,-1.4259 -3.75586,-2.14258 -1.25465,-0.71902 -5.03148,-2.85242 -3.75976,-2.16406 1.91119,1.0345 3.73951,2.21823 5.67773,3.20117 1.14575,0.58104 -2.18562,-1.34958 -3.29688,-1.99414 -4.18697,-2.42854 -8.39689,-4.81657 -12.5957,-7.22461 -3.68324,-1.92887 -7.1924,-4.2113 -10.88672,-6.12305 -9.93657,-5.72936 -7.97982,-4.70476 -16.99804,-9.51172 -9.38877,-5.82507 -19.30743,-10.53732 -29.5293,-14.67187 -6.92364,-2.92515 -14.24114,-4.06258 -21.68164,-4.5293 -6.33989,-0.29741 -12.68857,-0.24987 -19.03321,-0.22265 -6.76226,-0.3229 -12.68864,1.41057 -18.35351,5.02343 -4.85562,3.90281 -10.02124,7.37378 -15.08008,10.99805 -4.18507,2.7412 -8.32203,5.544 -12.05859,8.87891 -3.91525,3.72631 -8.11614,7.06988 -12.03516,10.81836 -5.4693,5.76963 -10.63228,11.83734 -15.63867,18.01171 -3.60797,4.76806 -8.016,8.49398 -13.05469,11.6211 -3.72029,2.08784 -7.84616,2.74719 -12.0332,3.05273 -0.75531,-0.0432 -1.52504,0.0256 -2.26563,-0.1289 -0.15693,-0.0327 -0.3857,-0.17029 -0.56054,-0.22071 -1.00143,-0.63133 -2.66218,-1.48078 -3.40821,-2.06054 -1.2929,-1.00476 -2.53691,-2.07114 -3.80468,-3.10743 -7.6576,-6.08965 -14.10032,-13.43611 -20.88477,-20.43164 -5.04606,-5.2871 -9.9666,-10.68978 -14.99023,-15.99804 -4.08154,-3.76638 -7.74761,-7.94818 -11.91016,-11.62305 -6.71635,-5.28519 -14.01634,-10.59277 -22.39648,-12.72852 -5.68283,-0.61635 -11.44627,-0.75529 -17.14844,-0.35937 -5.87384,0.24728 -10.80681,3.3073 -15.41211,6.67969 -3.07599,2.45581 -6.08798,4.98037 -9.03125,7.58203 -2.24631,-1.06677 -4.52229,-2.06703 -6.8418,-2.95703 -2.76889,-1.06244 -11.92751,-1.42392 -15.1543,-1.65039 -6.31326,-0.23457 -12.75117,-0.91764 -19.00195,0.41601 -3.91126,0.83449 -6.04411,1.87689 -9.75586,3.36328 -1.80474,0.92837 -3.65145,1.7791 -5.41406,2.78516 -5.01732,2.86379 -8.92576,5.61415 -13.66211,8.70312 -3.26186,-3.65039 -6.40184,-7.40998 -10.18359,-10.53906 -9.55312,-6.70974 -14.63163,-8.93206 -25.02735,-9.74805 -0.84739,0.0312 -1.71091,-0.0697 -2.54297,0.0938 -1.27474,0.25046 -2.46702,0.74018 -3.58984,1.375 -0.94088,-0.74613 -1.86873,-1.50772 -2.81445,-2.24805 -1.22523,-0.76272 -3.41189,-2.16154 -5.14453,-3.29883 0.1576,0.57364 0.30556,1.14927 0.44921,1.72656 0.13027,0.081 0.0405,0.0728 0.0234,0.0937 0.0349,0.14107 0.0753,0.28061 0.10938,0.42188 0.13001,0.53297 0.23713,1.06959 0.33398,1.60742 1.50636,1.18644 3.01848,2.36496 4.51758,3.56055 -1.41716,1.20008 -2.70577,2.54499 -3.83594,3.99218 0.0341,2.63659 0.18228,5.2676 0.34571,7.89844 0.48276,0.89613 0.95724,1.79641 1.40625,2.71094 0.72376,1.46038 1.46694,2.91376 2.14843,4.39453 1.10826,-2.27115 2.19601,-4.54877 3.37891,-6.79492 1.44569,-2.03376 3.12692,-3.96696 5.01172,-5.57227 3.23866,2.56519 6.46273,5.1488 9.77344,7.625 4.75572,3.44687 9.70683,6.72469 14.96289,9.29688 -5.90575,3.54737 -11.86374,6.99369 -17.95118,10.27929 -10.39601,5.04266 -5.73458,2.9587 -15.2539,6.90235 0.0278,0.0969 0.0595,0.19795 0.0859,0.29297 l 8.17382,5.44531 c 9.92897,-4.38379 4.84568,-1.9816 15.22266,-7.26953 8.35753,-4.62317 10.22516,-5.56433 18.57227,-10.56641 0.65668,-0.39352 1.29977,-0.81488 1.95312,-1.21484 0.42824,0.0884 0.84382,0.20924 1.27734,0.2832 0.78257,0.13351 1.462,0.16553 2.20313,0.26367 0.85282,0.82703 1.69887,1.65948 2.62109,2.42188 1.55254,1.43977 4.90665,4.98672 6.58789,6.04883 4.7395,2.9941 9.62982,6.35966 15.06055,8.10156 3.74041,0.68051 7.44866,0.16846 11.08008,-0.92969 4.41233,-1.55096 8.31104,-4.03662 12.14844,-6.6875 3.84255,-2.63388 7.14498,-5.85924 10.56054,-9.00976 2.68945,-2.08994 5.25974,-4.29953 7.73633,-6.61329 3.11795,-1.32792 6.02891,-2.98374 8.00195,-5.4375 0.51541,-0.64099 0.80711,-1.43384 1.21094,-2.15039 0.0561,-0.48613 0.23007,-0.99385 0.2461,-1.47265 2.98456,-2.64912 6.03325,-5.22552 9.17187,-7.69727 4.56625,-3.1903 9.38088,-5.97456 15.10547,-6.15429 5.67313,-0.31712 11.44824,-0.25367 17.05273,0.74609 0.97836,0.29546 1.3522,0.52448 2.19922,0.89648 0.41491,0.33306 0.79529,0.56772 1.33789,1 4.23949,3.55625 7.7723,7.83696 11.91407,11.50782 5.12797,5.33504 10.16875,10.75289 15.25976,16.12304 6.83142,6.97573 13.20733,14.41133 20.85547,20.54297 7.20494,6.01688 11.46531,8.69412 20.5918,13.82422 1.4755,0.82939 4.14017,1.78312 5.90234,2.0332 0.78603,0.11155 1.58711,0.0311 2.38086,0.0469 4.31042,-0.40804 8.5094,-1.27173 12.2832,-3.52149 5.06746,-3.2571 9.42465,-7.19643 13.07032,-12.0332 4.93739,-6.17738 10.0497,-12.23028 15.61718,-17.85351 3.96539,-3.69805 8.27151,-6.93441 12.14453,-10.7129 3.70925,-3.31543 7.84989,-6.02167 11.96485,-8.80468 4.99886,-3.6441 10.05178,-7.21177 14.95508,-10.98633 5.54643,-3.31778 11.54403,-4.90268 18.04687,-4.50781 6.31118,-0.0243 12.62879,-0.0892 18.93359,0.24804 7.32612,0.56245 14.52325,1.78702 21.33399,4.68946 10.14707,4.11559 19.92987,8.92455 29.29297,14.6289 1.80459,0.97046 3.53476,2.0912 5.41211,2.91211 1.24698,0.54527 -4.6915,-2.76056 -3.51172,-2.08203 7.68763,4.4214 15.35796,8.86963 23.08203,13.22656 0.33204,0.19711 0.42562,0.26021 0.64062,0.38672 7.89838,4.64759 15.78681,9.3368 23.86719,13.66602 6.62575,3.37427 13.35786,5.98788 20.94531,5.28515 5.26801,-0.20728 10.57541,-0.49412 15.57618,-2.33789 6.00437,-2.48659 9.09905,-4.92221 13.33008,-9.90039 5.15595,-5.68132 8.69873,-12.32006 12.34765,-19.02734 4.2503,-7.09996 8.44375,-14.27156 13.1582,-21.07031 4.00656,-5.19901 8.04198,-10.36893 12.51368,-15.1836 5.27493,-5.64995 11.01576,-10.85208 16.58398,-16.20898 3.80931,-3.33765 7.713,-6.8622 12.83789,-7.88477 3.9045,-0.25852 7.8211,-0.12186 11.7324,-0.17383 4.901,0.012 9.8072,-0.004 14.6992,0.3379 5.19,0.47202 10.3059,1.40109 15.3418,2.75781 5.5905,1.37482 11.1222,3.04376 16.4629,5.20312 2.3847,0.8614 4.7363,1.7863 7.0098,2.91407 0.2154,0.13789 0.8182,0.52974 0.8691,0.5625 7.5524,5.37656 15.1725,10.85272 21.4961,17.67968 l 10.2656,4.38477 c -6.4722,-6.97865 -14.2552,-12.59917 -21.9257,-18.17578 -8.277,-5.60094 -16.8886,-10.85861 -26.3633,-14.10743 -5.3429,-2.15767 -10.9075,-3.77414 -16.5117,-5.0996 -5.0739,-1.35249 -10.2189,-2.27935 -15.4551,-2.62891 -4.9267,-0.26047 -9.8642,-0.29912 -14.7969,-0.30078 -1.9699,0.0412 -3.9432,-0.0142 -5.9141,-0.0215 z m -415.35348,44.7168 c -0.75417,-0.45635 1.54152,0.85764 2.2832,1.33398 0.12465,0.0801 0.1732,0.13899 0.28907,0.21485 -1.20796,-0.72107 -0.53733,-0.31748 -2.57227,-1.54883 z m -138.12109,5.66211 c -1.65507,-0.95699 -2.1744,-1.22758 1.18359,0.60547 0.19751,0.1489 0.36328,0.32939 0.55664,0.48242 -0.64781,-0.3855 -1.2285,-0.792 -1.74023,-1.08789 z m -4.9043,1.43164 c 2.70742,0.24821 5.39763,0.50113 8.02735,1.24023 0.18817,0.0529 0.52594,0.20258 0.8125,0.31641 3.70273,3.44033 6.80209,7.48544 10.36523,11.10156 1.0715,1.19942 2.09961,2.43736 3.13672,3.66797 -0.96355,0.60657 -1.94037,1.18467 -2.90821,1.78125 -0.0108,-0.002 -0.0185,-0.002 -0.0293,-0.004 -1.68942,-0.33582 -3.36517,-0.75452 -5.00195,-1.29102 -1.207,-0.39562 -3.6792,-2.20318 -4.3125,-2.18359 -5.62309,-4.16752 -11.09573,-8.51766 -16.54493,-12.89844 1.92095,-1.08888 4.00584,-1.85465 6.45508,-1.73047 z m 92.83594,2.31836 c 0.50394,-9.5e-4 2.05782,0.67941 2.57422,1.15039 0.0913,0.0833 0.0547,0.22568 0.0801,0.33984 -0.12132,0.10895 -0.23849,0.2226 -0.35938,0.33204 -0.91161,-0.42626 -1.83138,-0.86314 -2.37109,-1.56055 -0.14259,-0.18425 -0.0918,-0.2614 0.0762,-0.26172 z m -19.50195,2.0918 c 3.14999,0.0537 6.30511,0.28183 9.43164,0.38476 3.87833,0.29838 6.32607,0.41942 10.17773,0.99024 0.075,0.0111 0.20164,0.0864 0.2832,0.10547 -0.6724,0.63756 -1.39002,1.22311 -2.04492,1.88086 -1.4323,1.6676 -3.02989,3.14081 -4.63281,4.60937 -3.41449,1.44966 -7.08028,2.49422 -9.97266,3.46289 -14.02416,2.9444 -28.29035,4.83646 -42.64648,3.79688 6.59308,-4.15667 13.21473,-8.26566 20.33594,-11.46094 3.90733,-1.48733 5.57568,-2.32269 9.66992,-3.10742 3.10341,-0.59482 6.24844,-0.71582 9.39844,-0.66211 z m -0.0664,19.49804 c -1.60288,1.38816 -3.24383,2.7281 -5.0293,3.90039 -3.73811,2.66341 -7.60664,5.04969 -11.99609,6.4336 -3.20477,0.85883 -6.40154,1.2199 -9.61719,0.62304 -1.31813,-1.15368 -2.7666,-2.46666 -3.94141,-3.54101 -2.16417,-1.80922 -4.12245,-3.81175 -6.01367,-5.87695 1.35832,0.083 2.67476,0.16486 4.16993,0.25976 10.88152,0.77147 21.70159,-0.1525 32.42773,-1.79883 z" />
        <path
           style="display:none;opacity:1;fill:#003f00;fill-opacity:0.992157;stroke-width:1.37953;stroke-linecap:round;stroke-linejoin:round"
           id="path360"
           d="m 538.80606,797.77117 c -10.38071,-0.90492 -20.82934,-0.74691 -31.24084,-0.83836 -8.48308,0.57831 -17.97291,0.5696 -25.53214,5.20609 -8.60277,5.27655 -17.39497,16.60267 -23.83192,24.30896 -7.96857,9.31694 -14.82594,21.5648 -26.67844,26.61968 -9.30398,3.96799 -12.86084,2.64048 -23.33548,2.46929 -12.71731,-1.41616 -25.4763,-3.64686 -37.67046,-7.63334 -2.264,-0.74014 -4.89948,-4.34594 -6.61757,-2.69618 -1.66227,1.59615 4.1088,2.08831 6.1632,3.13247 0,0 -10.06481,-3.95962 -10.06481,-3.95962 v 0 c 4.00971,2.40075 7.87981,5.05178 12.02911,7.20227 3.64221,1.88767 13.54909,4.24043 16.50178,4.91571 13.21338,3.02188 13.27664,2.68586 27.1809,4.52528 10.95818,0.22791 14.54872,1.66393 24.24193,-2.52772 11.90951,-5.15004 18.60757,-17.62929 26.52199,-27.08066 7.03973,-8.44948 14.21158,-18.01695 23.92895,-23.65393 7.61623,-4.41812 16.88241,-4.44662 25.35187,-4.86246 10.66054,0.18262 21.38615,0.17406 31.97521,1.55115 z" />
        <path
           style="opacity:1;fill:#003f00;fill-opacity:0.992157;stroke-width:1.37953;stroke-linecap:round;stroke-linejoin:round"
           id="path361"
           d="m 530.2565,827.88309 c -0.0363,0.63095 0.0572,1.28308 -0.10895,1.89285 -0.50118,1.83954 -3.04143,6.53031 -3.59773,7.63655 -3.47771,6.91559 -6.88097,13.83721 -10.09433,20.87982 -3.04893,7.26596 -5.99929,14.66438 -7.71108,22.38255 -0.59263,2.67207 -1.02934,5.37696 -1.61202,8.05122 -1.30999,5.01134 -3.01494,10.2281 -6.65362,14.09456 -1.71293,1.82016 -2.84507,2.28822 -4.93849,3.50999 0,0 9.15711,5.91424 9.15711,5.91424 v 0 c 2.17011,-1.38455 3.32384,-1.92259 5.09419,-3.90619 3.61798,-4.05378 5.38999,-9.40847 6.81937,-14.52797 1.11675,-5.28837 0.60877,-2.59867 1.51476,-8.07084 1.53156,-7.72386 4.18442,-15.18574 7.19912,-22.44062 3.19411,-7.04541 6.58826,-13.88722 10.38098,-20.6325 0.68266,-1.21411 3.58252,-5.92853 4.24442,-7.77579 0.21952,-0.61264 0.17552,-1.28968 0.26328,-1.93452 z" />
        <path
           style="display:inline;opacity:1;fill:#003f00;fill-opacity:0.992157;stroke-width:1.37953;stroke-linecap:round;stroke-linejoin:round"
           id="path362"
           d="m 507.67582,806.56861 c -6.49767,3.81884 -13.48517,7.16625 -18.56059,12.93988 -1.57042,1.78645 -2.82846,3.82495 -4.24269,5.73743 -7.15667,12.58821 -9.83926,26.93294 -13.54349,40.75204 -2.7698,10.33309 -3.05437,10.77601 -6.23183,20.44275 -0.90648,2.13281 -1.81296,4.26561 -2.71943,6.39842 0,0 9.00707,5.02027 9.00707,5.02027 v 0 c 0.7943,-2.22048 1.5886,-4.44096 2.38289,-6.66144 3.06641,-10.12265 3.08082,-9.88993 5.95947,-20.65253 3.65363,-13.66004 6.61661,-27.76724 14.00473,-40.03409 1.42989,-1.82869 2.71427,-3.78113 4.28969,-5.48605 5.19864,-5.62599 12.21591,-9.01294 18.97355,-12.32487 z" />
        <path
           style="display:inline;opacity:1;fill:#003f00;fill-opacity:0.992157;stroke-width:1.37953;stroke-linecap:round;stroke-linejoin:round"
           id="path363"
           d="m 425.24344,792.4584 c 5.57657,7.65278 11.40079,15.93564 14.31234,25.04228 0.90484,2.83012 1.30064,5.79841 1.95097,8.69762 1.25129,17.4154 -6.9661,32.62579 -13.99402,47.92351 -3.55391,7.40301 -6.61271,15.05016 -10.61275,22.23007 0,0 9.40167,5.38972 9.40167,5.38972 v 0 c 3.79953,-7.33515 6.6898,-15.08034 10.14232,-22.57922 6.95923,-15.54905 15.0931,-31.01419 14.09024,-48.59837 -0.58142,-2.93845 -0.8916,-5.94384 -1.74426,-8.81533 -0.7603,-2.56047 -1.9562,-4.97386 -3.07102,-7.40104 -2.83707,-6.17689 -6.43682,-11.92127 -10.23575,-17.53863 z" />
        <path
           style="opacity:1;fill:#003f00;fill-opacity:0.992157;stroke-width:1.37953;stroke-linecap:round;stroke-linejoin:round"
           id="path364"
           d="m 501.96193,819.54101 c 6.71418,3.84631 14.46099,4.88403 21.78601,6.97524 8.4352,2.40816 8.23631,2.62272 16.0322,6.03595 -0.90554,0.32816 -2.91228,0.0414 -2.7166,0.98449 0.59723,2.87824 3.2039,4.94621 4.49516,7.58696 1.26885,2.59492 2.25396,5.32611 3.16013,8.06882 2.41858,7.32033 3.21394,14.61319 3.82005,22.23946 0.41571,8.50911 0.11762,17.02831 -0.21453,25.53365 0,0 9.37765,4.81319 9.37765,4.81319 v 0 c 0.17433,-8.58172 0.38607,-17.16912 0.0347,-25.75005 -0.81205,-10.64018 -2.44983,-21.03152 -7.00761,-30.81976 -1.25577,-2.69687 -2.24062,-5.69151 -4.34198,-7.79732 -4.31811,-4.32725 -9.70851,-7.43165 -14.56277,-11.14748 -8.24941,-3.46511 -7.131,-3.26313 -16.0563,-5.85806 -7.61104,-2.21282 -15.58058,-3.66529 -22.45009,-7.85852 z" />
        <path
           style="opacity:1;fill:#013f01;fill-opacity:1;stroke-width:1.37953;stroke-linecap:round;stroke-linejoin:round"
           id="path365"
           d="m 541.66859,836.67921 c 3.1341,-0.27467 6.28637,-0.27573 9.43028,-0.28074 4.17493,-0.16471 8.12196,1.33604 12.08506,2.42518 4.07366,1.38589 8.27328,2.19334 12.52696,2.76932 2.19169,0.3228 5.75533,0.20445 7.15699,-1.87998 0.29993,-0.44603 0.44385,-0.97909 0.66577,-1.46864 0.0958,-0.70812 0.27933,-1.40984 0.28742,-2.12437 0.0558,-4.92362 -2.11376,-10.30817 -4.39217,-14.5695 -0.75424,-1.41066 -1.64761,-2.74239 -2.47141,-4.11358 -3.63809,-5.07386 -7.61949,-10.03245 -12.45332,-14.03474 -0.59282,-0.49084 -1.2317,-0.92324 -1.84755,-1.38486 -7.42607,-4.72391 -12.50451,-7.97783 -20.28411,-9.83654 -1.19216,-0.28483 -2.40099,-0.49646 -3.5934,-0.78025 -2.68538,-0.84225 -5.44667,-1.42414 -8.23807,-1.76857 -1.96964,-0.25228 -3.8531,-0.74446 -5.69209,-1.48232 -4.04263,-2.16741 -9.10744,-4.89467 9.9944,5.74585 0.5654,0.31495 -1.09306,-0.69393 -1.62512,-1.06241 -1.6668,-1.15435 -3.23912,-2.43463 -4.81277,-3.71023 -2.44669,-2.11484 -4.63241,-4.48997 -6.6551,-7.00609 -1.23284,-1.79799 -2.56754,-3.47363 -4.15554,-4.96683 -2.40067,-2.01369 -4.90479,-3.90333 -7.40497,-5.79158 -0.345,-0.25744 -0.69,-0.51488 -1.03499,-0.77232 0,0 -13.37306,-5.30454 -13.37306,-5.30454 v 0 c 0.36584,0.2659 0.73167,0.5318 1.0975,0.7977 2.5116,1.80056 4.93917,3.71345 7.38649,5.59971 1.57628,1.47355 3.09095,3.00031 4.28481,4.81161 0.95822,1.16333 1.87276,2.39437 2.89987,3.49787 1.26082,1.35459 2.70039,2.5408 3.9611,3.89627 6.30902,5.3099 13.07818,10.17407 20.86327,13.1951 1.92493,0.6419 3.90201,1.03941 5.92199,1.24597 2.64995,0.34165 5.24212,0.96081 7.8252,1.63571 1.77104,0.38796 3.54834,0.74671 5.2856,1.27226 4.71915,1.4276 12.99946,5.95482 -5.4857,-4.26034 0.70408,0.4471 1.43667,0.85218 2.11224,1.34129 5.2975,3.83545 9.66017,8.8622 13.57099,14.0506 0.79438,1.30728 1.66412,2.57164 2.38314,3.92184 2.09816,3.94002 3.96181,8.67326 3.51365,13.23049 -0.0546,0.55484 -0.24827,1.08704 -0.37241,1.63056 -0.1665,0.31558 -0.28179,0.66405 -0.49951,0.94673 -1.28438,1.66764 -4.32066,1.25409 -6.08411,1.08337 -4.20128,-0.55051 -8.28672,-1.55814 -12.32174,-2.85218 -4.03365,-1.10813 -8.05785,-2.45581 -12.30685,-2.12408 -3.40204,-0.005 -6.80887,-0.028 -10.20311,-0.28074 z" />
        <path
           style="opacity:1;fill:#013f01;fill-opacity:1;stroke-width:1.37953;stroke-linecap:round;stroke-linejoin:round"
           id="path366"
           d="m 557.09807,796.86225 c -0.54245,0.77807 -1.3625,1.29961 -2.08007,1.89704 -0.66761,0.55583 -1.08037,0.98088 -1.71409,1.59454 -0.49719,0.45387 -1.62036,1.4905 -2.12869,1.90736 -0.37302,0.3059 -0.77762,0.57184 -1.15098,0.87733 -0.39246,0.32113 -0.75308,0.67987 -1.14517,1.00145 -0.47922,0.39305 -1.91804,1.46003 -2.42095,1.83597 -0.77943,0.55592 -1.43447,1.03922 -2.23841,1.55233 -0.91738,0.58553 -1.00788,0.54686 -1.85286,1.18895 -0.0533,0.0405 -1.67386,1.39953 -1.70524,1.42582 -0.89856,0.77749 -1.86067,1.47918 -2.77314,2.23913 -0.30128,0.25091 -0.58496,0.52236 -0.88413,0.77579 -0.55291,0.46839 -1.12105,0.91851 -1.67863,1.38132 -0.98294,0.94605 -2.17393,1.67964 -3.161,2.61721 -0.15993,0.15191 -0.3022,0.32138 -0.4533,0.48208 -0.15408,0.12897 -0.31506,0.25012 -0.46224,0.38692 -1.23984,1.15242 0.38095,-0.25771 -0.90147,0.89614 -0.46955,0.42246 -0.9635,0.8258 -1.45242,1.22555 -1.04832,0.83406 -1.98105,1.7997 -3.01217,2.6529 -0.67493,0.62716 -1.14836,1.42013 -1.72847,2.12647 -0.19101,0.23258 -0.60166,0.68904 -0.81058,0.92339 -0.23491,0.35098 -0.41716,0.55069 -0.49874,0.98657 -0.0396,0.21149 -0.20272,0.53468 -0.0181,0.64524 4.24279,2.54104 8.59715,4.89893 13.00842,7.13474 0.16525,0.0838 0.31043,-0.20235 0.4636,-0.30657 0.16863,-0.11474 0.33448,-0.23352 0.50171,-0.35027 0.88754,-0.61496 1.91015,-0.96032 2.8879,-1.39255 2.18221,-0.9647 -0.64133,0.20605 1.64974,-0.72818 0.30187,-0.13152 0.60354,-0.2635 0.90561,-0.39455 0.90844,-0.39414 1.08498,-0.44086 1.97758,-0.94298 1.34224,-0.75508 2.57638,-1.66831 3.82104,-2.57017 0.51489,-0.39444 1.01743,-0.80555 1.54467,-1.18334 1.91583,-1.37276 1.42434,-0.81351 3.26169,-2.33856 0.57083,-0.47379 1.08653,-1.01171 1.65965,-1.48274 1.07235,-0.88133 2.44329,-1.81253 3.5805,-2.61086 1.92419,-1.31824 3.98235,-2.42925 5.90082,-3.75622 0.40596,-0.2808 0.79276,-0.58845 1.19484,-0.87479 0.39338,-0.28013 0.79421,-0.54964 1.19131,-0.82447 1.26817,-0.81142 2.41158,-1.78441 3.56922,-2.73981 1.10103,-0.90867 2.19483,-1.81598 3.26977,-2.75578 0.85942,-0.77382 1.73481,-1.57772 2.30106,-2.60396 0.16159,-0.29286 0.31038,-0.72683 0.42803,-1.0449 0.10833,-0.54225 0.27569,-1.07811 0.33383,-1.63002 0.0287,-0.27289 0.0267,-0.54815 0.0411,-0.82218 0.0269,-5.44169 -8.70311,-6.027 -12.89798,-8.32074 -0.008,-0.005 -1.23341,0.49492 -1.33735,0.53908 -0.18511,0.0676 -0.56722,0.19674 -0.74015,0.30067 -0.13418,0.0806 -0.24836,0.1908 -0.37666,0.28048 -0.4242,0.29649 -0.85613,0.58251 -1.27977,0.88041 -1.20394,0.9564 -2.29432,2.03339 -3.35507,3.14266 -0.40062,0.59928 -0.98105,1.06643 -1.29883,1.72417 -0.13603,0.28157 -0.22635,0.58323 -0.32673,0.8794 -0.2054,0.60598 -0.45367,1.49144 -0.63021,2.10191 -0.32797,2.02097 -0.91694,3.97967 -1.85976,5.79738 -0.35742,0.5576 -0.66541,1.15003 -1.11214,1.6455 -0.42389,0.47013 -0.93346,0.87994 -1.42952,1.26916 -0.75081,0.52557 -0.2573,0.13887 -0.95236,0.80158 -0.51623,0.49221 -0.54658,0.44754 -1.00524,1.03766 -0.3623,0.46614 -0.67749,0.96706 -1.01662,1.45032 -0.54057,0.97561 -1.1449,1.92437 -1.62166,2.93467 -0.28452,0.60293 -0.36473,0.897 -0.58256,1.53338 -0.51613,1.22692 -1.02429,2.47396 -1.67477,3.63787 -0.32292,0.59066 -0.79025,1.07234 -1.21081,1.58932 -0.17637,0.26219 -0.51987,0.38935 -0.70528,0.63743 -3.44512,4.60957 9.88354,6.84438 12.50868,8.26488 0.17885,0.0968 0.29322,-0.28182 0.43984,-0.42274 0.95588,-0.67393 2.02826,-1.13878 3.08232,-1.63238 0.30966,-0.145 0.6309,-0.26624 0.93277,-0.42683 0.31706,-0.16868 0.6139,-0.37288 0.92085,-0.55931 1.37257,-0.64541 0.55326,-0.24502 1.88117,-0.92867 0.29819,-0.15352 0.60801,-0.2859 0.89584,-0.45806 0.31472,-0.18823 1.48696,-1.03208 1.75544,-1.26269 0.32993,-0.28338 0.62772,-0.60216 0.94159,-0.90324 1.90143,-2.00275 4.03045,-3.77649 5.88565,-5.82483 0.37134,-0.41 0.71902,-0.84083 1.07853,-1.26124 0.65364,-0.75609 1.44443,-1.65201 2.06248,-2.44058 0.31729,-0.40483 0.60585,-0.83155 0.92018,-1.23869 0.29387,-0.38064 0.60787,-0.74539 0.9041,-1.12421 0.71839,-0.91866 0.87837,-1.16218 1.54215,-2.08979 0.53596,-0.91603 1.2124,-1.73085 1.86638,-2.56107 0.53559,-0.67993 1.04428,-1.36982 1.60648,-2.02855 0.59838,-0.57602 1.12136,-1.24266 1.76517,-1.77201 0.0934,-0.0768 0.22786,-0.10753 0.29941,-0.20507 0.18999,-0.25902 0.31244,-0.56136 0.46866,-0.84204 -17.8124,-9.46289 -11.03804,-10.62755 -14.10799,-4.88921 -0.24747,0.46257 -0.49538,0.77905 -0.80128,1.20799 -1.14841,1.70517 -2.88104,2.86474 -4.4809,4.10752 -1.57454,1.21874 -2.70079,2.84235 -3.71033,4.53221 -0.16937,0.28713 -0.34643,0.56986 -0.5081,0.86139 -0.16787,0.30271 -0.31431,0.61692 -0.48019,0.92072 -0.59669,1.09277 -1.25604,2.14628 -1.8986,3.21182 -0.46667,0.82529 -1.00209,1.61093 -1.43992,2.453 -0.1159,0.22291 -0.50111,1.0869 -0.59701,1.29974 -0.10528,0.21162 -0.21626,0.4205 -0.31583,0.63486 -0.43446,0.93524 -0.13111,0.38857 -0.57994,1.27612 -1.32891,2.62783 0.64144,-1.31056 -0.67735,1.20654 -0.11302,0.21572 -0.20514,0.44176 -0.3077,0.66264 -0.2185,0.84999 -0.51176,1.67133 -0.83732,2.48468 0,0 12.04512,6.69678 12.04512,6.69678 v 0 c 0.27742,-0.77706 0.56225,-1.55136 0.99426,-2.25992 0.62652,-1.25991 1.30774,-2.49172 1.84602,-3.79269 0.21587,-0.41236 0.45906,-0.81015 0.67099,-1.22454 0.0986,-0.19278 0.17337,-0.39691 0.26588,-0.59268 0.31366,-0.66378 0.66346,-1.31106 0.94195,-1.99143 0.73917,-1.73795 1.59883,-3.41427 2.61933,-5.00605 1.00981,-1.51175 2.08337,-2.97784 3.46707,-4.17617 1.59412,-1.40283 3.22719,-2.76064 4.80956,-4.17678 0.2173,-0.21641 0.4459,-0.42203 0.6519,-0.64922 0.55665,-0.61392 0.37673,-0.54139 0.89936,-1.10578 3.67816,-3.97206 15.52112,7.24331 -12.32688,-7.43872 0.19098,-0.24561 0.33154,-0.54056 0.57295,-0.73684 0.28615,-0.23266 0.006,0.44892 -0.0596,0.57813 -0.19157,0.37973 -0.43242,0.68106 -0.66572,1.03733 -0.13543,0.20681 -0.26359,0.41829 -0.39539,0.62744 -0.32969,0.48318 -0.68863,0.94597 -1.01805,1.42933 -0.77215,1.13303 -1.28871,2.4136 -2.0119,3.57606 -0.45518,0.86765 -0.68071,1.33167 -1.201,2.17816 -1.05242,1.71225 -2.27816,3.32527 -3.5562,4.87264 -1.06666,1.21517 -2.13392,2.42767 -3.2882,3.56176 -0.39289,0.38601 -0.78312,0.77621 -1.20258,1.13317 -1.09381,0.93086 -1.50547,1.13764 -2.69594,1.89678 -1.92103,1.01666 -3.77639,2.15366 -5.69709,3.17304 -0.34462,0.14469 -0.68925,0.28939 -1.03387,0.43408 -0.28765,0.13863 -0.56926,0.29055 -0.86294,0.41588 -1.1596,0.49489 -2.38017,0.90152 -3.63596,1.0469 -5.33659,-1.29453 0.76308,0.12351 11.82003,7.50213 0.14926,0.0996 -0.25016,0.26369 -0.40451,0.35523 -0.0575,0.0341 0.0558,-0.12363 0.0995,-0.17434 0.16921,-0.19653 0.39998,-0.3342 0.5594,-0.54073 0.53864,-0.60345 0.87942,-1.33047 1.12841,-2.09728 0.50045,-1.28546 0.74487,-2.65158 1.29718,-3.91757 0.45328,-0.92317 0.85674,-1.86952 1.28009,-2.80685 0.10536,-0.23328 0.18717,-0.47773 0.30755,-0.70362 0.12611,-0.23664 0.28652,-0.45334 0.42978,-0.68 0.16319,-0.21098 0.3113,-0.43454 0.48958,-0.63294 0.47061,-0.52374 1.06527,-0.99387 1.61831,-1.42823 0.17474,-0.13723 0.36733,-0.2515 0.53652,-0.39551 0.15194,-0.12934 0.28284,-0.28154 0.42427,-0.42231 1.079,-1.04965 2.17467,-2.12592 2.67531,-3.58629 0.24282,-0.76068 0.31775,-0.93803 0.49436,-1.73806 0.32099,-1.45409 0.45025,-2.96034 1.06586,-4.33688 0.11568,-0.31079 0.20896,-0.63087 0.34703,-0.93238 0.34062,-0.74384 0.46081,-0.8054 0.92335,-1.42523 0.97416,-1.3054 -0.2122,0.26149 0.75142,-1.06635 0.12774,-0.17602 0.26474,-0.34514 0.39712,-0.51771 0.93943,-1.08563 1.95616,-2.12575 3.31848,-2.66481 0.79638,-0.39 1.56815,-0.7784 2.4379,-0.97935 0.21579,-0.0146 0.42854,-0.0571 0.6364,0.0455 0.10492,0.0518 0.37007,0.28463 0.26907,0.22552 -4.09451,-2.39638 -8.20314,-4.76994 -12.25377,-7.23976 -0.0885,-0.0539 0.20526,-0.06 0.30767,-0.0442 0.0801,0.0123 0.13956,0.0826 0.20934,0.1239 0.036,0.0863 0.0857,0.16807 0.10794,0.25888 0.13941,0.56934 -0.0305,1.26764 -0.0624,1.84014 -0.063,1.34798 -0.57587,2.48304 -1.35252,3.5831 -0.63429,0.84855 -0.79787,1.13232 -1.58586,1.89809 -1.43362,1.39321 -3.19263,2.38229 -4.78099,3.57952 -0.83793,0.60426 -1.54599,1.10209 -2.35915,1.73937 -1.74547,1.36794 -3.34391,2.90815 -5.04989,4.32313 -0.94119,0.77425 -2.42448,2.02207 -3.41007,2.7173 -0.63455,0.44762 -1.31103,0.8328 -1.95865,1.26128 -1.1079,0.73301 -2.15772,1.55464 -3.29153,2.2469 -0.57946,0.35379 -1.19216,0.65005 -1.78824,0.97507 -0.54688,0.26773 -1.08522,0.55367 -1.64065,0.8032 -1.9524,0.8771 -4.01514,1.4604 -6.01623,2.20815 -0.60748,0.22032 -1.22199,0.42166 -1.82448,0.65527 -1.03962,0.40311 -2.03474,0.94439 -3.16547,1.06001 -0.19627,-0.001 -0.39709,0.0382 -0.58881,-0.004 -0.12306,-0.027 -0.43291,-0.2579 -0.32311,-0.19611 4.15509,2.33837 8.40221,4.52118 12.45917,7.02596 0.32871,0.20295 -0.72545,0.50902 -0.75306,0.50035 -0.0784,-0.0246 -0.0612,-0.15241 -0.0918,-0.22862 0.0461,-0.13948 0.0725,-0.28708 0.13833,-0.41842 0.46958,-0.93737 1.34239,-1.62985 2.02174,-2.40356 0.91317,-0.94356 1.92745,-1.77149 2.9324,-2.61328 0.34916,-0.29318 0.72257,-0.55683 1.06913,-0.85306 0.16041,-0.13711 0.30126,-0.29558 0.45392,-0.44126 0.46067,-0.4396 0.96906,-0.82961 1.3693,-1.32872 1.09505,-1.04558 1.96397,-2.29472 3.05767,-3.34379 0.50526,-0.48502 0.9903,-0.99139 1.50767,-1.46349 0.28337,-0.25858 0.58489,-0.49655 0.87573,-0.74671 0.89255,-0.76773 1.78885,-1.53013 2.7632,-2.19515 0.15596,-0.11192 1.64807,-1.18032 1.82982,-1.31963 1.0964,-0.84038 0.5449,-0.44981 1.56128,-1.39974 0.17442,-0.16301 1.81596,-1.61442 1.95449,-1.7371 0.49587,-0.40429 1.84559,-1.51247 2.34714,-1.88969 0.42151,-0.31702 0.8704,-0.59677 1.28898,-0.91764 0.38099,-0.29204 0.73112,-0.62262 1.10808,-0.91984 0.95185,-0.75047 1.38355,-1.02636 2.37149,-1.70901 1.12328,-0.67489 1.02489,-0.62969 2.10328,-1.22841 0.91944,-0.51048 1.87579,-1.00127 2.95057,-1.03346 z" />
      </g>
      <g
         inkscape:groupmode="layer"
         id="g394"
         inkscape:label="arm"
         style="display:inline;fill:#000000">
        <g
           id="g371"
           inkscape:label="front arm"
           style="display:inline">
          <path
             style="opacity:1;fill:#000000;fill-opacity:1;stroke-width:1.37953;stroke-linecap:round;stroke-linejoin:round"
             id="path367"
             d="m 850.62585,803.86841 c 4.75302,-0.84732 9.53616,-2.18687 14.01986,0.0831 -13.77939,-7.79598 -7.6414,-5.41916 -5.99838,-1.10265 0.81121,2.13122 1.0449,4.33793 1.84574,6.49893 3.19215,5.65336 7.30458,10.61613 9.91285,16.60153 2.18131,6.66439 3.44942,9.83694 -0.69093,15.92039 -3.58973,4.0241 -8.84538,5.68682 -13.74833,7.56167 -5.49766,1.96603 -11.27379,2.73185 -17.0671,3.11105 -5.65949,0.26428 -11.32711,0.21239 -16.99094,0.21038 -5.33335,-0.0152 -10.66666,-0.0397 -16.00001,-0.0527 -6.71824,0.29093 -13.38474,-0.4389 -20.07057,-0.97447 -11.05178,-0.88748 -21.93996,-2.54586 -32.82652,-4.56885 -1.78274,-0.48308 -3.58889,-0.88682 -5.34821,-1.44925 -1.85019,-0.59147 -3.62745,-1.39422 -5.46998,-2.00915 -10.92525,-3.64622 -22.09725,-6.64734 -33.17463,-9.78342 -13.03299,-3.63059 -25.77177,-8.31017 -39.07234,-10.94385 -8.46906,-1.67698 -12.81218,-2.01533 -21.42313,-3.03078 -9.91742,-1.00555 -19.87326,-1.49572 -29.82582,-1.97894 0,0 8.41212,6.16967 8.41212,6.16967 v 0 c 9.87698,0.40776 19.75788,0.83877 29.59207,1.90267 9.01317,1.11347 12.5826,1.37118 21.43431,3.18077 13.26093,2.711 25.98731,7.35698 39.00875,10.95642 9.0264,2.59279 18.02687,5.23647 26.98475,8.05769 4.04702,1.27458 8.01689,2.78865 12.07487,4.02788 1.77822,0.54303 3.60112,0.92718 5.40168,1.39077 10.92787,2.05912 21.9007,3.50398 32.97632,4.54248 6.75829,0.57779 13.50277,1.29176 20.29772,1.03039 5.31773,0.002 10.63546,0.005 15.95318,0.0189 5.68401,0.0159 11.37379,0.0509 17.05119,-0.26473 5.86314,-0.44123 11.68429,-1.36472 17.23165,-3.39466 5.1249,-1.97325 10.49646,-3.75066 14.11681,-8.12194 4.41735,-6.52066 3.43743,-9.70083 1.16974,-16.90422 -2.43389,-6.05803 -6.41599,-11.07265 -9.86238,-16.56234 -1.05511,-2.40189 -1.04773,-4.07614 -1.77699,-6.49189 -1.83985,-6.09469 -6.50656,-6.99448 -12.84184,-10.43491 -4.76951,-1.64192 -9.6834,-0.37629 -14.53659,0.42989 z"
             inkscape:label="path149" />
          <path
             style="opacity:1;fill:#000000;fill-opacity:1;stroke-width:1.37953;stroke-linecap:round;stroke-linejoin:round"
             id="path368"
             d="m 842.26312,797.37732 c -8.43111,0.31894 -16.83087,0.0607 -25.24033,-0.53196 -10.68483,-1.02883 -21.40959,-1.23644 -32.13449,-1.35801 -14.57965,-0.66042 -29.14954,-1.48404 -43.73637,-1.97667 -11.03095,-0.35207 -22.06866,-0.38494 -33.10417,-0.43084 -9.04508,-0.0318 -18.0902,-0.0145 -27.13529,9.3e-4 -9.97929,0.0218 -19.95857,0.0128 -29.93787,0.0184 -7.61675,-0.0168 -15.23343,-0.0461 -22.85018,-0.0596 -3.03797,-0.0123 -6.07597,-0.003 -9.11395,0.002 0,0 8.90475,6.46969 8.90475,6.46969 v 0 c 3.04029,0.006 6.0806,0.0149 9.12089,0.003 7.56177,-0.0134 15.12347,-0.0427 22.68525,-0.0603 9.99047,0.004 19.9809,-0.007 29.97138,0.005 9.03903,0.006 18.07806,10e-4 27.11709,-0.0103 10.98525,0.006 21.97126,0.0522 32.95302,0.36028 14.58258,0.44588 29.14844,1.22808 43.71959,1.94242 10.75799,0.21094 21.51212,0.56674 32.23556,1.50505 8.5398,0.60206 17.07048,0.71245 25.63,0.7211 z" />
          <path
             style="opacity:1;fill:#000000;fill-opacity:1;stroke-width:1.37953;stroke-linecap:round;stroke-linejoin:round"
             id="path369"
             d="m 742.83768,844.41072 c -10.75733,0.15107 -21.51453,0.27295 -32.2675,-0.0839 -15.0148,-0.1446 -29.74506,-2.72998 -44.46681,-5.36919 -11.58037,-2.25921 -23.24647,-4.01326 -34.83373,-6.23052 -10.35112,-2.07378 -20.77854,-3.72427 -31.10897,-5.8983 -6.88713,-1.27059 -13.50078,-3.6059 -20.26709,-5.36816 0,0 8.57672,6.57605 8.57672,6.57605 v 0 c 6.74834,1.80482 13.38873,4.05053 20.27316,5.30367 10.33454,2.16846 20.77014,3.8056 31.12387,5.88226 11.56179,2.16071 23.19175,3.91537 34.74098,6.14513 14.72377,2.58001 29.47107,5.02003 44.46975,5.18504 10.9387,0.38657 21.87893,0.28824 32.82245,0.44248 z" />
          <path
             style="opacity:1;fill:#000000;fill-opacity:1;stroke-width:1.37953;stroke-linecap:round;stroke-linejoin:round"
             id="path370"
             d="m 619.72341,792.60258 c -8.10951,0.62839 -15.9586,-1.73768 -23.79046,-3.54591 -8.33412,-1.63072 -13.40018,-4.26881 -21.2911,0.006 -5.56099,3.78471 -10.02901,7.65448 -13.25828,13.72944 -2.3387,5.09939 -2.83627,10.68091 -3.07141,16.23447 -0.0921,6.30344 -5.8e-4,12.60814 0.0502,18.91166 0.009,2.40923 -0.16068,4.56337 0.51437,6.90928 2.19854,7.64032 13.18489,11.61177 19.9688,13.22391 7.91796,0.57879 13.56718,-1.85214 19.92481,-6.31415 6.39867,-5.05543 12.52766,-10.42958 19.2097,-15.09498 1.07134,-0.63666 2.14267,-1.27332 3.21402,-1.90998 0,0 -9.6539,-6.46533 -9.6539,-6.46533 v 0 c -1.0744,0.66673 -2.14878,1.33346 -3.22318,2.0002 -6.63386,4.7413 -12.81431,10.06072 -19.27754,15.03638 -5.94951,4.05501 -11.99235,6.58765 -19.31839,5.52887 -5.35441,-1.5851 -6.73873,-2.39121 3.14102,3.44683 0.80431,0.47528 -1.56335,-1.06939 -2.1747,-1.78871 -2.18176,-2.56706 -2.14359,-5.98088 -2.05257,-9.1716 -0.007,-6.27041 -0.0766,-12.5418 0.0273,-18.81158 0.18027,-5.38108 0.55304,-10.81089 2.75902,-15.78159 3.00548,-5.72547 7.58445,-9.68095 12.91714,-13.09283 7.17689,-3.52258 13.21119,-0.9908 20.65662,0.52742 7.97665,1.87516 15.97968,3.97418 24.2335,3.55593 z" />
          <path
             style="display:inline;opacity:1;fill:#ffffff;fill-opacity:1;stroke-width:1.37953;stroke-linecap:round;stroke-linejoin:round"
             d="m 841.12863,852.0645 c 6.61167,-0.54809 11.2859,-1.62776 17.59387,-4.0639 6.21614,-2.40068 9.52437,-4.65433 11.63069,-7.92315 1.51774,-2.35539 1.62472,-2.84698 1.39312,-6.40199 -0.3415,-5.24223 -1.83128,-8.81485 -7.18952,-17.24113 -3.25513,-5.11897 -4.76171,-8.06572 -5.25834,-10.28487 l -0.69605,-3.11029 -2.28663,0.3208 c -5.55257,0.77898 -16.79207,0.95154 -25.66586,0.39404 -5.2947,-0.33264 -15.44404,-0.86343 -22.55407,-1.17953 -7.11003,-0.3161 -20.84876,-0.98061 -30.53051,-1.47669 -13.47042,-0.69022 -34.32792,-0.98331 -88.84103,-1.24843 l -71.23786,-0.34645 -11.00198,-2.56916 c -15.49374,-3.61806 -18.37284,-3.50179 -24.76215,1.00001 -6.37839,4.49412 -10.02414,9.49262 -11.6337,15.9504 -0.79353,3.18373 -0.96133,6.53091 -0.98381,19.62442 -0.0211,12.28793 0.13214,15.94487 0.6915,16.50297 1.1133,1.11078 7.02029,0.73472 10.83349,-0.68968 1.81533,-0.67811 4.58918,-2.05228 6.16411,-3.0537 2.90089,-1.84452 16.82954,-12.74379 17.07166,-13.35869 0.0724,-0.18382 -3.35847,-1.27203 -7.62411,-2.41823 -7.35627,-1.97668 -7.98123,-2.25568 -12.13428,-5.41713 -2.40821,-1.83322 -4.2707,-3.441 -4.13885,-3.57284 0.13184,-0.13185 3.67646,0.73139 7.87693,1.9183 8.44133,2.38524 21.88852,5.24014 22.92584,4.86727 0.36535,-0.13132 1.11174,-0.008 1.65865,0.27333 1.13605,0.58504 10.89148,2.47161 35.31216,6.82889 26.63838,4.75297 34.8595,6.14142 41.88519,7.0739 7.48634,0.99362 28.49109,2.08076 35.40376,1.83238 l 4.67584,-0.16801 -12.92733,-3.80011 c -29.35507,-8.6292 -33.03903,-9.64482 -39.8822,-10.99498 -11.5767,-2.28408 -25.8248,-3.84109 -41.50981,-4.53613 l -8.50386,-0.37683 -4.25172,-3.07331 c -2.33845,-1.69031 -4.26713,-3.22855 -4.28595,-3.4183 -0.0188,-0.18975 1.01783,-0.25481 2.30369,-0.14456 1.28586,0.11024 6.9175,0.45766 12.51476,0.77205 22.35486,1.25562 36.74377,3.54308 53.90973,8.57021 5.59726,1.63919 19.08845,5.56721 29.98041,8.72894 10.89197,3.16173 23.14502,6.88716 27.22901,8.27873 10.58779,3.60766 28.04361,6.39957 49.78489,7.96266 8.83948,0.63552 39.26076,0.61534 47.06032,-0.0312 z"
             id="path371"
             inkscape:label="color" />
        </g>
      </g>
      <g
         id="g396"
         inkscape:label="plants arms - hands - front"
         style="display:inline">
        <path
           id="path394"
           style="display:inline;opacity:1;fill:#003f00;fill-opacity:0.992157;stroke-width:1.37953;stroke-linecap:round;stroke-linejoin:round"
           d="m 423.66797,769.38477 c -0.0927,0.7552 -0.11893,1.5218 -0.2793,2.26562 -0.89695,4.16007 -2.23979,8.19595 -2.98242,12.4043 -0.96215,5.45234 -0.81734,5.76792 -1.15234,11.34179 -0.0198,1.9372 0.085,3.80359 0.2832,5.6211 0.0175,-5.8e-4 0.0352,-9.6e-4 0.0527,-0.002 0.27806,-0.006 0.55781,-0.007 0.83594,-0.008 0.31804,-6e-4 0.6351,-0.002 0.95313,-0.002 0.29839,-1.5e-4 0.59615,2e-5 0.89453,0 0.3879,-3e-5 0.77615,0 1.16406,0 h 1.18359 c 0.38818,-10e-6 0.77589,0 1.16407,0 0.3826,0.009 0.76469,-0.034 1.14453,-0.0742 0.37886,-0.0421 0.75681,-0.0855 1.13672,-0.11719 0.26835,-0.0242 0.53512,-0.0571 0.80273,-0.0879 0.21302,-0.0132 0.42266,-0.0534 0.63086,-0.0976 0.0467,-0.01 0.0939,-0.0181 0.14062,-0.0274 -0.059,-1.07484 -0.0936,-2.16067 -0.0703,-3.27148 0.3402,-5.45873 1.0155,-10.57034 2.33399,-15.88477 3.51177,-14.15485 -1.08402,4.67509 2.26367,-7.66601 0.22017,-0.81166 0.31876,-1.65089 0.47851,-2.47657 z m 6.09765,33.15234 c -0.0248,2.7e-4 -0.0494,0.003 -0.0742,0.004 0.03,0.003 0.0598,0.007 0.0898,0.01 -4.7e-4,-0.005 -9.5e-4,-0.009 -0.002,-0.0137 -0.005,1.2e-4 -0.009,-1.3e-4 -0.0137,0 z m -9.26171,4.07227 c 2.12087,8.98643 6.7541,16.78209 12.33203,24.88476 3.82218,4.83135 7.20664,7.92402 12.85351,10.26563 l 10.85352,0.62695 c -1.00982,-0.33365 -2.0655,-0.55041 -3.0293,-1 -4.13222,-1.92763 -7.34637,-5.30923 -10.30859,-8.66211 -5.08076,-7.09756 -9.47935,-14.23347 -11.82422,-22.18555 -0.26865,-0.0604 -0.53592,-0.1255 -0.79883,-0.20703 -0.23653,-0.0833 -0.45663,-0.20531 -0.66601,-0.3418 -0.0284,-0.0199 -0.0557,-0.0406 -0.084,-0.0605 -0.29256,-0.20562 -0.42955,-0.43933 -0.45117,-0.64453 -0.13611,-0.0485 -0.27154,-0.0955 -0.4082,-0.14258 -0.48401,-0.15749 -0.9716,-0.309 -1.46094,-0.44922 -0.74236,-0.19949 -1.47609,-0.4269 -2.20899,-0.6582 -0.80026,-0.25888 -1.59986,-0.51626 -2.41015,-0.74219 -0.70354,-0.18894 -1.40335,-0.39206 -2.10156,-0.59961 -0.0962,-0.0266 -0.19139,-0.056 -0.28711,-0.084 z" />
        <path
           id="path395"
           style="display:inline;opacity:1;fill:#003f00;fill-opacity:0.992157;stroke-width:1.37953;stroke-linecap:round;stroke-linejoin:round"
           inkscape:label="plants arms - front"
           d="m 925.11133,760.20508 c -3.94475,-0.0965 -7.84323,0.48785 -11.70899,1.11133 -7.52413,0.80042 -13.39487,4.6877 -18.97461,9.30273 -6.75151,5.8385 -13.22848,11.99395 -19.72461,18.10938 -0.17836,0.16792 -0.25374,0.24822 -0.52929,0.50976 -5.7502,5.2078 -11.43773,10.48277 -17.13867,15.74414 0.55612,-0.52259 1.32181,-1.22444 0.95703,-0.95898 -1.61455,1.17491 -3.01457,2.6144 -4.52149,3.92187 -7.65238,7.44088 -15.93376,14.08635 -24.74023,20.1211 -5.87616,4.18803 -12.54332,6.80346 -19.5,8.79492 -6.02337,1.56965 -12.15799,2.74698 -18.27735,3.96289 -6.20085,1.66518 -12.40476,1.28761 -18.60156,-0.88086 -5.68728,-2.74335 -11.46935,-5.25512 -17.21679,-7.85156 -4.67734,-1.92453 -9.35879,-3.76789 -13.77539,-6.29492 -4.69031,-2.9496 -9.666,-5.28231 -14.42579,-8.13477 -6.78992,-4.42825 -13.24522,-9.36868 -19.5625,-14.46484 -4.73296,-4.03347 -9.93263,-7.04507 -15.65039,-9.24805 -4.21439,-1.4679 -8.49681,-1.49097 -12.77343,-1.04492 -0.76494,0.17144 -1.56126,0.24972 -2.29493,0.51367 -1.64476,0.59173 -3.98773,2.05195 -5.21093,3.15625 -7.56588,6.83047 -11.02748,10.29729 -16.51172,17.62109 -5.2028,6.65137 -9.2062,14.09664 -13.43555,21.39649 1.58523,0.15721 3.16223,0.37576 4.72852,0.6582 0.70379,-1.24029 1.39189,-2.49021 2.10546,-3.72461 4.83383,-8.20221 9.24968,-16.67987 15.1543,-24.16406 0.97059,-1.26666 1.90935,-2.56015 2.91211,-3.80078 0.57834,-0.71554 1.97563,-1.87279 2.78906,-2.68946 0.1571,-0.084 0.34418,-0.26504 0.48829,-0.32812 0.67896,-0.29719 1.44317,-0.38147 2.16406,-0.57227 4.13166,-0.52246 8.29171,-0.68464 12.41406,0.63477 5.65758,2.08098 10.85383,4.87232 15.5332,8.8457 6.38337,5.07967 12.88989,10.02588 19.6211,14.61719 4.72738,2.91108 9.62746,5.36774 14.3457,8.25781 4.44793,2.54082 9.15184,4.47992 13.88672,6.34961 5.8006,2.56521 11.66882,4.95922 17.3418,7.83789 6.38481,2.43496 12.55341,2.9736 19.02343,1.32813 6.15249,-1.21962 12.31365,-2.41959 18.38086,-3.95703 7.0913,-1.91992 13.89903,-4.47451 19.87891,-8.70704 8.87422,-6.06803 17.30977,-12.64454 24.95703,-20.20898 7.53991,-6.49073 5.90345,-5.10471 14.09961,-12.67773 3.10476,-2.60364 5.93581,-5.53579 9.02539,-8.1543 3.46893,-3.18947 6.95585,-6.36108 10.4082,-9.56836 0.91629,-0.85125 3.66275,-3.40111 2.69727,-2.60547 -1.63326,1.34598 -3.1108,2.86847 -4.70508,4.25977 -1.06084,0.92577 2.06878,-1.91077 3.10547,-2.86328 1.03332,-0.94942 2.05986,-1.90583 3.10547,-2.8418 0.99942,-0.89463 2.01952,-1.76737 3.0293,-2.65039 5.36469,-4.62737 11.00383,-8.74434 18.40429,-9.51172 5.05168,-0.87126 10.17042,-1.68406 15.38477,-1.03125 6.32324,1.09732 9.81019,2.74974 15.08008,6.69336 6.43489,4.39223 11.41785,10.25225 16.68554,15.95117 5.95831,6.12499 11.61674,12.56307 17.90625,18.34375 5.19653,4.35773 10.42101,8.65803 16.03321,12.46289 6.52567,4.54663 13.43928,8.45145 20.09568,12.79297 4.6309,2.74911 9.409,5.48243 14.8008,5.83984 3.9102,-0.31728 7.6652,-1.38911 11.502,-2.08203 4.7773,-0.97061 9.5483,-1.98149 14.2558,-3.20508 4.9852,-1.37183 9.7396,-3.29236 14.3184,-5.61718 5.0993,-2.40249 10.0872,-5.08165 14.7265,-8.25 8.3706,-5.0515 15.4072,-11.90531 22.0332,-19.03125 2.922,-3.37551 5.8558,-6.77653 8.6309,-10.29688 -0.405,0.0897 -0.8145,0.16262 -1.2207,0.24414 -0.7885,0.15213 -1.5737,0.31679 -2.3633,0.46289 -0.1278,0.021 -0.255,0.0435 -0.3828,0.0645 -0.2978,0.049 -0.5774,0.0715 -0.8418,0.0762 -3.7454,5.36076 -8.0648,10.31549 -12.3828,15.19922 -0.041,0.0422 -0.5283,0.54639 -0.7031,0.72461 -1.9221,1.55399 -3.9704,2.92202 -6.0664,4.23632 -4.6368,3.16958 -9.5806,5.89552 -14.6543,8.34375 -4.5409,2.32154 -9.2639,4.23961 -14.1739,5.72266 -4.6536,1.29684 -9.4119,2.24421 -14.1562,3.21875 -3.8016,0.71731 -7.56,1.62163 -11.4063,2.13477 -5.2183,0.003 -9.8754,-2.69344 -14.3945,-5.22266 -6.7244,-4.16658 -13.5785,-8.14628 -20.09179,-12.6582 -5.5276,-3.84951 -10.72,-8.13289 -15.89258,-12.45118 -6.2556,-5.75014 -12.09958,-11.96837 -17.98047,-18.10546 -5.20082,-5.86966 -10.28184,-11.69561 -16.6875,-16.26172 -5.3352,-4.05734 -8.9372,-5.83927 -15.37109,-7.10157 -1.32551,-0.20704 -2.64603,-0.31547 -3.96094,-0.34765 z m 190.82227,19.86133 -0.2246,0.16015 c -0.1112,0.30642 -0.2855,0.60163 -0.418,0.85352 -0.1382,0.17197 -0.2748,0.34619 -0.4082,0.52148 0.032,2.6e-4 0.064,1.6e-4 0.096,0 0.3077,-0.51894 0.6605,-1.00741 0.9551,-1.53515 z"
           sodipodi:insensitive="true" />
        <path
           id="path396"
           style="display:inline;opacity:1;fill:#003f00;fill-opacity:0.992157;stroke-width:1.37953;stroke-linecap:round;stroke-linejoin:round"
           d="m 488.48828,749.95898 c -2.03397,5.1345 -5.67019,9.46601 -8.90039,13.87891 -5.14045,7.02262 -2.92525,3.92629 -8.04492,11.32617 -1.04088,1.89899 -1.87694,3.3515 -2.60938,4.68164 0.0861,0.0293 0.17153,0.0611 0.25782,0.0899 0.28523,0.0993 0.57049,0.19883 0.85547,0.29883 0.72673,0.14362 1.44196,0.35346 2.13476,0.61523 0.49457,0.18687 0.74021,0.30665 1.22461,0.52539 0.21368,0.10261 0.42464,0.2087 0.63672,0.31445 0.60811,0.23872 1.21849,0.47511 1.82226,0.72461 0.4389,0.18093 0.87376,0.37118 1.30469,0.57032 0.28744,0.13805 0.57782,0.26648 0.86719,0.40039 0.1264,0.0562 0.25693,0.10114 0.38867,0.14453 0.82859,-1.65086 1.75704,-3.28915 2.8086,-4.91407 5.89735,-8.3397 12.56472,-16.19067 17.83984,-24.92968 z m -22.16601,35.58008 c -0.44865,1.25128 -0.88805,2.64309 -1.35352,4.4336 -3.03782,11.68555 -2.35278,24.03612 -2.09375,35.99804 0.0632,-2.9e-4 0.12647,6.9e-4 0.18945,0 0.23747,-0.003 0.47364,-0.007 0.71094,-0.0176 0.22971,-0.0116 0.46104,-0.0214 0.6875,-0.0644 0.24405,-0.0499 0.47805,-0.15053 0.72852,-0.17383 0.39075,-0.0679 0.78335,-0.11817 1.17968,-0.13867 0.82779,-0.0428 1.65727,-0.0751 2.48633,-0.0781 0.70686,-0.007 1.41225,-0.006 2.11914,-0.006 0.49339,3.5e-4 0.98695,1.8e-4 1.48047,0 -0.46693,-12.48334 -0.62119,-24.50151 3.41211,-35.94141 -0.13541,-0.0519 -0.27486,-0.0953 -0.41016,-0.14062 -0.37449,-0.12558 -0.75824,-0.2168 -1.13281,-0.3418 -0.29939,-0.11098 -0.59499,-0.23208 -0.88867,-0.35742 -0.27821,-0.13645 -0.54439,-0.29453 -0.82422,-0.42774 -0.25938,-0.10433 -0.50505,-0.23733 -0.75781,-0.35547 -0.31205,-0.14672 -0.63451,-0.26913 -0.94922,-0.41015 -0.27963,-0.12742 -0.56625,-0.2378 -0.85156,-0.35156 -0.30158,-0.11719 -0.59194,-0.2613 -0.88086,-0.40625 -0.28871,-0.12295 -0.57024,-0.2605 -0.85742,-0.38672 -0.23656,-0.0991 -0.48041,-0.18026 -0.72657,-0.25196 -0.26776,-0.0763 -0.52288,-0.18865 -0.76953,-0.3164 -0.16938,-0.0823 -0.33453,-0.17298 -0.49804,-0.26563 z m -3.76368,51.79688 c -0.0557,0.70686 -0.0947,1.18291 -0.17968,2.30859 l 10.08398,2.97656 c 0.12226,-2.99359 0.14577,-3.58792 0.17578,-4.49023 -0.0619,0.002 -0.12363,0.004 -0.18555,0.006 -0.25456,0.0115 -0.50795,-0.01 -0.76171,-0.0273 -0.27057,-0.004 -0.53682,-0.0588 -0.80079,-0.11329 -0.21552,-0.0448 -0.43188,-0.0797 -0.64843,-0.11914 -0.25364,-0.0449 -0.50917,-0.0766 -0.76563,-0.0996 -0.31636,-0.0178 -0.63119,-0.0482 -0.94726,-0.0703 -0.45274,-0.0271 -0.90796,-0.0302 -1.36133,-0.0352 -0.58623,-0.003 -1.17064,-0.0301 -1.75586,-0.0625 -0.47565,-0.0335 -0.94859,-0.0964 -1.42188,-0.15235 -0.0456,-1.4e-4 -0.0911,1.2e-4 -0.13671,0 -0.27218,0.003 -0.54365,10e-4 -0.81446,-0.0273 -0.16258,-0.0223 -0.32186,-0.0547 -0.48047,-0.0937 z" />
      </g>
    </g>
  </g>
</svg>
