<?xml version="1.0" encoding="UTF-8" standalone="no"?>
<!-- Created with Inkscape (http://www.inkscape.org/) -->

<svg
   width="735.87921"
   height="515.30774"
   viewBox="0 0 735.87921 515.30774"
   version="1.1"
   id="svg1"
   inkscape:version="1.3.2 (091e20e, 2023-11-25, custom)"
   sodipodi:docname="foot-back.svg"
   xmlns:inkscape="http://www.inkscape.org/namespaces/inkscape"
   xmlns:sodipodi="http://sodipodi.sourceforge.net/DTD/sodipodi-0.dtd"
   xmlns="http://www.w3.org/2000/svg"
   xmlns:svg="http://www.w3.org/2000/svg">
  <sodipodi:namedview
     id="namedview1"
     pagecolor="#ffffff"
     bordercolor="#000000"
     borderopacity="0.25"
     inkscape:showpageshadow="2"
     inkscape:pageopacity="0.0"
     inkscape:pagecheckerboard="0"
     inkscape:deskcolor="#d1d1d1"
     inkscape:document-units="px"
     inkscape:zoom="0.3"
     inkscape:cx="778.33333"
     inkscape:cy="-118.33333"
     inkscape:window-width="1304"
     inkscape:window-height="745"
     inkscape:window-x="1358"
     inkscape:window-y="-8"
     inkscape:window-maximized="1"
     inkscape:current-layer="svg1" />
  <defs
     id="defs1">
    <filter
       style="color-interpolation-filters:sRGB"
       inkscape:label="Drop Shadow"
       id="filter2877"
       x="-0.37189785"
       y="-0.78539347"
       width="1.7437957"
       height="2.5707869">
      <feFlood
         result="flood"
         in="SourceGraphic"
         flood-opacity="1.000000"
         flood-color="rgb(0,0,0)"
         id="feFlood2875" />
      <feGaussianBlur
         result="blur"
         in="SourceGraphic"
         stdDeviation="46.200607"
         id="feGaussianBlur2875" />
      <feOffset
         result="offset"
         in="blur"
         dx="0.000000"
         dy="0.000000"
         id="feOffset2875" />
      <feComposite
         result="comp1"
         operator="out"
         in="flood"
         in2="offset"
         id="feComposite2876" />
      <feComposite
         result="comp2"
         operator="atop"
         in="comp1"
         in2="SourceGraphic"
         id="feComposite2877" />
    </filter>
  </defs>
  <g
     id="g629"
     inkscape:label="skeleton"
     transform="matrix(-1,0,0,1,1240.8794,-1531.307)">
    <g
       inkscape:groupmode="layer"
       id="g450"
       inkscape:label="body"
       style="display:inline;fill:#000000">
      <g
         id="g415"
         inkscape:label="foot back"
         style="display:inline;fill:#000000;filter:url(#filter2877)"
         transform="matrix(0.78674064,0.5167153,-0.9005352,0.67961362,1712.2679,-77.868432)">
        <path
           style="display:inline;opacity:1;fill:#000000;fill-opacity:0.992157;stroke-width:1.37953;stroke-linecap:round;stroke-linejoin:round"
           id="path409"
           d="m 1206.5604,1905.1644 c -39.9625,13.0551 -79.9083,26.2881 -119.6819,39.9154 -23.8467,8.2808 -47.6082,16.7962 -71.6259,24.5954 0,0 11.403,3.3188 11.403,3.3188 v 0 c 23.6811,-7.9435 47.1079,-16.568 70.6478,-24.8962 40.012,-13.8757 80.2224,-27.4462 120.8271,-39.5136 z" />
        <path
           style="display:inline;opacity:1;fill:#000000;fill-opacity:0.992157;stroke-width:1.37953;stroke-linecap:round;stroke-linejoin:round"
           id="path410"
           d="m 1077.745,1916.8039 c -6.3547,4.5756 -12.8347,8.9686 -18.8681,13.9775 -8.102,6.3386 -16.9918,11.7043 -24.682,18.5413 -6.4924,6.1199 -12.7355,12.5048 -19.0406,18.8199 0,0 10.4988,3.2199 10.4988,3.2199 v 0 c 6.3228,-6.2691 12.5497,-12.6384 19.0174,-18.7553 7.7612,-6.746 16.5678,-12.1967 24.6877,-18.5019 6.0701,-4.949 12.5158,-9.3938 19.031,-13.7338 z" />
        <path
           style="display:inline;opacity:1;fill:#000000;fill-opacity:0.992157;stroke-width:1.37953;stroke-linecap:round;stroke-linejoin:round"
           id="path411"
           d="m 1061.9144,1924.2265 c -10.1555,9.1215 -22.2387,15.8636 -34.4758,21.7637 -10.1553,4.6489 -20.6926,8.3757 -31.35833,11.6559 -0.53586,0.1553 -2.15051,0.3367 -1.60842,0.4633 3.89894,0.9266 7.85265,1.9192 11.85995,1.971 0.958,0.012 9.7325,-9.2729 10.8509,-10.4253 7.0782,-7.2396 14.7066,-13.8883 22.4524,-20.4 5.3991,-4.453 10.5512,-9.1094 15.618,-13.9367 0,0 -10.4877,-3.2403 -10.4877,-3.2403 v 0 c -5.0288,4.8217 -10.2026,9.4172 -15.5428,13.8897 -7.7502,6.5784 -15.5105,13.1557 -22.5858,20.4687 -2.8317,2.8819 -5.6795,5.7842 -8.67992,8.4932 -0.76437,0.6901 -3.09872,1.2636 -2.36572,1.9869 6.49434,6.4078 6.57434,5.976 10.92464,4.4796 10.5549,-3.4646 21.0379,-7.1822 31.1067,-11.9103 12.3732,-6.0168 24.5232,-12.9353 34.9264,-22.0187 z" />
        <path
           style="display:inline;opacity:1;fill:#000000;fill-opacity:0.992157;stroke-width:1.37953;stroke-linecap:round;stroke-linejoin:round"
           id="path412"
           d="m 1043.3888,1911.4591 c -8.6964,2.5775 -17.4035,5.1192 -26.1184,7.6331 -10.8505,3.1375 -21.71109,6.2404 -32.5699,9.349 -5.25469,0.5288 -18.41909,7.1938 -22.71959,5.7584 4.11007,0.9738 8.17564,2.8515 12.33014,2.9213 0.96019,0.016 0.83334,-1.8587 1.38064,-2.6908 5.05846,-7.6913 11.96455,-14.2555 18.13171,-20.7961 8.1772,-7.6461 15.8457,-15.8922 23.9003,-23.6839 0,0 -11.7375,-4.3795 -11.7375,-4.3795 v 0 c -8.03411,7.8282 -15.75715,16.0233 -23.8817,23.7442 -6.2949,6.5917 -13.50586,13.1849 -18.61079,21.0209 -0.63963,0.9819 -2.49913,2.3626 -1.60201,3.179 3.44062,3.1307 8.00711,4.1948 12.01073,6.2921 7.74323,-0.8144 14.9689,-4.9501 22.61238,-6.3274 10.82369,-3.1422 21.64989,-6.2758 32.48289,-9.3864 8.7996,-2.5343 17.6091,-5.034 26.4279,-7.5007 z" />
        <path
           style="display:inline;opacity:1;fill:#000000;fill-opacity:0.992157;stroke-width:1.37953;stroke-linecap:round;stroke-linejoin:round"
           id="path413"
           d="m 1189.4453,1831.8145 c -18.5161,1.3993 -36.7908,5.3805 -54.968,9.0579 -18.6148,3.8156 -36.9935,8.6297 -55.3175,13.6304 -10.1068,2.7596 -20.1679,5.6808 -30.2266,8.6096 -10.932,3.8191 -20.566,10.4203 -30.6836,15.9257 -4.3555,2.1537 -8.6196,4.4821 -12.9327,6.7185 0,0 10.3918,3.5363 10.3918,3.5363 v 0 c 4.3102,-2.2454 8.6053,-4.5195 12.9243,-6.7482 10.0213,-5.5649 19.6431,-12.119 30.6202,-15.692 10.011,-2.8936 20.0105,-5.8276 30.0383,-8.6625 18.1982,-5.0627 36.4849,-9.8276 54.9843,-13.675 18.3631,-3.7247 36.8675,-7.721 55.6261,-8.6162 z" />
        <path
           id="path414"
           style="display:inline;opacity:1;fill:#000000;fill-opacity:0.992157;stroke-width:1.37953;stroke-linecap:round;stroke-linejoin:round"
           d="m 1209.897,1834.2868 c 0.2046,0.13 0.4175,0.1597 0.6301,0.1274 -0.2101,-0.043 -0.4194,-0.089 -0.6301,-0.1274 z m 4.4305,6.6325 c 8.2419,10.3278 17.9874,19.3186 26.627,29.2987 4.8308,6.5648 11.8753,13.5679 5.3768,21.2237 -7.7762,5.0569 -16.9737,7.3851 -25.7915,9.9687 -8.5894,2.4363 -17.2038,4.7811 -25.7933,7.2171 l 10.3514,3.7607 c 8.5864,-2.4053 17.1803,-4.783 25.7505,-7.2456 8.9837,-2.6404 18.4536,-5.021 26.1479,-10.559 6.6078,-8.6414 0.1841,-15.3817 -5.3116,-22.769 -8.8682,-10.3348 -18.9612,-19.566 -27.4744,-30.2152 -0.2874,-0.3979 -0.4944,-0.7248 -0.7634,-1.1054 -0.8724,0.2305 -1.7476,0.4523 -2.6333,0.6243 -1.2354,0.2009 -2.4852,0.3116 -3.7374,0.2126 -0.9233,-0.082 -1.8458,-0.2077 -2.7487,-0.4116 z" />
        <path
           style="display:inline;opacity:1;fill:#ffffff;fill-opacity:1;stroke-width:1.37953;stroke-linecap:round;stroke-linejoin:round"
           d="m 1069.4742,1950.3409 c 3.8766,-2.1205 114.0515,-38.5391 143.579,-47.4603 25.2326,-7.6237 29.6759,-9.3581 32.5577,-12.7085 2.9808,-3.4656 3.0606,-4.5096 0.7478,-9.7769 -3.5035,-7.9789 -30.5841,-37.2226 -34.5687,-37.3299 -1.6948,-0.046 -5.2073,-1.5091 -7.8056,-3.252 -8.4802,-5.6886 -34.3246,-1.4606 -101.2466,16.5633 l -49.9505,13.4531 -17.1089,9.5059 c -9.4099,5.2283 -17.3187,10.043 -17.5749,10.6995 -0.2562,0.6563 -7.2623,7.9537 -15.569,16.2164 -23.74686,23.6209 -24.51345,22.6614 10.1722,12.7314 29.5515,-8.4599 30.0306,-8.5436 36.6153,-6.3875 6.8413,2.24 9.1074,4.6049 5.4282,5.6645 -1.1407,0.3285 -9.2287,7.0318 -17.9732,14.8962 -15.1295,13.6066 -15.553,14.1525 -8.7488,11.2764 3.9327,-1.6624 12.0759,-6.2764 18.096,-10.2536 6.0202,-3.977 13.035,-8.0061 15.5886,-8.9534 2.5536,-0.9473 7.4238,-3.4403 10.8225,-5.5402 5.5153,-3.4072 6.6753,-3.6371 10.7907,-2.1382 2.5361,0.9237 4.7477,2.0745 4.9148,2.5576 0.1672,0.4829 -5.8634,5.3957 -13.4013,10.917 -39.09,28.6334 -40.7044,30.4828 -21.5763,24.7193 7.7621,-2.3385 15.0569,-4.7688 16.211,-5.4001 z"
           id="path415"
           inkscape:label="color" />
      </g>
    </g>
  </g>
</svg>
