<?xml version="1.0" encoding="UTF-8" standalone="no"?>
<!-- Created with Inkscape (http://www.inkscape.org/) -->

<svg
   width="177.78812"
   height="119.77625"
   viewBox="0 0 177.78812 119.77625"
   version="1.1"
   id="svg1"
   inkscape:version="1.3.2 (091e20e, 2023-11-25, custom)"
   sodipodi:docname="skeleton.svg"
   xmlns:inkscape="http://www.inkscape.org/namespaces/inkscape"
   xmlns:sodipodi="http://sodipodi.sourceforge.net/DTD/sodipodi-0.dtd"
   xmlns="http://www.w3.org/2000/svg"
   xmlns:svg="http://www.w3.org/2000/svg">
  <sodipodi:namedview
     id="namedview1"
     pagecolor="#ffffff"
     bordercolor="#000000"
     borderopacity="0.25"
     inkscape:showpageshadow="2"
     inkscape:pageopacity="0.0"
     inkscape:pagecheckerboard="0"
     inkscape:deskcolor="#d1d1d1"
     inkscape:document-units="px"
     inkscape:zoom="0.3"
     inkscape:cx="780"
     inkscape:cy="1215"
     inkscape:window-width="1304"
     inkscape:window-height="745"
     inkscape:window-x="1358"
     inkscape:window-y="-8"
     inkscape:window-maximized="1"
     inkscape:current-layer="g552" />
  <defs
     id="defs1">
    <filter
       style="color-interpolation-filters:sRGB"
       inkscape:label="Drop Shadow"
       id="filter846"
       x="-0.015619714"
       y="-0.066492459"
       width="1.032429"
       height="1.3261517">
      <feFlood
         result="flood"
         in="SourceGraphic"
         flood-opacity="0.623529"
         flood-color="rgb(0,0,0)"
         id="feFlood845" />
      <feGaussianBlur
         result="blur"
         in="SourceGraphic"
         stdDeviation="5.471125"
         id="feGaussianBlur845" />
      <feOffset
         result="offset"
         in="blur"
         dx="1.000000"
         dy="38.145897"
         id="feOffset845" />
      <feComposite
         result="comp1"
         operator="out"
         in="flood"
         in2="offset"
         id="feComposite845" />
      <feComposite
         result="comp2"
         operator="atop"
         in="comp1"
         in2="SourceGraphic"
         id="feComposite846" />
    </filter>
  </defs>
  <g
     id="g629"
     inkscape:label="skeleton"
     transform="translate(-332.60815,-626.66803)">
    <g
       id="g397"
       inkscape:label="arm back"
       transform="rotate(13.223163,906.39488,442.22147)"
       style="filter:url(#filter846)">
      <g
         inkscape:groupmode="layer"
         id="g394"
         inkscape:label="arm"
         style="display:inline;fill:#000000">
        <g
           id="g393"
           inkscape:label="hand"
           style="display:inline"
           transform="translate(16.502972,27.504965)">
          <path
             style="display:inline;opacity:1;fill:#000000;fill-opacity:1;stroke-width:1.37953;stroke-linecap:round;stroke-linejoin:round"
             id="path376"
             d="m 512.98635,760.59611 c -8.83751,0.55391 -17.54608,-1.26165 -26.15259,-3.12375 1.9461,3.87516 -12.92737,-6.83123 -10.37123,-4.05065 1.50712,1.63947 3.58062,3.40124 5.75052,3.22812 1.98442,-0.15832 -3.39425,-2.17148 -5.0766,-3.28187 -4.6304,-3.05622 -4.67763,-3.15194 -9.08485,-6.31008 -10.36183,-7.40364 -21.30427,-14.03327 -33.65394,-16.75103 -8.6189,-1.29524 -17.15671,-2.56953 -25.39588,-5.54342 -0.63263,-1.04278 -9.83785,-3.68601 -6.32408,1.04477 0.4521,0.60867 6.08641,4.14607 6.22155,4.23336 13.41248,9.37184 26.57686,19.28279 41.44531,26.05329 8.07626,2.99692 16.25436,5.63434 24.34416,8.58588 0,0 -10.12714,-8.24025 -10.12714,-8.24025 v 0 c -8.03853,-2.92569 -16.19902,-5.4538 -24.16904,-8.58537 -1.61486,-0.77193 -5.90524,-3.80342 -4.84458,-2.31579 1.33855,1.87738 3.62345,2.92731 5.76731,3.60996 2.00906,0.63972 -3.59644,-2.26912 -5.34969,-3.47698 -5.09541,-3.5104 -10.04325,-7.27058 -15.12663,-10.80205 -2.30939,-1.48614 -4.84942,-4.04991 -7.69175,-3.77102 -2.08236,0.20433 8.01629,1.30607 6.00427,1.90256 8.27933,2.81612 16.87882,3.87247 25.44279,5.40912 4.02374,1.01325 4.04344,0.88826 7.81803,2.32352 1.25688,0.47792 4.74283,2.45323 3.73316,1.53698 -2.2227,-2.01707 -5.04001,-3.18791 -7.46863,-4.92686 -2.43723,-1.74511 10.88532,6.74614 7.54697,4.85769 4.64996,3.36741 9.33651,6.66734 14.20466,9.68672 8.85174,5.49015 16.5029,11.36675 26.50622,13.57723 8.79173,1.85035 17.66293,3.48354 26.67247,3.18845 z" />
          <path
             style="display:none;opacity:1;fill:#000000;fill-opacity:1;stroke-width:1.37953;stroke-linecap:round;stroke-linejoin:round"
             id="path377"
             d="m 444.12428,749.26645 c -6.8966,-0.16517 -13.87195,0.60424 -20.75131,-0.12666 -2.36344,-0.25111 -4.68805,-0.78601 -7.03208,-1.17902 -14.75422,-3.06552 -29.25366,-7.17662 -43.9609,-10.44484 -4.55571,-0.24766 -8.76346,-2.96869 -13.21911,-3.59097 -1.12126,-0.15659 -1.7398,1.3833 -0.57825,2.2208 3.61327,2.60522 7.7192,4.44808 11.57881,6.67213 6.63195,2.83989 13.01561,6.23421 19.67378,9.03055 3.26442,1.41499 6.46903,2.97959 9.64509,4.58276 0.93747,0.4732 3.68566,2.01314 2.78256,1.47725 -2.24967,-1.33491 -9.07827,-5.20268 -6.82408,-3.87541 3.95013,2.32583 7.94151,4.58088 11.91226,6.87132 7.41341,3.48203 15.13423,6.28954 22.96432,8.69779 13.47622,3.50095 27.21509,5.89361 40.79461,8.98895 6.14507,1.358 12.29616,2.60664 18.3879,4.18572 0,0 -8.58219,-6.5627 -8.58219,-6.5627 v 0 c -6.0352,-1.45488 -12.11751,-2.65234 -18.17886,-3.99504 -13.67107,-3.05247 -27.48564,-5.5524 -40.9957,-9.25261 -7.83876,-2.49217 -15.62094,-5.30763 -22.97501,-9.00822 2.31969,1.34621 9.28069,5.38152 6.95907,4.03863 -8.00154,-4.6283 -15.89651,-9.42165 -24.47277,-12.93091 -6.65533,-2.90257 -13.14634,-6.17986 -19.74736,-9.19271 10.52233,6.40278 9.86929,3.75811 6.01652,4.78645 -0.13119,0.035 0.2747,-0.0104 0.40679,0.021 0.81403,0.19363 1.61518,0.43789 2.42397,0.65234 5.98065,1.58573 3.65763,0.98359 10.47056,2.60236 14.71797,3.2399 29.20424,7.43429 43.98676,10.38894 2.39179,0.37562 4.76721,0.87683 7.17536,1.12686 7.03379,0.7303 14.15057,0.0894 21.20209,0.39976 z" />
          <path
             style="display:none;opacity:1;fill:#000000;fill-opacity:1;stroke-width:1.37953;stroke-linecap:round;stroke-linejoin:round"
             id="path378"
             d="m 459.42461,779.93052 c -8.1021,-0.74875 -15.92065,-3.15969 -23.80567,-5.05534 -11.38161,-3.82761 -23.01483,-7.03886 -34.17551,-11.49303 -1.00959,-0.53478 -1.89174,-1.49288 -3.02878,-1.60436 -1.91325,-0.18757 -0.63295,2.60614 0.37042,3.96228 0.8968,1.21211 2.0764,2.18702 3.12996,3.26567 2.7651,2.83093 5.56973,5.62297 8.35166,8.43735 7.38741,7.48839 15.49438,14.20413 24.54264,19.57931 7.04606,4.92212 13.39954,7.40576 21.18567,9.56566 0,0 -8.66184,-6.66798 -8.66184,-6.66798 v 0 c -2.90429,-0.84877 -15.33761,-5.94192 -2.33461,1.01597 -9.19757,-5.20957 -17.38544,-11.90669 -24.83989,-19.3877 -3.73546,-3.7941 -7.36707,-7.72938 -11.2184,-11.40709 -0.55149,-0.52663 -1.12468,-1.03296 -1.72947,-1.49741 -0.0574,-0.0441 -0.2815,-0.0309 -0.21724,0.002 0.97903,0.50876 1.9886,0.95648 2.98289,1.43472 11.22313,4.28923 22.82597,7.57111 34.22533,11.34738 8.03657,1.96465 16.02972,4.41183 24.30773,5.10266 z" />
          <path
             style="display:inline;opacity:1;fill:#000000;fill-opacity:1;stroke-width:1.37953;stroke-linecap:round;stroke-linejoin:round"
             id="path379"
             d="m 534.01261,764.20039 c -2.68227,-4.91544 -6.27699,-9.26864 -9.73418,-13.65079 -3.08129,-3.8883 -6.78751,-7.17679 -10.42483,-10.52083 -4.24451,-3.76474 -9.19704,-7.19873 -14.77904,-8.43019 -2.02384,-0.43667 -4.04316,-0.86288 -6.05527,-1.35447 -2.8459,-0.85564 -5.59082,-2.03582 -8.28773,-3.27797 -9.92758,-3.50156 -19.85452,-7.01307 -29.68306,-10.78561 -1.3358,-0.48547 -2.67518,-0.96126 -4.00742,-1.45643 -3.02955,-1.12603 -3.37773,-1.26392 -6.21788,-2.5041 -1.72627,-0.75378 -3.41348,-1.59021 -5.18394,-2.23556 -0.22293,0.40111 -0.63659,0.74556 -0.66877,1.20332 -0.0327,0.46538 1.13328,1.30098 1.35522,1.4806 0.94878,0.76783 1.90034,1.51817 2.8215,2.31977 2.03839,1.84336 4.05329,3.71114 6.10775,5.53667 1.86619,1.80609 4.11749,3.10585 6.20178,4.62531 1.71105,1.40561 3.54865,2.64145 5.38141,3.87965 4.32345,2.73701 8.82796,5.20506 13.2708,7.72466 1.33086,0.75475 2.73953,1.38687 4.09279,2.10155 1.91325,0.98026 3.78408,2.02352 5.70057,2.9956 0.28498,0.14455 0.57521,0.27918 0.85494,0.43364 0.34085,0.18822 1.34371,0.78739 1.00585,0.59387 -2.66654,-1.52739 -5.31761,-3.08183 -7.99195,-4.5955 -0.4772,-0.2701 0.93744,0.56926 1.39966,0.86426 0.47754,0.30478 0.95108,0.61598 1.4193,0.93491 0.44039,0.29997 0.87079,0.61436 1.30618,0.92153 4.67078,3.45052 9.85405,6.1203 14.87007,9.02033 -16.27238,-10.12113 -8.11668,-4.73662 -4.61429,-1.99211 3.8335,3.47477 7.99056,5.15938 12.75223,7.9961 2.88717,1.72001 -5.82907,-3.34644 -8.7436,-5.01965 0.8461,0.57172 0.42548,0.28699 1.26189,0.85417 0,0 10.25719,4.03922 10.25719,4.03922 v 0 c -0.83241,-0.59884 -0.40845,-0.30646 -1.2722,-0.87665 -3.35788,-1.97283 -6.79195,-3.82138 -10.07366,-5.91848 -2.83773,-1.81339 5.83641,3.36181 8.74066,5.06665 0.22686,0.13317 -0.48341,-0.21207 -0.70695,-0.35074 -0.76721,-0.47591 -1.35125,-1.18635 -2.07162,-1.72176 -1.05763,-0.85749 -2.17784,-1.62991 -3.24211,-2.47575 -0.2417,-0.19209 -0.43261,-0.45066 -0.69723,-0.60969 -3.35015,-2.01342 -6.75577,-3.93307 -10.13365,-5.8996 17.07101,9.89933 7.27764,4.42539 3.59595,1.80798 -5.19856,-3.76645 -10.78223,-6.96823 -16.47866,-9.92599 -1.84403,-0.92364 -3.62968,-1.95773 -5.49182,-2.84671 -0.16491,-0.0846 -2.6304,-1.34987 -2.75186,-1.41325 -0.43727,-0.22814 -1.73156,-0.94451 -1.30718,-0.69321 14.43272,8.54645 8.35204,4.88001 5.16001,2.95183 -1.82178,-1.24827 -3.70803,-2.41901 -5.40695,-3.8334 -0.51491,-0.40041 -1.37845,-1.08864 -1.92207,-1.44284 -1.52804,-0.99564 -3.13125,-1.88906 -4.46629,-3.15945 -2.01119,-1.81435 -3.98757,-3.66545 -5.9981,-5.48055 -0.86735,-0.83053 -1.75949,-1.59114 -2.69848,-2.33907 -0.24713,-0.19685 -0.47104,-0.42766 -0.74289,-0.58865 -0.17116,-0.10136 -0.38335,-0.26397 -0.56674,-0.1869 -0.34391,0.14454 -0.54307,0.51162 -0.8146,0.76743 1.50982,0.40473 2.96648,1.14485 4.40917,1.7264 3.17912,1.28151 6.41772,2.38939 9.66659,3.48057 10.17049,3.67405 20.43245,7.13091 30.36538,11.42435 2.87585,1.3611 5.78464,2.72258 8.88977,3.48022 2.04296,0.49236 4.10712,0.8882 6.13516,1.43998 0.58977,0.17892 0.93184,0.25983 1.48503,0.51098 0.26046,0.11826 1.01049,0.53583 0.76445,0.38992 -15.4892,-9.18634 -8.97881,-5.66089 -5.98356,-3.15068 3.83159,3.37109 7.75176,6.66282 11.03854,10.59397 3.27143,4.04286 6.63143,8.13956 8.87972,12.86114 z" />
          <path
             style="display:inline;opacity:1;fill:#000000;fill-opacity:1;stroke-width:1.37953;stroke-linecap:round;stroke-linejoin:round"
             id="path380"
             d="m 557.709,763.46337 c -0.35485,-0.003 -0.71091,0.0208 -1.06457,-0.009 -0.85004,-0.0704 -3.09534,-0.48496 -3.71823,-0.56869 -4.66748,-0.62742 -9.36737,-1.06977 -14.04337,-1.63036 -10.52053,-1.40394 -21.10269,-2.11346 -31.70184,-2.52448 -7.23044,-0.20655 -14.46319,-0.3238 -21.69557,-0.44076 -3.21519,0.002 -6.41491,-0.13952 -9.61565,-0.42609 -1.68718,-0.18237 -3.37877,-0.28022 -5.07459,-0.31547 0,0 8.91913,6.51333 8.91913,6.51333 v 0 c 1.62774,0.0455 3.25372,0.13882 4.8788,0.24069 3.06749,0.18583 6.12832,0.17325 9.19929,0.0219 6.9931,-0.13039 13.98797,-0.2177 20.98142,-0.0385 10.45331,0.2867 20.90455,0.89597 31.27222,2.31913 5.00511,0.72184 6.28353,0.86096 11.14858,1.73149 11.51331,2.06015 -1.73012,-0.24771 6.54713,1.32413 0.42106,0.08 2.30977,0.34203 2.86795,0.42069 z" />
          <path
             style="display:inline;opacity:1;fill:#000000;fill-opacity:1;stroke-width:1.37953;stroke-linecap:round;stroke-linejoin:round"
             id="path381"
             d="m 484.6572,807.4514 c -6.39948,0.25958 -12.80463,0.35273 -19.20794,0.46715 -13.41175,0.09 -26.84275,-0.94766 -40.06538,-3.21071 -1.88483,-0.32259 -3.75626,-0.71909 -5.63439,-1.07864 -2.95559,-0.80622 -6.11336,-1.15585 -8.96177,-2.3589 -0.29357,-0.12399 -1.09285,-0.65611 -0.81845,-0.49408 6.26695,3.70056 4.85608,1.66585 6.37147,3.94924 6.99151,-1.18994 14.11459,-1.59046 21.18314,-2.10456 7.57825,-0.51716 15.17975,-0.54792 22.75355,-1.1365 3.73622,-0.29035 4.94032,-0.45831 8.57851,-0.8719 3.26666,-0.52468 6.50849,-1.18679 9.75542,-1.81852 0,0 -5.56952,-3.87191 -5.56952,-3.87191 v 0 c -3.13471,0.71699 -6.26787,1.45126 -9.44404,1.96717 -3.63303,0.47729 -4.61499,0.63768 -8.35622,0.99347 -7.48515,0.71185 -15.00392,0.88128 -22.50783,1.30189 -7.51019,0.3634 -15.05419,0.54551 -22.52845,1.37775 -0.26691,0.20678 -1.05524,0.39849 -0.80072,0.62034 5.69221,4.96154 8.33274,4.83264 15.15399,6.06892 15.09227,2.35721 30.34663,3.71602 45.61722,4.10097 6.83193,0.11635 13.66527,0.21521 20.49389,0.46714 z" />
          <path
             style="display:inline;opacity:1;fill:#000000;fill-opacity:1;stroke-width:1.37953;stroke-linecap:round;stroke-linejoin:round"
             id="path382"
             d="m 492.78808,762.87444 c 3.06134,-1.20775 6.24607,-1.90604 9.48875,-2.42342 5.50319,-1.03417 10.7919,0.18235 16.01553,1.8847 1.57673,-2.02392 4.70231,4.32833 6.1799,2.64401 0.71899,-0.81959 -2.32246,-2.47382 -2.88547,-1.54018 -0.56417,0.93558 1.81842,1.21876 2.65702,1.91901 2.14828,1.79385 2.58131,2.53811 4.29405,4.66543 2.01493,3.02876 3.8568,6.54146 3.09713,10.31687 -0.58469,2.9058 -1.58983,3.87323 -3.22021,6.37425 -6.32413,7.69158 -14.16414,13.97489 -22.84453,18.82508 -1.52094,0.84983 -3.10496,1.58147 -4.65745,2.3722 -3.79831,1.6234 -7.83645,3.46297 -12.10372,2.6854 -1.41506,-0.25785 -2.87098,-0.6218 -4.08283,-1.3966 -0.30464,-0.19477 1.04865,-0.36095 0.85564,-0.6667 -1.22335,-1.93801 -3.02488,-3.44383 -4.53732,-5.16575 -4.75005,-7.30752 -8.74628,-15.52831 -7.83715,-24.49026 0.14846,-1.46341 0.38675,-2.94682 0.93049,-4.31355 0.5398,-1.35685 1.51669,-2.49588 2.27503,-3.74382 3.67985,-4.67949 8.5383,-7.29102 13.80407,-9.75828 0,0 -5.64133,-3.72668 -5.64133,-3.72668 v 0 c -5.50483,2.67453 -10.03805,5.22714 -13.94128,10.1322 -0.79591,1.31572 -1.8409,2.50996 -2.38773,3.94717 -0.54382,1.42925 -0.71114,2.98725 -0.83079,4.51178 -0.71458,9.10466 3.27388,17.44802 7.89739,25.01615 1.45685,1.73805 2.6344,3.75504 4.37054,5.21415 3.86311,3.24668 9.06434,7.6376 14.62283,8.42903 4.30107,0.61239 8.31788,-1.35836 12.07858,-3.09047 1.52007,-0.82928 3.06916,-1.60743 4.5602,-2.48783 8.651,-5.10809 16.62359,-11.35338 23.31358,-18.86529 1.81798,-2.62152 2.8376,-3.51908 3.56977,-6.5948 0.93286,-3.9188 -0.79689,-7.5982 -2.89716,-10.78837 -1.58648,-2.04128 -2.27578,-3.12516 -4.2611,-4.85393 -0.83883,-0.73044 -1.73464,-1.40168 -2.67899,-1.98938 -4.9555,-3.08397 -9.65876,-5.98655 -15.16112,-7.81201 -5.37123,-1.6654 -10.80916,-2.83648 -16.43682,-1.77986 -3.30503,0.58524 -6.53957,1.39512 -9.76622,2.30033 z" />
          <path
             style="display:inline;opacity:1;fill:#000000;fill-opacity:1;stroke-width:1.37954;stroke-linecap:round;stroke-linejoin:round"
             id="path383"
             d="m 513.73911,801.63635 c -8.18639,-8.04522 -18.10045,-13.94664 -27.95134,-19.72074 4.92927,-1.65852 -17.95209,-5.21083 -13.28399,-5.40753 2.75236,-0.11595 6.15282,0.14823 8.13381,2.15548 1.81166,1.83563 -5.00911,-1.04393 -7.51854,-1.53207 -6.90683,-1.34354 -7.02779,-1.30184 -13.79667,-2.36675 -15.89752,-2.52206 -31.75593,-6.2057 -45.92701,-14.45175 -9.41959,-6.27111 -18.74369,-12.49078 -29.10593,-16.99611 -1.43271,0.353 -12.47856,-5.26356 -5.35099,-6.31355 0.91705,-0.13511 9.17945,1.65541 9.37954,1.69627 20.4125,3.44614 41.00472,6.21713 60.80254,13.14278 10.22137,4.34599 20.26088,9.08774 30.45996,13.4843 0,0 -16.32303,-1.60312 -16.32303,-1.60312 v 0 c -10.12887,-4.37481 -20.06567,-9.19529 -30.28875,-13.33476 -2.17886,-0.72079 -8.73472,-1.79428 -6.53657,-2.16237 2.77404,-0.46453 5.82386,0.59161 8.44885,1.84216 2.45993,1.17191 -5.28269,-1.13331 -7.93752,-1.59856 -7.71562,-1.35209 -15.48273,-2.3634 -23.20311,-3.68707 -3.41494,-0.7028 -7.89771,-0.67839 -10.45183,-3.35236 -1.87122,-1.95904 8.8403,5.74565 7.34445,3.51036 10.27801,4.6751 19.4918,11.13462 29.04663,17.15153 4.71713,2.57706 4.63856,2.70119 9.44278,4.7027 1.59973,0.66647 6.54483,1.95729 4.84335,1.87873 -3.74564,-0.17289 -7.40934,-1.58137 -11.13831,-2.16935 -3.74217,-0.59006 15.89383,3.53474 11.16063,2.29581 7.16933,1.09323 14.32156,2.2757 21.43146,3.85446 12.92794,2.87068 24.98717,4.38137 36.47295,11.05293 10.02236,5.94278 19.95236,12.13999 28.50899,20.11049 z" />
          <path
             style="display:inline;opacity:1;fill:#000000;fill-opacity:1;stroke-width:1.37954;stroke-linecap:round;stroke-linejoin:round"
             id="path384"
             d="m 524.55748,810.72031 c -8.43844,-6.29144 -17.99821,-10.14294 -27.48167,-13.88192 3.96467,-2.58929 -16.3706,-1.60434 -12.38013,-2.70896 2.35284,-0.65126 5.32965,-1.0563 7.38199,0.5254 1.87692,1.44645 -4.49744,-0.0455 -6.74455,-0.0342 -6.18485,0.0313 -6.28197,0.0958 -12.30007,0.3734 -14.13781,0.63138 -28.44133,0.11591 -42.07349,-5.20366 -9.19697,-4.31064 -18.30279,-8.58949 -28.00927,-10.98426 -1.17449,0.62602 -11.66106,-2.72506 -5.69682,-5.14689 0.76737,-0.31161 8.19757,-0.16926 8.37707,-0.16827 18.18871,-0.60689 36.41644,-1.91104 54.67259,1.01462 9.55767,2.26601 19.02651,4.95567 28.57366,7.27563 0,0 -14.34689,1.61573 -14.34689,1.61573 v 0 c -9.48288,-2.31234 -18.87669,-5.09928 -28.40039,-7.16241 -2.00207,-0.28137 -7.83801,-0.0538 -6.00623,-0.8441 2.31168,-0.99737 5.12217,-0.55721 7.59979,0.15658 2.32183,0.6689 -4.74863,-0.0797 -7.11716,-0.0175 -6.88356,0.18085 -13.75301,0.70598 -20.63578,0.91563 -3.06459,-0.0223 -6.92488,0.87714 -9.58578,-1.2465 -1.94944,-1.55586 8.60738,3.90844 6.93411,2.00834 9.663,2.57772 18.71491,7.11335 27.98482,11.14827 4.50893,1.60616 4.46251,1.74324 8.94772,2.76792 1.4935,0.3412 5.97814,0.64135 4.49785,0.89661 -3.2587,0.56199 -6.65888,-0.10383 -9.97447,0.0478 -3.32733,0.15217 14.30848,0.36252 10.01542,0.0719 6.36818,-0.32803 12.73693,-0.5652 19.13723,-0.40545 11.63767,0.2905 22.29296,-0.58313 33.3399,3.71672 9.66024,3.87091 19.28453,8.0094 28.02931,14.15525 z" />
          <g
             id="g392"
             inkscape:label="color"
             style="display:inline;fill:#000000"
             transform="translate(9.901787,-25.304567)">
            <path
               style="opacity:1;fill:#ffffff;fill-opacity:1;stroke-width:1.37953;stroke-linecap:round;stroke-linejoin:round"
               d="m 513.02416,783.56552 c -0.89965,-2.34446 -6.64092,-9.8172 -11.20039,-14.57825 -4.85887,-5.07369 -5.25612,-5.35892 -8.65155,-6.21182 -1.95736,-0.49168 -7.45277,-2.51544 -12.21202,-4.49725 -8.76305,-3.64905 -35.97864,-13.57839 -36.30976,-13.24726 -0.30387,0.30387 5.8972,5.41863 10.83176,8.93424 2.57172,1.8322 7.64638,4.88038 11.27704,6.77372 6.98328,3.64169 19.78279,11.7518 25.30457,16.03365 1.81532,1.40769 3.91393,2.88156 4.66357,3.27527 1.29617,0.68075 1.30965,0.73667 0.27505,1.14088 -1.0479,0.40941 -1.04497,0.42647 0.0796,0.46371 0.64213,0.0213 3.06333,0.65753 5.38046,1.41391 5.05988,1.65172 11.11375,1.93785 10.56169,0.4992 z"
               id="path385" />
            <path
               style="opacity:1;fill:#ffffff;fill-opacity:1;stroke-width:1.37953;stroke-linecap:round;stroke-linejoin:round"
               d="m 465.24647,787.89502 c 1.15658,-0.4113 0.79381,-0.9643 -1.92535,-2.93498 l -2.61297,-1.89372 3.84337,-0.27505 3.84338,-0.27504 -6.4807,-4.06458 c -3.56438,-2.23552 -8.30453,-5.3732 -10.53366,-6.97262 -4.10195,-2.94319 -9.75511,-5.71829 -13.77656,-6.76282 -1.21022,-0.31434 -5.91357,-1.21555 -10.45189,-2.00268 -4.53832,-0.78714 -10.07916,-1.92216 -12.31298,-2.52226 -2.23381,-0.6001 -4.14368,-1.0089 -4.24414,-0.90844 -0.45104,0.45103 14.5444,10.57146 18.88132,12.74302 2.6549,1.32934 9.37022,3.96695 14.92294,5.86135 8.34576,2.8473 10.63435,3.86513 13.20238,5.87168 3.62718,2.83412 6.6727,4.48185 7.64486,4.13614 z"
               id="path386" />
            <path
               style="opacity:1;fill:#ffffff;fill-opacity:1;stroke-width:1.37953;stroke-linecap:round;stroke-linejoin:round"
               d="m 458.10485,796.6785 c 0.29037,-0.8305 1.40209,-2.6539 2.47049,-4.052 l 1.94256,-2.54202 -4.6385,-0.37636 c -4.16599,-0.33803 -5.51899,-0.77255 -13.28211,-4.2656 -15.74798,-7.08588 -21.25585,-9.36998 -25.14659,-10.42822 -3.27942,-0.89197 -25.87948,-4.8855 -27.50496,-4.86024 -0.30256,0.005 1.92534,1.31598 4.95089,2.91395 3.02555,1.59798 9.83302,5.64219 15.12773,8.98714 5.29471,3.34495 10.9445,6.74892 12.5551,7.56438 4.84085,2.45096 11.58386,4.56215 17.70036,5.54186 4.96456,0.7952 9.14748,1.61161 14.11221,2.75437 0.91672,0.21101 1.30437,-0.069 1.71282,-1.23726 z"
               id="path387" />
            <path
               style="opacity:1;fill:#ffffff;fill-opacity:1;stroke-width:1.37953;stroke-linecap:round;stroke-linejoin:round"
               d="m 459.86504,816.5618 c -0.01,-0.26924 -0.49689,-1.85101 -1.08224,-3.51506 -0.58536,-1.66406 -1.07236,-3.67125 -1.08224,-4.46044 -0.0176,-1.40737 -0.23981,-1.49021 -11.58233,-4.31828 -12.75575,-3.18044 -14.91751,-3.35336 -31.09282,-2.48702 l -7.40063,0.39638 5.36286,1.80125 c 2.94957,0.99069 9.57112,3.66124 14.71455,5.93454 13.18833,5.82901 15.53615,6.48134 24.61694,6.83967 4.28042,0.16891 7.55607,0.086 7.54591,-0.19104 z"
               id="path388" />
            <path
               style="opacity:1;fill:#ffffff;fill-opacity:1;stroke-width:1.37953;stroke-linecap:round;stroke-linejoin:round"
               d="m 470.00037,832.05924 c -0.62117,-0.43509 -2.19604,-2.17363 -3.4997,-3.86342 -1.60138,-2.07568 -2.65771,-2.98297 -3.25626,-2.79683 -2.16943,0.67465 -9.48036,1.41351 -19.0866,1.92895 -19.76308,1.06041 -30.11301,1.85583 -29.06222,2.2335 1.40834,0.50619 13.81373,2.07545 21.68324,2.74291 3.47938,0.2951 12.63172,0.53867 20.33855,0.54125 12.34317,0.004 13.87786,-0.0895 12.88299,-0.78636 z"
               id="path389" />
            <path
               style="opacity:1;fill:#ffffff;fill-opacity:1;stroke-width:1.37953;stroke-linecap:round;stroke-linejoin:round"
               d="m 488.32084,834.00102 c 4.08192,-1.61064 11.16931,-5.50517 11.16931,-6.13755 0,-0.31017 -6.55049,-3.17724 -11.17262,-4.89011 -0.85023,-0.31508 -1.40863,-0.79495 -1.24088,-1.06636 0.16775,-0.27142 -0.0441,-0.62745 -0.47074,-0.79117 -1.28414,-0.49277 -19.57162,-1.11234 -19.57162,-0.66307 0,1.64299 4.14043,7.77852 7.53098,11.15983 3.96262,3.95181 4.02559,3.98804 6.89813,3.96928 1.85072,-0.0121 4.3304,-0.58373 6.85744,-1.58085 z"
               id="path390" />
            <path
               style="opacity:1;fill:#ffffff;fill-opacity:1;stroke-width:1.37953;stroke-linecap:round;stroke-linejoin:round"
               d="m 490.57585,816.80402 c -0.81837,-0.70501 -4.42705,-3.05551 -8.01929,-5.22332 l -6.53133,-3.94148 -5.73319,0.70258 c -3.15326,0.38641 -5.91886,0.59832 -6.14577,0.47089 -0.62412,-0.35047 -0.47651,1.97967 0.32049,5.05919 l 0.71184,2.7505 12.34241,0.34389 c 6.78832,0.18914 12.83749,0.51843 13.4426,0.73174 0.84622,0.29832 0.75671,0.0919 -0.38776,-0.89399 z"
               id="path391" />
            <path
               style="opacity:1;fill:#ffffff;fill-opacity:1;stroke-width:1.37953;stroke-linecap:round;stroke-linejoin:round"
               d="m 514.76882,815.55347 c 6.86572,-7.25315 8.15995,-11.31777 5.37147,-16.86949 -2.78683,-5.54847 -6.5583,-8.9795 -9.49898,-8.64155 l -1.52443,0.17518 2.32618,1.6503 c 1.2794,0.90767 2.33146,1.87242 2.33792,2.14389 0.0283,1.19077 -19.00421,-1.04635 -27.67517,-3.25297 -1.76413,-0.44895 -5.20726,-0.81626 -7.6514,-0.81626 -4.33059,0 -4.51807,0.056 -7.35244,2.19596 -2.49187,1.88138 -6.76025,6.96536 -6.18358,7.36514 0.1048,0.0727 3.41132,0.91516 7.34782,1.87223 12.05363,2.93057 20.02472,6.71457 33.45641,15.88232 2.36892,1.61689 4.38422,2.93981 4.47844,2.93981 0.0942,0 2.14971,-2.09005 4.56776,-4.64456 z"
               id="path392" />
          </g>
        </g>
      </g>
    </g>
  </g>
</svg>
