<?xml version="1.0" encoding="UTF-8" standalone="no"?>
<!-- Created with Inkscape (http://www.inkscape.org/) -->

<svg
   width="773.69305"
   height="116.0061"
   viewBox="0 0 204.70628 30.693281"
   version="1.1"
   id="svg1"
   inkscape:version="1.3.2 (091e20e, 2023-11-25, custom)"
   sodipodi:docname="arrow.svg"
   xmlns:inkscape="http://www.inkscape.org/namespaces/inkscape"
   xmlns:sodipodi="http://sodipodi.sourceforge.net/DTD/sodipodi-0.dtd"
   xmlns="http://www.w3.org/2000/svg"
   xmlns:svg="http://www.w3.org/2000/svg">
  <sodipodi:namedview
     id="namedview1"
     pagecolor="#ffffff"
     bordercolor="#000000"
     borderopacity="0.25"
     inkscape:showpageshadow="2"
     inkscape:pageopacity="0.0"
     inkscape:pagecheckerboard="0"
     inkscape:deskcolor="#d1d1d1"
     inkscape:document-units="px"
     inkscape:zoom="0.5"
     inkscape:cx="662"
     inkscape:cy="321"
     inkscape:window-width="1304"
     inkscape:window-height="729"
     inkscape:window-x="1366"
     inkscape:window-y="0"
     inkscape:window-maximized="0"
     inkscape:current-layer="layer1" />
  <defs
     id="defs1">
    <filter
       inkscape:label="Jam Spread"
       inkscape:menu="Textures"
       inkscape:menu-tooltip="Glossy clumpy jam spread"
       style="color-interpolation-filters:sRGB"
       id="filter13"
       x="-0.12547931"
       y="-0.10866827"
       width="1.2509586"
       height="1.2173365">
      <feGaussianBlur
         stdDeviation="1"
         in="SourceGraphic"
         result="result0"
         id="feGaussianBlur12" />
      <feTurbulence
         result="result1"
         numOctaves="7"
         seed="488"
         baseFrequency="0.017"
         type="turbulence"
         id="feTurbulence12" />
      <feComposite
         in="result0"
         in2="result1"
         operator="out"
         result="result2"
         id="feComposite12" />
      <feGaussianBlur
         stdDeviation="0.5"
         result="result5"
         id="feGaussianBlur13" />
      <feSpecularLighting
         in="result5"
         specularExponent="100"
         specularConstant="4"
         result="result4"
         surfaceScale="1.5"
         id="feSpecularLighting13">
        <feDistantLight
           azimuth="225"
           elevation="62"
           id="feDistantLight13" />
      </feSpecularLighting>
      <feComposite
         operator="atop"
         in="result4"
         in2="result2"
         result="result91"
         id="feComposite13" />
      <feBlend
         mode="multiply"
         in2="result91"
         id="feBlend13" />
    </filter>
  </defs>
  <g
     inkscape:label="Layer 1"
     inkscape:groupmode="layer"
     id="layer1"
     transform="translate(-57.020908,-84.841179)">
    <path
       id="path25"
       style="display:inline;fill:#593021;fill-opacity:1;stroke-width:0.365;stroke-linecap:round;stroke-linejoin:round"
       d="m 101.64163,102.49797 v -8e-4 l -0.002,-8.1e-4 c -3.099705,0.006 -6.198395,-0.0188 -9.297299,-0.0335 -2.796281,-0.0234 -5.592757,-0.01 -8.389074,-0.0262 -2.283559,-0.0181 -4.56815,-0.0464 -6.852314,-0.0583 -1.93406,-0.0138 -3.867799,-0.0255 -5.802179,-0.0312 -1.605214,-0.0263 -3.198723,0.0228 -4.789545,0.10451 l 11.821128,-3.55841 c 1.66127,-0.06114 3.327308,-0.103441 4.996387,-0.07256 1.907856,0.01868 3.8158,0.03644 5.723406,0.0582 2.276532,0.02902 4.553669,0.04384 6.830664,0.063 2.730601,0.02548 5.460006,0.07519 8.192016,0.07812 3.11308,0.0139 6.22721,0.0108 9.34061,0.0092 3.36474,0.003 6.72749,-6.03e-4 10.09133,-0.0383 3.61779,-0.03674 7.23555,-0.08784 10.85372,-0.119658 4.74114,-0.0457 9.48219,-0.09449 14.22479,-0.108539 5.70369,-0.03304 11.40687,-0.07812 17.11106,-0.09248 4.60375,0.0016 9.20729,0.01544 13.81098,0.0092 5.27218,-0.02594 10.54527,-0.05806 15.81273,-0.158762 5.41663,-0.103599 10.83208,-0.222466 16.25208,-0.294412 6.03481,-0.0701 12.07066,-0.101123 18.10599,-0.165958 2.13915,-0.01868 4.28038,-0.04292 6.42086,-0.06856 -0.0125,0.06176 -0.0219,0.12336 -0.0302,0.185103 -0.0219,0.204787 -0.0392,0.40925 -0.0302,0.614345 v 0.550525 0.003 c 0,0.0349 -0.002,0.06964 -0.002,0.104521 1e-5,0.08816 0.002,0.175933 0.002,0.264092 2.3e-4,0.0857 6.7e-4,0.17122 0.002,0.256903 v 0.39892 0.71646 0.16198 c -5.80615,-0.0799 -11.61902,0.0233 -17.42435,0.0869 -6.11375,0.0443 -12.22318,0.14128 -18.33257,0.24016 -5.39699,0.0903 -10.79351,0.19659 -16.19103,0.28244 -5.31948,0.0915 -10.64007,0.16196 -15.96436,0.1819 -4.63609,0.0206 -9.27325,0.0138 -13.90952,0.0109 -5.60238,-0.0294 -11.20401,-0.0333 -16.80569,0.0169 -4.86477,0.0619 -9.72649,0.14281 -14.58922,0.22659 -3.64406,0.0699 -7.29163,0.10597 -10.93849,0.1388 -3.41163,0.0267 -6.82504,0.0499 -10.23711,0.0654 z"
       inkscape:export-filename="..\..\godot\assets\images\arrow.svg"
       inkscape:export-xdpi="96"
       inkscape:export-ydpi="96" />
    <path
       id="path13"
       style="display:inline;fill:#413b39;fill-opacity:1;stroke-width:0.365;stroke-linecap:round;stroke-linejoin:round"
       d="m 84.560066,97.304448 10.481315,2.294433 c 1.339135,-0.0035 2.678066,-0.0096 4.016906,-0.0186 3.229073,-0.01945 6.456663,-0.04618 9.685493,-0.06821 7.20322,-0.03995 14.40819,-0.07074 21.61276,-0.03617 7.12375,0.04017 14.24194,0.115367 21.36059,0.205672 5.15492,0.04274 10.31593,0.03307 15.47244,0.04341 4.77144,0.0021 9.54172,-0.01928 14.31301,-0.02015 6.45165,0.0088 12.89936,0.07814 19.34017,0.191203 8.13557,0.130464 16.26776,0.219554 24.41697,0.224274 3.56421,0.0274 7.12845,0.0614 10.6923,0.10077 0.002,-0.0467 0.007,-0.0934 0.0129,-0.14004 0.0199,-0.132723 0.0492,-0.265299 0.0977,-0.397395 0.0365,-0.105387 0.033,-0.210375 0.0299,-0.316259 v -0.324528 -0.362769 -0.297139 -0.03772 -0.249081 -0.02325 -0.0031 c -6.59309,0.173557 -13.22476,0.11217 -19.83239,0.07028 -8.27278,-0.01405 -16.52063,-0.127039 -24.76688,-0.318843 -6.50671,-0.163833 -13.03657,-0.175715 -19.55969,-0.217041 -4.88413,-0.03107 -9.76741,-0.05235 -14.65261,-0.04858 -5.07144,0.0011 -10.13906,0.0404 -15.21004,0.0021 -6.94795,-0.09116 -13.90204,-0.08377 -20.85459,-0.08733 -7.39089,-0.0026 -14.78086,-0.04024 -22.170174,-0.08165 -3.434003,-0.0227 -6.866974,-0.04756 -10.301254,-0.06615 -1.394079,-0.0084 -2.78906,-0.01459 -4.183267,-0.01809 z" />
    <path
       id="path14"
       style="display:inline;fill:#413b39;fill-opacity:1;stroke-width:0.365;stroke-linecap:round;stroke-linejoin:round"
       d="m 115.97425,103.31075 v -5.2e-4 l -0.002,-5.2e-4 c -2.76883,0.004 -5.53673,-0.0122 -8.30482,-0.0217 -2.49779,-0.0152 -4.99575,-0.006 -7.49356,-0.017 -2.039794,-0.0117 -4.080512,-0.03 -6.120825,-0.0377 -1.727612,-0.009 -3.454948,-0.0165 -5.182819,-0.0202 -1.433866,-0.0171 -2.857278,0.0148 -4.278257,0.0677 l 10.559233,-2.30477 c 1.483942,-0.0396 2.972107,-0.067 4.463037,-0.047 1.704181,0.0121 3.408451,0.0236 5.112421,0.0377 2.03351,0.0188 4.06758,0.0284 6.10151,0.0408 2.4391,0.0165 4.87716,0.0487 7.31751,0.0506 2.78077,0.009 5.56249,0.007 8.34354,0.006 3.00556,0.002 6.00932,-3.9e-4 9.01408,-0.0248 3.2316,-0.0238 6.46318,-0.0569 9.69511,-0.0775 4.23502,-0.0296 8.46996,-0.0612 12.70629,-0.0703 5.09486,-0.0214 10.18921,-0.0506 15.28449,-0.0599 4.1123,0.001 8.22442,0.01 12.33668,0.006 4.70938,-0.0168 9.41958,-0.0376 14.12473,-0.10283 4.83841,-0.0671 9.67579,-0.14409 14.5172,-0.19069 5.39061,-0.0454 10.78212,-0.0655 16.17321,-0.10749 1.91077,-0.0121 3.82342,-0.0278 5.73543,-0.0444 -0.009,0.04 -0.0197,0.0799 -0.0271,0.11989 -0.0197,0.13264 -0.035,0.26507 -0.0271,0.39791 v 0.35657 0.002 c 0,0.0226 -0.002,0.0451 -0.002,0.0677 2e-5,0.0571 0.002,0.11395 0.002,0.17105 2.1e-4,0.0555 6.1e-4,0.1109 0.002,0.1664 v 0.25838 0.46405 0.10491 c -5.18636,-0.0517 -10.37871,0.0151 -15.56433,0.0563 -5.46112,0.0287 -10.91836,0.0915 -16.37558,0.15554 -4.82089,0.0585 -9.64134,0.12733 -14.46266,0.18294 -4.75164,0.0593 -9.50427,0.1049 -14.26021,0.11782 -4.14117,0.0134 -8.28332,0.009 -12.42468,0.007 -5.00433,-0.019 -10.00799,-0.0215 -15.01169,0.0109 -4.34548,0.0401 -8.68821,0.0925 -13.03185,0.14676 -3.25505,0.0453 -6.51327,0.0686 -9.77082,0.0899 -3.04743,0.0173 -6.09648,0.0323 -9.14431,0.0424 z" />
    <path
       id="path1"
       style="display:inline;fill:#666666;fill-opacity:1;stroke-width:0.365;stroke-linecap:round;stroke-linejoin:round"
       d="m 113.83781,104.43328 v -5.2e-4 l -0.002,-5.2e-4 c -2.82203,0.004 -5.6431,-0.0122 -8.46438,-0.0217 -2.54578,-0.0152 -5.09173,-0.006 -7.63753,-0.017 -2.078987,-0.0117 -4.158913,-0.03 -6.238425,-0.0377 -1.760805,-0.009 -3.521327,-0.0165 -5.282394,-0.0202 -1.461415,-0.0171 -2.912174,0.0148 -4.360454,0.0677 l 10.762103,-2.30477 c 1.512453,-0.0396 3.029209,-0.067 4.548784,-0.047 1.736926,0.0121 3.473936,0.0236 5.210656,0.0377 2.07257,0.0188 4.14572,0.0284 6.21873,0.0408 2.48596,0.0165 4.97086,0.0487 7.45809,0.0506 2.8342,0.009 5.66937,0.007 8.50385,0.006 3.0633,0.002 6.12477,-3.9e-4 9.18726,-0.0248 3.29368,-0.0238 6.58736,-0.0569 9.88138,-0.0775 4.31638,-0.0296 8.63269,-0.0612 12.9504,-0.0703 5.19275,-0.0214 10.38498,-0.0506 15.57815,-0.0599 4.19131,10e-4 8.38244,0.01 12.57371,0.006 4.79985,-0.0168 9.60055,-0.0376 14.3961,-0.10283 4.93137,-0.0671 9.86169,-0.14409 14.79611,-0.19069 5.49418,-0.0454 10.98927,-0.0655 16.48394,-0.10749 1.94748,-0.0121 3.89688,-0.0278 5.84562,-0.0444 -0.009,0.04 -0.02,0.0799 -0.0276,0.11989 -0.02,0.13264 -0.0357,0.26507 -0.0277,0.39791 v 0.35657 0.002 c 0,0.0226 -0.002,0.0451 -0.002,0.0677 2e-5,0.0571 0.002,0.11395 0.002,0.17105 2.2e-4,0.0555 6.3e-4,0.1109 0.002,0.1664 v 0.25838 0.46405 0.10491 c -5.28601,-0.0517 -10.57811,0.0151 -15.86337,0.0563 -5.56604,0.0287 -11.12813,0.0915 -16.69019,0.15554 -4.91351,0.0585 -9.82658,0.12733 -14.74053,0.18294 -4.84293,0.0593 -9.68687,0.1049 -14.53419,0.11782 -4.22073,0.0134 -8.44245,0.009 -12.66339,0.007 -5.10047,-0.019 -10.20027,-0.0215 -15.3001,0.0109 -4.42897,0.0401 -8.85513,0.0925 -13.28222,0.14676 -3.31759,0.0453 -6.63841,0.0686 -9.95854,0.0899 -3.10598,0.0173 -6.21361,0.0323 -9.32,0.0424 z" />
    <path
       id="path2"
       style="display:inline;fill:#666666;fill-opacity:1;stroke-width:0.365;stroke-linecap:round;stroke-linejoin:round"
       d="m 113.83781,95.693927 v 5.2e-4 l -0.002,5.2e-4 c -2.82203,-0.004 -5.6431,0.0122 -8.46438,0.0217 -2.54578,0.0152 -5.09173,0.006 -7.63753,0.017 -2.078987,0.0117 -4.158913,0.03 -6.238425,0.0377 -1.760805,0.009 -3.521327,0.0165 -5.282394,0.0202 -1.461415,0.0171 -2.912174,-0.0148 -4.360454,-0.0677 l 10.762103,2.30477 c 1.512453,0.0396 3.029209,0.067 4.548784,0.047 1.736926,-0.0121 3.473936,-0.0236 5.210656,-0.0377 2.07257,-0.0188 4.14572,-0.0284 6.21873,-0.0408 2.48596,-0.0165 4.97086,-0.0487 7.45809,-0.0506 2.8342,-0.009 5.66937,-0.007 8.50385,-0.006 3.0633,-0.002 6.12477,3.9e-4 9.18726,0.0248 3.29368,0.0238 6.58736,0.0569 9.88138,0.0775 4.31638,0.0296 8.63269,0.0612 12.9504,0.0703 5.19275,0.0214 10.38498,0.0506 15.57815,0.0599 4.19131,-10e-4 8.38244,-0.01 12.57371,-0.006 4.79985,0.0168 9.60055,0.0376 14.3961,0.10283 4.93137,0.0671 9.86169,0.14409 14.79611,0.19069 5.49418,0.0454 10.98927,0.0655 16.48394,0.10749 1.94748,0.0121 3.89688,0.0278 5.84562,0.0444 -0.009,-0.04 -0.02,-0.0799 -0.0276,-0.11989 -0.02,-0.13264 -0.0357,-0.26507 -0.0277,-0.39791 v -0.35657 -0.002 c 0,-0.0226 -0.002,-0.0451 -0.002,-0.0677 2e-5,-0.0571 0.002,-0.11395 0.002,-0.17105 2.2e-4,-0.0555 6.3e-4,-0.1109 0.002,-0.1664 v -0.25838 -0.46405 -0.10491 c -5.28601,0.0517 -10.57811,-0.0151 -15.86337,-0.0563 -5.56604,-0.0287 -11.12813,-0.0915 -16.69019,-0.15554 -4.91351,-0.0585 -9.82658,-0.12733 -14.74053,-0.18294 -4.84293,-0.0593 -9.68687,-0.1049 -14.53419,-0.11782 -4.22073,-0.0134 -8.44245,-0.009 -12.66339,-0.007 -5.10047,0.019 -10.20027,0.0215 -15.3001,-0.0109 -4.42897,-0.0401 -8.85513,-0.0925 -13.28222,-0.14676 -3.31759,-0.0453 -6.63841,-0.0686 -9.95854,-0.0899 -3.10598,-0.0173 -6.21361,-0.0323 -9.32,-0.0424 z" />
    <path
       sodipodi:type="star"
       style="display:inline;fill:#1a1717;fill-opacity:1;stroke-width:0.47958;stroke-linecap:round;stroke-linejoin:round;filter:url(#filter13)"
       id="path4"
       inkscape:flatsided="true"
       sodipodi:sides="3"
       sodipodi:cx="182.31148"
       sodipodi:cy="82.229507"
       sodipodi:r1="19.126659"
       sodipodi:r2="9.5633297"
       sodipodi:arg1="2.0943951"
       sodipodi:arg2="3.1415927"
       inkscape:rounded="0"
       inkscape:randomized="0"
       d="m 172.74815,98.79368 0,-33.128345 28.68999,16.564172 z"
       inkscape:transform-center-x="-3.6392559"
       transform="matrix(0.76108452,0,0,0.76108452,105.67584,37.604216)" />
    <g
       id="g46"
       style="display:inline;stroke-width:0.71815"
       transform="matrix(1.3599226,0.37903669,0.39148616,-1.3166763,-162.5633,170.10614)">
      <path
         id="path20"
         style="fill:#008080;fill-opacity:1;stroke-width:0.262125;stroke-linecap:round;stroke-linejoin:round"
         d="m 135.061,95.140961 c -0.21617,0.0045 -0.43216,0.01641 -0.6475,0.03462 l 2.60759,1.142049 c 0.42926,-0.01552 0.86081,-0.02207 1.28829,0.02791 0.53646,0.07389 1.07004,0.119549 1.61283,0.0801 0.77483,-0.03135 1.55011,-0.03196 2.32544,-0.03927 0.96875,0.02603 1.93869,0.05044 2.89543,0.223759 1.42334,0.167989 2.85598,0.203039 4.27829,0.386023 1.61472,0.200631 3.22841,0.407709 4.80694,0.819071 0.0447,0.01059 0.11315,0.0293 0.16381,0.04186 0.01,0.0039 0.0193,0.0075 0.0289,0.01137 0.16324,0.06662 0.32419,0.138884 0.48628,0.208256 0.65847,0.345707 1.30409,0.710822 1.94251,1.091406 l 2.72904,0.432015 c 0.003,-3.05e-4 0.005,-1.23e-4 0.008,0 0.004,-4e-6 0.008,1.6e-5 0.0119,0 0.005,-2e-5 0.008,8.5e-5 0.0124,0 0.004,-9.1e-5 0.007,-2.22e-4 0.0114,-5.16e-4 0.002,-1.45e-4 0.004,-4.42e-4 0.006,-5.17e-4 0.002,-7.5e-5 0.004,-5.8e-5 0.006,0 h 0.01 0.008 0.01 0.0103 0.007 c -0.68023,-0.375109 -1.36017,-0.750386 -2.04845,-1.110527 -1.8597,-0.86913 -3.86297,-1.394712 -5.86115,-1.833996 -1.56226,-0.38747 -3.15897,-0.576751 -4.75423,-0.763261 -1.01982,-0.158739 -2.05315,-0.168447 -3.07836,-0.260966 -0.2909,-0.02626 -0.97918,-0.122943 -1.27899,-0.163814 -0.97371,-0.188993 -1.96809,-0.207949 -2.95693,-0.219109 -0.78822,0.0062 -1.57639,0.009 -2.3642,0.04031 -0.29066,-0.03927 -0.5924,0.01612 -0.88263,-0.01499 -0.2443,-0.02618 -0.49404,-0.09504 -0.74414,-0.121956 -0.21589,-0.01133 -0.43236,-0.01436 -0.64854,-0.0098 z" />
      <path
         id="path37"
         style="fill:#008080;fill-opacity:1;stroke-width:0.262125;stroke-linecap:round;stroke-linejoin:round"
         d="m 134.64881,97.334439 c -0.20767,-0.06015 -0.41298,-0.128372 -0.61615,-0.20202 l 2.81502,-0.423603 c 0.41041,0.126747 0.82536,0.245498 1.25111,0.308542 0.5372,0.06835 1.06425,0.163221 1.57804,0.342657 0.73995,0.231991 1.4883,0.434555 2.23498,0.643504 0.94209,0.227167 1.88492,0.456188 2.85381,0.537951 1.41797,0.20845 2.81031,0.547675 4.23121,0.741378 1.61125,0.226778 3.22319,0.447061 4.85439,0.460951 0.0459,0.001 0.11685,0.002 0.16908,0.002 0.0107,-0.002 0.0207,-0.003 0.0309,-0.004 0.17494,-0.0218 0.34917,-0.0496 0.52373,-0.0744 0.72578,-0.162312 1.4442,-0.34671 2.15969,-0.547911 l 2.74739,0.293556 c 0.003,0.0011 0.005,0.0014 0.008,0.0021 0.004,0.001 0.008,0.0021 0.0115,0.0031 0.005,0.0013 0.008,0.002 0.012,0.0033 0.004,0.0011 0.007,0.0021 0.0109,0.0034 0.002,6.69e-4 0.004,0.0015 0.006,0.002 0.002,5.91e-4 0.004,0.0011 0.006,0.0015 l 0.01,0.0026 0.008,0.0021 0.01,0.0026 0.01,0.0027 0.007,0.0019 c -0.75444,0.185035 -1.50864,0.370285 -2.26696,0.538795 -2.02186,0.354861 -4.09288,0.340641 -6.13652,0.244431 -1.60926,-0.0327 -3.20017,-0.265771 -4.78896,-0.501111 -1.02597,-0.11228 -2.02618,-0.372026 -3.04011,-0.549664 -0.28771,-0.05038 -0.97741,-0.136273 -1.27752,-0.174897 -0.98934,-0.0711 -1.95434,-0.311734 -2.91198,-0.55846 -0.75946,-0.211051 -1.51965,-0.419192 -2.27213,-0.654564 -0.29087,-0.03775 -0.56777,-0.16981 -0.85609,-0.215361 -0.24269,-0.03832 -0.50173,-0.03693 -0.75022,-0.07602 -0.21139,-0.04531 -0.42119,-0.09869 -0.62877,-0.159229 z" />
      <path
         style="fill:#008080;fill-opacity:1;stroke-width:0.262125;stroke-linecap:round;stroke-linejoin:round"
         id="path39"
         d="m 136.89911,96.521668 c 0.0512,0.01106 0.0987,0.03436 0.14855,0.04942 0.0254,0.0077 0.052,0.01103 0.0772,0.01921 0.059,0.0191 0.1161,0.0439 0.17487,0.06381 0.24245,0.07419 0.49922,0.07206 0.75034,0.07818 0.40221,-0.0076 0.7976,-0.09543 1.18862,-0.182825 0.15281,-0.04439 0.31225,-0.06572 0.46433,-0.11286 0.10256,-0.03179 0.20345,-0.07627 0.30161,-0.119568 0,0 -0.78522,-0.518197 -0.78522,-0.518197 v 0 c -0.21897,0.116263 -0.45478,0.190489 -0.69267,0.258355 -0.39178,0.09919 -0.79397,0.169561 -1.19984,0.145264 -0.25792,-0.01421 -0.51891,-0.0312 -0.7633,-0.122468 -0.14699,-0.05433 -0.29647,-0.102822 -0.43934,-0.167595 z" />
      <path
         style="fill:#002c2c;fill-opacity:1;stroke-width:0.990715;stroke-linecap:round;stroke-linejoin:round"
         d="m 569.04418,373.76338 -14.93763,-0.24215 -3.0052,-0.52056 c -1.65287,-0.2863 -3.72115,-0.60558 -4.5962,-0.70951 -4.61936,-0.54866 -10.01301,-1.8163 -17.73462,-4.16808 -1.39783,-0.42574 -3.12132,-0.89384 -3.82999,-1.04022 -1.15055,-0.23765 -2.74218,-1.0142 -2.74218,-1.33789 0,-0.066 0.53696,-0.17063 1.19324,-0.23253 0.65628,-0.0619 1.98874,-0.30391 2.96101,-0.53782 3.42843,-0.82481 14.87539,-0.78688 21.01103,0.0696 1.37515,0.19196 4.52878,0.5091 7.00807,0.70475 6.40673,0.50558 8.11745,0.67045 12.10921,1.16706 8.62121,1.07255 15.69739,2.42508 18.0391,3.44798 1.02384,0.44723 6.62125,3.50666 6.62125,3.61904 0,0.10758 -4.93775,0.0585 -22.09709,-0.21969 z"
         id="path45"
         transform="scale(0.26458333)" />
      <path
         style="fill:#000c72;fill-opacity:1;stroke-width:0.990715;stroke-linecap:round;stroke-linejoin:round"
         d="m 577.70624,376.78476 c -0.3403,-0.0377 -1.73241,-0.15503 -3.09359,-0.26063 -4.39211,-0.34076 -13.81526,-1.63686 -17.85445,-2.45578 l -1.59099,-0.32256 1.5026,-0.0219 c 2.60955,-0.0381 34.90158,0.52793 35.16393,0.61634 0.52972,0.17852 -0.19316,0.42926 -4.05123,1.40524 -3.87672,0.9807 -4.04688,1.00748 -6.71751,1.05707 -1.50703,0.028 -3.01847,0.02 -3.35876,-0.0177 z"
         id="path46"
         transform="scale(0.26458333)" />
      <path
         style="fill:#008080;fill-opacity:1;stroke-width:0.262125;stroke-linecap:round;stroke-linejoin:round"
         id="path40"
         d="m 136.92499,97.357617 c 0.13411,-0.111975 0.31409,-0.15113 0.47989,-0.193461 0.1694,-0.03991 0.3435,-0.04645 0.51673,-0.04908 0.12843,0.0087 0.26723,-0.01934 0.3916,0.01942 0.0157,0.0065 0.0313,0.0132 0.0471,0.01945 0.0162,0.0064 0.0335,0.01013 0.0488,0.01855 0.0161,0.0089 0.0602,0.04184 0.0442,0.0328 -0.25439,-0.146497 -0.50879,-0.292994 -0.76318,-0.439488 0.025,0.01487 0.0502,0.02933 0.0749,0.04458 0.026,0.01601 0.0515,0.03275 0.0772,0.04913 0.14262,0.09401 0.27715,0.199367 0.41532,0.29958 0.10624,0.08787 0.21836,0.167606 0.33407,0.242475 0,0 0.8897,0.341731 0.8897,0.341731 v 0 c -0.12174,-0.06286 -0.23582,-0.145148 -0.33974,-0.233913 -0.14062,-0.103516 -0.28547,-0.20142 -0.42345,-0.308594 -0.37348,-0.245428 -0.73627,-0.550807 -1.17696,-0.646266 -0.1287,-0.0042 -0.25737,0.0067 -0.38608,0.0076 -0.17606,0.0094 -0.35323,0.02154 -0.5231,0.07248 -0.18008,0.05636 -0.35859,0.117478 -0.53358,0.188156 z" />
    </g>
    <g
       id="g47"
       transform="matrix(1.4151505,0,0,1.3701479,-132.41523,-36.758238)"
       style="stroke-width:0.71815">
      <path
         style="fill:#008080;fill-opacity:1;stroke-width:0.262125;stroke-linecap:round;stroke-linejoin:round"
         id="path41"
         d="m 137.26291,104.03186 c 0.0512,-0.0111 0.0987,-0.0344 0.14855,-0.0494 0.0254,-0.008 0.052,-0.011 0.0772,-0.0192 0.059,-0.0191 0.1161,-0.0439 0.17487,-0.0638 0.24245,-0.0742 0.49922,-0.0721 0.75034,-0.0782 0.40221,0.008 0.7976,0.0954 1.18862,0.18283 0.15281,0.0444 0.31225,0.0657 0.46433,0.11286 0.10256,0.0318 0.20345,0.0763 0.30161,0.11957 0,0 -0.78522,0.51819 -0.78522,0.51819 v 0 c -0.21897,-0.11626 -0.45478,-0.19048 -0.69267,-0.25835 -0.39178,-0.0992 -0.79397,-0.16956 -1.19984,-0.14526 -0.25792,0.0142 -0.51891,0.0312 -0.7633,0.12246 -0.14699,0.0543 -0.29647,0.10283 -0.43934,0.1676 z" />
      <path
         id="path24"
         style="fill:#008080;fill-opacity:1;stroke-width:0.262125;stroke-linecap:round;stroke-linejoin:round"
         d="m 135.13542,105.42724 c -0.21617,-0.004 -0.43216,-0.0164 -0.6475,-0.0346 l 2.60759,-1.14204 c 0.42926,0.0155 0.86081,0.0221 1.28829,-0.0279 0.53646,-0.0739 1.07004,-0.11955 1.61283,-0.0801 0.77483,0.0313 1.55011,0.032 2.32544,0.0393 0.96875,-0.026 1.93869,-0.0504 2.89543,-0.22376 1.42334,-0.16799 2.85598,-0.20304 4.27829,-0.38603 1.61472,-0.20063 3.22841,-0.40771 4.80694,-0.81907 0.0447,-0.0106 0.11315,-0.0293 0.16381,-0.0419 0.01,-0.004 0.0193,-0.008 0.0289,-0.0114 0.16324,-0.0666 0.32419,-0.13888 0.48628,-0.20825 0.65847,-0.34571 1.30409,-0.71083 1.94251,-1.09141 l 2.72904,-0.43201 c 0.003,3e-4 0.005,1.2e-4 0.008,0 0.004,0 0.008,-2e-5 0.0119,0 0.005,2e-5 0.008,-9e-5 0.0124,0 0.004,9e-5 0.007,2.2e-4 0.0114,5.1e-4 0.002,1.5e-4 0.004,4.4e-4 0.006,5.2e-4 0.002,7e-5 0.004,6e-5 0.006,0 h 0.01 0.008 0.01 0.0103 0.007 c -0.68023,0.37511 -1.36017,0.75038 -2.04845,1.11053 -1.8597,0.86913 -3.86297,1.39471 -5.86115,1.83399 -1.56226,0.38747 -3.15897,0.57675 -4.75423,0.76326 -1.01982,0.15874 -2.05315,0.16845 -3.07836,0.26097 -0.2909,0.0263 -0.97918,0.12294 -1.27899,0.16381 -0.97371,0.189 -1.96809,0.20795 -2.95693,0.21911 -0.78822,-0.006 -1.57639,-0.009 -2.3642,-0.0403 -0.29066,0.0393 -0.5924,-0.0161 -0.88263,0.015 -0.2443,0.0262 -0.49404,0.095 -0.74414,0.12196 -0.21589,0.0113 -0.43236,0.0144 -0.64854,0.01 z" />
      <path
         id="path38"
         style="fill:#008080;fill-opacity:1;stroke-width:0.262125;stroke-linecap:round;stroke-linejoin:round"
         d="m 134.97954,103.22846 c -0.20767,0.0602 -0.41298,0.12837 -0.61615,0.20202 l 2.81502,0.42359 c 0.41041,-0.12674 0.82536,-0.24549 1.25111,-0.30853 0.5372,-0.0684 1.06425,-0.16322 1.57804,-0.34266 0.73995,-0.23199 1.4883,-0.43455 2.23498,-0.6435 0.94209,-0.22717 1.88492,-0.45619 2.85381,-0.53795 1.41797,-0.20845 2.81031,-0.54768 4.23121,-0.74138 1.61125,-0.22678 3.22319,-0.44706 4.85439,-0.46095 0.0459,-0.001 0.11685,-0.002 0.16908,-0.002 0.0107,0.002 0.0207,0.003 0.0309,0.004 0.17494,0.0218 0.34917,0.0496 0.52373,0.0744 0.72578,0.16231 1.4442,0.34671 2.15969,0.54791 l 2.74739,-0.29356 c 0.003,-0.001 0.005,-0.001 0.008,-0.002 0.004,-0.001 0.008,-0.002 0.0115,-0.003 0.005,-0.001 0.008,-0.002 0.012,-0.003 0.004,-0.001 0.007,-0.002 0.0109,-0.003 0.002,-6.7e-4 0.004,-0.002 0.006,-0.002 0.002,-5.9e-4 0.004,-10e-4 0.006,-10e-4 l 0.01,-0.003 0.008,-0.002 0.01,-0.003 0.01,-0.003 0.007,-0.002 c -0.75444,-0.18503 -1.50864,-0.37028 -2.26696,-0.53879 -2.02186,-0.35486 -4.09288,-0.34064 -6.13652,-0.24443 -1.60926,0.0327 -3.20017,0.26577 -4.78896,0.50111 -1.02597,0.11228 -2.02618,0.37202 -3.04011,0.54966 -0.28771,0.0504 -0.97741,0.13627 -1.27752,0.1749 -0.98934,0.0711 -1.95434,0.31173 -2.91198,0.55846 -0.75946,0.21105 -1.51965,0.41919 -2.27213,0.65456 -0.29087,0.0378 -0.56777,0.16981 -0.85609,0.21536 -0.24269,0.0383 -0.50173,0.0369 -0.75022,0.076 -0.21139,0.0453 -0.42119,0.0987 -0.62877,0.15923 z" />
      <path
         style="fill:#008080;fill-opacity:1;stroke-width:0.262125;stroke-linecap:round;stroke-linejoin:round"
         id="path42"
         d="m 137.28879,103.19592 c 0.13411,0.11197 0.31409,0.15113 0.47989,0.19346 0.1694,0.0399 0.3435,0.0464 0.51673,0.0491 0.12843,-0.009 0.26723,0.0193 0.3916,-0.0194 0.0157,-0.007 0.0313,-0.0132 0.0471,-0.0194 0.0162,-0.006 0.0335,-0.0101 0.0488,-0.0186 0.0161,-0.009 0.0602,-0.0418 0.0442,-0.0328 -0.25439,0.14649 -0.50879,0.29299 -0.76318,0.43948 0.025,-0.0149 0.0502,-0.0293 0.0749,-0.0446 0.026,-0.016 0.0515,-0.0327 0.0772,-0.0491 0.14262,-0.094 0.27715,-0.19936 0.41532,-0.29958 0.10624,-0.0879 0.21836,-0.1676 0.33407,-0.24247 0,0 0.8897,-0.34173 0.8897,-0.34173 v 0 c -0.12174,0.0629 -0.23582,0.14515 -0.33974,0.23391 -0.14062,0.10352 -0.28547,0.20142 -0.42345,0.3086 -0.37348,0.24542 -0.73627,0.5508 -1.17696,0.64626 -0.1287,0.004 -0.25737,-0.007 -0.38608,-0.008 -0.17606,-0.009 -0.35323,-0.0215 -0.5231,-0.0725 -0.18008,-0.0564 -0.35859,-0.11748 -0.53358,-0.18815 z" />
      <path
         style="fill:#002c2c;fill-opacity:1;stroke-width:0.990715;stroke-linecap:round;stroke-linejoin:round"
         d="m 530.59525,393.55644 c -0.38891,-0.0362 -1.79516,-0.30125 -3.12501,-0.589 -1.32984,-0.28775 -2.69738,-0.52318 -3.03896,-0.52318 -0.34159,0 -0.66423,-0.0698 -0.71699,-0.1552 -0.19723,-0.31913 1.31842,-1.06703 3.00991,-1.48524 0.96235,-0.23794 3.81802,-1.03537 6.34592,-1.77208 7.22362,-2.10516 4.83111,-1.91222 22.34533,-1.80203 8.41946,0.053 18.52986,0.14619 22.46757,0.20716 7.02323,0.10875 7.146,0.11676 6.45234,0.42101 -0.99752,0.43753 -5.61659,1.47693 -9.36286,2.10686 -4.88846,0.82199 -12.49543,1.71912 -18.83302,2.22108 -3.15988,0.25028 -6.87221,0.60734 -8.24962,0.79347 -1.37741,0.18614 -3.84344,0.41955 -5.48007,0.51871 -2.78409,0.16867 -10.23449,0.20553 -11.81454,0.0584 z"
         id="path43"
         transform="scale(0.26458333)" />
      <path
         style="fill:#000c72;fill-opacity:1;stroke-width:0.990715;stroke-linecap:round;stroke-linejoin:round"
         d="m 559.08667,387.12687 c -9.70601,-0.0723 -17.68444,-0.16855 -17.72984,-0.21395 -0.11696,-0.11696 4.46811,-0.95855 6.47415,-1.18833 0.92366,-0.1058 3.62834,-0.55373 6.0104,-0.99541 13.07332,-2.424 21.24635,-3.45544 27.66556,-3.49142 l 3.35875,-0.0188 3.68124,0.92664 c 2.02468,0.50965 3.79462,0.99009 3.93321,1.06764 0.27724,0.15515 -0.007,0.33528 -4.28541,2.71268 l -2.5046,1.39184 -4.47808,-0.0297 c -2.46295,-0.0163 -12.41937,-0.0889 -22.12538,-0.16113 z"
         id="path44"
         transform="scale(0.26458333)" />
    </g>
    <g
       id="g57"
       transform="matrix(1.4018596,0.18734188,-0.19349512,1.3572797,-111.11931,-66.534296)"
       style="stroke-width:0.71815">
      <path
         style="fill:#008080;fill-opacity:1;stroke-width:0.262125;stroke-linecap:round;stroke-linejoin:round"
         id="path52"
         d="m 137.26291,104.03186 c 0.0512,-0.0111 0.0987,-0.0344 0.14855,-0.0494 0.0254,-0.008 0.052,-0.011 0.0772,-0.0192 0.059,-0.0191 0.1161,-0.0439 0.17487,-0.0638 0.24245,-0.0742 0.49922,-0.0721 0.75034,-0.0782 0.40221,0.008 0.7976,0.0954 1.18862,0.18283 0.15281,0.0444 0.31225,0.0657 0.46433,0.11286 0.10256,0.0318 0.20345,0.0763 0.30161,0.11957 0,0 -0.78522,0.51819 -0.78522,0.51819 v 0 c -0.21897,-0.11626 -0.45478,-0.19048 -0.69267,-0.25835 -0.39178,-0.0992 -0.79397,-0.16956 -1.19984,-0.14526 -0.25792,0.0142 -0.51891,0.0312 -0.7633,0.12246 -0.14699,0.0543 -0.29647,0.10283 -0.43934,0.1676 z" />
      <path
         id="path53"
         style="fill:#008080;fill-opacity:1;stroke-width:0.262125;stroke-linecap:round;stroke-linejoin:round"
         d="m 135.13542,105.42724 c -0.21617,-0.004 -0.43216,-0.0164 -0.6475,-0.0346 l 2.60759,-1.14204 c 0.42926,0.0155 0.86081,0.0221 1.28829,-0.0279 0.53646,-0.0739 1.07004,-0.11955 1.61283,-0.0801 0.77483,0.0313 1.55011,0.032 2.32544,0.0393 0.96875,-0.026 1.93869,-0.0504 2.89543,-0.22376 1.42334,-0.16799 2.85598,-0.20304 4.27829,-0.38603 1.61472,-0.20063 3.22841,-0.40771 4.80694,-0.81907 0.0447,-0.0106 0.11315,-0.0293 0.16381,-0.0419 0.01,-0.004 0.0193,-0.008 0.0289,-0.0114 0.16324,-0.0666 0.32419,-0.13888 0.48628,-0.20825 0.65847,-0.34571 1.30409,-0.71083 1.94251,-1.09141 l 2.72904,-0.43201 c 0.003,3e-4 0.005,1.2e-4 0.008,0 0.004,0 0.008,-2e-5 0.0119,0 0.005,2e-5 0.008,-9e-5 0.0124,0 0.004,9e-5 0.007,2.2e-4 0.0114,5.1e-4 0.002,1.5e-4 0.004,4.4e-4 0.006,5.2e-4 0.002,7e-5 0.004,6e-5 0.006,0 h 0.01 0.008 0.01 0.0103 0.007 c -0.68023,0.37511 -1.36017,0.75038 -2.04845,1.11053 -1.8597,0.86913 -3.86297,1.39471 -5.86115,1.83399 -1.56226,0.38747 -3.15897,0.57675 -4.75423,0.76326 -1.01982,0.15874 -2.05315,0.16845 -3.07836,0.26097 -0.2909,0.0263 -0.97918,0.12294 -1.27899,0.16381 -0.97371,0.189 -1.96809,0.20795 -2.95693,0.21911 -0.78822,-0.006 -1.57639,-0.009 -2.3642,-0.0403 -0.29066,0.0393 -0.5924,-0.0161 -0.88263,0.015 -0.2443,0.0262 -0.49404,0.095 -0.74414,0.12196 -0.21589,0.0113 -0.43236,0.0144 -0.64854,0.01 z" />
      <path
         id="path54"
         style="fill:#008080;fill-opacity:1;stroke-width:0.262125;stroke-linecap:round;stroke-linejoin:round"
         d="m 134.97954,103.22846 c -0.20767,0.0602 -0.41298,0.12837 -0.61615,0.20202 l 2.81502,0.42359 c 0.41041,-0.12674 0.82536,-0.24549 1.25111,-0.30853 0.5372,-0.0684 1.06425,-0.16322 1.57804,-0.34266 0.73995,-0.23199 1.4883,-0.43455 2.23498,-0.6435 0.94209,-0.22717 1.88492,-0.45619 2.85381,-0.53795 1.41797,-0.20845 2.81031,-0.54768 4.23121,-0.74138 1.61125,-0.22678 3.22319,-0.44706 4.85439,-0.46095 0.0459,-0.001 0.11685,-0.002 0.16908,-0.002 0.0107,0.002 0.0207,0.003 0.0309,0.004 0.17494,0.0218 0.34917,0.0496 0.52373,0.0744 0.72578,0.16231 1.4442,0.34671 2.15969,0.54791 l 2.74739,-0.29356 c 0.003,-0.001 0.005,-0.001 0.008,-0.002 0.004,-0.001 0.008,-0.002 0.0115,-0.003 0.005,-0.001 0.008,-0.002 0.012,-0.003 0.004,-0.001 0.007,-0.002 0.0109,-0.003 0.002,-6.7e-4 0.004,-0.002 0.006,-0.002 0.002,-5.9e-4 0.004,-10e-4 0.006,-10e-4 l 0.01,-0.003 0.008,-0.002 0.01,-0.003 0.01,-0.003 0.007,-0.002 c -0.75444,-0.18503 -1.50864,-0.37028 -2.26696,-0.53879 -2.02186,-0.35486 -4.09288,-0.34064 -6.13652,-0.24443 -1.60926,0.0327 -3.20017,0.26577 -4.78896,0.50111 -1.02597,0.11228 -2.02618,0.37202 -3.04011,0.54966 -0.28771,0.0504 -0.97741,0.13627 -1.27752,0.1749 -0.98934,0.0711 -1.95434,0.31173 -2.91198,0.55846 -0.75946,0.21105 -1.51965,0.41919 -2.27213,0.65456 -0.29087,0.0378 -0.56777,0.16981 -0.85609,0.21536 -0.24269,0.0383 -0.50173,0.0369 -0.75022,0.076 -0.21139,0.0453 -0.42119,0.0987 -0.62877,0.15923 z" />
      <path
         style="fill:#008080;fill-opacity:1;stroke-width:0.262125;stroke-linecap:round;stroke-linejoin:round"
         id="path55"
         d="m 137.28879,103.19592 c 0.13411,0.11197 0.31409,0.15113 0.47989,0.19346 0.1694,0.0399 0.3435,0.0464 0.51673,0.0491 0.12843,-0.009 0.26723,0.0193 0.3916,-0.0194 0.0157,-0.007 0.0313,-0.0132 0.0471,-0.0194 0.0162,-0.006 0.0335,-0.0101 0.0488,-0.0186 0.0161,-0.009 0.0602,-0.0418 0.0442,-0.0328 -0.25439,0.14649 -0.50879,0.29299 -0.76318,0.43948 0.025,-0.0149 0.0502,-0.0293 0.0749,-0.0446 0.026,-0.016 0.0515,-0.0327 0.0772,-0.0491 0.14262,-0.094 0.27715,-0.19936 0.41532,-0.29958 0.10624,-0.0879 0.21836,-0.1676 0.33407,-0.24247 0,0 0.8897,-0.34173 0.8897,-0.34173 v 0 c -0.12174,0.0629 -0.23582,0.14515 -0.33974,0.23391 -0.14062,0.10352 -0.28547,0.20142 -0.42345,0.3086 -0.37348,0.24542 -0.73627,0.5508 -1.17696,0.64626 -0.1287,0.004 -0.25737,-0.007 -0.38608,-0.008 -0.17606,-0.009 -0.35323,-0.0215 -0.5231,-0.0725 -0.18008,-0.0564 -0.35859,-0.11748 -0.53358,-0.18815 z" />
      <path
         style="fill:#002c2c;fill-opacity:1;stroke-width:0.990715;stroke-linecap:round;stroke-linejoin:round"
         d="m 530.59525,393.55644 c -0.38891,-0.0362 -1.79516,-0.30125 -3.12501,-0.589 -1.32984,-0.28775 -2.69738,-0.52318 -3.03896,-0.52318 -0.34159,0 -0.66423,-0.0698 -0.71699,-0.1552 -0.19723,-0.31913 1.31842,-1.06703 3.00991,-1.48524 0.96235,-0.23794 3.81802,-1.03537 6.34592,-1.77208 7.22362,-2.10516 4.83111,-1.91222 22.34533,-1.80203 8.41946,0.053 18.52986,0.14619 22.46757,0.20716 7.02323,0.10875 7.146,0.11676 6.45234,0.42101 -0.99752,0.43753 -5.61659,1.47693 -9.36286,2.10686 -4.88846,0.82199 -12.49543,1.71912 -18.83302,2.22108 -3.15988,0.25028 -6.87221,0.60734 -8.24962,0.79347 -1.37741,0.18614 -3.84344,0.41955 -5.48007,0.51871 -2.78409,0.16867 -10.23449,0.20553 -11.81454,0.0584 z"
         id="path56"
         transform="scale(0.26458333)" />
      <path
         style="fill:#000c72;fill-opacity:1;stroke-width:0.990715;stroke-linecap:round;stroke-linejoin:round"
         d="m 559.08667,387.12687 c -9.70601,-0.0723 -17.68444,-0.16855 -17.72984,-0.21395 -0.11696,-0.11696 4.46811,-0.95855 6.47415,-1.18833 0.92366,-0.1058 3.62834,-0.55373 6.0104,-0.99541 13.07332,-2.424 21.24635,-3.45544 27.66556,-3.49142 l 3.35875,-0.0188 3.68124,0.92664 c 2.02468,0.50965 3.79462,0.99009 3.93321,1.06764 0.27724,0.15515 -0.007,0.33528 -4.28541,2.71268 l -2.5046,1.39184 -4.47808,-0.0297 c -2.46295,-0.0163 -12.41937,-0.0889 -22.12538,-0.16113 z"
         id="path57"
         transform="scale(0.26458333)" />
    </g>
    <g
       id="g63"
       transform="matrix(1.3867674,-0.27303751,0.28200543,1.3426675,-156.26822,9.5281221)"
       style="stroke-width:0.71815">
      <path
         style="display:inline;fill:#92ffff;fill-opacity:1;stroke-width:0.262125;stroke-linecap:round;stroke-linejoin:round"
         id="path58"
         d="m 137.26291,104.03186 c 0.0512,-0.0111 0.0987,-0.0344 0.14855,-0.0494 0.0254,-0.008 0.052,-0.011 0.0772,-0.0192 0.059,-0.0191 0.1161,-0.0439 0.17487,-0.0638 0.24245,-0.0742 0.49922,-0.0721 0.75034,-0.0782 0.40221,0.008 0.7976,0.0954 1.18862,0.18283 0.15281,0.0444 0.31225,0.0657 0.46433,0.11286 0.10256,0.0318 0.20345,0.0763 0.30161,0.11957 0,0 -0.78522,0.51819 -0.78522,0.51819 v 0 c -0.21897,-0.11626 -0.45478,-0.19048 -0.69267,-0.25835 -0.39178,-0.0992 -0.79397,-0.16956 -1.19984,-0.14526 -0.25792,0.0142 -0.51891,0.0312 -0.7633,0.12246 -0.14699,0.0543 -0.29647,0.10283 -0.43934,0.1676 z" />
      <path
         id="path59"
         style="display:inline;fill:#92ffff;fill-opacity:1;stroke-width:0.262125;stroke-linecap:round;stroke-linejoin:round"
         d="m 135.13542,105.42724 c -0.21617,-0.004 -0.43216,-0.0164 -0.6475,-0.0346 l 2.60759,-1.14204 c 0.42926,0.0155 0.86081,0.0221 1.28829,-0.0279 0.53646,-0.0739 1.07004,-0.11955 1.61283,-0.0801 0.77483,0.0313 1.55011,0.032 2.32544,0.0393 0.96875,-0.026 1.93869,-0.0504 2.89543,-0.22376 1.42334,-0.16799 2.85598,-0.20304 4.27829,-0.38603 1.61472,-0.20063 3.22841,-0.40771 4.80694,-0.81907 0.0447,-0.0106 0.11315,-0.0293 0.16381,-0.0419 0.01,-0.004 0.0193,-0.008 0.0289,-0.0114 0.16324,-0.0666 0.32419,-0.13888 0.48628,-0.20825 0.65847,-0.34571 1.30409,-0.71083 1.94251,-1.09141 l 2.72904,-0.43201 c 0.003,3e-4 0.005,1.2e-4 0.008,0 0.004,0 0.008,-2e-5 0.0119,0 0.005,2e-5 0.008,-9e-5 0.0124,0 0.004,9e-5 0.007,2.2e-4 0.0114,5.1e-4 0.002,1.5e-4 0.004,4.4e-4 0.006,5.2e-4 0.002,7e-5 0.004,6e-5 0.006,0 h 0.01 0.008 0.01 0.0103 0.007 c -0.68023,0.37511 -1.36017,0.75038 -2.04845,1.11053 -1.8597,0.86913 -3.86297,1.39471 -5.86115,1.83399 -1.56226,0.38747 -3.15897,0.57675 -4.75423,0.76326 -1.01982,0.15874 -2.05315,0.16845 -3.07836,0.26097 -0.2909,0.0263 -0.97918,0.12294 -1.27899,0.16381 -0.97371,0.189 -1.96809,0.20795 -2.95693,0.21911 -0.78822,-0.006 -1.57639,-0.009 -2.3642,-0.0403 -0.29066,0.0393 -0.5924,-0.0161 -0.88263,0.015 -0.2443,0.0262 -0.49404,0.095 -0.74414,0.12196 -0.21589,0.0113 -0.43236,0.0144 -0.64854,0.01 z" />
      <path
         id="path60"
         style="fill:#008080;fill-opacity:1;stroke-width:0.262125;stroke-linecap:round;stroke-linejoin:round"
         d="m 134.97954,103.22846 c -0.20767,0.0602 -0.41298,0.12837 -0.61615,0.20202 l 2.81502,0.42359 c 0.41041,-0.12674 0.82536,-0.24549 1.25111,-0.30853 0.5372,-0.0684 1.06425,-0.16322 1.57804,-0.34266 0.73995,-0.23199 1.4883,-0.43455 2.23498,-0.6435 0.94209,-0.22717 1.88492,-0.45619 2.85381,-0.53795 1.41797,-0.20845 2.81031,-0.54768 4.23121,-0.74138 1.61125,-0.22678 3.22319,-0.44706 4.85439,-0.46095 0.0459,-0.001 0.11685,-0.002 0.16908,-0.002 0.0107,0.002 0.0207,0.003 0.0309,0.004 0.17494,0.0218 0.34917,0.0496 0.52373,0.0744 0.72578,0.16231 1.4442,0.34671 2.15969,0.54791 l 2.74739,-0.29356 c 0.003,-0.001 0.005,-0.001 0.008,-0.002 0.004,-0.001 0.008,-0.002 0.0115,-0.003 0.005,-0.001 0.008,-0.002 0.012,-0.003 0.004,-0.001 0.007,-0.002 0.0109,-0.003 0.002,-6.7e-4 0.004,-0.002 0.006,-0.002 0.002,-5.9e-4 0.004,-10e-4 0.006,-10e-4 l 0.01,-0.003 0.008,-0.002 0.01,-0.003 0.01,-0.003 0.007,-0.002 c -0.75444,-0.18503 -1.50864,-0.37028 -2.26696,-0.53879 -2.02186,-0.35486 -4.09288,-0.34064 -6.13652,-0.24443 -1.60926,0.0327 -3.20017,0.26577 -4.78896,0.50111 -1.02597,0.11228 -2.02618,0.37202 -3.04011,0.54966 -0.28771,0.0504 -0.97741,0.13627 -1.27752,0.1749 -0.98934,0.0711 -1.95434,0.31173 -2.91198,0.55846 -0.75946,0.21105 -1.51965,0.41919 -2.27213,0.65456 -0.29087,0.0378 -0.56777,0.16981 -0.85609,0.21536 -0.24269,0.0383 -0.50173,0.0369 -0.75022,0.076 -0.21139,0.0453 -0.42119,0.0987 -0.62877,0.15923 z" />
      <path
         style="fill:#008080;fill-opacity:1;stroke-width:0.262125;stroke-linecap:round;stroke-linejoin:round"
         id="path61"
         d="m 137.28879,103.19592 c 0.13411,0.11197 0.31409,0.15113 0.47989,0.19346 0.1694,0.0399 0.3435,0.0464 0.51673,0.0491 0.12843,-0.009 0.26723,0.0193 0.3916,-0.0194 0.0157,-0.007 0.0313,-0.0132 0.0471,-0.0194 0.0162,-0.006 0.0335,-0.0101 0.0488,-0.0186 0.0161,-0.009 0.0602,-0.0418 0.0442,-0.0328 -0.25439,0.14649 -0.50879,0.29299 -0.76318,0.43948 0.025,-0.0149 0.0502,-0.0293 0.0749,-0.0446 0.026,-0.016 0.0515,-0.0327 0.0772,-0.0491 0.14262,-0.094 0.27715,-0.19936 0.41532,-0.29958 0.10624,-0.0879 0.21836,-0.1676 0.33407,-0.24247 0,0 0.8897,-0.34173 0.8897,-0.34173 v 0 c -0.12174,0.0629 -0.23582,0.14515 -0.33974,0.23391 -0.14062,0.10352 -0.28547,0.20142 -0.42345,0.3086 -0.37348,0.24542 -0.73627,0.5508 -1.17696,0.64626 -0.1287,0.004 -0.25737,-0.007 -0.38608,-0.008 -0.17606,-0.009 -0.35323,-0.0215 -0.5231,-0.0725 -0.18008,-0.0564 -0.35859,-0.11748 -0.53358,-0.18815 z" />
      <path
         style="fill:#002c2c;fill-opacity:1;stroke-width:0.990715;stroke-linecap:round;stroke-linejoin:round"
         d="m 530.59525,393.55644 c -0.38891,-0.0362 -1.79516,-0.30125 -3.12501,-0.589 -1.32984,-0.28775 -2.69738,-0.52318 -3.03896,-0.52318 -0.34159,0 -0.66423,-0.0698 -0.71699,-0.1552 -0.19723,-0.31913 1.31842,-1.06703 3.00991,-1.48524 0.96235,-0.23794 3.81802,-1.03537 6.34592,-1.77208 7.22362,-2.10516 4.83111,-1.91222 22.34533,-1.80203 8.41946,0.053 18.52986,0.14619 22.46757,0.20716 7.02323,0.10875 7.146,0.11676 6.45234,0.42101 -0.99752,0.43753 -5.61659,1.47693 -9.36286,2.10686 -4.88846,0.82199 -12.49543,1.71912 -18.83302,2.22108 -3.15988,0.25028 -6.87221,0.60734 -8.24962,0.79347 -1.37741,0.18614 -3.84344,0.41955 -5.48007,0.51871 -2.78409,0.16867 -10.23449,0.20553 -11.81454,0.0584 z"
         id="path62"
         transform="scale(0.26458333)" />
      <path
         style="display:inline;fill:#000c72;fill-opacity:1;stroke-width:0.990715;stroke-linecap:round;stroke-linejoin:round"
         d="m 559.08667,387.12687 c -9.70601,-0.0723 -17.68444,-0.16855 -17.72984,-0.21395 -0.11696,-0.11696 4.46811,-0.95855 6.47415,-1.18833 0.92366,-0.1058 3.62834,-0.55373 6.0104,-0.99541 13.07332,-2.424 21.24635,-3.45544 27.66556,-3.49142 l 3.35875,-0.0188 3.68124,0.92664 c 2.02468,0.50965 3.79462,0.99009 3.93321,1.06764 0.27724,0.15515 -0.007,0.33528 -4.28541,2.71268 l -2.5046,1.39184 -4.47808,-0.0297 c -2.46295,-0.0163 -12.41937,-0.0889 -22.12538,-0.16113 z"
         id="path63"
         transform="scale(0.26458333)" />
    </g>
    <g
       id="g69"
       transform="matrix(1.3867674,0.27303751,0.28200544,-1.3426675,-156.73626,191.4009)"
       style="stroke-width:0.71815">
      <path
         style="display:inline;fill:#92ffff;fill-opacity:1;stroke-width:0.262125;stroke-linecap:round;stroke-linejoin:round"
         id="path64"
         d="m 137.26291,104.03186 c 0.0512,-0.0111 0.0987,-0.0344 0.14855,-0.0494 0.0254,-0.008 0.052,-0.011 0.0772,-0.0192 0.059,-0.0191 0.1161,-0.0439 0.17487,-0.0638 0.24245,-0.0742 0.49922,-0.0721 0.75034,-0.0782 0.40221,0.008 0.7976,0.0954 1.18862,0.18283 0.15281,0.0444 0.31225,0.0657 0.46433,0.11286 0.10256,0.0318 0.20345,0.0763 0.30161,0.11957 0,0 -0.78522,0.51819 -0.78522,0.51819 v 0 c -0.21897,-0.11626 -0.45478,-0.19048 -0.69267,-0.25835 -0.39178,-0.0992 -0.79397,-0.16956 -1.19984,-0.14526 -0.25792,0.0142 -0.51891,0.0312 -0.7633,0.12246 -0.14699,0.0543 -0.29647,0.10283 -0.43934,0.1676 z" />
      <path
         id="path65"
         style="display:inline;fill:#92ffff;fill-opacity:1;stroke-width:0.262125;stroke-linecap:round;stroke-linejoin:round"
         d="m 135.13542,105.42724 c -0.21617,-0.004 -0.43216,-0.0164 -0.6475,-0.0346 l 2.60759,-1.14204 c 0.42926,0.0155 0.86081,0.0221 1.28829,-0.0279 0.53646,-0.0739 1.07004,-0.11955 1.61283,-0.0801 0.77483,0.0313 1.55011,0.032 2.32544,0.0393 0.96875,-0.026 1.93869,-0.0504 2.89543,-0.22376 1.42334,-0.16799 2.85598,-0.20304 4.27829,-0.38603 1.61472,-0.20063 3.22841,-0.40771 4.80694,-0.81907 0.0447,-0.0106 0.11315,-0.0293 0.16381,-0.0419 0.01,-0.004 0.0193,-0.008 0.0289,-0.0114 0.16324,-0.0666 0.32419,-0.13888 0.48628,-0.20825 0.65847,-0.34571 1.30409,-0.71083 1.94251,-1.09141 l 2.72904,-0.43201 c 0.003,3e-4 0.005,1.2e-4 0.008,0 0.004,0 0.008,-2e-5 0.0119,0 0.005,2e-5 0.008,-9e-5 0.0124,0 0.004,9e-5 0.007,2.2e-4 0.0114,5.1e-4 0.002,1.5e-4 0.004,4.4e-4 0.006,5.2e-4 0.002,7e-5 0.004,6e-5 0.006,0 h 0.01 0.008 0.01 0.0103 0.007 c -0.68023,0.37511 -1.36017,0.75038 -2.04845,1.11053 -1.8597,0.86913 -3.86297,1.39471 -5.86115,1.83399 -1.56226,0.38747 -3.15897,0.57675 -4.75423,0.76326 -1.01982,0.15874 -2.05315,0.16845 -3.07836,0.26097 -0.2909,0.0263 -0.97918,0.12294 -1.27899,0.16381 -0.97371,0.189 -1.96809,0.20795 -2.95693,0.21911 -0.78822,-0.006 -1.57639,-0.009 -2.3642,-0.0403 -0.29066,0.0393 -0.5924,-0.0161 -0.88263,0.015 -0.2443,0.0262 -0.49404,0.095 -0.74414,0.12196 -0.21589,0.0113 -0.43236,0.0144 -0.64854,0.01 z" />
      <path
         id="path66"
         style="fill:#008080;fill-opacity:1;stroke-width:0.262125;stroke-linecap:round;stroke-linejoin:round"
         d="m 134.97954,103.22846 c -0.20767,0.0602 -0.41298,0.12837 -0.61615,0.20202 l 2.81502,0.42359 c 0.41041,-0.12674 0.82536,-0.24549 1.25111,-0.30853 0.5372,-0.0684 1.06425,-0.16322 1.57804,-0.34266 0.73995,-0.23199 1.4883,-0.43455 2.23498,-0.6435 0.94209,-0.22717 1.88492,-0.45619 2.85381,-0.53795 1.41797,-0.20845 2.81031,-0.54768 4.23121,-0.74138 1.61125,-0.22678 3.22319,-0.44706 4.85439,-0.46095 0.0459,-0.001 0.11685,-0.002 0.16908,-0.002 0.0107,0.002 0.0207,0.003 0.0309,0.004 0.17494,0.0218 0.34917,0.0496 0.52373,0.0744 0.72578,0.16231 1.4442,0.34671 2.15969,0.54791 l 2.74739,-0.29356 c 0.003,-0.001 0.005,-0.001 0.008,-0.002 0.004,-0.001 0.008,-0.002 0.0115,-0.003 0.005,-0.001 0.008,-0.002 0.012,-0.003 0.004,-0.001 0.007,-0.002 0.0109,-0.003 0.002,-6.7e-4 0.004,-0.002 0.006,-0.002 0.002,-5.9e-4 0.004,-10e-4 0.006,-10e-4 l 0.01,-0.003 0.008,-0.002 0.01,-0.003 0.01,-0.003 0.007,-0.002 c -0.75444,-0.18503 -1.50864,-0.37028 -2.26696,-0.53879 -2.02186,-0.35486 -4.09288,-0.34064 -6.13652,-0.24443 -1.60926,0.0327 -3.20017,0.26577 -4.78896,0.50111 -1.02597,0.11228 -2.02618,0.37202 -3.04011,0.54966 -0.28771,0.0504 -0.97741,0.13627 -1.27752,0.1749 -0.98934,0.0711 -1.95434,0.31173 -2.91198,0.55846 -0.75946,0.21105 -1.51965,0.41919 -2.27213,0.65456 -0.29087,0.0378 -0.56777,0.16981 -0.85609,0.21536 -0.24269,0.0383 -0.50173,0.0369 -0.75022,0.076 -0.21139,0.0453 -0.42119,0.0987 -0.62877,0.15923 z" />
      <path
         style="fill:#008080;fill-opacity:1;stroke-width:0.262125;stroke-linecap:round;stroke-linejoin:round"
         id="path67"
         d="m 137.28879,103.19592 c 0.13411,0.11197 0.31409,0.15113 0.47989,0.19346 0.1694,0.0399 0.3435,0.0464 0.51673,0.0491 0.12843,-0.009 0.26723,0.0193 0.3916,-0.0194 0.0157,-0.007 0.0313,-0.0132 0.0471,-0.0194 0.0162,-0.006 0.0335,-0.0101 0.0488,-0.0186 0.0161,-0.009 0.0602,-0.0418 0.0442,-0.0328 -0.25439,0.14649 -0.50879,0.29299 -0.76318,0.43948 0.025,-0.0149 0.0502,-0.0293 0.0749,-0.0446 0.026,-0.016 0.0515,-0.0327 0.0772,-0.0491 0.14262,-0.094 0.27715,-0.19936 0.41532,-0.29958 0.10624,-0.0879 0.21836,-0.1676 0.33407,-0.24247 0,0 0.8897,-0.34173 0.8897,-0.34173 v 0 c -0.12174,0.0629 -0.23582,0.14515 -0.33974,0.23391 -0.14062,0.10352 -0.28547,0.20142 -0.42345,0.3086 -0.37348,0.24542 -0.73627,0.5508 -1.17696,0.64626 -0.1287,0.004 -0.25737,-0.007 -0.38608,-0.008 -0.17606,-0.009 -0.35323,-0.0215 -0.5231,-0.0725 -0.18008,-0.0564 -0.35859,-0.11748 -0.53358,-0.18815 z" />
      <path
         style="fill:#002c2c;fill-opacity:1;stroke-width:0.990715;stroke-linecap:round;stroke-linejoin:round"
         d="m 530.59525,393.55644 c -0.38891,-0.0362 -1.79516,-0.30125 -3.12501,-0.589 -1.32984,-0.28775 -2.69738,-0.52318 -3.03896,-0.52318 -0.34159,0 -0.66423,-0.0698 -0.71699,-0.1552 -0.19723,-0.31913 1.31842,-1.06703 3.00991,-1.48524 0.96235,-0.23794 3.81802,-1.03537 6.34592,-1.77208 7.22362,-2.10516 4.83111,-1.91222 22.34533,-1.80203 8.41946,0.053 18.52986,0.14619 22.46757,0.20716 7.02323,0.10875 7.146,0.11676 6.45234,0.42101 -0.99752,0.43753 -5.61659,1.47693 -9.36286,2.10686 -4.88846,0.82199 -12.49543,1.71912 -18.83302,2.22108 -3.15988,0.25028 -6.87221,0.60734 -8.24962,0.79347 -1.37741,0.18614 -3.84344,0.41955 -5.48007,0.51871 -2.78409,0.16867 -10.23449,0.20553 -11.81454,0.0584 z"
         id="path68"
         transform="scale(0.26458333)" />
      <path
         style="fill:#000c72;fill-opacity:1;stroke-width:0.990715;stroke-linecap:round;stroke-linejoin:round"
         d="m 559.08667,387.12687 c -9.70601,-0.0723 -17.68444,-0.16855 -17.72984,-0.21395 -0.11696,-0.11696 4.46811,-0.95855 6.47415,-1.18833 0.92366,-0.1058 3.62834,-0.55373 6.0104,-0.99541 13.07332,-2.424 21.24635,-3.45544 27.66556,-3.49142 l 3.35875,-0.0188 3.68124,0.92664 c 2.02468,0.50965 3.79462,0.99009 3.93321,1.06764 0.27724,0.15515 -0.007,0.33528 -4.28541,2.71268 l -2.5046,1.39184 -4.47808,-0.0297 c -2.46295,-0.0163 -12.41937,-0.0889 -22.12538,-0.16113 z"
         id="path69"
         transform="scale(0.26458333)" />
    </g>
  </g>
</svg>
