<?xml version="1.0" encoding="UTF-8" standalone="no"?>
<!-- Created with Inkscape (http://www.inkscape.org/) -->

<svg
   width="520.93433"
   height="309.94379"
   viewBox="0 0 520.93433 309.94379"
   version="1.1"
   id="svg1"
   inkscape:version="1.3.2 (091e20e, 2023-11-25, custom)"
   sodipodi:docname="skeleton.svg"
   xmlns:inkscape="http://www.inkscape.org/namespaces/inkscape"
   xmlns:sodipodi="http://sodipodi.sourceforge.net/DTD/sodipodi-0.dtd"
   xmlns="http://www.w3.org/2000/svg"
   xmlns:svg="http://www.w3.org/2000/svg">
  <sodipodi:namedview
     id="namedview1"
     pagecolor="#ffffff"
     bordercolor="#000000"
     borderopacity="0.25"
     inkscape:showpageshadow="2"
     inkscape:pageopacity="0.0"
     inkscape:pagecheckerboard="0"
     inkscape:deskcolor="#d1d1d1"
     inkscape:document-units="px"
     inkscape:zoom="0.3"
     inkscape:cx="780"
     inkscape:cy="1215"
     inkscape:window-width="1304"
     inkscape:window-height="745"
     inkscape:window-x="1358"
     inkscape:window-y="-8"
     inkscape:window-maximized="1"
     inkscape:current-layer="g552" />
  <defs
     id="defs1">
    <filter
       style="color-interpolation-filters:sRGB"
       inkscape:label="Drop Shadow"
       id="filter1077"
       x="-0.20099"
       y="-0.42434656"
       width="1.3497748"
       height="2.1092568">
      <feFlood
         result="flood"
         in="SourceGraphic"
         flood-opacity="0.803922"
         flood-color="rgb(8,8,8)"
         id="feFlood1076" />
      <feGaussianBlur
         result="blur"
         in="SourceGraphic"
         stdDeviation="11.550152"
         id="feGaussianBlur1076" />
      <feOffset
         result="offset"
         in="blur"
         dx="-15.957447"
         dy="16.261398"
         id="feOffset1076" />
      <feComposite
         result="comp1"
         operator="in"
         in="flood"
         in2="offset"
         id="feComposite1076" />
      <feComposite
         result="fbSourceGraphic"
         operator="over"
         in="SourceGraphic"
         in2="comp1"
         id="feComposite1077" />
      <feColorMatrix
         result="fbSourceGraphicAlpha"
         in="fbSourceGraphic"
         values="0 0 0 -1 0 0 0 0 -1 0 0 0 0 -1 0 0 0 0 1 0"
         id="feColorMatrix1093" />
      <feFlood
         id="feFlood1093"
         result="flood"
         in="fbSourceGraphic"
         flood-opacity="0.670588"
         flood-color="rgb(8,8,8)" />
      <feGaussianBlur
         id="feGaussianBlur1093"
         result="blur"
         in="fbSourceGraphic"
         stdDeviation="11.550152" />
      <feOffset
         id="feOffset1093"
         result="offset"
         in="blur"
         dx="-3.495441"
         dy="17.781155" />
      <feComposite
         id="feComposite1094"
         result="comp1"
         operator="out"
         in="flood"
         in2="offset" />
      <feComposite
         id="feComposite1095"
         result="comp2"
         operator="atop"
         in="comp1"
         in2="fbSourceGraphic" />
    </filter>
  </defs>
  <g
     id="g629"
     inkscape:label="skeleton"
     transform="translate(-756.85168,-654.56342)">
    <g
       id="g525"
       inkscape:label="arm front"
       style="display:inline"
       transform="rotate(-3.9948802,1205.5697,1095.1864)"
       inkscape:export-filename="skeleton\arm-front.svg"
       inkscape:export-xdpi="96"
       inkscape:export-ydpi="96">
      <g
         inkscape:groupmode="layer"
         id="g522"
         inkscape:label="arm"
         style="display:inline;fill:#000000">
        <g
           id="g503"
           inkscape:label="back arm"
           style="filter:url(#filter1077)">
          <path
             id="path500"
             style="opacity:1;fill:#000000;fill-opacity:1;stroke-width:1.37953;stroke-linecap:round;stroke-linejoin:round"
             d="m 1193.3887,714.78906 c -5.2203,0.66241 -10.375,1.71235 -15.3418,3.49024 l 9.2402,6.375 c 4.2414,-1.804 8.7947,-2.62123 13.3477,-3.21485 0.3776,1.83638 0.1699,3.09837 -0.059,5.1543 -0.5316,4.16499 -2.7217,8.3009 -2.17,12.58398 0.3897,3.02459 1.5252,4.97484 2.7618,7.71289 4.5422,8.14847 11.6496,14.34175 17.6855,21.32422 3.8115,4.60347 6.1933,9.79248 4.336,15.69336 -2.8607,4.80863 -8.0004,5.94317 -13.1446,6.75 -5.1165,0.60231 -10.2792,0.53631 -15.4219,0.52149 -6.036,0.70979 -11.2627,-1.74696 -16.8769,-3.5 -5.9924,-1.4298 -11.8354,-3.45711 -17.9316,-4.40235 -6.5709,-0.89829 -13.2118,-0.92379 -19.8301,-0.96679 -7.1178,-0.0492 -14.2356,-0.0238 -21.3535,-0.008 -7.9588,1.31033 -15.9067,2.6573 -23.795,4.3418 -8.1212,1.31802 -16.2435,2.65079 -24.4257,3.54297 -9.4282,1.18174 -18.7343,3.07748 -28.0684,4.81445 -12.7714,2.09733 -25.1538,6.03537 -37.7598,8.9375 -15.9677,3.31379 -31.88214,6.91158 -47.9238,9.86524 -13.53675,2.21903 -26.92148,5.19772 -40.34375,7.99609 0.73176,2.41653 1.02549,4.95624 0.81836,7.54492 16.03854,-3.19663 31.96881,-6.93423 48.12305,-9.5332 16.05353,-2.9915 31.99347,-6.56364 47.98044,-9.88086 12.6525,-2.91541 25.139,-6.65058 37.9629,-8.74023 9.3428,-1.73086 18.6694,-3.57222 28.1133,-4.68946 8.2074,-0.95938 16.3746,-2.23633 24.5215,-3.60547 7.8259,-1.7066 15.727,-3.10539 23.668,-4.15039 7.1094,-0.006 14.2204,-0.029 21.33,0.006 6.6074,0.0894 13.2434,0.16316 19.791,1.1543 6.019,1.11826 11.87,2.97054 17.795,4.49023 5.6831,1.82355 11.0461,4.00046 17.1523,3.28907 5.1792,0.01 10.3837,0.0595 15.5235,-0.68164 5.5453,-1.0075 10.813,-2.5618 13.8183,-7.75782 2.0126,-6.22147 0.083,-11.80048 -3.998,-16.77343 -5.9702,-6.98955 -13.107,-13.06976 -17.8203,-21.0586 -1.1345,-2.34128 -2.4554,-4.60835 -2.8907,-7.22656 -0.703,-4.22892 1.5841,-8.36449 2.125,-12.46875 0.2596,-1.83752 1.068,-7.67789 -0.6699,-9.12305 -5.9891,-4.9803 -9.494,-8.11358 -16.2695,-7.80664 z" />
          <path
             id="path501"
             style="opacity:1;fill:#000000;fill-opacity:1;stroke-width:1.37954;stroke-linecap:round;stroke-linejoin:round"
             d="m 1179.6737,717.87929 c -15.1966,-0.0891 -30.2334,2.7043 -45.1022,5.5308 -24.9052,5.18175 -49.761,10.69044 -74.3941,17.02542 -16.6115,4.78363 -33.2996,9.30671 -50.0308,13.65967 -11.2599,2.72348 -22.5924,5.30497 -33.6349,8.80035 -9.52972,3.21617 -19.20234,6.03478 -28.93892,8.56814 -8.84992,2.03348 -17.86722,3.21426 -26.8107,4.75892 -12.17163,1.61616 -24.06183,4.43135 -35.89626,7.54943 0.67456,2.794 0.80704,5.75044 0.33602,8.76896 0.614,-0.16713 1.23347,-0.31495 1.84713,-0.48322 14.29018,-3.81875 28.63567,-7.34542 43.35448,-9.14549 8.9815,-1.47779 18.02057,-2.72099 26.87622,-4.84259 9.70879,-2.58565 19.37086,-5.39173 28.86072,-8.68529 11.04264,-3.42859 22.36451,-5.91101 33.56521,-8.78569 16.5537,-4.48026 33.0614,-9.12851 49.4982,-14.01528 24.6323,-6.39472 49.5208,-11.8315 74.468,-16.8811 15.106,-2.72579 30.4117,-5.43515 45.8314,-4.75264 z" />
          <path
             style="opacity:1;fill:#000000;fill-opacity:1;stroke-width:1.37953;stroke-linecap:round;stroke-linejoin:round"
             id="path502"
             d="m 889.96636,782.24149 c -5.61799,0.0656 -11.23651,0.0751 -16.85483,0.0719 -5.7576,0.33539 -10.31445,1.46675 -12.00301,7.45031 -0.30819,6.51668 3.62263,11.98931 6.23647,17.6889 2.76482,5.77945 4.91823,11.86104 6.47566,18.07378 0.83394,2.32996 0.44291,5.00439 1.34114,7.31294 2.15631,5.54198 12.27862,8.99856 15.43197,10.7533 7.79462,2.24351 15.65612,2.46067 23.47448,0.41953 5.99979,-2.14324 10.08404,-7.11787 14.50161,-11.45003 2.83487,-2.40696 1.38569,-1.31056 4.33204,-3.30959 0,0 -9.32929,-5.94637 -9.32929,-5.94637 v 0 c -2.99098,2.13825 -1.52209,0.98049 -4.39432,3.4889 -4.27617,4.20285 -8.2755,9.00821 -14.12641,10.99849 -7.70898,1.84609 -15.54444,1.53371 -23.08402,-1.0674 2.23669,1.40113 4.44085,2.85559 6.71008,4.2034 0.74306,0.44135 -1.49614,-0.89169 -2.12769,-1.48167 -2.52935,-2.36283 -1.95037,-6.07629 -2.77625,-9.15051 -1.53222,-6.27124 -3.66952,-12.43832 -6.42184,-18.2735 -2.50069,-5.52626 -6.32011,-10.72718 -6.46968,-16.96204 1.2873,-5.48539 6.16565,-6.03461 11.11596,-6.29172 5.68432,-0.003 11.36882,0.007 17.05282,0.0719 z" />
          <path
             style="display:inline;opacity:1;fill:#ffffff;fill-opacity:1;stroke-width:1.37953;stroke-linecap:round;stroke-linejoin:round"
             d="m 905.19678,836.70752 c 1.97123,-0.85672 5.36507,-2.91611 7.54186,-4.57643 3.52833,-2.69119 3.90019,-3.44837 3.42682,-6.9776 l -0.53099,-3.95882 12.24261,-2.40813 c 53.12036,-10.44886 76.18162,-15.25847 90.90682,-18.95939 17.7646,-4.46482 41.1898,-8.96231 57.2103,-10.984 5.1434,-0.64907 16.1907,-2.43434 24.5495,-3.96727 13.8555,-2.54098 17.305,-2.75435 39.057,-2.41584 l 23.8593,0.37129 14.3026,4.24785 c 13.4692,4.00035 14.893,4.20939 24.4376,3.58783 11.5293,-0.7508 16.929,-2.59002 19.6081,-6.67879 3.1042,-4.73758 1.3856,-9.29878 -7.1523,-18.98222 -4.1799,-4.74072 -9.4876,-11.2779 -11.7948,-14.52707 -3.774,-5.31493 -4.1922,-6.58423 -4.1684,-12.65229 0.015,-3.70958 0.4429,-8.80954 0.9518,-11.33324 l 0.9253,-4.58855 -4.2524,1.06771 c -2.3388,0.58724 -10.9361,1.74846 -19.105,2.58048 -30.9245,3.14971 -79.5744,13.51269 -126.2527,26.89328 -12.5533,3.59848 -29.0129,8.09073 -36.5767,9.98276 -7.5639,1.89204 -23.6543,6.41953 -35.75648,10.06109 -16.31579,4.90944 -27.97656,7.60936 -45.10814,10.44429 -19.20448,3.17795 -37.19729,6.95926 -47.03349,9.88441 -1.42073,0.4225 -1.92535,-0.0572 -1.92535,-1.83028 0,-1.95495 -0.46144,-2.2792 -2.47545,-1.73946 -1.36149,0.36486 -3.34185,0.67015 -4.40079,0.67841 -1.05894,0.008 -2.94778,1.03746 -4.19742,2.2871 -2.82893,2.82893 -2.22785,6.331 2.82024,16.4313 3.29366,6.59003 7.37938,18.46144 8.75835,25.44815 0.35487,1.798 1.51329,3.14653 3.05868,3.56062 4.34846,1.16521 13.36386,0.66505 17.07353,-0.94719 z"
             id="path503"
             inkscape:label="color" />
        </g>
      </g>
    </g>
  </g>
</svg>
