<?xml version="1.0" encoding="UTF-8" standalone="no"?>
<!-- Created with Inkscape (http://www.inkscape.org/) -->

<svg
   width="435.0528"
   height="919.79712"
   viewBox="0 0 435.0528 919.79712"
   version="1.1"
   id="svg1"
   inkscape:version="1.3.2 (091e20e, 2023-11-25, custom)"
   sodipodi:docname="skeleton.svg"
   xmlns:inkscape="http://www.inkscape.org/namespaces/inkscape"
   xmlns:sodipodi="http://sodipodi.sourceforge.net/DTD/sodipodi-0.dtd"
   xmlns="http://www.w3.org/2000/svg"
   xmlns:svg="http://www.w3.org/2000/svg">
  <sodipodi:namedview
     id="namedview1"
     pagecolor="#ffffff"
     bordercolor="#000000"
     borderopacity="0.25"
     inkscape:showpageshadow="2"
     inkscape:pageopacity="0.0"
     inkscape:pagecheckerboard="0"
     inkscape:deskcolor="#d1d1d1"
     inkscape:document-units="px"
     inkscape:zoom="0.3"
     inkscape:cx="780"
     inkscape:cy="1215"
     inkscape:window-width="1304"
     inkscape:window-height="745"
     inkscape:window-x="1358"
     inkscape:window-y="-8"
     inkscape:window-maximized="1"
     inkscape:current-layer="g552" />
  <defs
     id="defs1">
    <filter
       style="color-interpolation-filters:sRGB"
       inkscape:label="Drop Shadow"
       id="filter1046"
       x="-0.10960579"
       y="-0.20678103"
       width="1.2771134"
       height="1.5351075">
      <feFlood
         result="flood"
         in="SourceGraphic"
         flood-opacity="0.925490"
         flood-color="rgb(8,8,8)"
         id="feFlood1045" />
      <feGaussianBlur
         result="blur"
         in="SourceGraphic"
         stdDeviation="8.510638"
         id="feGaussianBlur1045" />
      <feOffset
         result="offset"
         in="blur"
         dx="10.790274"
         dy="12.006079"
         id="feOffset1045" />
      <feComposite
         result="comp1"
         operator="in"
         in="flood"
         in2="offset"
         id="feComposite1045" />
      <feComposite
         result="comp2"
         operator="over"
         in="SourceGraphic"
         in2="comp1"
         id="feComposite1046" />
    </filter>
    <filter
       style="color-interpolation-filters:sRGB"
       inkscape:label="Drop Shadow"
       id="filter1048"
       x="-0.094775981"
       y="-0.14438329"
       width="1.2396196"
       height="1.3736347">
      <feFlood
         result="flood"
         in="SourceGraphic"
         flood-opacity="0.925490"
         flood-color="rgb(8,8,8)"
         id="feFlood1046" />
      <feGaussianBlur
         result="blur"
         in="SourceGraphic"
         stdDeviation="8.510638"
         id="feGaussianBlur1046" />
      <feOffset
         result="offset"
         in="blur"
         dx="10.790274"
         dy="12.006079"
         id="feOffset1046" />
      <feComposite
         result="comp1"
         operator="in"
         in="flood"
         in2="offset"
         id="feComposite1047" />
      <feComposite
         result="comp2"
         operator="over"
         in="SourceGraphic"
         in2="comp1"
         id="feComposite1048" />
    </filter>
    <filter
       style="color-interpolation-filters:sRGB"
       inkscape:label="Drop Shadow"
       id="filter1050"
       x="-0.10371053"
       y="-0.24824572"
       width="1.2622086"
       height="1.6424097">
      <feFlood
         result="flood"
         in="SourceGraphic"
         flood-opacity="0.925490"
         flood-color="rgb(8,8,8)"
         id="feFlood1048" />
      <feGaussianBlur
         result="blur"
         in="SourceGraphic"
         stdDeviation="8.510638"
         id="feGaussianBlur1048" />
      <feOffset
         result="offset"
         in="blur"
         dx="10.790274"
         dy="12.006079"
         id="feOffset1048" />
      <feComposite
         result="comp1"
         operator="in"
         in="flood"
         in2="offset"
         id="feComposite1049" />
      <feComposite
         result="comp2"
         operator="over"
         in="SourceGraphic"
         in2="comp1"
         id="feComposite1050" />
    </filter>
    <filter
       style="color-interpolation-filters:sRGB"
       inkscape:label="Drop Shadow"
       id="filter1052"
       x="-0.10290671"
       y="-0.18915864"
       width="1.2601764"
       height="1.4895043">
      <feFlood
         result="flood"
         in="SourceGraphic"
         flood-opacity="0.925490"
         flood-color="rgb(8,8,8)"
         id="feFlood1050" />
      <feGaussianBlur
         result="blur"
         in="SourceGraphic"
         stdDeviation="8.510638"
         id="feGaussianBlur1050" />
      <feOffset
         result="offset"
         in="blur"
         dx="10.790274"
         dy="12.006079"
         id="feOffset1050" />
      <feComposite
         result="comp1"
         operator="in"
         in="flood"
         in2="offset"
         id="feComposite1051" />
      <feComposite
         result="comp2"
         operator="over"
         in="SourceGraphic"
         in2="comp1"
         id="feComposite1052" />
    </filter>
    <filter
       style="color-interpolation-filters:sRGB"
       inkscape:label="Drop Shadow"
       id="filter1054"
       x="-0.093293552"
       y="-0.18818432"
       width="1.2358716"
       height="1.4869829">
      <feFlood
         result="flood"
         in="SourceGraphic"
         flood-opacity="0.925490"
         flood-color="rgb(8,8,8)"
         id="feFlood1052" />
      <feGaussianBlur
         result="blur"
         in="SourceGraphic"
         stdDeviation="8.510638"
         id="feGaussianBlur1052" />
      <feOffset
         result="offset"
         in="blur"
         dx="10.790274"
         dy="12.006079"
         id="feOffset1052" />
      <feComposite
         result="comp1"
         operator="in"
         in="flood"
         in2="offset"
         id="feComposite1053" />
      <feComposite
         result="comp2"
         operator="over"
         in="SourceGraphic"
         in2="comp1"
         id="feComposite1054" />
    </filter>
    <filter
       y="-0.023997803"
       height="1.1377746"
       inkscape:menu-tooltip="Darkens the edge with an inner blur and adds a flexible glow"
       inkscape:menu="Shadows and Glows"
       inkscape:label="Dark and Glow"
       style="color-interpolation-filters:sRGB"
       id="filter1113"
       x="-0.072493171"
       width="1.1127672">
      <feGaussianBlur
         stdDeviation="5"
         result="result6"
         id="feGaussianBlur1112" />
      <feComposite
         result="result8"
         in="SourceGraphic"
         operator="atop"
         in2="result6"
         id="feComposite1112" />
      <feComposite
         result="result9"
         operator="over"
         in2="SourceAlpha"
         in="result8"
         id="feComposite1113" />
      <feColorMatrix
         values="1 0 0 0 0 0 1 0 0 0 0 0 1 0 0 0 0 0 1 0 "
         result="result10"
         id="feColorMatrix1113" />
      <feBlend
         in="result10"
         mode="normal"
         in2="result6"
         id="feBlend1113" />
    </filter>
    <filter
       inkscape:label="In and Out"
       inkscape:menu="Shadows and Glows"
       inkscape:menu-tooltip="Inner colorized shadow, outer black shadow"
       style="color-interpolation-filters:sRGB"
       id="filter1114"
       x="-0.061772087"
       y="-0.13048786"
       width="1.1557171"
       height="1.3289381">
      <feGaussianBlur
         result="result0"
         in="SourceAlpha"
         stdDeviation="4"
         id="feGaussianBlur1113" />
      <feOffset
         dx="5"
         dy="5"
         result="result4"
         id="feOffset1113" />
      <feComposite
         in="SourceGraphic"
         in2="result4"
         operator="xor"
         result="result3"
         id="feComposite1114" />
    </filter>
    <filter
       inkscape:label="In and Out"
       inkscape:menu="Shadows and Glows"
       inkscape:menu-tooltip="Inner colorized shadow, outer black shadow"
       style="color-interpolation-filters:sRGB"
       id="filter1115"
       x="-0.045466278"
       y="-0.060664511"
       width="1.1146129"
       height="1.1529251">
      <feGaussianBlur
         result="result0"
         in="SourceAlpha"
         stdDeviation="4"
         id="feGaussianBlur1114" />
      <feOffset
         dx="5"
         dy="5"
         result="result4"
         id="feOffset1114" />
      <feComposite
         in="SourceGraphic"
         in2="result4"
         operator="xor"
         result="result3"
         id="feComposite1115" />
    </filter>
    <filter
       style="color-interpolation-filters:sRGB"
       inkscape:label="Drop Shadow"
       id="filter2425"
       x="-0.98885188"
       y="-0.24930404"
       width="2.9777038"
       height="1.4986081">
      <feFlood
         result="flood"
         in="SourceGraphic"
         flood-opacity="1.000000"
         flood-color="rgb(0,0,0)"
         id="feFlood2424" />
      <feGaussianBlur
         result="blur"
         in="SourceGraphic"
         stdDeviation="10.334347"
         id="feGaussianBlur2424" />
      <feOffset
         result="offset"
         in="blur"
         dx="0.000000"
         dy="0.000000"
         id="feOffset2424" />
      <feComposite
         result="comp1"
         operator="in"
         in="flood"
         in2="offset"
         id="feComposite2424" />
      <feComposite
         result="fbSourceGraphic"
         operator="over"
         in="SourceGraphic"
         in2="comp1"
         id="feComposite2425" />
      <feColorMatrix
         result="fbSourceGraphicAlpha"
         in="fbSourceGraphic"
         values="0 0 0 -1 0 0 0 0 -1 0 0 0 0 -1 0 0 0 0 1 0"
         id="feColorMatrix2425" />
      <feFlood
         id="feFlood2425"
         result="flood"
         in="fbSourceGraphic"
         flood-opacity="1.000000"
         flood-color="rgb(0,0,0)" />
      <feGaussianBlur
         id="feGaussianBlur2425"
         result="blur"
         in="fbSourceGraphic"
         stdDeviation="10.334347" />
      <feOffset
         id="feOffset2425"
         result="offset"
         in="blur"
         dx="0.000000"
         dy="0.000000" />
      <feComposite
         id="feComposite2426"
         result="comp1"
         operator="in"
         in="flood"
         in2="offset" />
      <feComposite
         id="feComposite2427"
         result="comp2"
         operator="over"
         in="fbSourceGraphic"
         in2="comp1" />
    </filter>
    <filter
       style="color-interpolation-filters:sRGB"
       inkscape:label="Drop Shadow"
       id="filter2503"
       x="-0.29632402"
       y="-0.44721778"
       width="1.5088424"
       height="1.7749499">
      <feFlood
         result="flood"
         in="SourceGraphic"
         flood-opacity="0.827451"
         flood-color="rgb(0,0,0)"
         id="feFlood2502" />
      <feGaussianBlur
         result="blur"
         in="SourceGraphic"
         stdDeviation="25.531916"
         id="feGaussianBlur2502" />
      <feOffset
         result="offset"
         in="blur"
         dx="-24.164133"
         dy="-22.340425"
         id="feOffset2502" />
      <feComposite
         result="comp1"
         operator="in"
         in="flood"
         in2="offset"
         id="feComposite2502" />
      <feComposite
         result="comp2"
         operator="over"
         in="SourceGraphic"
         in2="comp1"
         id="feComposite2503" />
    </filter>
    <filter
       style="color-interpolation-filters:sRGB"
       inkscape:label="Drop Shadow"
       id="filter2847"
       x="-0.69842762"
       y="-0.2475504"
       width="2.9321086"
       height="1.7916455">
      <feFlood
         result="flood"
         in="SourceGraphic"
         flood-opacity="0.568627"
         flood-color="rgb(29,29,29)"
         id="feFlood2846" />
      <feGaussianBlur
         result="blur"
         in="SourceGraphic"
         stdDeviation="8.510638"
         id="feGaussianBlur2846" />
      <feOffset
         result="offset"
         in="blur"
         dx="15.653496"
         dy="24.468084"
         id="feOffset2846" />
      <feComposite
         result="comp1"
         operator="in"
         in="flood"
         in2="offset"
         id="feComposite2846" />
      <feComposite
         result="comp2"
         operator="over"
         in="SourceGraphic"
         in2="comp1"
         id="feComposite2847" />
    </filter>
    <filter
       style="color-interpolation-filters:sRGB"
       inkscape:label="Drop Shadow"
       id="filter2849"
       x="-0.34455756"
       y="-0.24187283"
       width="1.9531734"
       height="1.7734891">
      <feFlood
         result="flood"
         in="SourceGraphic"
         flood-opacity="0.568627"
         flood-color="rgb(29,29,29)"
         id="feFlood2847" />
      <feGaussianBlur
         result="blur"
         in="SourceGraphic"
         stdDeviation="8.510638"
         id="feGaussianBlur2847" />
      <feOffset
         result="offset"
         in="blur"
         dx="15.653496"
         dy="24.468084"
         id="feOffset2847" />
      <feComposite
         result="comp1"
         operator="in"
         in="flood"
         in2="offset"
         id="feComposite2848" />
      <feComposite
         result="comp2"
         operator="over"
         in="SourceGraphic"
         in2="comp1"
         id="feComposite2849" />
    </filter>
    <filter
       style="color-interpolation-filters:sRGB"
       inkscape:label="Drop Shadow"
       id="filter2851"
       x="-0.2985844"
       y="-0.17179731"
       width="1.8259947"
       height="1.5493935">
      <feFlood
         result="flood"
         in="SourceGraphic"
         flood-opacity="0.568627"
         flood-color="rgb(29,29,29)"
         id="feFlood2849" />
      <feGaussianBlur
         result="blur"
         in="SourceGraphic"
         stdDeviation="8.510638"
         id="feGaussianBlur2849" />
      <feOffset
         result="offset"
         in="blur"
         dx="15.653496"
         dy="24.468084"
         id="feOffset2849" />
      <feComposite
         result="comp1"
         operator="in"
         in="flood"
         in2="offset"
         id="feComposite2850" />
      <feComposite
         result="comp2"
         operator="over"
         in="SourceGraphic"
         in2="comp1"
         id="feComposite2851" />
    </filter>
    <filter
       style="color-interpolation-filters:sRGB"
       inkscape:label="Drop Shadow"
       id="filter2853"
       x="-0.51875947"
       y="-0.15105776"
       width="2.4350802"
       height="1.4830701">
      <feFlood
         result="flood"
         in="SourceGraphic"
         flood-opacity="0.568627"
         flood-color="rgb(29,29,29)"
         id="feFlood2851" />
      <feGaussianBlur
         result="blur"
         in="SourceGraphic"
         stdDeviation="8.510638"
         id="feGaussianBlur2851" />
      <feOffset
         result="offset"
         in="blur"
         dx="15.653496"
         dy="24.468084"
         id="feOffset2851" />
      <feComposite
         result="comp1"
         operator="in"
         in="flood"
         in2="offset"
         id="feComposite2852" />
      <feComposite
         result="comp2"
         operator="over"
         in="SourceGraphic"
         in2="comp1"
         id="feComposite2853" />
    </filter>
    <filter
       style="color-interpolation-filters:sRGB"
       inkscape:label="Drop Shadow"
       id="filter2855"
       x="-0.86317343"
       y="-0.2713408"
       width="3.3878563"
       height="1.8677253">
      <feFlood
         result="flood"
         in="SourceGraphic"
         flood-opacity="0.568627"
         flood-color="rgb(29,29,29)"
         id="feFlood2853" />
      <feGaussianBlur
         result="blur"
         in="SourceGraphic"
         stdDeviation="8.510638"
         id="feGaussianBlur2853" />
      <feOffset
         result="offset"
         in="blur"
         dx="15.653496"
         dy="24.468084"
         id="feOffset2853" />
      <feComposite
         result="comp1"
         operator="in"
         in="flood"
         in2="offset"
         id="feComposite2854" />
      <feComposite
         result="comp2"
         operator="over"
         in="SourceGraphic"
         in2="comp1"
         id="feComposite2855" />
    </filter>
    <filter
       style="color-interpolation-filters:sRGB"
       inkscape:label="Drop Shadow"
       id="filter2857"
       x="-0.26794119"
       y="-0.32933888"
       width="1.7412242"
       height="2.0531983">
      <feFlood
         result="flood"
         in="SourceGraphic"
         flood-opacity="0.568627"
         flood-color="rgb(29,29,29)"
         id="feFlood2855" />
      <feGaussianBlur
         result="blur"
         in="SourceGraphic"
         stdDeviation="8.510638"
         id="feGaussianBlur2855" />
      <feOffset
         result="offset"
         in="blur"
         dx="15.653496"
         dy="24.468084"
         id="feOffset2855" />
      <feComposite
         result="comp1"
         operator="in"
         in="flood"
         in2="offset"
         id="feComposite2856" />
      <feComposite
         result="comp2"
         operator="over"
         in="SourceGraphic"
         in2="comp1"
         id="feComposite2857" />
    </filter>
  </defs>
  <g
     id="g629"
     inkscape:label="skeleton"
     transform="translate(-952.30817,-505.20105)">
    <g
       inkscape:groupmode="layer"
       id="g450"
       inkscape:label="body"
       style="display:inline;fill:#000000">
      <path
         style="display:inline;opacity:1;fill:#ffffff;fill-opacity:1;stroke-width:1.37953;stroke-linecap:round;stroke-linejoin:round"
         d="m 1269.6272,1191.1344 c 0,-0.906 -12.4845,-45.9319 -24.1816,-87.2122 -4.6072,-16.2593 -11.2374,-44.6159 -14.7336,-63.0146 -3.4963,-18.3987 -9.1277,-47.80549 -12.5143,-65.34844 -10.1351,-52.50029 -18.2701,-115.80938 -20.2165,-157.33053 -2.5845,-55.13362 -3.5357,-64.10729 -7.1817,-67.75331 -3.6676,-3.66753 -11.4481,-32.08582 -15.935,-58.20229 -5.9923,-34.87865 -8.1863,-78.74702 -5.6556,-113.0834 l 1.1754,-15.94814 h -3.9623 c -3.5161,0 -4.1016,0.83232 -5.1992,7.3906 -0.6803,4.06483 -1.2242,22.094 -1.2086,40.06483 0.038,43.37113 5.0084,79.37698 16.1168,116.74087 2.528,8.50288 3.9698,15.847 3.204,16.32025 -0.8178,0.50544 -0.7923,8.54083 0.062,19.47504 0.7997,10.23802 2.2,34.36822 3.1118,53.62267 1.0547,22.27372 3.3386,46.61056 6.2787,66.90438 2.5416,17.54295 5.0122,35.047 5.4903,38.89789 0.7996,6.44112 11.2146,60.69719 22.5498,117.47168 2.5628,12.8363 8.4352,36.2917 13.0498,52.1231 4.6146,15.8315 10.5836,36.4863 13.2645,45.8996 13.0462,45.8085 13.5908,47.1639 20.3296,50.6018 3.3858,1.7273 6.1559,2.7984 6.1559,2.3802 z"
         id="path397"
         inkscape:label="neck - column color"
         inkscape:export-filename="skeleton\body.svg"
         inkscape:export-xdpi="96"
         inkscape:export-ydpi="96" />
      <g
         id="g417"
         inkscape:label="column"
         style="display:inline;stroke-width:0.917653"
         transform="matrix(0.99937026,-0.04533315,0.04068647,1.1864281,-39.532005,-148.55979)">
        <path
           style="opacity:1;fill:#000000;fill-opacity:0.992157;stroke-width:1.26593;stroke-linecap:round;stroke-linejoin:round"
           id="path416"
           d="m 1174.3935,786.61164 c 1.7413,14.50913 2.3318,29.10854 2.8057,43.69844 0.7363,17.75152 0.014,35.53366 0.8725,53.27642 1.6759,16.4002 4.1918,32.69712 6.3308,49.04151 1.1025,16.27754 4.412,32.20338 7.5988,48.17472 3.4823,15.81015 5.8185,31.80807 8.9992,47.67847 2.4259,13.9315 5.3974,27.7604 8.4416,41.5738 4.2055,13.3274 8.6352,26.5955 12.5095,40.0179 2.724,12.0369 6.4721,23.8063 10.1899,35.5763 2.27,7.91 4.9615,15.6964 7.4476,23.5426 0.3213,1.2104 0.6427,2.4208 0.964,3.6312 0,0 9.9717,4.6429 9.9717,4.6429 v 0 c -0.3145,-1.2253 -0.6289,-2.4505 -0.9433,-3.6759 -2.4173,-7.8959 -5.2807,-15.6593 -7.5555,-23.5989 -3.7659,-11.776 -7.6051,-23.5418 -10.3206,-35.6027 -3.7949,-13.4263 -8.2344,-26.6814 -12.5388,-39.9608 -3.0151,-13.8247 -6.0459,-27.6473 -8.4966,-41.5808 -3.2285,-15.8656 -5.5471,-31.86 -8.9991,-47.67805 -3.2475,-15.94114 -6.5777,-31.84685 -7.6247,-48.11158 -2.2103,-16.31079 -4.6753,-32.58633 -6.3556,-48.96146 -0.9747,-17.75266 -0.3761,-35.55994 -1.0258,-53.32741 -0.4035,-14.48558 -0.9065,-28.97407 -2.29,-43.40881 z" />
        <path
           style="opacity:1;fill:#000000;fill-opacity:0.992157;stroke-width:1.26593;stroke-linecap:round;stroke-linejoin:round"
           id="path417"
           d="m 1200.8441,791.27939 c 1.7413,14.97119 2.3318,30.03555 2.8057,45.09008 0.7363,18.31685 0.014,36.66528 0.8725,54.97309 1.6759,16.92249 4.1918,33.73841 6.3308,50.60331 1.1025,16.79592 4.412,33.22895 7.5988,49.70891 3.4823,16.31372 5.8185,32.82112 8.9992,49.19692 2.4259,14.3752 5.3974,28.6444 8.4416,42.8977 4.2055,13.7519 8.6352,27.4425 12.5095,41.2924 2.724,12.4203 6.4721,24.5644 10.1899,36.7093 2.27,8.1618 4.9615,16.1962 7.4476,24.2923 0.3213,1.249 0.6427,2.4979 0.964,3.7468 0,0 9.9717,4.7908 9.9717,4.7908 v 0 c -0.3145,-1.2643 -0.6289,-2.5285 -0.9433,-3.7929 -2.4173,-8.1473 -5.2807,-16.1581 -7.5555,-24.3505 -3.7659,-12.151 -7.6051,-24.2915 -10.3206,-36.7365 -3.7949,-13.8538 -8.2344,-27.5311 -12.5388,-41.2334 -3.0151,-14.265 -6.0459,-28.5278 -8.4966,-42.905 -3.2285,-16.3708 -5.5471,-32.8746 -8.9991,-49.19648 -3.2475,-16.44881 -6.5777,-32.86107 -7.6247,-49.64376 -2.2103,-16.83024 -4.6753,-33.62409 -6.3556,-50.52072 -0.9747,-18.31802 -0.3761,-36.6924 -1.0258,-55.0257 -0.4035,-14.94689 -0.9065,-29.89679 -2.29,-44.79123 z" />
      </g>
      <g
         id="g420"
         transform="matrix(1,0,0,-1,0,2495.7906)"
         inkscape:label="pelvis"
         style="display:inline;filter:url(#filter2503)">
        <path
           style="display:inline;opacity:1;fill:#000000;fill-opacity:0.992157;stroke-width:1.37953;stroke-linecap:round;stroke-linejoin:round"
           id="path418"
           d="m 1173.3923,1172.8778 c 12.373,-3.0778 24.5648,-6.7924 36.8614,-10.1552 8.5116,-2.225 17.8138,-3.2052 26.1395,0.3905 1.7958,0.7755 5.1048,0.9531 5.0964,2.9091 -0.01,1.832 -3.4001,-1.3652 -5.1001,-2.0479 7.3113,8.3045 13.1847,17.4455 21.9636,24.3478 13.5385,9.532 27.8905,13.7644 44.0124,15.4511 -1.5279,-4.8677 12.1497,5.8229 10.356,2.7357 -0.9666,-1.6635 -3.4898,-3.2894 -5.2237,-2.4554 -1.4205,0.6833 2.3901,2.0966 3.3135,3.3743 2.5078,3.4699 3.016,6.2579 4.2989,10.2958 4.0459,18.2282 -1.6536,31.7099 -11.0862,46.9897 -10.2376,14.1574 -25.3012,22.7955 -40.4604,30.752 -7.6111,3.5969 -15.0255,7.5819 -22.5337,11.3849 0,0 8.9973,5.9088 8.9973,5.9088 v 0 c 7.4725,-3.8494 14.8826,-7.8232 22.4718,-11.4414 15.2925,-8.0785 30.5501,-16.8301 40.7702,-31.2321 9.5069,-15.5084 15.396,-29.1721 11.6983,-47.6998 -1.1146,-3.8509 -1.7844,-7.3108 -4.0171,-10.7228 -5.7406,-8.7728 -17.3334,-13.2066 -27.3466,-14.4021 -5.7961,-0.6591 -11.4732,-1.4212 -17.1085,-2.9988 -2.0156,-0.5643 -4.0221,-1.1735 -5.9847,-1.901 -1.9664,-0.7287 -3.6921,-2.475 -5.7892,-2.4627 -1.5088,0.01 2.527,1.6496 3.7905,2.4744 -8.998,-6.6818 -14.9236,-15.7559 -21.9707,-24.3184 -18.1082,-11.8649 -23.3491,-16.9065 -45.1984,-11.4458 -12.339,3.4437 -24.6093,7.1597 -37.1393,9.8665 z" />
        <path
           style="display:inline;opacity:1;fill:#000000;fill-opacity:0.992157;stroke-width:1.37953;stroke-linecap:round;stroke-linejoin:round"
           id="path419"
           d="m 1163.2949,1166.7644 c -13.9452,2.0176 -26.2958,8.9612 -37.4083,17.3053 -1.8291,1.8621 -3.8549,3.5496 -5.4872,5.5863 -3.5698,4.4541 -6.4058,10.1651 -9.0622,15.1574 -4.4564,8.375 -8.7309,16.8432 -13.0319,25.2985 -9.347,18.2351 -22.1875,34.3414 -36.6147,48.7819 -8.2593,8.5521 -20.5887,15.4921 -23.9417,27.5876 0.3118,1.149 0.3916,2.3879 0.9355,3.4469 1.5822,3.0807 4.6995,5.3498 7.5229,7.0811 12.8173,7.8594 19.2573,10.5266 32.4034,15.392 20.8033,6.3118 42.6007,7.4273 64.1725,8.3989 17.6375,0.5818 35.2858,0.6013 52.9307,0.573 7.696,-0.1316 15.6307,0.3705 23.1406,-1.77 7.1301,-2.0322 13.5185,-6.1843 19.7311,-10.0619 1.7022,-1.2978 3.4043,-2.5956 5.1065,-3.8934 0,0 -9.1942,-5.8033 -9.1942,-5.8033 v 0 c -1.6675,1.2789 -3.3351,2.5577 -5.0026,3.8365 -6.1443,3.8177 -12.408,7.8128 -19.4813,9.7294 -7.4948,2.0307 -15.3746,1.5013 -23.0344,1.6201 -17.5693,0.058 -35.1445,0.1401 -52.7063,-0.4715 -21.5613,-0.9572 -43.3583,-2.1747 -64.0796,-8.7437 -2.7752,-1.0381 -5.5692,-2.027 -8.3254,-3.1144 -7.0959,-2.7997 -10.1729,-1.932 -14.3541,-10.9353 2.7149,-11.9625 15.4372,-18.8712 23.205,-27.3436 14.4113,-14.5972 27.4477,-30.6961 36.8188,-49.0449 4.2961,-8.4468 8.602,-16.8885 13.0674,-25.2476 2.7162,-5.0846 5.3166,-10.3411 8.9814,-14.8521 1.6128,-1.9852 3.6007,-3.6336 5.4011,-5.4504 11.0255,-8.2313 23.4029,-15.1696 37.3477,-16.4943 z" />
        <path
           style="display:inline;opacity:1;fill:#ffffff;fill-opacity:1;stroke-width:1.37953;stroke-linecap:round;stroke-linejoin:round"
           d="m 1246.4585,1318.7231 c 15.0056,-16.6482 29.4089,-24.4888 48.6306,-26.4727 14.2044,-1.466 17.7589,-5.1511 19.8351,-20.5638 3.3995,-25.2356 -16.8368,-52.0628 -53.5466,-70.9866 -19.5253,-10.0653 -23.3474,-13.3213 -17.8057,-15.1685 1.6148,-0.5383 1.9979,-3.0408 1.0461,-6.8331 -1.2732,-5.0729 -2.1412,-5.6415 -5.703,-3.7353 -3.3302,1.7823 -6.5846,0.7658 -15.6965,-4.9024 l -11.4952,-7.1508 -37.4341,-0.7416 c -71.2301,-1.4112 -124.6998,8.5801 -124.6998,23.3012 0,1.7457 9.2198,12.7318 20.4883,24.4134 23.6288,24.4949 29.3971,32.5611 45.6524,63.8386 13.0353,25.0817 24.5854,37.4122 40.2105,42.9271 18.8847,6.6654 60.5507,16.7895 68.813,16.7203 7.7386,-0.065 9.8419,-1.4841 21.7049,-14.6458 z"
           id="path420"
           transform="matrix(1,0,0,-1,0,2495.7906)"
           inkscape:label="color" />
      </g>
      <g
         id="g449"
         inkscape:label="ribs"
         style="display:inline"
         inkscape:export-filename="skeleton\body.svg"
         inkscape:export-xdpi="96"
         inkscape:export-ydpi="96">
        <path
           style="display:inline;opacity:1;fill:#000000;fill-opacity:0.992157;stroke-width:1.37953;stroke-linecap:round;stroke-linejoin:round"
           id="path439"
           d="m 1200.8148,786.24594 c 0.1146,7.31765 0.1645,14.63673 0.2108,21.9552 0.1866,14.91949 5.5024,29.0873 11.1306,42.70204 6.4782,15.37472 10.6711,31.5709 13.8123,47.91759 2.4511,16.6124 4.3809,33.55941 1.3457,50.24495 -0.6145,3.3778 -1.6443,6.66669 -2.4664,10.00003 -5.3309,18.16589 -15.4692,29.75829 -30.5361,40.54136 -11.4597,7.77469 -25.0987,10.15809 -38.3262,13.21919 -17.3213,4.4614 -34.1957,10.4355 -50.8589,16.8916 -15.0991,6.2137 -30.198,12.625 -44.6923,20.1744 -4.0249,2.0964 -14.6567,8.1757 -18.782,10.5174 -6.8513,3.3435 -12.9155,8.6312 -20.1504,11.2485 -1.5418,0.5577 -5.2735,-0.6109 -4.8231,0.9656 0.5652,1.9786 4.6981,4.0317 5.7446,2.2599 1.2736,-2.1565 -2.0097,-4.5883 -3.0145,-6.8824 -0.7108,-3.5772 -1.6004,-7.1235 -2.1322,-10.7316 -1.2647,-8.5803 -1.9276,-19.8337 -2.3216,-28.3919 -0.6925,-15.0409 -0.7437,-30.09447 -0.8225,-45.14718 0.5091,-22.21885 -0.6416,-44.37318 -2.8232,-66.471 -2.2038,-14.14113 -4.9447,-28.18656 -6.4948,-42.42144 -1.0841,-12.31868 -1.1353,-24.69872 -1.1418,-37.05575 0.022,-7.95645 0.01,-4.05243 0.042,-11.71206 0,0 -9.58143,-4.88299 -9.58143,-4.88299 v 0 c 0.021,7.6908 0.007,3.77071 0.0423,11.76026 0.0817,12.37329 -0.12049,24.77418 0.99992,37.11111 1.58071,14.30888 4.55971,28.39634 6.86871,42.59729 2.3012,22.13776 3.6047,44.33082 3.2999,66.60527 0.2903,28.10799 -0.075,56.49709 4.4934,84.30219 3.471,10.1333 1.6871,10.0553 15.7417,15.2222 1.5633,0.5747 3.2868,-0.6503 4.832,-1.2719 7.1086,-2.8594 13.0943,-8.0141 19.8539,-11.5063 20.3422,-11.7412 41.2738,-22.4056 63.3353,-30.594 16.7572,-6.3263 33.7159,-12.1773 51.1013,-16.5516 13.3583,-3.0712 27.0641,-5.5517 38.5248,-13.5969 15.0934,-11.11715 25.3435,-22.89787 30.6528,-41.32054 0.8231,-3.37814 1.8457,-6.71383 2.4694,-10.13442 3.0591,-16.77774 1.4356,-33.70862 -1.0207,-50.43856 -3.0465,-16.39328 -7.1528,-32.66322 -13.6293,-48.07111 -5.6363,-13.45149 -10.9231,-27.43586 -11.0891,-42.21594 0.046,-7.24686 0.096,-14.49437 0.2108,-21.74039 z"
           inkscape:label="torax" />
        <g
           id="g448"
           inkscape:label="color"
           style="display:inline;fill:#000000">
          <path
             style="opacity:1;fill:#ffffff;fill-opacity:1;stroke-width:1.37953;stroke-linecap:round;stroke-linejoin:round"
             d="m 1049.5894,1054.9427 c 26.5238,-14.9159 68.8469,-32.5684 96.8175,-40.3815 34.7303,-9.7013 39.6225,-11.5218 49.7884,-18.52754 11.6298,-8.01447 23.608,-23.89174 27.3561,-36.26089 3.3846,-11.16947 4.8755,-39.09633 2.7118,-50.79749 l -1.7919,-9.69052 -17.9645,21.97091 c -29.7163,36.34366 -34.783,39.66911 -87.6049,57.49831 -32.9075,11.10741 -64.6962,18.63405 -90.7524,21.48742 l -13.7384,1.5046 1.0207,11.2694 c 0.5614,6.1982 1.5447,19.8511 2.1851,30.3397 1.1647,19.0738 2.5952,26.1345 5.2531,25.9279 0.7782,-0.06 12.8019,-6.5136 26.7194,-14.3403 z"
             id="path445" />
          <path
             style="opacity:1;fill:#ffffff;fill-opacity:1;stroke-width:1.37953;stroke-linecap:round;stroke-linejoin:round"
             d="m 1041.6306,989.015 c 33.2464,-5.58316 98.0136,-26.22233 116.8785,-37.24529 10.6069,-6.19777 29.5135,-25.69817 43.8295,-45.2061 5.7728,-7.86642 10.8127,-14.63035 11.1998,-15.03096 0.3872,-0.4006 2.7691,0.37687 5.2931,1.72772 3.6935,1.9767 4.5893,1.81892 4.5893,-0.80833 0,-3.2287 -10.5439,-38.22016 -12.5032,-41.49367 -0.5581,-0.93253 -11.0931,7.82434 -23.4111,19.45972 -47.2125,44.59633 -97.4474,70.01079 -147.4223,74.58276 -14.7194,1.34662 -17.8205,1.01857 -21.4538,-2.2696 -4.174,-3.77741 -4.2473,-3.38218 -4.2473,22.90205 0,30.87343 -2.842,28.43471 27.2475,23.3817 z"
             id="path446" />
          <path
             style="opacity:1;fill:#ffffff;fill-opacity:1;stroke-width:1.37953;stroke-linecap:round;stroke-linejoin:round"
             d="m 1046.2268,934.91862 c 28.2182,-4.11003 67.3465,-20.8711 95.3161,-40.82978 7.7734,-5.54698 25.3448,-20.97306 39.0475,-34.28017 23.0089,-22.34453 24.7539,-24.61623 22.8186,-29.70636 -1.1525,-3.03139 -2.6596,-13.0599 -3.3491,-22.28558 -1.0673,-14.28035 -10.7919,-68.16323 -12.6345,-70.00577 -0.3363,-0.33629 -5.2176,5.66195 -10.8475,13.32941 -24.5372,33.41807 -52.9406,53.11912 -100.5837,69.76655 -18.7416,6.54867 -23.4632,7.31652 -45.6481,7.42339 l -24.7444,0.1192 -0.01,19.25348 -0.01,19.25347 h 10.8581 c 20.6041,0 61.6744,-10.88259 91.5544,-24.25958 17.2718,-7.73243 51.2215,-28.7768 66.5002,-41.2215 10.762,-8.76578 12.6094,-9.54236 17.4518,-7.33602 2.9787,1.35715 5.0114,3.68063 4.5171,5.16327 -1.3402,4.02067 -47.4331,34.69711 -69.3907,46.182 -33.8587,17.7097 -83.2799,31.3345 -108.4879,29.90874 l -13.0044,-0.73552 1.1568,6.60119 c 2.1073,12.02515 7.62,50.56152 7.6332,53.35963 0.015,3.15805 11.4919,3.26612 31.8567,0.29995 z"
             id="path447" />
          <path
             style="opacity:1;fill:#ffffff;fill-opacity:1;stroke-width:1.37953;stroke-linecap:round;stroke-linejoin:round"
             d="m 1052.9089,817.48377 c 34.6824,-9.36145 67.2193,-25.89824 86.6101,-44.01948 12.8737,-12.0308 34.0758,-37.58053 36.0161,-43.40151 0.5403,-1.62066 2.3995,-1.49969 5.9216,0.38527 5.06,2.70805 5.1115,2.62534 3.5716,-5.73556 -2.1936,-11.91034 -9.1573,-26.9951 -13.1732,-28.53617 -1.8598,-0.71368 -8.594,0.7394 -14.9649,3.22907 -107.0051,41.81613 -114.876,45.29649 -125.122,55.32629 -11.4655,11.22361 -23.3539,36.92184 -25.5126,55.14872 l -1.2871,10.86772 18.4598,-0.14481 c 10.1528,-0.0797 23.4191,-1.48344 29.4806,-3.11954 z"
             id="path448" />
        </g>
        <path
           style="display:inline;opacity:1;fill:#000000;fill-opacity:0.992157;stroke-width:1.37953;stroke-linecap:round;stroke-linejoin:round;filter:url(#filter1054)"
           id="path440"
           d="m 1214.5631,891.91407 c -6.9696,10.8302 -14.9543,20.96976 -23.0365,30.98133 -7.5871,8.55059 -15.0006,17.59097 -24.148,24.5741 -1.5125,1.15467 -3.1395,2.15107 -4.7093,3.2266 -7.9458,5.67084 -17.073,9.03231 -26.1511,12.36592 -10.8194,3.29734 -21.3952,7.29176 -32.033,11.11727 -11.815,3.98794 -23.7705,7.60731 -35.8626,10.65468 -12.9231,3.56383 -26.1827,5.37269 -39.4397,7.11372 -7.0389,0.85007 -14.0936,1.60768 -21.1611,2.17921 -0.954,0.0116 -1.9081,0.0231 -2.8621,0.0347 0,0 8.7155,6.2925 8.7155,6.2925 v 0 c 0.9405,-0.045 1.8811,-0.09 2.8216,-0.1351 6.9856,-0.61242 13.9704,-1.3008 20.8924,-2.44458 13.1403,-2.04374 26.2966,-4.0685 39.186,-7.41652 12.1725,-3.00649 24.2258,-6.51984 36.0735,-10.63113 10.6952,-3.81672 21.346,-7.76205 32.2447,-10.9749 9.1864,-3.21945 18.1795,-6.96448 26.1314,-12.69973 1.5811,-1.10916 3.2216,-2.13806 4.7431,-3.3275 9.0859,-7.10252 16.2095,-16.40858 23.7312,-25.03749 8.1948,-10.06586 16.3824,-20.13826 24.3989,-30.34669 z" />
        <path
           style="display:inline;opacity:1;fill:#000000;fill-opacity:0.992157;stroke-width:1.37953;stroke-linecap:round;stroke-linejoin:round;filter:url(#filter1052)"
           id="path441"
           d="m 1204.337,836.98463 c -7.8257,9.75724 -16.805,18.57222 -25.8635,27.17949 -11.1087,11.08618 -23.1054,21.19267 -35.5862,30.6857 -14.1949,10.45312 -29.7177,18.85933 -45.7302,26.14499 -10.3155,4.53731 -20.9768,8.17881 -31.8114,11.23898 -7.3964,2.01716 -14.9396,3.40089 -22.5374,4.38164 -5.6949,0.47353 -11.3722,1.13607 -17.0704,1.57564 -3.4922,0.24988 -6.993,0.32307 -10.4928,0.35291 0,0 8.8679,6.42161 8.8679,6.42161 v 0 c 3.4858,-0.0805 6.973,-0.16729 10.4478,-0.47681 5.6417,-0.51482 11.2705,-1.17194 16.9045,-1.75961 7.5718,-1.06862 15.1204,-2.4236 22.4534,-4.63114 10.6982,-3.22217 21.2416,-6.92177 31.3451,-11.73597 15.929,-7.55845 31.3473,-16.16228 45.7402,-26.38438 12.561,-9.4928 24.6334,-19.61089 35.914,-30.60917 9.1526,-8.69964 17.8476,-17.86366 26.813,-26.75528 z" />
        <path
           style="display:inline;opacity:1;fill:#000000;fill-opacity:0.992157;stroke-width:1.37953;stroke-linecap:round;stroke-linejoin:round;filter:url(#filter1050)"
           id="path442"
           d="m 1187.2822,792.31646 c -6.4794,7.40324 -14.7005,13.02144 -22.7289,18.5889 -11.873,7.94409 -23.9293,15.58434 -36.2082,22.88295 -9.0735,5.44696 -18.6961,9.83674 -28.419,13.96968 -7.1254,2.6685 -14.2835,5.24564 -21.5346,7.55305 -7.4973,2.54277 -15.0071,5.02374 -22.6777,6.99267 -6.4683,1.58205 -13.0358,2.62718 -19.5389,4.03664 -4.9413,1.17711 -9.9985,1.55515 -15.0577,1.74385 -4.1503,0.13117 -8.303,0.0736 -12.4546,0.0911 -2.905,0.0117 -5.8098,-0.007 -8.71472,-0.0155 0,0 8.81992,6.41017 8.81992,6.41017 v 0 c 2.9057,6.7e-4 5.8114,-0.006 8.7171,0.017 4.1461,0.0289 8.292,-0.008 12.4356,-0.16856 5.0681,-0.27842 10.1374,-0.66227 15.0672,-1.96197 6.4434,-1.43501 12.9694,-2.47051 19.3417,-4.22423 7.6914,-2.05345 15.295,-4.40555 22.8388,-6.94823 7.2298,-2.29426 14.3215,-5.00461 21.3761,-7.7863 9.6432,-4.23291 19.2521,-8.58162 28.1177,-14.32745 12.2155,-7.37705 24.3534,-14.88574 36.0716,-23.0403 8.345,-5.61773 16.9219,-11.14193 24.1618,-18.1805 z" />
        <path
           style="display:inline;opacity:1;fill:#000000;fill-opacity:0.992157;stroke-width:1.37953;stroke-linecap:round;stroke-linejoin:round;filter:url(#filter1048)"
           id="path443"
           d="m 1004.6665,828.26883 c -0.3012,-4.39928 -0.339,-8.81756 -0.2147,-13.224 0.3926,-5.59148 1.4039,-11.12471 2.6435,-16.58479 1.274,-5.61161 3.626,-10.90765 5.9568,-16.14605 1.952,-4.69208 3.9852,-9.33972 6.3306,-13.84902 1.8952,-4.28069 4.4457,-8.14552 7.4184,-11.74257 2.9712,-3.28061 6.3096,-6.14596 9.96,-8.63283 3.0651,-1.96678 5.955,-4.20245 9.1409,-5.97394 2.9127,-1.61423 5.9912,-2.94776 9.1541,-3.98664 4.7244,-1.6409 9.4736,-3.24809 14.1153,-5.1135 6.2992,-2.25658 12.4343,-4.93023 18.5535,-7.62824 7.0704,-3.10904 14.1779,-6.12757 21.3298,-9.04481 6.5852,-2.76623 13.2013,-5.47267 19.9637,-7.77711 5.3066,-1.97099 10.7538,-3.52061 16.1428,-5.23862 5.18,-1.6312 9.8684,-4.43388 14.82,-6.61478 3.1582,-1.46385 6.3773,-2.78294 9.835,-3.28289 1.4654,-1.8e-4 3.032,-0.41399 4.4974,-0.19287 0.753,0.11362 1.8344,0.6064 2.5133,0.88291 -14.7254,-8.56632 -8.1301,-4.95363 -5.2941,-2.25951 1.095,1.04014 2.0484,2.22764 3.0334,3.36854 2.605,2.79076 4.3156,6.12535 5.7568,9.61898 1.7063,3.82552 3.1459,7.74308 4.2105,11.79217 1.3337,5.96856 2.5657,11.95962 3.8803,17.93231 1.0202,5.14466 2.0407,10.29076 3.2553,15.39336 1.208,4.96952 2.1212,10.00194 3.1642,15.00663 0.7579,3.59483 1.5731,7.17476 2.1984,10.79603 0.4787,3.76618 1.5275,7.39952 2.5738,11.03556 0.5207,2.16844 0.2601,1.1042 0.7806,3.19293 0,0 9.8129,4.6837 9.8129,4.6837 v 0 c -0.588,-2.09151 -0.3077,-1.01564 -0.8347,-3.22919 -0.9505,-3.63697 -2.2739,-7.18139 -2.6696,-10.95006 -0.5354,-3.67417 -1.3202,-7.28036 -2.2247,-10.88054 -1.1751,-5.01206 -2.1545,-10.06709 -3.2926,-15.0876 -1.2189,-5.09542 -2.2314,-10.23727 -3.247,-15.37621 -1.3904,-5.95806 -2.8741,-11.90272 -3.9041,-17.93618 -0.1568,-0.88657 -0.2688,-1.78227 -0.4705,-2.65973 -0.7324,-3.18624 -2.3083,-6.14689 -3.4422,-9.19253 -1.4203,-3.53315 -2.9844,-7.0133 -5.5362,-9.89835 -5.3531,-6.38444 -7.1949,-7.41087 -16.3579,-12.06348 -2.5707,-0.78632 -4.7513,-0.72787 -7.3813,-0.26701 -3.4142,0.68794 -6.5185,2.23673 -9.6371,3.74796 -4.8834,2.2759 -9.6405,4.88698 -14.8155,6.4657 -5.3482,1.67654 -10.651,3.48522 -15.907,5.43352 -6.731,2.37288 -13.3491,5.00152 -19.8729,7.90078 -7.1858,2.88321 -14.2986,5.93528 -21.3965,9.02765 -6.192,2.60546 -12.3892,5.19672 -18.7097,7.47961 -4.7422,1.78622 -9.5687,3.32506 -14.3962,4.86346 -3.2272,1.10668 -6.3603,2.48722 -9.3523,4.12997 -3.0859,1.94291 -6.0064,4.13777 -9.0692,6.11764 -3.6463,2.62079 -6.9799,5.58871 -9.9569,8.96359 -3.1192,3.66217 -5.6714,7.48405 -7.5665,11.93001 -2.3168,4.55414 -4.4505,9.18994 -6.227,13.98575 -2.269,5.32506 -4.8396,10.6049 -6.17987,16.25655 -1.18507,5.54592 -2.04222,11.15499 -2.66553,16.79179 -0.16911,4.31599 -0.071,8.64128 -0.4008,12.95022 z" />
        <path
           style="display:inline;opacity:1;fill:#000000;fill-opacity:0.992157;stroke-width:1.37953;stroke-linecap:round;stroke-linejoin:round;filter:url(#filter1046)"
           id="path444"
           d="m 1177.3805,729.60514 c -4.1917,7.83884 -9.7383,14.8263 -15.1922,21.80683 -7.9514,10.65688 -17.1704,20.22207 -27.1875,28.93313 -9.2193,7.91006 -19.9141,13.5398 -30.6718,19.0027 -12.2157,6.60942 -25.3835,11.11376 -38.568,15.33502 -7.5858,3.06059 -15.5189,4.85054 -23.5618,6.16662 -5.3779,0.83993 -10.8184,1.01673 -16.2497,1.12595 -4.9393,0.067 -9.8789,0.025 -14.8183,-0.004 -3.4973,-0.0472 -6.9946,-0.0476 -10.4921,-0.055 0,0 8.8998,6.46703 8.8998,6.46703 v 0 c 3.4626,-0.002 6.9252,0.008 10.3878,-0.0182 4.9332,-0.003 9.8668,0.008 14.7998,-0.0402 5.4142,-0.10963 10.8287,-0.46837 16.174,-1.3763 7.9667,-1.42028 15.806,-3.33201 23.2591,-6.56986 13.0721,-4.58468 26.2258,-9.20204 38.5871,-15.49775 10.847,-5.45158 21.5453,-11.20302 30.7301,-19.27148 9.8895,-8.92478 19.3254,-18.40458 27.4675,-28.97632 5.5134,-7.01059 10.9757,-14.0587 16.0493,-21.39537 z" />
      </g>
    </g>
    <g
       id="g451"
       inkscape:label="neck"
       style="display:inline;fill:#000000;filter:url(#filter2425)">
      <path
         id="path450"
         style="display:inline;opacity:1;fill:#000000;fill-opacity:1;stroke-width:1.37953;stroke-linecap:round;stroke-linejoin:round"
         d="m 1151.9106,554.80592 c -0.034,1.40695 -0.025,2.81555 -0.1036,4.22071 -0.4344,7.75257 -1.2933,15.48072 -1.7675,23.23242 -0.5219,8.53192 -0.6367,12.68223 -0.9766,21.33984 0.1046,17.42523 1.7021,34.79211 3.2422,52.13477 l 0.057,0.0273 c 0.3204,3.17418 0.6866,6.34415 1.0039,9.51953 2.1982,15.69389 5.2248,31.32811 8.9942,46.72461 2.2099,9.05201 5.2212,17.87501 7.6406,26.86914 l 9.9727,4.45313 c -2.5371,-9.04671 -5.708,-17.90147 -8.0254,-27.01172 -3.8425,-15.28394 -6.8876,-30.83256 -8.8242,-46.47266 -0.6262,-6.95037 -1.4972,-13.89112 -1.377,-20.88086 l -2.0547,-0.97851 c -1.4047,-13.26748 -2.4154,-26.5821 -1.9902,-39.93555 0.7868,-16.07338 1.8995,-32.11695 4.0527,-48.07227 z" />
      <path
         id="path451"
         style="display:inline;opacity:1;fill:#000000;fill-opacity:1;stroke-width:1.37953;stroke-linecap:round;stroke-linejoin:round"
         d="m 1171.1641,559.75684 c -0.034,1.448 -0.025,2.8977 -0.1036,4.34387 -0.4344,7.97878 -1.2933,15.93244 -1.7675,23.91033 -0.5219,8.78088 -0.6367,13.0523 -0.9766,21.96253 0.1046,17.93369 1.7021,35.80733 3.2422,53.65605 l 0.057,0.0281 c 0.3204,3.2668 0.6866,6.52927 1.0039,9.7973 2.1982,16.15184 5.2248,32.24226 8.9942,48.08802 2.2099,9.31615 5.2212,18.3966 7.6406,27.65318 l 9.9727,4.58307 c -2.5371,-9.31069 -5.708,-18.42383 -8.0254,-27.79992 -3.8425,-15.72992 -6.8876,-31.73224 -8.8242,-47.82872 -0.6262,-7.15318 -1.4972,-14.29645 -1.377,-21.49015 l -2.0547,-1.00707 c -1.4047,-13.65462 -2.4154,-27.35775 -1.9902,-41.10085 0.7868,-16.5424 1.8995,-33.05412 4.0527,-49.47501 z" />
    </g>
    <g
       inkscape:groupmode="layer"
       id="g487"
       inkscape:label="body color"
       style="display:inline;stroke-width:1.04459;filter:url(#filter1113)"
       transform="matrix(0.91644943,0,0,1,105.47541,0)">
      <g
         id="g461"
         inkscape:label="plants behind"
         style="stroke-width:1.04459">
        <path
           style="opacity:1;fill:#77770d;fill-opacity:1;stroke-width:1.44104;stroke-linecap:round;stroke-linejoin:round"
           id="path452"
           d="m 1190.8947,1132.8951 c 5.0503,0.1548 7.0163,0.01 10.6843,-3.8016 3.0803,-3.9211 6.2904,-8.9647 5.497,-14.1523 -2.4784,-4.6393 -9.9271,-6.3623 -13.916,-7.4202 -1.5726,-0.4171 -5.6045,4.1701 -6.4916,5.1931 -3.6112,4.4611 -4.5588,10.0813 -6.1544,15.423 -1.1763,3.1641 -0.4089,1.7077 -2.2639,4.3891 0,0 9.4567,5.5547 9.4567,5.5547 v 0 c 1.9813,-2.9435 1.1791,-1.3789 2.4107,-4.6916 1.5712,-5.1857 2.3686,-10.6982 5.9171,-15.0208 1.3385,-1.5142 2.0242,-2.541 3.8203,-3.566 0.7059,-0.4029 2.7902,-0.2581 2.2722,-0.8843 -1.9558,-2.3645 -5.0566,-3.4855 -7.4622,-5.3904 -0.4103,-0.3249 1.0066,0.331 1.4412,0.6225 0.3831,0.2568 0.6436,0.6607 0.9654,0.9911 0.1706,0.4795 0.4648,0.9316 0.5119,1.4384 0.3781,4.0631 -2.9621,8.8377 -5.3794,11.7722 -3.5287,3.4236 -5.7487,3.1512 -10.3942,2.9425 z" />
        <path
           style="opacity:1;fill:#77770d;fill-opacity:1;stroke-width:1.44104;stroke-linecap:round;stroke-linejoin:round"
           id="path453"
           d="m 1201.6236,1095.5184 c 0.8199,-4.524 0.9723,-9.1185 1.0913,-13.7026 -0.061,-7.1471 -0.8917,-12.0178 -6.7479,-16.4797 -3.8083,-1.6867 -7.3528,-4.1852 -11.425,-5.0601 -0.9174,-0.1971 -1.366,1.3645 -1.7068,2.2388 -1.9187,4.9228 -1.1161,13.7069 -0.6012,18.9234 0.2625,1.426 0.525,2.8521 0.7876,4.2781 0,0 9.6296,4.6753 9.6296,4.6753 v 0 c -0.2894,-1.4059 -0.5788,-2.8117 -0.8683,-4.2176 -0.5745,-4.8255 -0.9469,-9.4932 -0.2911,-14.345 0.1674,-1.2386 0.3051,-2.51 0.7726,-3.6691 0.243,-0.6026 1.7428,-0.9866 1.2947,-1.4571 -2.1818,-2.2915 -5.2091,-3.593 -7.8136,-5.3895 6.2233,3.9398 7.2856,8.3382 7.2997,15.5347 -0.1846,4.4795 -0.3461,8.9928 -1.2982,13.3899 z" />
        <path
           style="opacity:1;fill:#77770d;fill-opacity:1;stroke-width:1.44104;stroke-linecap:round;stroke-linejoin:round"
           id="path454"
           d="m 1211.1997,1163.7141 c 5.8809,-1.3171 9.17,-3.7877 13.0508,-8.3586 1.7822,-3.9647 3.4869,-8.6927 1.63,-12.9825 -0.3351,-0.774 -0.6805,-1.6442 -1.3733,-2.1251 -3.7703,-2.6172 -7.888,-4.6943 -11.832,-7.0414 -1.0154,-0.2349 -2.0045,-0.6684 -3.0461,-0.7047 -3.8105,-0.1326 -7.5846,2.8582 -9.0279,6.2729 -0.3525,0.8342 -0.3923,1.7683 -0.5885,2.6524 -0.1364,2.8674 0.8844,5.4556 1.8378,8.091 0,0 9.927,4.6161 9.927,4.6161 v 0 c -0.9568,-2.4475 -2.0418,-4.8597 -2.0873,-7.5416 0.1216,-0.7636 0.08,-1.572 0.3647,-2.2909 0.3111,-0.7851 0.8465,-1.4707 1.3838,-2.1222 2.6091,-3.1642 6.0297,-3.7206 9.7218,-2.1155 -2.2451,-1.3882 -4.333,-3.0705 -6.7352,-4.1647 -0.7223,-0.3291 1.1545,1.1184 1.5537,1.8045 0.4328,0.7436 0.7433,1.5726 0.9035,2.418 0.6392,3.3734 -0.5079,6.6389 -1.9507,9.6232 -3.7143,4.3174 -7.3039,6.6869 -12.9732,7.5949 z" />
        <path
           style="opacity:1;fill:#77770d;fill-opacity:1;stroke-width:1.44104;stroke-linecap:round;stroke-linejoin:round"
           id="path455"
           d="m 1170.3715,1149.8781 c -0.4712,-5.7635 -3.3619,-10.8298 -7.1329,-15.0671 -4.3381,-3.709 -10.1464,-7.2723 -15.1639,-9.105 -1.8407,-0.6724 -2.969,4.2166 -2.9967,4.386 -0.2216,1.3543 -0.068,2.7438 -0.1017,4.1157 0.5684,7.6187 2.6714,14.9036 7.6793,20.7565 5.1061,4.3465 1.1024,1.131 13.1781,7.9788 0,0 -8.6037,-6.8751 -8.6037,-6.8751 v 0 c 8.083,4.9018 9.7607,6.1858 5.5126,3.1269 -5.4623,-5.5825 -7.4915,-12.3944 -8.1882,-20.0777 0.037,-1.5724 -0.272,-4.4806 0.8723,-6.0254 0.2804,-0.3786 1.6717,-0.2402 1.3069,-0.5383 -2.2895,-1.871 -5.0787,-3.03 -7.5877,-4.5943 -0.6432,-0.401 1.3548,0.6868 1.9881,1.1031 0.709,0.4662 1.3525,1.0253 2.0287,1.5379 3.8126,3.8494 6.8879,8.6351 7.2275,14.1923 z" />
        <path
           style="opacity:1;fill:#77770d;fill-opacity:1;stroke-width:1.44104;stroke-linecap:round;stroke-linejoin:round"
           id="path456"
           d="m 1130.0515,1137.5281 c 1.5019,-6.0822 1.9718,-12.3564 2.1525,-18.5995 -0.3973,-8.9745 -4.0766,-9.5723 -13.4641,-14.1778 -0.6029,-0.2958 -1.4241,-0.1458 -2.0057,0.19 -0.7786,0.4497 -1.2005,1.3389 -1.8007,2.0084 -2.9393,7.792 -4.0863,16.4986 -3.2582,24.7897 0,0 9.6836,4.7892 9.6836,4.7892 v 0 c -1.1174,-7.9364 -0.091,-16.4243 2.9668,-23.8393 0.4532,-0.4102 0.7803,-1.0359 1.3598,-1.2307 0.5191,-0.1746 2.0679,0.5518 1.6273,0.2265 -19.4405,-14.3509 -6.6922,-4.2223 -5.9091,-2.9853 1.0412,1.6448 0.9838,3.4556 1.1838,5.3072 -0.047,6.1353 -0.56,12.3589 -2.4126,18.2412 z" />
        <path
           style="opacity:1;fill:#77770d;fill-opacity:1;stroke-width:1.44104;stroke-linecap:round;stroke-linejoin:round"
           id="path457"
           d="m 1111.8606,1148.0774 c -4.5339,0.1471 -9.0668,-0.084 -13.5881,0.3024 -6.2043,1.2536 -12.3571,2.3015 -18.6949,1.8005 -0.8707,-0.2012 -1.7627,-0.3256 -2.612,-0.6036 -0.7028,-0.23 -2.6666,-1.2748 -2.0217,-0.913 2.6142,1.4665 5.1232,3.192 7.9351,4.2304 0.5228,0.193 -0.5901,-0.9863 -0.6505,-1.5404 -0.1421,-1.3039 0.6878,-2.4621 1.2366,-3.523 4.9604,-5.4597 9.5447,-4.7147 15.8315,-2.1048 1.1293,0.5893 4.4741,2.433 3.3878,1.7678 -14.5323,-8.899 1.6328,1.6103 4.4398,3.3403 0,0 10.2062,3.9392 10.2062,3.9392 v 0 c -8.849,-5.2057 -16.9806,-11.7101 -26.533,-15.7101 -1.1735,-0.4128 -2.3102,-0.9506 -3.5205,-1.2383 -5.0869,-1.2089 -10.1141,0.4976 -13.3733,4.5331 -0.6059,1.125 -2.9775,5.0877 -1.2785,6.4137 5.4505,4.2539 9.5265,6.9495 15.7133,7.8547 6.3706,0.2656 12.5672,-0.7884 18.8248,-1.8786 4.5901,-0.2304 9.1881,-0.155 13.7823,-0.07 z" />
        <path
           style="opacity:1;fill:#77770d;fill-opacity:1;stroke-width:1.44104;stroke-linecap:round;stroke-linejoin:round"
           id="path458"
           d="m 1067.1506,1165.3364 c -4.4239,-3.3958 -9.5685,-5.9876 -14.4789,-8.4509 -0.9276,-0.4654 -3.3472,-0.8126 -4.3979,-0.44 -0.7136,0.253 -1.2389,0.8707 -1.8584,1.306 -0.5239,0.7353 -1.1083,1.431 -1.5717,2.2059 -0.4831,0.8076 -0.8395,1.6846 -1.2592,2.5269 -0.5425,1.0387 -1.0253,2.1108 -1.6276,3.1161 -1.7827,2.9757 -3.9804,5.3787 -6.4736,7.7512 -0.9657,0.7194 -2.4121,2.2146 -3.9026,2.0367 -0.5008,-0.06 -1.7264,-1.0374 -1.2711,-0.8206 2.8189,1.3428 5.351,3.4115 8.3715,4.2028 0.7849,0.2057 -0.6893,-1.4752 -0.9247,-2.2518 -0.2733,-0.9014 -0.3969,-1.8416 -0.5953,-2.7625 -1.0765,-5.4524 0.2294,-8.3924 4.4609,-11.6769 1.5697,-1.1527 3.3982,-1.6083 5.2447,-2.0856 0,0 -9.1125,-6.2469 -9.1125,-6.2469 v 0 c -1.9433,0.587 -3.8628,1.1692 -5.4868,2.4542 -4.3734,3.5721 -5.9775,7.0367 -4.9275,12.7846 0.038,0.2235 0.7952,5.1259 1.1542,5.4304 3.2222,2.7335 6.9367,4.8428 10.5831,6.9778 0.4803,0.2812 1.1107,0.2866 1.6587,0.1898 1.6103,-0.2845 2.8374,-1.582 4.022,-2.5341 2.4954,-2.5048 4.6993,-5.0499 6.5843,-8.0623 1.0923,-1.7457 1.8439,-3.69 2.9386,-5.4343 0.4088,-0.6514 0.9478,-1.2116 1.4217,-1.8174 1.6482,-0.8754 1.4119,-1.0831 3.42,-0.6913 0.7426,0.1449 2.7762,1.1311 2.1631,0.6877 -13.1919,-9.5399 -7.7082,-4.4449 -4.5443,-2.5351 z" />
        <path
           style="opacity:1;fill:#77770d;fill-opacity:1;stroke-width:1.44104;stroke-linecap:round;stroke-linejoin:round"
           id="path459"
           d="m 1065.2784,1146.9007 c 3.0836,-6.4114 4.907,-13.2943 5.9866,-20.2981 0.5487,-5.107 1.2406,-10.275 0.9179,-15.4199 -0.2889,-0.5434 -0.4788,-1.1525 -0.8667,-1.6303 -0.3868,-0.4762 -0.8829,-0.8709 -1.4139,-1.178 -4.1444,-2.3974 -8.3642,-7.2666 -13.0063,-6.0945 -1.3533,0.3418 -1.8609,1.0936 -2.7907,2.0168 -2.8442,5.1392 -1.8167,10.8931 -0.1115,16.2159 3.279,7.0495 6.8736,13.9233 9.395,21.2924 0,0 9.8192,4.6011 9.8192,4.6011 v 0 c -2.528,-7.3545 -6.0338,-14.2689 -9.3792,-21.278 -1.7089,-4.8346 -2.8998,-10.2491 -0.2665,-14.9949 0.8107,-0.7077 1.1122,-1.2113 2.2752,-1.2815 0.5133,-0.031 1.9426,0.5271 1.526,0.2257 -2.4601,-1.7791 -5.2062,-3.1258 -7.7745,-4.7448 -0.4935,-0.3111 1.072,0.4795 1.5465,0.8189 0.4264,0.3049 0.7527,0.7298 1.129,1.0948 0.6484,5.0641 -0.1723,10.2451 -0.5636,15.2995 -1.0212,6.784 -2.5481,13.6008 -5.961,19.628 z" />
        <path
           style="opacity:1;fill:#77770d;fill-opacity:1;stroke-width:1.44104;stroke-linecap:round;stroke-linejoin:round"
           id="path460"
           d="m 1054.3752,1144.6702 c -4.4747,-1.1788 -7.8765,-0.3663 -12.2836,0.4816 -0.7027,0.062 -1.4028,0.1871 -2.1082,0.1855 -0.5502,0 -1.1133,-0.033 -1.6391,-0.1945 -0.3679,-0.1134 -1.3161,-0.7986 -0.9792,-0.6123 19.4976,10.7838 6.8405,7.4807 9.41,4.2784 3.4844,-2.2295 7.9408,-0.9647 11.7318,-0.3799 0,0 -8.7664,-6.5716 -8.7664,-6.5716 v 0 c -4.1377,-0.6083 -9.0758,-1.6653 -12.6025,1.2377 -4.359,6.1081 8.9893,9.5786 13.9485,8.3321 4.1211,-0.8065 8.1179,-1.243 12.2066,0.062 z" />
        <path
           style="opacity:1;fill:#77770d;fill-opacity:1;stroke-width:1.44104;stroke-linecap:round;stroke-linejoin:round"
           id="path461"
           d="m 1183.1151,1150.0102 c 4.2433,-0.2817 8.5432,-0.6612 12.6126,-1.9513 1.6358,-0.314 3.2995,-1.6599 5.0399,-1.5105 0.3662,0.031 1.3285,0.6274 1.0073,0.4486 -9.1987,-5.1209 -10.9156,-7.3382 -8.3093,-4.1971 0.4621,3.398 -2.5986,4.8928 -5.2943,5.8009 -4.5826,1.243 -7.1007,1.2818 -11.2462,-1.1171 8.369,4.6522 10.0962,6.1487 6.1445,3.0418 0,0 -10.2352,-4.1234 -10.2352,-4.1234 v 0 c 4.8572,4.1725 0.9858,1.0038 12.7039,7.9917 4.1681,1.9227 7.4416,1.7807 11.7892,0.3839 3.67,-1.4228 5.9781,-3.1929 6.3467,-7.3575 -3.0301,-9.7537 -11.1326,-7.8036 -17.0485,-5.5727 -4.07,1.1796 -8.3666,1.5581 -12.5955,1.5621 z" />
      </g>
      <g
         id="g476"
         inkscape:label="branches"
         style="stroke-width:1.04459">
        <path
           style="display:inline;opacity:1;fill:#003f00;fill-opacity:1;stroke-width:1.44104;stroke-linecap:round;stroke-linejoin:round;filter:url(#filter1114)"
           id="path462"
           d="m 1153.567,810.61285 c 0.4796,8.81552 0.6109,17.6416 -0.1345,26.44223 -0.888,6.06889 -1.5177,9.28192 -7.1056,12.22952 -2.8732,1.29525 -4.7104,1.07798 -7.496,-0.37301 -0.769,-0.40053 -3.0159,-1.704 -2.2277,-1.34287 2.1334,0.97742 4.1818,2.13072 6.2726,3.19608 -8.0642,-7.04707 -16.9753,-11.96223 -26.2647,-17.22606 -4.1879,-1.70638 -8.6244,-1.88904 -13.0481,-1.27879 -0.7,0.22979 -1.4453,0.35139 -2.1,0.68937 -5.3454,2.7598 -6.9575,10.02072 -8.6987,15.17593 -1.7869,6.46228 -4.1655,12.74835 -8.1332,18.18674 -2.0318,1.91905 -4.9683,6.74485 -8.31,5.83284 -0.606,-0.16539 -1.1236,-0.56207 -1.6854,-0.84311 2.5236,1.3674 4.9053,3.03768 7.5709,4.10221 0.8222,0.32834 -1.3085,-1.19559 -1.9128,-1.84256 -2.9083,-3.11368 -5.4146,-6.6519 -8.1409,-9.92476 -2.8029,-3.45283 -6.1553,-6.56248 -10.0324,-8.78941 -11.6802,-6.70876 -7.6211,-5.32148 -14.2469,-7.26308 -0.8103,0.0758 -1.6573,-0.0254 -2.4309,0.22728 -4.7697,1.55827 -8.5352,9.80175 -10.8106,13.92731 -2.5597,5.51488 -6.6738,9.63512 -11.4803,13.20411 -3.3732,2.27281 -7.141,3.1454 -11.1583,2.78021 -2.698,-0.63138 -1.3811,-0.23585 -3.9524,-1.18107 0,0 8.6186,6.69334 8.6186,6.69334 v 0 c 2.6785,0.79432 1.3064,0.47659 4.1186,0.94293 4.1627,0.0811 8.175,-0.88405 11.542,-3.45062 4.7907,-3.79641 8.9103,-8.07412 11.4587,-13.73755 2.1157,-3.9238 5.597,-11.82379 10.4762,-12.82881 0.708,-0.14584 1.4454,0.0309 2.1681,0.0464 4.7362,1.63395 3.1658,1.27953 -4.2838,-3.24472 -0.872,-0.5296 1.7574,1.03948 2.6023,1.61142 2.8598,1.93596 5.5385,4.13416 7.631,6.90663 2.0858,2.50493 4.1068,5.04865 6.1242,7.60849 0.2036,0.25831 3.1618,4.04645 3.5824,4.32736 3.599,2.40356 7.4482,4.40957 11.1723,6.61435 0.6668,0.16406 1.3142,0.46642 2.0004,0.49219 3.8369,0.1441 6.2835,-4.47273 8.6634,-6.73013 3.9267,-5.60104 6.2488,-12.04278 7.9775,-18.6337 1.6546,-4.8465 3.3249,-11.75057 8.5708,-14.06681 0.6249,-0.27589 1.317,-0.36328 1.9754,-0.54493 4.3227,-0.44199 8.6439,-0.088 12.6296,1.78051 -2.3769,-1.40974 -4.7564,-2.81523 -7.1308,-4.22921 -0.838,-0.49904 1.6952,0.96632 2.5216,1.48437 4.4079,2.7632 8.5914,5.91588 12.5695,9.26037 3.9894,2.50251 7.9489,5.0535 11.9683,7.50753 3.5911,2.19251 6.6651,2.8867 10.4912,0.89238 5.73,-3.47505 6.5425,-6.85127 7.2074,-13.38446 0.5207,-8.73102 0.2402,-17.47749 0.7551,-26.21021 z" />
        <path
           style="opacity:1;fill:#003f00;fill-opacity:1;stroke-width:1.44104;stroke-linecap:round;stroke-linejoin:round"
           id="path463"
           d="m 1155.7431,767.42953 c 0.1715,4.63535 0.3608,9.25931 -0.3714,13.8512 -1.0397,4.51678 -2.06,9.02158 -2.467,13.6448 -0.3266,5.99535 -0.2434,12.00137 -0.2729,18.00279 0.101,4.47726 -0.7266,8.79444 -1.8191,13.10461 0,0 9.5865,5.17162 9.5865,5.17162 v 0 c 0.998,-4.42823 1.8525,-8.85902 1.7419,-13.42876 -0.01,-5.94209 0.011,-11.89271 0.4094,-17.82367 0.4405,-4.59886 1.275,-9.12373 2.3438,-13.61892 0.8013,-4.58578 0.6328,-9.20234 0.7815,-13.8427 z" />
        <path
           style="opacity:1;fill:#003f00;fill-opacity:1;stroke-width:1.44104;stroke-linecap:round;stroke-linejoin:round;filter:url(#filter1115)"
           id="path464"
           d="m 1165.6206,862.87122 c 0.1536,4.41231 0.2647,8.82534 0,13.23272 -0.6856,8.06562 -2.3794,15.94209 -5.5194,23.40246 -1.9134,3.70024 -3.9535,7.94738 -7.8873,9.89983 -0.6132,0.30434 -1.2808,0.4839 -1.9212,0.72585 -0.7282,0.10744 -1.4488,0.30055 -2.1845,0.32233 -4.4294,0.13114 -9.8011,-1.89483 -14.1073,-2.98776 -4.876,-1.18128 -9.753,-2.45556 -14.7008,-3.30461 -4.5852,-0.73079 -8.3935,-1.01788 -12.8719,0.40511 -0.6145,0.29479 -1.2699,0.51621 -1.8435,0.88436 -3.4121,2.19008 -6.0873,6.65369 -8.3312,9.9274 -3.1853,5.58253 -7.2562,10.5553 -11.4582,15.38822 -4.1052,4.83851 -9.1884,8.65805 -14.7365,11.68197 -1.9525,0.78347 -2.9007,1.38077 -5.0531,1.39696 -3.8963,0.0293 -8.1255,-2.7826 -11.3769,-4.63705 2.0623,1.13348 4.0572,2.39956 6.1871,3.40042 0.9318,0.43788 -1.6885,-1.18247 -2.5764,-1.70369 -6.8217,-4.00445 -11.7546,-7.98179 -19.3192,-8.77729 -3.6667,-0.24427 -7.0356,1.26674 -10.3037,2.73664 -3.55,1.78158 -6.6953,4.26542 -9.9083,6.57994 -4.5896,3.02697 -8.8653,6.46288 -12.8043,10.29516 -8.23348,7.98023 -13.77725,18.08616 -19.55664,27.85847 -6.4604,11.03073 -12.75482,22.15744 -19.12272,33.24204 -0.58988,0.9918 -1.17976,1.9836 -1.76964,2.9753 0,0 9.20158,5.3026 9.20158,5.3026 v 0 c 0.54994,-1.0201 1.09988,-2.0402 1.64982,-3.0603 5.93416,-11.3105 11.76971,-22.68549 18.26465,-33.68784 5.98198,-9.61407 12.16545,-19.17712 20.42815,-27.02938 3.983,-3.74969 8.2996,-7.10262 12.9154,-10.04388 3.1781,-2.25676 6.2708,-4.71555 9.8262,-6.35943 3.166,-1.33437 6.383,-2.69006 9.8985,-2.30159 2.1234,0.32985 2.3908,0.26518 4.5067,1.07213 0.89,0.33942 3.3914,1.70816 2.61,1.16339 -2.0608,-1.43685 -4.2746,-2.64502 -6.4748,-3.85787 -0.9213,-0.50789 1.7554,1.16006 2.6331,1.74009 3.9918,2.37461 7.9836,4.74922 11.9754,7.12383 6.1361,3.3392 10.4027,5.88215 17.1807,2.4343 5.5204,-3.24236 10.7101,-7.10725 14.858,-12.02594 4.3054,-4.80449 8.1872,-9.97208 11.5688,-15.47153 2.6679,-3.85051 5.4422,-8.22767 9.923,-10.09347 4.1629,-1.07915 8.363,-0.77807 12.5714,-0.003 4.8774,0.93303 9.7269,2.03771 14.5361,3.27299 5.4637,1.38442 11.1614,3.61095 16.8212,2.19603 0.683,-0.30146 1.3994,-0.53638 2.0489,-0.90438 3.9664,-2.24714 6.0362,-6.6961 7.9476,-10.60213 3.0531,-7.58081 4.706,-15.56792 5.7274,-23.66565 0.4322,-4.34805 0.3934,-8.69412 0.5277,-13.05817 z" />
        <path
           style="opacity:1;fill:#003f00;fill-opacity:1;stroke-width:1.44104;stroke-linecap:round;stroke-linejoin:round"
           id="path465"
           d="m 1208.6358,788.9852 c 0.66,7.28111 -0.6296,12.64981 -4.2344,18.98106 -0.741,0.96119 -1.4415,1.95505 -2.2231,2.88357 -1.3244,1.57332 -4.3004,4.55733 -5.5115,6.1648 -3.1571,4.19065 -5.187,8.8702 -7.1476,13.68848 -3.4723,12.0275 -9.0722,23.14161 -15.337,33.91025 -2.729,4.97748 -5.52,9.93412 -7.489,15.27444 -0.394,1.06852 -0.8935,2.11702 -1.085,3.23965 -0.2003,1.1748 -0.051,2.38295 -0.077,3.57443 0.2766,1.14245 0.3865,2.33871 0.8298,3.42737 2.5603,6.28758 9.8002,11.2773 14.9216,15.37978 5.9256,4.35734 10.6551,9.88328 15.3236,15.49272 4.7901,6.0225 9.4446,12.15659 14.216,18.19586 5.0542,6.09736 9.5926,12.66857 12.0559,20.23863 1.7419,7.47044 -1.9264,11.85681 -6.775,16.98918 -6.6009,5.51352 -12.7414,11.49426 -18.6595,17.72769 -5.8645,6.02849 -7.3805,13.92359 -8.4797,21.93879 -1.0692,8.1891 0.8767,12.0743 6.3369,17.9797 8.9728,8.7009 20.2555,14.54 31.322,20.1346 5.04,2.4901 10.1415,4.8927 15.1005,7.544 1.4923,0.7978 6.0593,2.8955 4.411,2.5128 -2.9455,-0.6839 -9.2498,-5.7142 -2.008,-0.2641 5.7059,4.5231 7.411,10.7719 7.8539,17.7394 0.043,6.2459 -2.2925,10.2356 -6.5352,14.5152 -2.7516,3.2689 -5.6871,6.521 -7.781,10.2761 -1.5438,2.7685 -2.4432,5.2959 -3.6222,8.2368 -3.6388,10.1004 -4.9984,20.6662 -5.7799,31.3076 -0.1926,10.088 -1.3261,20.2528 -0.4951,30.3303 0.7033,6.0056 4.3285,10.691 8.0267,15.2222 3.2792,3.8588 7.2565,7.0192 10.3747,11.0328 2.0894,2.6892 4.8555,7.1188 6.6849,9.9549 0,0 9.561,4.2045 9.561,4.2045 v 0 c -1.0887,-1.7145 -5.2376,-8.3157 -6.4869,-10.023 -2.4264,-3.3159 -5.3512,-5.9101 -8.19,-8.8232 -0.6466,-0.6635 -1.2427,-1.3744 -1.864,-2.0616 -3.6904,-4.3639 -7.4752,-8.8973 -8.446,-14.7025 -1.1403,-10.0401 -0.1209,-20.2387 0.1361,-30.3061 0.8209,-10.5103 2.1538,-20.9627 5.7866,-30.9323 1.1761,-2.8667 2.0598,-5.3144 3.6136,-7.9951 2.1255,-3.6673 5.1052,-6.7878 7.8279,-10.0012 4.2466,-4.3054 6.9433,-9.1346 6.8653,-15.3705 -0.3207,-7.1696 -1.7974,-13.8121 -7.5565,-18.6299 -10.8943,-8.376 -23.4161,-14.2634 -35.6696,-20.3341 -1.706,-0.8882 -3.2267,-3.0151 -5.1178,-2.6647 -1.7885,0.3313 3.0941,1.9223 4.7196,2.7384 1.2103,0.6077 -2.3321,-1.3786 -3.4709,-2.1114 -2.6998,-1.7374 -3.9958,-2.678 -6.4227,-4.7588 -0.9835,-0.8433 -1.9158,-1.7446 -2.8736,-2.6169 -5.3495,-5.4189 -7.6703,-9.2572 -6.7293,-17.1035 0.9134,-7.8392 2.3938,-15.4752 8.0365,-21.41251 5.8844,-6.29583 12.165,-12.13553 18.7858,-17.65206 5.039,-5.38479 8.9246,-10.15989 7.3437,-17.97936 -2.2497,-7.76782 -7.0357,-14.40439 -12.038,-20.66671 -4.7293,-6.03423 -9.3714,-12.14259 -14.0932,-18.17422 -4.7062,-5.67956 -9.3721,-11.37574 -15.3907,-15.75813 -4.8042,-3.81618 -12.3443,-9.04999 -15.0356,-14.68684 -0.4757,-0.99627 -0.6382,-2.11378 -0.9572,-3.17068 -0.026,-1.09091 -0.2308,-2.1924 -0.077,-3.27274 0.1579,-1.11017 0.6301,-2.15338 0.9995,-3.21212 1.8617,-5.3352 4.6504,-10.23931 7.2228,-15.249 6.0624,-10.91962 11.6775,-22.05782 15.3659,-34.04586 1.9638,-4.69038 4.0035,-9.22528 7.1365,-13.28521 1.4351,-1.85959 4.1023,-4.38263 5.6216,-6.18949 0.8121,-0.96577 1.5246,-2.011 2.287,-3.0165 3.6347,-6.41666 5.1152,-11.90702 4.8495,-19.29232 z" />
        <path
           style="opacity:1;fill:#003f00;fill-opacity:1;stroke-width:1.44104;stroke-linecap:round;stroke-linejoin:round"
           id="path466"
           d="m 1176.0147,1188.1899 c 1.9888,-12.3184 0.6813,-24.7945 0.6241,-37.1866 0.7986,-8.8063 6.1326,-14.9404 11.1259,-21.7061 3.9922,-5.4092 3.3828,-4.7414 6.668,-10.5601 3.4942,-9.1524 7.6387,-19.181 6.5962,-29.1624 -1.415,-3.7993 -0.4963,-2.0793 -2.6738,-5.203 0,0 -10.1616,-4.3617 -10.1616,-4.3617 v 0 c 2.3762,2.7705 1.3548,1.215 2.9921,4.7131 0.1858,1.1239 0.5482,2.2325 0.5573,3.3715 0.011,1.3418 -0.2977,2.6678 -0.4982,3.9946 -1.1081,7.3303 -3.0086,14.5443 -6.0845,21.3075 -3.2198,5.7294 -2.6323,5.0962 -6.5732,10.4336 -5.1292,6.9467 -10.5366,13.3115 -11.5055,22.3099 0.078,12.2735 1.6795,24.6901 -0.8208,36.8347 z" />
        <path
           style="opacity:1;fill:#003f00;fill-opacity:1;stroke-width:1.44104;stroke-linecap:round;stroke-linejoin:round"
           id="path467"
           d="m 1160.6086,1205.3394 c 2.5969,-8.094 3.1952,-16.6188 2.5199,-25.0363 -0.4556,-1.8944 -0.6752,-3.8617 -1.3667,-5.6833 -4.9972,-13.1634 -20.8027,-17.9321 -33.3132,-20.8124 -9.336,-2.022 -18.8826,-1.8821 -28.3636,-2.2838 -12.9247,-1.4958 -25.8629,-2.6456 -38.8595,-3.2564 -10.178,-2.4903 -5.1572,-0.987 -15.0611,-4.515 0,0 8.2977,6.4648 8.2977,6.4648 v 0 c 10.0358,3.4263 4.9275,1.9779 15.3274,4.3362 13.0332,0.6562 26.0034,1.8963 38.9717,3.3372 9.4178,0.4961 18.9162,0.3564 28.1844,2.3983 2.0273,0.496 4.0844,0.8831 6.082,1.4878 2.0772,0.6289 3.9703,2.4652 6.1252,2.2076 1.5135,-0.1809 -3.9629,-4 -3.8415,-2.4806 0.1446,1.8098 2.8111,2.338 3.9435,3.7571 3.1774,3.9821 3.0017,5.4126 4.2658,10.2483 0.1678,1.8972 0.4915,3.7871 0.5033,5.6917 0.039,6.239 -1.2917,12.6728 -3.1627,18.5888 z" />
        <path
           style="opacity:1;fill:#003f00;fill-opacity:1;stroke-width:1.44104;stroke-linecap:round;stroke-linejoin:round;filter:url(#filter2847)"
           id="path468"
           d="m 1119.5006,1204.7011 c 0.9062,-0.2163 1.9477,-0.1255 2.7185,-0.6488 7.9611,-5.4045 14.223,-20.8649 17.0349,-29.765 2.3612,-13.0957 -4.9972,-18.4312 -11.7287,-28.295 -4.2415,-7.2222 -4.0722,-10.9191 -1.6217,-18.5854 0,0 -9.4801,-5.2164 -9.4801,-5.2164 v 0 c -2.6767,7.9139 -3.0297,11.9164 1.2556,19.4969 1.0511,1.5957 2.0266,3.2438 3.1533,4.7871 5.5677,7.6258 10.9576,12.3339 9.0598,22.6893 -2.5375,8.6935 -8.385,23.9092 -16.7383,28.5647 -0.7932,0.4421 -1.7961,0.2694 -2.6941,0.4041 z" />
        <path
           style="display:inline;opacity:1;fill:#003f00;fill-opacity:1;stroke-width:1.44104;stroke-linecap:round;stroke-linejoin:round;filter:url(#filter2849)"
           id="path469"
           d="m 1113.9908,1207.0445 c 0.5388,-9.2797 -1.9998,-17.8206 -5.8774,-26.1311 -6.9335,-12.6452 -20.728,-18.8432 -33.817,-23.491 -1.3973,-0.5007 -5.2927,-2.4979 -4.1918,-1.5023 1.5486,1.4005 3.5488,3.1152 5.6106,2.7854 1.4667,-0.2345 -2.2062,-2.0109 -3.1172,-3.1841 -3.136,-4.039 -4.2658,-8.7974 -5.4724,-13.6392 -1.151,-4.7802 -1.8983,-9.635 -2.6006,-14.4956 0,0 -9.7427,-4.7895 -9.7427,-4.7895 v 0 c 0.7065,4.899 1.4855,9.7847 2.6077,14.6101 3.642,15.7591 8.4613,21.0239 25.4459,26.8841 1.5114,0.5565 3.0438,1.0588 4.5341,1.6693 1.6141,0.6613 4.2937,3.8209 4.7736,2.1439 0.4944,-1.7276 -3.372,-4.2043 -4.5678,-2.8629 -1.1841,1.3281 2.9736,1.9773 4.2991,3.1643 3.3074,2.9619 4.0263,4.5816 6.4186,8.2419 3.9312,8.0876 6.6596,16.3895 5.716,25.5109 z" />
        <path
           style="opacity:1;fill:#003f00;fill-opacity:1;stroke-width:1.44104;stroke-linecap:round;stroke-linejoin:round"
           id="path470"
           d="m 1221.0871,1177.6939 c -0.8363,-1.4145 -1.5381,-2.9175 -2.5087,-4.2433 -5.9401,-8.1138 -16.766,-17.4898 -25.2726,-22.7725 -5.3218,-3.305 -10.8507,-6.2641 -16.2761,-9.3961 -8.9223,-4.3875 -18.5381,-7.6789 -28.6411,-6.8193 -5.3276,0.4533 -8.7362,1.8327 -13.7575,3.4233 -10.8743,3.4537 -20.5206,10.0472 -31.3948,13.4609 -2.8615,0.8983 -5.8107,1.4892 -8.7161,2.2338 -20.2078,4.3855 -41.0046,0.7845 -61.0797,-2.6838 0,0 8.0964,6.0905 8.0964,6.0905 v 0 c 20.2465,3.2917 41.1972,6.8172 61.5428,2.493 2.977,-0.7467 5.9996,-1.331 8.9312,-2.2403 10.879,-3.374 20.5212,-9.9629 31.3998,-13.3722 5.0673,-1.5548 8.1487,-2.8156 13.5225,-3.1697 9.9832,-0.6577 19.4559,2.7785 28.2297,7.1618 -0.5134,-0.3347 -2.038,-1.3613 -1.54,-1.0042 10.1999,7.3127 21.1071,15.0054 27.35,26.1903 z" />
        <path
           style="opacity:1;fill:#003f00;fill-opacity:1;stroke-width:1.44104;stroke-linecap:round;stroke-linejoin:round;filter:url(#filter2851)"
           id="path471"
           d="m 1102.9572,1146.691 c -7.2587,5.493 -15.4822,10.174 -22.0019,16.5991 -1.6547,1.6308 -3.0587,3.4978 -4.5881,5.2467 -13.3319,16.5885 -15.4306,38.1309 -18.6779,58.4162 -1.5847,12.3674 -7.1849,23.0003 -13.6862,33.3752 0,0 9.0338,5.256 9.0338,5.256 v 0 c 6.5212,-10.5364 12.1977,-21.308 13.6963,-33.8468 3.0115,-20.1315 5.2394,-41.4531 18.7257,-57.7038 1.5214,-1.6912 2.9313,-3.4898 4.5642,-5.0736 6.611,-6.4121 14.7979,-11.2214 22.3879,-16.3308 z" />
        <path
           style="opacity:1;fill:#003f00;fill-opacity:1;stroke-width:1.44104;stroke-linecap:round;stroke-linejoin:round;filter:url(#filter2853)"
           id="path472"
           d="m 1169.5218,1139.0777 c -2.2738,-1.2377 -4.2327,-3.7304 -6.8215,-3.7129 -1.9489,0.013 3.0809,2.3968 4.5039,3.7286 5.6244,5.2639 11.0351,11.4025 15.0856,17.9725 1.3159,2.1343 2.3279,4.4417 3.4918,6.6626 0.4913,2.1404 1.2596,4.2356 1.4739,6.4212 0.6638,6.7696 -1.5459,13.4681 -3.2138,19.9078 -2.1819,8.4246 -1.4046,5.2115 -3.1999,14.0409 -1.1876,16.7098 3.6845,32.8848 7.5323,48.9509 1.5085,6.7904 0.9285,3.574 1.8273,9.6332 0,0 9.7764,4.7928 9.7764,4.7928 v 0 c -1.008,-6.205 -0.3706,-2.9271 -1.9941,-9.8174 -3.9999,-15.9267 -9.0651,-31.9368 -7.8256,-48.5717 1.8495,-8.867 1.0258,-5.4677 3.2322,-13.958 1.7055,-6.5629 4.0197,-13.456 3.4506,-20.3552 -0.188,-2.2788 -0.9591,-4.4715 -1.4386,-6.7073 -1.157,-2.2702 -2.1576,-4.6272 -3.471,-6.8106 -3.9766,-6.6109 -9.3308,-12.6855 -14.7728,-18.122 -1.3352,-1.3338 -2.617,-2.7668 -4.1944,-3.803 -3.9673,-2.6061 -8.2401,-4.7143 -12.3601,-7.0715 z" />
        <path
           style="opacity:1;fill:#003f00;fill-opacity:1;stroke-width:1.44104;stroke-linecap:round;stroke-linejoin:round;filter:url(#filter2855)"
           id="path473"
           d="m 1158.045,1137.2175 c -3.6484,1.293 -8.2492,2.6965 -10.0175,6.6141 -1.6811,3.7245 -0.8206,7.235 -0.5246,11.1237 0.5173,9.6008 4.9934,18.3768 6.173,27.8385 0.6,4.8133 0.2305,5.7336 -0.3301,10.2393 -1.1816,6.1195 -4.9204,9.9722 -9.666,13.5904 0,0 9.3114,5.8703 9.3114,5.8703 v 0 c 4.9167,-3.8534 8.7691,-8.0278 9.964,-14.4194 0.5417,-4.7036 0.9016,-5.6259 0.2955,-10.6299 -1.1439,-9.4433 -5.7394,-18.1189 -6.1783,-27.7062 -0.248,-3.1335 -1.0954,-7.1231 0.3379,-10.2489 1.734,-3.782 6.4643,-4.8057 9.9328,-6.0427 z" />
        <path
           style="opacity:1;fill:#003f00;fill-opacity:1;stroke-width:1.44104;stroke-linecap:round;stroke-linejoin:round;filter:url(#filter2857)"
           id="path474"
           d="m 1149.8018,1145.3064 c 8.898,1.5049 17.195,6.0817 24.9816,10.4765 1.8651,1.0523 3.777,2.0258 5.5953,3.1569 1.1448,0.7121 -4.5608,-2.8138 -3.5715,-1.8979 1.585,1.4671 3.638,2.3322 5.3961,3.5868 4.5363,3.2373 8.427,6.8242 12.1963,10.8982 5.4594,6.2533 9.515,13.2789 11.7572,21.2558 0.2891,1.0712 0.5782,2.1425 0.8674,3.2137 0,0 9.9241,4.7292 9.9241,4.7292 v 0 c -0.2936,-1.0731 -0.5873,-2.1462 -0.8809,-3.2194 -2.1347,-8.1647 -6.2126,-15.3351 -11.6652,-21.7835 -10.5391,-11.6614 -24.1842,-19.2702 -37.9404,-26.6583 -8.0205,-4.4234 -16.5484,-9.1584 -25.7449,-10.3586 z" />
        <path
           style="opacity:1;fill:#003f00;fill-opacity:1;stroke-width:1.44104;stroke-linecap:round;stroke-linejoin:round"
           id="path475"
           d="m 1208.775,1138.258 c -3.4571,4.7649 -7.9719,8.5968 -11.6709,13.1528 -2.6744,3.2942 -3.7051,5.1039 -5.9922,8.6517 -7.1326,13.4089 -9.2881,28.8248 -12.9831,43.4193 -3.0519,10.5874 -1.4326,5.5754 -4.7778,15.0617 0,0 9.2724,5.1162 9.2724,5.1162 v 0 c 3.1975,-9.6406 1.6405,-4.5623 4.6038,-15.2555 3.6272,-14.4651 6.1974,-29.5997 13.2128,-42.8956 2.1873,-3.4 3.3203,-5.3723 5.891,-8.5158 3.7441,-4.5783 8.3275,-8.3855 12.0268,-13.0073 z" />
        <path
           style="opacity:1;fill:#003f00;fill-opacity:1;stroke-width:1.44104;stroke-linecap:round;stroke-linejoin:round"
           id="path476"
           d="m 1225.5746,1156.3723 c -6.9888,-6.6318 -16.0793,-10.7193 -25.4918,-12.2823 -6.0745,-0.8647 -12.2145,-0.9503 -18.3378,-0.9895 -7.316,0 -14.6318,0.066 -21.9477,0.093 -9.6798,-0.2497 -18.9275,0 -28.1898,2.9919 -5.3369,1.8285 -2.67,0.963 -7.9998,2.5994 0,0 9.0129,6.1426 9.0129,6.1426 v 0 c 5.3292,-1.672 2.6675,-0.8003 7.985,-2.6165 9.1096,-2.8189 18.5023,-2.9802 27.9877,-2.7291 7.3594,0 14.7189,-5e-4 22.0782,0.014 6.0732,0.053 12.1691,0.1606 18.182,1.1079 2.7716,0.5387 3.7474,0.6268 6.3887,1.5258 0.9516,0.324 3.6015,1.7246 2.8022,1.1149 -2.0947,-1.5975 -4.5115,-2.7218 -6.7436,-4.1208 -0.7742,-0.4851 1.6135,0.8647 2.3686,1.379 0.578,0.3936 1.0784,0.8905 1.6175,1.3358 z" />
      </g>
      <g
         id="g486"
         inkscape:label="plants front"
         style="stroke-width:1.04459">
        <path
           style="opacity:1;fill:#808000;fill-opacity:1;stroke-width:1.44104;stroke-linecap:round;stroke-linejoin:round"
           id="path477"
           d="m 1195.4322,1114.15 c 0.615,-2.4964 0.5907,-5.0992 0.676,-7.6539 -0.3007,-3.3856 -0.8553,-6.8866 -2.9789,-9.6558 -0.2594,-0.3382 -0.5766,-0.6279 -0.8648,-0.9418 -3.3804,-1.923 -6.5715,-4.2253 -10.141,-5.7691 -0.4226,-0.1827 -0.7609,0.5579 -1.003,0.9495 -1.0417,1.685 -0.5409,4.4765 -0.2679,6.2994 0.5359,3.1569 2.1957,5.9423 3.5766,8.7857 0.6168,1.1953 1.0289,2.4614 1.344,3.7629 0,0 9.8687,4.7643 9.8687,4.7643 v 0 c -0.2801,-1.4268 -0.6985,-2.814 -1.4091,-4.0941 -0.7119,-1.3723 -1.4152,-2.7421 -2.0988,-4.1285 -0.4679,-0.9489 -0.9832,-1.8364 -1.3195,-2.8464 -0.1686,-0.5064 -0.2583,-1.0357 -0.3875,-1.5535 -0.2394,-1.4273 -0.5253,-2.8639 -0.2768,-4.3155 0.047,-0.2753 0.1012,-0.5672 0.2613,-0.7961 0.063,-0.09 0.421,0.013 0.3277,-0.046 -2.7856,-1.7575 -5.6459,-3.3938 -8.4688,-5.0906 0.3633,0.272 0.7621,0.5021 1.09,0.816 2.4592,2.3542 3.1067,5.7442 3.314,9.0012 -0.1252,2.3577 -0.167,4.8231 -1.0137,7.0553 z" />
        <path
           style="opacity:1;fill:#808000;fill-opacity:1;stroke-width:1.44104;stroke-linecap:round;stroke-linejoin:round"
           id="path478"
           d="m 1178.0839,1144.3812 c 1.8117,-0.06 3.6297,0.2516 5.4411,0.068 0.4774,-0.048 0.9465,-0.1592 1.4197,-0.2389 0.4492,-0.1766 0.9354,-0.2788 1.3476,-0.53 1.9507,-1.189 2.9271,-3.4334 3.6077,-5.4958 0.1283,-0.8995 0.2125,-2.4248 -0.7631,-2.9863 -9.9244,-5.7122 -6.4189,-5.2301 -11.118,-5.7253 -0.3388,0.2145 -0.7294,0.3636 -1.0165,0.6436 -0.6853,0.6683 -1.1558,1.8002 -1.5584,2.6236 -0.7629,1.5603 -1.5129,3.1184 -2.3248,4.654 -0.9738,1.6049 -2.1066,3.2184 -3.6667,4.316 -0.7037,0.4951 -1.1374,0.6206 -1.9196,0.9378 -0.3062,0.087 -0.6123,0.1738 -0.9184,0.2607 0,0 9.0504,6.1286 9.0504,6.1286 v 0 c 0.3153,-0.1265 0.6306,-0.253 0.9459,-0.3796 0.8419,-0.4396 1.2952,-0.625 2.0497,-1.2403 1.5638,-1.2753 2.6027,-3.0801 3.6774,-4.7483 0.8016,-1.5271 1.5303,-3.099 2.3876,-4.596 0.2399,-0.4188 0.8554,-1.571 1.4015,-1.8867 0.1927,-0.1114 0.4409,-0.061 0.6614,-0.092 4.1115,1.1252 0.4621,0.2012 -7.9621,-4.9332 -0.1789,-0.109 0.415,0.086 0.6025,0.1799 0.6506,0.3252 0.857,0.9401 0.9052,1.619 -0.4576,1.7842 -1.1717,3.8119 -2.9683,4.681 -0.3788,0.1833 -0.8067,0.2403 -1.21,0.3604 -2.3228,0.2253 -4.7198,0.1353 -6.9896,-0.4392 z" />
        <path
           style="opacity:1;fill:#808000;fill-opacity:1;stroke-width:1.44104;stroke-linecap:round;stroke-linejoin:round"
           id="path479"
           d="m 1190.2696,1160.1591 c 2.5317,-0.2329 4.9356,-1.323 7.2213,-2.3732 3.2136,-1.6567 5.106,-4.1469 6.6204,-7.3392 0.4707,-1.2423 1.0959,-2.7633 0.5893,-4.1058 -0.1004,-0.266 -0.1973,-0.5826 -0.44,-0.7307 -3.3213,-2.0272 -6.7759,-3.8277 -10.1639,-5.7415 -0.2893,0.078 -0.6264,0.055 -0.8679,0.2327 -1.5841,1.163 -1.4805,4.0063 -1.5166,5.6671 -0.034,1.5778 0.1167,4.1937 0.1927,5.7867 0.2442,2.0615 0.2341,4.1001 -0.01,6.1532 0,0 9.4546,4.9069 9.4546,4.9069 v 0 c 0.082,-2.1776 -0.043,-4.3299 -0.353,-6.492 -0.1799,-2.6449 -0.4458,-5.3123 0.1972,-7.9247 0.076,-0.3081 0.3447,-1.5595 1.0099,-1.6797 0.1972,-0.036 0.3928,0.08 0.5892,0.1198 -2.9079,-1.7495 -5.8159,-3.4989 -8.7238,-5.2483 0.4321,0.2296 0.8434,0.3383 1.0278,0.8582 0.329,0.9274 -0.1451,2.0414 -0.3792,2.9118 -1.272,3.1425 -2.9642,5.2199 -6.0501,6.7624 -2.3654,1.0051 -4.8749,1.8809 -7.4861,1.6357 z" />
        <path
           style="opacity:1;fill:#808000;fill-opacity:1;stroke-width:1.44104;stroke-linecap:round;stroke-linejoin:round"
           id="path480"
           d="m 1144.828,1155.7635 c 0.5293,-4.1915 0.7232,-8.4162 1.0015,-12.6295 0.097,-1.6356 0.2507,-3.3133 -0.2116,-4.9139 -0.051,-0.1749 -0.507,-1.3147 -0.6968,-1.407 -3.3907,-1.6491 -6.8713,-3.1063 -10.3069,-4.6594 -0.1464,0.4109 -0.3573,0.8042 -0.4391,1.2327 -0.516,2.7045 0.2228,6.1654 0.8307,8.8144 0.5829,2.1168 0.2552,1.0907 0.9743,3.0811 0,0 9.713,4.4897 9.713,4.4897 v 0 c -0.8458,-1.8982 -0.4694,-0.9079 -1.1146,-2.9764 -0.6533,-2.5593 -1.4637,-5.4342 -0.854,-8.0876 0.049,-0.2134 0.1823,-0.398 0.2735,-0.597 -3.1441,-1.7644 -6.333,-3.4513 -9.4323,-5.293 -0.1917,-0.1139 0.4734,-0.034 0.6637,0.082 0.2635,0.1609 0.454,0.4303 0.6112,0.696 0.8507,1.4373 0.7636,3.1955 0.795,4.7917 -0.1637,4.0321 -0.282,8.1904 -1.589,12.044 z" />
        <path
           style="opacity:1;fill:#808000;fill-opacity:1;stroke-width:1.44104;stroke-linecap:round;stroke-linejoin:round"
           id="path481"
           d="m 1128.3574,1160.4937 c 1.5513,-3.468 1.6906,-7.1071 1.527,-10.841 -0.4656,-2.8703 -1.2343,-6.798 -3.2167,-9.0777 -0.2578,-0.2964 -0.5877,-0.5215 -0.8816,-0.7823 -3.4812,-1.7403 -6.8073,-3.8336 -10.4437,-5.2208 -0.423,-0.1613 -0.7631,0.5007 -1.0785,0.8254 -1.1618,1.1959 -1.7112,2.9894 -1.8846,4.605 -0.071,0.6612 -0.014,1.3299 -0.022,1.9949 0.3114,3.1952 1.6306,6.0528 3.2781,8.7527 0.6104,0.9072 0.9197,1.9304 1.2181,2.967 0,0 9.8127,4.6952 9.8127,4.6952 v 0 c -0.2543,-1.1314 -0.516,-2.2576 -1.0721,-3.2892 -1.7549,-2.5629 -3.4006,-5.1873 -3.822,-8.3436 -0.072,-1.837 -0.1101,-3.0466 0.9286,-4.6717 0.1919,-0.3002 0.425,-0.5858 0.7115,-0.7975 0.2183,-0.1614 0.9823,-0.134 0.7607,-0.2907 -2.7064,-1.9136 -5.6606,-3.4501 -8.4908,-5.1751 0.3649,0.1744 0.7696,0.2825 1.0947,0.5231 2.2488,1.664 3.3645,6.0513 3.8608,8.6278 0.038,0.7711 0.1214,1.5412 0.1138,2.3131 -0.025,2.5331 -0.5125,5.3453 -1.9771,7.4579 z" />
        <path
           style="opacity:1;fill:#808000;fill-opacity:1;stroke-width:1.44104;stroke-linecap:round;stroke-linejoin:round"
           id="path482"
           d="m 1159.4519,1158.6545 c 1.6265,0.1879 3.2663,0.2248 4.9018,0.2641 2.4793,-0.2652 4.4549,-1.8457 5.9339,-3.7564 0.7677,-1.364 1.5406,-3.1285 0.6649,-4.6364 -0.1337,-0.2302 -0.3379,-0.4114 -0.5069,-0.6171 5.2617,7.5296 -7.5611,-7.8835 -10.9932,-5.6141 -1.3914,0.92 -1.6769,3.4876 -1.9759,4.9773 -0.2782,1.533 -0.3451,3.2373 -1.3243,4.5372 -0.4534,0.6019 -0.8602,0.7929 -1.4733,1.1938 -0.6678,0.2579 -1.49,0.8031 -2.2583,0.6361 -0.1757,-0.038 -0.6175,-0.3687 -0.4599,-0.282 8.1402,4.4807 12.2868,6.8681 8.8285,4.8792 0,0 -10.2326,-4.3905 -10.2326,-4.3905 v 0 c 2.5366,6.1895 8.8817,7.8378 13.3383,4.9999 0.7221,-0.5816 1.1407,-0.8376 1.6853,-1.6254 0.9826,-1.4211 1.1976,-3.2139 1.3912,-4.8792 0.2002,-1.0727 0.3173,-2.4849 1.041,-3.3773 0.3702,-0.4564 0.9434,-0.013 0.9166,-0.029 -2.8847,-1.7511 -5.8081,-3.4377 -8.7121,-5.1566 2.0445,1.083 1.5986,1.9134 0.6824,3.8088 -1.2932,1.766 -3.0861,2.9485 -5.3471,2.8878 -1.6855,-0.082 -3.3861,-0.165 -5.0293,-0.5808 z" />
        <path
           style="opacity:1;fill:#808000;fill-opacity:1;stroke-width:1.44104;stroke-linecap:round;stroke-linejoin:round"
           id="path483"
           d="m 1099.0949,1164.9298 c -0.7715,-1.5632 -1.4778,-3.2134 -2.7378,-4.4594 -0.3093,-0.3058 -0.6653,-0.5604 -0.9979,-0.8406 -4.7694,10.0856 -7.1934,-6.6078 -11.6013,-6.382 -0.6628,0.034 -1.2861,0.3343 -1.913,0.5523 -2.1985,0.7648 -4.1984,1.806 -6.1846,3.0007 -2.1327,1.3696 -3.3742,4.0562 -5.8525,4.9144 -1.1275,0.3905 -1.7556,0.1771 -2.8929,0.034 -0.4571,-0.1953 -0.9351,-0.3475 -1.3713,-0.5859 -0.4364,-0.2386 -1.6726,-1.0732 -1.2343,-0.8382 2.7235,1.4605 5.3411,3.1173 8.0959,4.5177 0.3922,0.1993 -0.6646,-0.5782 -0.9697,-0.8951 -0.734,-0.7625 -0.8408,-1.0065 -1.4026,-1.8616 -0.8782,-1.7151 -1.2889,-2.2876 0.7308,-2.8436 1.9521,-0.3068 3.9754,-0.4749 5.9296,-0.1447 3.0577,0.7865 5.8806,2.1997 8.8877,3.1405 2.6984,0.8223 5.4587,1.3638 8.263,1.6387 0.302,-0.013 0.604,-0.026 0.906,-0.039 0,0 -8.894,-6.4494 -8.894,-6.4494 v 0 c -0.2649,-0.01 -0.5298,-0.016 -0.7947,-0.024 -2.6669,-0.2588 -5.2993,-0.7849 -7.8468,-1.6272 -3.0647,-1.0888 -6.0319,-2.5295 -9.2471,-3.1325 -2.1119,-0.1359 -4.2751,-0.074 -6.3252,0.4952 -2.3715,1.0663 -2.6975,2.2812 -1.5417,4.5954 3.0073,5.2282 5.9418,5.4482 12.5397,9.3725 0.4335,0.2578 0.8879,0.4892 1.3647,0.6538 0.497,0.1716 1.0257,0.2323 1.5386,0.3485 1.439,-0.054 1.8747,0.084 3.2044,-0.5853 2.2975,-1.1568 3.5747,-3.5872 5.6654,-5.0178 1.8857,-1.1139 3.8536,-2.2524 6.0671,-2.5809 0.5879,-0.087 1.1982,-0.088 1.783,0.018 0.421,0.076 0.7828,0.3459 1.1742,0.5188 -2.7085,-1.5944 -5.417,-3.1888 -8.1255,-4.7832 0.7833,0.5066 1.3063,0.7709 1.9396,1.4651 0.7995,0.8765 1.2677,2.0368 1.6852,3.1266 z" />
        <path
           style="opacity:1;fill:#808000;fill-opacity:1;stroke-width:1.44104;stroke-linecap:round;stroke-linejoin:round"
           id="path484"
           d="m 1111.2524,1156.9442 c -0.057,-3.2473 0.1775,-6.5051 0.2951,-9.753 -6e-4,-2.2232 0.2106,-4.6955 -1.1949,-6.569 -3.4137,-1.6426 -6.671,-3.6609 -10.2412,-4.9278 -0.3845,-0.1364 -0.3891,0.7231 -0.5085,1.1132 -0.5416,1.7705 -0.5996,4.3522 -0.7181,6.2151 -0.1381,2.0277 -0.2405,4.0563 -0.2665,6.0885 0,0 9.7232,4.9581 9.7232,4.9581 v 0 c -0.013,-2.0477 -0.068,-4.0963 0.017,-6.1432 0.099,-1.5299 0.168,-3.0766 0.4916,-4.5808 0.08,-0.3732 0.1811,-0.7432 0.3115,-1.102 0.049,-0.1356 0.3463,-0.2946 0.2236,-0.3706 -3.0514,-1.8909 -6.2498,-3.5336 -9.3747,-5.3004 0.1892,0.047 0.3986,0.044 0.5674,0.1415 1.6038,0.9247 1.5129,4.2092 1.6555,5.7071 -0.011,2.1603 -0.053,4.2726 -0.3882,6.4124 -0.5009,3.1957 -0.087,0.2398 -0.5553,2.5397 -0.032,0.1552 -0.029,0.3154 -0.043,0.4731 z" />
        <path
           style="opacity:1;fill:#808000;fill-opacity:1;stroke-width:1.44104;stroke-linecap:round;stroke-linejoin:round"
           id="path485"
           d="m 1059.5817,1149.7158 c -1.5139,0.072 -3.0307,0.054 -4.5461,0.082 -2.3547,0.032 -4.7094,0.016 -7.0642,0.034 -1.5843,-0.013 -3.1686,-0.01 -4.7529,-0.018 -0.357,0 -0.725,0.079 -1.0708,-0.01 -0.2645,-0.068 -0.4601,-0.2941 -0.6902,-0.4412 3.0238,1.7011 6.0365,3.422 9.0713,5.1032 0.045,0.025 -0.3641,-0.091 -0.073,-0.4637 0.3335,-0.4264 1.088,-0.6272 1.55,-0.8176 1.9974,-0.8786 4.1851,-1.1084 6.3372,-1.2811 1.0901,-0.067 2.1822,-0.083 3.2739,-0.1002 0,0 -8.8267,-6.3808 -8.8267,-6.3808 v 0 c -1.0972,0.035 -2.1952,0.069 -3.2882,0.1787 -2.2646,0.227 -4.5262,0.6287 -6.6437,1.4938 -1.0335,0.468 -2.0798,1.0098 -2.4333,2.1906 -0.085,0.2836 -0.3707,0.7084 -0.1286,0.8789 3.1366,2.2084 6.5625,3.9742 9.8437,5.9614 2.1788,0.2248 4.387,-0.016 6.574,0.058 2.3859,0.017 4.7718,0 7.1575,0.034 1.5909,0.028 3.1829,0.013 4.7725,0.082 z" />
        <path
           style="opacity:1;fill:#808000;fill-opacity:1;stroke-width:1.44104;stroke-linecap:round;stroke-linejoin:round"
           id="path486"
           d="m 1072.7293,1151.9242 c -1.4596,0.2029 -2.6504,1.0684 -3.9544,1.6709 -1.9118,0.7335 -2.4192,1.6764 -3.5816,3.2313 -0.5953,0.7432 -1.2429,1.3674 -2.0884,1.8025 0,0 9.2794,5.9957 9.2794,5.9957 v 0 c 0.8797,-0.6048 1.6251,-1.3281 2.2521,-2.1995 1.0205,-1.3801 1.7245,-2.1362 3.3779,-2.7442 1.1924,-0.6259 2.3473,-1.3345 3.7558,-1.1882 z" />
      </g>
    </g>
  </g>
</svg>
