<?xml version="1.0" encoding="UTF-8" standalone="no"?>
<!-- Created with Inkscape (http://www.inkscape.org/) -->

<svg
   width="407.5451"
   height="246.31421"
   viewBox="0 0 407.5451 246.31421"
   version="1.1"
   id="svg1"
   inkscape:version="1.3.2 (091e20e, 2023-11-25, custom)"
   sodipodi:docname="skeleton.svg"
   xmlns:inkscape="http://www.inkscape.org/namespaces/inkscape"
   xmlns:sodipodi="http://sodipodi.sourceforge.net/DTD/sodipodi-0.dtd"
   xmlns="http://www.w3.org/2000/svg"
   xmlns:svg="http://www.w3.org/2000/svg">
  <sodipodi:namedview
     id="namedview1"
     pagecolor="#ffffff"
     bordercolor="#000000"
     borderopacity="0.25"
     inkscape:showpageshadow="2"
     inkscape:pageopacity="0.0"
     inkscape:pagecheckerboard="0"
     inkscape:deskcolor="#d1d1d1"
     inkscape:document-units="px"
     inkscape:zoom="0.3"
     inkscape:cx="780"
     inkscape:cy="1215"
     inkscape:window-width="1304"
     inkscape:window-height="745"
     inkscape:window-x="1358"
     inkscape:window-y="-8"
     inkscape:window-maximized="1"
     inkscape:current-layer="g552" />
  <defs
     id="defs1">
    <filter
       style="color-interpolation-filters:sRGB"
       inkscape:label="Drop Shadow"
       id="filter2885"
       x="-0.13633837"
       y="-0.41078208"
       width="1.2726767"
       height="1.8215642">
      <feFlood
         result="flood"
         in="SourceGraphic"
         flood-opacity="0.803922"
         flood-color="rgb(0,0,0)"
         id="feFlood2884" />
      <feGaussianBlur
         result="blur"
         in="SourceGraphic"
         stdDeviation="17.021276"
         id="feGaussianBlur2884" />
      <feOffset
         result="offset"
         in="blur"
         dx="0.000000"
         dy="0.000000"
         id="feOffset2884" />
      <feComposite
         result="comp1"
         operator="out"
         in="flood"
         in2="offset"
         id="feComposite2884" />
      <feComposite
         result="comp2"
         operator="atop"
         in="comp1"
         in2="SourceGraphic"
         id="feComposite2885" />
    </filter>
  </defs>
  <g
     id="g629"
     inkscape:label="skeleton"
     transform="translate(-982.00018,-1840.1279)">
    <g
       inkscape:groupmode="layer"
       id="g450"
       inkscape:label="body"
       style="display:inline;fill:#000000">
      <g
         id="g438"
         inkscape:label="foot front"
         style="display:inline;filter:url(#filter2885)"
         transform="rotate(-10.283494,1035.3389,1747.2225)">
        <path
           style="display:inline;opacity:1;fill:#000000;fill-opacity:0.992157;stroke-width:1.37953;stroke-linecap:round;stroke-linejoin:round"
           id="path432"
           d="m 1238.0433,2021.0022 c -42.0146,1.4854 -84.0625,3.1464 -126.054,5.2339 -25.207,1.3577 -50.397,2.9644 -75.6351,3.812 0,0 10.0391,6.345 10.0391,6.345 v 0 c 24.9545,-1.0794 49.8532,-2.8836 74.7785,-4.3717 42.2893,-2.2603 84.6848,-4.1724 127.0432,-4.5309 z" />
        <path
           style="display:inline;opacity:1;fill:#000000;fill-opacity:0.992157;stroke-width:1.37953;stroke-linecap:round;stroke-linejoin:round"
           id="path433"
           d="m 1111.038,1996.5369 c -7.3728,2.6382 -14.8154,5.0662 -21.9994,8.2097 -9.5398,3.8488 -19.5673,6.5446 -28.8493,10.9863 -7.9325,4.084 -15.6988,8.4918 -23.5054,12.8152 0,0 9.1976,5.9997 9.1976,5.9997 v 0 c 7.8108,-4.2743 15.5572,-8.6715 23.4652,-12.7596 9.325,-4.3345 19.2962,-7.135 28.8439,-10.9468 7.2027,-3.0757 14.6267,-5.5631 22.0885,-7.9304 z" />
        <path
           style="display:inline;opacity:1;fill:#000000;fill-opacity:0.992157;stroke-width:1.37953;stroke-linecap:round;stroke-linejoin:round"
           id="path434"
           d="m 1093.7715,1999.2884 c -12.2832,5.9546 -25.7603,9.0893 -39.1523,11.3723 -11.0453,1.6568 -22.2025,2.3218 -33.3594,2.5221 -0.5579,9e-4 -2.1597,-0.2716 -1.6738,0 3.4902,1.9695 7.0148,4.0175 10.8512,5.1763 0.9172,0.2771 11.9187,-6.2171 13.3124,-7.015 8.8053,-4.9979 17.9758,-9.2757 27.2212,-13.3894 6.4206,-2.7848 12.6601,-5.8335 18.865,-9.07 0,0 -9.1813,-6.0163 -9.1813,-6.0163 v 0 c -6.1668,3.2417 -12.4104,6.2258 -18.7798,9.0457 -9.268,4.1766 -18.5455,8.3492 -27.3684,13.4185 -3.5187,1.9856 -7.0584,3.9864 -10.6914,5.7592 -0.9255,0.4516 -3.3274,0.3567 -2.8232,1.2546 4.4673,7.9549 4.6637,7.5621 9.2582,7.3281 11.1015,-0.4082 22.2039,-1.0794 33.1879,-2.8362 13.5551,-2.3575 27.1453,-5.6432 39.656,-11.4926 z" />
        <path
           style="display:inline;opacity:1;fill:#000000;fill-opacity:0.992157;stroke-width:1.37953;stroke-linecap:round;stroke-linejoin:round"
           id="path435"
           d="m 1079.503,1981.8927 c -9.0701,0.07 -18.1405,0.1027 -27.2108,0.1065 -11.295,0.012 -22.5901,-0.012 -33.8851,-0.03 -5.1958,-0.9461 -19.69058,1.8153 -23.42583,-0.7543 3.68001,2.0733 7.06713,5.0028 11.04003,6.2197 0.9182,0.2813 1.3152,-1.5555 2.0714,-2.2036 6.9895,-5.991 15.4425,-10.3875 23.1789,-14.9658 9.9739,-5.0844 19.625,-10.8861 29.5214,-16.1444 0,0 -10.067,-7.4568 -10.067,-7.4568 v 0 c -9.8868,5.299 -19.5762,11.0366 -29.5202,16.2074 -7.8733,4.5921 -16.6273,8.9321 -23.70147,15.0492 -0.88642,0.7666 -3.05539,1.5787 -2.41925,2.6115 2.4398,3.9606 6.53342,6.247 9.80022,9.3704 7.6662,1.3603 15.7542,-0.6141 23.4803,0.1778 11.2706,-0.024 22.5412,-0.039 33.8119,-0.03 9.1573,0 18.3145,0.036 27.4715,0.1063 z" />
        <path
           style="display:inline;opacity:1;fill:#000000;fill-opacity:0.992157;stroke-width:1.37953;stroke-linecap:round;stroke-linejoin:round"
           id="path436"
           d="m 1241.8966,1945.7806 c -18.1802,-3.7797 -36.8429,-5.0116 -55.3278,-6.5085 -18.9437,-1.4851 -37.9369,-1.9455 -56.9291,-2.2113 -10.4758,-0.1453 -20.9524,-0.1227 -31.4288,-0.092 -11.5619,0.6444 -22.6465,4.3215 -33.8926,6.8118 -4.7814,0.8642 -9.5233,1.9215 -14.2869,2.8769 0,0 9.0072,6.2742 9.0072,6.2742 v 0 c 4.7633,-0.9649 9.52,-1.9615 14.2871,-2.9078 11.17,-2.5741 22.2298,-6.2094 33.767,-6.6048 10.4208,-0.01 20.8417,-0.062 31.2624,-0.011 18.8885,0.1715 37.7797,0.6536 56.6213,2.0763 18.6767,1.5029 37.5643,2.7838 55.838,7.1151 z" />
        <path
           id="path437"
           style="display:inline;opacity:1;fill:#000000;fill-opacity:0.992157;stroke-width:1.37953;stroke-linecap:round;stroke-linejoin:round"
           d="m 1260.8652,1953.8164 c 0.1607,0.1816 0.357,0.269 0.5703,0.2969 -0.1902,-0.099 -0.3785,-0.2012 -0.5703,-0.2969 z m 2.4219,7.5996 c 5.0617,12.2054 11.9383,23.5422 17.4785,35.5235 2.8252,7.6453 7.6564,16.3245 -0.707,21.8828 -8.872,2.7072 -18.3546,2.3991 -27.543,2.4414 -8.9282,-0.036 -17.855,-0.1669 -26.7832,-0.2032 l 8.9063,6.4786 c 8.9167,0.065 17.833,0.1585 26.75,0.164 9.3635,-0.051 19.1224,0.2822 28.0488,-2.9101 8.7412,-6.4751 4.4338,-14.7299 1.1973,-23.3496 -5.6616,-12.3855 -12.8056,-24.0494 -18.0391,-36.6387 -0.1661,-0.4619 -0.2745,-0.8333 -0.4277,-1.2735 -0.9021,-0.02 -1.8045,-0.049 -2.7032,-0.1289 -1.2428,-0.1488 -2.4744,-0.3883 -3.6503,-0.83 -0.8645,-0.3342 -1.7162,-0.7104 -2.5274,-1.1563 z" />
        <path
           style="display:inline;opacity:1;fill:#ffffff;fill-opacity:1;stroke-width:1.37953;stroke-linecap:round;stroke-linejoin:round"
           d="m 1093.8088,2026.475 c 4.312,-0.9648 120.2626,-5.4696 151.1058,-5.8705 26.3569,-0.3427 31.1066,-0.7796 34.8031,-3.2016 3.8235,-2.5053 4.1891,-3.4864 3.4244,-9.1881 -1.1585,-8.6369 -19.088,-44.233 -22.8873,-45.4388 -1.616,-0.5129 -4.5863,-2.8913 -6.6007,-5.2852 -6.5746,-7.8134 -32.5797,-10.9031 -101.8759,-12.1041 l -51.7227,-0.8964 -19.0715,4.3997 c -10.4893,2.4198 -19.4216,4.8577 -19.8495,5.4176 -0.4279,0.5598 -9.1799,5.6332 -19.4489,11.2742 -29.3565,16.1263 -29.8276,14.9921 6.2514,15.0494 30.7386,0.049 31.2221,0.1012 36.953,3.9954 5.9541,4.0459 7.4772,6.9455 3.6485,6.9455 -1.1871,0 -10.8144,4.2031 -21.3938,9.3402 -18.3042,8.888 -18.8623,9.2954 -11.5279,8.4147 4.2392,-0.5091 13.3413,-2.6892 20.2269,-4.8449 6.8857,-2.1556 14.7416,-4.0859 17.4576,-4.2895 2.7161,-0.2036 8.086,-1.2514 11.9331,-2.3286 6.2428,-1.7478 7.4212,-1.6477 10.961,0.9316 2.1814,1.5895 3.9881,3.3075 4.015,3.8179 0.027,0.5103 -7.1277,3.5622 -15.8992,6.7818 -45.4876,16.6966 -47.5507,18.027 -27.5747,17.7824 8.1061,-0.099 15.7886,-0.4155 17.0723,-0.7027 z"
           id="path438"
           inkscape:label="color" />
      </g>
    </g>
  </g>
</svg>
