<?xml version="1.0" encoding="UTF-8" standalone="no"?>
<!-- Created with Inkscape (http://www.inkscape.org/) -->

<svg
   width="403.71814"
   height="829.89575"
   viewBox="0 0 403.71814 829.89575"
   version="1.1"
   id="svg1"
   inkscape:version="1.3.2 (091e20e, 2023-11-25, custom)"
   sodipodi:docname="skeleton.svg"
   xmlns:inkscape="http://www.inkscape.org/namespaces/inkscape"
   xmlns:sodipodi="http://sodipodi.sourceforge.net/DTD/sodipodi-0.dtd"
   xmlns="http://www.w3.org/2000/svg"
   xmlns:svg="http://www.w3.org/2000/svg">
  <sodipodi:namedview
     id="namedview1"
     pagecolor="#ffffff"
     bordercolor="#000000"
     borderopacity="0.25"
     inkscape:showpageshadow="2"
     inkscape:pageopacity="0.0"
     inkscape:pagecheckerboard="0"
     inkscape:deskcolor="#d1d1d1"
     inkscape:document-units="px"
     inkscape:zoom="0.3"
     inkscape:cx="780"
     inkscape:cy="1215"
     inkscape:window-width="1304"
     inkscape:window-height="745"
     inkscape:window-x="1358"
     inkscape:window-y="-8"
     inkscape:window-maximized="1"
     inkscape:current-layer="g552" />
  <defs
     id="defs1">
    <filter
       style="color-interpolation-filters:sRGB"
       inkscape:label="Drop Shadow"
       id="filter2875"
       x="-0.47205349"
       y="-0.18235339"
       width="1.944107"
       height="1.3647068">
      <feFlood
         result="flood"
         in="SourceGraphic"
         flood-opacity="1.000000"
         flood-color="rgb(0,0,0)"
         id="feFlood2874" />
      <feGaussianBlur
         result="blur"
         in="SourceGraphic"
         stdDeviation="46.200607"
         id="feGaussianBlur2874" />
      <feOffset
         result="offset"
         in="blur"
         dx="0.000000"
         dy="0.000000"
         id="feOffset2874" />
      <feComposite
         result="comp1"
         operator="out"
         in="flood"
         in2="offset"
         id="feComposite2874" />
      <feComposite
         result="comp2"
         operator="atop"
         in="comp1"
         in2="SourceGraphic"
         id="feComposite2875" />
    </filter>
  </defs>
  <g
     id="g629"
     inkscape:label="skeleton"
     transform="translate(-899.07153,-1159.8506)">
    <g
       inkscape:groupmode="layer"
       id="g450"
       inkscape:label="body"
       style="display:inline;fill:#000000">
      <g
         id="g408"
         inkscape:label="leg back"
         style="display:inline;fill:#000000;filter:url(#filter2875)"
         inkscape:transform-center-x="-39.306467"
         inkscape:transform-center-y="14.448692"
         transform="rotate(19.848966,1225.8692,1219.7119)">
        <path
           style="display:none;opacity:1;fill:#003f00;fill-opacity:1;stroke-width:1.37953;stroke-linecap:round;stroke-linejoin:round"
           id="path398"
           d="m 1294.9903,2013.4309 c -0.033,-7.6865 1.5469,-15.3808 0.2732,-23.0664 -0.3284,-1.9806 -0.9509,-3.9101 -1.4263,-5.8652 -0.9458,-1.8551 -1.7105,-3.8083 -2.8377,-5.5656 -2.2374,-3.4882 -5.0239,-6.3104 -8.4652,-8.6547 -10.4355,-7.1094 -14.5281,-9.8538 -24.9726,-13.2546 -1.4781,-0.2713 -16.1113,-4.8969 -15.1327,-6.7557 0.875,-1.6619 4.7272,3.7951 5.421,2.0483 0.7984,-2.01 -2.8356,-3.413 -4.179,-5.1757 -1.5152,-1.9887 -2.9288,-4.0493 -4.3934,-6.0739 -6.9582,-10.5767 -14.6538,-20.7378 -20.4579,-31.9784 -2.9318,-6.4965 -4.5613,-14.1694 -0.092,-20.2674 0.9452,-1.2896 2.2015,-2.3237 3.3022,-3.4857 9.4125,-8.3441 20.8878,-13.9472 32.2703,-19.2715 12.2117,-4.9152 23.9152,-10.9204 35.637,-16.8314 10.5426,-5.4973 16.4437,-9.195 20.7135,-20.4238 1.1536,-10.8624 -2.4541,-20.9284 -8.3118,-30.1416 -8.9922,-12.6822 -22.3802,-21.4199 -36.7078,-27.2102 -9.3796,-3.4838 -19.0406,-6.0788 -28.5233,-9.2628 1.4721,3.7657 -12.0257,-7.742 -9.9089,-4.7694 1.2288,1.7257 3.2482,3.5358 5.3576,3.4746 1.8591,-0.054 -2.9526,-2.3137 -4.4028,-3.5023 -4.5094,-3.6958 -3.9958,-3.3399 -8.093,-7.195 -5.6567,-5.7967 -8.6407,-10.7353 -5.5846,-18.37 3.6702,-6.4354 9.5564,-10.9888 16.039,-14.4554 6.8939,-3.6447 14.7952,-4.156 22.4762,-5.0611 10.8194,-0.8114 21.4078,-2.4463 31.7779,-5.4178 9.796,-2.875 19.6093,-5.7399 28.5428,-10.6319 7.1484,-4.4048 8.8089,-12.4131 10.0189,-20.1534 0.2591,-5.9701 2.6782,-13.6505 -1.0933,-19.1815 -0.7163,-1.0502 -1.7737,-1.833 -2.6604,-2.7496 -13.7384,-9.3154 -20.2254,-13.9382 -36.1197,-10.9112 -10.0077,2.1808 -18.9559,7.3216 -28.2542,11.3367 -6.6119,2.1413 -16.6661,8.0561 -23.8986,4.8732 -1.1623,-0.5114 -2.0757,-1.4648 -3.1134,-2.1973 2.3662,1.2535 4.4964,4.2262 7.099,3.7605 1.7209,-0.3077 -1.874,-2.986 -2.6648,-4.5539 -3.323,-6.588 -5.2546,-13.6755 -6.87,-20.7801 -2.3111,-9.6212 2.833,-14.3783 10.7378,-18.5875 7.0557,-2.787 14.773,-3.5848 22.2746,-4.7395 10.3262,-1.6911 20.0429,-5.5776 29.859,-8.9286 9.3696,-2.4723 18.005,-5.7034 23.8428,-13.5483 0.1476,-0.8174 0.5831,-1.6264 0.4421,-2.4524 -0.1442,-0.8437 -0.562,-1.7376 -1.2493,-2.2715 -10.6434,-8.2672 -13.0472,-9.3512 -24.3927,-11.0033 -13.3684,0.013 -26.7005,1.8335 -39.8123,4.0319 -7.8367,1.0353 -15.6952,4.3512 -23.7641,3.8933 -1.5589,-0.088 -3.081,-0.5595 -4.6214,-0.8393 1.9446,3.1542 -11.1126,-6.0527 -8.9539,-3.6646 1.5179,1.6794 3.5089,3.8118 5.7497,3.6462 1.745,-0.1288 -2.5588,-2.4427 -3.6828,-3.7988 -2.9607,-3.5723 -3.1033,-4.5964 -5.0265,-8.7533 -3.3615,-11.2808 -3.4041,-23.1481 -2.4223,-34.6691 0.7574,-1.6229 1.3262,-3.3484 2.2721,-4.8686 6.0741,-9.7628 20.8578,-14.7261 30.8681,-19.4661 13.6974,-5.5241 26.8851,-12.1498 39.7107,-19.3564 7.9915,-4.6506 11.8684,-8.4334 14.8102,-17.1172 4.0746,-15.796 -1.2676,-15.1718 -16.2317,-24.3326 -12.6619,-3.5643 -25.7393,-4.9835 -38.7422,-6.2756 -4.8849,-0.3253 -9.6195,-0.6697 -14.1216,-2.8529 -1.3122,-0.6364 -5.0613,-2.8944 -3.7518,-2.2524 6.524,3.1984 8.2628,5.7589 1.725,-0.9173 -6.2561,-7.4291 -12.453,-15.2623 -13.9377,-25.0388 -0.3532,-2.3255 -0.2777,-4.684 -0.4165,-7.0261 0.1949,-2.3471 0.062,-4.7514 0.5845,-7.0411 3.0231,-13.2691 12.9854,-22.403 23.6291,-29.9322 10.1519,-6.4449 21.2242,-11.3426 31.8188,-17.0424 4.0153,-2.6226 8.6985,-4.9423 12.0153,-8.4814 1.8665,-1.9914 2.5293,-3.5673 3.8115,-5.9265 3.6434,-9.8984 3.7688,-20.82 4.526,-31.3018 0.5567,-8.2282 1.0758,-16.4606 1.466,-24.7027 0.3872,-7.2353 0.7641,-14.4714 1.1375,-21.7079 0.8032,-9.7113 -0.2355,-19.4493 -1.2129,-29.1481 -1.2268,-9.441 -2.0296,-18.8573 -2.1927,-28.35 -0.03,-12.4982 0.6102,-24.9693 1.3285,-37.4246 0.3493,-5.7312 0.178,-2.9637 0.5131,-8.3026 0,0 -10.481,-6.2706 -10.481,-6.2706 v 0 c -0.263,5.386 -0.1286,2.594 -0.3997,8.3763 -0.5638,12.5 -1.1513,25.0007 -1.3073,37.524 0.091,9.4952 0.6395,18.9276 2.0099,28.3664 1.0588,9.6349 2.1932,19.3222 1.2841,28.9729 -0.4257,7.2241 -0.8454,14.4485 -1.1967,21.6785 -0.4512,8.2699 -0.7076,16.5544 -1.2293,24.8192 -0.6896,10.3082 -0.9454,21.0041 -4.4946,30.7439 -3.7212,6.9361 -8.628,9.9789 -15.3445,13.9301 -10.5383,5.7923 -21.5446,10.8198 -31.6326,17.35 -10.817,7.781 -20.9156,17.2379 -24.2142,30.705 -0.5692,2.3237 -0.4433,4.778 -0.6649,7.1669 0.068,2.3918 -0.094,4.7949 0.2051,7.1751 1.2563,9.9979 7.3414,17.9267 13.6263,25.5625 6.6495,7.144 16.5634,15.6859 26.4684,17.9797 2.137,0.4948 7.5993,0.8757 9.6922,1.0531 12.9508,1.2459 26.0555,2.5666 38.535,6.6435 -1.8564,-1.5486 -3.648,-3.1766 -5.5686,-4.6458 -0.8789,-0.6723 1.7929,1.3557 2.4365,2.2499 2.5791,3.5834 0.6464,8.3633 -0.041,12.1147 -2.7088,8.4103 -6.5214,11.9693 -14.1254,16.563 -12.6815,7.3154 -25.7836,13.9314 -39.3976,19.4789 -9.5061,4.4513 -20.4602,8.3223 -28.176,15.6147 -3.3444,3.1611 -3.9548,5.4289 -5.9067,9.5046 -0.9801,11.6801 -0.9382,23.6435 2.0934,35.1535 0.6774,1.6035 1.2112,3.2708 2.0324,4.8105 5.8987,11.0593 18.0461,17.8888 29.7995,21.286 1.5969,0.2105 3.1846,0.584 4.7908,0.6316 8.106,0.2399 15.8761,-2.9376 23.76,-4.0477 13.0268,-2.2608 26.3116,-4.2365 39.6375,-3.6731 3.1645,0.5478 5.5507,0.8265 8.5705,1.8054 1.0762,0.3491 3.9777,2.0416 3.1507,1.2692 -2.2845,-2.1334 -5.0425,-3.7091 -7.6372,-5.4588 -0.6162,-0.4156 1.3717,0.7863 1.6918,1.4499 0.2926,0.6066 -0.021,1.3293 -0.03,1.9939 -5.4686,7.7718 -14.2135,10.585 -23.167,13.1564 -9.8191,3.3171 -19.5801,7.0556 -29.9243,8.6217 -7.6018,1.2062 -15.4654,1.9398 -22.5126,5.0716 -8.0535,4.5332 -13.8847,9.8685 -11.4859,19.8834 1.6457,7.2122 3.6651,14.2952 6.7582,21.0899 0.7382,1.6217 1.1246,3.5294 2.4206,4.7732 3.8932,3.736 8.5643,6.5853 12.8463,9.8778 1.1411,0.616 2.1911,1.4501 3.4233,1.8482 7.6606,2.4741 17.2451,-3.3196 24.1893,-5.5195 9.24,-3.9739 18.1615,-9.0375 28.1396,-11.0754 6.2691,-0.9584 11.7342,-0.8714 17.8964,1.1749 1.4043,0.4663 5.0036,2.8233 4.1303,1.6343 -1.5687,-2.1355 -4.2781,-3.1651 -6.4171,-4.7476 0.9447,0.7818 2.0427,1.4124 2.8338,2.3452 4.2454,5.0064 1.7354,12.9106 1.513,18.5847 -1.1289,7.4081 -2.5504,15.0666 -9.4079,19.2912 -8.8243,4.8486 -18.5807,7.6192 -28.24,10.5254 -10.406,2.8186 -21.0114,4.4331 -31.8345,5.1461 -7.8128,0.9669 -15.8097,1.5683 -22.7707,5.4047 -6.6028,3.7214 -12.7369,8.4409 -16.5533,15.0597 -3.3584,8.0234 -0.9715,13.4013 5.0847,19.7166 10.7494,10.3092 22.872,20.0519 36.9943,25.2068 9.479,3.1912 19.1611,5.7434 28.5003,9.3497 1.5359,0.6463 3.1006,1.2272 4.6079,1.939 1.6727,0.7898 4.7609,4.3617 4.9235,2.5621 0.1741,-1.9308 -3.2395,-4.557 -4.8417,-3.4669 -1.5638,1.0642 3.0407,2.4082 4.4535,3.7312 3.459,3.2388 4.8401,5.226 7.8191,8.9223 1.0632,1.578 2.2603,3.0779 3.1895,4.7341 4.1046,7.3172 6.0136,16.2293 5.5671,24.3985 -4.0988,10.8959 -9.8704,14.4529 -20.0507,19.8515 -11.7422,5.8842 -23.4316,11.9242 -35.6841,16.7663 -11.4158,5.5442 -23.047,11.173 -32.5941,19.5539 -1.182,1.2334 -2.5283,2.3304 -3.5459,3.7002 -4.7183,6.351 -3.415,14.3876 -0.3897,21.2813 5.7945,11.3657 13.5736,21.5666 20.5821,32.2377 1.0115,1.4357 6.8327,9.9161 8.3992,11.3399 9.1379,8.3059 17.6503,15.1066 29.5556,17.9577 1.5545,0.5308 3.1343,0.9904 4.6637,1.5922 1.7044,0.6706 4.5981,3.9534 5.0279,2.2212 0.4645,-1.8715 -6.6329,-3.6779 -4.668,-3.6708 3.6528,0.012 10.3238,10.7495 11.6526,13.5369 0.5033,1.9019 1.1602,3.7741 1.5094,5.7055 1.3672,7.562 -0.3327,15.1606 -0.5366,22.7086 z"
           inkscape:label="legs color" />
        <g
           id="g404"
           inkscape:label="leg top"
           style="display:inline;fill:#000000">
          <path
             style="display:inline;opacity:1;fill:#000000;fill-opacity:0.992157;stroke-width:1.37953;stroke-linecap:round;stroke-linejoin:round"
             id="path399"
             d="m 1201.0502,1269.3737 c 7.1065,-0.4708 14.6594,-2.1743 21.7472,-0.5302 1.5252,0.3534 2.9236,1.1205 4.3854,1.6807 0.9361,1.2966 3.9236,5.0357 2.808,3.8898 -1.3314,-1.3677 -1.6157,-5.0465 -3.4621,-4.5617 -1.7249,0.4529 0.5274,3.5363 0.5788,5.3189 0.1474,5.1242 -1.0841,9.7868 -2.5659,14.6223 -3.3995,8.9151 -8.5212,17.0106 -13.5721,25.056 -6.5216,10.1622 -12.7796,20.4904 -19.6693,30.4083 -9.9685,13.796 -19.5803,27.8327 -28.9627,42.0321 0,0 5.3312,9.0046 5.3312,9.0046 v 0 c 9.4482,-14.0921 19.038,-28.0873 29.0945,-41.7553 6.9964,-9.8263 13.3002,-20.1091 19.8281,-30.2502 5.1034,-8.1133 10.2711,-16.2573 13.8067,-25.21 4.5052,-13.8487 4.0038,-27.5414 -7.5115,-38.6676 -1.5453,-0.5194 -3.0395,-1.2281 -4.6361,-1.5582 -7.2184,-1.4924 -14.7726,0.1283 -22.0153,0.4058 z" />
          <path
             style="opacity:1;fill:#000000;fill-opacity:0.992157;stroke-width:1.37953;stroke-linecap:round;stroke-linejoin:round"
             id="path400"
             d="m 1176.6538,1269.4539 c -4.6427,-10.9719 -10.9999,-19.7374 -19.9023,-27.3855 -9.2743,-6.7418 -16.7454,3.1116 -21.8954,10.1261 -7.5025,14.753 -8.0812,31.6278 -10.9816,47.6562 -4.1728,15.7143 -8.3793,31.4377 -13.9428,46.7238 -3.8454,10.3536 -8.9208,20.1503 -14.4971,29.6583 -4.4555,7.4374 -8.1078,15.3802 -11.5445,23.3362 -3.6385,9.2883 -8.2284,18.1327 -13.1036,26.8191 -6.5152,11.2557 -13.4948,22.2347 -20.4255,33.237 -6.0127,9.5368 -12.0091,19.0835 -18.0591,28.597 0,0 5.5604,9.3401 5.5604,9.3401 v 0 c 5.9899,-9.5531 12.0362,-19.0702 18.0565,-28.6041 6.9251,-11.0046 13.8484,-22.012 20.53,-33.1671 4.9119,-8.6977 9.5465,-17.5605 13.2069,-26.8693 3.4325,-7.909 7.0607,-15.821 11.4475,-23.2413 5.5951,-9.6148 10.701,-19.503 14.5332,-29.9725 5.6043,-15.3216 9.7442,-31.1 14.106,-46.811 2.8657,-15.8961 3.3493,-32.6399 10.6015,-47.3343 4.8853,-6.642 11.7228,-15.9584 20.3404,-9.1816 4.0263,3.59 7.7341,7.3374 10.8394,11.7758 0.7339,1.049 2.5483,4.4192 2.0824,3.2268 -0.95,-2.4321 -2.3665,-4.6553 -3.5497,-6.9829 z" />
          <path
             style="opacity:1;fill:#000000;fill-opacity:0.992157;stroke-width:1.37953;stroke-linecap:round;stroke-linejoin:round"
             id="path401"
             d="m 1169.7488,1374.9199 c -6.4133,10.5428 -13.0087,20.9741 -19.5549,31.4347 -11.2738,16.6904 -18.8407,34.7054 -23.6458,54.1963 -4.6295,20.5215 -7.7633,41.3259 -12.9528,61.7215 -4.2396,15.3647 -11.7856,29.4299 -19.7142,43.1475 -1.1018,1.6031 -1.9395,3.4242 -3.3049,4.8098 -6.0973,6.1881 -17.9267,7.7068 -26.1545,8.21 -9.1662,-0.1192 -15.844,-2.6086 -21.5654,-9.8014 -3.6654,-4.1467 -6.4101,-11.0751 -11.8525,-13.3864 -1.0904,-0.4631 -2.3324,-0.4161 -3.4986,-0.6243 -7.7536,0.3358 -15.3519,1.9524 -23.1266,1.7229 -1.028,-0.3388 -2.2072,-0.3818 -3.0843,-1.0164 -0.7531,-0.5445 -2.07228,-3.0856 -1.53638,-2.3263 1.54008,2.1824 2.21068,5.3068 4.54978,6.5964 1.1323,0.6239 0.1327,-2.5956 0.4218,-3.8558 0.8698,-3.7923 2.4786,-6.7935 4.0853,-10.3342 6.3492,-12.4159 13.891,-24.1725 21.3674,-35.9284 2.8357,-4.4677 5.6967,-8.9194 8.5553,-13.3725 0,0 -5.6158,-9.4421 -5.6158,-9.4421 v 0 c -2.8387,4.4837 -5.674,8.9694 -8.5126,13.4531 -7.4242,11.8377 -14.9268,23.6571 -21.4824,36.0052 -6.21848,12.9803 -7.20148,12.5317 0.4353,27.3371 1.2405,2.4048 3.1703,2.3183 5.4599,2.9064 7.7136,0.138 15.2495,-1.4778 22.9516,-1.5921 1.0157,0.2709 2.1112,0.334 3.047,0.8128 5.2616,2.6921 7.7936,9.3008 11.6162,13.4354 5.8999,6.6732 13.546,9.5344 22.4868,9.3181 8.8392,-0.679 20.3662,-2.0791 26.9971,-8.7247 1.3986,-1.4018 2.2315,-3.2716 3.3472,-4.9073 7.8938,-13.8574 15.5625,-27.9849 19.8798,-43.4372 5.177,-20.4403 8.1918,-41.3001 12.8822,-61.8492 4.704,-19.4117 12.1765,-37.2856 23.4526,-53.856 6.5754,-10.3526 13.1035,-20.7368 19.8111,-31.0042 z" />
          <path
             style="opacity:1;fill:#000000;fill-opacity:1;stroke-width:1.37953;stroke-linecap:round;stroke-linejoin:round"
             id="path402"
             d="m 1201.4291,1260.273 c -0.123,-0.027 -0.2451,-0.067 -0.3712,-0.072 -0.3106,-0.017 -1.0826,0.053 -1.3671,0.079 -0.8858,0.08 -1.7713,0.1629 -2.6569,0.2458 -1.1971,0.2689 -2.4546,0.4367 -3.599,0.9038 -0.7023,0.2867 -1.1356,0.5828 -1.7814,0.9729 -1.4982,1.0878 -2.8271,2.4243 -4.0006,3.8542 -1.2746,1.4627 -2.5043,2.9643 -3.7737,4.4323 -0.5893,0.6913 -1.1791,1.3819 -1.7642,2.0767 0,0 5.4701,9.3908 5.4701,9.3908 v 0 c 0.5264,-0.7412 1.0558,-1.4809 1.6459,-2.1736 1.254,-1.4783 2.564,-2.9031 3.8569,-4.3457 1.0877,-1.3575 2.24,-2.6878 3.6452,-3.7282 1.5293,-0.9326 3.1904,-1.4003 4.9645,-1.6172 1.2498,-0.1162 2.8419,-0.4302 3.896,0.4123 z" />
          <path
             style="opacity:1;fill:#000000;fill-opacity:1;stroke-width:1.37953;stroke-linecap:round;stroke-linejoin:round"
             id="path403"
             d="m 1169.3633,1263.9535 c 0.694,0.2575 1.0159,0.7209 1.3569,1.3533 0.1364,0.253 0.5367,1.0173 0.4017,0.7635 -1.506,-2.831 -3.0095,-5.6631 -4.5142,-8.4947 2.0895,4.2461 4.3373,8.4092 6.5732,12.5813 0.5837,1.0893 1.3671,2.0792 2.0383,3.1149 1.0852,1.6907 2.5964,3.0044 4.1912,4.1933 1.2458,0.8812 2.5103,1.7612 3.8775,2.4447 0.702,0.3108 1.4426,0.6589 2.1961,0.836 0.2975,0.066 0.9443,0.1116 1.2389,0.136 1.3265,0.1343 2.5202,-0.1756 3.6857,-0.7834 1.1864,-0.5516 2.2448,-1.2918 3.2001,-2.1798 0,0 -5.4304,-9.5932 -5.4304,-9.5932 v 0 c -0.8075,0.8897 -1.7378,1.6072 -2.8751,2.0333 -0.9916,0.4775 -1.9776,0.7071 -3.0853,0.5058 -1.0598,-0.21 -2.0944,-0.5776 -3.0541,-1.0754 -1.2733,-0.7318 -2.4904,-1.5583 -3.6727,-2.4291 -1.4757,-1.1862 -2.8008,-2.5218 -3.7969,-4.1477 -0.351,-0.5234 -0.9635,-1.4248 -1.2876,-1.9588 -0.2226,-0.3666 -0.8359,-1.4974 -0.6395,-1.1163 7.644,14.8239 4.827,9.3608 3.2498,6.0526 -1.8075,-3.4432 -3.5875,-6.901 -5.4225,-10.3296 -0.281,-0.5253 -0.6739,-1.0273 -1.1186,-1.4256 -0.3888,-0.348 -0.8773,-0.5756 -1.2748,-0.9137 z" />
          <path
             style="display:inline;opacity:1;fill:#ffffff;fill-opacity:1;stroke-width:1.37953;stroke-linecap:round;stroke-linejoin:round"
             d="m 1020.583,1553.9254 11.8044,-0.8463 6.8591,8.7113 c 9.0299,11.4681 15.2424,15.1438 25.7537,15.238 14.5023,0.1296 21.8146,-4.1273 30.3533,-17.671 11.3488,-18.0003 16.2426,-32.1817 23.8782,-69.1929 10.6945,-51.8388 12.2122,-55.4488 43.5585,-103.6168 53.1565,-81.6822 60.9673,-94.7409 62.422,-104.3617 0.9008,-5.9573 0.133,-9.6708 -2.3192,-11.2168 -4.665,-2.9411 -27.8448,1.705 -28.7094,5.7546 -2.0815,9.7486 -17.4422,3.5294 -24.3284,-9.8499 -5.8859,-11.436 -10.7288,-15.6883 -16.6821,-14.6478 -7.6293,1.3336 -15.4425,15.147 -18.2283,32.2267 -10.0524,61.6317 -22.8187,90.6399 -86.4773,196.4956 -23.3939,38.9009 -42.5666,71.001 -42.6062,71.3337 -0.2258,1.8975 4.2338,2.3952 14.7217,1.6433 z"
             id="path404"
             inkscape:label="color" />
        </g>
        <path
           style="display:none;opacity:1;fill:#003f00;fill-opacity:1;stroke-width:1.37953;stroke-linecap:round;stroke-linejoin:round"
           id="path408"
           d="m 1303.2007,1890.8292 c -0.4174,-6.5903 0.6197,-13.2974 -0.9175,-19.802 -0.3962,-1.6762 -1.0553,-3.2885 -1.5829,-4.9328 -0.9471,-1.5263 -1.7357,-3.1492 -2.8414,-4.5792 -2.1949,-2.8386 -4.8517,-5.0685 -8.0751,-6.8437 -9.7751,-5.3835 -13.6065,-7.4572 -23.2025,-9.6594 -1.3473,-0.1315 -14.7848,-3.0975 -13.9955,-4.7587 0.7056,-1.4853 4.457,2.9314 4.9948,1.3859 0.619,-1.7786 -2.7309,-2.7333 -4.0319,-4.1532 -1.4676,-1.6018 -2.8472,-3.2725 -4.2709,-4.9087 -6.8123,-8.5952 -14.269,-16.7835 -20.0735,-26.0272 -2.9733,-5.3712 -4.8309,-11.8405 -1.1058,-17.3763 0.7878,-1.1707 1.8692,-2.1437 2.8038,-3.2156 8.0721,-7.8004 18.1438,-13.3913 28.1458,-18.7365 10.7709,-5.0512 21.0283,-11.0024 31.3069,-16.8741 9.2354,-5.4362 14.3736,-9.0113 17.6596,-18.9341 0.4928,-9.3952 -3.2705,-17.7817 -9.021,-25.2828 -8.7539,-10.2619 -21.2753,-16.8399 -34.4956,-20.8256 -8.6392,-2.3464 -17.4877,-3.9109 -26.2048,-5.9928 1.5182,3.1289 -11.2418,-5.8174 -9.1818,-3.4127 1.1959,1.396 3.1094,2.8103 5.0096,2.6135 1.6748,-0.1734 -2.7809,-1.7824 -4.1495,-2.7026 -4.2554,-2.8612 -3.774,-2.5911 -7.6655,-5.6171 -5.3969,-4.5847 -8.3386,-8.6161 -5.9662,-15.3734 2.9869,-5.7705 8.0684,-10.0785 13.7428,-13.4953 6.0367,-3.5976 13.1405,-4.5768 20.0256,-5.8787 9.7217,-1.436 19.1933,-3.5627 28.4007,-6.8208 8.6941,-3.1361 17.4043,-6.2647 25.2184,-11.0717 6.2279,-4.2669 7.3221,-11.249 8.0233,-17.9704 -0.067,-5.138 1.7278,-11.8908 -1.9545,-16.3765 -0.6993,-0.8517 -1.6929,-1.4509 -2.5393,-2.1763 -12.8667,-7.0495 -18.9533,-10.5705 -33.1425,-6.8868 -8.9201,2.5553 -16.735,7.5765 -24.9224,11.6564 -5.8581,2.2888 -14.6318,8.0498 -21.3186,5.8148 -1.0745,-0.3591 -1.9468,-1.1144 -2.9201,-1.6716 2.1984,0.9132 4.2706,3.317 6.5954,2.7396 1.5373,-0.3817 -1.8417,-2.4328 -2.6344,-3.7234 -3.3308,-5.423 -5.4314,-11.3696 -7.2476,-17.3524 -2.5708,-8.0937 1.8308,-12.5256 8.7511,-16.6767 6.2258,-2.873 13.1491,-4.0853 19.8597,-5.5889 9.2324,-2.157 17.8038,-6.1551 26.4921,-9.7008 8.3296,-2.7616 15.9586,-6.1235 20.8302,-13.2513 0.092,-0.7112 0.4442,-1.4349 0.2752,-2.1336 -0.1727,-0.7138 -0.5947,-1.4518 -1.2418,-1.8627 -10.0211,-6.3623 -12.2448,-7.1275 -22.5655,-7.7682 -12.0621,0.9253 -24.0001,3.3994 -35.7203,6.182 -7.0191,1.4241 -13.9427,4.8059 -21.2467,4.9652 -1.411,0.031 -2.8082,-0.2691 -4.2123,-0.4036 1.9139,2.5721 -10.3326,-4.4309 -8.2643,-2.5304 1.4545,1.3365 3.3585,3.0292 5.3722,2.7339 1.568,-0.23 -2.4322,-1.92 -3.5149,-3.0062 -2.8517,-2.8613 -3.0322,-3.7299 -4.9772,-7.1635 -3.6024,-9.4451 -4.2398,-19.6205 -3.9353,-29.5688 0.6015,-1.4437 1.0277,-2.9626 1.8044,-4.3312 4.9883,-8.7888 18.0776,-14.0572 26.8709,-18.8074 12.0808,-5.6751 23.6461,-12.2601 34.8553,-19.3185 6.9763,-4.5355 10.2836,-8.0451 12.4998,-15.6943 2.8795,-13.8265 -1.9095,-12.9256 -15.8743,-19.7586 -11.605,-2.1906 -23.4767,-2.5131 -35.2749,-2.7316 -4.4241,0.055 -8.7137,0.084 -12.8862,-1.4806 -1.2161,-0.456 -4.713,-2.1362 -3.499,-1.6752 6.0482,2.2969 7.7464,4.3739 1.5102,-0.9048 -6.02,-5.9436 -12.0069,-12.2378 -13.84,-20.5213 -0.4361,-1.9702 -0.4869,-3.9983 -0.7303,-5.9975 0.057,-2.0263 -0.1832,-4.0793 0.172,-6.0789 2.0582,-11.5874 10.5865,-20.1028 19.8107,-27.2886 8.8351,-6.2222 18.5787,-11.1804 27.851,-16.7939 3.4907,-2.524 7.5995,-4.834 10.4137,-8.0963 1.5836,-1.8357 2.1022,-3.2326 3.1402,-5.3437 2.788,-8.7388 2.35,-18.1145 2.5043,-27.1563 0.087,-7.0952 0.14,-14.1914 0.076,-21.2871 -0.016,-6.232 -0.041,-12.4639 -0.069,-18.6959 0.2345,-8.3841 -1.1941,-16.665 -2.5656,-24.9165 -1.5833,-8.0133 -2.7829,-16.0343 -3.4092,-24.1648 -0.6581,-10.7173 -0.7093,-21.4571 -0.6897,-32.1889 0.026,-4.9393 0.011,-2.5541 0.044,-7.1558 0,0 -9.7737,-4.661 -9.7737,-4.661 v 0 c 0.035,4.6374 0.015,2.2336 0.062,7.2113 0.1222,10.7594 0.2228,21.5211 0.714,32.2727 0.5616,8.1374 1.5323,16.1898 3.2452,24.1914 1.4416,8.1911 2.954,16.422 2.6207,24.7613 -0.02,6.225 -0.034,12.4498 0.014,18.6748 0.01,7.1237 0.1969,14.2466 0.1433,21.3707 -0.102,8.8882 0.207,18.0793 -2.5041,26.6757 -3.0077,6.2034 -7.2817,9.1489 -13.1427,12.9972 -9.2168,5.689 -18.8944,10.754 -27.6675,17.045 -9.3679,7.4136 -18.0029,16.2155 -20.2997,27.9914 -0.3963,2.0319 -0.1588,4.1282 -0.2383,6.1924 0.1824,2.0466 0.1572,4.1188 0.5472,6.1399 1.6382,8.4888 7.529,14.8728 13.5854,20.9917 6.3606,5.6721 15.7373,12.32 24.7906,13.6095 1.9532,0.2782 6.9012,0.2311 8.7986,0.2401 11.7489,0.1825 23.6402,0.4186 35.1065,3.0614 -1.7531,-1.2012 -3.452,-2.4749 -5.2592,-3.6036 -0.8269,-0.5165 1.6862,1.0401 2.3121,1.7629 2.5081,2.897 1.0054,7.1288 0.5744,10.3933 -2.0197,7.3985 -5.2804,10.7118 -11.9098,15.172 -11.0737,7.1419 -22.5623,13.7126 -34.5665,19.4021 -8.353,4.4681 -18.0419,8.5376 -24.6361,15.3201 -2.8582,2.9399 -3.2945,4.9267 -4.8501,8.5559 -0.2949,10.0847 0.3466,20.3424 3.6629,30.0069 0.6923,1.3288 1.258,2.7223 2.0767,3.9867 5.8806,9.0815 17.1863,14.1079 27.9631,16.2173 1.4516,0.071 2.9031,0.2831 4.3548,0.214 7.3264,-0.3489 14.1772,-3.6057 21.235,-5.0973 11.6404,-2.8304 23.5279,-5.4338 35.5807,-5.8624 2.8831,0.2533 5.0502,0.3291 7.8245,0.9621 0.9887,0.2256 3.6923,1.4787 2.907,0.8729 -2.169,-1.6734 -4.7371,-2.8363 -7.1667,-4.1593 -0.577,-0.3142 1.2774,0.5806 1.5997,1.1278 0.2946,0.5002 0.049,1.1414 0.073,1.7122 -4.5423,7.0398 -12.2911,10.0509 -20.2402,12.8689 -8.6927,3.5169 -17.3117,7.3911 -26.5665,9.4421 -6.7984,1.5547 -13.857,2.7218 -20.0578,5.89 -7.0382,4.4391 -12.0305,9.4139 -9.3606,17.8394 1.8489,6.0729 4.0285,12.0097 7.1623,17.6256 0.748,1.3404 1.1929,2.9502 2.4252,3.9283 3.7014,2.9378 8.06,5.0619 12.09,7.5928 1.0607,0.4503 2.0503,1.0939 3.1822,1.3509 7.0372,1.5979 15.3932,-4.0269 21.5481,-6.389 8.137,-4.0404 15.9316,-8.9937 24.8323,-11.4243 5.6084,-1.2509 10.5441,-1.5503 16.2077,-0.2169 1.2907,0.3039 4.6573,2.0792 3.8093,1.1191 -1.5232,-1.7242 -4.0199,-2.4219 -6.0298,-3.6327 0.8918,0.6058 1.9144,1.0716 2.6753,1.8176 4.0834,4.0032 2.2175,10.9542 2.3031,15.8359 -0.6449,6.4308 -1.541,13.0966 -7.5155,17.1892 -7.7177,4.7622 -16.3814,7.806 -24.9505,10.9594 -9.2475,3.1294 -18.7356,5.2399 -28.4656,6.5919 -7.0009,1.3637 -14.1863,2.4267 -20.2738,6.1934 -5.7701,3.6435 -11.0669,8.1109 -14.1766,14.0488 -2.6254,7.1113 -0.2003,11.5603 5.5831,16.5624 10.2198,8.1065 21.65,15.633 34.6531,19.0879 8.7142,2.0885 17.5794,3.6149 26.1884,6.0689 1.4186,0.4492 2.8597,0.8404 4.2557,1.3477 1.5492,0.563 4.516,3.4152 4.572,1.8606 0.06,-1.668 -3.1532,-3.6868 -4.5438,-2.6421 -1.3574,1.0196 2.8652,1.8573 4.2068,2.8953 3.2845,2.5412 4.6311,4.151 7.5056,7.1175 1.039,1.2806 2.195,2.4851 3.1169,3.842 4.073,5.9949 6.2452,13.5078 6.2546,20.5449 -3.1487,9.6255 -8.1769,13.0711 -17.0905,18.3979 -10.2984,5.85 -20.5412,11.8303 -31.3527,16.8214 -10.0209,5.5362 -20.232,11.1597 -28.4237,19.0009 -1.0043,1.1389 -2.1638,2.1718 -3.0129,3.4163 -3.9369,5.7699 -2.3553,12.5734 0.7223,18.279 5.8022,9.3515 13.3362,17.5681 20.1987,26.2409 0.9851,1.1622 6.6658,8.0372 8.1512,9.1512 8.6645,6.4984 16.6887,11.7488 27.575,13.3794 1.4295,0.3489 2.8782,0.635 4.2886,1.0466 1.5717,0.4585 4.3484,3.076 4.6489,1.5609 0.3247,-1.6368 -6.1707,-2.7005 -4.3974,-2.8289 3.2967,-0.2389 9.858,8.5131 11.1977,10.8129 0.55,1.5967 1.2374,3.1576 1.6499,4.7902 1.6152,6.3921 0.4648,13.0256 0.6617,19.5131 z"
           inkscape:label="legs color" />
      </g>
    </g>
  </g>
</svg>
