<?xml version="1.0" encoding="UTF-8" standalone="no"?>
<!-- Created with Inkscape (http://www.inkscape.org/) -->

<svg
   width="514.72052"
   height="959.73376"
   viewBox="0 0 514.72052 959.73376"
   version="1.1"
   id="svg1"
   inkscape:version="1.3.2 (091e20e, 2023-11-25, custom)"
   sodipodi:docname="skeleton.svg"
   xmlns:inkscape="http://www.inkscape.org/namespaces/inkscape"
   xmlns:sodipodi="http://sodipodi.sourceforge.net/DTD/sodipodi-0.dtd"
   xmlns="http://www.w3.org/2000/svg"
   xmlns:svg="http://www.w3.org/2000/svg">
  <sodipodi:namedview
     id="namedview1"
     pagecolor="#ffffff"
     bordercolor="#000000"
     borderopacity="0.25"
     inkscape:showpageshadow="2"
     inkscape:pageopacity="0.0"
     inkscape:pagecheckerboard="0"
     inkscape:deskcolor="#d1d1d1"
     inkscape:document-units="px"
     inkscape:zoom="0.3"
     inkscape:cx="780"
     inkscape:cy="1215"
     inkscape:window-width="1304"
     inkscape:window-height="745"
     inkscape:window-x="1358"
     inkscape:window-y="-8"
     inkscape:window-maximized="1"
     inkscape:current-layer="g552" />
  <defs
     id="defs1">
    <filter
       inkscape:label="In and Out"
       inkscape:menu="Shadows and Glows"
       inkscape:menu-tooltip="Inner colorized shadow, outer black shadow"
       style="color-interpolation-filters:sRGB"
       id="filter2429"
       x="-0.07460746"
       y="-0.012972193"
       width="1.188073"
       height="1.0327007">
      <feGaussianBlur
         result="result0"
         in="SourceAlpha"
         stdDeviation="4"
         id="feGaussianBlur2429" />
      <feOffset
         dx="5"
         dy="5"
         result="result4"
         id="feOffset2429" />
      <feComposite
         in="SourceGraphic"
         in2="result4"
         operator="xor"
         result="result3"
         id="feComposite2429" />
    </filter>
    <filter
       style="color-interpolation-filters:sRGB"
       inkscape:label="Drop Shadow"
       id="filter2456"
       x="-0.82713358"
       y="-0.36061338"
       width="2.5868901"
       height="1.6492991">
      <feFlood
         result="flood"
         in="SourceGraphic"
         flood-opacity="0.780392"
         flood-color="rgb(0,0,0)"
         id="feFlood2455" />
      <feGaussianBlur
         result="blur"
         in="SourceGraphic"
         stdDeviation="27.355623"
         id="feGaussianBlur2455" />
      <feOffset
         result="offset"
         in="blur"
         dx="-9.574468"
         dy="-26.899696"
         id="feOffset2455" />
      <feComposite
         result="comp1"
         operator="in"
         in="flood"
         in2="offset"
         id="feComposite2455" />
      <feComposite
         result="fbSourceGraphic"
         operator="over"
         in="SourceGraphic"
         in2="comp1"
         id="feComposite2456" />
      <feColorMatrix
         result="fbSourceGraphicAlpha"
         in="fbSourceGraphic"
         values="0 0 0 -1 0 0 0 0 -1 0 0 0 0 -1 0 0 0 0 1 0"
         id="feColorMatrix2466" />
      <feFlood
         id="feFlood2466"
         result="flood"
         in="fbSourceGraphic"
         flood-opacity="0.780392"
         flood-color="rgb(0,0,0)" />
      <feGaussianBlur
         id="feGaussianBlur2466"
         result="blur"
         in="fbSourceGraphic"
         stdDeviation="17.629179" />
      <feOffset
         id="feOffset2466"
         result="offset"
         in="blur"
         dx="0.000000"
         dy="0.000000" />
      <feComposite
         id="feComposite2466"
         result="comp1"
         operator="out"
         in="flood"
         in2="offset" />
      <feComposite
         id="feComposite2467"
         result="comp2"
         operator="atop"
         in="comp1"
         in2="fbSourceGraphic" />
    </filter>
    <filter
       style="color-interpolation-filters:sRGB"
       inkscape:label="Drop Shadow"
       id="filter2494"
       x="-0.24599496"
       y="-0.037126327"
       width="1.4919899"
       height="1.0742527">
      <feFlood
         result="flood"
         in="SourceGraphic"
         flood-opacity="0.827451"
         flood-color="rgb(0,0,0)"
         id="feFlood2493" />
      <feGaussianBlur
         result="blur"
         in="SourceGraphic"
         stdDeviation="13.373860"
         id="feGaussianBlur2493" />
      <feOffset
         result="offset"
         in="blur"
         dx="0.000000"
         dy="0.000000"
         id="feOffset2493" />
      <feComposite
         result="comp1"
         operator="out"
         in="flood"
         in2="offset"
         id="feComposite2493" />
      <feComposite
         result="comp2"
         operator="atop"
         in="comp1"
         in2="SourceGraphic"
         id="feComposite2494" />
    </filter>
  </defs>
  <g
     id="g629"
     inkscape:label="skeleton"
     transform="translate(-971.31281,-1060.8998)">
    <g
       inkscape:groupmode="layer"
       id="g450"
       inkscape:label="body"
       style="display:inline;fill:#000000">
      <g
         id="g431"
         inkscape:label="leg front"
         style="display:inline"
         transform="translate(-4.6677472,-24.894652)">
        <path
           style="display:inline;opacity:1;fill:#003f00;fill-opacity:1;stroke-width:1.56526;stroke-linecap:round;stroke-linejoin:round;filter:url(#filter2494)"
           id="path421"
           d="m 1294.9903,2013.4309 c -0.033,-7.6865 1.5469,-15.3808 0.2732,-23.0664 -0.3284,-1.9806 -0.9509,-3.9101 -1.4263,-5.8652 -0.9458,-1.8551 -1.7105,-3.8083 -2.8377,-5.5656 -2.2374,-3.4882 -5.0239,-6.3104 -8.4652,-8.6547 -10.4355,-7.1094 -14.5281,-9.8538 -24.9726,-13.2546 -1.4781,-0.2713 -16.1113,-4.8969 -15.1327,-6.7557 0.875,-1.6619 4.7272,3.7951 5.421,2.0483 0.7984,-2.01 -2.8356,-3.413 -4.179,-5.1757 -1.5152,-1.9887 -2.9288,-4.0493 -4.3934,-6.0739 -6.9582,-10.5767 -14.6538,-20.7378 -20.4579,-31.9784 -2.9318,-6.4965 -4.5613,-14.1694 -0.092,-20.2674 0.9452,-1.2896 2.2015,-2.3237 3.3022,-3.4857 9.4125,-8.3441 20.8878,-13.9472 32.2703,-19.2715 12.2117,-4.9152 23.9152,-10.9204 35.637,-16.8314 10.5426,-5.4973 16.4437,-9.195 20.7135,-20.4238 1.1536,-10.8624 -2.4541,-20.9284 -8.3118,-30.1416 -8.9922,-12.6822 -22.3802,-21.4199 -36.7078,-27.2102 -9.3796,-3.4838 -19.0406,-6.0788 -28.5233,-9.2628 1.4721,3.7657 -12.0257,-7.742 -9.9089,-4.7694 1.2288,1.7257 3.2482,3.5358 5.3576,3.4746 1.8591,-0.054 -2.9526,-2.3137 -4.4028,-3.5023 -4.5094,-3.6958 -3.9958,-3.3399 -8.093,-7.195 -5.6567,-5.7967 -8.6407,-10.7353 -5.5846,-18.37 3.6702,-6.4354 9.5564,-10.9888 16.039,-14.4554 6.8939,-3.6447 14.7952,-4.156 22.4762,-5.0611 10.8194,-0.8114 21.4078,-2.4463 31.7779,-5.4178 9.796,-2.875 19.6093,-5.7399 28.5428,-10.6319 7.1484,-4.4048 8.8089,-12.4131 10.0189,-20.1534 0.2591,-5.9701 2.6782,-13.6505 -1.0933,-19.1815 -0.7163,-1.0502 -1.7737,-1.833 -2.6604,-2.7496 -13.7384,-9.3154 -20.2254,-13.9382 -36.1197,-10.9112 -10.0077,2.1808 -18.9559,7.3216 -28.2542,11.3367 -6.6119,2.1413 -16.6661,8.0561 -23.8986,4.8732 -1.1623,-0.5114 -2.0757,-1.4648 -3.1134,-2.1973 2.3662,1.2535 4.4964,4.2262 7.099,3.7605 1.7209,-0.3077 -1.874,-2.986 -2.6648,-4.5539 -3.323,-6.588 -5.2546,-13.6755 -6.87,-20.7801 -2.3111,-9.6212 2.833,-14.3783 10.7378,-18.5875 7.0557,-2.787 14.773,-3.5848 22.2746,-4.7395 10.3262,-1.6911 20.0429,-5.5776 29.859,-8.9286 9.3696,-2.4723 18.005,-5.7034 23.8428,-13.5483 0.1476,-0.8174 0.5831,-1.6264 0.4421,-2.4524 -0.1442,-0.8437 -0.562,-1.7376 -1.2493,-2.2715 -10.6434,-8.2672 -13.0472,-9.3512 -24.3927,-11.0033 -13.3684,0.013 -26.7005,1.8335 -39.8123,4.0319 -7.8367,1.0353 -15.6952,4.3512 -23.7641,3.8933 -1.5589,-0.088 -3.081,-0.5595 -4.6214,-0.8393 1.9446,3.1542 -11.1126,-6.0527 -8.9539,-3.6646 1.5179,1.6794 3.5089,3.8118 5.7497,3.6462 1.745,-0.1288 -2.5588,-2.4427 -3.6828,-3.7988 -2.9607,-3.5723 -3.1033,-4.5964 -5.0265,-8.7533 -3.3615,-11.2808 -3.4041,-23.1481 -2.4223,-34.6691 0.7574,-1.6229 1.3262,-3.3484 2.2721,-4.8686 6.0741,-9.7628 20.8578,-14.7261 30.8681,-19.4661 13.6974,-5.5241 26.8851,-12.1498 39.7107,-19.3564 7.9915,-4.6506 11.8684,-8.4334 14.8102,-17.1172 4.0746,-15.796 -1.2676,-15.1718 -16.2317,-24.3326 -12.6619,-3.5643 -25.7393,-4.9835 -38.7422,-6.2756 -4.8849,-0.3253 -9.6195,-0.6697 -14.1216,-2.8529 -1.3122,-0.6364 -5.0613,-2.8944 -3.7518,-2.2524 6.524,3.1984 8.2628,5.7589 1.725,-0.9173 -6.2561,-7.4291 -12.453,-15.2623 -13.9377,-25.0388 -0.3532,-2.3255 -0.2777,-4.684 -0.4165,-7.0261 0.1949,-2.3471 0.062,-4.7514 0.5845,-7.0411 3.0231,-13.2691 12.9854,-22.403 23.6291,-29.9322 10.1519,-6.4449 21.2242,-11.3426 31.8188,-17.0424 4.0153,-2.6226 8.6985,-4.9423 12.0153,-8.4814 1.8665,-1.9914 2.5293,-3.5673 3.8115,-5.9265 3.6434,-9.8984 3.7688,-20.82 4.526,-31.3018 0.5567,-8.2282 1.0758,-16.4606 1.466,-24.7027 0.3872,-7.2353 0.7641,-14.4714 1.1375,-21.7079 0.8032,-9.7113 -0.2355,-19.4493 -1.2129,-29.1481 -1.2268,-9.441 -2.0296,-18.8573 -2.1927,-28.35 -0.03,-12.4982 0.6102,-24.9693 1.3285,-37.4246 0.3493,-5.7312 0.178,-2.9637 0.5131,-8.3026 0,0 -10.481,-6.2706 -10.481,-6.2706 v 0 c -0.263,5.386 -0.1286,2.594 -0.3997,8.3763 -0.5638,12.5 -1.1513,25.0007 -1.3073,37.524 0.091,9.4952 0.6395,18.9276 2.0099,28.3664 1.0588,9.6349 2.1932,19.3222 1.2841,28.9729 -0.4257,7.2241 -0.8454,14.4485 -1.1967,21.6785 -0.4512,8.2699 -0.7076,16.5544 -1.2293,24.8192 -0.6896,10.3082 -0.9454,21.0041 -4.4946,30.7439 -3.7212,6.9361 -8.628,9.9789 -15.3445,13.9301 -10.5383,5.7923 -21.5446,10.8198 -31.6326,17.35 -10.817,7.781 -20.9156,17.2379 -24.2142,30.705 -0.5692,2.3237 -0.4433,4.778 -0.6649,7.1669 0.068,2.3918 -0.094,4.7949 0.2051,7.1751 1.2563,9.9979 7.3414,17.9267 13.6263,25.5625 6.6495,7.144 16.5634,15.6859 26.4684,17.9797 2.137,0.4948 7.5993,0.8757 9.6922,1.0531 12.9508,1.2459 26.0555,2.5666 38.535,6.6435 -1.8564,-1.5486 -3.648,-3.1766 -5.5686,-4.6458 -0.8789,-0.6723 1.7929,1.3557 2.4365,2.2499 2.5791,3.5834 0.6464,8.3633 -0.041,12.1147 -2.7088,8.4103 -6.5214,11.9693 -14.1254,16.563 -12.6815,7.3154 -25.7836,13.9314 -39.3976,19.4789 -9.5061,4.4513 -20.4602,8.3223 -28.176,15.6147 -3.3444,3.1611 -3.9548,5.4289 -5.9067,9.5046 -0.9801,11.6801 -0.9382,23.6435 2.0934,35.1535 0.6774,1.6035 1.2112,3.2708 2.0324,4.8105 5.8987,11.0593 18.0461,17.8888 29.7995,21.286 1.5969,0.2105 3.1846,0.584 4.7908,0.6316 8.106,0.2399 15.8761,-2.9376 23.76,-4.0477 13.0268,-2.2608 26.3116,-4.2365 39.6375,-3.6731 3.1645,0.5478 5.5507,0.8265 8.5705,1.8054 1.0762,0.3491 3.9777,2.0416 3.1507,1.2692 -2.2845,-2.1334 -5.0425,-3.7091 -7.6372,-5.4588 -0.6162,-0.4156 1.3717,0.7863 1.6918,1.4499 0.2926,0.6066 -0.021,1.3293 -0.03,1.9939 -5.4686,7.7718 -14.2135,10.585 -23.167,13.1564 -9.8191,3.3171 -19.5801,7.0556 -29.9243,8.6217 -7.6018,1.2062 -15.4654,1.9398 -22.5126,5.0716 -8.0535,4.5332 -13.8847,9.8685 -11.4859,19.8834 1.6457,7.2122 3.6651,14.2952 6.7582,21.0899 0.7382,1.6217 1.1246,3.5294 2.4206,4.7732 3.8932,3.736 8.5643,6.5853 12.8463,9.8778 1.1411,0.616 2.1911,1.4501 3.4233,1.8482 7.6606,2.4741 17.2451,-3.3196 24.1893,-5.5195 9.24,-3.9739 18.1615,-9.0375 28.1396,-11.0754 6.2691,-0.9584 11.7342,-0.8714 17.8964,1.1749 1.4043,0.4663 5.0036,2.8233 4.1303,1.6343 -1.5687,-2.1355 -4.2781,-3.1651 -6.4171,-4.7476 0.9447,0.7818 2.0427,1.4124 2.8338,2.3452 4.2454,5.0064 1.7354,12.9106 1.513,18.5847 -1.1289,7.4081 -2.5504,15.0666 -9.4079,19.2912 -8.8243,4.8486 -18.5807,7.6192 -28.24,10.5254 -10.406,2.8186 -21.0114,4.4331 -31.8345,5.1461 -7.8128,0.9669 -15.8097,1.5683 -22.7707,5.4047 -6.6028,3.7214 -12.7369,8.4409 -16.5533,15.0597 -3.3584,8.0234 -0.9715,13.4013 5.0847,19.7166 10.7494,10.3092 22.872,20.0519 36.9943,25.2068 9.479,3.1912 19.1611,5.7434 28.5003,9.3497 1.5359,0.6463 3.1006,1.2272 4.6079,1.939 1.6727,0.7898 4.7609,4.3617 4.9235,2.5621 0.1741,-1.9308 -3.2395,-4.557 -4.8417,-3.4669 -1.5638,1.0642 3.0407,2.4082 4.4535,3.7312 3.459,3.2388 4.8401,5.226 7.8191,8.9223 1.0632,1.578 2.2603,3.0779 3.1895,4.7341 4.1046,7.3172 6.0136,16.2293 5.5671,24.3985 -4.0988,10.8959 -9.8704,14.4529 -20.0507,19.8515 -11.7422,5.8842 -23.4316,11.9242 -35.6841,16.7663 -11.4158,5.5442 -23.047,11.173 -32.5941,19.5539 -1.182,1.2334 -2.5283,2.3304 -3.5459,3.7002 -4.7183,6.351 -3.415,14.3876 -0.3897,21.2813 5.7945,11.3657 13.5736,21.5666 20.5821,32.2377 1.0115,1.4357 6.8327,9.9161 8.3992,11.3399 9.1379,8.3059 17.6503,15.1066 29.5556,17.9577 1.5545,0.5308 3.1343,0.9904 4.6637,1.5922 1.7044,0.6706 4.5981,3.9534 5.0279,2.2212 0.4645,-1.8715 -6.6329,-3.6779 -4.668,-3.6708 3.6528,0.012 10.3238,10.7495 11.6526,13.5369 0.5033,1.9019 1.1602,3.7741 1.5094,5.7055 1.3672,7.562 -0.3327,15.1606 -0.5366,22.7086 z"
           inkscape:label="legs color"
           transform="matrix(0.77676593,0,0,1,259.34357,0)" />
        <g
           id="g427"
           inkscape:label="leg top"
           style="display:inline;fill:#000000;filter:url(#filter2456)"
           transform="rotate(15,1234.4839,1445.4926)">
          <path
             style="display:inline;opacity:1;fill:#000000;fill-opacity:0.992157;stroke-width:1.37953;stroke-linecap:round;stroke-linejoin:round"
             id="path422"
             d="m 1228.5889,1277.7283 c 5.7604,-4.1883 11.241,-9.6574 18.1135,-12.0468 1.4787,-0.5141 3.0707,-0.6114 4.606,-0.9171 1.4833,0.5976 6.0047,2.1673 4.4499,1.7929 -1.8558,-0.4469 -4.0582,-3.4072 -5.3615,-2.0124 -1.2176,1.3031 2.332,2.7101 3.3262,4.1907 2.8576,4.2559 4.3026,8.8569 5.6279,13.7376 1.879,9.3544 1.864,18.934 1.8821,28.4335 -0.097,12.0744 0.1176,24.1487 -0.4211,36.2128 -1.0748,16.9866 -1.7194,33.9866 -2.0832,51.0019 0,0 9.312,4.7738 9.312,4.7738 v 0 c 0.4768,-16.9595 1.1249,-33.9127 2.3424,-50.838 0.6778,-12.0435 0.5262,-24.1038 0.6398,-36.1638 -0.01,-9.5849 0.018,-19.23 -1.7658,-28.6888 -3.5748,-14.1176 -11.3016,-25.433 -26.9764,-28.7034 -1.5842,0.3848 -3.2261,0.5822 -4.7527,1.1545 -6.9021,2.5872 -12.4279,7.987 -18.4066,12.0845 z" />
          <path
             style="opacity:1;fill:#000000;fill-opacity:0.992157;stroke-width:1.37953;stroke-linecap:round;stroke-linejoin:round"
             id="path423"
             d="m 1207.9945,1290.8073 c -9.7789,-6.8053 -19.8313,-10.8297 -31.4409,-12.5515 -11.4408,-0.7567 -12.5057,11.5629 -13.1211,20.2432 1.5216,16.481 10.0317,31.0642 16.1266,46.1696 4.8509,15.5184 9.6783,31.0625 13.1244,46.9603 2.2689,10.809 3.2004,21.803 3.5542,32.82 0.1975,8.6675 1.3441,17.3343 2.6801,25.8973 1.8757,9.7976 2.71,19.727 3.2187,29.675 0.4916,12.996 0.4429,26.0057 0.4478,39.009 0,11.274 0.019,22.5477 -0.025,33.8218 0,0 9.6849,4.9355 9.6849,4.9355 v 0 c -0.028,-11.2757 0.011,-22.5509 0.019,-33.8265 -0.011,-13.0023 -0.025,-26.0059 -0.3221,-39.0056 -0.4836,-9.9771 -1.29,-19.9459 -3.1582,-29.7726 -1.3144,-8.521 -2.4649,-17.1488 -2.7115,-25.7653 -0.3948,-11.1173 -1.3493,-22.2049 -3.6912,-33.105 -3.4305,-15.9496 -8.3434,-31.5046 -13.0328,-47.121 -6.0537,-14.9751 -14.5744,-29.3968 -16.2765,-45.6948 0.5902,-8.2239 1.4055,-19.7513 12.3094,-18.6147 5.3206,0.8895 10.4556,2.082 15.4495,4.1804 1.1802,0.4959 4.5125,2.3792 3.4825,1.6189 -2.1008,-1.5506 -4.4846,-2.6758 -6.7269,-4.0137 z" />
          <path
             style="opacity:1;fill:#000000;fill-opacity:0.992157;stroke-width:1.37953;stroke-linecap:round;stroke-linejoin:round"
             id="path424"
             d="m 1258.4008,1383.7049 c 0.1976,12.3386 0.1817,24.68 0.2231,37.02 -0.6354,20.1312 2.5715,39.406 8.9017,58.4561 7.0284,19.8286 15.473,39.0985 21.9605,59.119 4.6081,15.2583 5.7261,31.1807 6.335,47.0131 -0.077,1.9437 0.1856,3.9309 -0.2304,5.8312 -1.8576,8.4865 -11.0543,16.08 -17.7459,20.8937 -7.8174,4.7878 -14.7939,6.2433 -23.4698,3.2102 -5.312,-1.5529 -11.3289,-5.9499 -17.1654,-5.0025 -1.1693,0.1898 -2.1949,0.8918 -3.2924,1.3378 -6.3798,4.4192 -11.9452,9.839 -18.6442,13.7913 -1.0503,0.2617 -2.0708,0.8542 -3.1511,0.7852 -0.9274,-0.059 -3.3986,-1.505 -2.5404,-1.1485 2.4668,1.0247 4.7003,3.3101 7.3668,3.1534 1.2906,-0.076 -1.2721,-2.2663 -1.6996,-3.4865 -1.2866,-3.6719 -1.5265,-7.0686 -2.0557,-10.9207 -1.2508,-13.8889 -1.1411,-27.8561 -1.0864,-41.788 0.016,-5.2916 0.062,-10.5831 0.1052,-15.8746 0,0 -9.7862,-4.9922 -9.7862,-4.9922 v 0 c -0.01,5.3067 -0.016,10.6134 -0.026,15.9201 0.033,13.9732 -0.01,27.9726 1.0301,41.9143 1.6624,14.2966 0.5916,14.4414 14.9477,22.8926 2.3318,1.3727 3.9182,0.2703 6.1686,-0.4532 6.5986,-3.9972 12.1116,-9.3831 18.5659,-13.5875 1.0037,-0.3125 1.9641,-0.8434 3.011,-0.9375 5.8867,-0.5288 11.553,3.7112 16.9917,5.1701 8.5498,2.4983 16.5437,0.8408 23.9914,-4.1104 7.1151,-5.2886 16.1192,-12.6205 18.1842,-21.7786 0.4355,-1.9316 0.1428,-3.9575 0.2143,-5.9362 -0.7131,-15.9321 -1.7606,-31.9726 -6.3496,-47.3464 -6.5219,-20.0517 -15.0966,-39.3051 -22.0882,-59.1894 -6.3735,-18.9293 -9.585,-38.0343 -8.8838,-58.0652 0.041,-12.2642 0.025,-24.5299 0.2232,-36.7926 z" />
          <path
             style="opacity:1;fill:#000000;fill-opacity:1;stroke-width:1.37953;stroke-linecap:round;stroke-linejoin:round"
             id="path425"
             d="m 1224.0559,1269.8278 c -0.1178,0.045 -0.2431,0.074 -0.3533,0.135 -0.2717,0.1513 -0.8874,0.6224 -1.1144,0.7957 -0.7069,0.5396 -1.4115,1.0825 -2.1164,1.6249 -0.8693,0.8659 -1.8435,1.6785 -2.5624,2.684 -0.4413,0.6171 -0.6499,1.0987 -0.9881,1.7731 -0.6872,1.7192 -1.0985,3.5584 -1.3286,5.3939 -0.2981,1.9171 -0.5375,3.8431 -0.8284,5.7619 -0.1298,0.899 -0.2604,1.7978 -0.3848,2.6976 0,0 9.6355,5.0265 9.6355,5.0265 v 0 c 0.05,-0.9077 0.1033,-1.8158 0.2331,-2.7165 0.2723,-1.9193 0.6207,-3.8232 0.9449,-5.7331 0.1962,-1.7284 0.4614,-3.4683 1.0952,-5.0978 0.7963,-1.6045 1.952,-2.886 3.337,-4.0157 0.9953,-0.7648 2.1747,-1.8795 3.5156,-1.729 z" />
          <path
             style="opacity:1;fill:#000000;fill-opacity:1;stroke-width:1.37953;stroke-linecap:round;stroke-linejoin:round"
             id="path426"
             d="m 1198.8939,1290.0426 c 0.7244,-0.1523 1.2438,0.068 1.8695,0.4211 0.2504,0.1413 0.9966,0.5743 0.747,0.4316 -2.7837,-1.5916 -5.566,-3.1854 -8.349,-4.7782 4.0321,2.4774 8.1538,4.8003 12.2702,7.137 1.0748,0.6101 2.2653,1.0298 3.3855,1.548 1.8197,0.8513 3.7986,1.1567 5.7818,1.3118 1.5238,0.081 3.0628,0.1511 4.5838,0 0.7596,-0.1115 1.5718,-0.212 2.3035,-0.464 0.2883,-0.099 0.8583,-0.4092 1.1206,-0.5457 1.1938,-0.5938 2.0382,-1.4926 2.7,-2.6283 0.7094,-1.0994 1.2099,-2.2899 1.5445,-3.5506 0,0 -9.7099,-5.2189 -9.7099,-5.2189 v 0 c -0.2086,1.1833 -0.6129,2.2864 -1.3477,3.2534 -0.5842,0.9327 -1.2958,1.6528 -2.3401,2.0733 -1.0085,0.3877 -2.0798,0.6283 -3.1571,0.7191 -1.4674,0.06 -2.9378,0.01 -4.4023,-0.096 -1.881,-0.2165 -3.7142,-0.6395 -5.4239,-1.4837 -0.576,-0.2556 -1.5749,-0.6914 -2.1339,-0.9703 -0.3837,-0.1914 -1.5057,-0.8208 -1.1362,-0.6032 14.372,8.463 9.0755,5.3441 5.977,3.3868 -3.3653,-1.9487 -6.7152,-3.9244 -10.096,-5.8461 -0.5178,-0.2944 -1.1179,-0.5095 -1.7065,-0.6093 -0.5146,-0.087 -1.0491,-0.019 -1.5657,-0.093 z" />
          <path
             style="display:inline;opacity:1;fill:#ffffff;fill-opacity:1;stroke-width:1.37953;stroke-linecap:round;stroke-linejoin:round"
             d="m 1227.6871,1614.6812 9.5341,-7.0114 10.4482,3.7108 c 13.7546,4.8852 20.9702,4.6813 29.9121,-0.845 12.3368,-7.6246 16.252,-15.1255 16.252,-31.1361 0,-21.2792 -3.4234,-35.8855 -16.7032,-71.2659 -18.6002,-49.5547 -19.2417,-53.4179 -18.4145,-110.8814 1.4028,-97.4456 1.0456,-112.6578 -2.8548,-121.572 -2.4152,-5.5197 -5.0452,-8.2515 -7.944,-8.2515 -5.5148,0 -22.645,16.2926 -21.2166,20.1792 3.4386,9.3565 -12.8724,12.2879 -25.8329,4.6428 -11.0781,-6.5348 -17.4426,-7.5491 -21.9236,-3.4938 -5.7425,5.1969 -4.9848,21.0488 1.7676,36.9824 24.3662,57.4963 29.0377,88.8432 31.6433,212.3383 0.9575,45.3832 1.8587,82.7624 2.0027,83.065 0.8209,1.7254 4.8588,-0.2319 13.3296,-6.4614 z"
             id="path427"
             inkscape:label="color" />
        </g>
        <path
           style="display:inline;opacity:1;fill:#003f00;fill-opacity:1;stroke-width:1.37953;stroke-linecap:round;stroke-linejoin:round;filter:url(#filter2429)"
           id="path431"
           d="m 1282.9738,1937.5067 c -0.4174,-6.5903 0.6197,-13.2974 -0.9175,-19.802 -0.3962,-1.6762 -1.0553,-3.2885 -1.5829,-4.9328 -0.9471,-1.5263 -1.7357,-3.1492 -2.8414,-4.5792 -2.1949,-2.8386 -4.8517,-5.0685 -8.0751,-6.8437 -9.7751,-5.3835 -13.6065,-7.4572 -23.2025,-9.6594 -1.3473,-0.1315 -14.7848,-3.0975 -13.9955,-4.7587 0.7056,-1.4853 4.457,2.9314 4.9948,1.3859 0.619,-1.7786 -2.7309,-2.7333 -4.0319,-4.1532 -1.4676,-1.6018 -2.8472,-3.2725 -4.2709,-4.9087 -6.8123,-8.5952 -14.269,-16.7835 -20.0735,-26.0272 -2.9733,-5.3712 -4.8309,-11.8405 -1.1058,-17.3763 0.7878,-1.1707 1.8692,-2.1437 2.8038,-3.2156 8.0721,-7.8004 18.1438,-13.3913 28.1458,-18.7365 10.7709,-5.0512 21.0283,-11.0024 31.3069,-16.8741 9.2354,-5.4362 14.3736,-9.0113 17.6596,-18.9341 0.4928,-9.3952 -3.2705,-17.7817 -9.021,-25.2828 -8.7539,-10.2619 -21.2753,-16.8399 -34.4956,-20.8256 -8.6392,-2.3464 -17.4877,-3.9109 -26.2048,-5.9928 1.5182,3.1289 -11.2418,-5.8174 -9.1818,-3.4127 1.1959,1.396 3.1094,2.8103 5.0096,2.6135 1.6748,-0.1734 -2.7809,-1.7824 -4.1495,-2.7026 -4.2554,-2.8612 -3.774,-2.5911 -7.6655,-5.6171 -5.3969,-4.5847 -8.3386,-8.6161 -5.9662,-15.3734 2.9869,-5.7705 8.0684,-10.0785 13.7428,-13.4953 6.0367,-3.5976 13.1405,-4.5768 20.0256,-5.8787 9.7217,-1.436 19.1933,-3.5627 28.4007,-6.8208 8.6941,-3.1361 17.4043,-6.2647 25.2184,-11.0717 6.2279,-4.2669 7.3221,-11.249 8.0233,-17.9704 -0.067,-5.138 1.7278,-11.8908 -1.9545,-16.3765 -0.6993,-0.8517 -1.6929,-1.4509 -2.5393,-2.1763 -12.8667,-7.0495 -18.9533,-10.5705 -33.1425,-6.8868 -8.9201,2.5553 -16.735,7.5765 -24.9224,11.6564 -5.8581,2.2888 -14.6318,8.0498 -21.3186,5.8148 -1.0745,-0.3591 -1.9468,-1.1144 -2.9201,-1.6716 2.1984,0.9132 4.2706,3.317 6.5954,2.7396 1.5373,-0.3817 -1.8417,-2.4328 -2.6344,-3.7234 -3.3308,-5.423 -5.4314,-11.3696 -7.2476,-17.3524 -2.5708,-8.0937 1.8308,-12.5256 8.7511,-16.6767 6.2258,-2.873 13.1491,-4.0853 19.8597,-5.5889 9.2324,-2.157 17.8038,-6.1551 26.4921,-9.7008 8.3296,-2.7616 15.9586,-6.1235 20.8302,-13.2513 0.092,-0.7112 0.4442,-1.4349 0.2752,-2.1336 -0.1727,-0.7138 -0.5947,-1.4518 -1.2418,-1.8627 -10.0211,-6.3623 -12.2448,-7.1275 -22.5655,-7.7682 -12.0621,0.9253 -24.0001,3.3994 -35.7203,6.182 -7.0191,1.4241 -13.9427,4.8059 -21.2467,4.9652 -1.411,0.031 -2.8082,-0.2691 -4.2123,-0.4036 1.9139,2.5721 -10.3326,-4.4309 -8.2643,-2.5304 1.4545,1.3365 3.3585,3.0292 5.3722,2.7339 1.568,-0.23 -2.4322,-1.92 -3.5149,-3.0062 -2.8517,-2.8613 -3.0322,-3.7299 -4.9772,-7.1635 -3.6024,-9.4451 -4.2398,-19.6205 -3.9353,-29.5688 0.6015,-1.4437 1.0277,-2.9626 1.8044,-4.3312 4.9883,-8.7888 18.0776,-14.0572 26.8709,-18.8074 12.0808,-5.6751 23.6461,-12.2601 34.8553,-19.3185 6.9763,-4.5355 10.2836,-8.0451 12.4998,-15.6943 2.8795,-13.8265 -1.9095,-12.9256 -15.8743,-19.7586 -11.605,-2.1906 -23.4767,-2.5131 -35.2749,-2.7316 -4.4241,0.055 -8.7137,0.084 -12.8862,-1.4806 -1.2161,-0.456 -4.713,-2.1362 -3.499,-1.6752 6.0482,2.2969 7.7464,4.3739 1.5102,-0.9048 -6.02,-5.9436 -12.0069,-12.2378 -13.84,-20.5213 -0.4361,-1.9702 -0.4869,-3.9983 -0.7303,-5.9975 0.057,-2.0263 -0.1832,-4.0793 0.172,-6.0789 2.0582,-11.5874 10.5865,-20.1028 19.8107,-27.2886 8.8351,-6.2222 18.5787,-11.1804 27.851,-16.7939 3.4907,-2.524 7.5995,-4.834 10.4137,-8.0963 1.5836,-1.8357 2.1022,-3.2326 3.1402,-5.3437 2.788,-8.7388 2.35,-18.1145 2.5043,-27.1563 0.087,-7.0952 0.14,-14.1914 0.076,-21.2871 -0.016,-6.232 -0.041,-12.4639 -0.069,-18.6959 0.2345,-8.3841 -1.1941,-16.665 -2.5656,-24.9165 -1.5833,-8.0133 -2.7829,-16.0343 -3.4092,-24.1648 -0.6581,-10.7173 -0.7093,-21.4571 -0.6897,-32.1889 0.026,-4.9393 0.011,-2.5541 0.044,-7.1558 0,0 -9.7737,-4.661 -9.7737,-4.661 v 0 c 0.035,4.6374 0.015,2.2336 0.062,7.2113 0.1222,10.7594 0.2228,21.5211 0.714,32.2727 0.5616,8.1374 1.5323,16.1898 3.2452,24.1914 1.4416,8.1911 2.954,16.422 2.6207,24.7613 -0.02,6.225 -0.034,12.4498 0.014,18.6748 0.01,7.1237 0.1969,14.2466 0.1433,21.3707 -0.102,8.8882 0.207,18.0793 -2.5041,26.6757 -3.0077,6.2034 -7.2817,9.1489 -13.1427,12.9972 -9.2168,5.689 -18.8944,10.754 -27.6675,17.045 -9.3679,7.4136 -18.0029,16.2155 -20.2997,27.9914 -0.3963,2.0319 -0.1588,4.1282 -0.2383,6.1924 0.1824,2.0466 0.1572,4.1188 0.5472,6.1399 1.6382,8.4888 7.529,14.8728 13.5854,20.9917 6.3606,5.6721 15.7373,12.32 24.7906,13.6095 1.9532,0.2782 6.9012,0.2311 8.7986,0.2401 11.7489,0.1825 23.6402,0.4186 35.1065,3.0614 -1.7531,-1.2012 -3.452,-2.4749 -5.2592,-3.6036 -0.8269,-0.5165 1.6862,1.0401 2.3121,1.7629 2.5081,2.897 1.0054,7.1288 0.5744,10.3933 -2.0197,7.3985 -5.2804,10.7118 -11.9098,15.172 -11.0737,7.1419 -22.5623,13.7126 -34.5665,19.4021 -8.353,4.4681 -18.0419,8.5376 -24.6361,15.3201 -2.8582,2.9399 -3.2945,4.9267 -4.8501,8.5559 -0.2949,10.0847 0.3466,20.3424 3.6629,30.0069 0.6923,1.3288 1.258,2.7223 2.0767,3.9867 5.8806,9.0815 17.1863,14.1079 27.9631,16.2173 1.4516,0.071 2.9031,0.2831 4.3548,0.214 7.3264,-0.3489 14.1772,-3.6057 21.235,-5.0973 11.6404,-2.8304 23.5279,-5.4338 35.5807,-5.8624 2.8831,0.2533 5.0502,0.3291 7.8245,0.9621 0.9887,0.2256 3.6923,1.4787 2.907,0.8729 -2.169,-1.6734 -4.7371,-2.8363 -7.1667,-4.1593 -0.577,-0.3142 1.2774,0.5806 1.5997,1.1278 0.2946,0.5002 0.049,1.1414 0.073,1.7122 -4.5423,7.0398 -12.2911,10.0509 -20.2402,12.8689 -8.6927,3.5169 -17.3117,7.3911 -26.5665,9.4421 -6.7984,1.5547 -13.857,2.7218 -20.0578,5.89 -7.0382,4.4391 -12.0305,9.4139 -9.3606,17.8394 1.8489,6.0729 4.0285,12.0097 7.1623,17.6256 0.748,1.3404 1.1929,2.9502 2.4252,3.9283 3.7014,2.9378 8.06,5.0619 12.09,7.5928 1.0607,0.4503 2.0503,1.0939 3.1822,1.3509 7.0372,1.5979 15.3932,-4.0269 21.5481,-6.389 8.137,-4.0404 15.9316,-8.9937 24.8323,-11.4243 5.6084,-1.2509 10.5441,-1.5503 16.2077,-0.2169 1.2907,0.3039 4.6573,2.0792 3.8093,1.1191 -1.5232,-1.7242 -4.0199,-2.4219 -6.0298,-3.6327 0.8918,0.6058 1.9144,1.0716 2.6753,1.8176 4.0834,4.0032 2.2175,10.9542 2.3031,15.8359 -0.6449,6.4308 -1.541,13.0966 -7.5155,17.1892 -7.7177,4.7622 -16.3814,7.806 -24.9505,10.9594 -9.2475,3.1294 -18.7356,5.2399 -28.4656,6.5919 -7.0009,1.3637 -14.1863,2.4267 -20.2738,6.1934 -5.7701,3.6435 -11.0669,8.1109 -14.1766,14.0488 -2.6254,7.1113 -0.2003,11.5603 5.5831,16.5624 10.2198,8.1065 21.65,15.633 34.6531,19.0879 8.7142,2.0885 17.5794,3.6149 26.1884,6.0689 1.4186,0.4492 2.8597,0.8404 4.2557,1.3477 1.5492,0.563 4.516,3.4152 4.572,1.8606 0.06,-1.668 -3.1532,-3.6868 -4.5438,-2.6421 -1.3574,1.0196 2.8652,1.8573 4.2068,2.8953 3.2845,2.5412 4.6311,4.151 7.5056,7.1175 1.039,1.2806 2.195,2.4851 3.1169,3.842 4.073,5.9949 6.2452,13.5078 6.2546,20.5449 -3.1487,9.6255 -8.1769,13.0711 -17.0905,18.3979 -10.2984,5.85 -20.5412,11.8303 -31.3527,16.8214 -10.0209,5.5362 -20.232,11.1597 -28.4237,19.0009 -1.0043,1.1389 -2.1638,2.1718 -3.0129,3.4163 -3.9369,5.7699 -2.3553,12.5734 0.7223,18.279 5.8022,9.3515 13.3362,17.5681 20.1987,26.2409 0.9851,1.1622 6.6658,8.0372 8.1512,9.1512 8.6645,6.4984 16.6887,11.7488 27.575,13.3794 1.4295,0.3489 2.8782,0.635 4.2886,1.0466 1.5717,0.4585 4.3484,3.076 4.6489,1.5609 0.3247,-1.6368 -6.1707,-2.7005 -4.3974,-2.8289 3.2967,-0.2389 9.858,8.5131 11.1977,10.8129 0.55,1.5967 1.2374,3.1576 1.6499,4.7902 1.6152,6.3921 0.4648,13.0256 0.6617,19.5131 z"
           inkscape:label="legs color" />
      </g>
    </g>
  </g>
</svg>
