<?xml version="1.0" encoding="UTF-8" standalone="no"?>
<!-- Created with Inkscape (http://www.inkscape.org/) -->

<svg
   width="129.34698"
   height="333.68213"
   viewBox="0 0 129.34698 333.68213"
   version="1.1"
   id="svg1"
   inkscape:version="1.3.2 (091e20e, 2023-11-25, custom)"
   sodipodi:docname="skeleton.svg"
   xmlns:inkscape="http://www.inkscape.org/namespaces/inkscape"
   xmlns:sodipodi="http://sodipodi.sourceforge.net/DTD/sodipodi-0.dtd"
   xmlns="http://www.w3.org/2000/svg"
   xmlns:svg="http://www.w3.org/2000/svg">
  <sodipodi:namedview
     id="namedview1"
     pagecolor="#ffffff"
     bordercolor="#000000"
     borderopacity="0.25"
     inkscape:showpageshadow="2"
     inkscape:pageopacity="0.0"
     inkscape:pagecheckerboard="0"
     inkscape:deskcolor="#d1d1d1"
     inkscape:document-units="px"
     inkscape:zoom="0.3"
     inkscape:cx="780"
     inkscape:cy="1215"
     inkscape:window-width="1304"
     inkscape:window-height="745"
     inkscape:window-x="1358"
     inkscape:window-y="-8"
     inkscape:window-maximized="1"
     inkscape:current-layer="g552" />
  <defs
     id="defs1">
    <filter
       style="color-interpolation-filters:sRGB"
       inkscape:label="Drop Shadow"
       id="filter2875"
       x="-0.47205349"
       y="-0.18235339"
       width="1.944107"
       height="1.3647068">
      <feFlood
         result="flood"
         in="SourceGraphic"
         flood-opacity="1.000000"
         flood-color="rgb(0,0,0)"
         id="feFlood2874" />
      <feGaussianBlur
         result="blur"
         in="SourceGraphic"
         stdDeviation="46.200607"
         id="feGaussianBlur2874" />
      <feOffset
         result="offset"
         in="blur"
         dx="0.000000"
         dy="0.000000"
         id="feOffset2874" />
      <feComposite
         result="comp1"
         operator="out"
         in="flood"
         in2="offset"
         id="feComposite2874" />
      <feComposite
         result="comp2"
         operator="atop"
         in="comp1"
         in2="SourceGraphic"
         id="feComposite2875" />
    </filter>
  </defs>
  <g
     id="g629"
     inkscape:label="skeleton"
     transform="translate(-891.61646,-1470.8373)">
    <g
       inkscape:groupmode="layer"
       id="g450"
       inkscape:label="body"
       style="display:inline;fill:#000000">
      <g
         id="g408"
         inkscape:label="leg back"
         style="display:inline;fill:#000000;filter:url(#filter2875)"
         inkscape:transform-center-x="-39.306467"
         inkscape:transform-center-y="14.448692"
         transform="rotate(19.848966,1225.8692,1219.7119)">
        <g
           id="g407"
           inkscape:label="leg bottom"
           style="display:inline">
          <path
             style="display:inline;opacity:1;fill:#000000;fill-opacity:0.992157;stroke-width:1.37953;stroke-linecap:round;stroke-linejoin:round"
             id="path405"
             d="m 1047.7522,1568.0654 c 3.9601,-7.5884 10.5173,-13.3774 17.5589,-18.0362 1.3605,-0.6124 2.6753,-1.3386 4.0816,-1.8371 2.3547,-0.8347 6.2175,-1.5527 8.6746,-1.7297 1.4505,-0.1044 5.7889,-0.2773 4.3627,0.01 -6.679,1.33 -10.0921,-0.8354 -3.1564,2.1523 9.1813,5.8075 13.2245,15.5785 17.1422,25.2359 3.9993,10.7944 6.6977,22.0083 10.6398,32.8102 5.5379,13.6545 12.6644,26.5772 19.8574,39.4099 8.9531,15.8507 18.1677,31.5515 27.2689,47.3172 1.5166,2.6268 3.0246,5.2587 4.5412,7.8856 0,0 10.6568,-0.5596 10.6568,-0.5596 v 0 c -1.5284,-2.6272 -3.055,-5.2553 -4.5824,-7.8829 -9.1201,-15.7285 -18.1963,-31.4829 -27.1506,-47.3064 -7.1028,-12.7966 -14.2583,-25.6264 -19.7002,-39.2416 -3.8872,-10.8336 -6.7033,-22.0226 -10.6361,-32.8505 -3.9725,-9.8663 -7.9615,-19.8075 -17.0791,-26.0606 -1.2778,-0.6553 -2.411,-1.7669 -3.8331,-1.9659 -10.7979,-1.5111 -22.2325,-1.6292 -32.0242,3.548 -7.0772,4.9276 -13.5751,10.8346 -17.8205,18.451 z" />
          <path
             style="display:inline;opacity:1;fill:#000000;fill-opacity:0.992157;stroke-width:1.37953;stroke-linecap:round;stroke-linejoin:round"
             id="path406"
             d="m 1040.5093,1570.3345 c -6.2697,-8.1218 -22.0427,-5.918 -30.4984,-4.6965 -8.4083,1.1735 -10.25625,7.7573 -9.0835,15.1405 2.4553,8.2247 7.1298,15.6295 11.366,23.0422 5.3889,10.0885 11.9557,19.4009 18.4567,28.7819 9.2094,12.4349 19.0977,24.3466 29.6398,35.6701 9.6566,9.4088 17.5926,20.1974 24.9666,31.4243 6.727,10.1645 12.2536,21.0679 18.9953,31.2138 5.3114,7.2477 10.5792,14.5053 15.432,22.0698 6.5024,11.8441 15.2956,22.109 23.6233,32.6723 6.0495,8.2296 12.0329,16.4644 18.4055,24.449 4.6803,6.616 9.6424,12.9708 14.7239,19.2803 4.9643,6.8182 9.2059,14.2099 17.2208,17.6591 11.3807,2.3603 20.4382,-0.5652 29.9857,-5.6372 0.743,-0.7405 1.7498,-1.2883 2.229,-2.2213 2.9733,-5.7903 -1.8286,-16.3511 -4.1063,-21.745 -4.077,-9.6723 -5.8326,-20.0121 -8.9138,-30.032 -7.6549,-20.0453 -17.5821,-39.1163 -27.5233,-58.098 -5.3547,-10.0149 -10.8861,-19.9335 -16.4904,-29.8105 0,0 -10.9598,0.5722 -10.9598,0.5722 v 0 c 5.7308,9.848 11.4131,19.7259 16.8198,29.7567 10.0805,18.8072 20.0616,37.7875 27.3254,57.8965 2.972,10.0779 4.652,20.4683 8.7702,30.1553 2.0104,4.7223 7.005,15.3868 3.998,20.3988 -0.4979,0.8299 -1.4503,1.2821 -2.1756,1.9231 -2.9954,1.5512 -5.9886,3.1237 -9.205,4.183 -1.0652,0.3507 -4.318,0.5678 -3.2441,0.8905 2.4614,0.7392 5.139,0.2004 7.6973,0.4471 1.0545,0.1016 -2.119,-0.01 -3.1785,-0.012 -8.2478,-2.8244 -12.4153,-10.2665 -17.2302,-17.0742 -5.0738,-6.3194 -10.1118,-12.6179 -14.7398,-19.278 -6.4316,-7.9752 -12.5099,-16.1673 -18.5633,-24.4324 -8.3662,-10.4784 -17.1709,-20.6771 -23.5259,-32.5615 -4.7631,-7.6445 -10.0162,-14.9186 -15.4525,-22.0993 -6.8587,-10.0846 -12.3389,-21.0452 -19.1195,-31.1917 -7.3461,-11.3223 -15.2268,-22.2347 -25.0186,-31.6113 -10.6132,-11.1929 -20.3495,-23.1416 -29.5572,-35.5132 -6.4389,-9.3567 -12.9727,-18.6338 -18.2857,-28.7008 -4.2039,-7.2814 -8.774,-14.5664 -11.2542,-22.6478 -1.1964,-7.1309 0.9617,-12.4811 8.8927,-13.3751 1.3668,-0.1568 5.4446,-0.1777 4.1003,-0.4705 -2.2349,-0.4867 -4.585,-0.3616 -6.8606,-0.1307 -1.2191,0.1237 2.4378,0.261 3.6473,0.4568 3.0695,0.4968 5.7868,1.0097 7.5037,3.8415 z" />
          <path
             style="display:inline;opacity:1;fill:#ffffff;fill-opacity:1;stroke-width:1.37953;stroke-linecap:round;stroke-linejoin:round"
             d="m 1214.1057,1834.3117 c 0.045,-1.504 -3.667,-15.0821 -8.249,-30.1734 -8.2005,-27.0096 -9.0252,-28.7075 -52.7085,-108.531 -37.4931,-68.5118 -45.417,-84.2501 -51.0776,-101.4479 -8.7011,-26.4357 -18.1407,-43.0475 -25.3423,-44.5972 -6.5999,-1.4203 -18.9438,5.477 -23.983,13.4008 -3.2355,5.0877 -5.0027,6.1347 -12.9635,7.6807 -5.0694,0.9845 -11.5001,0.7258 -14.2901,-0.5747 -6.3278,-2.9496 -12.3942,0.3145 -12.1929,6.5605 0.4524,14.0454 26.5351,54.4113 56.7945,87.8956 12.0756,13.3628 24.121,29.9082 43.1154,59.2229 14.4971,22.3737 30.6678,46.195 35.935,52.9361 5.2672,6.7411 18.4706,23.9271 29.3409,38.1913 10.8703,14.2641 20.8422,26.5147 22.1597,27.2236 3.1165,1.6768 13.3552,-4.2462 13.4615,-7.787 z"
             id="path407"
             inkscape:label="color" />
        </g>
      </g>
    </g>
  </g>
</svg>
