<?xml version="1.0" encoding="UTF-8" standalone="no"?>
<!-- Created with Inkscape (http://www.inkscape.org/) -->

<svg
   width="231.86298"
   height="162.90253"
   viewBox="0 0 231.86298 162.90253"
   version="1.1"
   id="svg1"
   inkscape:version="1.3.2 (091e20e, 2023-11-25, custom)"
   sodipodi:docname="skeleton.svg"
   xmlns:inkscape="http://www.inkscape.org/namespaces/inkscape"
   xmlns:sodipodi="http://sodipodi.sourceforge.net/DTD/sodipodi-0.dtd"
   xmlns="http://www.w3.org/2000/svg"
   xmlns:svg="http://www.w3.org/2000/svg">
  <sodipodi:namedview
     id="namedview1"
     pagecolor="#ffffff"
     bordercolor="#000000"
     borderopacity="0.25"
     inkscape:showpageshadow="2"
     inkscape:pageopacity="0.0"
     inkscape:pagecheckerboard="0"
     inkscape:deskcolor="#d1d1d1"
     inkscape:document-units="px"
     inkscape:zoom="0.3"
     inkscape:cx="780"
     inkscape:cy="1215"
     inkscape:window-width="1304"
     inkscape:window-height="745"
     inkscape:window-x="1358"
     inkscape:window-y="-8"
     inkscape:window-maximized="1"
     inkscape:current-layer="g552" />
  <defs
     id="defs1" />
  <g
     id="g629"
     inkscape:label="skeleton"
     transform="translate(-918.11444,-526.85669)">
    <g
       inkscape:label="skull"
       inkscape:groupmode="layer"
       id="g552"
       style="display:inline;fill:#000000">
      <g
         id="g540"
         style="display:inline;fill:#000000"
         inkscape:label="mouth">
        <path
           style="fill:#000000;stroke-width:1.37953;stroke-linecap:round;stroke-linejoin:round"
           id="path536"
           d="m 1123.6807,533.12246 c 4.0424,2.65381 6.8273,6.52098 9.3752,10.54324 3.5719,5.79967 5.8478,12.185 7.2563,18.81642 0.5357,4.00581 -1.457,7.53121 -2.7752,11.17711 -0.6858,1.89711 -3.3321,9.73871 -3.8644,11.30889 -5.3341,14.98392 -9.814,30.25052 -14.8263,45.33918 -2.584,8.27669 -6.5434,15.93394 -10.6757,23.51274 0,0 8.9826,5.8193 8.9826,5.8193 v 0 c 4.0352,-7.7254 8.1569,-15.40137 10.4542,-23.87434 4.7724,-15.15113 9.2287,-30.41078 14.8983,-45.2641 1.5294,-4.21303 2.4995,-7.00218 4.131,-11.08472 1.508,-3.7734 3.7277,-7.41241 3.2829,-11.62723 -1.4604,-6.71909 -3.7065,-13.23379 -7.1846,-19.1974 -2.4084,-4.04602 -4.9865,-7.97679 -8.8415,-10.79942 z" />
        <path
           style="display:inline;fill:#000000;stroke-width:1.37953;stroke-linecap:round;stroke-linejoin:round"
           id="path537"
           d="m 1116.0236,529.05134 c 0.3453,4.37102 -1.4168,7.51469 -3.8729,11.16354 -2.319,3.69809 -5.7489,6.25167 -9.8997,8.22753 -2.8132,1.25659 -5.896,1.54047 -8.9904,1.71417 -0.495,-0.0979 -1.0134,-0.12896 -1.485,-0.29359 -0.4912,-0.17146 -1.8444,-0.90664 -1.3693,-0.70282 3.196,1.37165 6.2078,3.10633 9.536,4.20773 0.6688,0.22133 -0.9183,-0.96675 -1.3182,-1.48816 -1.0579,-1.38013 -1.3904,-2.16939 -2.1862,-3.67792 -3.1,-4.70627 -5.4001,-9.7864 -8.5567,-14.45661 -4.6704,-4.1995 -3.8942,-3.89403 -15.0397,-6.84784 -0.9026,-0.2392 -1.7461,0.63673 -2.5665,1.04534 -2.6414,1.31563 -4.5206,3.03719 -6.4235,5.06988 -3.3879,4.05807 -4.207,9.09727 -5.0094,13.95579 -0.093,0.71739 -0.186,1.43477 -0.2789,2.15216 0,0 11.2525,4.856 11.2525,4.856 v 0 c 0.076,-0.71114 0.1516,-1.42231 0.2273,-2.13346 0.6915,-4.66219 1.4696,-9.51158 4.6689,-13.41818 1.7811,-1.84156 3.5622,-3.55179 6.1244,-4.58206 0.7317,-0.29425 2.8814,-0.1234 2.3081,-0.62033 -1.8878,-1.63675 -13.3441,-7.7435 -6.7875,-3.64155 3.3709,4.51156 5.3692,9.6646 8.5546,14.28414 0.4015,0.84496 2.4722,5.13577 3.2286,5.59038 4.3355,2.60584 9.7526,6.66029 15.5892,6.94191 3.2327,-0.23126 6.393,-0.71526 9.2583,-2.14646 4.2167,-2.18888 7.7253,-4.94585 10.1287,-8.77242 2.6577,-3.89673 4.3775,-6.97218 4.4308,-11.61979 z" />
        <path
           style="fill:#000000;stroke-width:1.37953;stroke-linecap:round;stroke-linejoin:round"
           id="path538"
           d="m 1109.129,651.96281 c -6.0506,6.61503 -13.0704,12.11166 -20.3789,17.25286 -5.1491,3.20116 -10.4787,6.1329 -16.1901,8.21298 -5.3309,1.94148 -10.8366,3.07313 -16.3916,4.12409 -10.488,1.65609 -21.121,1.81977 -31.7137,1.91913 -8.5806,0.008 -17.1612,-0.045 -25.74182,-0.0756 -6.60526,-0.12108 -13.22277,0.10628 -19.82166,-0.23122 -5.78746,-0.61433 -11.5623,-1.14455 -17.20561,-2.59876 -5.13242,-1.05801 -10.06318,-2.82982 -15.0331,-4.4442 -1.83321,-0.50456 -3.40484,-1.56533 -5.02975,-2.50606 0,0 8.627,6.96984 8.627,6.96984 v 0 c 1.64616,0.89856 3.29368,1.80479 5.11872,2.29974 4.94743,1.62943 9.91662,3.20274 15.00962,4.32431 5.68687,1.35146 11.50767,1.83821 17.31678,2.41205 6.56904,0.2557 13.14472,0.0182 19.71722,0.0989 8.5475,0.0234 17.0953,0.0808 25.6426,-0.0158 10.6146,-0.14527 21.2661,-0.35199 31.7618,-2.11863 4.852,-0.9635 6.2333,-1.12404 10.9979,-2.52925 7.7426,-2.28352 14.9797,-5.81654 21.7222,-10.24644 7.3493,-5.1677 14.4064,-10.66428 21.0207,-16.74759 z" />
        <path
           style="display:inline;fill:#000000;stroke-width:1.37953;stroke-linecap:round;stroke-linejoin:round"
           id="path539"
           d="m 1059.9991,548.47637 c -0.4379,7.28266 -2.1028,14.48059 -4.1228,21.47372 -1.7833,6.67978 -3.964,13.24108 -6.3204,19.73748 -2.0083,6.18762 -4.8308,12.07135 -7.9538,17.76465 -2.8186,4.62576 -6.3203,8.88222 -10.7935,11.97543 -4.0607,2.72951 -8.4747,4.77719 -12.9981,6.60105 -5.6342,2.06779 -11.0842,4.53623 -16.9082,6.02375 -6.37018,1.30948 -12.89308,1.57741 -19.37665,1.73146 -5.34646,0.22158 -10.63844,-0.71987 -15.84254,-1.83463 -4.48852,-1.0678 -9.08548,-1.25591 -13.67466,-1.3813 -6.05112,-0.0909 -12.10308,-0.0677 -18.15467,-0.0894 -3.00171,0.33954 -7.33085,-0.94422 -9.97884,0.84656 -0.46277,0.31297 -0.80898,0.7707 -1.21347,1.15605 -2.22958,2.90745 -2.27132,6.46066 -2.34095,9.96348 0.0288,5.37013 -0.12505,10.7471 0.13013,16.11267 0.57609,5.78559 4.5779,9.59346 8.71868,13.23562 7.12295,5.47194 14.72986,10.71787 23.29268,13.61242 4.48902,1.13166 9.14339,1.08346 13.73906,1.11392 2.22901,0.0114 4.45805,0.009 6.68708,0.007 0,0 -8.94956,-6.49482 -8.94956,-6.49482 v 0 c -2.20274,0.0221 -4.40559,0.0453 -6.60848,0.0274 -4.54899,-0.07 -9.17613,-0.0915 -13.56588,-1.43924 -3.57542,-1.33858 -10.89516,-5.46339 2.89666,2.38285 0.83518,0.47513 -1.64876,-0.9886 -2.44876,-1.52082 -1.33943,-0.89109 -3.69547,-2.66405 -4.96186,-3.60266 -4.04893,-3.3941 -8.08764,-6.90393 -8.97635,-12.38982 -0.37883,-5.32671 -0.17791,-10.68133 -0.15946,-16.01766 0.12664,-3.14118 0.0317,-6.4915 2.00447,-9.12711 0.33165,-0.27776 0.61613,-0.62438 0.99494,-0.83329 2.42428,-1.33689 6.9018,-0.19663 9.59727,-0.59865 6.04786,-0.0309 12.09744,-0.0416 18.14354,0.12748 4.56528,0.18001 9.12467,0.51864 13.59018,1.55017 5.25943,1.03496 10.60498,1.88506 15.98394,1.6189 6.50558,-0.25835 13.0495,-0.65728 19.4351,-1.98961 5.8445,-1.56081 11.355,-4.00037 17.0134,-6.1191 4.6119,-1.84841 9.1477,-3.90346 13.2372,-6.76229 4.4639,-3.34343 8.0468,-7.71259 10.9698,-12.44505 3.0941,-5.76484 5.8809,-11.72803 7.9993,-17.92431 2.3858,-6.52504 4.4452,-13.15709 6.2299,-19.87324 2.0137,-7.05761 3.5217,-14.28711 4.6718,-21.53119 z" />
        <path
           style="display:inline;opacity:1;fill:#ffffff;fill-opacity:1;stroke-width:1.37953;stroke-linecap:round;stroke-linejoin:round"
           d="m 1050.5982,681.49795 c 12.2002,-1.51397 19.2304,-3.61785 29.9853,-8.97342 11.0027,-5.47898 26.1413,-18.12504 30.074,-25.12234 4.6864,-8.33838 28.2538,-79.25386 28.2642,-85.04864 0.01,-5.0483 -7.4618,-21.26057 -10.1048,-21.92802 -0.8558,-0.21611 -2.9563,1.79487 -4.6678,4.46885 -10.6453,16.63169 -30.6693,15.66495 -40.8521,-1.97232 l -4.6004,-7.9682 -3.3353,4.24019 c -1.8345,2.33211 -3.3354,4.75422 -3.3354,5.38247 0,5.42358 -5.493,30.24523 -9.2112,41.62336 -6.1179,18.72158 -12.7279,31.50337 -19.2558,37.23491 -7.216,6.33577 -27.1371,14.40817 -41.4735,16.80589 -6.45978,1.08038 -12.97033,2.47666 -14.4679,3.10284 -1.59833,0.66832 -2.72285,0.4563 -2.72285,-0.51336 0,-0.90853 -2.54204,-2.12876 -5.64897,-2.71163 -4.2036,-0.7886 -7.3884,-0.21466 -12.44732,2.24315 L 960,645.66458 v -3.86957 c 0,-3.48764 -0.62436,-3.86956 -6.32595,-3.86956 -3.47927,0 -7.68025,0.72479 -9.33549,1.61066 -2.07455,1.11026 -3.00955,1.11026 -3.00955,0 0,-2.8807 -7.60377,-1.73459 -9.28076,1.39888 -2.8488,5.32306 -1.95136,22.08518 1.48413,27.71979 1.69573,2.7812 3.61856,5.11507 4.27295,5.18639 5.05559,0.55093 8.88848,1.46454 19.08284,4.54856 10.42406,3.15352 15.48828,3.57705 47.45543,3.96878 19.6823,0.24119 40.4969,-0.14607 46.2546,-0.86056 z"
           id="path540"
           inkscape:label="color" />
      </g>
      <g
         id="g550"
         inkscape:label="teeth bottom"
         transform="matrix(0.99993862,-0.01107938,-0.01107938,-0.99993862,3.0504718,1224.5812)"
         style="display:inline;fill:#000000">
        <path
           style="display:inline;fill:#000000;stroke-width:1.37953;stroke-linecap:round;stroke-linejoin:round"
           id="path546"
           d="m 1039.9769,585.43174 c -1.7494,3.83817 -3.2658,7.80329 -5.4269,11.43229 -2.539,3.41277 -6.4828,4.28895 -10.5171,4.36751 -1.0304,-0.11845 -2.2424,-0.0872 -3.1099,-0.82112 -0.4097,-0.34659 -1.2291,-1.75876 -0.9023,-1.33321 8.8462,11.5177 5.7044,9.02454 4.6609,4.23793 -0.3724,-4.04045 1.2928,-7.91881 2.7647,-11.59908 0.2056,-0.47225 0.413,-0.94366 0.6195,-1.41549 0,0 -6.9259,-8.69512 -6.9259,-8.69512 v 0 c -0.1995,0.4902 -0.399,0.9804 -0.5986,1.4706 -1.5448,3.80917 -3.2111,7.81737 -3.2655,11.97146 0.8933,6.08458 2.8675,7.15189 7.8104,13.91009 0.3437,0.46989 0.8501,0.81956 1.3677,1.08587 1.0857,0.55856 2.295,0.50589 3.4631,0.57897 4.3647,-0.28349 8.5806,-1.40679 11.3705,-5.03686 2.2482,-3.6018 3.6946,-7.61643 5.622,-11.39491 z" />
        <path
           style="display:inline;fill:#000000;stroke-width:1.37953;stroke-linecap:round;stroke-linejoin:round"
           id="path547"
           d="m 1017.3191,575.84704 c -1.5284,3.93136 -2.8171,7.97625 -4.7684,11.72218 -2.341,3.55153 -6.2287,4.65039 -10.252,4.95805 -1.0355,-0.0597 -2.2437,0.0403 -3.15148,-0.64308 -0.42874,-0.32275 -1.32705,-1.68609 -0.97654,-1.27979 9.48622,10.99644 6.20792,8.68582 4.89412,3.96625 -0.6015,-4.01277 0.8408,-7.97948 2.1011,-11.73744 0.1785,-0.48317 0.3588,-0.96561 0.5381,-1.44841 0,0 -7.40876,-8.28753 -7.40876,-8.28753 v 0 c -0.17135,0.50074 -0.3427,1.00148 -0.51405,1.50223 -1.32594,3.8908 -2.76179,7.98721 -2.58002,12.13768 1.2376,6.02398 3.26926,6.9774 8.58813,13.44382 0.3698,0.4496 0.8953,0.76993 1.4272,1.00639 1.1157,0.49598 2.3201,0.37467 3.4904,0.38126 4.3415,-0.53103 8.4868,-1.89208 11.0659,-5.67481 2.04,-3.72373 3.2559,-7.81406 4.9655,-11.69595 z" />
        <path
           style="display:inline;fill:#000000;stroke-width:1.37953;stroke-linecap:round;stroke-linejoin:round"
           id="path548"
           d="m 989.70069,570.50604 c 0.0658,4.21752 0.39643,8.44982 5.7e-4,12.65495 -0.83003,4.17189 -4.01699,6.65481 -7.62769,8.45595 -0.98166,0.33491 -2.06311,0.88292 -3.16156,0.59198 -0.51878,-0.13739 -1.86461,-1.06169 -1.38684,-0.81743 12.93093,6.61084 9.02353,5.70601 6.02803,1.82948 -2.06932,-3.49026 -2.22828,-7.70803 -2.47699,-11.66391 -0.0168,-0.51479 -0.0316,-1.0296 -0.0474,-1.5444 0,0 -9.98575,-4.88453 -9.98575,-4.88453 v 0 c 0.03,0.5284 0.06,1.0568 0.09,1.5852 0.23806,4.10363 0.45178,8.43912 2.18424,12.2151 3.41649,5.11348 5.65766,5.23098 13.02128,9.21626 0.51201,0.27707 1.11946,0.37576 1.70126,0.39434 1.22032,0.039 2.29023,-0.52727 3.37678,-0.96221 3.8213,-2.12797 7.14808,-4.95082 8.11151,-9.42658 0.48627,-4.21796 0.0711,-8.46494 0.19179,-12.7049 z" />
        <path
           style="display:inline;fill:#000000;stroke-width:1.37953;stroke-linecap:round;stroke-linejoin:round"
           id="path549"
           d="m 963.71585,569.49451 c 0.01,4.21802 0.2847,8.45432 -0.1667,12.65385 -0.8851,4.16056 -4.1046,6.60113 -7.7388,8.35439 -0.986,0.32191 -2.0746,0.85557 -3.1691,0.55014 -0.51692,-0.14423 -1.85042,-1.08624 -1.37592,-0.83569 12.84242,6.78118 8.94732,5.82478 6.00332,1.909 -2.023,-3.51731 -2.1262,-7.73681 -2.3226,-11.69563 -0.01,-0.51497 -0.018,-1.02993 -0.027,-1.54489 0,0 -9.92032,-5.0161 -9.92032,-5.0161 v 0 c 0.023,0.52875 0.046,1.0575 0.069,1.58625 0.1838,4.10642 0.3402,8.44436 2.0226,12.24291 3.3486,5.15819 5.58802,5.3053 12.89832,9.38756 0.5083,0.28382 1.1144,0.39053 1.6959,0.4168 1.2197,0.0551 2.297,-0.49696 3.3892,-0.9175 3.8491,-2.07727 7.2129,-4.8559 8.2354,-9.31854 0.542,-4.21116 0.183,-8.46326 0.3597,-12.70125 z" />
        <path
           style="display:inline;fill:#000000;stroke-width:1.37953;stroke-linecap:round;stroke-linejoin:round"
           id="path550"
           d="m 945.43998,574.98297 c -2.30025,3.53563 -4.38897,7.23143 -7.06525,10.49905 -3.01792,2.99763 -7.04817,3.27809 -11.04931,2.75636 -1.0014,-0.27025 -2.20455,-0.41943 -2.9534,-1.2741 -0.35368,-0.40363 -0.95413,-1.92187 -0.69414,-1.45248 7.03661,12.70426 4.30018,9.77196 3.97947,4.88344 0.23201,-4.05095 2.45506,-7.63883 4.45744,-11.05954 0.27349,-0.43647 0.54864,-0.87183 0.82296,-1.30773 0,0 -5.55712,-9.6277 -5.55712,-9.6277 v 0 c -0.27014,0.45511 -0.54029,0.91022 -0.81044,1.36533 -2.09371,3.53736 -4.33706,7.25348 -5.00805,11.35338 -0.0207,6.14977 1.77303,7.49857 5.65687,14.91619 0.27006,0.51574 0.71892,0.93678 1.19121,1.27703 0.99064,0.71369 2.19441,0.84129 3.33866,1.08711 4.35834,0.36819 8.69438,-0.11623 11.99264,-3.29148 2.75847,-3.22776 4.78528,-6.98293 7.25271,-10.43308 z" />
        <g
           id="g2898"
           inkscape:label="color teeth bottom"
           style="display:inline;fill:#000000"
           transform="matrix(0.99993862,-0.01107938,-0.01107938,-0.99993862,10.517316,1224.5398)">
          <path
             style="display:inline;opacity:1;fill:#ef0000;fill-opacity:1;stroke-width:1.37953;stroke-linecap:round;stroke-linejoin:round"
             d="m 934.1329,630.14587 1.55592,-0.19449 -1.07721,-1.09489 c -1.9363,-1.96808 -4.90746,-2.85041 -8.9325,-2.65265 l -1.0632,0.0522 0.72396,1.84765 0.72396,1.84765 3.25658,0.19449 c 1.79112,0.10697 3.95674,0.10697 4.81249,0 z"
             id="path807" />
          <path
             style="display:inline;opacity:1;fill:#ef0000;fill-opacity:1;stroke-width:1.37953;stroke-linecap:round;stroke-linejoin:round"
             d="m 959.22204,630.20339 c 0,-1.14387 -4.7801,-5.88269 -5.94155,-5.89025 -0.46256,-0.003 -0.95735,1.56884 -1.2624,4.01039 l -0.27629,2.21132 h 3.74012 c 2.05707,0 3.74012,-0.14916 3.74012,-0.33146 z"
             id="path808" />
          <path
             style="display:inline;opacity:1;fill:#ef0000;fill-opacity:1;stroke-width:1.37953;stroke-linecap:round;stroke-linejoin:round"
             d="m 986.06159,631.88334 c 0,-3.145 -2.50621,-6.82338 -5.81469,-8.53427 -1.04173,-0.53869 -1.15296,-0.53119 -1.33449,0.09 -0.52785,1.80613 -1.01938,5.54345 -1.01938,7.75071 v 2.45693 h 4.08428 4.08428 z"
             id="path809" />
          <path
             style="display:inline;opacity:1;fill:#ef0000;fill-opacity:1;stroke-width:1.37953;stroke-linecap:round;stroke-linejoin:round"
             d="m 1006.6775,630.0547 c 1.8184,-0.66492 3.3623,-1.24954 3.4307,-1.29916 0.068,-0.0496 -0.2226,-0.76356 -0.6467,-1.58656 -1.5118,-2.93412 -4.6711,-5.10415 -8.3845,-5.75907 l -1.51624,-0.2674 0.22481,1.87607 c 0.12365,1.03184 0.68233,3.32016 1.24143,5.08515 0.7603,2.40026 1.1839,3.20288 1.6804,3.1845 0.365,-0.0135 2.1516,-0.5686 3.9701,-1.23353 z"
             id="path810" />
          <path
             style="display:inline;opacity:1;fill:#ef0000;fill-opacity:1;stroke-width:1.37953;stroke-linecap:round;stroke-linejoin:round"
             d="m 1028.0713,620.81549 c 1.8185,-1.095 3.4195,-2.11299 3.5577,-2.26219 0.4797,-0.51762 -1.6591,-3.23515 -3.4303,-4.35838 -1.7053,-1.0815 -5.3705,-2.13631 -6.5079,-1.87291 -0.4512,0.10451 -0.4249,0.57979 0.1583,2.86248 0.3846,1.50544 1.198,3.83623 1.8076,5.17954 l 1.1083,2.44238 z"
             id="path811" />
        </g>
      </g>
    </g>
  </g>
</svg>
