<?xml version="1.0" encoding="UTF-8" standalone="no"?>
<!-- Created with Inkscape (http://www.inkscape.org/) -->

<svg
   width="57.785179mm"
   height="32.399769mm"
   viewBox="0 0 57.785179 32.399769"
   version="1.1"
   id="svg1"
   inkscape:version="1.3.2 (091e20e, 2023-11-25, custom)"
   sodipodi:docname="mage-idle-0.svg"
   xml:space="preserve"
   inkscape:export-filename="..\separated\bottom-body-cloths.svg"
   inkscape:export-xdpi="96"
   inkscape:export-ydpi="96"
   xmlns:inkscape="http://www.inkscape.org/namespaces/inkscape"
   xmlns:sodipodi="http://sodipodi.sourceforge.net/DTD/sodipodi-0.dtd"
   xmlns="http://www.w3.org/2000/svg"
   xmlns:svg="http://www.w3.org/2000/svg"><sodipodi:namedview
     id="namedview1"
     pagecolor="#ffffff"
     bordercolor="#000000"
     borderopacity="0.25"
     inkscape:showpageshadow="2"
     inkscape:pageopacity="0.0"
     inkscape:pagecheckerboard="0"
     inkscape:deskcolor="#d1d1d1"
     inkscape:document-units="mm"
     inkscape:export-bgcolor="#ffffff00"
     inkscape:zoom="0.53033009"
     inkscape:cx="277.18586"
     inkscape:cy="500.6316"
     inkscape:window-width="1304"
     inkscape:window-height="745"
     inkscape:window-x="1358"
     inkscape:window-y="-8"
     inkscape:window-maximized="1"
     inkscape:current-layer="g1928" /><defs
     id="defs1"><filter
       style="color-interpolation-filters:sRGB"
       inkscape:label="Drop Shadow"
       id="filter1793"
       x="-0.27795728"
       y="-0.1391128"
       width="1.686207"
       height="1.3869074"><feFlood
         result="flood"
         in="SourceGraphic"
         flood-opacity="0.498039"
         flood-color="rgb(0,0,0)"
         id="feFlood1792" /><feGaussianBlur
         result="blur"
         in="SourceGraphic"
         stdDeviation="1.215806"
         id="feGaussianBlur1792" /><feOffset
         result="offset"
         in="blur"
         dx="1.367781"
         dy="2.279635"
         id="feOffset1792" /><feComposite
         result="comp1"
         operator="in"
         in="flood"
         in2="offset"
         id="feComposite1792" /><feComposite
         result="comp2"
         operator="over"
         in="SourceGraphic"
         in2="comp1"
         id="feComposite1793" /></filter><filter
       style="color-interpolation-filters:sRGB"
       inkscape:label="Drop Shadow"
       id="filter1795"
       x="-0.39831822"
       y="-0.12090194"
       width="1.983348"
       height="1.3362585"><feFlood
         result="flood"
         in="SourceGraphic"
         flood-opacity="0.498039"
         flood-color="rgb(0,0,0)"
         id="feFlood1793" /><feGaussianBlur
         result="blur"
         in="SourceGraphic"
         stdDeviation="1.215806"
         id="feGaussianBlur1793" /><feOffset
         result="offset"
         in="blur"
         dx="1.367781"
         dy="2.279635"
         id="feOffset1793" /><feComposite
         result="comp1"
         operator="in"
         in="flood"
         in2="offset"
         id="feComposite1794" /><feComposite
         result="comp2"
         operator="over"
         in="SourceGraphic"
         in2="comp1"
         id="feComposite1795" /></filter><filter
       style="color-interpolation-filters:sRGB"
       inkscape:label="Drop Shadow"
       id="filter1797"
       x="-0.067509863"
       y="-0.52006279"
       width="1.166665"
       height="2.4464244"><feFlood
         result="flood"
         in="SourceGraphic"
         flood-opacity="0.55294117647058827"
         flood-color="rgb(0,0,0)"
         id="feFlood1795" /><feGaussianBlur
         result="blur"
         in="SourceGraphic"
         stdDeviation="1.215806"
         id="feGaussianBlur1795" /><feOffset
         result="offset"
         in="blur"
         dx="1.367781"
         dy="2.279635"
         id="feOffset1795" /><feComposite
         result="comp1"
         operator="in"
         in="flood"
         in2="offset"
         id="feComposite1796" /><feComposite
         result="comp2"
         operator="over"
         in="SourceGraphic"
         in2="comp1"
         id="feComposite1797" /></filter></defs><g
     inkscape:groupmode="layer"
     id="layer4"
     inkscape:label="mage"
     transform="translate(-100.00738,-203.13928)"
     inkscape:highlight-color="#7d39ff"><g
       id="g1314"
       inkscape:label="body"
       style="display:inline"
       transform="translate(31.929799,2.9934187)"><g
         id="g1353"
         inkscape:label="belt"
         style="display:inline;fill:#000000"><g
           id="g1809"
           inkscape:label="with shadow effect"
           style="display:inline;fill:#000000"><path
             style="display:inline;fill:#9da816;fill-opacity:1;stroke:none;stroke-width:0.365001;stroke-linecap:round;stroke-linejoin:round;stroke-dasharray:none;stroke-opacity:1;filter:url(#filter1797)"
             id="path1353"
             d="m 80.877335,206.66525 c 0.81153,-0.64472 1.806186,-0.98157 2.794043,-1.24811 1.046927,-0.39238 2.154856,-0.49679 3.26105,-0.5706 1.276207,-0.0646 2.554645,-0.0565 3.832085,-0.0631 0.961646,0.0529 1.945319,-0.0949 2.902278,0.0539 0.34454,0.0536 0.968899,0.24715 1.30575,0.34543 1.252884,0.45603 2.465277,0.99858 3.642027,1.62425 1.248936,0.59072 2.443212,1.24612 3.777292,1.62935 1.08544,0.23708 2.20418,0.24646 3.31046,0.25691 1.28089,-7.9e-4 2.56185,-0.0108 3.84272,-0.0212 1.65776,-0.0114 3.31561,-0.0104 4.97339,-0.003 1.33069,-0.048 2.63505,-0.32053 3.92683,-0.62343 1.05215,-0.19018 2.03684,-0.60274 2.85412,-1.29281 0.31158,-0.399 0.45777,-0.95959 -0.0895,-1.24889 -3.05142,-1.61301 -1.9835,-1.42479 -3.76983,-1.60064 -1.764,-0.11162 -3.52793,-0.15804 -5.28445,0.0529 -1.56747,0.26245 -3.14623,0.41564 -4.73216,0.50074 -1.30767,0.0559 -2.61667,0.0487 -3.92516,0.0486 -1.01938,5.3e-4 -2.03873,-0.005 -3.05811,-0.004 -1.068773,-0.007 -2.137483,7.9e-4 -3.20623,0.006 -1.351825,-0.0578 -2.692596,0.055 -4.037296,0.17147 -1.231622,0.10595 -2.467409,0.14508 -3.702992,0.16387 -0.924605,0.0101 -1.849263,0.0117 -2.77391,0.01 -1.409128,0.008 -2.818209,0.0204 -4.227428,0.0165 -1.17688,-0.0339 -2.359977,0.0754 -3.522924,-0.14003 -0.04902,-0.0326 -0.196101,-0.13047 -0.147066,-0.0979 2.972313,1.97645 1.769007,1.67019 4.216651,1.59306 1.540455,-0.037 3.081388,-0.0272 4.622117,-0.0282 1.647122,-0.004 3.294245,-0.003 4.941369,-3e-5 2.033847,-0.0157 4.067731,-0.0176 6.10162,-0.008 1.359899,0.008 2.719779,0.0204 4.079709,0.0202 1.52418,10e-4 3.04825,-0.0183 4.57247,-0.0206 1.56348,-0.003 3.1269,0.0175 4.69037,0.0168 0.80368,0.0233 1.62097,-0.0446 2.41941,0.0329 -2.94609,-2.20888 -1.87331,-1.76575 -4.28895,-1.51255 -1.64006,0.13132 -3.28747,0.13498 -4.93181,0.14589 -1.85747,0.008 -3.71498,0.008 -5.572456,0.003 -1.781329,0.003 -3.56266,-0.002 -5.343988,-0.004 -1.269447,-0.0147 -2.539135,-0.002 -3.808524,-0.0195 -0.08041,-0.004 -0.306316,-0.06 -0.241236,-0.0125 0.845949,0.61638 1.70552,1.21983 2.613297,1.74089 0.116266,0.0667 0.268015,-0.008 0.402045,-0.0101 0.193276,-0.004 0.386567,-0.007 0.579869,-0.009 0.502557,-0.006 1.005147,-0.008 1.507717,-0.0121 1.969937,-0.018 3.939924,-0.007 5.909896,-0.006 1.7277,-0.0654 3.44154,0.1225 5.15305,0.32755 0.83637,0.0996 1.67448,0.18261 2.51301,0.2615 0,0 -2.30666,-1.70784 -2.30666,-1.70784 v 0 c -0.82891,-0.0716 -1.65756,-0.14679 -2.48328,-0.25008 -1.71769,-0.20873 -3.43738,-0.37708 -5.170852,-0.29835 -1.975255,0.002 -3.950528,0.0122 -5.925751,-0.006 -0.715227,-0.006 -1.430571,-0.008 -2.145715,-0.0211 -0.143323,-0.003 -0.531816,-0.11096 -0.429922,-0.0101 0.660813,0.65391 1.426088,1.19546 2.178942,1.74088 0.0559,0.0405 0.137795,-0.008 0.20669,-0.0125 1.251653,-0.0175 2.503633,-0.004 3.755347,-0.0191 1.779379,-0.002 3.558771,-0.005 5.338141,-2.6e-4 1.85578,-0.003 3.71157,0.001 5.56733,-0.01 1.66926,-0.0138 3.3418,-0.0101 5.00765,-0.12531 0.44105,-0.0451 0.87703,-0.11231 1.31679,-0.1646 1.23987,-0.14743 1.65627,0.75614 -1.82761,-1.77295 -0.71374,0.0946 -1.57268,-0.004 -2.32873,0.0329 -1.54809,-7.9e-4 -3.09613,0.0202 -4.64423,0.0168 -1.5431,-0.002 -3.08604,-0.0215 -4.62911,-0.0206 -1.341355,-1.6e-4 -2.68266,0.012 -4.023989,0.0202 -2.041528,0.01 -4.083053,0.007 -6.124535,-0.009 -1.649061,0.002 -3.298116,0.001 -4.947169,-0.004 -1.547593,-2.6e-4 -3.095299,0.005 -4.642792,0.0224 -0.515821,0.0107 -1.078814,-0.0262 -1.589696,0.0715 -1.446506,0.27667 1.135171,1.77284 2.206551,1.88272 1.158777,0.13117 2.325148,0.0495 3.48883,0.0616 1.426086,-0.003 2.852016,0.01 4.277998,0.0204 0.924422,-10e-4 1.849054,0.005 2.773267,-0.0183 1.229844,-0.0371 2.459247,-0.0966 3.685543,-0.19891 1.341249,-0.11441 2.680311,-0.19358 4.027577,-0.14798 1.075545,0.006 2.151055,0.0135 3.226635,0.009 1.01925,0.003 2.03849,0.002 3.05775,0.003 1.29715,-0.006 2.59414,-0.0367 3.89016,-0.0914 1.58734,-0.0781 3.16348,-0.2653 4.7319,-0.52197 1.75285,-0.18161 3.51865,-0.14186 5.27274,0.0221 1.54116,0.23429 0.65595,0.19717 -1.28239,-1.17502 -0.15361,-0.10875 0.41665,0.0825 0.50762,0.24725 0.10235,0.18536 -0.0656,0.37268 -0.14105,0.51077 -0.80361,0.63925 -1.76311,0.99121 -2.76517,1.19358 -1.27131,0.3055 -2.56139,0.53543 -3.87137,0.58054 -1.65649,0.008 -3.31302,0.0109 -4.96952,0.007 -1.29096,-0.004 -2.58195,0.003 -3.8729,-0.006 -1.0922,-0.019 -2.19811,-0.0322 -3.25989,-0.32003 -1.303009,-0.40867 -2.485564,-1.06773 -3.715747,-1.65068 -1.193072,-0.61289 -2.413418,-1.17447 -3.692371,-1.58622 -0.478007,-0.12474 -0.841984,-0.23677 -1.337363,-0.29446 -0.963928,-0.11226 -1.944381,0.0148 -2.910785,-0.0377 -1.287227,-0.005 -2.575261,-0.004 -3.86095,0.0683 -1.121111,0.091 -2.241169,0.21438 -3.301622,0.61454 -1.028316,0.3095 -2.059329,0.68305 -2.919547,1.34401 z" /><path
             style="display:inline;fill:#9da816;fill-opacity:1;stroke:none;stroke-width:0.365001;stroke-linecap:round;stroke-linejoin:round;stroke-dasharray:none;stroke-opacity:1;filter:url(#filter1793)"
             id="path1351"
             d="m 79.095832,203.07351 c -0.108289,0.002 -0.221641,-0.0266 -0.324863,0.006 -1.315456,0.41803 -2.3461,2.49653 -2.927496,3.62141 -0.530066,1.17866 -1.055589,2.38398 -1.290203,3.66326 -0.141174,0.76977 -0.136589,1.12481 -0.186632,1.9303 -0.087,2.205 -0.226237,4.41453 -0.8529,6.53893 -0.551551,1.41944 -1.558327,2.56617 -2.518222,3.72113 0,0 2.476224,1.48458 2.476224,1.48458 v 0 c 0.972,-1.19386 1.97326,-2.38764 2.532433,-3.84392 0.656617,-2.15329 0.681141,-4.37391 0.865153,-6.60291 0.156068,-1.91663 0.517766,-3.77102 1.398244,-5.50501 0.554059,-1.04265 1.290135,-2.52371 2.375715,-3.12475 0.346043,-0.1916 0.505843,-0.15368 0.850011,-0.1474 z" /><path
             style="display:inline;fill:#9da816;fill-opacity:1;stroke:none;stroke-width:0.365001;stroke-linecap:round;stroke-linejoin:round;stroke-dasharray:none;stroke-opacity:1;filter:url(#filter1795)"
             id="path1352"
             d="m 79.450117,203.21334 c -0.806561,0.77843 -0.950026,2.00924 -1.121817,3.0661 -0.297358,1.36433 0.382325,2.40356 1.171522,3.44106 1.165063,1.53626 1.873369,3.08525 2.459246,4.90821 0.594413,1.91937 0.711343,3.92468 0.799164,5.91771 0.115421,1.85849 0.169132,3.71786 0.347742,5.57142 0,0 2.476671,1.23022 2.476671,1.23022 v 0 c -0.200313,-1.84151 -0.266948,-3.68916 -0.328149,-5.54036 -0.0476,-2.01173 -0.143073,-4.03368 -0.737862,-5.97253 -0.188804,-0.61368 -0.377428,-1.27684 -0.621387,-1.87254 -0.45402,-1.10862 -1.108848,-2.1071 -1.756675,-3.10809 -0.748575,-0.97138 -1.515369,-1.91665 -1.254911,-3.22278 0.14114,-0.94168 0.240245,-2.16224 1.0453,-2.78743 z" /></g><path
           style="display:inline;fill:#9da816;fill-opacity:1;stroke:none;stroke-width:0.365001;stroke-linecap:round;stroke-linejoin:round;stroke-dasharray:none;stroke-opacity:1"
           id="path1811"
           d="m 80.877335,206.66525 c 0.81153,-0.64472 1.806186,-0.98157 2.794043,-1.24811 1.046927,-0.39238 2.154856,-0.49679 3.26105,-0.5706 1.276207,-0.0646 2.554645,-0.0565 3.832085,-0.0631 0.961646,0.0529 1.945319,-0.0949 2.902278,0.0539 0.34454,0.0536 0.968899,0.24715 1.30575,0.34543 1.252884,0.45603 2.465277,0.99858 3.642027,1.62425 1.248936,0.59072 2.443212,1.24612 3.777292,1.62935 1.08544,0.23708 2.20418,0.24646 3.31046,0.25691 1.28089,-7.9e-4 2.56185,-0.0108 3.84272,-0.0212 1.65776,-0.0114 3.31561,-0.0104 4.97339,-0.003 1.33069,-0.048 2.63505,-0.32053 3.92683,-0.62343 1.05215,-0.19018 2.03684,-0.60274 2.85412,-1.29281 0.31158,-0.399 0.45777,-0.95959 -0.0895,-1.24889 -3.05142,-1.61301 -1.9835,-1.42479 -3.76983,-1.60064 -1.764,-0.11162 -3.52793,-0.15804 -5.28445,0.0529 -1.56747,0.26245 -3.14623,0.41564 -4.73216,0.50074 -1.30767,0.0559 -2.61667,0.0487 -3.92516,0.0486 -1.01938,5.3e-4 -2.03873,-0.005 -3.05811,-0.004 -1.068773,-0.007 -2.137483,7.9e-4 -3.20623,0.006 -1.351825,-0.0578 -2.692596,0.055 -4.037296,0.17147 -1.231622,0.10595 -2.467409,0.14508 -3.702992,0.16387 -0.924605,0.0101 -1.849263,0.0117 -2.77391,0.01 -1.409128,0.008 -2.818209,0.0204 -4.227428,0.0165 -1.17688,-0.0339 -2.359977,0.0754 -3.522924,-0.14003 -0.04902,-0.0326 -0.196101,-0.13047 -0.147066,-0.0979 2.972313,1.97645 1.769007,1.67019 4.216651,1.59306 1.540455,-0.037 3.081388,-0.0272 4.622117,-0.0282 1.647122,-0.004 3.294245,-0.003 4.941369,-3e-5 2.033847,-0.0157 4.067731,-0.0176 6.10162,-0.008 1.359899,0.008 2.719779,0.0204 4.079709,0.0202 1.52418,10e-4 3.04825,-0.0183 4.57247,-0.0206 1.56348,-0.003 3.1269,0.0175 4.69037,0.0168 0.80368,0.0233 1.62097,-0.0446 2.41941,0.0329 -2.94609,-2.20888 -1.87331,-1.76575 -4.28895,-1.51255 -1.64006,0.13132 -3.28747,0.13498 -4.93181,0.14589 -1.85747,0.008 -3.71498,0.008 -5.572456,0.003 -1.781329,0.003 -3.56266,-0.002 -5.343988,-0.004 -1.269447,-0.0147 -2.539135,-0.002 -3.808524,-0.0195 -0.08041,-0.004 -0.306316,-0.06 -0.241236,-0.0125 0.845949,0.61638 1.70552,1.21983 2.613297,1.74089 0.116266,0.0667 0.268015,-0.008 0.402045,-0.0101 0.193276,-0.004 0.386567,-0.007 0.579869,-0.009 0.502557,-0.006 1.005147,-0.008 1.507717,-0.0121 1.969937,-0.018 3.939924,-0.007 5.909896,-0.006 1.7277,-0.0654 3.44154,0.1225 5.15305,0.32755 0.83637,0.0996 1.67448,0.18261 2.51301,0.2615 0,0 -2.30666,-1.70784 -2.30666,-1.70784 v 0 c -0.82891,-0.0716 -1.65756,-0.14679 -2.48328,-0.25008 -1.71769,-0.20873 -3.43738,-0.37708 -5.170852,-0.29835 -1.975255,0.002 -3.950528,0.0122 -5.925751,-0.006 -0.715227,-0.006 -1.430571,-0.008 -2.145715,-0.0211 -0.143323,-0.003 -0.531816,-0.11096 -0.429922,-0.0101 0.660813,0.65391 1.426088,1.19546 2.178942,1.74088 0.0559,0.0405 0.137795,-0.008 0.20669,-0.0125 1.251653,-0.0175 2.503633,-0.004 3.755347,-0.0191 1.779379,-0.002 3.558771,-0.005 5.338141,-2.6e-4 1.85578,-0.003 3.71157,0.001 5.56733,-0.01 1.66926,-0.0138 3.3418,-0.0101 5.00765,-0.12531 0.44105,-0.0451 0.87703,-0.11231 1.31679,-0.1646 1.23987,-0.14743 1.65627,0.75614 -1.82761,-1.77295 -0.71374,0.0946 -1.57268,-0.004 -2.32873,0.0329 -1.54809,-7.9e-4 -3.09613,0.0202 -4.64423,0.0168 -1.5431,-0.002 -3.08604,-0.0215 -4.62911,-0.0206 -1.341355,-1.6e-4 -2.68266,0.012 -4.023989,0.0202 -2.041528,0.01 -4.083053,0.007 -6.124535,-0.009 -1.649061,0.002 -3.298116,0.001 -4.947169,-0.004 -1.547593,-2.6e-4 -3.095299,0.005 -4.642792,0.0224 -0.515821,0.0107 -1.078814,-0.0262 -1.589696,0.0715 -1.446506,0.27667 1.135171,1.77284 2.206551,1.88272 1.158777,0.13117 2.325148,0.0495 3.48883,0.0616 1.426086,-0.003 2.852016,0.01 4.277998,0.0204 0.924422,-10e-4 1.849054,0.005 2.773267,-0.0183 1.229844,-0.0371 2.459247,-0.0966 3.685543,-0.19891 1.341249,-0.11441 2.680311,-0.19358 4.027577,-0.14798 1.075545,0.006 2.151055,0.0135 3.226635,0.009 1.01925,0.003 2.03849,0.002 3.05775,0.003 1.29715,-0.006 2.59414,-0.0367 3.89016,-0.0914 1.58734,-0.0781 3.16348,-0.2653 4.7319,-0.52197 1.75285,-0.18161 3.51865,-0.14186 5.27274,0.0221 1.54116,0.23429 0.65595,0.19717 -1.28239,-1.17502 -0.15361,-0.10875 0.41665,0.0825 0.50762,0.24725 0.10235,0.18536 -0.0656,0.37268 -0.14105,0.51077 -0.80361,0.63925 -1.76311,0.99121 -2.76517,1.19358 -1.27131,0.3055 -2.56139,0.53543 -3.87137,0.58054 -1.65649,0.008 -3.31302,0.0109 -4.96952,0.007 -1.29096,-0.004 -2.58195,0.003 -3.8729,-0.006 -1.0922,-0.019 -2.19811,-0.0322 -3.25989,-0.32003 -1.303009,-0.40867 -2.485564,-1.06773 -3.715747,-1.65068 -1.193072,-0.61289 -2.413418,-1.17447 -3.692371,-1.58622 -0.478007,-0.12474 -0.841984,-0.23677 -1.337363,-0.29446 -0.963928,-0.11226 -1.944381,0.0148 -2.910785,-0.0377 -1.287227,-0.005 -2.575261,-0.004 -3.86095,0.0683 -1.121111,0.091 -2.241169,0.21438 -3.301622,0.61454 -1.028316,0.3095 -2.059329,0.68305 -2.919547,1.34401 z" /><path
           style="display:inline;fill:#9da816;fill-opacity:1;stroke:none;stroke-width:0.365001;stroke-linecap:round;stroke-linejoin:round;stroke-dasharray:none;stroke-opacity:1"
           id="path1410"
           d="m 80.07375,203.22826 c -0.394575,0.0842 -0.796562,0.17912 -1.171712,0.33004 -0.287668,0.11783 -0.602456,0.25339 -0.824908,0.47983 -0.04751,0.0484 -0.08664,0.10431 -0.129963,0.15647 -0.181885,0.24048 -0.31677,0.51368 -0.445511,0.78547 -0.06889,0.14802 -0.140962,0.29425 -0.204475,0.44468 0,0 3.415694,1.89849 3.415694,1.89849 v 0 c 0.047,-0.14482 0.110662,-0.28155 0.171178,-0.42109 0.119951,-0.23727 0.20293,-0.49345 0.357013,-0.71055 0.237886,-0.23099 0.52484,-0.38479 0.836903,-0.49509 0.382558,-0.13006 0.775348,-0.22487 1.181142,-0.15395 z" /><path
           style="display:inline;fill:#9da816;fill-opacity:1;stroke:none;stroke-width:0.365001;stroke-linecap:round;stroke-linejoin:round;stroke-dasharray:none;stroke-opacity:1"
           id="path1337"
           d="m 82.897762,205.63771 c 0.904775,-0.081 1.808245,-0.0337 2.712085,0.0337 2.333678,0.17478 4.637003,0.5764 6.913306,1.10722 1.22645,0.31628 2.437037,0.69781 3.683804,0.93152 0.922274,0.17288 1.206305,0.18308 2.16516,0.28586 2.964493,0.20512 5.936003,0.32201 8.906533,0.40735 2.31893,0.0764 4.63776,0.0797 6.95737,0.0532 1.0512,0.0332 2.035,-0.30738 3.0319,-0.58315 1.73386,-0.47964 0.0263,0.0254 1.67766,-0.47312 0,0 -2.9889,-2.03664 -2.9889,-2.03664 v 0 c -1.51345,0.48618 -3.06539,0.88323 -4.65898,0.97405 -2.23324,0.13785 -4.46918,0.15323 -6.70614,0.10339 -3.00092,-0.0589 -6.005353,-0.14424 -8.987657,-0.51052 -0.397462,-0.0585 -0.796348,-0.10813 -1.19239,-0.17561 -1.572633,-0.26796 -3.101564,-0.73547 -4.656526,-1.0831 -0.749596,-0.16388 -1.493978,-0.3344 -2.250064,-0.46739 -1.570869,-0.27629 -3.160734,-0.41643 -4.738526,-0.64333 -1.022377,-0.12874 -2.042279,-0.23821 -3.073144,-0.25164 z"
           inkscape:label="belt" /><path
           style="display:inline;fill:#9da816;fill-opacity:1;stroke:none;stroke-width:0.365001;stroke-linecap:round;stroke-linejoin:round;stroke-dasharray:none;stroke-opacity:1"
           id="path1834"
           d="m 118.36426,204.23952 c -0.0617,0.0137 -0.12262,0.0307 -0.18464,0.0435 -0.0901,0.0177 -0.16812,0.0645 -0.24925,0.10465 -0.0784,0.0268 -0.14907,0.0686 -0.21932,0.11153 -0.0688,0.0528 -0.12645,0.11806 -0.17191,0.19159 -0.0523,0.0808 -0.0982,0.16698 -0.15822,0.2426 -0.0157,0.0198 -0.0338,0.0375 -0.0507,0.0562 -0.13283,0.12396 -0.28635,0.22927 -0.448,0.31251 -0.0353,0.0182 -0.0721,0.0332 -0.10818,0.0498 -0.1547,0.0647 -0.30689,0.13503 -0.46196,0.19882 -0.02,0.008 -0.0405,0.0149 -0.06,0.024 -0.0203,0.01 -0.0392,0.0218 -0.0593,0.0318 -0.0739,0.0368 -0.15145,0.0673 -0.2274,0.0996 -0.0752,0.0295 -0.14836,0.0633 -0.21886,0.10279 -0.025,0.014 -0.0489,0.03 -0.0743,0.0434 -0.0285,0.015 -0.0581,0.0278 -0.0872,0.0417 -0.0279,0.009 -0.0548,0.0211 -0.0836,0.0259 -0.0205,0.003 -0.0416,-10e-4 -0.0624,-10e-4 0.2736,0.14523 0.54803,0.2889 0.8208,0.43569 0.004,0.002 -0.0151,0.003 -0.0135,-0.001 0.0114,-0.0292 0.0273,-0.0568 0.0459,-0.082 0.0228,-0.0308 0.0517,-0.0567 0.0775,-0.085 0.1004,-0.0894 0.21224,-0.16543 0.33429,-0.22218 0.26568,-0.12354 -0.12933,0.0691 0.12949,-0.0583 0.14053,-0.0582 0.28816,-0.0963 0.43284,-0.14266 0.14187,-0.0451 0.28996,-0.0586 0.43779,-0.0654 0.12822,-0.008 0.25586,-0.021 0.3839,-0.0308 -0.001,-0.0635 0.0958,0.0515 0.0719,0.0385 -0.26672,-0.14559 -0.5195,-0.3166 -0.7907,-0.45367 -0.0189,-0.01 0.0154,0.0406 0.0154,0.0618 -1.2e-4,0.0713 -0.0292,0.13152 -0.053,0.19675 -0.086,0.18587 -0.22668,0.3356 -0.3963,0.44876 -0.0382,0.0255 -0.079,0.047 -0.11847,0.0705 -0.0506,0.0247 -0.13989,0.0694 -0.19522,0.0927 -0.3258,0.13727 -0.76779,-0.15555 0.82267,0.50796 0.0419,0.0175 0.0705,-0.0574 0.10832,-0.0825 0.0499,-0.0332 0.1029,-0.0615 0.15435,-0.0923 0.28744,-0.15964 0.59265,-0.28386 0.88101,-0.44164 0.0263,-0.0153 0.0538,-0.0287 0.079,-0.0458 0.0227,-0.0154 0.043,-0.0341 0.0642,-0.0516 0.0605,-0.05 0.11695,-0.10141 0.16569,-0.16293 0.0238,-0.0344 0.0366,-0.0708 0.0296,-0.11311 -0.002,-0.0111 -0.002,-0.026 -0.0111,-0.0319 -0.82699,-0.50775 -0.52983,-0.48824 -0.90171,-0.50442 -0.11651,0.0117 -0.21655,0.0725 -0.31682,0.12767 -0.0723,0.038 -0.14281,0.0808 -0.2216,0.10428 -0.0637,0.019 -0.10504,0.0239 -0.17083,0.0352 -0.17768,0.0235 -0.35702,0.0262 -0.53594,0.0253 -0.13297,-0.005 -0.26641,-0.005 -0.3987,0.0104 -0.11858,0.0162 -0.23776,0.0273 -0.35636,0.0433 -0.0581,0.013 -0.11856,0.009 -0.1771,0.0175 -0.0208,0.003 -0.0411,0.009 -0.0617,0.013 -0.0603,0.0117 -0.0683,0.0118 -0.12909,0.02 -0.0668,0.0123 -0.13539,0.006 -0.20248,0.0119 -0.0274,0.003 -0.0543,0.009 -0.0816,0.012 -0.0651,0.007 -0.13067,0.009 -0.19613,0.009 -0.0258,0.003 -0.0527,-0.004 -0.0784,-0.001 -0.0265,0.003 -0.0533,0.0122 -0.0799,0.0161 -0.0589,0.0155 -0.1181,0.0272 -0.17506,0.0494 -0.0591,0.0152 -0.10912,0.0475 -0.15856,0.082 -0.0358,0.0141 -0.065,0.04 -0.10091,0.0538 -0.009,0.003 -0.0178,0.006 -0.0267,0.009 -0.01,0.004 -0.0194,0.008 -0.0291,0.0115 -0.01,0.003 -0.0196,0.006 -0.0296,0.009 -0.0315,0.008 -0.0615,0.0146 -0.091,0.0294 -0.10481,0.0529 0.0358,-0.0111 -0.0731,0.0372 -0.0699,0.0248 -0.14136,0.0445 -0.21502,0.0538 -0.0718,0.002 -0.1424,0.0124 -0.21372,0.0206 -0.0248,0.002 -0.0463,0.006 -0.0706,-0.002 -0.008,-0.003 -0.0151,-0.009 -0.0226,-0.0137 0.28046,0.15594 0.57132,0.29451 0.84139,0.46783 0.002,0.002 -0.0198,0.0463 -0.0286,0.0643 0.041,-0.0357 0.0963,-0.0558 0.14688,-0.0749 0.0727,-0.0323 0.14353,-0.068 0.21486,-0.10328 0.041,-0.0259 0.0884,-0.0362 0.13307,-0.053 0.0148,-0.006 0.0288,-0.0133 0.0435,-0.0192 0.0367,-0.0145 0.0483,-0.0166 0.0859,-0.0269 0.073,-0.0244 0.14791,-0.0426 0.21664,-0.0776 0.0897,-0.0397 0.18347,-0.0679 0.27582,-0.1005 0.0571,-0.0194 0.11746,-0.0276 0.17359,-0.0502 0.0316,-0.0127 0.0615,-0.029 0.0923,-0.0436 0.11213,-0.0533 0.22633,-0.10095 0.34054,-0.14955 0.0974,-0.0355 0.19311,-0.0752 0.29214,-0.10613 0.0369,-0.0167 0.0768,-0.0266 0.11417,-0.0416 0.0266,-0.0106 0.0519,-0.0242 0.0784,-0.0351 0,0 -0.79875,-0.53214 -0.79875,-0.53214 v 0 c -0.062,0.0278 -0.12689,0.048 -0.18987,0.0734 -0.0911,0.0412 -0.18364,0.0794 -0.27352,0.12335 -0.11569,0.0497 -0.23394,0.0931 -0.35027,0.14132 -0.0883,0.0311 -0.17903,0.054 -0.26625,0.0883 -0.0947,0.0342 -0.1909,0.0642 -0.28521,0.0995 -0.0712,0.0218 -0.14184,0.0444 -0.2105,0.0735 -0.0888,0.0342 -0.17782,0.0675 -0.26338,0.10955 -0.076,0.0297 -0.15064,0.0618 -0.22593,0.0931 -0.0607,0.0269 -0.12309,0.0493 -0.17712,0.0892 -0.0101,0.01 -0.0229,0.0173 -0.0302,0.0293 -0.20918,0.34151 0.59662,0.42315 0.82953,0.54802 0.008,0.004 0.0172,-0.004 0.0259,-0.005 0.0112,-0.002 0.0224,-0.004 0.0337,-0.005 0.0127,-0.002 0.0255,-0.003 0.0382,-0.004 0.0749,-0.007 0.1502,-0.0112 0.22431,-0.0245 0.0739,-0.0211 0.14787,-0.0435 0.21798,-0.0751 0.0653,-0.0267 0.13441,-0.0404 0.19952,-0.0676 0.0603,-0.023 0.11613,-0.0557 0.17191,-0.0879 0.045,-0.027 0.092,-0.0475 0.14271,-0.0616 0.0545,-0.0136 0.10917,-0.0289 0.16519,-0.0343 0.0512,-0.006 0.10207,-0.004 0.15347,-0.007 0.0643,-0.005 0.12813,-0.0115 0.19161,-0.0228 0.0887,-0.0111 0.1776,-0.0199 0.26519,-0.0396 0.12362,-0.0194 0.24812,-0.0302 0.37221,-0.0462 0.11942,-0.0159 0.23915,-0.0275 0.3591,-0.0383 0.12251,-0.0118 0.24536,-0.0182 0.36838,-0.0215 0.18002,-0.006 0.36115,-0.009 0.53881,-0.0417 0.15227,-0.0289 0.30661,-0.06 0.44044,-0.14241 0.0906,-0.0479 0.18141,-0.10017 0.28589,-0.0621 0.31818,0.16002 -0.0423,-0.0202 -0.75933,-0.45544 -0.007,-0.004 0.015,0.003 0.0225,0.004 0.0106,0.002 0.0249,-0.002 0.0298,0.0123 0.002,0.006 2.6e-4,0.0135 5.3e-4,0.0203 -0.054,0.10644 -0.14446,0.18524 -0.23407,0.26174 -0.0609,0.0482 -0.11007,0.0885 -0.17454,0.13343 -0.19678,0.13723 -0.40906,0.25152 -0.63074,0.34307 -0.0621,0.0225 -0.12283,0.0492 -0.1863,0.0675 -0.0533,0.0154 -0.20238,-0.006 -0.16317,0.0333 0.21255,0.21299 0.48562,0.35544 0.72843,0.53315 -0.004,-0.008 -0.0173,-0.0159 -0.0132,-0.0241 0.0196,-0.0389 0.12356,-0.10435 0.14625,-0.12047 0.11902,-0.078 0.24772,-0.15228 0.35145,-0.25086 0.0895,-0.085 0.1553,-0.19308 0.2139,-0.30034 0.015,-0.0311 0.0827,-0.16957 0.0966,-0.20373 0.0121,-0.0298 0.0567,-0.0713 0.0314,-0.0914 -0.49675,-0.39492 -0.53653,-0.59432 -0.91767,-0.53104 -0.12236,0.0167 -0.24523,0.028 -0.36835,0.0376 -0.15039,0.0136 -0.29926,0.038 -0.44186,0.0898 -0.0783,0.0251 -0.0763,0.0252 -0.1559,0.0475 -0.078,0.0219 -0.15924,0.04 -0.2344,0.071 -0.0207,0.008 -0.0399,0.0201 -0.0598,0.0302 -0.16341,0.0846 -0.30097,0.20628 -0.43587,0.3302 -0.017,0.0145 -0.29834,0.23687 -0.26386,0.26222 0.8155,0.59962 0.5886,0.59693 0.97973,0.40623 0.13676,-0.0565 0.27881,-0.0994 0.41136,-0.16633 0.1147,-0.051 0.22654,-0.10819 0.34103,-0.15969 0.14562,-0.0686 0.28353,-0.15138 0.42335,-0.23086 0.20352,-0.11657 0.41688,-0.22071 0.60112,-0.36729 0.0217,-0.0201 0.0443,-0.0392 0.065,-0.0603 0.0693,-0.0705 0.12422,-0.15346 0.1841,-0.23163 0.047,-0.0566 0.0893,-0.11894 0.15556,-0.15535 0.0684,-0.0396 0.13756,-0.0774 0.20928,-0.11069 0.0757,-0.0399 0.15668,-0.0618 0.23987,-0.0806 0.0697,-0.0151 0.14047,-0.021 0.2112,-0.0295 z" /></g></g></g></svg>
