<?xml version="1.0" encoding="UTF-8" standalone="no"?>
<!-- Created with Inkscape (http://www.inkscape.org/) -->

<svg
   width="109.56589mm"
   height="192.0193mm"
   viewBox="0 0 109.56589 192.0193"
   version="1.1"
   id="svg1"
   inkscape:version="1.3.2 (091e20e, 2023-11-25, custom)"
   sodipodi:docname="mage-idle-0.svg"
   xml:space="preserve"
   inkscape:export-filename="..\separated\top-body-cloths.svg"
   inkscape:export-xdpi="96"
   inkscape:export-ydpi="96"
   xmlns:inkscape="http://www.inkscape.org/namespaces/inkscape"
   xmlns:sodipodi="http://sodipodi.sourceforge.net/DTD/sodipodi-0.dtd"
   xmlns="http://www.w3.org/2000/svg"
   xmlns:svg="http://www.w3.org/2000/svg"><sodipodi:namedview
     id="namedview1"
     pagecolor="#ffffff"
     bordercolor="#000000"
     borderopacity="0.25"
     inkscape:showpageshadow="2"
     inkscape:pageopacity="0.0"
     inkscape:pagecheckerboard="0"
     inkscape:deskcolor="#d1d1d1"
     inkscape:document-units="mm"
     inkscape:export-bgcolor="#ffffff00"
     inkscape:zoom="0.53033009"
     inkscape:cx="277.18586"
     inkscape:cy="500.6316"
     inkscape:window-width="1304"
     inkscape:window-height="745"
     inkscape:window-x="1358"
     inkscape:window-y="-8"
     inkscape:window-maximized="1"
     inkscape:current-layer="g1928" /><defs
     id="defs1" /><g
     inkscape:groupmode="layer"
     id="layer4"
     inkscape:label="mage"
     transform="translate(-76.771689,-82.121129)"
     inkscape:highlight-color="#7d39ff"><g
       id="g1314"
       inkscape:label="body"
       style="display:inline"
       transform="translate(31.929799,2.9934187)"><g
         id="g1375"
         inkscape:label="clothes"
         style="display:inline;fill:#000000"><g
           id="g1404"
           inkscape:label="color"
           style="display:none;fill:#000000"><path
             style="display:inline;fill:#1e0057;fill-opacity:1;stroke:none;stroke-width:1.37953;stroke-linecap:round;stroke-linejoin:round;stroke-dasharray:none;stroke-opacity:1"
             d="M 281.66667,740.79988 276,738.33347 260.79515,738.12131 c -8.36266,-0.11668 -17.21266,0.0974 -19.66666,0.4758 -4.36718,0.67337 -15.00084,0.0861 -15.96885,-0.88192 -1.15581,-1.1558 -2.26733,-17.38449 -2.5375,-37.04852 -0.27358,-19.91202 -0.42986,-22.26055 -1.92978,-29 -2.28188,-10.253 -3.02584,-18.91979 -3.02478,-35.23731 9.6e-4,-14.85247 0.76206,-21.56568 3.37429,-29.76269 3.4405,-10.79604 9.91275,-20.23829 14.45813,-21.09272 1.81857,-0.34185 2.16693,-0.20646 2.16829,0.84272 10e-4,0.89497 1.64423,2.10207 5.78498,4.25 l 5.78335,3 4.80538,17 c 9.89435,35.00332 16.58894,49.39862 31.6237,68 11.90255,14.72612 14.52985,22.15462 15.32608,43.33333 0.53953,14.35079 1.32363,18.77822 3.60911,20.37903 1.20904,0.84684 0.31355,0.95053 -7.95255,0.92078 -9.24359,-0.0333 -9.35845,-0.0524 -14.98167,-2.49993 z"
             id="path1403"
             transform="matrix(0.26458333,0,0,0.26458333,19.475,7.8)" /><path
             style="display:inline;fill:#1e0057;fill-opacity:1;stroke:none;stroke-width:1.37953;stroke-linecap:round;stroke-linejoin:round;stroke-dasharray:none;stroke-opacity:1"
             d="m 309.72668,741.60118 c -0.61431,-1.30181 -1.08855,-6.45694 -1.45002,-15.76185 -0.4486,-11.54816 -0.81894,-14.89973 -2.24678,-20.33333 -2.23871,-8.51936 -5.28626,-14.58461 -10.74502,-21.38485 l -4.45157,-5.54552 1.58336,-1.04661 c 5.55684,-3.67315 19.98851,-21.34262 23.77566,-29.10984 2.37745,-4.87602 9.64609,-26.41929 10.7132,-31.75251 0.40351,-2.01667 1.05395,-6.33728 1.44542,-9.60137 0.48073,-4.00837 1.12868,-6.46472 1.99623,-7.56763 0.70645,-0.89811 1.47574,-2.6525 1.70951,-3.89863 0.23378,-1.24614 0.70022,-2.26571 1.03654,-2.26571 0.33631,0 2.34099,0.87306 4.45484,1.94013 3.16288,1.59661 4.37992,2.74747 6.8738,6.5 4.41037,6.63626 7.99575,13.41548 12.284,23.22654 4.75092,10.86961 6.59218,16.15806 8.70415,25 3.04937,12.76646 3.68777,18.86623 4.25617,40.66667 0.42732,16.38978 0.85333,22.75627 1.94052,29 1.35493,7.78138 1.78799,16.45932 0.97312,19.5 -0.39274,1.46549 -0.61874,1.50012 -9.82423,1.50554 -5.18223,0.003 -12.72225,0.45371 -16.75558,1.00148 -4.03333,0.54778 -13.63943,1.19082 -21.34689,1.42898 l -14.01356,0.43302 z"
             id="path1404"
             transform="matrix(0.26458333,0,0,0.26458333,19.475,7.8)" /></g><g
           id="g1409"
           inkscape:label="color"
           style="display:inline;fill:#000000"><path
             style="display:inline;fill:#116eff;fill-opacity:1;stroke:none;stroke-width:1.37953;stroke-linecap:round;stroke-linejoin:round;stroke-dasharray:none;stroke-opacity:1"
             d="M 281.66667,740.79988 276,738.33347 260.79515,738.12131 c -8.36266,-0.11668 -17.21266,0.0974 -19.66666,0.4758 -4.36718,0.67337 -15.00084,0.0861 -15.96885,-0.88192 -1.15581,-1.1558 -2.26733,-17.38449 -2.5375,-37.04852 -0.27358,-19.91202 -0.42986,-22.26055 -1.92978,-29 -2.28188,-10.253 -3.02584,-18.91979 -3.02478,-35.23731 9.6e-4,-14.85247 0.76206,-21.56568 3.37429,-29.76269 3.4405,-10.79604 9.91275,-20.23829 14.45813,-21.09272 1.81857,-0.34185 2.16693,-0.20646 2.16829,0.84272 10e-4,0.89497 1.64423,2.10207 5.78498,4.25 l 5.78335,3 4.80538,17 c 9.89435,35.00332 16.58894,49.39862 31.6237,68 11.90255,14.72612 14.52985,22.15462 15.32608,43.33333 0.53953,14.35079 1.32363,18.77822 3.60911,20.37903 1.20904,0.84684 0.31355,0.95053 -7.95255,0.92078 -9.24359,-0.0333 -9.35845,-0.0524 -14.98167,-2.49993 z"
             id="path1408"
             transform="matrix(0.26458333,0,0,0.26458333,19.475,7.8)" /><path
             style="display:inline;fill:#116eff;fill-opacity:1;stroke:none;stroke-width:1.37953;stroke-linecap:round;stroke-linejoin:round;stroke-dasharray:none;stroke-opacity:1"
             d="m 309.72668,741.60118 c -0.61431,-1.30181 -1.08855,-6.45694 -1.45002,-15.76185 -0.4486,-11.54816 -0.81894,-14.89973 -2.24678,-20.33333 -2.23871,-8.51936 -5.28626,-14.58461 -10.74502,-21.38485 l -4.45157,-5.54552 1.58336,-1.04661 c 5.55684,-3.67315 19.98851,-21.34262 23.77566,-29.10984 2.37745,-4.87602 9.64609,-26.41929 10.7132,-31.75251 0.40351,-2.01667 1.05395,-6.33728 1.44542,-9.60137 0.48073,-4.00837 1.12868,-6.46472 1.99623,-7.56763 0.70645,-0.89811 1.47574,-2.6525 1.70951,-3.89863 0.23378,-1.24614 0.70022,-2.26571 1.03654,-2.26571 0.33631,0 2.34099,0.87306 4.45484,1.94013 3.16288,1.59661 4.37992,2.74747 6.8738,6.5 4.41037,6.63626 7.99575,13.41548 12.284,23.22654 4.75092,10.86961 6.59218,16.15806 8.70415,25 3.04937,12.76646 3.68777,18.86623 4.25617,40.66667 0.42732,16.38978 0.85333,22.75627 1.94052,29 1.35493,7.78138 1.78799,16.45932 0.97312,19.5 -0.39274,1.46549 -0.61874,1.50012 -9.82423,1.50554 -5.18223,0.003 -12.72225,0.45371 -16.75558,1.00148 -4.03333,0.54778 -13.63943,1.19082 -21.34689,1.42898 l -14.01356,0.43302 z"
             id="path1409"
             transform="matrix(0.26458333,0,0,0.26458333,19.475,7.8)" /><path
             style="fill:#116eff;fill-opacity:1;stroke:none;stroke-width:1.37953;stroke-linecap:round;stroke-linejoin:round;stroke-dasharray:none;stroke-opacity:1"
             d="m 307.33333,749.985 c -14.83217,-0.69948 -23.43145,-1.85488 -35.31985,-4.74555 -5.87408,-1.42829 -15.40429,-3.26647 -21.17825,-4.08484 -5.77395,-0.81837 -10.49895,-1.71294 -10.5,-1.98794 -0.001,-0.275 7.94459,-0.5 17.65696,-0.5 h 17.65886 l 5.70301,2.36076 c 5.6781,2.35046 5.74471,2.36037 15.2517,2.26997 7.78629,-0.0741 9.95067,0.11706 11.72661,1.03543 1.58153,0.81785 2.3077,0.91623 2.6519,0.35928 0.31347,-0.50719 5.42036,-0.98223 15.0782,-1.40256 8.03231,-0.34958 17.0042,-0.91338 19.93753,-1.25289 2.93333,-0.3395 9.91202,-0.82079 15.50819,-1.06952 9.07858,-0.40351 10.13168,-0.3397 9.77409,0.59217 -0.73735,1.92152 -6.55906,4.95866 -12.28228,6.40759 -10.00977,2.53413 -26.80984,3.19034 -51.66667,2.0181 z"
             id="path1413"
             transform="matrix(0.26458333,0,0,0.26458333,19.475,7.8)" /><path
             style="display:inline;fill:#116eff;fill-opacity:1;stroke:none;stroke-width:0.365001;stroke-linecap:round;stroke-linejoin:round;stroke-dasharray:none;stroke-opacity:1"
             id="path1414"
             d="m 102.22253,205.48321 c -0.0105,-0.0518 -0.027,-0.10272 -0.0314,-0.15538 -0.0241,-0.28435 0.0337,-0.57396 0.0827,-0.85228 0.13166,-0.74917 0.002,0.068 0.12233,-0.71774 0.078,-0.62041 0.17809,-1.25317 0.12598,-1.8807 -0.0108,-0.13041 -0.0357,-0.25928 -0.0535,-0.38892 -0.16579,-0.82221 -0.52812,-1.58763 -0.87757,-2.34484 -0.31787,-0.61032 -0.55155,-1.2565 -0.78949,-1.90037 -0.18287,-0.50442 -0.35524,-1.012 -0.48587,-1.53264 -0.12112,-0.4304 -0.22901,-0.86411 -0.27429,-1.30965 -0.0357,-0.24874 -0.04192,-0.50006 -0.06207,-0.75021 0,0 -3.462805,-1.73638 -3.462805,-1.73638 v 0 c 0.01394,0.27845 0.08282,0.54732 0.132775,0.82091 0.0259,0.13605 0.0453,0.27348 0.07715,0.40827 0.07772,0.32902 0.184973,0.65203 0.267827,0.97979 0.07223,0.269 0.149434,0.53611 0.228341,0.80322 0.01442,0.0488 0.139827,0.47487 0.157247,0.5241 0.03072,0.0868 0.06903,0.17075 0.103547,0.25612 0.175991,0.42089 0.378582,0.82766 0.569405,1.24182 0.05715,0.12402 0.109246,0.25034 0.166997,0.37408 0.05765,0.12353 0.119441,0.24509 0.17916,0.36763 0.34681,0.72246 0.715388,1.44492 0.883592,2.23463 0.04594,0.27578 0.08092,0.42827 0.08958,0.70837 0.01503,0.48582 -0.05966,0.97226 -0.120766,1.45234 -0.113361,0.55729 -0.259197,1.11128 -0.505063,1.62658 z" /><path
             style="display:inline;fill:#116eff;fill-opacity:1;stroke:none;stroke-width:0.365001;stroke-linecap:round;stroke-linejoin:round;stroke-dasharray:none;stroke-opacity:1"
             id="path1415"
             d="m 94.544011,186.35751 c 0.05981,0.20679 0.02215,0.41254 -0.01791,0.61918 -0.0382,0.20107 -0.05744,0.40624 -0.07656,0.61014 -0.0043,0.18789 0.0016,0.37598 -0.0037,0.56435 0.01188,0.2914 0.152543,0.51524 0.292108,0.76092 0.169672,0.3262 0.394216,0.61753 0.606139,0.9163 0.241237,0.33365 0.499573,0.65401 0.741894,0.98682 0.278046,0.38016 0.515194,0.7881 0.734571,1.20425 0.244761,0.43176 0.414827,0.89548 0.566378,1.36614 0.08514,0.35242 0.162531,0.70974 0.20443,1.07039 0.08177,0.70383 -0.04607,-0.2483 0.05212,0.46107 0.03457,0.21821 0.02652,0.43971 0.04113,0.65903 0.0042,0.0631 0.02746,0.22545 0.03585,0.28704 0.0096,0.14211 0.06221,0.27491 0.09524,0.41178 0.347041,1.43804 -2.211441,-0.50353 3.540309,1.88208 0.0834,0.0346 0.0798,-0.16196 0.11966,-0.24294 0.16076,-0.58681 0.0869,-1.19696 0.0289,-1.7929 -0.0577,-0.59221 -0.0561,-0.52733 -0.14735,-1.11181 -0.15405,-0.90892 -0.49153,-1.76644 -0.82949,-2.61882 -0.17941,-0.35571 -0.31747,-0.72979 -0.47261,-1.09606 -0.223553,-0.5278 -0.0132,0.007 -0.209739,-0.50482 -0.144232,-0.39764 -0.28615,-0.80049 -0.374692,-1.21488 0.28676,-1.40771 -3.625326,-3.24419 -3.512124,-1.6071 0.0057,0.0818 0.04115,0.15874 0.06157,0.23814 0.09446,0.36738 0.06259,0.24243 0.159626,0.63794 0.212386,0.92183 0.455623,1.83584 0.659892,2.75963 0.110784,0.50105 0.213082,1.0054 0.35288,1.49955 0.02064,0.073 0.16192,0.51854 0.185658,0.59372 0.108913,0.33615 0.16849,0.68389 0.234694,1.02972 0.09764,0.51007 0.03455,0.0716 0.100631,0.60909 0.06123,0.53301 0.147826,1.0629 0.170508,1.59961 0.014,0.3314 0.0072,0.45158 0.0013,0.77579 -0.02763,0.62663 0.01304,1.25297 0.01416,1.87938 2.65e-4,0.3036 -0.01318,0.60644 0.04745,0.90501 0.05382,0.17479 0.09667,0.34968 0.112323,0.53201 0,0 3.451383,1.72419 3.451383,1.72419 v 0 c -0.0148,-0.20007 -0.009,-0.40416 -0.0711,-0.59729 -0.0255,-0.068 -0.0558,-0.13442 -0.0775,-0.2038 -0.073,-0.23416 -0.11775,-0.47795 -0.17563,-0.71588 -0.0911,-0.63774 -0.0971,-1.28182 -0.13723,-1.92404 -0.0263,-0.33597 -0.0391,-0.46824 -0.0552,-0.81008 -0.0243,-0.51501 -0.007,-1.03078 -0.0449,-1.54534 -0.002,-0.10574 -0.005,-0.21146 -0.007,-0.3172 -0.002,-0.0973 0.006,-0.19509 -0.004,-0.29193 -0.009,-0.0871 -0.0323,-0.17214 -0.0508,-0.25773 -0.0618,-0.28653 -0.14841,-0.56563 -0.22938,-0.84711 -0.23925,-0.72633 -0.55202,-1.42671 -0.754916,-2.16509 -0.219276,-0.87205 -0.391982,-1.75618 -0.484946,-2.65127 -0.02297,-0.25121 -0.03707,-0.31264 -0.02995,-0.55225 0.0016,-0.0541 0.02225,-0.10832 0.01421,-0.16188 -0.0024,-0.0165 -0.0181,0.0454 -0.03288,0.0377 -2.920521,-1.51491 -4.576826,-2.53933 -3.355769,-1.7861 0.203547,0.40963 0.328962,0.85474 0.500584,1.27808 0.05146,0.14091 0.13676,0.38045 0.196016,0.51906 0.170411,0.39863 0.394748,0.76968 0.585304,1.15831 0.05121,0.0966 0.348464,0.65519 0.38813,0.73812 0.288261,0.60263 0.501798,1.24166 0.670944,1.88674 0.134088,0.73681 0.299268,1.56057 -0.04718,2.26801 -0.02868,0.0586 -0.07266,0.10831 -0.108982,0.16246 -1.316342,0.26045 0.05915,-0.0272 3.271885,1.83003 0.0402,0.0232 -0.0879,0.0449 -0.13384,0.0382 -0.11595,-0.0169 -0.13028,-0.22258 -0.17108,-0.29744 -0.0725,-0.32732 -0.10551,-0.6634 -0.18499,-0.98977 -0.0429,-0.25366 -0.10048,-0.50407 -0.14157,-0.75804 -0.13288,-0.82132 0.0528,0.26384 -0.0797,-0.55266 -0.0147,-0.0907 -0.0326,-0.1808 -0.0488,-0.2712 -0.0458,-0.21778 -0.055,-0.29041 -0.12256,-0.50034 -0.10342,-0.32131 -0.25004,-0.62845 -0.38998,-0.93474 -0.222782,-0.41271 -0.426228,-0.83605 -0.673767,-1.23515 -0.241096,-0.3277 -0.47557,-0.65943 -0.72413,-0.98159 -0.234651,-0.302 -0.0021,0.008 -0.212804,-0.305 -0.122494,-0.18189 -0.27517,-0.34434 -0.367194,-0.54595 -0.06247,-0.11486 -0.11756,-0.23619 -0.182544,-0.34939 -0.04319,-0.0752 -0.099,-0.13927 -0.107495,-0.2307 -0.04134,-0.17183 -0.0061,-0.34685 -0.01294,-0.52139 -0.006,-0.19508 -0.0047,-0.3895 0.02167,-0.58332 0.02698,-0.21344 0.06497,-0.42641 0.128958,-0.6313 z" /><path
             style="display:inline;fill:#116eff;fill-opacity:1;stroke:none;stroke-width:0.365001;stroke-linecap:round;stroke-linejoin:round;stroke-dasharray:none;stroke-opacity:1"
             id="path1416"
             d="m 95.117244,186.38599 c 0.117517,0.39005 0.09708,0.80017 0.06354,1.20088 -0.01074,0.27633 0.0021,0.55228 -0.01249,0.82861 0,0 3.39812,1.73142 3.39812,1.73142 v 0 c -0.01397,-0.28059 -0.0021,-0.56076 -0.01249,-0.84134 -0.02905,-0.37666 -0.06908,-0.77448 0.06354,-1.13613 z" /><path
             style="display:inline;fill:#116eff;fill-opacity:1;stroke:none;stroke-width:0.365001;stroke-linecap:round;stroke-linejoin:round;stroke-dasharray:none;stroke-opacity:1"
             id="path1417"
             d="m 84.854771,203.71645 c 0.411811,-0.0846 0.833551,-0.0889 1.251963,-0.10653 0.628539,-0.0214 1.256536,0.0158 1.883889,0.0492 0.294886,0.0154 0.590667,0.0463 0.885825,0.0257 0.331097,-0.0148 0.659236,0.0495 0.980967,0.12085 0.327289,0.0603 0.647065,0.16151 0.977135,0.20434 0.300617,0.0228 0.599554,0.0691 0.900695,0.0825 0.465211,0.0401 0.924306,0.11957 1.384937,0.19253 0.102132,0.006 0.204574,0.008 0.306393,0.0175 0.239149,0.0232 0.476205,0.0644 0.714589,0.0944 0.368224,0.0463 0.734632,0.081 1.104988,0.1039 0.316166,0.0297 0.63359,0.0461 0.949923,0.0727 0.222221,0.0187 0.442378,0.0505 0.664919,0.0666 0.347279,0.0209 0.693655,0.0521 1.041442,0.0619 0.432446,0.009 0.851583,0.11449 1.275781,0.18423 0.507804,0.0813 1.009353,0.19819 1.512853,0.30265 0.48328,0.0906 0.97242,0.13753 1.46352,0.14933 0.41191,0.0223 0.82426,0.01 1.23648,0.008 0.38413,0.004 0.76791,0.0105 1.15206,0.004 0.42578,-0.002 0.85186,-0.006 1.27733,-0.0244 0.55671,-0.009 1.11365,0.003 1.66995,-0.0227 0.38665,-0.0308 0.77616,-0.018 1.16277,-0.0484 0.14079,-0.0111 0.31668,-0.0422 0.45719,-0.0649 0.3305,-0.0503 0.65898,-0.10214 0.9925,-0.1284 0.0515,-0.002 0.10316,-0.002 0.15454,-0.006 0.10921,-0.009 0.21755,-0.0269 0.32675,-0.0359 0.16024,-0.0133 0.32107,-0.0175 0.48168,-0.0236 0.36263,-0.0498 0.72234,-0.0588 1.08047,-0.13935 0.2968,-0.0616 0.59813,-0.0777 0.8917,-0.15369 0.30856,-0.10954 0.63678,-0.15266 0.94346,-0.26487 0.27467,-0.10767 0.57043,-0.10984 0.85867,-0.14693 0.27051,-0.0201 0.53731,-0.0671 0.80803,-0.0849 0.2328,-0.0128 0.46585,-0.043 0.69523,-0.0858 0.12431,-0.0285 0.25297,-0.0244 0.37858,-0.041 0.10798,-0.0143 0.21451,-0.0382 0.32289,-0.0515 0.2285,-0.0546 0.45142,-0.12945 0.65369,-0.25094 0.13742,-0.0955 0.29489,-0.15851 0.43471,-0.24942 0.0466,-0.0303 0.14885,-0.11025 0.19223,-0.14358 0.49797,-1.58836 0.26741,-0.46992 -3.39948,-2.25273 -0.0984,-0.0479 -0.21438,0.0463 -0.32326,0.0573 -0.17325,0.0174 -0.34753,0.0258 -0.52165,0.0278 -0.41969,0.005 -1.17887,-0.0342 -1.57369,-0.051 -1.8999,-0.12878 -3.79273,-0.33726 -5.69356,-0.45381 -1.3351,-0.0728 -2.67164,-0.11269 -4.00852,-0.12939 -0.18289,-0.005 -0.36571,-0.0138 -0.54866,-0.014 -0.18249,-1.2e-4 -0.36483,0.0117 -0.54732,0.0133 -0.36678,0.003 -0.73362,-0.0171 -1.10034,-0.01 -0.22748,0.004 -0.888314,0.0492 -1.110633,0.0634 -1.199155,0.12508 -2.399509,0.23548 -3.601231,0.33207 -0.797687,0.0491 -1.596268,0.0805 -2.395265,0.096 -0.688689,-0.003 -1.37715,0.0264 -2.065535,0.001 0,0 2.919224,2.12131 2.919224,2.12131 v 0 c 0.684231,-0.0266 1.369058,0.0115 2.053291,-0.0237 0.140444,-0.006 0.558258,-0.0214 0.696558,-0.0328 0.511818,-0.0421 1.019596,-0.13296 1.524638,-0.22221 0.318331,-0.0461 0.760754,-0.11234 1.076626,-0.14921 0.825337,-0.0964 1.656177,-0.13824 2.485327,-0.18606 0.87726,-0.0322 0.2656,-0.0156 1.13641,-0.0246 0.25068,-0.003 0.82295,-0.0143 1.06889,-0.0127 0.19403,0.001 0.38793,0.0125 0.58197,0.0122 0.16973,-2.7e-4 0.33932,-0.009 0.50899,-0.0142 1.25885,-0.0131 2.51777,-0.0435 3.77673,-0.0241 1.85427,0.0356 3.71117,0.0992 5.54929,0.36689 0.91293,0.12642 1.01106,0.13468 1.88699,0.27535 0.23824,0.0383 0.47749,0.0715 0.71384,0.12011 0.17143,0.0352 0.65474,0.22709 0.50841,0.13109 -3.0853,-2.02422 -3.92604,-0.92988 -2.90231,-2.07429 -0.0695,0.0775 -0.0124,0.0234 -0.1401,0.0997 -0.12909,0.0771 -0.24798,0.17283 -0.3921,0.22274 -0.20688,0.0668 -0.40981,0.13582 -0.62957,0.14724 -0.21545,0.0497 -0.43527,0.0753 -0.65371,0.10875 -0.24183,0.0205 -0.48419,0.0349 -0.72502,0.0639 -0.24879,0.0529 -0.49862,0.0888 -0.75101,0.11939 -0.31244,0.0362 -0.62395,0.0807 -0.91665,0.20251 -0.29965,0.0924 -0.60302,0.17943 -0.91375,0.22486 -0.0932,0.0134 -0.18686,0.0235 -0.2795,0.0402 -0.18971,0.0341 -0.37013,0.10671 -0.56121,0.1352 -0.36116,0.0398 -0.72279,0.0719 -1.08606,0.0817 -0.3249,0.0215 -0.64881,0.0571 -0.97375,0.0783 -0.32292,0.0356 -0.63573,0.11889 -0.95288,0.18707 -0.13245,0.0217 -0.26418,0.0481 -0.39719,0.066 -0.36909,0.0498 -0.74293,0.0577 -1.11471,0.0626 -0.5654,0.003 -1.13081,-0.004 -1.69619,-0.008 -0.4478,-0.0174 -0.89611,-0.0228 -1.34418,-0.0238 -0.37877,-0.005 -0.75707,0.002 -1.13576,0.008 -0.405161,-2.6e-4 -0.810203,-0.009 -1.215299,-0.0126 -0.46323,-0.0271 -0.927327,-0.0611 -1.381392,-0.16254 -0.524449,-0.10609 -1.043853,-0.23534 -1.570379,-0.33108 -0.438518,-0.0783 -0.880734,-0.13537 -1.324808,-0.17097 -0.345091,-0.0334 -0.689716,-0.0544 -1.036577,-0.0572 -0.482351,-0.0238 -0.965398,0.005 -1.447684,-0.0228 -0.736851,-0.0666 -1.472842,-0.15126 -2.197062,-0.30689 -0.275104,-0.0455 -0.550432,-0.0895 -0.824844,-0.13907 -0.170813,-0.0309 -0.340331,-0.0691 -0.51185,-0.0958 -0.05787,-0.009 -0.116448,-0.0126 -0.174673,-0.0189 -0.295661,-0.0394 -0.594481,-0.0549 -0.887182,-0.11467 -0.309806,-0.0714 -0.625176,-0.11742 -0.93694,-0.17969 -0.129156,-0.0213 -0.257516,-0.0478 -0.387297,-0.0649 -0.226584,-0.0298 -0.455673,-0.0247 -0.683495,-0.0325 -0.272069,-0.016 -0.543822,0.003 -0.815205,0.0257 -0.582142,0.0363 -1.164955,0.0718 -1.748579,0.0492 -0.516106,-0.0195 -1.033097,-0.0336 -1.545214,-0.10653 z" /><path
             style="display:inline;fill:#116eff;fill-opacity:1;stroke:none;stroke-width:0.365001;stroke-linecap:round;stroke-linejoin:round;stroke-dasharray:none;stroke-opacity:1"
             id="path1418"
             d="m 82.085692,201.00975 c -0.01005,0.016 7.94e-4,0.003 -0.02003,0.0127 -0.02029,0.009 -0.009,0.0125 -0.03539,0.0171 -0.087,0.015 0.02056,-0.0142 -0.05918,0.009 -0.01177,0.002 -0.02397,0.002 -0.03528,0.005 -0.06787,0.022 -0.0096,0.0182 -0.0838,0.0327 -0.05857,0.0114 -0.119756,0.006 -0.178673,0.003 -0.05535,-1.8e-4 -0.110154,-0.0178 -0.165328,-0.0187 -0.01677,-2.7e-4 -0.03344,0.003 -0.05019,0.004 -0.03796,0.003 -0.04483,0.002 -0.08157,0.003 -0.07978,0.009 0.02304,-0.002 -0.06499,0.004 -0.01085,7.9e-4 -0.02154,0.003 -0.03238,0.004 -0.03925,0.002 -0.07785,-0.002 -0.117149,7.9e-4 -0.08207,-5.3e-4 -0.163907,-0.007 -0.245028,-0.0191 -0.02904,-0.002 -0.05792,-0.0125 -0.0871,-0.0129 -0.0063,-1e-4 -0.01246,0.002 -0.01876,0.003 -0.02958,2.6e-4 -0.01492,-2.7e-4 -0.04396,0.002 -0.0075,7.9e-4 -0.01492,0.001 -0.02238,0.002 -0.0085,-2e-4 -0.01707,-0.001 -0.02556,-5.3e-4 -0.0076,5.3e-4 -0.0149,0.003 -0.02246,0.003 -0.02752,0.002 -0.0557,-0.002 -0.08302,-0.005 -0.01135,-0.008 -0.08628,0.004 -0.09108,-0.001 -0.0068,-0.008 -1.08e-4,-0.0213 -0.0035,-0.0313 -0.0024,-0.007 -0.0089,-0.0122 -0.01333,-0.0183 -0.01918,-0.0116 -0.04231,-0.0177 -0.06494,-0.0139 -0.0082,10e-4 -0.01564,0.006 -0.02365,0.008 -0.01558,0.004 -0.03088,0.006 -0.04677,0.008 -1.8e-4,2e-5 -0.04197,0.004 -0.04301,0.004 -0.0054,-0.003 -0.0024,-0.0131 -0.0068,-0.0177 -0.0088,-0.009 -0.02355,0.001 -0.03211,-1.2e-4 -0.0049,-8e-4 -0.0081,-0.006 -0.01222,-0.008 -0.01654,-0.0116 -0.05818,-0.004 -0.07369,-0.0108 -0.0066,-0.003 -0.0083,-0.0125 -0.01463,-0.0159 -0.0048,-0.003 -0.0406,-0.004 -0.04391,-0.004 -0.04425,0.002 -0.09015,2.6e-4 -0.133165,0.0119 -0.03915,0.0133 -0.08078,0.003 -0.12106,0.007 -0.0176,-0.007 -0.04319,0.0106 -0.05993,0.002 -0.006,-0.003 -0.0064,-0.0122 -0.0113,-0.0169 -0.01064,-0.0103 -0.02252,-0.0117 -0.03603,-0.0155 -0.0054,5.2e-4 -0.03778,0.005 -0.04258,0.004 -0.03418,-0.008 -0.0337,-0.0451 -0.07558,0.0183 -0.956796,1.44892 0.570897,0.81479 3.206742,2.35068 0.0123,-0.0161 0.02561,-0.0515 0.05286,-0.0477 0.0067,0.001 0.01037,0.009 0.01667,0.0117 0.0182,0.007 0.02896,0.003 0.04744,-5.3e-4 0.0308,-2.6e-4 0.06102,0.003 0.09181,0.002 0.0095,-5.3e-4 0.01892,-0.003 0.02836,-0.002 0.0067,5.3e-4 0.01265,0.004 0.01913,0.006 0.0093,0.002 0.01873,0.004 0.02808,0.006 0.0079,0.008 0.08641,0.0103 0.08987,0.014 0.0074,0.008 -0.0011,0.0232 0.0049,0.0321 0.0032,0.005 0.0113,-9e-5 0.01696,2.1e-4 0.0087,5.3e-4 0.01741,0.001 0.02611,0.002 0.0039,2.7e-4 0.0559,0.005 0.05966,0.004 0.0097,-0.002 0.01781,-0.009 0.02718,-0.0117 0.03002,-0.01 0.06242,-0.0116 0.09362,-0.0142 0.06792,-0.0126 0.135366,0.001 0.196273,0.0322 -1.072345,-0.77747 -2.144688,-1.55494 -3.217031,-2.33242 -0.02328,0.0297 -0.03187,0.0265 -0.06991,0.0264 -0.05022,0.002 -0.100108,-0.005 -0.150371,-0.003 -0.008,-2.6e-4 -0.01606,-0.002 -0.024,-0.001 -0.0065,8e-4 -0.0123,0.004 -0.01855,0.006 -0.02013,0.006 -0.03998,0.0136 -0.06057,0.0179 -0.02506,0.005 -0.0452,0.004 -0.07043,0.005 -0.01371,0.004 -0.0281,0.006 -0.04114,0.0118 -0.09497,0.0422 -0.14921,0.14829 -0.190609,0.23542 -0.01728,0.0364 -0.03173,0.0746 -0.0401,0.11397 -0.006,0.0283 -0.0016,0.0578 -0.0026,0.0866 0.01312,0.0104 0.02702,0.0198 0.03935,0.0311 0.01143,0.0105 0.01826,0.0263 0.03169,0.034 1.107612,0.63709 2.216092,1.27272 3.329647,1.89936 0.01198,0.007 0.02753,-7.9e-4 0.04117,-0.002 0.05399,-0.0102 0.02805,-0.006 0.07777,-0.0124 0.04496,-0.007 0.0891,0.0104 0.133437,0.0111 0.01265,2.3e-4 0.02506,-0.004 0.03764,-0.005 0.03987,-0.004 0.03863,-0.002 0.079,-2.6e-4 0.0432,0.0102 0.08616,-2.7e-4 0.129357,-5.3e-4 0.0209,-8e-5 0.04176,0.002 0.06266,0.002 0.06173,-0.003 0.123063,-0.008 0.184901,-0.002 0.02484,0.006 0.06493,0.0217 0.08886,-2.6e-4 0.978283,-0.90078 -2.520945,-1.94046 -3.173587,-2.36743 -0.01378,-0.009 -0.01675,0.0285 -0.02715,0.0412 -0.0046,0.006 -0.01153,0.009 -0.0173,0.0132 0.0016,-0.009 0.0075,-0.0182 0.005,-0.027 -0.0013,-0.005 -0.0096,-0.003 -0.01408,-0.005 -0.0049,-0.002 -0.0086,-0.007 -0.01368,-0.009 -0.02511,-0.0101 -0.05499,-0.0101 -0.08149,-0.0114 -0.0095,2e-4 -0.01924,-0.001 -0.02855,5.3e-4 -0.01558,0.007 -0.03623,0.0165 -0.05305,0.0201 -0.02651,0.006 -0.05333,0.006 -0.07992,0.0127 -0.01135,0.002 -0.04693,0.007 -0.05797,0.006 -0.008,-7.9e-4 -0.01524,-0.005 -0.0231,-0.007 -0.01857,-0.004 -0.04869,-0.004 -0.06643,-0.01 -0.0097,-0.003 -0.01831,-0.009 -0.02746,-0.0135 -0.01024,-0.002 -0.02064,-0.004 -0.03073,-0.007 -0.0085,-0.002 -0.0164,-0.006 -0.02482,-0.009 -0.04322,-0.0135 -0.08767,-0.0211 -0.132532,-0.0263 -0.04426,0.0103 -0.01008,0.004 -0.05579,0.008 -0.0089,7.9e-4 -0.01773,0.004 -0.02669,0.004 -0.0059,-2.6e-4 -0.01095,-0.005 -0.01675,-0.006 -0.0185,-0.003 -0.03741,-0.003 -0.05604,-0.005 -0.0079,-0.005 -0.01569,-0.0108 -0.02355,-0.0162 0,0 3.093698,2.32275 3.093698,2.32275 v 0 c 0.01016,-0.003 0.02035,-0.005 0.03051,-0.008 0.02059,0.002 0.04101,0.005 0.06164,0.006 0.01304,7.9e-4 0.02617,-0.002 0.03919,-5.3e-4 0.02273,0.002 0.04626,0.0121 0.06616,0.0223 0.05215,0.01 0.105328,0.0127 0.15824,0.0157 0.04056,-0.006 0.06366,-0.004 0.103849,-0.005 0.03692,-7.9e-4 0.07308,-0.005 0.109715,0.003 0.05907,0.0128 0.08679,0.013 0.132609,0.0571 0.03426,0.0233 0.04606,0.0254 0.08683,0.0349 0.0093,0.002 0.01812,0.009 0.02756,0.008 0.0149,-0.002 0.02793,-0.0111 0.0419,-0.0166 0.0054,0.006 0.01434,0.009 0.01617,0.017 0.0036,0.0149 0.01172,0.0543 -0.0011,0.0459 -1.101886,-0.72602 -2.225929,-1.42206 -3.284085,-2.21046 -0.05073,-0.0378 0.07649,-0.10118 0.120563,-0.14656 0.0065,-0.007 0.01828,-0.008 0.0274,-0.006 0.0048,0.001 -0.0076,0.006 -0.0114,0.009 -0.06383,0.007 -0.127593,-7.9e-4 -0.191484,-0.002 -0.0181,2.6e-4 -0.03618,0.002 -0.05429,0.002 -0.03693,-2.2e-4 -0.07358,-0.0102 -0.110535,-0.003 -0.02897,-8e-4 -0.02962,7.9e-4 -0.05999,-0.007 -0.01148,-0.003 -0.0223,-0.008 -0.03386,-0.0108 -0.0078,-0.002 -0.01595,-0.001 -0.02384,-0.002 -0.03349,-0.005 -0.03394,-0.008 -0.0685,-0.0207 -0.0469,-0.0233 -0.0365,-0.0127 -0.06912,-0.047 -0.0078,-0.008 -0.03226,-0.0312 -0.02241,-0.0256 6.711997,3.81527 4.491254,1.70957 3.24195,1.87446 -0.04684,0.0993 -0.09921,0.19381 -0.164769,0.28256 -0.01294,0.0175 -0.03041,0.0312 -0.04469,0.0477 -0.01169,0.0134 -0.0118,0.011 -0.0035,0.0168 0.01548,-0.003 0.02895,-0.008 0.0452,-0.006 0.009,10e-4 0.01733,0.006 0.02627,0.008 0.03154,0.007 0.06531,0.0133 0.09758,0.0117 0.04712,10e-4 0.09368,-0.005 0.140748,-0.003 0.04772,-1.4e-4 0.09265,0.0102 0.137422,0.0267 -1.067054,-0.77743 -2.134108,-1.55485 -3.20116,-2.33228 0.0045,0.004 0.01035,0.007 0.01349,0.0127 0.0048,0.008 -0.0016,0.0174 -0.0093,0.02 -0.02815,0.01 -0.06305,5.3e-4 -0.09093,-0.003 -0.03115,-0.005 -0.0632,-0.009 -0.09169,-0.0236 -0.0097,-0.005 -0.01786,-0.0127 -0.02743,-0.0179 -0.01154,-0.006 -0.02553,-0.007 -0.03686,-0.014 -0.005,-0.002 -0.05648,-0.0222 -0.05765,-0.022 -0.01408,0.002 -0.02344,0.0165 -0.03665,0.0217 -0.01101,0.004 -0.04923,-0.006 -0.06061,-8e-4 -0.02352,-5e-5 -0.04704,0.002 -0.07052,8e-4 -0.0328,-0.002 -0.06562,-0.0128 -0.09835,-0.0156 -0.02265,-0.007 -0.0368,-0.0146 -0.06084,-0.0134 -0.01101,5.3e-4 -0.02154,0.006 -0.03253,0.006 -0.0331,-0.002 -0.05833,-0.0286 -0.06768,-0.0579 1.132395,0.66167 2.340438,1.20821 3.397189,1.985 0.02387,0.0175 -0.125886,0.3213 -0.251045,0.38638 -0.0028,0.002 4.3e-5,-0.008 0.0031,-0.009 0.0029,-5.3e-4 0.03507,0.0118 0.03627,0.0122 0.0173,-1.7e-4 0.02294,10e-4 0.04062,-0.005 0.01029,-0.004 0.01932,-0.0105 0.02986,-0.0133 0.02088,-0.005 0.04394,0.006 0.06506,0.002 0.04039,0.003 0.08159,-0.006 0.120954,0.008 0.02897,0.009 0.05796,0.0177 0.08493,0.0321 0.0069,0.003 0.03194,0.0133 0.03846,0.0132 0.0088,-1.1e-4 0.01669,-0.007 0.02548,-0.007 0.01617,-8e-4 0.04417,0.0184 0.06097,0.0129 0.01132,0 0.02278,-0.002 0.03397,0 0.02209,0.003 0.02244,0.0161 0.04631,0.0108 0.0099,-0.002 0.01752,-0.0108 0.02733,-0.0132 0.0035,-8e-4 0.02545,0.006 0.02837,0.007 0.01138,0.005 0.01836,0.007 0.02824,0.0153 0.0209,0.0172 0.02814,0.0299 0.0587,0.0273 0.103835,-0.03 -0.0794,0.0255 0.06779,-0.0318 0.02138,-0.008 0.06433,0.01 0.08782,-10e-4 0.05118,-0.007 0.101661,-0.003 0.152975,-6e-5 0.01622,0.001 0.03249,7.9e-4 0.0487,0.002 0.0088,5.3e-4 0.01741,0.003 0.02619,0.003 0.01754,-2.5e-4 0.0347,-0.0107 0.05191,-0.0128 0.06475,-0.0162 0.131897,-0.0178 0.198355,-0.0202 0.0158,5.3e-4 0.03157,0.002 0.04737,0.002 0.0275,-5.2e-4 0.05472,-0.007 0.08236,-0.005 0.01619,-2.3e-4 0.03241,0.001 0.0486,5.3e-4 0.02763,-8e-4 0.05498,-0.007 0.08278,-0.005 0.01826,-0.003 0.04073,-0.007 0.05932,-0.009 0.0091,-5.3e-4 0.01836,8e-4 0.02745,-5.3e-4 0.03878,-0.005 0.07603,-0.0203 0.114853,-0.0253 0.05761,-0.009 0.115167,-0.015 0.173688,-0.0111 0.09789,0.007 0.04324,0.007 0.133578,0.0238 0.01654,0.003 0.03344,0.004 0.05016,0.005 0.01669,0.003 0.0334,0.005 0.05011,0.008 0.01156,2.6e-4 0.0232,-1.8e-4 0.03472,0.001 0.04636,0.005 0.09218,0.019 0.137374,0.0298 z" /></g><path
           style="display:inline;fill:#000000;fill-opacity:1;stroke:none;stroke-width:0.365001;stroke-linecap:round;stroke-linejoin:round;stroke-dasharray:none;stroke-opacity:1"
           id="path1366"
           d="m 85.07473,162.72518 c 0.04236,0.72799 0.255283,1.4323 0.445802,2.1313 0.150241,0.55122 0.481785,1.75261 0.627012,2.27957 0.527415,1.794 0.976595,3.61102 1.522912,5.39953 0.411486,1.34709 0.593366,1.83053 1.059075,3.17431 0.664408,1.93282 1.456049,3.82755 2.402551,5.64025 0.413517,0.79195 0.70789,1.26635 1.155827,2.02083 0.762183,1.29347 1.657085,2.49766 2.616205,3.64994 0.665102,0.7945 1.336511,1.58316 1.935187,2.42961 0.42754,0.59847 0.731443,1.26986 1.0425,1.93291 0.268544,0.60543 0.45058,1.24283 0.650754,1.8726 0.207105,0.70609 0.389355,1.42002 0.52619,2.14314 0.113069,0.65288 0.128066,1.31728 0.146809,1.97806 0.0173,0.8528 7.94e-4,1.7058 0.02803,2.55834 0.02307,0.78022 0.05621,1.55883 0.146918,2.33434 0.02484,0.49924 0.215659,0.95637 0.381355,1.41941 0.06998,0.23128 0.03947,0.11602 0.09214,0.34561 0,0 1.752493,0.8468 1.752493,0.8468 v 0 c -0.0491,-0.24522 -0.0211,-0.12182 -0.0845,-0.37009 -0.16379,-0.46291 -0.40229,-0.90431 -0.44236,-1.40282 -0.10601,-0.77362 -0.14881,-1.5529 -0.1835,-2.33264 -0.0257,-0.8476 -0.001,-1.69561 -0.006,-2.54351 -4e-5,-0.66943 -0.0162,-1.33944 -0.12089,-2.0023 -0.14213,-0.73072 -0.33792,-1.44854 -0.52821,-2.16787 -0.19492,-0.63592 -0.361264,-1.28225 -0.632668,-1.89186 -0.311695,-0.67659 -0.627798,-1.35601 -1.048068,-1.97326 -0.617397,-0.86251 -1.308253,-1.66587 -1.996014,-2.47253 -0.999534,-1.16085 -1.910058,-2.39524 -2.747499,-3.67796 -0.505404,-0.7983 -0.773917,-1.19719 -1.239343,-2.04372 -0.995018,-1.80976 -1.816071,-3.71134 -2.497076,-5.66 -0.180073,-0.5346 -0.368139,-1.06658 -0.540213,-1.6038 -0.728552,-2.2746 -1.28093,-4.59969 -1.919759,-6.89981 -0.235167,-0.94164 -0.334838,-1.30378 -0.532331,-2.22922 -0.122071,-0.57203 -0.266655,-1.18004 -0.273775,-1.77068 -7.94e-4,-0.0731 0.01228,-0.14575 0.01842,-0.21862 z"
           inkscape:label="middle" /><path
           style="display:inline;fill:#000000;fill-opacity:1;stroke:none;stroke-width:0.365001;stroke-linecap:round;stroke-linejoin:round;stroke-dasharray:none;stroke-opacity:1"
           id="path1367"
           d="m 105.14791,163.19095 c -0.0833,0.4343 -0.13934,0.87291 -0.19059,1.31244 -0.0816,0.81299 -0.21928,1.61827 -0.30355,2.43134 -0.078,0.74481 -0.15636,1.48954 -0.25351,2.23213 -0.15543,1.02371 -0.4056,2.02828 -0.67832,3.02594 -0.35289,1.17544 -0.80844,2.31566 -1.20995,3.47453 -0.24138,0.78762 -0.5495,1.54881 -0.88886,2.2983 -0.28841,0.67015 -0.67078,1.29275 -1.07479,1.89831 -0.47397,0.7071 -0.97828,1.39182 -1.49589,2.06736 -0.451892,0.54772 -0.913889,1.08665 -1.388893,1.61456 -0.309422,0.35636 -0.656778,0.67526 -0.983567,1.01483 -0.312087,0.35555 -0.684996,0.64587 -1.01967,0.97771 -0.321646,0.30601 -0.667557,0.57662 -1.088321,0.72612 -0.05165,0.0113 -0.103299,0.0226 -0.154948,0.034 0,0 1.607595,1.10376 1.607595,1.10376 v 0 c 0.05606,-0.0181 0.112107,-0.0362 0.168161,-0.0542 0.41878,-0.1952 0.768289,-0.49156 1.108128,-0.80125 0.341945,-0.32674 0.713404,-0.62059 1.024797,-0.97934 0.336378,-0.3339 0.677455,-0.66271 0.972183,-1.03551 0.459462,-0.54558 0.925055,-1.08572 1.376855,-1.63763 0.50658,-0.68695 0.99318,-1.38834 1.49746,-2.07685 0.42092,-0.60827 0.81078,-1.2394 1.09119,-1.9263 0.34223,-0.75765 0.65293,-1.52733 0.86967,-2.33186 0.36625,-1.1761 0.78668,-2.33296 1.17954,-3.50022 0.28795,-0.99416 0.57531,-1.99176 0.75972,-3.01122 0.10761,-0.74531 0.16885,-1.49514 0.24829,-2.24374 0.0707,-0.81061 0.20691,-1.61028 0.31823,-2.41548 0.0648,-0.42572 0.13362,-0.8512 0.25277,-1.2654 z" /><path
           id="path1368"
           style="display:inline;fill:#000000;fill-opacity:1;stroke:none;stroke-width:0.365001;stroke-linecap:round;stroke-linejoin:round;stroke-dasharray:none;stroke-opacity:1"
           d="m 76.465837,186.82628 c 0.01193,1.51615 0.02619,3.03209 0.05374,4.54804 0.05384,2.75552 0.136521,5.51161 0.359668,8.25945 0.15488,1.50584 0.341695,3.00765 0.525549,4.50928 0.03996,-0.0505 0.08404,-0.0978 0.128158,-0.14469 0.0763,-0.0771 0.16288,-0.14286 0.24908,-0.20826 0.103321,-0.0709 0.210012,-0.13715 0.315227,-0.20515 0.09242,-0.0581 0.181201,-0.1212 0.269751,-0.185 0.0563,-0.0419 0.109837,-0.0872 0.164847,-0.13074 0.04443,-0.0345 0.09128,-0.0655 0.140043,-0.0935 0.03158,-0.0215 0.0608,-0.0464 0.09095,-0.0698 0.0093,-0.006 0.0186,-0.0131 0.0279,-0.0191 0.0075,-0.005 0.0149,-0.0101 0.02222,-0.0139 0.01689,-0.0354 0.03733,-0.0616 0.05943,-0.0801 -0.111896,-0.84046 -0.215999,-1.68169 -0.312126,-2.5244 -0.273413,-2.74097 -0.335016,-5.49671 -0.376204,-8.24911 -0.01672,-1.50562 -0.01108,-3.01138 5.17e-4,-4.51703 z m 2.50579,16.91266 c -0.0078,0.007 -0.01483,0.0147 -0.0217,0.0227 0.0044,-0.001 0.0086,-0.003 0.01292,-0.004 0.0034,-0.005 0.0069,-0.0101 0.01034,-0.0145 5.73e-4,-0.003 3.47e-4,-0.006 -0.0016,-0.004 z" /><path
           style="display:inline;fill:#000000;fill-opacity:1;stroke:none;stroke-width:0.365001;stroke-linecap:round;stroke-linejoin:round;stroke-dasharray:none;stroke-opacity:1"
           id="path1401"
           d="m 78.385984,188.56713 c -0.135446,-1.16012 -0.444788,-2.29489 -0.717611,-3.42877 -0.47688,-2.08156 -0.617955,-4.21605 -0.718267,-6.34274 -0.05658,-1.91566 -0.08202,-3.8313 0.0013,-5.74623 0.147889,-1.97803 0.557572,-3.94115 1.254715,-5.80026 0.127693,-0.34052 0.27764,-0.67229 0.416462,-1.00843 0.597257,-1.20797 1.296964,-2.42719 2.332733,-3.31424 0.596382,-0.37828 1.301647,-0.43562 1.990088,-0.39892 0.120994,0.0263 0.241988,0.0525 0.362982,0.0787 0,0 -1.531753,-1.15622 -1.531753,-1.15622 v 0 c -0.128815,-0.0199 -0.25763,-0.0399 -0.386445,-0.0598 -0.728125,-0.007 -1.458978,0.0823 -2.06071,0.52932 -0.997741,0.96163 -1.665626,2.21782 -2.249598,3.45906 -0.349441,0.887 -0.502807,1.22899 -0.788758,2.15561 -0.471204,1.52694 -0.751768,3.11171 -0.92412,4.69807 -0.104757,1.9203 -0.100672,3.84321 -0.0031,5.76426 0.09471,2.12874 0.267607,4.2575 0.66749,6.35345 0.236194,1.09684 0.528445,2.1987 0.596482,3.32133 z" /><path
           style="display:inline;fill:#000000;fill-opacity:1;stroke:none;stroke-width:0.365001;stroke-linecap:round;stroke-linejoin:round;stroke-dasharray:none;stroke-opacity:1"
           id="path1402"
           d="m 107.21846,162.92748 c 0.89691,0.84618 1.76749,1.72051 2.52997,2.69257 0.2835,0.36143 0.54364,0.74059 0.81546,1.11088 1.71201,2.46909 2.91556,5.2382 4.08505,7.99246 0.98541,2.1899 1.54608,4.51725 2.01213,6.86162 0.30386,1.36673 0.45098,2.75606 0.57055,4.14822 0.10365,1.33302 0.34299,2.64823 0.52331,3.9716 0.0631,0.51465 0.10437,1.03148 0.15603,1.54733 0,0 1.69528,0.84144 1.69528,0.84144 v 0 c -0.0578,-0.51997 -0.0942,-1.04161 -0.16664,-1.55989 -0.19239,-1.32178 -0.46481,-2.63262 -0.54187,-3.96926 -0.0361,-0.42953 -0.0568,-0.8604 -0.10062,-1.28921 -0.10018,-0.9804 -0.33356,-1.94261 -0.52021,-2.9082 -0.5126,-2.36525 -1.08771,-4.72242 -2.09117,-6.93697 -1.17437,-2.75409 -2.38409,-5.52227 -4.05276,-8.0193 -0.26036,-0.3692 -0.51144,-0.74513 -0.78109,-1.1076 -0.69897,-0.9396 -1.48757,-1.79645 -2.31491,-2.62244 z" /><path
           id="path1812"
           style="display:inline;fill:#000000;fill-opacity:1;stroke:none;stroke-width:0.365001;stroke-linecap:round;stroke-linejoin:round;stroke-dasharray:none;stroke-opacity:1"
           d="m 117.26955,185.41035 c 0.17956,1.84084 0.14312,3.69187 0.13694,5.53868 -0.0356,1.71019 -0.0898,3.41438 0.1509,5.11131 0.20543,1.2838 0.46416,2.55677 0.61753,3.84835 0.10908,1.11252 0.21099,2.23787 0.0326,3.34656 -0.0709,0.25671 -0.17623,0.48236 -0.30644,0.68523 0.0159,0.009 0.032,0.0176 0.0481,0.0264 h 0.0336 0.0507 0.0434 c 0.021,-0.001 0.0417,0.004 0.062,0.008 0.0204,0.005 0.0402,0.0116 0.0599,0.0186 0.0159,0.005 0.0314,0.0105 0.0475,0.0155 0.0138,0.004 0.0279,0.007 0.0419,0.009 0.0154,0.003 0.0304,0.005 0.046,0.007 0.0177,0.002 0.0355,0.002 0.0532,0.003 0.0217,10e-4 0.0431,0.005 0.0641,0.0114 0.0156,0.004 0.0311,0.008 0.0465,0.0129 0.0135,0.004 0.0273,0.008 0.0408,0.0119 0.0198,0.005 0.0385,0.0122 0.0574,0.0202 0.0189,0.007 0.0382,0.0142 0.0574,0.0202 0.0226,0.007 0.0441,0.0173 0.0651,0.0284 0.0195,0.0107 0.0397,0.0199 0.0589,0.031 0.0175,0.0105 0.0347,0.0219 0.0517,0.0331 0.0175,0.0118 0.0341,0.0244 0.0512,0.0367 0.0129,0.009 0.0256,0.0192 0.0382,0.0289 0.0143,0.007 0.0285,0.0139 0.0429,0.0207 0.0382,0.0169 0.0762,0.0347 0.11318,0.0543 0.0351,0.0188 0.0702,0.0373 0.1049,0.0568 0.043,0.0241 0.0858,0.0486 0.12816,0.0739 0.062,0.0377 0.12244,0.0772 0.18293,0.1173 0.0689,0.0455 0.13929,0.089 0.20619,0.13746 0.0332,0.0234 0.067,0.0463 0.10025,0.0698 0.027,0.01 0.0536,0.0204 0.0806,0.0305 0.0215,0.009 0.0435,0.0173 0.0656,0.0253 0.0172,0.007 0.0337,0.0142 0.0506,0.0222 0.0149,0.007 0.0298,0.0146 0.0455,0.0196 0.0214,0.009 0.0421,0.0184 0.0631,0.0284 0.0277,0.0132 0.0551,0.0271 0.0827,0.0403 0.0368,0.0192 0.0736,0.0382 0.10904,0.0599 0.0347,0.0212 0.0691,0.0436 0.10284,0.0661 0.0268,0.0193 0.0535,0.0388 0.0801,0.0584 0.006,0.005 0.0129,0.01 0.0196,0.0145 0.0119,0.006 0.0238,0.0118 0.0357,0.0176 0.0227,0.01 0.0458,0.0181 0.0677,0.0295 0.009,0.005 0.0183,0.009 0.0274,0.014 0.006,7e-4 0.0117,0.002 0.0176,0.003 0.0158,0.004 0.0303,0.0115 0.0455,0.0165 0.014,0.005 0.0271,0.0126 0.0408,0.0176 0.0146,0.007 0.029,0.0147 0.0434,0.0217 0.0175,0.008 0.0342,0.0177 0.0506,0.0279 0.0159,0.0102 0.0316,0.0206 0.047,0.0315 0.0143,0.009 0.0285,0.0177 0.0419,0.0279 0.0138,0.0104 0.0281,0.0201 0.0419,0.0305 0.0137,0.0113 0.0285,0.0216 0.0429,0.032 0.015,0.0132 0.0313,0.0245 0.0475,0.0362 0.006,0.004 0.0122,0.008 0.0181,0.0124 4.1e-4,2.2e-4 6.7e-4,8.3e-4 0.001,0.001 0.0268,0.015 0.0545,0.0289 0.0822,0.0424 0.0401,0.0204 0.0803,0.0407 0.12041,0.061 0.0257,0.013 0.0524,0.0235 0.0775,0.0377 0.002,0.002 0.003,0.003 0.005,0.004 0.0952,-0.17365 0.17819,-0.35808 0.23978,-0.5612 0.038,-0.1733 0.0914,-0.34393 0.11421,-0.51987 0.12039,-0.92879 -0.13424,-2.01175 -0.12713,-2.94917 -0.15767,-1.30166 -0.38744,-2.59174 -0.64699,-3.87677 -0.28081,-1.69343 -0.28014,-3.39775 -0.27698,-5.11131 -0.006,-1.80004 -0.0483,-3.60614 0.13694,-5.39967 z m -0.32401,19.45514 v 5.2e-4 c -10e-4,6.8e-4 -0.002,0.001 -0.003,0.002 0.001,-3.2e-4 0.003,-0.001 0.004,-0.002 -3.1e-4,-2.1e-4 -9.7e-4,-3.1e-4 -0.001,-5.2e-4 z m 3.40289,0.42892 c -3.3e-4,1.8e-4 -10e-4,1.6e-4 -10e-4,0.002 0.0203,0.0123 0.0414,0.023 0.0615,0.0357 0.002,7.3e-4 0.003,0.001 0.005,0.002 -0.0152,-0.009 -0.0303,-0.0174 -0.0455,-0.0264 -0.007,-0.004 -0.0129,-0.009 -0.0202,-0.0129 z" /></g><path
         style="display:inline;fill:#ffffff;fill-opacity:1;stroke:none;stroke-width:1.37953;stroke-linecap:round;stroke-linejoin:round;stroke-dasharray:none;stroke-opacity:1"
         d="m 281.84846,666.5 c -7.47666,-11.54273 -11.07257,-19.14308 -15.84105,-33.48181 -2.46704,-7.41835 -9.67408,-33.20428 -9.67408,-34.61271 0,-0.25824 1.35107,0.46002 3.00237,1.59615 7.32524,5.0399 11.46926,5.64768 22.00553,3.22741 l 6.25849,-1.43762 6.53347,2.27096 c 6.33077,2.2005 6.85046,2.27095 16.75045,2.27095 h 10.21698 l -0.43113,3 c -0.76921,5.35258 -3.01182,13.33703 -6.44175,22.9348 -4.0099,11.22069 -5.89263,14.90635 -11.44172,22.39854 -4.15603,5.61133 -15.47126,18 -16.44037,18 -0.27654,0 -2.30028,-2.775 -4.49719,-6.16667 z"
         id="path1428"
         transform="matrix(0.26458333,0,0,0.26458333,19.475,7.8)"
         inkscape:label="color t-shirt" /></g></g></svg>
