<?xml version="1.0" encoding="UTF-8" standalone="no"?>
<!-- Created with Inkscape (http://www.inkscape.org/) -->

<svg
   width="35.700001mm"
   height="13.350005mm"
   viewBox="0 0 35.700001 13.350005"
   version="1.1"
   id="svg1"
   inkscape:version="1.3.2 (091e20e, 2023-11-25, custom)"
   sodipodi:docname="mage-idle-0.svg"
   xml:space="preserve"
   inkscape:export-filename="..\separated\bottom-body-cloths.svg"
   inkscape:export-xdpi="96"
   inkscape:export-ydpi="96"
   xmlns:inkscape="http://www.inkscape.org/namespaces/inkscape"
   xmlns:sodipodi="http://sodipodi.sourceforge.net/DTD/sodipodi-0.dtd"
   xmlns:xlink="http://www.w3.org/1999/xlink"
   xmlns="http://www.w3.org/2000/svg"
   xmlns:svg="http://www.w3.org/2000/svg"><sodipodi:namedview
     id="namedview1"
     pagecolor="#ffffff"
     bordercolor="#000000"
     borderopacity="0.25"
     inkscape:showpageshadow="2"
     inkscape:pageopacity="0.0"
     inkscape:pagecheckerboard="0"
     inkscape:deskcolor="#d1d1d1"
     inkscape:document-units="mm"
     inkscape:export-bgcolor="#ffffff00"
     inkscape:zoom="0.53033009"
     inkscape:cx="277.18586"
     inkscape:cy="500.6316"
     inkscape:window-width="1304"
     inkscape:window-height="745"
     inkscape:window-x="1358"
     inkscape:window-y="-8"
     inkscape:window-maximized="1"
     inkscape:current-layer="g1928" /><defs
     id="defs1"><linearGradient
       id="linearGradient34"
       inkscape:collect="always"><stop
         style="stop-color:#251b1b;stop-opacity:1;"
         offset="0"
         id="stop36" /><stop
         style="stop-color:#333333;stop-opacity:0.96825397;"
         offset="0.33910906"
         id="stop35" /><stop
         style="stop-color:#000000;stop-opacity:1;"
         offset="0.81435649"
         id="stop34" /></linearGradient><linearGradient
       inkscape:collect="always"
       xlink:href="#linearGradient34"
       id="linearGradient35"
       x1="79.541275"
       y1="133.16588"
       x2="94.831253"
       y2="133.16588"
       gradientUnits="userSpaceOnUse"
       gradientTransform="matrix(0.86897901,0,0,0.9767037,57.897412,-215.81735)" /><linearGradient
       inkscape:collect="always"
       xlink:href="#linearGradient34"
       id="linearGradient37"
       gradientUnits="userSpaceOnUse"
       gradientTransform="matrix(0.86897901,0,0,0.9767037,57.897412,-215.81735)"
       x1="79.541275"
       y1="133.16588"
       x2="94.831253"
       y2="133.16588" /></defs><g
     inkscape:groupmode="layer"
     id="layer4"
     inkscape:label="mage"
     transform="translate(-111.23355,-129.75386)"
     inkscape:highlight-color="#7d39ff"><g
       id="g25"
       inkscape:label="head"
       style="display:inline"
       transform="translate(31.929799,2.9934187)"><g
         id="g29"
         inkscape:label="eyes"
         style="display:inline"
         inkscape:export-filename="..\separated\eyes.svg"
         inkscape:export-xdpi="96"
         inkscape:export-ydpi="96"><ellipse
           style="display:inline;fill:#f9dada;fill-opacity:0.835294;stroke-width:0.365001;stroke-linecap:round;stroke-linejoin:round"
           id="path80"
           cx="85.803505"
           cy="133.67964"
           rx="6.1115632"
           ry="6.2206984"
           transform="translate(1.0208333e-6)" /><ellipse
           style="display:inline;fill:#f9dada;fill-opacity:0.835294;stroke-width:0.365001;stroke-linecap:round;stroke-linejoin:round"
           id="ellipse81"
           cx="108.59713"
           cy="133.2431"
           rx="6.1115632"
           ry="6.2206984"
           transform="translate(1.0208333e-6)" /><g
           id="g36"
           inkscape:label="left eye"
           style="display:none"><path
             style="fill:#000000;fill-opacity:1;stroke:none;stroke-width:0.865;stroke-linecap:round;stroke-linejoin:round"
             id="path32"
             d="m 84.75601,129.68501 c -0.282072,-0.006 -0.557379,0.0352 -0.829458,0.10716 -0.356211,0.0901 -0.634447,0.29262 -0.875821,0.5619 -0.222364,0.24037 -0.36893,0.52217 -0.466426,0.83191 -0.04617,0.25439 -0.0887,0.52587 -0.03638,0.78311 0.01244,0.0611 0.03447,0.11995 0.05171,0.17992 0.111059,0.32968 0.329022,0.58742 0.577572,0.82216 0.511895,0.41467 1.110462,0.71888 1.678477,1.04314 0.308009,0.13858 0.633979,0.21472 0.967285,0.25812 0.358211,0.0258 0.718108,0.0426 1.076899,0.0223 0.243456,-0.0584 0.491204,-0.15583 0.69224,-0.30948 0.136819,-0.10458 0.200107,-0.18703 0.314539,-0.31437 0.275029,-0.33341 0.354629,-0.74522 0.396415,-1.16292 0.04256,-0.35215 0.02492,-0.69901 -0.07485,-1.03894 -0.110961,-0.3439 -0.3721,-0.59541 -0.622449,-0.84301 -0.1393,-0.13045 -0.284257,-0.25528 -0.451403,-0.34917 -0.557503,-0.31317 -0.774713,-0.50734 -1.282832,-0.61922 -0.306464,-0.0556 -0.619683,-0.0421 -0.929627,-0.0416 -0.269576,-0.001 -0.539154,-5.3e-4 -0.808733,-0.002 -0.142422,0.0339 -0.07233,0.009 -0.20946,0.0774 0,0 0.805273,0.53661 0.805273,0.53661 v 0 c 0.124637,-0.0437 0.06191,-0.0291 0.187819,-0.0453 0.263787,-0.004 0.527564,-0.008 0.791364,-0.0104 0.308004,0.001 0.619543,2.7e-4 0.922271,0.0643 0.411028,0.10976 0.630407,0.31335 -0.358402,-0.30008 -0.0521,-0.0323 0.109625,0.0554 0.161169,0.0886 0.101562,0.0654 0.215286,0.16614 0.306929,0.24312 0.242539,0.23234 0.497176,0.47533 0.623306,0.79331 0.117716,0.32823 0.142602,0.66412 0.10646,1.01109 -0.03759,0.39807 -0.102425,0.79267 -0.363066,1.11267 -0.048,0.052 -0.09225,0.1077 -0.143987,0.15597 -0.228674,0.21331 -0.524914,0.35029 -0.831741,0.39966 -0.356846,0.0123 -0.715555,0.001 -1.070388,-0.0396 -0.325379,-0.0505 -0.64534,-0.13328 -0.941808,-0.28027 1.399598,0.82466 0.231214,0.14722 -0.05984,-0.0906 -0.253635,-0.2178 -0.476806,-0.46349 -0.60347,-0.77823 -0.0457,-0.13307 -0.07498,-0.18838 -0.08366,-0.32954 -0.0118,-0.19168 0.02771,-0.3887 0.05575,-0.57704 0.08058,-0.3024 0.219059,-0.57077 0.436935,-0.79938 0.242046,-0.26871 0.485574,-0.42651 0.839415,-0.5173 0.281122,-0.0604 0.562578,-0.0904 0.850233,-0.0646 z" /><path
             style="display:inline;fill:#000000;fill-opacity:1;stroke:none;stroke-width:0.865;stroke-linecap:round;stroke-linejoin:round"
             id="path28"
             d="m 81.600003,134.33405 c -0.03008,-0.49356 0.04874,-0.97642 0.135197,-1.44918 0.08481,-0.40692 0.21083,-0.80408 0.422745,-1.10272 0.111399,-0.15698 0.288866,-0.32673 0.412808,-0.45346 0.597983,-0.54013 1.232802,-0.80879 1.910244,-1.03384 0.692602,-0.20792 1.399042,-0.26903 2.103777,-0.30102 0.24454,-0.001 0.489503,-0.016 0.734069,-0.008 0.07103,0.002 0.142773,-0.002 0.212894,0.0151 0.185303,0.0445 0.351489,0.15131 0.526075,0.24712 0.0429,0.0287 0.529414,0.3369 0.548719,0.41906 0.03142,0.13376 -0.247832,-0.32504 -0.259267,-0.18448 -0.01241,0.15267 0.169715,0.17862 0.252084,0.27279 0.18695,0.21377 0.271179,0.33192 0.445974,0.5614 0.364772,0.47374 0.693288,0.9957 0.965504,1.58951 0.08676,0.2092 0.155512,0.43121 0.219944,0.65658 0,0 0.58623,0.39862 0.58623,0.39862 v 0 c -0.06496,-0.2335 -0.13734,-0.46061 -0.223529,-0.67918 -0.272196,-0.60736 -0.607952,-1.13752 -0.976193,-1.62152 -0.223641,-0.29573 -0.447979,-0.60738 -0.701183,-0.84885 -0.25806,-0.2461 -0.521745,-0.47919 -0.785146,-0.71265 -0.272705,-0.2417 -0.269953,-0.22391 -0.558265,-0.41048 -0.202587,-0.10601 -0.338875,-0.19497 -0.551598,-0.23999 -0.07033,-0.0149 -0.141997,-0.009 -0.213043,-0.01 -0.241019,-0.004 -0.482098,0.0154 -0.722972,0.0229 -0.701666,0.0432 -1.403796,0.12778 -2.093403,0.332 -0.67654,0.22235 -1.34705,0.50267 -1.943465,1.04211 -0.142816,0.14242 -0.303177,0.2889 -0.429622,0.46526 -0.2203,0.30727 -0.348835,0.71825 -0.43596,1.13931 -0.09319,0.47047 -0.177033,0.95192 -0.178422,1.44523 z" /></g><g
           id="g37"
           inkscape:label="right eye"
           transform="translate(22.8,-0.45)"
           style="display:none"><path
             style="fill:#000000;fill-opacity:1;stroke:none;stroke-width:0.865;stroke-linecap:round;stroke-linejoin:round"
             id="path36"
             d="m 84.75601,129.68501 c -0.282072,-0.006 -0.557379,0.0352 -0.829458,0.10716 -0.356211,0.0901 -0.634447,0.29262 -0.875821,0.5619 -0.222364,0.24037 -0.36893,0.52217 -0.466426,0.83191 -0.04617,0.25439 -0.0887,0.52587 -0.03638,0.78311 0.01244,0.0611 0.03447,0.11995 0.05171,0.17992 0.111059,0.32968 0.329022,0.58742 0.577572,0.82216 0.511895,0.41467 1.110462,0.71888 1.678477,1.04314 0.308009,0.13858 0.633979,0.21472 0.967285,0.25812 0.358211,0.0258 0.718108,0.0426 1.076899,0.0223 0.243456,-0.0584 0.491204,-0.15583 0.69224,-0.30948 0.136819,-0.10458 0.200107,-0.18703 0.314539,-0.31437 0.275029,-0.33341 0.354629,-0.74522 0.396415,-1.16292 0.04256,-0.35215 0.02492,-0.69901 -0.07485,-1.03894 -0.110961,-0.3439 -0.3721,-0.59541 -0.622449,-0.84301 -0.1393,-0.13045 -0.284257,-0.25528 -0.451403,-0.34917 -0.557503,-0.31317 -0.774713,-0.50734 -1.282832,-0.61922 -0.306464,-0.0556 -0.619683,-0.0421 -0.929627,-0.0416 -0.269576,-0.001 -0.539154,-5.3e-4 -0.808733,-0.002 -0.142422,0.0339 -0.07233,0.009 -0.20946,0.0774 0,0 0.805273,0.53661 0.805273,0.53661 v 0 c 0.124637,-0.0437 0.06191,-0.0291 0.187819,-0.0453 0.263787,-0.004 0.527564,-0.008 0.791364,-0.0104 0.308004,0.001 0.619543,2.7e-4 0.922271,0.0643 0.411028,0.10976 0.630407,0.31335 -0.358402,-0.30008 -0.0521,-0.0323 0.109625,0.0554 0.161169,0.0886 0.101562,0.0654 0.215286,0.16614 0.306929,0.24312 0.242539,0.23234 0.497176,0.47533 0.623306,0.79331 0.117716,0.32823 0.142602,0.66412 0.10646,1.01109 -0.03759,0.39807 -0.102425,0.79267 -0.363066,1.11267 -0.048,0.052 -0.09225,0.1077 -0.143987,0.15597 -0.228674,0.21331 -0.524914,0.35029 -0.831741,0.39966 -0.356846,0.0123 -0.715555,0.001 -1.070388,-0.0396 -0.325379,-0.0505 -0.64534,-0.13328 -0.941808,-0.28027 1.399598,0.82466 0.231214,0.14722 -0.05984,-0.0906 -0.253635,-0.2178 -0.476806,-0.46349 -0.60347,-0.77823 -0.0457,-0.13307 -0.07498,-0.18838 -0.08366,-0.32954 -0.0118,-0.19168 0.02771,-0.3887 0.05575,-0.57704 0.08058,-0.3024 0.219059,-0.57077 0.436935,-0.79938 0.242046,-0.26871 0.485574,-0.42651 0.839415,-0.5173 0.281122,-0.0604 0.562578,-0.0904 0.850233,-0.0646 z" /><path
             style="display:inline;fill:#000000;fill-opacity:1;stroke:none;stroke-width:0.865;stroke-linecap:round;stroke-linejoin:round"
             id="path37"
             d="m 81.600003,134.33405 c -0.03008,-0.49356 0.04874,-0.97642 0.135197,-1.44918 0.08481,-0.40692 0.21083,-0.80408 0.422745,-1.10272 0.111399,-0.15698 0.288866,-0.32673 0.412808,-0.45346 0.597983,-0.54013 1.232802,-0.80879 1.910244,-1.03384 0.692602,-0.20792 1.399042,-0.26903 2.103777,-0.30102 0.24454,-0.001 0.489503,-0.016 0.734069,-0.008 0.07103,0.002 0.142773,-0.002 0.212894,0.0151 0.185303,0.0445 0.351489,0.15131 0.526075,0.24712 0.0429,0.0287 0.529414,0.3369 0.548719,0.41906 0.03142,0.13376 -0.247832,-0.32504 -0.259267,-0.18448 -0.01241,0.15267 0.169715,0.17862 0.252084,0.27279 0.18695,0.21377 0.271179,0.33192 0.445974,0.5614 0.364772,0.47374 0.693288,0.9957 0.965504,1.58951 0.08676,0.2092 0.155512,0.43121 0.219944,0.65658 0,0 0.58623,0.39862 0.58623,0.39862 v 0 c -0.06496,-0.2335 -0.13734,-0.46061 -0.223529,-0.67918 -0.272196,-0.60736 -0.607952,-1.13752 -0.976193,-1.62152 -0.223641,-0.29573 -0.447979,-0.60738 -0.701183,-0.84885 -0.25806,-0.2461 -0.521745,-0.47919 -0.785146,-0.71265 -0.272705,-0.2417 -0.269953,-0.22391 -0.558265,-0.41048 -0.202587,-0.10601 -0.338875,-0.19497 -0.551598,-0.23999 -0.07033,-0.0149 -0.141997,-0.009 -0.213043,-0.01 -0.241019,-0.004 -0.482098,0.0154 -0.722972,0.0229 -0.701666,0.0432 -1.403796,0.12778 -2.093403,0.332 -0.67654,0.22235 -1.34705,0.50267 -1.943465,1.04211 -0.142816,0.14242 -0.303177,0.2889 -0.429622,0.46526 -0.2203,0.30727 -0.348835,0.71825 -0.43596,1.13931 -0.09319,0.47047 -0.177033,0.95192 -0.178422,1.44523 z" /></g><g
           id="g1278"
           inkscape:label="glasses"
           style="display:inline"><circle
             style="display:inline;fill:none;fill-opacity:1;stroke:url(#linearGradient35);stroke-width:0.365;stroke-linecap:round;stroke-linejoin:round;stroke-dasharray:none"
             id="path34"
             cx="133.66045"
             cy="-85.753754"
             transform="rotate(90)"
             r="6.2675018"
             inkscape:label="glasses" /><path
             style="display:inline;fill:#000000;fill-opacity:1;stroke:#000000;stroke-width:0.365001;stroke-linecap:round;stroke-linejoin:round;stroke-dasharray:none;stroke-opacity:1"
             id="path38"
             d="m 92.523126,134.33554 c 0.622911,-0.18969 1.263203,-0.31213 1.900955,-0.43965 0.782177,-0.13763 1.563648,-0.28034 2.354627,-0.35634 0.555363,-0.0452 1.112867,-0.044 1.669614,-0.0456 0.237426,0.0117 0.477321,-0.0133 0.714568,0.002 0.244568,0.0159 0.49108,0.0687 0.733951,0.10072 0.678029,0.0938 1.332329,0.33893 1.947729,0.63316 0.68315,0.38271 -0.22723,-0.1402 -0.34688,-0.19893 -0.0669,-0.0329 0.12136,0.0867 0.18052,0.13211 0.0573,0.0439 0.1125,0.0906 0.16875,0.13583 0,0 0.88536,0.3562 0.88536,0.3562 v 0 c -0.0406,-0.0334 -0.30956,-0.25712 -0.35044,-0.28223 -0.73764,-0.45301 -0.75692,-0.45802 -1.26784,-0.72402 -0.62798,-0.28471 -1.289073,-0.51956 -1.973735,-0.61777 -0.485301,-0.0698 -0.967399,-0.1243 -1.459172,-0.0941 -0.555035,0.003 -1.110575,0.0145 -1.663901,0.061 -0.783365,0.0839 -1.552458,0.25767 -2.329577,0.38399 -0.661138,0.12283 -1.320564,0.25385 -1.978678,0.39198 z"
             inkscape:label="glasses" /><circle
             style="display:inline;fill:none;fill-opacity:1;stroke:url(#linearGradient37);stroke-width:0.365;stroke-linecap:round;stroke-linejoin:round;stroke-dasharray:none"
             id="circle37"
             cx="133.66045"
             cy="-85.753754"
             transform="rotate(90,11.625,11.175)"
             r="6.2675018"
             inkscape:label="glasses" /></g><g
           id="g81"
           inkscape:label="green"
           style="display:none"><path
             style="display:inline;fill:#008080;fill-opacity:1;stroke:none;stroke-width:0.365001;stroke-linecap:round;stroke-linejoin:round;stroke-dasharray:none;stroke-opacity:1"
             id="path1260"
             d="m 85.214104,131.20881 c -0.07236,0.17951 -0.09538,0.37286 -0.116084,0.56377 0.008,0.0744 0.01572,0.20506 0.09338,0.2507 0.638193,0.37516 0.64902,0.64026 1.072951,0.44123 0.185296,-0.12326 0.277151,-0.30604 0.314529,-0.51973 0.0019,-0.49936 -0.61682,-0.92907 -1.097193,-0.8553 -0.03004,0.0112 -0.06009,0.0223 -0.09013,0.0335 0,0 0.80463,0.55358 0.80463,0.55358 v 0 c 0.02532,-0.003 0.05062,-0.007 0.07594,-0.0101 0.351184,0.0901 0.153998,0.0465 -0.697164,-0.44775 -0.02244,-0.013 0.03973,0.0338 0.05627,0.0538 0.052,0.0629 0.07657,0.13832 0.08582,0.2182 -0.01717,0.18052 -0.09472,0.34308 -0.263683,0.42677 -0.02294,0.005 -0.04532,0.0149 -0.06886,0.0163 -0.02066,10e-4 -0.07903,-0.0192 -0.06157,-0.008 0.254645,0.16206 0.51979,0.30704 0.777708,0.46383 0.02032,0.0124 -0.04595,-0.0155 -0.06455,-0.0303 -0.05142,-0.0409 -0.05544,-0.0784 -0.07673,-0.137 0.01601,-0.17787 0.03288,-0.36213 0.114279,-0.52403 z"
             inkscape:label="green left" /><path
             style="display:inline;fill:#008080;fill-opacity:1;stroke:none;stroke-width:0.365001;stroke-linecap:round;stroke-linejoin:round;stroke-dasharray:none;stroke-opacity:1"
             id="path1261"
             d="m 107.95234,130.81618 c -0.0724,0.17951 -0.0954,0.37286 -0.11608,0.56377 0.008,0.0744 0.0157,0.20506 0.0934,0.2507 0.6382,0.37516 0.64902,0.64026 1.07296,0.44123 0.18529,-0.12326 0.27715,-0.30604 0.31453,-0.51973 0.002,-0.49936 -0.61683,-0.92907 -1.0972,-0.8553 -0.03,0.0112 -0.0601,0.0223 -0.0901,0.0335 0,0 0.80463,0.55358 0.80463,0.55358 v 0 c 0.0253,-0.003 0.0506,-0.007 0.0759,-0.0101 0.35119,0.0901 0.154,0.0465 -0.69717,-0.44775 -0.0224,-0.013 0.0397,0.0338 0.0563,0.0538 0.052,0.0629 0.0766,0.13832 0.0858,0.2182 -0.0172,0.18052 -0.0947,0.34308 -0.26368,0.42677 -0.0229,0.005 -0.0453,0.0149 -0.0689,0.0163 -0.0207,0.001 -0.079,-0.0192 -0.0616,-0.008 0.25465,0.16206 0.51979,0.30704 0.77771,0.46383 0.0203,0.0124 -0.0459,-0.0155 -0.0645,-0.0303 -0.0514,-0.0409 -0.0554,-0.0784 -0.0767,-0.137 0.016,-0.17787 0.0329,-0.36213 0.11428,-0.52403 z"
             inkscape:label="green right"
             transform="translate(1.0208333e-6)" /></g><path
           style="fill:#000000;fill-opacity:0.981707;stroke-width:0.365001;stroke-linecap:round;stroke-linejoin:round"
           id="path81"
           d="m 81.961699,133.73655 c 0.01958,-0.001 0.03977,-0.009 0.05871,-0.004 0.106056,0.0285 0.443865,0.23959 0.517607,0.2798 0.335053,0.18266 0.365911,0.19424 0.716823,0.37031 0.830884,0.39271 1.741635,0.53311 2.64537,0.64095 0.461666,0.0304 0.932775,0.1071 1.396084,0.0537 0.07946,-0.009 0.157816,-0.0262 0.236726,-0.0393 0.495437,-0.13434 0.914736,-0.43386 1.328716,-0.7248 0.194601,-0.15022 0.382138,-0.30925 0.571571,-0.46585 0,0 -0.775369,-0.4844 -0.775369,-0.4844 v 0 c -0.185925,0.15897 -0.373129,0.3166 -0.574223,0.45647 -0.395475,0.29667 -0.806616,0.58673 -1.299498,0.69173 -0.07722,0.0108 -0.154038,0.025 -0.231658,0.0323 -0.44613,0.0422 -0.89783,-0.0142 -1.343274,-0.0336 -0.89988,-0.0917 -1.798677,-0.24905 -2.615994,-0.65714 -0.386458,-0.19912 -0.370469,-0.18618 -0.74118,-0.39514 -0.213778,-0.1205 -0.434242,-0.29466 -0.690821,-0.30307 z"
           inkscape:label="closed left" /><path
           style="display:inline;fill:#000000;fill-opacity:0.981707;stroke-width:0.365001;stroke-linecap:round;stroke-linejoin:round"
           id="path82"
           d="m 104.30549,133.47425 c 0.69008,0.52524 1.50678,0.86629 2.30465,1.19207 0.57924,0.25492 1.20057,0.36612 1.82166,0.46258 0.65287,0.0938 1.31227,0.11993 1.97083,0.13379 0.38765,-0.0159 0.78061,-0.0208 1.15806,-0.12235 0.22199,-0.0597 0.28226,-0.0973 0.49086,-0.19178 0.45641,-0.25315 0.86793,-0.57751 1.22496,-0.95707 0.16392,-0.1912 0.0872,-0.0958 0.23104,-0.28542 0,0 -0.80845,-0.47821 -0.80845,-0.47821 v 0 c -0.13159,0.18875 -0.0616,0.0933 -0.21082,0.28588 -0.33451,0.38331 -0.74047,0.6973 -1.19209,0.93252 -0.20183,0.0863 -0.26532,0.12256 -0.47816,0.1773 -0.36944,0.095 -0.75372,0.10649 -1.13275,0.11558 -0.6539,-0.0144 -1.30936,-0.0374 -1.95665,-0.13879 -0.61642,-0.10624 -1.23215,-0.22693 -1.80912,-0.47798 -0.3207,-0.13141 -0.63917,-0.26505 -0.94976,-0.41934 -0.0926,-0.046 -0.36231,-0.19913 -0.27531,-0.14318 0.19837,0.1276 0.40418,0.24339 0.61005,0.35849 0.0324,0.0181 -0.0593,-0.0448 -0.089,-0.0672 z"
           inkscape:label="closed right" /></g></g></g></svg>
