<?xml version="1.0" encoding="UTF-8" standalone="no"?>
<!-- Created with Inkscape (http://www.inkscape.org/) -->

<svg
   width="98.729881mm"
   height="58.763603mm"
   viewBox="0 0 98.729881 58.763604"
   version="1.1"
   id="svg1"
   inkscape:version="1.3.2 (091e20e, 2023-11-25, custom)"
   sodipodi:docname="mage-idle-0.svg"
   xml:space="preserve"
   inkscape:export-filename="..\separated\bottom-body-cloths.svg"
   inkscape:export-xdpi="96"
   inkscape:export-ydpi="96"
   xmlns:inkscape="http://www.inkscape.org/namespaces/inkscape"
   xmlns:sodipodi="http://sodipodi.sourceforge.net/DTD/sodipodi-0.dtd"
   xmlns="http://www.w3.org/2000/svg"
   xmlns:svg="http://www.w3.org/2000/svg"><sodipodi:namedview
     id="namedview1"
     pagecolor="#ffffff"
     bordercolor="#000000"
     borderopacity="0.25"
     inkscape:showpageshadow="2"
     inkscape:pageopacity="0.0"
     inkscape:pagecheckerboard="0"
     inkscape:deskcolor="#d1d1d1"
     inkscape:document-units="mm"
     inkscape:export-bgcolor="#ffffff00"
     inkscape:zoom="0.53033009"
     inkscape:cx="277.18586"
     inkscape:cy="500.6316"
     inkscape:window-width="1304"
     inkscape:window-height="745"
     inkscape:window-x="1358"
     inkscape:window-y="-8"
     inkscape:window-maximized="1"
     inkscape:current-layer="g1928" /><defs
     id="defs1"><filter
       style="color-interpolation-filters:sRGB"
       inkscape:label="Drop Shadow"
       id="filter2020"
       x="-0.08537899"
       y="-0.64791537"
       width="1.170758"
       height="2.5298002"><feFlood
         result="flood"
         in="SourceGraphic"
         flood-opacity="1.000000"
         flood-color="rgb(0,0,0)"
         id="feFlood2019" /><feGaussianBlur
         result="blur"
         in="SourceGraphic"
         stdDeviation="3.000000"
         id="feGaussianBlur2019" /><feOffset
         result="offset"
         in="blur"
         dx="0.000000"
         dy="2.600000"
         id="feOffset2019" /><feComposite
         result="comp1"
         operator="in"
         in="flood"
         in2="offset"
         id="feComposite2019" /><feComposite
         result="comp2"
         operator="over"
         in="SourceGraphic"
         in2="comp1"
         id="feComposite2020" /></filter></defs><g
     inkscape:groupmode="layer"
     id="layer4"
     inkscape:label="mage"
     transform="translate(-76.771689,-82.121129)"
     inkscape:highlight-color="#7d39ff"><g
       id="g22"
       inkscape:label="hat"
       transform="translate(46.329799,-123.30658)"
       style="display:inline"><path
         id="path20"
         style="display:inline;fill:#000000;stroke:none;stroke-width:0.865;stroke-linecap:round;stroke-linejoin:round"
         d="m 38.767297,247.97836 3.056145,2.41277 c 0.139861,0.0591 0.279753,0.11866 0.419612,0.17777 0.912174,0.35684 1.846322,0.58435 2.817916,0.71365 1.112378,0.21263 2.246636,0.31764 3.33158,0.65939 1.171052,0.30154 2.387606,0.36625 3.527433,0.78807 1.106319,0.34632 2.222102,0.66661 3.356901,0.9064 1.400529,0.36944 2.788721,0.78537 4.165637,1.23455 0.911906,0.30056 1.824571,0.5826 2.754871,0.80306 0.03186,-0.0797 0.06485,-0.15902 0.09353,-0.23927 0.102042,-0.25105 0.218275,-0.49905 0.374654,-0.7214 0.191484,-0.24304 0.417647,-0.43918 0.693498,-0.54932 -0.927596,-0.17663 -1.858318,-0.33615 -2.789494,-0.49299 -1.427761,-0.23843 -2.781155,-0.69667 -4.150134,-1.1467 -1.390133,-0.44025 -2.786769,-0.86336 -4.19871,-1.2299 -1.137734,-0.24233 -2.267125,-0.5532 -3.363102,-0.94413 -0.726323,-0.33302 -1.535188,-0.28452 -2.301669,-0.4222 -0.214189,-0.0385 -1.004916,-0.27274 -1.221631,-0.33538 -1.102259,-0.31746 -2.246896,-0.42019 -3.368269,-0.65319 -0.973392,-0.10449 -1.887998,-0.37381 -2.775542,-0.78186 -0.140959,-0.0598 -0.28227,-0.11954 -0.42323,-0.17932 z"
         transform="translate(3.9583329e-8,-0.42425919)" /><path
         style="display:inline;fill:#000000;stroke:none;stroke-width:0.865;stroke-linecap:round;stroke-linejoin:round"
         id="path22"
         d="m 103.9726,256.31307 c 0.35459,-0.0455 0.71703,-7.9e-4 1.06968,-0.0668 0.10909,-0.0204 0.21472,-0.0563 0.32209,-0.0844 0.52945,-0.12416 1.05309,-0.27576 1.58529,-0.3874 0.5457,-0.1355 1.10594,-0.19709 1.66063,-0.28542 0.45795,-0.0406 0.9045,-0.14881 1.36024,-0.20547 0.41137,-0.008 0.81188,-0.0745 1.21784,-0.13227 0.36254,-0.0156 0.70987,-0.11792 1.06814,-0.1668 0.11098,-0.0315 0.23007,-0.002 0.34153,-0.027 0.14057,-0.0314 0.27076,-0.099 0.4091,-0.13904 0.18956,-0.0549 0.23011,-0.0579 0.42631,-0.0956 0.52402,-0.11424 1.04959,-0.22995 1.5805,-0.3087 0.44778,-0.11329 0.90239,-0.18069 1.36245,-0.21303 0.43757,-0.0336 0.87889,0.0173 1.31345,-0.045 0.44566,-0.0801 0.88714,-0.1864 1.32789,-0.29243 0.0672,-0.0137 0.13442,-0.0275 0.20164,-0.0412 0,0 -3.18899,-2.20766 -3.18899,-2.20766 v 0 c -0.0658,0.0171 -0.1317,0.0343 -0.19755,0.0514 -0.42777,0.10988 -0.86386,0.19789 -1.30407,0.23755 -0.43082,0.0153 -0.86242,0.0132 -1.29202,0.0549 -0.46303,0.0423 -0.90886,0.1508 -1.36196,0.2519 -0.53814,0.0969 -1.07394,0.20491 -1.611,0.30719 -0.39989,0.0889 -0.79105,0.20135 -1.20256,0.225 -0.34781,0.0684 -0.6944,0.13598 -1.04774,0.17083 -0.40333,0.0593 -0.80813,0.0916 -1.21324,0.13672 -0.44468,0.0752 -0.88546,0.17217 -1.33264,0.23351 -0.56583,0.0978 -1.13448,0.17938 -1.6977,0.29289 -0.5098,0.13724 -1.01399,0.29671 -1.53163,0.40435 -0.48771,0.0596 -0.97779,0.0409 -1.46734,0.006 z" /><path
         style="display:inline;fill:#000000;stroke:none;stroke-width:0.865;stroke-linecap:round;stroke-linejoin:round"
         id="path18"
         d="m 62.341976,245.83375 c 1.306738,-0.51427 2.588429,-1.06201 3.819999,-1.73926 1.454499,-0.78013 2.59625,-1.93413 3.670736,-3.16354 1.083239,-1.09144 1.64352,-2.48158 2.319322,-3.82599 0.859472,-1.67321 1.53883,-3.43098 2.134872,-5.21271 0.600959,-2.00647 1.243722,-4.00338 1.977822,-5.96581 0.646197,-2.16497 1.685382,-4.17504 2.895436,-6.07285 0.994973,-1.46825 2.012727,-2.91913 3.372791,-4.07091 0.976739,-0.84235 1.952453,-1.7025 3.099943,-2.30475 0.902293,-0.3879 1.824234,-0.70713 2.75095,-1.0276 1.056465,-0.43817 1.982859,-1.12785 2.944053,-1.73693 1.808753,-1.16386 3.937259,-1.53818 6.009061,-1.96085 3.113809,-0.58246 6.267719,-0.88822 9.429479,-1.03065 1.6871,-0.0667 3.37556,-0.0386 5.06342,-0.0424 1.11962,0.0525 2.24855,0.27308 3.28655,0.70834 0.33685,0.14125 1.51902,0.78691 1.82361,0.95059 -0.77677,-0.44472 -1.54419,-0.90621 -2.33032,-1.33418 -0.27477,-0.14959 0.53335,0.32731 0.79523,0.49848 0.93541,0.61142 1.75723,1.31004 2.58061,2.06212 1.32454,1.28215 2.75559,2.44437 4.17248,3.62093 0.41969,0.43385 2.34529,1.767 2.35676,2.32636 -1.33584,0.40119 -2.76403,0.39059 -4.14746,0.42118 -1.513,0.007 -3.02613,0.007 -4.53912,-0.004 -1.23594,-0.0782 -2.44234,-0.24595 -3.59203,-0.71493 0.92895,0.51404 1.83723,1.06738 2.78687,1.54213 0.1917,0.0958 -0.34127,-0.25987 -0.50309,-0.40042 -0.52775,-0.45836 -0.99245,-1.10915 -1.60213,-1.4617 -1.24714,-0.72115 -2.53447,-1.37042 -3.80171,-2.05564 -0.80047,0.14157 -1.37353,0.85746 -1.22113,1.69154 0.0397,0.21734 0.14118,0.4187 0.21177,0.62805 0.33586,0.61587 0.87706,1.06774 1.28119,1.63151 0.045,0.0628 0.34269,0.43089 0.19133,0.53484 -1.2919,0.15419 -2.59353,0.15461 -3.89282,0.15797 -1.39926,-0.0138 -2.79856,-0.024 -4.19783,-0.0382 -0.63257,0.003 -1.26532,0.0131 -1.89769,-0.009 -0.100827,-0.004 -0.384768,-0.0749 -0.302188,-0.017 3.436958,2.41222 2.185208,2.33653 4.118038,2.29254 1.37867,0.0148 2.76351,-0.0754 4.1378,0.0511 0.19637,0.0431 0.39893,0.0641 0.58911,0.12937 0.18255,0.0626 0.69015,0.34531 0.52148,0.25152 -0.93146,-0.51792 -1.84137,-1.08099 -2.81055,-1.52432 -0.18483,-0.0846 0.29722,0.27872 0.42786,0.43442 0.33758,0.40236 0.33409,0.47607 0.53598,0.93268 0.27091,1.08421 -0.48591,1.79785 -1.3369,2.31462 -0.90196,0.45728 -1.90717,0.47743 -2.89525,0.50721 -1.3521,-0.0242 -2.692748,0.16569 -4.040782,0.25273 -1.274648,0.16958 -2.552152,0.30745 -3.832092,0.42892 -0.06407,0.0104 -0.896969,0.0898 -0.310841,0.49578 3.445539,2.38644 3.032644,1.74123 5.821135,2.36504 1.20859,0.52436 2.71866,1.20552 -2.149742,-1.29084 -0.159004,-0.0815 0.285337,0.21772 0.408231,0.34744 0.345702,0.36489 0.461367,0.69406 0.465368,1.17887 -0.303702,0.98674 -0.91866,1.82541 -1.248865,2.80761 -0.09587,1.27971 0.641916,2.37462 1.077941,3.52941 0.310735,1.05812 0.53327,2.14442 0.703154,3.23406 0.15711,1.05826 0.154175,2.12977 0.179012,3.19662 0.02061,0.87683 -0.03136,1.75379 0.02962,2.62895 0,0 3.484101,1.73323 3.484101,1.73323 v 0 c -0.10823,-0.86505 -0.0446,-1.73902 -0.065,-2.60937 0.003,-1.08103 -0.0284,-2.16482 -0.14139,-3.24043 -0.17348,-1.11387 -0.41563,-2.21731 -0.68616,-3.31101 -0.16812,-0.46814 -0.22965,-0.66928 -0.43801,-1.12622 -0.31931,-0.70022 -0.75595,-1.36078 -0.74105,-2.16259 0.33046,-1.01807 0.94703,-1.88734 1.30686,-2.8907 0.0192,-0.17221 0.0706,-0.34383 0.0576,-0.51661 -0.0341,-0.45227 -0.39767,-1.1677 -0.79026,-1.41237 -3.305313,-2.05985 -2.552364,-1.762 -4.495599,-2.40609 -0.512276,-0.10181 -1.028174,-0.18491 -1.54015,-0.28821 -0.22038,-0.0445 -0.841849,-0.28065 -0.656929,-0.15278 5.398198,3.73253 3.66508,0.74011 2.802993,2.18627 -0.02294,0.0385 0.08707,-0.0211 0.130606,-0.0317 1.234745,-0.20825 2.486089,-0.31847 3.727959,-0.47352 1.3569,-0.0937 2.71349,-0.21027 4.07443,-0.21376 1.05443,-0.0429 2.10016,-0.10294 3.02638,-0.67047 0.95756,-0.65712 1.78029,-1.52772 1.58913,-2.77943 -0.81249,-2.38952 -3.46251,-3.76637 -5.87631,-4.13763 -1.38862,-0.0671 -2.77957,-0.0102 -4.1693,-0.0405 -1.745634,-0.0361 -1.04353,-0.14397 2.19339,2.29385 0.0687,0.0517 0.17147,-0.0128 0.25737,-0.0158 0.43143,-0.015 0.74794,-0.0119 1.19223,-0.009 0.23007,0.002 0.46011,0.005 0.69016,0.008 1.38381,-0.002 2.76758,0.01 4.15139,0.001 1.0125,-0.003 2.80928,0.10528 3.75425,-0.17083 0.16398,-0.0479 0.30989,-0.14391 0.46484,-0.21586 0.0649,-0.10581 0.16405,-0.19714 0.1946,-0.31744 0.17596,-0.69294 -1.23737,-1.73336 -1.5703,-2.23096 -0.0958,-0.21362 -0.32667,-0.62328 -0.30582,-0.90073 0.0346,-0.46052 0.46967,-0.72702 0.88411,-0.66564 -0.94172,-0.58223 -1.86959,-1.18745 -2.82515,-1.74666 -0.20731,-0.12133 0.39513,0.2747 0.57736,0.43119 0.19732,0.16945 0.3745,0.36106 0.55885,0.54453 1.47369,1.46658 2.36587,2.13955 4.78078,3.14919 1.17886,0.39883 2.4019,0.56061 3.64566,0.58573 1.51032,0.001 3.02103,0.0292 4.53101,-0.0164 1.05781,-0.0353 3.16817,-0.009 4.09257,-0.45283 0.17001,-0.0816 0.29438,-0.23574 0.44156,-0.35361 0.0339,-0.14827 0.13478,-0.29635 0.1017,-0.44481 -0.12238,-0.54924 -1.98096,-1.8684 -2.4096,-2.30531 -1.4198,-1.17039 -2.86251,-2.31736 -4.18242,-3.6024 -0.40949,-0.38338 -0.7992,-0.78886 -1.22689,-1.15182 -1.86843,-1.58565 -4.25117,-2.53001 -6.25501,-3.86386 -1.65923,-0.86501 -3.37218,-1.58151 -5.28164,-1.55864 -1.66217,-0.01 -3.32369,0.0301 -4.98337,0.12664 -3.13106,0.20361 -6.242918,0.59031 -9.329526,1.16099 -2.177685,0.38831 -4.455859,0.67367 -6.353291,1.90321 -0.925537,0.61383 -1.843241,1.2698 -2.894256,1.65432 -0.948756,0.3147 -1.890353,0.65382 -2.793236,1.08552 -1.125802,0.67173 -2.099214,1.55086 -3.090674,2.40232 -1.361229,1.19584 -2.36946,2.70294 -3.355801,4.21195 -1.203179,1.93183 -2.282518,3.94111 -2.965092,6.12314 -0.719913,1.97197 -1.346841,3.97701 -1.985489,5.97595 -0.581419,1.76408 -1.277504,3.49831 -2.136042,5.14669 -0.672508,1.30329 -1.267479,2.64992 -2.271006,3.7478 -1.035884,1.21293 -2.209247,2.2619 -3.611822,3.03946 -1.234752,0.6705 -2.530422,1.21078 -3.876122,1.61882 z"
         inkscape:label="path10" /><path
         style="display:none;fill:#000000;stroke:none;stroke-width:0.865;stroke-linecap:round;stroke-linejoin:round"
         id="path19"
         d="m 59.37999,243.27875 c -1.30184,0.022 -2.59351,0.19901 -3.892333,0.2899 -2.627501,0.13706 -5.258697,0.17069 -7.889298,0.17763 -1.63376,0.0742 -3.279035,-0.1052 -4.911897,-0.0297 -0.542833,0.0251 -1.071558,0.13272 -1.604537,0.22574 -1.141201,0.19059 -2.216094,0.60513 -3.058747,1.40829 -0.857592,1.06269 -0.139618,1.88132 0.879824,2.44687 1.375362,0.763 2.77368,1.48387 4.160523,2.2258 2.469774,0.81729 4.942178,1.62716 7.423126,2.40955 2.545958,0.80381 5.128048,1.42375 7.779266,1.73291 2.156785,0.19489 4.325154,0.18954 6.488818,0.19308 1.405697,-0.0677 2.821038,0.0693 4.225946,-0.008 0.463371,-0.0254 1.668444,-0.18385 2.13759,-0.24246 2.03944,-0.43016 4.107937,-0.67201 6.174616,-0.926 1.944904,-0.24723 3.904938,-0.31813 5.863153,-0.35561 1.977546,-0.13877 3.954809,-0.26881 5.936142,-0.33858 2.294281,-0.0697 4.58987,-0.0643 6.884929,-0.0711 2.160204,-0.003 4.320349,0.006 6.480519,0.0171 1.73307,-0.0121 3.45853,0.19738 5.17581,0.40893 1.71553,0.43597 3.45104,0.78244 5.19185,1.10043 1.29573,0.24662 2.60469,0.38537 3.92229,0.41482 1.2854,0.13914 2.40976,-0.16527 3.48824,-0.85539 0.94908,-0.71607 1.59877,-1.64114 1.73595,-2.82929 -0.0714,-0.5899 -0.3045,-1.07678 -0.83819,-1.38883 -3.1921,-1.86646 -3.12847,-2.11556 -5.76383,-2.56029 -1.84963,-0.23127 -3.70381,-0.43374 -5.56119,-0.59507 -0.97242,-0.0936 -1.96982,-0.13688 -2.93202,-0.31939 -0.0222,-0.004 -1.3416,-0.35359 -1.35026,-0.35588 -1.30107,-0.39013 -2.54788,-0.94628 -3.75987,-1.55534 -1.49308,-0.85681 -0.76219,-0.43301 2.22534,1.21329 0,0 -3.57966,-1.43136 -3.57966,-1.43136 v 0 c 3.96517,2.42088 2.47699,1.61096 4.3577,2.61659 1.22863,0.58721 2.48096,1.13732 3.80059,1.48861 1.40902,0.3574 2.84637,0.53613 4.29891,0.60647 1.84092,0.14774 3.6799,0.34578 5.50813,0.60523 0.32414,0.0691 0.65211,0.12228 0.97243,0.20737 0.28388,0.0754 1.07445,0.44726 0.83767,0.27345 -0.83316,-0.61159 -1.77545,-1.05882 -2.65248,-1.60563 -0.1583,-0.0987 0.34519,0.1498 0.49523,0.26065 0.3432,0.25356 0.33909,0.38336 0.48983,0.75298 -0.005,1.10488 -0.67987,1.8914 -1.53985,2.518 -1.04137,0.63119 -2.13501,0.79619 -3.34381,0.67612 -1.28866,-0.0648 -2.57397,-0.18412 -3.84307,-0.42604 -1.74026,-0.32775 -3.46999,-0.69905 -5.19947,-1.07735 -1.72314,-0.21276 -3.45554,-0.40467 -5.194957,-0.36556 -2.145876,0.009 -4.291735,0.0151 -6.437624,0.015 -2.306167,8e-4 -4.612564,0.0106 -6.918227,0.0619 -1.981354,0.0651 -3.956421,0.21196 -5.934835,0.33319 -1.964698,0.0424 -3.931787,0.10484 -5.879105,0.39387 -2.064541,0.27744 -4.137869,0.48211 -6.177087,0.92193 -2.104778,0.2568 -4.216489,0.22977 -6.334651,0.21327 -2.15142,-0.005 -4.307702,-0.002 -6.45069,-0.21925 -2.602243,-0.31644 -5.142923,-0.9317 -7.643561,-1.7182 -2.515211,-0.81669 -5.029988,-1.64027 -7.52167,-2.52576 0.782434,0.4912 1.584288,0.95273 2.347299,1.47359 0.228613,0.15606 -0.505688,-0.22936 -0.740148,-0.37649 -0.561756,-0.35251 -0.851316,-0.84854 -0.371182,-1.39048 0.795348,-0.7438 1.830404,-1.05082 2.883085,-1.25457 2.088187,-0.37234 4.214755,-0.18112 6.325971,-0.25394 2.669603,-0.0193 5.341353,0.0183 8.008477,-0.11644 1.339157,-0.0655 2.676194,-0.23433 4.018055,-0.17095 z" /><path
         style="display:inline;fill:#000000;stroke:none;stroke-width:0.865;stroke-linecap:round;stroke-linejoin:round;filter:url(#filter2020)"
         id="path2003"
         d="m 59.37999,243.27875 c -1.30184,0.022 -2.59351,0.19901 -3.892333,0.2899 -2.627501,0.13706 -5.258697,0.17069 -7.889298,0.17763 -1.63376,0.0742 -3.279035,-0.1052 -4.911897,-0.0297 -0.542833,0.0251 -1.071558,0.13272 -1.604537,0.22574 -1.141201,0.19059 -2.216094,0.60513 -3.058747,1.40829 -0.857592,1.06269 -0.139618,1.88132 0.879824,2.44687 1.375362,0.763 2.77368,1.48387 4.160523,2.2258 2.469774,0.81729 4.942178,1.62716 7.423126,2.40955 2.545958,0.80381 5.128048,1.42375 7.779266,1.73291 2.156785,0.19489 4.325154,0.18954 6.488818,0.19308 1.405697,-0.0677 2.821038,0.0693 4.225946,-0.008 0.463371,-0.0254 1.668444,-0.18385 2.13759,-0.24246 2.03944,-0.43016 4.107937,-0.67201 6.174616,-0.926 1.944904,-0.24723 3.904938,-0.31813 5.863153,-0.35561 1.977546,-0.13877 3.954809,-0.26881 5.936142,-0.33858 2.294281,-0.0697 4.58987,-0.0643 6.884929,-0.0711 2.160204,-0.003 4.320349,0.006 6.480519,0.0171 1.73307,-0.0121 3.45853,0.19738 5.17581,0.40893 1.71553,0.43597 3.45104,0.78244 5.19185,1.10043 1.29573,0.24662 2.60469,0.38537 3.92229,0.41482 1.2854,0.13914 2.40976,-0.16527 3.48824,-0.85539 0.94908,-0.71607 1.59877,-1.64114 1.73595,-2.82929 -0.0714,-0.5899 -0.3045,-1.07678 -0.83819,-1.38883 -3.1921,-1.86646 -3.12847,-2.11556 -5.76383,-2.56029 -1.84963,-0.23127 -3.70381,-0.43374 -5.56119,-0.59507 -0.97242,-0.0936 -1.96982,-0.13688 -2.93202,-0.31939 -0.0222,-0.004 -1.3416,-0.35359 -1.35026,-0.35588 -1.30107,-0.39013 -2.54788,-0.94628 -3.75987,-1.55534 -1.49308,-0.85681 -0.76219,-0.43301 2.22534,1.21329 0,0 -3.57966,-1.43136 -3.57966,-1.43136 v 0 c 3.96517,2.42088 2.47699,1.61096 4.3577,2.61659 1.22863,0.58721 2.48096,1.13732 3.80059,1.48861 1.40902,0.3574 2.84637,0.53613 4.29891,0.60647 1.84092,0.14774 3.6799,0.34578 5.50813,0.60523 0.32414,0.0691 0.65211,0.12228 0.97243,0.20737 0.28388,0.0754 1.07445,0.44726 0.83767,0.27345 -0.83316,-0.61159 -1.77545,-1.05882 -2.65248,-1.60563 -0.1583,-0.0987 0.34519,0.1498 0.49523,0.26065 0.3432,0.25356 0.33909,0.38336 0.48983,0.75298 -0.005,1.10488 -0.67987,1.8914 -1.53985,2.518 -1.04137,0.63119 -2.13501,0.79619 -3.34381,0.67612 -1.28866,-0.0648 -2.57397,-0.18412 -3.84307,-0.42604 -1.74026,-0.32775 -3.46999,-0.69905 -5.19947,-1.07735 -1.72314,-0.21276 -3.45554,-0.40467 -5.194957,-0.36556 -2.145876,0.009 -4.291735,0.0151 -6.437624,0.015 -2.306167,8e-4 -4.612564,0.0106 -6.918227,0.0619 -1.981354,0.0651 -3.956421,0.21196 -5.934835,0.33319 -1.964698,0.0424 -3.931787,0.10484 -5.879105,0.39387 -2.064541,0.27744 -4.137869,0.48211 -6.177087,0.92193 -2.104778,0.2568 -4.216489,0.22977 -6.334651,0.21327 -2.15142,-0.005 -4.307702,-0.002 -6.45069,-0.21925 -2.602243,-0.31644 -5.142923,-0.9317 -7.643561,-1.7182 -2.515211,-0.81669 -5.029988,-1.64027 -7.52167,-2.52576 0.782434,0.4912 1.584288,0.95273 2.347299,1.47359 0.228613,0.15606 -0.505688,-0.22936 -0.740148,-0.37649 -0.561756,-0.35251 -0.851316,-0.84854 -0.371182,-1.39048 0.795348,-0.7438 1.830404,-1.05082 2.883085,-1.25457 2.088187,-0.37234 4.214755,-0.18112 6.325971,-0.25394 2.669603,-0.0193 5.341353,0.0183 8.008477,-0.11644 1.339157,-0.0655 2.676194,-0.23433 4.018055,-0.17095 z" /><g
         inkscape:groupmode="layer"
         id="g1407"
         inkscape:label="color - hat"
         style="display:inline"
         transform="translate(-14.4,126.3)"><path
           style="display:none;fill:#003f81;fill-opacity:1;stroke:none;stroke-width:3.26929;stroke-linecap:round;stroke-linejoin:round"
           d="m 273.25984,475.07116 c -5.45669,-0.21708 -10.94173,-0.57715 -12.18897,-0.80014 -3.7361,-0.66797 -17.39623,-4.18888 -20.81463,-5.36498 -1.75242,-0.60292 -4.54666,-1.27198 -6.20942,-1.48681 -1.66276,-0.21482 -7.61532,-1.95786 -13.22792,-3.87341 -11.61307,-3.96349 -12.17325,-4.4953 -7.65355,-7.26596 5.20542,-3.191 7.12465,-3.40772 34.86615,-3.93715 14.03149,-0.26778 29.78005,-0.60278 34.99679,-0.74445 l 9.48498,-0.25757 6.95597,-3.34605 c 8.49325,-4.08556 12.56418,-7.10678 18.21482,-13.51803 3.28019,-3.72173 5.22283,-6.66307 7.96615,-12.06152 5.13317,-10.10131 6.86516,-14.52212 13.34751,-34.06863 6.32157,-19.06173 9.62907,-26.54646 15.81573,-35.79042 4.78695,-7.15252 9.45693,-12.32505 15.58417,-17.26121 5.17597,-4.16982 7.79038,-5.6399 13.98033,-7.86115 4.56632,-1.63861 8.38471,-3.60525 15.63924,-8.05489 5.55928,-3.40984 9.67569,-4.80986 20.54735,-6.98828 15.92486,-3.19096 34.76212,-4.81066 51.49532,-4.42776 15.18689,0.34751 17.18592,1.12805 28.25648,11.03302 3.07622,2.75233 9.76957,8.53402 14.87413,12.8482 5.10455,4.31419 9.18419,8.1344 9.06587,8.48937 -0.3891,1.16732 -3.92964,1.55106 -17.42169,1.88826 -16.04215,0.40093 -20.5253,-0.077 -23.63961,-2.52031 -1.18561,-0.93015 -5.317,-3.37233 -9.18085,-5.42705 -7.62036,-4.05236 -8.79751,-4.22935 -10.84206,-1.63014 -1.3417,1.70571 -1.46265,4.86811 -0.27339,7.14839 0.46448,0.89059 1.89837,2.87797 3.18641,4.41639 1.28805,1.53843 2.16115,2.97827 1.94022,3.19964 -0.22092,0.22138 -9.11858,0.53006 -19.77258,0.68597 l -19.3709,0.28346 2.83465,1.93995 c 1.55905,1.06696 4.09313,2.98035 5.63129,4.25196 l 2.79665,2.31203 8.82539,0.28346 8.82541,0.28347 0.18055,1.57106 c 0.37476,3.26112 -4.06023,7.64509 -8.68449,8.58457 -0.93543,0.19005 -5.96505,0.58636 -11.17694,0.88069 -13.06461,0.73781 -26.65235,2.28084 -27.56082,3.12984 -0.61513,0.57487 -0.14667,1.13811 2.55118,3.06729 4.4179,3.15915 9.73325,5.74681 12.59235,6.13029 2.98042,0.39976 2.98611,0.99952 0.0667,7.03654 -2.8981,5.9929 -2.9296,8.03587 -0.22449,14.56095 3.51242,8.47244 4.7595,15.24921 5.15207,27.99711 l 0.34377,11.16307 1.59615,0.66115 c 0.87788,0.36363 1.54143,0.91899 1.47456,1.23413 -0.16177,0.76235 12.30269,8.50616 18.02014,11.19541 9.56588,4.49937 14.87426,5.80592 28.76832,7.08071 18.65408,1.71152 20.83798,2.05173 20.83798,3.24615 0,1.73992 -1.4547,4.07529 -3.93343,6.31467 -2.1509,1.9432 -2.96973,2.35571 -4.21961,2.12574 -0.27473,-0.0506 -1.85743,0.19 -3.51711,0.53456 -6.52937,1.35548 -13.79749,0.84501 -27.65034,-1.94203 -7.12706,-1.43388 -15.29788,-2.88299 -18.15739,-3.22023 -7.56053,-0.89166 -72.69799,-0.32244 -90.785,0.79335 -14.05701,0.86718 -26.31079,2.25431 -38.75543,4.38712 -8.62138,1.47755 -8.5921,1.48159 -6.31275,-0.8701 1.05324,-1.08667 1.80486,-2.0732 1.67027,-2.19227 -1.03886,-0.91915 -12.42419,-7.73749 -12.92013,-7.73749 -0.34758,0 -2.60952,2.8063 -5.02655,6.23622 l -4.3946,6.23622 -2.27455,-0.0938 c -1.25101,-0.0516 -6.73912,-0.27146 -12.19582,-0.48854 z"
           id="path1405"
           transform="scale(0.26458333)" /><path
           id="path2100"
           style="display:none;fill:#003f81;fill-opacity:1;stroke:none;stroke-width:3.26929;stroke-linecap:round;stroke-linejoin:round"
           d="m 465.69615,307.91196 c -15.03321,0.0971 -31.19662,1.68643 -45.13086,4.47852 -10.87165,2.17841 -14.98956,3.57844 -20.54883,6.98828 -7.25452,4.44963 -11.07236,6.41608 -15.63867,8.05468 -6.18995,2.22125 -8.80451,3.69152 -13.98047,7.86133 -6.12723,4.93616 -10.79704,10.10921 -15.58399,17.26172 -6.18665,9.24395 -9.49484,16.72735 -15.8164,35.78906 -6.48235,19.54649 -8.21449,23.96902 -13.34766,34.07032 -2.74332,5.39844 -4.68466,8.33882 -7.96484,12.06054 -5.65064,6.41125 -9.7216,9.43203 -18.21485,13.51758 l -6.95703,3.34766 -9.48437,0.25586 c -5.21674,0.14167 -20.96462,0.47831 -34.9961,0.74609 -27.74147,0.52943 -29.66177,0.74455 -34.86718,3.93555 -4.5197,2.77066 -3.95877,3.30409 7.65429,7.26758 5.6126,1.91555 11.56576,3.65822 13.22852,3.87304 1.66276,0.21483 4.45656,0.88341 6.20898,1.48633 3.4184,1.1761 17.07836,4.69727 20.81446,5.36524 1.24724,0.22299 6.73276,0.5837 12.18945,0.80078 5.45669,0.21708 10.9443,0.43668 12.19531,0.48828 l 2.27344,0.0937 0.54687,-0.77734 c 0.49928,0.23026 0.97173,0.45833 1.36915,0.68164 0.14936,0.0839 0.33964,-0.0483 0.50976,-0.0684 1.29326,-0.15534 0.8423,-0.10775 2.30469,-0.15235 2.8435,0.0609 5.66318,-0.0922 8.49609,-0.31445 1.95615,-0.19194 3.87638,-0.58414 5.81446,-0.88086 0.23628,0.003 0.4727,0.004 0.70898,0.008 -0.93741,1.18411 0.28799,1.02057 7.23438,-0.16992 12.44462,-2.13281 24.69886,-3.51954 38.75585,-4.38672 18.087,-1.11579 83.22464,-1.68463 90.78516,-0.79297 2.85951,0.33724 11.0292,1.78683 18.15625,3.22071 13.85284,2.78703 21.12103,3.29688 27.65039,1.9414 1.65968,-0.34456 3.24285,-0.58575 3.51758,-0.53515 1.24988,0.22997 2.06981,-0.18181 4.2207,-2.125 2.47873,-2.23938 3.9336,-4.57454 3.9336,-6.31446 0,-1.19442 -2.18578,-1.53457 -20.83985,-3.24609 -13.89404,-1.27479 -19.2017,-2.58267 -28.76757,-7.08203 -5.71745,-2.68925 -18.18131,-10.43297 -18.01954,-11.19531 0.0669,-0.31514 -0.59673,-0.8688 -1.4746,-1.23243 l -1.59571,-0.66211 -0.34375,-11.16211 c -0.39257,-12.74788 -1.63993,-19.52561 -5.15234,-27.99804 -2.70511,-6.52508 -2.67349,-8.56766 0.22461,-14.56055 2.9194,-6.03701 2.91206,-6.63735 -0.0684,-7.03711 -2.8591,-0.38348 -8.1739,-2.97171 -12.5918,-6.13086 -2.69785,-1.92918 -3.16591,-2.49154 -2.55078,-3.0664 0.90847,-0.849 14.49595,-2.39305 27.56055,-3.13086 5.21188,-0.29433 10.2423,-0.68886 11.17773,-0.87891 4.62426,-0.93948 9.05836,-5.32482 8.6836,-8.58594 l -0.17969,-1.57031 -8.82617,-0.2832 -8.82422,-0.28321 -2.79688,-2.3125 c -1.53816,-1.27161 -4.07376,-3.18499 -5.63281,-4.25195 l -2.83398,-1.93945 19.37109,-0.28516 c 10.65399,-0.15591 19.55252,-0.46417 19.77344,-0.68555 0.22093,-0.22137 -0.65336,-1.66079 -1.94141,-3.19922 -1.28804,-1.53841 -2.72107,-3.52542 -3.18555,-4.41601 -1.18926,-2.28028 -1.06826,-5.44273 0.27344,-7.14844 2.04455,-2.59921 3.22145,-2.42345 10.8418,1.62891 3.86384,2.05472 7.99408,4.49758 9.17969,5.42773 3.1143,2.44331 7.59849,2.92242 23.64062,2.52149 13.49204,-0.3372 17.03278,-0.72136 17.42188,-1.88868 0.11832,-0.35496 -3.96187,-4.17604 -9.06641,-8.49023 -5.10455,-4.31418 -11.79683,-10.09533 -14.87305,-12.84766 -11.07055,-9.90496 -13.07094,-10.68569 -28.25781,-11.0332 -2.09165,-0.0479 -4.21568,-0.0647 -6.36328,-0.0508 z"
           transform="scale(0.26458333)" /><path
           id="path2167"
           style="display:inline;fill:#003f81;fill-opacity:1;stroke:none;stroke-width:3.26929;stroke-linecap:round;stroke-linejoin:round"
           d="m 465.69615,307.91196 c -15.03321,0.0971 -31.19662,1.68643 -45.13086,4.47852 -10.87165,2.17841 -14.98956,3.57844 -20.54883,6.98828 -7.25452,4.44963 -11.07236,6.41608 -15.63867,8.05468 -6.18995,2.22125 -8.80451,3.69152 -13.98047,7.86133 -6.12723,4.93616 -10.79704,10.10921 -15.58399,17.26172 -6.18665,9.24395 -9.49484,16.72735 -15.8164,35.78906 -6.48235,19.54649 -8.21449,23.96902 -13.34766,34.07032 -2.74332,5.39844 -4.68466,8.33882 -7.96484,12.06054 -5.65064,6.41125 -9.7216,9.43203 -18.21485,13.51758 l -6.95703,3.34766 -9.48437,0.25586 c -5.21674,0.14167 -20.96462,0.47831 -34.9961,0.74609 -27.74147,0.52943 -29.66177,0.74455 -34.86718,3.93555 -4.5197,2.77066 -3.95877,3.30409 7.65429,7.26758 5.6126,1.91555 11.56576,3.65822 13.22852,3.87304 1.66276,0.21483 4.45656,0.88341 6.20898,1.48633 3.4184,1.1761 17.07836,4.69727 20.81446,5.36524 1.24724,0.22299 6.73276,0.5837 12.18945,0.80078 5.45669,0.21708 10.9443,0.43668 12.19531,0.48828 l 2.27344,0.0937 0.54687,-0.77734 c 0.49928,0.23026 0.97173,0.45833 1.36915,0.68164 0.14936,0.0839 0.33964,-0.0483 0.50976,-0.0684 1.29326,-0.15534 0.8423,-0.10775 2.30469,-0.15235 2.8435,0.0609 5.66318,-0.0922 8.49609,-0.31445 1.95615,-0.19194 3.87638,-0.58414 5.81446,-0.88086 0.23628,0.003 0.4727,0.004 0.70898,0.008 -0.93741,1.18411 0.28799,1.02057 7.23438,-0.16992 12.44462,-2.13281 24.69886,-3.51954 38.75585,-4.38672 18.087,-1.11579 83.22464,-1.68463 90.78516,-0.79297 2.85951,0.33724 11.0292,1.78683 18.15625,3.22071 13.85284,2.78703 21.12103,3.29688 27.65039,1.9414 1.65968,-0.34456 3.24285,-0.58575 3.51758,-0.53515 1.24988,0.22997 2.06981,-0.18181 4.2207,-2.125 2.47873,-2.23938 3.9336,-4.57454 3.9336,-6.31446 0,-1.19442 -2.18578,-1.53457 -20.83985,-3.24609 -13.89404,-1.27479 -19.2017,-2.58267 -28.76757,-7.08203 -5.71745,-2.68925 -18.18131,-10.43297 -18.01954,-11.19531 0.0669,-0.31514 -0.59673,-0.8688 -1.4746,-1.23243 l -1.59571,-0.66211 -0.34375,-11.16211 c -0.39257,-12.74788 -1.63993,-19.52561 -5.15234,-27.99804 -2.70511,-6.52508 -2.67349,-8.56766 0.22461,-14.56055 2.9194,-6.03701 2.91206,-6.63735 -0.0684,-7.03711 -2.8591,-0.38348 -8.1739,-2.97171 -12.5918,-6.13086 -2.69785,-1.92918 -3.16591,-2.49154 -2.55078,-3.0664 0.90847,-0.849 14.49595,-2.39305 27.56055,-3.13086 5.21188,-0.29433 10.2423,-0.68886 11.17773,-0.87891 4.62426,-0.93948 9.05836,-5.32482 8.6836,-8.58594 l -0.17969,-1.57031 -8.82617,-0.2832 -8.82422,-0.28321 -2.79688,-2.3125 c -1.53816,-1.27161 -4.07376,-3.18499 -5.63281,-4.25195 l -2.83398,-1.93945 19.37109,-0.28516 c 10.65399,-0.15591 19.55252,-0.46417 19.77344,-0.68555 0.22093,-0.22137 -0.65336,-1.66079 -1.94141,-3.19922 -1.28804,-1.53841 -2.72107,-3.52542 -3.18555,-4.41601 -1.18926,-2.28028 -1.06826,-5.44273 0.27344,-7.14844 2.04455,-2.59921 3.22145,-2.42345 10.8418,1.62891 3.86384,2.05472 7.99408,4.49758 9.17969,5.42773 3.1143,2.44331 7.59849,2.92242 23.64062,2.52149 13.49204,-0.3372 17.03278,-0.72136 17.42188,-1.88868 0.11832,-0.35496 -3.96187,-4.17604 -9.06641,-8.49023 -5.10455,-4.31418 -11.79683,-10.09533 -14.87305,-12.84766 -11.07055,-9.90496 -13.07094,-10.68569 -28.25781,-11.0332 -2.09165,-0.0479 -4.21568,-0.0647 -6.36328,-0.0508 z"
           transform="scale(0.26458333)" /></g><g
         id="g2099"
         inkscape:label="ribbon"><path
           style="display:inline;fill:#000000;fill-opacity:1;stroke:none;stroke-width:0.365001;stroke-linecap:round;stroke-linejoin:round;stroke-dasharray:none;stroke-opacity:1"
           id="path172"
           d="m 62.018585,245.27529 c 1.156914,-0.48086 2.283174,-1.03696 3.431457,-1.54038 2.33625,-1.10969 4.85784,-1.5725 7.404516,-1.8727 1.507699,-0.16457 3.023714,-0.19423 4.538681,-0.19503 0.977884,-0.0342 1.93721,0.15991 2.874473,0.41761 0.910362,0.21576 1.761212,0.61676 2.643378,0.91983 0.739097,0.26443 1.478587,0.51765 2.231117,0.73958 0.690915,0.17521 1.352722,0.43922 2.02334,0.678 0.832102,0.27613 1.694704,0.45198 2.563326,0.56479 0.714542,0.0841 1.434608,0.1124 2.153645,0.11862 0.693229,-0.003 1.386461,-0.007 2.079701,-0.006 0.605851,0.005 1.211694,-6e-5 1.817556,0.002 0.592952,-0.0204 1.204267,-0.0709 1.775936,-0.23528 0.718034,-0.2959 1.419945,-0.62769 2.129195,-0.94328 0.622334,-0.29288 1.169274,-0.71882 1.703754,-1.14618 0,0 -2.452737,-1.54131 -2.452737,-1.54131 v 0 c -0.521954,0.41433 -1.067448,0.79999 -1.673426,1.08348 -0.683353,0.33039 -1.366419,0.67126 -2.093931,0.8954 -0.575596,0.10321 -1.161166,0.18445 -1.747102,0.17389 -0.602509,0.003 -1.205024,-0.002 -1.807504,0.006 -0.695097,0.005 -1.390353,0.006 -2.085385,-0.004 -0.701262,-0.0119 -1.403791,-0.0276 -2.099656,-0.12454 -0.860232,-0.1311 -1.713471,-0.32051 -2.533198,-0.61685 -0.675341,-0.24868 -1.350856,-0.4982 -2.049269,-0.67614 -0.740116,-0.2193 -1.466752,-0.47971 -2.196126,-0.732 -0.877197,-0.32144 -1.742287,-0.68734 -2.655404,-0.89883 -0.948814,-0.23893 -1.918234,-0.39087 -2.900362,-0.34249 -1.472721,0.0231 -2.943699,0.11782 -4.401865,0.33422 -1.757929,0.25381 -3.520294,0.52064 -5.218896,1.05852 -0.390787,0.12375 -0.771943,0.27615 -1.15598,0.41948 -0.371028,0.13847 -0.739413,0.28394 -1.10912,0.42591 -1.198872,0.47529 -2.382457,1.03274 -3.634806,1.35099 z" /><path
           style="display:inline;fill:#000000;fill-opacity:1;stroke:none;stroke-width:0.365001;stroke-linecap:round;stroke-linejoin:round;stroke-dasharray:none;stroke-opacity:1"
           id="path173"
           d="m 71.382305,238.59737 c 0.722561,-0.52203 1.631519,-0.71912 2.481379,-0.9352 1.368846,-0.3047 2.774045,-0.37435 4.171222,-0.41807 0.93876,-0.002 1.881799,-0.0486 2.818551,0.0265 1.049636,0.25044 2.065359,0.6121 3.09391,0.93374 0.982665,0.35271 1.922521,0.83136 2.8472,1.31557 0.89049,0.53053 1.870898,0.88765 2.823649,1.28939 0.850313,0.42408 1.74674,0.73409 2.675607,0.92756 0.853869,0.12105 1.714968,0.17183 2.576666,0.179 0.916469,0.0477 1.78888,-0.31094 2.641748,-0.60729 0.732827,-0.28857 1.481511,-0.5341 2.199934,-0.85773 0.761469,-0.3534 1.308269,-0.99899 1.835989,-1.62977 0,0 -2.451643,-1.47346 -2.451643,-1.47346 v 0 c -0.50683,0.59945 -1.072581,1.17084 -1.79841,1.49837 -0.711295,0.30816 -1.437941,0.57872 -2.162471,0.85393 -0.842756,0.28978 -1.689317,0.59547 -2.596504,0.51572 -0.84704,-0.0233 -1.69934,-0.0466 -2.532081,-0.21897 -0.904719,-0.21994 -1.774074,-0.54727 -2.615878,-0.94541 -0.956122,-0.40376 -1.922658,-0.79171 -2.821675,-1.31502 -0.939713,-0.47234 -1.881137,-0.96191 -2.885509,-1.28261 -1.043191,-0.32026 -2.075219,-0.69415 -3.151214,-0.89183 -0.927332,-0.0448 -1.856099,0.007 -2.783366,0.036 -1.408607,0.0705 -2.82294,0.1702 -4.205301,0.46417 -0.913929,0.22284 -1.856769,0.45443 -2.666317,0.95139 z" /><path
           style="display:inline;fill:#9ba516;fill-opacity:1;stroke:none;stroke-width:1.37953;stroke-linecap:round;stroke-linejoin:round;stroke-dasharray:none;stroke-opacity:1"
           d="m 310.72263,412.0023 c -2.55585,-0.45622 -11.88966,-3.29333 -20.7418,-6.30468 l -16.0948,-5.47518 -12.49222,0.0623 c -6.87072,0.0343 -12.49222,-0.22669 -12.49222,-0.57996 0,-0.35327 0.87183,-1.75067 1.93741,-3.10533 2.80553,-3.56665 9.98014,-5.43479 23.09931,-6.01463 13.87494,-0.61325 17.35823,0.24132 35.30306,8.66105 21.16964,9.93281 28.70649,10.89425 43.09855,5.49788 1.4284,-0.53559 1.5034,-0.40828 0.49268,0.83637 -0.6557,0.80746 -3.83768,2.66932 -7.07106,4.13745 -5.36478,2.4359 -6.9507,2.68878 -18.1354,2.89176 -6.74108,0.12233 -14.34767,-0.15085 -16.90351,-0.60707 z"
           id="path2099"
           inkscape:label="color"
           transform="matrix(0.26458333,0,0,0.26458333,5.075,134.1)" /></g><path
         style="display:inline;fill:#000000;stroke:none;stroke-width:0.865;stroke-linecap:round;stroke-linejoin:round"
         id="path174"
         d="m 115.11772,256.31307 c -0.35459,-0.0455 -0.71703,-7.9e-4 -1.06968,-0.0668 -0.10909,-0.0204 -0.21472,-0.0563 -0.32209,-0.0844 -0.52945,-0.12416 -1.05309,-0.27576 -1.58529,-0.3874 -0.5457,-0.1355 -1.10594,-0.19709 -1.66063,-0.28542 -0.45795,-0.0406 -0.9045,-0.14881 -1.36024,-0.20547 -0.41137,-0.008 -0.81188,-0.0745 -1.21784,-0.13227 -0.36254,-0.0156 -0.70987,-0.11792 -1.06814,-0.1668 -0.11098,-0.0315 -0.23007,-0.002 -0.34153,-0.027 -0.14057,-0.0314 -0.27076,-0.099 -0.4091,-0.13904 -0.18956,-0.0549 -0.23011,-0.0579 -0.42631,-0.0956 -0.52402,-0.11424 -1.04959,-0.22995 -1.5805,-0.3087 -0.44778,-0.11329 -0.90239,-0.18069 -1.36245,-0.21303 -0.43757,-0.0336 -0.87889,0.0173 -1.31345,-0.045 -0.44566,-0.0801 -0.88714,-0.1864 -1.32789,-0.29243 -0.0672,-0.0137 -0.13442,-0.0275 -0.20164,-0.0412 0,0 3.18899,-2.20766 3.18899,-2.20766 v 0 c 0.0658,0.0171 0.1317,0.0343 0.19755,0.0514 0.42777,0.10988 0.86386,0.19789 1.30407,0.23755 0.43082,0.0153 0.86242,0.0132 1.29202,0.0549 0.46303,0.0423 0.90886,0.1508 1.36196,0.2519 0.53814,0.0969 1.07394,0.20491 1.611,0.30719 0.39989,0.0889 0.79105,0.20135 1.20256,0.225 0.34781,0.0684 0.6944,0.13598 1.04774,0.17083 0.40333,0.0593 0.80813,0.0916 1.21324,0.13672 0.44468,0.0752 0.88546,0.17217 1.33264,0.23351 0.56583,0.0978 1.13448,0.17938 1.6977,0.29289 0.5098,0.13724 1.01399,0.29671 1.53163,0.40435 0.48771,0.0596 0.97779,0.0409 1.46734,0.006 z" /><path
         style="display:inline;fill:#000000;stroke:none;stroke-width:0.865;stroke-linecap:round;stroke-linejoin:round"
         id="path175"
         d="m 58.968484,252.78926 c -0.478394,-0.14744 -0.914531,-0.41441 -1.402334,-0.53456 -0.150887,-0.0372 -0.306342,-0.0526 -0.459498,-0.079 -0.746876,-0.14844 -1.502243,-0.25855 -2.245372,-0.42456 -0.774162,-0.14341 -1.52404,-0.38946 -2.282335,-0.59821 -0.607318,-0.21356 -1.239273,-0.33432 -1.853078,-0.52612 -0.529051,-0.22811 -1.078149,-0.37538 -1.629137,-0.53692 -0.471206,-0.19015 -0.973262,-0.26094 -1.458304,-0.40617 -0.159728,-0.0241 -0.294454,-0.13079 -0.451027,-0.16346 -0.19739,-0.0414 -0.402521,-0.0307 -0.602073,-0.0598 -0.273458,-0.0398 -0.32689,-0.0595 -0.598848,-0.12504 -0.734208,-0.15795 -1.471243,-0.31492 -2.193671,-0.52212 -0.636466,-0.11496 -1.255053,-0.29245 -1.860276,-0.51775 -0.577282,-0.21066 -1.11039,-0.53122 -1.700462,-0.70357 -0.614535,-0.15607 -1.238921,-0.27633 -1.862218,-0.3965 -0.09361,-0.0214 -0.187291,-0.0428 -0.28092,-0.0643 0,0 2.786352,4.66184 2.786352,4.66184 v 0 c 0.09379,0.0164 0.187764,0.0326 0.281616,0.0489 0.608981,0.10768 1.215898,0.2482 1.800057,0.45267 0.558076,0.23009 1.107065,0.48281 1.678879,0.67854 0.61478,0.21433 1.245984,0.3343 1.88217,0.46791 0.742161,0.18824 1.487777,0.36095 2.231678,0.54171 0.561286,0.11833 1.125085,0.2016 1.663382,0.40986 0.483017,0.11427 0.964002,0.22895 1.434632,0.38922 0.548522,0.15808 1.083276,0.35142 1.625852,0.52859 0.610446,0.16176 1.228534,0.2935 1.834138,0.47437 0.777983,0.20314 1.550163,0.42858 2.333919,0.61017 0.729405,0.12043 1.464536,0.2092 2.186786,0.37187 0.656263,0.20657 1.270186,0.51434 1.874048,0.84245 z" /></g></g></svg>
