<?xml version="1.0" encoding="UTF-8" standalone="no"?>
<!-- Created with Inkscape (http://www.inkscape.org/) -->

<svg
   width="52.676296mm"
   height="48.077881mm"
   viewBox="0 0 52.676296 48.077881"
   version="1.1"
   id="svg1"
   inkscape:version="1.3.2 (091e20e, 2023-11-25, custom)"
   sodipodi:docname="mage-idle-0.svg"
   xml:space="preserve"
   inkscape:export-filename="..\separated\bottom-body-cloths.svg"
   inkscape:export-xdpi="96"
   inkscape:export-ydpi="96"
   xmlns:inkscape="http://www.inkscape.org/namespaces/inkscape"
   xmlns:sodipodi="http://sodipodi.sourceforge.net/DTD/sodipodi-0.dtd"
   xmlns="http://www.w3.org/2000/svg"
   xmlns:svg="http://www.w3.org/2000/svg"><sodipodi:namedview
     id="namedview1"
     pagecolor="#ffffff"
     bordercolor="#000000"
     borderopacity="0.25"
     inkscape:showpageshadow="2"
     inkscape:pageopacity="0.0"
     inkscape:pagecheckerboard="0"
     inkscape:deskcolor="#d1d1d1"
     inkscape:document-units="mm"
     inkscape:export-bgcolor="#ffffff00"
     inkscape:zoom="0.53033009"
     inkscape:cx="277.18586"
     inkscape:cy="500.6316"
     inkscape:window-width="1304"
     inkscape:window-height="745"
     inkscape:window-x="1358"
     inkscape:window-y="-8"
     inkscape:window-maximized="1"
     inkscape:current-layer="g1928" /><defs
     id="defs1" /><g
     inkscape:groupmode="layer"
     id="layer4"
     inkscape:label="mage"
     transform="translate(-100.73981,-117.70427)"
     inkscape:highlight-color="#7d39ff"><g
       id="g25"
       inkscape:label="head"
       style="display:inline"
       transform="translate(31.929799,2.9934187)"><path
         id="path2"
         style="display:inline;fill:#000000;stroke:none;stroke-width:0.865;stroke-linecap:round;stroke-linejoin:round"
         inkscape:label="head line"
         d="m 92.363574,114.71234 c -0.295576,0.003 -0.591229,0.009 -0.886767,0.0196 -0.882861,0.0424 -1.762352,0.11868 -2.634465,0.26717 -0.908769,0.11527 -1.826025,0.17314 -2.727999,0.33745 -0.978455,0.21726 -1.95754,0.45635 -2.891296,0.82579 -0.744912,0.36808 -1.438244,0.82847 -2.088762,1.34565 -0.698779,0.60302 -1.20034,1.37131 -1.792138,2.07429 -0.241994,0.2755 -0.458169,0.58591 -0.697632,0.87024 l -0.02635,-0.0165 c -0.07228,0.0912 -0.140372,0.18569 -0.211873,0.2775 -0.13595,0.13429 -0.281387,0.25783 -0.449069,0.35554 l 0.119373,0.0765 c -2.142607,2.83007 -3.919673,5.9536 -5.192448,9.26868 -0.353665,0.92117 -0.632229,1.86922 -0.948262,2.80396 -0.547778,2.08385 -0.961871,3.40556 -1.260905,5.54023 -0.127781,0.91218 -0.317067,1.83428 -0.241846,2.75229 0.171879,2.0976 1.147298,4.54671 2.163175,6.34638 0.579266,1.0262 1.332262,1.94401 1.998328,2.91611 2.494682,3.18371 5.50686,5.86422 9.051644,7.82071 5.27667,2.91236 3.545673,2.23031 7.333402,3.40909 4.432608,0.95145 8.567483,1.16522 12.981126,-0.0713 0.98961,-0.27725 1.94472,-0.6653 2.91713,-0.99787 4.64742,-2.00782 8.67707,-5.20777 11.097,-9.72241 0.44593,-0.83192 0.76963,-1.72348 1.15445,-2.58537 2.01071,-5.53478 1.30373,-10.8959 -0.004,-16.4698 -0.87085,-2.99181 -2.34887,-5.69714 -4.39818,-8.02741 -0.0718,-0.10847 -0.14973,-0.21376 -0.24133,-0.3111 -1.05988,-1.18042 -2.53206,-1.91031 -3.84421,-2.76675 -2.48128,-1.43151 -4.93243,-2.94851 -7.57578,-4.07262 -1.15823,-0.53378 -2.31937,-1.0663 -3.552746,-1.40818 -1.463706,-0.46193 -2.939584,-0.84838 -4.490166,-0.80512 -0.886065,-0.0361 -1.772541,-0.0608 -2.659269,-0.0527 z m 5.617228,2.21588 c 1.537951,-0.0153 3.001048,0.40964 4.441588,0.89969 1.25787,0.34502 2.40961,0.95563 3.59048,1.49086 0.77545,0.35444 1.56055,0.69009 2.32234,1.07384 0.93584,0.57955 1.86179,1.18422 2.6417,1.9606 0.078,0.0796 0.14879,0.16357 0.21446,0.25064 l -0.0558,-0.0233 c 0.0551,0.0573 0.10531,0.11832 0.15968,0.17622 0.13644,0.20643 0.25171,0.42615 0.35553,0.65422 l 0.38344,0.17518 c 1.73047,2.05927 3.01844,4.42433 3.84576,7.01301 1.40047,5.50261 2.16136,10.79572 0.16588,16.28996 -0.97089,2.21137 -1.17241,3.00024 -2.62775,4.97179 -2.40039,3.25184 -5.75473,5.53323 -9.43301,7.1112 -0.96894,0.31823 -1.92058,0.69471 -2.9068,0.95446 -4.28924,1.12971 -8.691327,0.87677 -12.97182,-0.14986 -0.699085,-0.22998 -1.364029,-0.7556 -2.09703,-0.68988 -0.415032,0.0372 1.352931,0.9505 0.9679,0.79117 -0.81298,-0.33643 -1.542761,-0.85035 -2.277897,-1.33377 -2.663164,-1.75126 -4.965052,-3.92797 -6.967017,-6.40478 -0.670516,-0.95187 -1.428289,-1.84807 -2.011764,-2.85564 -1.005448,-1.73626 -1.965579,-4.09691 -2.139921,-6.13554 -0.07763,-0.90771 0.09742,-1.82132 0.217558,-2.72438 0.278342,-2.09231 0.694105,-3.46483 1.216463,-5.50819 0.312324,-0.92547 0.584507,-1.86509 0.936894,-2.77606 1.362212,-3.5215 3.317935,-6.93056 5.996017,-9.61234 l -0.05426,-0.0341 c 0.237184,-0.31527 0.464325,-0.63929 0.716236,-0.94361 0.545861,-0.71097 1.071697,-1.44391 1.763716,-2.02004 0.646695,-0.4759 1.317537,-0.91419 2.041219,-1.26297 0.904244,-0.3693 1.870499,-0.57997 2.830835,-0.74724 0.897736,-0.1203 1.800322,-0.20499 2.69751,-0.32969 0.87159,-0.13722 1.751045,-0.19553 2.631881,-0.22583 1.135398,-0.0201 2.270597,-0.0604 3.405993,-0.0357 z" /><path
         id="path1379"
         style="display:inline;fill:#f9dada;fill-opacity:0.835294;stroke:none;stroke-width:0.365001;stroke-linecap:round;stroke-linejoin:round;stroke-dasharray:none;stroke-opacity:1"
         d="m 96.317288,116.99361 c -2.881477,0.0438 -6.487226,0.38677 -8.486821,0.89401 -1.135886,0.28815 -2.379728,0.89917 -3.29954,1.62109 -0.514688,0.40396 -2.358663,2.5807 -2.478919,2.92643 -0.02368,0.0681 -0.352949,0.45774 -0.732255,0.8661 -1.994978,2.14776 -3.861874,5.24166 -5.215702,8.64443 -1.287884,3.23704 -2.442013,8.31287 -2.440161,10.73113 0.0013,1.89549 0.957883,4.74734 2.306319,6.87607 2.106613,3.32563 5.25358,6.54424 8.66252,8.86044 0.887991,0.60334 1.190909,0.76015 1.298629,0.67076 0.178048,-0.14777 0.917064,0.0262 1.617989,0.38137 0.529565,0.26835 2.524838,0.70577 4.09174,0.89659 0.525028,0.0639 1.07424,0.13345 1.220081,0.15451 0.775474,0.11201 4.146194,0.051 5.270996,-0.0956 5.954416,-0.77612 11.738056,-4.00593 15.090556,-8.42791 1.61399,-2.1289 3.01898,-5.26178 3.54448,-7.90236 0.73343,-3.68531 0.47103,-7.92952 -0.79013,-12.77958 -0.4085,-1.57097 -1.08996,-3.24021 -1.90273,-4.66018 -0.79055,-1.38118 -1.93242,-2.94466 -2.25877,-3.09336 -0.13261,-0.0604 -0.3079,-0.26152 -0.38964,-0.44751 -0.44308,-1.00813 -2.33341,-2.31047 -5.41259,-3.72691 -2.49598,-1.14816 -4.46083,-1.85375 -6.098856,-2.19211 -0.564927,-0.1167 -1.412549,-0.1805 -2.413289,-0.19741 -0.375279,-0.006 -0.77227,-0.006 -1.183907,0 z m -13.68547,22.34696 c 0.0122,0.003 0.02815,0.008 0.04082,0.0114 0.009,0.005 0.01953,0.0106 0.02842,0.0155 -0.009,-7.9e-4 -0.02088,-0.002 -0.02997,-0.003 -0.01349,-0.007 -0.02584,-0.0164 -0.03927,-0.0238 z m 18.278472,2.07326 c 0.25735,-0.0159 0.55309,0.0512 0.97152,0.17828 0.0624,0.019 0.10441,0.0227 0.16174,0.0382 -0.0934,0.23099 -0.18719,0.46586 -0.2775,0.67593 -0.0219,0.0509 -0.0568,0.11819 -0.0801,0.17105 -0.0648,-0.004 -0.11874,-0.003 -0.15141,0.005 -0.13614,0.0342 -0.49229,0.36861 -0.79582,0.74465 0.1036,-0.40344 0.20944,-0.83125 0.23565,-1.02009 0.0267,-0.19245 0.0723,-0.39551 0.0191,-0.58239 -0.0199,-0.07 -0.0521,-0.14068 -0.0832,-0.21084 z m -5.86786,0.65887 c 0.395826,0.17429 0.752821,0.46986 1.083655,0.90434 l 0.221692,0.29094 c -0.03553,0.30118 -0.07674,0.60121 -0.124024,0.9002 -0.352843,-0.20266 -0.676596,-0.45912 -0.957564,-0.78031 l -0.482141,-0.55036 -0.676961,0.22841 c -0.42137,0.14233 -0.940508,0.22893 -1.37356,0.22893 -0.271128,0 -0.462285,-0.0167 -0.658875,-0.0636 0.969736,-0.47093 1.900064,-0.84185 2.967778,-1.15859 z"
         inkscape:label="color" /><g
         id="g39"
         inkscape:label="nose"
         style="display:inline"><path
           style="display:none;fill:#000000;fill-opacity:1;stroke:none;stroke-width:0.865;stroke-linecap:round;stroke-linejoin:round"
           id="path26"
           d="m 97.605185,136.17008 c 0.746123,-0.28924 1.516605,-0.48821 2.302111,-0.63492 0.454074,-0.0349 0.942434,-0.20153 1.395964,-0.0705 0.21895,0.0633 0.38256,0.18338 0.57285,0.30157 -2.011015,-1.10738 -1.65215,-1.1233 -1.20001,-0.53541 0.26478,0.34426 0.46103,0.72268 0.62467,1.12268 0.19618,0.52559 0.21279,1.08732 0.22553,1.64129 0.009,0.58612 0.0356,1.17032 -0.0751,1.74809 -0.16589,0.4342 -0.34003,0.90559 -0.65769,1.25732 -0.19778,0.21899 -0.34797,0.29292 -0.59291,0.45113 -0.78821,0.39116 -1.626201,0.6372 -2.490976,0.78157 -0.675867,0.0925 -1.359448,0.0924 -2.040215,0.0909 -0.734319,0.0439 -1.449462,-0.0864 -2.114116,-0.39899 -0.106596,-0.0641 -0.428977,-0.25205 -0.319789,-0.19243 1.921851,1.04954 1.645613,1.00588 1.066538,0.54272 -0.292991,-0.23434 -0.544107,-0.49652 -0.798695,-0.77084 -0.396518,-0.41805 -0.748641,-0.87276 -1.101476,-1.32718 0,0 -1.778508,-0.76212 -1.778508,-0.76212 v 0 c 0.360241,0.45694 0.708813,0.92275 1.109649,1.34596 0.938157,1.05677 1.988209,1.7571 3.328731,2.35428 0.698344,0.27033 1.425287,0.38575 2.175145,0.34615 0.684114,-0.009 1.372296,-0.0146 2.048968,-0.12671 0.876644,-0.17765 1.726724,-0.45189 2.530514,-0.84911 0.25227,-0.17422 0.42994,-0.27439 0.63562,-0.50857 0.32839,-0.37391 0.50871,-0.87278 0.70624,-1.31984 0.13121,-0.58879 0.10469,-1.18472 0.0995,-1.78532 -0.014,-0.572 -0.0123,-1.15592 -0.19833,-1.7038 -0.16022,-0.42263 -0.36463,-0.79229 -0.60967,-1.17146 -0.0611,-0.0946 -0.0895,-0.2204 -0.18203,-0.28469 -0.60766,-0.42237 -1.26265,-0.77221 -1.89397,-1.15832 -0.768568,-0.38155 -1.219397,-0.25247 -2.036181,-0.1123 -0.800952,0.17029 -1.587601,0.3911 -2.370191,0.63155 z"
           inkscape:label="nose" /><path
           style="fill:#000000;fill-opacity:1;stroke:#000000;stroke-width:0.365001;stroke-linecap:round;stroke-linejoin:round;stroke-dasharray:none;stroke-opacity:1"
           id="path39"
           d="m 89.821413,141.00003 c -0.01693,0.37748 0.118811,0.61851 0.355727,0.90326 0.473599,0.4949 1.088348,0.77341 1.710124,1.05791 0.10651,0.0487 0.489773,0.10222 0.600712,0.12002 0.509183,0.0622 0.869162,0.0227 1.334643,-0.1776 0.324589,-0.16947 0.672161,-0.22896 1.03219,-0.26054 0.06519,-0.004 0.130424,-0.0153 0.195562,-0.0109 0.211079,0.0143 1.00421,0.2992 -0.414327,-0.29503 -0.08087,-0.0339 0.142428,0.103 0.206907,0.16242 0.143682,0.13239 0.238855,0.26513 0.359079,0.41739 0.582102,0.84502 0.604779,0.75127 1.659549,1.32392 0.45245,0.0905 0.916659,0.0834 1.375936,0.0844 0.281112,-0.007 0.576802,0.004 0.851815,-0.0688 0.133462,-0.0352 0.237647,-0.0912 0.361591,-0.14958 0.444896,-0.21881 0.753079,-0.59651 1.055929,-0.97521 0.25441,-0.29759 0.4665,-0.67609 0.83188,-0.85532 0.063,-0.0309 0.13137,-0.0491 0.19706,-0.0737 0.52314,-0.0599 0.98985,0.18901 1.4736,0.33872 0.0786,0.0195 0.15516,0.0518 0.2359,0.0584 0.53299,0.0438 0.97595,-0.30735 1.35689,-0.62745 0.38029,-0.3325 0.54477,-0.6768 0.58425,-1.17322 -0.0173,-0.32743 -0.004,-0.16541 -0.0385,-0.48609 0,0 -0.85147,-0.42171 -0.85147,-0.42171 v 0 c 0.038,0.31172 0.0237,0.15558 0.043,0.46841 -0.0311,0.467 -0.18169,0.79612 -0.53278,1.11577 -0.46508,0.39332 -0.91892,0.69388 -1.54747,0.48436 -0.49315,-0.16438 -0.98291,-0.3866 -1.5159,-0.2884 -0.0702,0.0294 -0.14367,0.052 -0.21058,0.0883 -0.36314,0.19692 -0.57309,0.58616 -0.832004,0.88982 -0.297312,0.36818 -0.614042,0.71964 -1.049422,0.92671 -0.399145,0.17326 -0.747905,0.1987 -1.18102,0.19091 -0.45638,-0.003 -0.9232,0.006 -1.365703,-0.12098 1.348325,0.83353 0.600522,0.42236 0.388374,0.20254 -0.163113,-0.16901 -0.277826,-0.37857 -0.424807,-0.56028 -0.474104,-0.62335 -1.133435,-1.29672 -1.992847,-1.20076 -0.368615,0.0371 -0.720182,0.10596 -1.050938,0.28256 -0.427199,0.17145 -0.823198,0.21839 -1.283645,0.14814 -0.100642,-0.0186 -0.202152,-0.033 -0.301924,-0.0558 -0.09782,-0.0223 -0.356653,-0.15491 -0.29033,-0.0796 0.141161,0.16029 0.36281,0.22655 0.533178,0.35537 0.07042,0.0532 -0.158001,-0.0796 -0.232023,-0.12767 -0.176705,-0.11482 -0.246108,-0.19421 -0.397376,-0.33831 -0.221279,-0.23888 -0.393215,-0.4838 -0.349287,-0.82331 z" /></g><g
         id="g1313"
         inkscape:label="old man"><path
           style="display:inline;fill:#808080;fill-opacity:0.501901;stroke:none;stroke-width:0.365001;stroke-linecap:round;stroke-linejoin:round;stroke-dasharray:none;stroke-opacity:1"
           id="path1304"
           d="m 94.613716,129.25644 c 0.822362,-0.32495 1.704406,-0.45926 2.575539,-0.58135 0.533646,-0.0656 1.085601,-0.12764 1.615162,0.004 0.08611,0.0214 0.169148,0.0537 0.253722,0.0806 0.24747,0.0829 0.47934,0.20344 0.715473,0.31299 0,0 -0.746606,-0.59279 -0.746606,-0.59279 v 0 c -0.226886,-0.1013 -0.452734,-0.20683 -0.691635,-0.27765 -0.241281,-0.0657 -0.279066,-0.0866 -0.531084,-0.11159 -0.439399,-0.0435 -0.880349,0.0268 -1.313397,0.0931 -0.893443,0.15431 -1.787422,0.31225 -2.666402,0.53691 z" /><path
           style="fill:#808080;fill-opacity:0.501901;stroke:none;stroke-width:0.365001;stroke-linecap:round;stroke-linejoin:round;stroke-dasharray:none;stroke-opacity:1"
           id="path1305"
           d="m 95.151437,130.97417 c 0.04103,-0.0131 0.109585,-0.0345 0.145089,-0.048 0.243808,-0.0923 0.481764,-0.14984 0.739045,-0.19676 0.696267,-0.11668 1.396648,-0.20224 2.100151,-0.25979 0.369144,-0.0329 0.738005,-0.0385 1.107742,-0.0188 0,0 -0.757132,-0.55456 -0.757132,-0.55456 v 0 c -0.36395,-0.009 -0.727977,0.003 -1.089729,0.0473 -0.702418,0.0801 -1.400849,0.19188 -2.104297,0.26397 -0.329163,0.0477 -0.652264,0.1144 -0.967153,0.22297 z" /><path
           style="fill:#808080;fill-opacity:0.501901;stroke:none;stroke-width:0.365001;stroke-linecap:round;stroke-linejoin:round;stroke-dasharray:none;stroke-opacity:1"
           id="path1307"
           d="m 103.45403,133.39257 c 0.32058,0.18382 0.65389,0.34413 0.98415,0.50973 0.41193,0.20434 0.84137,0.36831 1.27265,0.52616 0.49224,0.19737 0.9955,0.36432 1.49805,0.53294 0.6135,0.19592 1.24148,0.36283 1.87892,0.45774 0.45488,0.0809 0.9166,0.0879 1.37699,0.0888 0.24797,-0.002 0.12826,3.1e-4 0.35917,-0.005 0,0 -0.55112,-0.20834 -0.55112,-0.20834 v 0 c -0.22336,0.007 -0.10716,0.004 -0.3486,0.007 -0.45721,-6.5e-4 -0.91553,-0.0119 -1.36681,-0.0943 -0.0805,-0.0133 -0.31594,-0.0736 -0.24152,-0.0401 0.10727,0.0483 0.22879,0.0551 0.34243,0.0856 0.0726,0.0194 -0.14657,-0.0339 -0.21948,-0.0526 -0.0327,-0.008 -0.40717,-0.1105 -0.441,-0.12061 -0.0748,-0.0223 -0.14847,-0.0477 -0.22273,-0.0716 -0.50238,-0.1671 -1.00622,-0.33092 -1.4967,-0.53119 -0.42864,-0.15704 -0.85585,-0.31883 -1.26663,-0.51914 -0.31913,-0.15902 -0.64525,-0.30968 -0.94455,-0.50414 z" /><path
           style="fill:#808080;fill-opacity:0.501901;stroke:none;stroke-width:0.365001;stroke-linecap:round;stroke-linejoin:round;stroke-dasharray:none;stroke-opacity:1"
           id="path1308"
           d="m 90.743109,133.76675 c -0.32058,0.18382 -0.65389,0.34413 -0.98415,0.50973 -0.41193,0.20434 -0.84137,0.36831 -1.27265,0.52616 -0.49224,0.19737 -0.9955,0.36432 -1.49805,0.53294 -0.6135,0.19592 -1.24148,0.36283 -1.87892,0.45774 -0.45488,0.0809 -0.9166,0.0879 -1.37699,0.0888 -0.24797,-0.002 -0.12826,3.1e-4 -0.35917,-0.005 0,0 0.55112,-0.20834 0.55112,-0.20834 v 0 c 0.22336,0.007 0.10716,0.004 0.3486,0.007 0.45721,-6.5e-4 0.91553,-0.0119 1.36681,-0.0943 0.0805,-0.0133 0.31594,-0.0736 0.24152,-0.0401 -0.10727,0.0483 -0.22879,0.0551 -0.34243,0.0856 -0.0726,0.0194 0.14657,-0.0339 0.21948,-0.0526 0.0327,-0.008 0.40717,-0.1105 0.441,-0.12061 0.0748,-0.0223 0.14847,-0.0477 0.22273,-0.0716 0.50238,-0.1671 1.00622,-0.33092 1.4967,-0.53119 0.42864,-0.15704 0.85585,-0.31883 1.26663,-0.51914 0.31913,-0.15902 0.64525,-0.30968 0.94455,-0.50414 z" /><path
           style="fill:#808080;fill-opacity:0.501901;stroke:none;stroke-width:0.365001;stroke-linecap:round;stroke-linejoin:round;stroke-dasharray:none;stroke-opacity:1"
           id="path1309"
           d="m 95.078554,156.16806 c 0.648806,-0.0262 1.298306,-0.0248 1.947514,-0.0251 0.419568,0.001 0.839094,0.008 1.258609,0.014 0,0 -0.766418,-0.55684 -0.766418,-0.55684 v 0 c -0.406699,0.006 -0.813414,0.0126 -1.220169,0.014 -0.672285,-5.3e-4 -1.344797,5e-5 -2.016717,-0.0251 z" /><path
           style="fill:#808080;fill-opacity:0.501901;stroke:none;stroke-width:0.365001;stroke-linecap:round;stroke-linejoin:round;stroke-dasharray:none;stroke-opacity:1"
           id="path1310"
           d="m 96.911511,158.02158 c 0.186111,-0.0417 0.377814,-0.0515 0.567499,-0.0654 0,0 -0.77907,-0.55744 -0.77907,-0.55744 v 0 c -0.196459,0.0141 -0.392833,0.0325 -0.589556,0.0408 z" /><path
           style="fill:#808080;fill-opacity:0.501901;stroke:none;stroke-width:0.365001;stroke-linecap:round;stroke-linejoin:round;stroke-dasharray:none;stroke-opacity:1"
           id="path1311"
           d="m 88.60955,141.21208 c -0.123973,0.23225 -0.244856,0.46665 -0.381524,0.69162 -0.107682,0.18099 -0.230666,0.3516 -0.359272,0.51806 0,0 0.830368,0.49355 0.830368,0.49355 v 0 c 0.127828,-0.17058 0.249553,-0.34541 0.358926,-0.52857 0.14369,-0.22428 0.262498,-0.46356 0.411036,-0.68526 z" /><path
           style="fill:#808080;fill-opacity:0.501901;stroke:none;stroke-width:0.365001;stroke-linecap:round;stroke-linejoin:round;stroke-dasharray:none;stroke-opacity:1"
           id="path1312"
           d="m 106.15756,141.39182 c 0.33437,0.2068 -0.19621,-0.12232 -0.688,-0.39186 -0.0354,-0.0194 0.0663,0.0462 0.0969,0.0724 0.0393,0.0336 0.0761,0.07 0.11238,0.10692 0.0807,0.0822 0.1568,0.16877 0.236,0.2524 0.2721,0.27349 0.54317,0.5478 0.83219,0.80347 0.2234,0.18864 0.41777,0.40707 0.64054,0.59638 0.12591,0.10808 0.0642,0.0535 0.18523,0.16354 0,0 0.89913,0.36832 0.89913,0.36832 v 0 c -0.12111,-0.11392 -0.0593,-0.0572 -0.18553,-0.17005 -0.23256,-0.18265 -0.42732,-0.40288 -0.64968,-0.59674 -0.29208,-0.25128 -0.56801,-0.51941 -0.8364,-0.79591 -0.11462,-0.11824 -0.21764,-0.24678 -0.33227,-0.36467 -0.29675,-0.30518 -0.71371,-0.45639 -1.08289,-0.66205 z" /><path
           style="display:inline;fill:#808080;fill-opacity:0.501901;stroke:none;stroke-width:0.365001;stroke-linecap:round;stroke-linejoin:round;stroke-dasharray:none;stroke-opacity:1"
           id="path1271"
           d="m 114.04129,134.3128 c 0.0674,-0.003 0.10985,-0.008 0.18168,0.002 0.30161,0.0406 0.60062,0.13344 0.89307,0.21375 0.0889,0.0231 0.17794,0.0457 0.2667,0.0694 0.64994,0.17342 -0.1292,-0.03 0.47554,0.1269 0.16288,0.0422 0.32386,0.0755 0.47526,0.14957 -0.27082,-0.1545 -0.55422,-0.28879 -0.81246,-0.46349 0.0151,-0.0809 0.0371,-0.074 -0.0358,-0.11652 -0.0683,-0.0399 -0.28269,-0.14194 -0.21454,-0.1017 0.20638,0.12186 0.41669,0.23695 0.62504,0.35543 -0.37906,-0.25145 -0.74596,-0.52052 -1.12448,-0.77284 -0.0266,0.0127 -0.30198,-0.22137 -0.31663,-0.22112 -0.009,1.4e-4 -0.008,0.0222 -5.3e-4,0.0261 0.0145,0.007 0.0325,-10e-4 0.0487,-0.002 0.2225,-0.0289 0.44764,-0.0261 0.67154,-0.0241 0.21636,0.003 0.43273,0.003 0.6491,0.002 0,0 -0.77677,-0.56468 -0.77677,-0.56468 v 0 c -0.21726,-0.002 -0.43452,-0.005 -0.65179,-0.003 -0.23346,0.003 -0.47018,-0.003 -0.70022,0.0412 -0.0284,0.0139 -0.0621,0.0202 -0.0853,0.0418 -0.0256,0.0238 -0.0491,0.0547 -0.0552,0.0891 -0.0141,0.0799 0.28629,0.23179 0.33699,0.27213 0.38881,0.24529 0.76364,0.51211 1.13632,0.78104 0.32965,0.19105 0.65733,0.38554 0.98895,0.57314 0.0505,0.0286 0.26973,0.14086 0.33705,0.10325 0.0368,-0.0206 0.11304,-0.0722 0.0798,-0.0983 -0.26329,-0.20659 -0.57448,-0.34349 -0.86173,-0.51523 -0.38983,-0.10812 -0.78689,-0.18975 -1.17594,-0.30115 -0.3778,-0.10396 -0.75906,-0.22904 -1.15344,-0.24262 z" /><path
           style="display:inline;fill:#808080;fill-opacity:0.501901;stroke:none;stroke-width:0.365001;stroke-linecap:round;stroke-linejoin:round;stroke-dasharray:none;stroke-opacity:1"
           id="path1272"
           d="m 79.872225,134.54218 c -0.254074,0.0128 -0.508687,0.0131 -0.763037,0.0136 -0.310173,-0.003 -0.620342,1e-5 -0.93051,-0.003 -0.03606,-0.008 -0.07419,-0.009 -0.108175,-0.0232 -0.02143,-0.009 -0.07373,-0.0562 -0.05339,-0.0449 0.273619,0.15178 0.532093,0.33183 0.81429,0.46699 0.02098,0.0101 0.01167,-0.0457 0.02363,-0.0656 0.04896,-0.0815 0.163552,-0.21117 0.219297,-0.27768 0.293595,-0.30261 0.634632,-0.55225 0.992873,-0.77206 0.116721,-0.0868 0.376796,-0.14148 0.441526,-0.28728 0.01466,-0.033 0.03203,-0.0872 0.0028,-0.10841 -0.754827,-0.54744 -0.597281,-0.50149 -1.069623,-0.58409 -0.357322,-0.0564 -0.718743,-0.0273 -1.077942,-0.0116 -0.01029,5.3e-4 -0.305998,0.0137 -0.323725,0.012 -0.03664,-0.003 -0.138092,-0.0484 -0.106328,-0.0298 0.910148,0.53296 0.613232,0.64802 0.929322,0.26678 0.299196,-0.28388 0.629679,-0.5373 0.963245,-0.7801 0,0 -0.801989,-0.50546 -0.801989,-0.50546 v 0 c -0.322011,0.2657 -0.646822,0.52805 -0.966719,0.79601 -0.04494,0.0438 -0.09489,0.083 -0.134821,0.13141 -0.03369,0.0409 -0.124661,0.10003 -0.08448,0.1345 0.677793,0.58154 0.691366,0.55766 1.291976,0.52591 0.355735,-0.0187 0.716034,-0.0433 1.066466,0.0382 0.415378,0.14039 0.165264,0.0686 -0.570288,-0.40635 -0.01659,-0.0107 0.05055,0.008 0.05246,0.0276 0.0028,0.0289 -0.02013,0.0575 -0.04241,0.0762 -0.04896,0.041 -0.109352,0.0661 -0.164949,0.0975 -0.062,0.0351 -0.125185,0.068 -0.187777,0.10198 -0.362101,0.22955 -0.707486,0.48632 -1.00796,0.79397 -0.02363,0.025 -0.232087,0.24319 -0.261421,0.28212 -0.02646,0.0351 -0.09887,0.0847 -0.06614,0.11408 0.47961,0.43007 0.571564,0.56932 1.002395,0.59215 0.30734,-0.003 0.61468,-2.1e-4 0.922025,-0.003 0.266859,5.3e-4 0.533916,0.001 0.800534,0.0136 z" /></g><g
         id="g1284"
         inkscape:label="eyebrows"><path
           style="display:inline;fill:#000000;fill-opacity:1;stroke:none;stroke-width:0.365001;stroke-linecap:round;stroke-linejoin:round;stroke-dasharray:none;stroke-opacity:1"
           id="path1278"
           d="m 88.737497,128.40151 c -0.05791,0.002 -0.115157,0.0156 -0.17296,0.0183 -0.03083,10e-4 -0.06173,-6e-5 -0.0926,-9e-5 -0.27754,-0.0176 -0.547475,-0.0961 -0.804357,-0.19996 -0.06239,-0.0252 -0.123269,-0.054 -0.184901,-0.0811 -0.05764,-0.0294 -0.116237,-0.057 -0.172927,-0.0882 -0.05309,-0.0292 -0.209293,-0.1222 -0.156228,-0.0929 0.80853,0.44577 0.731173,0.44385 0.481378,0.25342 -0.0273,-0.0208 -0.0509,-0.0468 -0.08031,-0.0645 -0.284805,-0.17153 -0.574307,-0.33514 -0.861462,-0.50271 -0.04263,-0.007 -0.0847,-0.0199 -0.127897,-0.0215 -0.110334,-0.004 -0.295772,0.0273 -0.39706,0.0414 -0.214863,0.0298 -0.33247,0.0481 -0.550937,0.0706 -0.0957,0.01 -0.191674,0.0168 -0.287512,0.0251 -0.164507,0.009 -0.325694,0.0235 -0.490532,0.0149 -0.05863,-0.003 -0.117718,-0.007 -0.1749,-0.0207 -0.04093,-0.01 -0.153284,-0.0682 -0.116917,-0.0471 0.816502,0.47265 0.938475,0.58118 0.701546,0.37721 -0.0045,-0.0102 -0.01175,-0.0197 -0.01352,-0.0307 -0.0065,-0.0401 0.02993,-0.12756 -0.01669,-0.15678 -0.821621,-0.51515 -0.54787,-0.49469 -0.976937,-0.50117 -0.3259,0.005 -0.651557,-0.004 -0.976908,-0.0221 -0.08614,-0.0104 -0.183396,0.003 -0.265033,-0.0352 -0.01482,-0.007 -0.05378,-0.0369 -0.03954,-0.0289 0.781597,0.43919 1.031597,0.6528 0.775848,0.43656 -0.227992,-0.30349 -0.07802,-0.11592 -0.917303,-0.50733 -0.02445,-0.0114 -0.05299,0.0102 -0.07928,0.0162 -0.09219,0.021 -0.183361,0.047 -0.274404,0.0724 -0.202192,0.0807 -0.397002,0.17949 -0.591699,0.27671 -0.150481,0.0655 -0.299981,0.13629 -0.459861,0.17582 -0.07445,0.018 -0.153686,0.0219 -0.226298,0.0477 -0.01918,0.007 -0.03725,0.0164 -0.05587,0.0247 -0.07946,0.0398 -0.167034,0.0633 -0.244395,0.10744 -0.04831,0.0276 -0.06622,0.0452 -0.108638,0.08 -0.04662,0.044 -0.132348,0.11209 -0.128202,0.18515 0.0013,0.0214 0.0051,0.0489 0.02342,0.06 0.285411,0.17361 0.583936,0.32468 0.875906,0.48702 0.178189,0.0103 0.356724,0.0117 0.535101,0.0169 0.16101,-0.002 0.322019,8e-4 0.48296,0.005 0.09466,0.005 0.189444,0.005 0.284215,0.005 0.113866,-0.003 0.227714,-0.006 0.341641,-0.006 0.104508,-0.005 0.20942,-0.002 0.313902,-0.007 0.04861,-0.002 0.127777,-0.0104 0.176334,-0.0152 0.02978,-0.003 0.05961,-0.005 0.08935,-0.008 0.101378,-0.0109 0.0939,-0.0133 0.198475,-0.0229 0.104844,-0.01 0.209843,-0.0121 0.315018,-0.0152 0.187963,-0.003 0.375888,-0.007 0.563888,-0.007 0.191667,0.003 0.383294,-0.003 0.574961,5.3e-4 0.193455,0.001 0.386926,5.2e-4 0.580347,-0.003 0.219991,-0.009 0.439942,2.6e-4 0.659861,0.005 0.02836,5.3e-4 0.05672,0.002 0.08508,0.002 0.07277,-1.8e-4 0.10423,-0.005 0.177347,-0.002 0.08657,0.004 0.173686,0.0159 0.259932,0.0242 0.151337,0.0226 0.303303,0.0408 0.454861,0.0619 0.166368,0.0229 0.327197,0.0723 0.488932,0.11589 0.173035,0.0458 0.339907,0.11147 0.509458,0.16854 0.09922,0.0294 0.199974,0.0534 0.303635,0.0566 0.07876,0.003 0.157507,0.009 0.23635,0.007 0.07518,-0.001 0.150297,-0.003 0.225489,-0.002 0.0605,0.002 0.120983,0.003 0.181501,0.003 0.05717,-6e-5 0.114345,1e-4 0.171511,-0.001 0,0 -0.785119,-0.57042 -0.785119,-0.57042 v 0 c -0.05826,-0.001 -0.116515,-0.001 -0.174779,-0.001 -0.05799,1.4e-4 -0.11594,5.3e-4 -0.1739,0.003 -0.07617,0.002 -0.152297,-1.3e-4 -0.228462,-7.9e-4 -0.07346,-0.002 -0.147209,0.002 -0.220369,-0.007 -0.09466,-0.0156 -0.188479,-0.0348 -0.280107,-0.0638 -0.158795,-0.0469 -0.315896,-0.0995 -0.476591,-0.1398 -0.172307,-0.0519 -0.345442,-0.10979 -0.525481,-0.12667 -0.148963,-0.0185 -0.297865,-0.0386 -0.447442,-0.0513 -0.174498,-0.0135 -0.349157,-0.021 -0.524216,-0.0157 -0.215265,0.005 -0.430536,0.0146 -0.645891,0.005 -0.196635,-0.004 -0.393319,-0.005 -0.589991,-0.004 -0.191522,0.003 -0.383006,-0.003 -0.574524,2.4e-4 -0.188037,0.001 -0.376394,-0.002 -0.564079,0.0117 -0.204356,0.014 -0.408575,0.03 -0.613013,0.043 -0.0482,0.003 -0.121727,0.009 -0.170479,0.01 -0.110683,0.002 -0.22138,-0.007 -0.332049,-0.007 -0.119423,1.8e-4 -0.238771,-0.003 -0.358143,-0.006 -0.08972,1.8e-4 -0.179478,-1.9e-4 -0.269023,0.006 -0.15471,0.006 -0.309563,0.0102 -0.464394,0.006 -0.179941,0.001 -0.365361,0.002 -0.537689,-0.0556 0.254114,0.14948 0.513649,0.29012 0.762347,0.44845 0.01331,0.008 -0.07126,0.0114 -0.07237,0.007 -0.0044,-0.0181 0.07217,-0.0948 0.0843,-0.10578 0.01429,-0.0114 0.0278,-0.0237 0.04282,-0.0341 0.08764,-0.0604 0.193866,-0.089 0.292831,-0.12432 0.09594,-0.0218 0.195559,-0.0312 0.286663,-0.0704 0.142978,-0.0643 0.277402,-0.14595 0.415422,-0.21988 0.195635,-0.0973 0.39847,-0.17857 0.605859,-0.24735 0.08771,-0.026 0.176088,-0.0508 0.26866,-0.0501 0.02767,2.1e-4 0.105786,0.0238 0.08254,0.009 -0.691198,-0.44583 -1.060953,-0.4796 -0.725652,-0.44417 0.264655,0.56637 0.697146,0.56394 1.130314,0.53215 0.326988,-0.0185 0.657624,-0.0198 0.980334,0.0435 0.401529,0.12727 0.08942,0.0385 -0.620451,-0.40822 -0.01238,-0.008 0.03131,-5.3e-4 0.04311,0.008 0.02974,0.0217 0.004,0.0754 0.0019,0.0953 -0.0026,0.0239 -0.0016,0.0482 -0.0024,0.0722 0.01016,0.0224 0.0096,0.0542 0.03046,0.0673 0.266671,0.16644 0.582716,0.50226 0.943272,0.48779 0.193389,-0.008 0.382905,-0.0554 0.575463,-0.071 0.23517,-0.0251 0.341389,-0.0386 0.579991,-0.0546 0.247642,-0.0166 0.506571,-0.0372 0.750403,0.0248 0.04521,0.0115 0.08696,0.0338 0.130434,0.0508 -0.221972,-0.13071 -0.441259,-0.26609 -0.665916,-0.39212 -0.03665,-0.0206 0.06728,0.0504 0.101137,0.0753 0.04031,0.0296 0.07859,0.0623 0.121364,0.0883 0.381836,0.2315 0.765387,0.47772 1.174123,0.66417 0.06236,0.0257 0.124071,0.053 0.187071,0.0771 0.287554,0.10995 0.587047,0.19588 0.892765,0.235 0.112617,0.0103 0.225195,0.021 0.337989,0.0287 z" /><path
           style="display:inline;fill:#000000;fill-opacity:1;stroke:none;stroke-width:0.365001;stroke-linecap:round;stroke-linejoin:round;stroke-dasharray:none;stroke-opacity:1"
           id="path1279"
           d="m 104.30994,128.0897 c 0.0579,0.002 0.11516,0.0156 0.17296,0.0183 0.0308,0.001 0.0617,-6e-5 0.0926,-9e-5 0.27754,-0.0176 0.54748,-0.0961 0.80436,-0.19996 0.0624,-0.0252 0.12327,-0.054 0.1849,-0.0811 0.0576,-0.0294 0.11624,-0.057 0.17293,-0.0882 0.0531,-0.0292 0.20929,-0.1222 0.15623,-0.0929 -0.80853,0.44577 -0.73118,0.44385 -0.48138,0.25342 0.0273,-0.0208 0.0509,-0.0468 0.0803,-0.0645 0.2848,-0.17153 0.57431,-0.33514 0.86146,-0.50271 0.0426,-0.007 0.0847,-0.0199 0.1279,-0.0215 0.11033,-0.004 0.29577,0.0273 0.39706,0.0414 0.21486,0.0298 0.33247,0.0481 0.55094,0.0706 0.0957,0.01 0.19167,0.0168 0.28751,0.0251 0.1645,0.009 0.32569,0.0235 0.49053,0.0149 0.0586,-0.003 0.11772,-0.007 0.1749,-0.0207 0.0409,-0.01 0.15328,-0.0682 0.11692,-0.0471 -0.81651,0.47265 -0.93848,0.58118 -0.70155,0.37721 0.005,-0.0102 0.0118,-0.0197 0.0135,-0.0307 0.007,-0.0401 -0.0299,-0.12756 0.0167,-0.15678 0.82162,-0.51515 0.54787,-0.49469 0.97694,-0.50117 0.3259,0.005 0.65155,-0.004 0.97691,-0.0221 0.0861,-0.0104 0.18339,0.003 0.26503,-0.0352 0.0148,-0.007 0.0538,-0.0369 0.0395,-0.0289 -0.7816,0.43919 -1.0316,0.6528 -0.77585,0.43656 0.22799,-0.30349 0.078,-0.11592 0.9173,-0.50733 0.0245,-0.0114 0.053,0.0102 0.0793,0.0162 0.0922,0.021 0.18336,0.047 0.27441,0.0724 0.20219,0.0807 0.397,0.17949 0.5917,0.27671 0.15048,0.0655 0.29998,0.13629 0.45986,0.17582 0.0744,0.018 0.15368,0.0219 0.2263,0.0477 0.0192,0.007 0.0373,0.0164 0.0559,0.0247 0.0795,0.0398 0.16703,0.0633 0.24439,0.10744 0.0483,0.0276 0.0662,0.0452 0.10864,0.08 0.0466,0.044 0.13235,0.11209 0.1282,0.18515 -10e-4,0.0214 -0.005,0.0489 -0.0234,0.06 -0.28541,0.17361 -0.58394,0.32468 -0.87591,0.48702 -0.17818,0.0103 -0.35672,0.0117 -0.5351,0.0169 -0.16101,-0.002 -0.32202,8e-4 -0.48296,0.005 -0.0947,0.005 -0.18944,0.005 -0.28421,0.005 -0.11387,-0.003 -0.22772,-0.006 -0.34164,-0.006 -0.10451,-0.005 -0.20942,-0.002 -0.3139,-0.007 -0.0486,-0.002 -0.12778,-0.0104 -0.17634,-0.0152 -0.0298,-0.003 -0.0596,-0.005 -0.0893,-0.008 -0.10138,-0.0109 -0.0939,-0.0133 -0.19847,-0.0229 -0.10485,-0.01 -0.20985,-0.0121 -0.31502,-0.0152 -0.18796,-0.003 -0.37589,-0.007 -0.56389,-0.007 -0.19167,0.003 -0.38329,-0.003 -0.57496,5.3e-4 -0.19346,0.001 -0.38693,5.2e-4 -0.58035,-0.003 -0.21999,-0.009 -0.43994,2.6e-4 -0.65986,0.005 -0.0284,5.3e-4 -0.0567,0.002 -0.0851,0.002 -0.0728,-1.8e-4 -0.10423,-0.005 -0.17735,-0.002 -0.0866,0.004 -0.17368,0.0159 -0.25993,0.0242 -0.15133,0.0226 -0.3033,0.0408 -0.45486,0.0619 -0.16637,0.0229 -0.3272,0.0723 -0.48893,0.11589 -0.17304,0.0458 -0.33991,0.11147 -0.50946,0.16854 -0.0992,0.0294 -0.19997,0.0534 -0.30363,0.0566 -0.0788,0.003 -0.15751,0.009 -0.23635,0.007 -0.0752,-10e-4 -0.1503,-0.003 -0.22549,-0.002 -0.0605,0.002 -0.12099,0.003 -0.1815,0.003 -0.0572,-6e-5 -0.11435,1e-4 -0.17151,-0.001 0,0 0.78511,-0.57042 0.78511,-0.57042 v 0 c 0.0583,-0.001 0.11652,-0.001 0.17478,-0.001 0.058,1.4e-4 0.11594,5.3e-4 0.1739,0.003 0.0762,0.002 0.1523,-1.3e-4 0.22847,-7.9e-4 0.0735,-0.002 0.1472,0.002 0.22036,-0.007 0.0947,-0.0156 0.18848,-0.0348 0.28011,-0.0638 0.1588,-0.0469 0.3159,-0.0995 0.47659,-0.1398 0.17231,-0.0519 0.34544,-0.10979 0.52548,-0.12667 0.14897,-0.0185 0.29787,-0.0386 0.44745,-0.0513 0.17449,-0.0135 0.34915,-0.021 0.52421,-0.0157 0.21527,0.005 0.43054,0.0146 0.64589,0.005 0.19664,-0.004 0.39332,-0.005 0.58999,-0.004 0.19153,0.003 0.38301,-0.003 0.57453,2.4e-4 0.18803,0.001 0.37639,-0.002 0.56408,0.0117 0.20435,0.014 0.40857,0.03 0.61301,0.043 0.0482,0.003 0.12173,0.009 0.17048,0.01 0.11068,0.002 0.22138,-0.007 0.33205,-0.007 0.11942,1.8e-4 0.23877,-0.003 0.35814,-0.006 0.0897,1.8e-4 0.17948,-1.9e-4 0.26902,0.006 0.15471,0.006 0.30957,0.0102 0.4644,0.006 0.17994,0.001 0.36536,0.002 0.53769,-0.0556 -0.25412,0.14948 -0.51365,0.29012 -0.76235,0.44845 -0.0133,0.008 0.0713,0.0114 0.0724,0.007 0.004,-0.0181 -0.0722,-0.0948 -0.0843,-0.10578 -0.0143,-0.0114 -0.0278,-0.0237 -0.0428,-0.0341 -0.0876,-0.0604 -0.19387,-0.089 -0.29283,-0.12432 -0.0959,-0.0218 -0.19556,-0.0312 -0.28666,-0.0704 -0.14298,-0.0643 -0.27741,-0.14595 -0.41543,-0.21988 -0.19563,-0.0973 -0.39847,-0.17857 -0.60586,-0.24735 -0.0877,-0.026 -0.17608,-0.0508 -0.26866,-0.0501 -0.0277,2.1e-4 -0.10578,0.0238 -0.0825,0.009 0.6912,-0.44583 1.06096,-0.4796 0.72566,-0.44417 -0.26466,0.56637 -0.69715,0.56394 -1.13032,0.53215 -0.32699,-0.0185 -0.65762,-0.0198 -0.98033,0.0435 -0.40153,0.12727 -0.0894,0.0385 0.62045,-0.40822 0.0124,-0.008 -0.0313,-5.3e-4 -0.0431,0.008 -0.0297,0.0217 -0.004,0.0754 -0.002,0.0953 0.003,0.0239 0.002,0.0482 0.002,0.0722 -0.0102,0.0224 -0.01,0.0542 -0.0305,0.0673 -0.26667,0.16644 -0.58272,0.50226 -0.94327,0.48779 -0.19339,-0.008 -0.38291,-0.0554 -0.57547,-0.071 -0.23517,-0.0251 -0.34138,-0.0386 -0.57999,-0.0546 -0.24764,-0.0166 -0.50657,-0.0372 -0.7504,0.0248 -0.0452,0.0115 -0.087,0.0338 -0.13043,0.0508 0.22197,-0.13071 0.44126,-0.26609 0.66591,-0.39212 0.0367,-0.0206 -0.0673,0.0504 -0.10113,0.0753 -0.0403,0.0296 -0.0786,0.0623 -0.12137,0.0883 -0.38183,0.2315 -0.76539,0.47772 -1.17412,0.66417 -0.0624,0.0257 -0.12407,0.053 -0.18707,0.0771 -0.28756,0.10995 -0.58705,0.19588 -0.89277,0.235 -0.11261,0.0103 -0.22519,0.021 -0.33799,0.0287 z" /><path
           style="display:inline;fill:#ffffff;fill-opacity:1;stroke:none;stroke-width:1.37953;stroke-linecap:round;stroke-linejoin:round;stroke-dasharray:none;stroke-opacity:1"
           d="m 154.49013,455.20676 c -0.26897,-0.01 -0.55847,-0.0204 -0.64332,-0.0237 l -0.15428,-0.006 0.53915,-0.29559 c 0.29654,-0.16258 0.66572,-0.35341 0.8204,-0.42408 0.59131,-0.2701 1.44137,-0.60271 1.9073,-0.74628 l 0.20939,-0.0645 0.20303,0.0726 c 0.49829,0.1781 1.11667,0.24227 1.93428,0.20073 0.27853,-0.0141 0.7033,-0.0357 0.94392,-0.048 0.24063,-0.0122 0.74242,-0.0181 1.11509,-0.013 l 0.67759,0.009 0.33735,0.25218 c 0.42868,0.32047 0.8771,0.61908 1.12956,0.75221 l 0.19709,0.10393 -2.67626,0.009 c -1.75206,0.006 -2.75899,0.0169 -2.91584,0.0322 -0.30883,0.0301 -2.58217,0.18513 -2.89583,0.19751 -0.13177,0.005 -0.45965,0.002 -0.72862,-0.008 z"
           id="path1280"
           transform="matrix(0.26458333,0,0,0.26458333,41.7,7.8)" /><path
           style="fill:#ffffff;fill-opacity:1;stroke:none;stroke-width:1.37953;stroke-linecap:round;stroke-linejoin:round;stroke-dasharray:none;stroke-opacity:1"
           d="m 173.47686,455.88814 c -1.91294,-0.56737 -2.02847,-0.59413 -3.15251,-0.73015 -1.00239,-0.1213 -1.37784,-0.15453 -2.07713,-0.18382 l -0.5156,-0.0216 0.33882,-0.0364 c 1.14334,-0.12294 2.51815,-0.19338 3.0936,-0.15851 0.75318,0.0456 0.79241,0.057 1.35178,0.3916 0.2693,0.16109 0.69514,0.41043 0.94631,0.55408 0.5689,0.32537 0.55806,0.31851 0.50087,0.31704 -0.0243,-6.2e-4 -0.24307,-0.0601 -0.48614,-0.13221 z"
           id="path1281"
           transform="matrix(0.26458333,0,0,0.26458333,41.7,7.8)" /><path
           style="fill:#ffffff;fill-opacity:1;stroke:none;stroke-width:1.37953;stroke-linecap:round;stroke-linejoin:round;stroke-dasharray:none;stroke-opacity:1"
           d="m 240.34549,454.86757 c 0.005,-0.004 0.21961,-0.12715 0.47743,-0.27347 0.25781,-0.14633 0.71212,-0.41204 1.00958,-0.59048 l 0.54083,-0.32443 0.20917,-0.0363 c 0.38421,-0.0667 0.75721,-0.0871 1.35321,-0.074 0.70589,0.0156 1.83015,0.0964 2.63721,0.18966 l 0.23958,0.0277 -0.29768,0.003 c -0.3504,0.003 -0.8746,0.0326 -1.36899,0.0767 -0.44578,0.0398 -1.79578,0.2055 -2.03125,0.24937 -0.23593,0.0439 -0.7234,0.17086 -1.14583,0.29829 -0.18906,0.057 -0.4375,0.12893 -0.55208,0.15977 -0.11459,0.0308 -0.39343,0.11139 -0.61967,0.17901 -0.36979,0.11054 -0.47806,0.13824 -0.45151,0.11552 z"
           id="path1282"
           transform="matrix(0.26458333,0,0,0.26458333,41.7,7.8)" /><path
           style="fill:#ffffff;fill-opacity:1;stroke:none;stroke-width:1.37953;stroke-linecap:round;stroke-linejoin:round;stroke-dasharray:none;stroke-opacity:1"
           d="m 257.75,453.92903 c -1.14611,-0.0911 -1.61284,-0.105 -4.14179,-0.12351 l -2.85013,-0.0209 0.2898,-0.16002 c 0.15939,-0.088 0.52002,-0.32774 0.80139,-0.53272 l 0.5116,-0.37268 0.50706,-0.0276 c 0.27889,-0.0152 0.8727,-0.008 1.31957,0.0148 1.62528,0.0847 2.17607,0.0528 2.94326,-0.17095 0.1581,-0.0461 0.20487,-0.0388 0.5625,0.0873 0.95944,0.3385 1.71148,0.67087 2.55674,1.12997 l 0.41667,0.22631 -0.47917,0.0258 c -0.77471,0.0417 -1.07641,0.0323 -2.4375,-0.0759 z"
           id="path1283"
           transform="matrix(0.26458333,0,0,0.26458333,41.7,7.8)" /></g></g><g
       id="g1283"
       inkscape:label="hair"
       style="display:inline"
       transform="translate(31.929799,2.9934187)"><path
         style="display:inline;fill:#000000;fill-opacity:1;stroke:none;stroke-width:0.365001;stroke-linecap:round;stroke-linejoin:round;stroke-dasharray:none;stroke-opacity:1"
         id="path1273"
         d="m 71.37286,127.79799 c -0.786808,1.54444 -1.589005,3.08112 -2.278686,4.68805 -0.06555,0.17726 -0.298474,0.71527 -0.283469,0.96592 0.0047,0.0787 0.05375,0.16768 0.118114,0.19263 0.358093,0.13878 0.730538,0.32516 1.106184,0.28186 0.143973,-0.0166 1.219714,-1.15119 1.222108,-1.15362 0.668852,-0.67242 1.288858,-1.40584 1.938669,-2.10214 0.09546,-0.10229 0.571227,-0.68466 0.820795,-0.68081 0.09719,0.002 0.155056,0.13624 0.232585,0.20436 -0.184049,-0.008 -0.430632,-0.18476 -0.552151,-0.024 -0.129124,0.17085 0.04847,0.45171 0.05722,0.67884 0.0096,0.24845 0.0036,0.4975 -0.0023,0.7461 -0.0056,0.23438 -0.07792,1.007 0.0092,1.27725 0.03763,0.11666 0.151466,0.17641 0.227199,0.26462 0.381221,0.0986 0.754634,0.33607 1.143663,0.29591 0.222585,-0.023 0.362378,-0.30445 0.535091,-0.46919 0.394023,-0.37583 0.764973,-0.79849 1.136286,-1.20333 0.159434,-0.17384 0.301874,-0.37183 0.479339,-0.52021 0.09085,-0.076 0.208481,-0.0947 0.312722,-0.14207 -0.188005,-0.0891 -0.363282,-0.30289 -0.564014,-0.26734 -0.103995,0.0184 0.06945,0.23148 0.09072,0.35117 0.02236,0.12576 0.03593,0.55759 0.09973,0.59166 0.98829,0.52774 0.781489,0.5564 1.170581,-0.17727 0.35706,-0.71554 0.681588,-1.45218 0.971925,-2.20733 0.160431,-0.41727 0.316016,-0.76303 0.346742,-1.22228 0.0097,-0.14565 -0.02411,-0.29084 -0.03617,-0.43626 -0.330575,-0.56335 -0.294162,-0.60279 -1.197697,-0.89162 -0.193244,-0.0618 -0.955008,0.36423 -1.047135,0.4162 -0.393206,0.22179 -0.986263,0.61952 -1.361712,0.86536 -0.683254,0.38733 -1.289077,1.01535 -2.02749,1.27449 -0.127356,0.0447 -0.484804,-0.079 -0.397782,0.0379 0.661204,0.88835 0.602908,-0.0686 0.63127,-0.34513 0.09696,-0.49107 0.340808,-0.92687 0.450029,-1.41269 0.03414,-0.15182 0.127982,-0.35559 0.03464,-0.46901 -0.251044,-0.30507 -0.589137,-0.53924 -0.942987,-0.6348 -0.180886,-0.0489 -1.090666,0.74362 -1.098358,0.74979 -0.623284,0.5372 -1.165553,1.17891 -1.70123,1.82657 0,0 0.666019,0.47132 0.666019,0.47132 v 0 c 0.524253,-0.65134 1.056864,-1.29422 1.686558,-1.81276 0.21221,-0.15468 0.412646,-0.33367 0.636627,-0.46403 0.144753,-0.0843 0.452113,0.0126 0.461701,-0.1752 0.01084,-0.2125 -0.250919,-0.42113 -0.432642,-0.39393 -0.130426,0.0195 0.03138,0.30927 0.0025,0.45832 -0.02303,0.11899 -0.437949,1.31767 -0.472714,1.41921 -0.149073,0.84419 -0.297154,0.776 0.744077,1.32892 0.119233,0.0633 0.263854,-0.0289 0.387072,-0.0809 0.722862,-0.30507 1.331315,-0.9003 2.016179,-1.29098 0.623048,-0.40027 1.267324,-0.88305 1.960188,-1.10927 0.147416,-0.0481 0.42623,0.10004 0.454859,-0.0747 0.03081,-0.18805 -0.237366,-0.27365 -0.383192,-0.36276 -0.08607,-0.0526 0.131736,0.16624 0.197605,0.24936 0.01988,0.13877 0.06269,0.27568 0.05965,0.41632 -0.01,0.46169 -0.157755,0.79673 -0.31494,1.21708 -0.282037,0.75422 -0.604042,1.48875 -0.987411,2.18084 -0.398023,0.64649 -0.440243,0.40001 0.288047,1.05508 0.04556,0.041 -0.07291,-0.10875 -0.08666,-0.17375 -0.02817,-0.13328 -0.02036,-0.2736 -0.03663,-0.40953 -0.09297,-0.77617 -0.0428,-0.3849 -0.953501,-1.02475 -0.49594,0.31922 -0.195269,0.0867 -0.764142,0.71776 -0.35563,0.39452 -0.749918,0.83729 -1.140559,1.18595 -0.173025,0.15444 -0.480944,0.18392 -0.541356,0.4275 -0.05402,0.2178 0.192408,0.39437 0.288613,0.59155 -0.09036,-0.0688 -0.22279,-0.094 -0.271068,-0.20623 -0.11075,-0.25749 -0.03546,-1.05731 -0.02924,-1.27716 0.0022,-0.0767 0.03355,-1.33293 -0.02148,-1.44009 -0.201619,-0.39255 -0.550388,-0.65344 -0.825581,-0.98016 -0.09019,-0.0398 -0.175277,-0.13701 -0.270577,-0.11948 -0.241235,0.0444 -0.687779,0.61187 -0.794024,0.73098 -0.634329,0.71113 -1.2513,1.44458 -1.92664,2.10463 -0.228025,0.21944 -0.447145,0.45201 -0.684081,0.65833 -0.18171,0.15822 -0.514927,0.17762 -0.569919,0.43359 -0.05095,0.23715 0.266622,0.38727 0.34482,0.61418 0.02447,0.071 -0.156076,-0.0385 -0.172011,-0.11274 -0.04571,-0.21286 0.202858,-0.83994 0.24441,-0.96342 0.659937,-1.62043 1.435508,-3.17681 2.308942,-4.65495 z" /><path
         style="display:inline;fill:#000000;fill-opacity:1;stroke:none;stroke-width:0.365001;stroke-linecap:round;stroke-linejoin:round;stroke-dasharray:none;stroke-opacity:1"
         id="path1274"
         d="m 116.37493,130.5042 c 0.031,0.008 0.063,0.0109 0.093,0.0254 0.0418,0.0201 0.1592,0.11007 0.12101,0.0777 -0.13643,-0.11567 -0.26686,-0.25674 -0.4162,-0.32797 -0.0721,-0.0344 0.11993,0.13866 0.17668,0.21373 0.0611,0.0808 0.44469,0.6349 0.47954,0.68504 0.58165,0.79083 1.04217,1.74925 1.57637,2.60699 0.22665,0.1625 0.43039,0.44429 0.67994,0.48751 0.0814,0.0141 0.0551,-0.23897 0.0482,-0.36139 -0.0128,-0.22936 -0.0655,-0.44993 -0.10592,-0.67197 -0.027,-0.14829 -0.28839,-1.40441 -0.31336,-1.59541 -0.0201,-0.15352 -0.0105,-0.31249 -0.0157,-0.46874 0.39734,0.0325 -0.0849,-0.16511 -0.0643,-0.12315 0.12544,0.25506 0.32108,0.41245 0.47567,0.62856 0.46001,0.64312 0.89405,1.3308 1.3425,1.99205 0.26092,0.24952 0.6822,0.69816 0.97978,0.61128 0.12195,-0.0356 0.003,-0.37496 -0.0191,-0.55836 -0.0983,-0.81596 -0.35554,-1.70464 -0.54254,-2.48623 -0.0198,-0.227 -0.37727,-1.29687 -0.24606,-1.55575 0.0362,-0.0715 0.41858,0.22809 0.48245,0.2715 0.0223,0.0162 0.05,0.0757 0.067,0.0486 0.0269,-0.043 0.0295,-0.12265 0.0128,-0.17604 -0.0232,-0.0739 -0.0792,-0.11216 -0.12019,-0.16591 -0.0635,-0.0832 -0.12824,-0.16416 -0.1931,-0.2449 -0.24691,-0.30731 -0.27002,-0.32998 -0.53277,-0.63945 -0.75226,-0.87643 -1.58066,-1.58085 -2.40641,-2.28539 -0.26964,-0.14924 -0.91839,-0.76885 -1.20664,-0.50597 -0.0518,0.0472 -0.0799,0.13661 -0.11993,0.20492 -0.0251,0.10173 -0.0581,0.19982 -0.0752,0.3052 -0.12094,0.7449 -0.0758,1.64979 -0.0996,2.41911 -0.0259,0.57841 -0.086,1.15117 -0.32602,1.61826 0,0 0.55776,0.49603 0.55776,0.49603 v 0 c 0.23679,-0.49438 0.30238,-1.08217 0.32763,-1.68201 0.0255,-0.88144 -0.0298,-1.81059 0.16953,-2.65253 0.0325,-0.0509 0.0555,-0.12076 0.0974,-0.15264 0.25112,-0.19122 0.92763,0.39299 1.16396,0.54117 -0.0812,-0.0739 -0.32822,-0.28636 -0.24364,-0.22157 0.56196,0.4305 1.06289,1.03459 1.58107,1.56706 0.2395,0.28247 0.47237,0.57201 0.70498,0.86677 0.0594,0.0753 0.1525,0.24071 0.19232,0.0936 0.008,-0.0279 -0.0371,-0.0229 -0.0557,-0.0344 -0.11351,-0.0736 -0.44382,-0.38514 -0.54883,-0.1144 -0.12912,0.33288 0.25025,1.31879 0.27612,1.61982 0.12437,0.51486 0.29195,1.18538 0.396,1.71022 0.0481,0.24242 0.0897,0.48788 0.12539,0.73504 0.0207,0.14349 -0.0129,0.31585 0.0438,0.43554 0.1044,0.22045 0.31582,0.29711 0.41164,0.52615 0.0601,0.14375 -0.19725,-0.16631 -0.29588,-0.24946 -0.57557,-0.83215 -0.24298,-0.3444 -0.86168,-1.27042 -0.56823,-0.85045 -1.07218,-1.69257 -1.84689,-2.15278 -0.0609,-0.0362 -0.11052,0.10536 -0.16579,0.15804 0.0103,0.16723 0.008,0.33749 0.0311,0.50169 0.0769,0.53757 0.21509,1.05165 0.30611,1.58423 0.0352,0.20597 0.0691,0.41304 0.0907,0.62318 0.008,0.0757 -0.0376,0.17354 -0.003,0.22979 0.1187,0.19259 0.28446,0.30514 0.42669,0.45772 -0.54724,-0.84496 -1.00149,-1.81471 -1.58096,-2.61401 -0.4401,-0.6436 -0.92106,-1.48231 -1.56436,-1.61167 z" /><path
         style="display:inline;fill:#ffffff;fill-opacity:1;stroke:none;stroke-width:1.37953;stroke-linecap:round;stroke-linejoin:round;stroke-dasharray:none;stroke-opacity:1"
         d="m 123.81191,468.21837 0.0214,-4.3017 -0.41565,-0.58282 c -0.22861,-0.32055 -0.39524,-0.67171 -0.3703,-0.78034 0.0249,-0.10863 -0.14698,-0.33387 -0.38208,-0.50051 -1.58418,-1.12298 -1.62424,-1.3347 -0.10151,-0.53651 l 1.01857,0.53393 1.12549,-0.47551 c 0.61902,-0.26154 2.123,-1.15413 3.34219,-1.98355 7.93247,-5.39648 10.66382,-6.98558 12.03177,-7.00007 l 0.75152,-0.008 -0.0356,1.11213 c -0.0393,1.22927 -0.30313,2.10929 -1.6634,5.54856 -0.96891,2.44976 -2.85564,6.42265 -3.05012,6.42265 -0.0629,0 -0.73833,-0.375 -1.50093,-0.83334 -0.76259,-0.45833 -1.46831,-0.83026 -1.56827,-0.8265 -0.38457,0.0144 -1.46331,0.96838 -2.67896,2.36903 -2.23405,2.57401 -4.29081,4.63273 -5.07397,5.07879 -0.41917,0.23874 -0.92177,0.57612 -1.11688,0.74974 l -0.35476,0.31567 z"
         id="path1275"
         transform="matrix(0.26458333,0,0,0.26458333,41.7,7.8)" /><path
         style="display:inline;fill:#ffffff;fill-opacity:1;stroke:none;stroke-width:1.37953;stroke-linecap:round;stroke-linejoin:round;stroke-dasharray:none;stroke-opacity:1"
         d="m 296.34205,471.50248 c -2.67215,-4.07018 -5.96195,-7.64043 -7.04027,-7.64043 -0.57219,0 -0.64812,0.4975 -0.41368,2.71057 0.15792,1.49082 0.42645,3.45304 0.59673,4.3605 0.26534,1.41407 -0.0908,1.05032 -2.49167,-2.5447 -2.71194,-4.06083 -2.78986,-4.26379 -2.4433,-6.36396 0.19688,-1.19314 0.37062,-4.11776 0.38607,-6.49915 0.0155,-2.3814 0.24016,-4.88756 0.49934,-5.56926 l 0.47124,-1.23946 1.93411,1.08703 c 1.06376,0.59787 3.3928,2.62266 5.17565,4.49953 2.77934,2.92592 3.20567,3.59863 2.99002,4.71793 -0.13833,0.71799 0.37286,3.95709 1.13597,7.19799 1.54669,6.56869 2.02016,8.95669 1.77585,8.95669 -0.0905,0 -1.24969,-1.65298 -2.57606,-3.67328 z"
         id="path1276"
         transform="matrix(0.26458333,0,0,0.26458333,41.7,7.8)" /></g></g></svg>
