<?xml version="1.0" encoding="UTF-8" standalone="no"?>
<!-- Created with Inkscape (http://www.inkscape.org/) -->

<svg
   width="37.614704mm"
   height="69.628899mm"
   viewBox="0 0 37.614704 69.628899"
   version="1.1"
   id="svg1"
   inkscape:version="1.3.2 (091e20e, 2023-11-25, custom)"
   sodipodi:docname="mage-idle-0.svg"
   xml:space="preserve"
   inkscape:export-filename="..\separated\bottom-body-cloths.svg"
   inkscape:export-xdpi="96"
   inkscape:export-ydpi="96"
   xmlns:inkscape="http://www.inkscape.org/namespaces/inkscape"
   xmlns:sodipodi="http://sodipodi.sourceforge.net/DTD/sodipodi-0.dtd"
   xmlns="http://www.w3.org/2000/svg"
   xmlns:svg="http://www.w3.org/2000/svg"><sodipodi:namedview
     id="namedview1"
     pagecolor="#ffffff"
     bordercolor="#000000"
     borderopacity="0.25"
     inkscape:showpageshadow="2"
     inkscape:pageopacity="0.0"
     inkscape:pagecheckerboard="0"
     inkscape:deskcolor="#d1d1d1"
     inkscape:document-units="mm"
     inkscape:export-bgcolor="#ffffff00"
     inkscape:zoom="0.53033009"
     inkscape:cx="277.18586"
     inkscape:cy="500.6316"
     inkscape:window-width="1304"
     inkscape:window-height="745"
     inkscape:window-x="1358"
     inkscape:window-y="-8"
     inkscape:window-maximized="1"
     inkscape:current-layer="g1928" /><defs
     id="defs1"><filter
       style="color-interpolation-filters:sRGB"
       inkscape:label="Cutout Glow"
       id="filter1858"
       x="-0.61242649"
       y="-0.21345689"
       width="2.333117"
       height="1.4725262"
       inkscape:menu-tooltip="In and out glow with a possible offset and colorizable flood"
       inkscape:menu="Shadows and Glows"><feFlood
         result="flood"
         in="SourceGraphic"
         flood-opacity="0.901961"
         flood-color="rgb(0,0,0)"
         id="feFlood1857" /><feGaussianBlur
         result="blur"
         in="SourceGraphic"
         stdDeviation="7.294833"
         id="feGaussianBlur1857" /><feOffset
         result="offset"
         in="blur"
         dx="1.367781"
         dy="2.279635"
         id="feOffset1857" /><feComposite
         result="comp1"
         operator="in"
         in="flood"
         in2="offset"
         id="feComposite1857" /><feComposite
         result="fbSourceGraphic"
         operator="atop"
         in="comp1"
         in2="SourceGraphic"
         id="feComposite1858" /><feColorMatrix
         result="fbSourceGraphicAlpha"
         in="fbSourceGraphic"
         values="0 0 0 -1 0 0 0 0 -1 0 0 0 0 -1 0 0 0 0 1 0"
         id="feColorMatrix1861" /><feOffset
         id="feOffset1861"
         dy="3"
         dx="3"
         in="fbSourceGraphic" /><feGaussianBlur
         id="feGaussianBlur1861"
         stdDeviation="3"
         result="blur" /><feFlood
         id="feFlood1861"
         flood-color="rgb(0,0,0)"
         flood-opacity="1"
         result="flood" /><feComposite
         id="feComposite1861"
         in="flood"
         in2="fbSourceGraphic"
         operator="in"
         result="composite" /><feBlend
         id="feBlend1861"
         in="blur"
         in2="composite"
         mode="normal" /></filter></defs><g
     inkscape:groupmode="layer"
     id="layer4"
     inkscape:label="mage"
     transform="translate(-78.602626,-162.62918)"
     inkscape:highlight-color="#7d39ff"><g
       id="g1314"
       inkscape:label="body"
       style="display:inline"
       transform="translate(31.929799,2.9934187)"><g
         id="g1374"
         inkscape:label="arm left"
         style="display:inline"><path
           id="path43"
           style="display:inline;fill:#116eff;fill-opacity:1;stroke-width:0.365001;stroke-linecap:round;stroke-linejoin:round"
           inkscape:label="left arm color clothes"
           d="m 106.89128,163.82312 c -0.55796,0.19373 -1.08782,0.46797 -1.61902,0.72605 -0.9314,0.64954 -1.81187,1.36255 -2.68201,2.09083 -0.53066,0.43466 -1.0065,0.91638 -1.4118,1.46864 -0.30457,0.45777 -0.46908,0.98593 -0.70331,1.4795 -0.28652,0.54363 -0.493506,1.12051 -0.716754,1.69085 -0.254653,0.52471 -0.465182,1.06808 -0.644922,1.62264 -0.173791,0.5246 -0.431638,1.01179 -0.613399,1.53324 -0.164042,0.54694 -0.292444,1.10418 -0.423747,1.65985 -0.149722,0.83433 -0.403042,1.64417 -0.65474,2.45205 -0.04572,0.15842 -0.09776,0.31533 -0.137459,0.47542 -0.04693,0.18924 -0.0722,0.38368 -0.122474,0.57206 -0.167596,0.62804 -0.4527,1.2205 -0.737422,1.80195 -0.235178,0.64838 -0.438624,1.30993 -0.54622,1.99161 -0.09068,0.81244 -0.34351,1.59263 -0.648539,2.34715 -0.174453,0.602 -0.414951,1.1818 -0.668693,1.75389 -0.200977,0.45792 -0.42255,0.90692 -0.674378,1.33894 -0.173444,0.39991 -0.418816,0.75421 -0.649573,1.12086 -0.233215,0.34221 -0.398228,0.72368 -0.505395,1.12242 -0.04165,0.20502 -0.02404,0.10416 -0.05323,0.30437 l 5.157308,2.67942 c 7.93e-4,-0.17362 -9.86e-4,-0.0858 0.0052,-0.26251 0.01249,-0.15249 0.03903,-0.30006 0.07803,-0.44339 l 1.528072,0.709 c 0.03342,0.38648 0.0388,0.80241 -0.106453,1.16841 l 2.928508,1.4919 c -0.0376,0.0318 -0.0732,0.066 -0.11111,0.0971 -0.30543,0.32575 -0.62002,0.63353 -1.02577,0.83354 l 2.53783,1.55494 c 0.13094,0.62285 0.1814,1.25203 0.12402,1.85312 -0.0545,0.57051 -0.0491,0.597 0.10852,0.51263 0.0914,-0.0489 0.54095,-0.47941 0.9989,-0.95653 0.14127,-0.14718 0.26376,-0.2784 0.39171,-0.41445 l 0.8816,0.54054 c 0.1995,-0.37736 0.50741,-0.67738 0.80977,-0.97203 0.0603,-0.0609 0.12251,-0.11965 0.18087,-0.18242 0.21081,-0.22672 0.19488,-0.23901 0.41961,-0.46147 0.22442,-0.22215 0.47232,-0.41896 0.70073,-0.63717 0.26025,-0.23464 0.48392,-0.50634 0.71056,-0.77257 0.0435,-0.0511 0.0965,-0.095 0.13125,-0.15244 0.0522,-0.0864 0.0844,-0.18325 0.12661,-0.27492 0.0667,-0.11037 0.12736,-0.22328 0.1912,-0.33486 -0.004,0.17474 -0.0127,0.34966 -0.0202,0.52451 0.0967,-0.18799 0.2182,-0.34767 0.3607,-0.36277 0.0214,-0.002 0.043,-0.003 0.0646,-0.004 10e-4,-0.005 0.003,-0.009 0.005,-0.0134 0.0589,-0.17901 0.11664,-0.35838 0.17725,-0.53691 -0.0179,-1.09653 -0.0213,-2.19303 0.031,-3.28973 5e-5,-0.002 -5e-5,-0.003 0,-0.005 0.3229,-0.82787 0.61029,-1.67027 0.98547,-2.47633 0.28964,-0.66432 0.55715,-1.33799 0.77153,-2.03089 0.18963,-0.61271 0.36904,-1.22862 0.53227,-1.84898 0.1679,-0.59946 0.27072,-1.21448 0.44906,-1.81126 0.13706,-0.55836 0.20558,-1.13155 0.33022,-1.69292 0.15117,-0.68767 0.32751,-1.36886 0.478,-2.05672 0.15826,-0.63759 0.37037,-1.25703 0.60565,-1.87017 0.0866,-0.21655 0.14751,-0.35742 0.21808,-0.57722 0.10264,-0.31973 0.15328,-0.65236 0.24649,-0.97462 0.10598,-0.45137 0.23892,-0.89878 0.27595,-1.36271 0.10759,-0.77635 0.2417,-1.55022 0.29094,-2.33319 0.007,-0.40484 -0.003,-0.81079 0.009,-1.21543 0.003,-0.0902 0.0904,-0.21845 0.0165,-0.27027 -0.0118,-0.008 -0.0189,-0.0146 -0.0305,-0.0227 0.23369,-0.14135 0.0988,-0.17249 -0.4532,-0.33331 -0.0438,-0.0334 -0.0883,-0.0671 -0.12867,-0.0987 0.036,-0.11653 0.0723,-0.23315 0.10955,-0.34933 0.16667,0.0891 0.33402,0.17742 0.49764,0.27078 0.0177,0.0101 -0.0303,-0.0303 -0.0351,-0.0501 -0.007,-0.0271 -0.008,-0.0709 -0.0124,-0.10593 0.008,0.002 0.016,0.006 0.0243,0.008 0.10299,0.0264 -0.0257,-0.21104 -0.0367,-0.31678 -0.006,-0.0565 -0.0106,-0.11299 -0.016,-0.1695 10e-4,-0.6328 0.0193,-1.26532 0.0253,-1.89807 -0.0118,-0.34991 -0.0183,-0.70489 -0.0785,-1.05058 0.004,-0.26346 -0.003,-0.52773 0.0279,-0.7891 0.0721,-0.18421 0.16461,-0.34896 0.16175,-0.55087 -8e-4,-0.0227 0.0177,-0.057 -0.002,-0.0682 -0.41203,-0.23369 -0.81754,-0.48574 -1.24075,-0.69814 -0.19882,-0.2426 -0.39149,-0.49038 -0.60772,-0.71676 -0.72542,-0.73884 -1.38864,-1.39743 -2.51509,-1.67741 -0.0522,0.0198 -0.11195,0.0265 -0.1571,0.0594 -0.074,0.0539 -0.0956,0.1665 -0.0951,0.28422 -0.1679,-0.16078 -0.2154,-0.17635 -0.37104,-0.0134 l -0.0207,-0.0139 c -0.093,0.11439 -0.19636,0.21693 -0.30489,0.31316 l -0.21549,-0.13798 c -0.0844,0.15329 -0.1551,0.31199 -0.22273,0.47181 -0.16629,0.11 -0.33881,0.21222 -0.51263,0.31109 z m 5.56504,1.38234 c 0.0113,-0.0119 0.0324,0.0104 0.0677,0.091 0.30754,0.24245 0.24319,0.19549 -0.0739,-0.002 -0.001,-0.0395 -0.003,-0.0802 0.006,-0.0894 z m -0.53692,0.35708 c 0.0467,0.14178 0.0686,0.21299 0.0646,0.2434 -0.036,-0.0234 -0.0837,-0.0563 -0.12144,-0.0811 0.007,-0.0572 0.0233,-0.11241 0.0568,-0.16227 z"
           transform="translate(-31.929799,-2.993418)" /><path
           id="path1326"
           style="display:inline;fill:#000000;fill-opacity:1;stroke:none;stroke-width:0.365001;stroke-linecap:round;stroke-linejoin:round;stroke-dasharray:none;stroke-opacity:1"
           d="m 73.481989,159.63597 v 5.2e-4 c -0.311936,-0.004 -0.62369,0.008 -0.93431,0.0444 -0.838038,0.0987 -1.093437,0.23201 -1.894975,0.50178 -1.975877,0.93524 -3.267991,2.6638 -4.336686,4.50515 -1.094699,1.98637 -2.015474,4.07118 -2.864425,6.17327 -0.799527,1.9351 -1.500374,3.9105 -2.348693,5.82548 -0.350517,0.79125 -0.822777,1.75776 -1.200961,2.543 -0.168008,0.35298 -0.329159,0.70912 -0.503845,1.05885 -1.098866,2.19997 0.123353,-0.3521 -0.916223,1.76372 -0.516579,1.05133 -0.971245,2.13343 -1.465027,3.19567 -0.615114,1.37784 -1.30967,2.71557 -2.02675,4.04213 l 4.602303,2.62619 c 0.656801,-1.3566 1.315736,-2.71331 2.054139,-4.02818 1.083167,-1.95392 2.140652,-3.92939 2.906799,-6.03425 1.182705,-2.79397 2.31405,-5.60847 3.531051,-8.3876 0.950747,-2.02993 1.981566,-4.02354 2.982246,-6.02858 0.85105,-1.40626 1.782786,-2.85849 3.237012,-3.7238 0.286327,-0.17037 0.605016,-0.27929 0.907438,-0.4191 0.308923,-0.0822 0.612871,-0.18543 0.926559,-0.24701 1.508857,-0.29624 3.06105,-0.013 4.560445,0.19224 0.772262,0.16568 1.03859,0.19825 1.773535,0.447 0.0222,0.008 0.06874,0.0293 0.09715,0.0403 9.79e-4,0.0367 0.0022,0.0734 0.0031,0.11007 0.01,0.42297 0.01774,0.84608 0.01654,1.26917 0.0115,0.57257 0.02559,1.14506 0.01499,1.71772 -0.007,0.71336 -0.01344,1.4275 -0.05374,2.13993 -0.0742,1.00476 -0.207754,2.00457 -0.392224,2.99516 -0.13311,0.66358 -0.218654,1.33482 -0.357084,1.9973 -0.12683,0.59334 -0.20026,1.19399 -0.26355,1.7973 -0.0689,0.67712 -0.170492,1.35281 -0.189652,2.03347 -0.0374,0.69792 -0.09328,1.39606 -0.258899,2.07739 -0.1508,0.55837 -0.34294,1.10198 -0.51108,1.6552 -0.22002,0.65698 -0.437604,1.31592 -0.604614,1.98851 -0.25438,0.87353 -0.472394,1.75549 -0.655774,2.64686 -0.0434,0.18049 -0.0816,0.36255 -0.130742,0.54157 -0.285689,1.0412 -0.741693,2.03047 -1.251603,2.97863 -0.0671,0.11419 -0.49399,0.83896 -0.58446,1.00046 -0.15063,0.26889 -0.274312,0.54746 -0.413412,0.82165 -0.0262,0.0518 -0.05697,0.1018 -0.08527,0.15245 l 0.03927,0.0217 c -0.4247,0.88842 -0.716979,1.82855 -1.205611,2.69183 -0.703257,1.22885 -1.677528,2.2816 -2.673222,3.27887 -0.825767,0.9626 -1.866067,1.67413 -2.951241,2.31045 -0.485374,0.26407 -0.977623,0.5145 -1.463476,0.77773 l 1.623673,1.06144 c 0.490029,-0.2626 0.987324,-0.51134 1.472779,-0.78239 1.084927,-0.66168 2.124117,-1.38985 2.954341,-2.36574 1.001878,-1.01527 2.007171,-2.06601 2.709396,-3.31711 0.561868,-0.99355 0.863853,-2.09516 1.454691,-3.07113 l -0.119372,-0.0677 c 0.185842,-0.57716 0.446266,-1.13106 0.696081,-1.68155 0.48536,-0.96906 0.95995,-1.95494 1.28571,-2.99155 0.0562,-0.1787 0.101615,-0.36076 0.152445,-0.54105 0.22532,-0.87283 0.456077,-1.74274 0.720886,-2.60449 0.20922,-0.65561 0.410624,-1.31412 0.633553,-1.96526 0.17515,-0.55481 0.406163,-1.08913 0.539502,-1.65623 0.12433,-0.70215 0.198294,-1.41218 0.245463,-2.12338 0.0454,-0.67665 0.112886,-1.35201 0.186036,-2.02624 0.0622,-0.41697 0.09986,-0.83904 0.177767,-1.25367 0.0113,-0.0602 0.102592,-0.43847 0.117822,-0.50177 0.12171,-0.67808 0.189727,-1.36448 0.286287,-2.04639 0.14865,-1.0049 0.255276,-2.01463 0.366386,-3.02411 0.0929,-0.69994 0.133137,-1.40351 0.144177,-2.10891 -0.002,-0.56805 0.0088,-1.13632 0.01809,-1.70429 -0.003,-0.41792 0.004,-0.83586 0.01344,-1.25367 0.0012,-0.0393 0.002,-0.0785 0.0031,-0.11782 0.0015,9e-4 0.0031,0.002 0.0046,0.003 0.0012,-0.0182 0.0018,-0.0365 0.0026,-0.0548 l -0.0057,-0.004 c 0.0022,-0.0777 0.0048,-0.15535 0.0067,-0.23306 l -0.819588,-0.41755 -3.393075,-2.71456 c -0.01186,-0.005 -0.02388,-0.0101 -0.03566,-0.0155 -0.06016,-0.0316 -0.116635,-0.0695 -0.173632,-0.10645 -0.0031,-0.002 -0.0062,-0.005 -0.0093,-0.007 -0.358656,-0.1947 -0.717564,-0.38861 -1.079004,-0.57826 -0.535289,-0.28088 -1.896159,-0.46095 -2.497522,-0.55449 -0.923599,-0.0955 -1.861957,-0.25566 -2.797762,-0.2682 z m 5.442562,1.81643 c -0.119123,-0.0709 0.24657,0.12606 0.370003,0.18913 0.770119,0.45519 1.540335,0.91011 2.310453,1.3653 -0.892676,-0.51947 -1.792914,-1.02635 -2.680456,-1.55443 z m 3.472139,2.02261 c 0.05598,0.0331 0.111971,0.0661 0.167949,0.0992 2.9e-5,0.001 -2.9e-5,0.002 0,0.003 -0.05618,-0.0338 -0.111747,-0.0686 -0.167949,-0.10232 z"
           inkscape:label="lines"
           transform="translate(1.0208333e-6)" /><g
           id="g1378"
           inkscape:label="sleeve"><path
             style="display:inline;fill:#000000;fill-opacity:1;stroke-width:0.365001;stroke-linecap:round;stroke-linejoin:round"
             id="path72"
             d="m 58.768904,190.28853 c -0.05365,0.003 -0.100332,0.002 -0.151568,0.0268 -0.17879,0.0858 -0.38852,0.2962 -0.539488,0.42509 -0.326859,0.32954 -0.630941,0.68159 -0.913923,1.04931 -0.272304,0.33967 -0.344746,0.75557 -0.403596,1.17402 -0.03595,0.31091 -0.08589,0.61985 -0.115924,0.93144 -0.0089,0.25772 -0.01703,0.5152 -0.0099,0.77302 -0.01142,0.31706 -0.04458,0.63284 -0.06623,0.9494 -0.0096,0.20918 -0.05954,0.41645 -0.06395,0.62592 -0.02041,0.96964 0.03958,-0.4643 -0.0069,0.54056 -0.01396,0.0816 -0.0205,0.16481 -0.04189,0.24478 -0.03804,0.14221 -0.10364,0.23169 -0.131309,0.20573 -0.026,-0.0244 -0.03479,-0.12248 -0.0027,-0.10692 1.646779,0.79835 1.820297,1.49698 1.558005,0.68587 -0.01626,-0.11881 -0.04058,-0.2368 -0.04877,-0.35644 -0.03029,-0.44257 -0.0069,-0.72045 0.03569,-1.17327 0.06176,-0.65721 0.175202,-1.30098 0.296725,-1.94902 0.02143,-0.10415 0.133319,-0.68567 0.188154,-0.83116 0.01698,-0.045 0.128691,-0.0931 0.08625,-0.11581 -0.538792,-0.28832 -1.078356,-0.62311 -1.678845,-0.73643 -0.146022,-0.0275 0.07064,0.28929 0.09003,0.43662 0.02913,0.22142 0.03684,0.44513 0.05526,0.66769 0.06463,1.53315 -0.03122,3.06637 -0.09165,4.59803 -0.04011,1.16256 -0.08969,2.32529 -0.08684,3.48871 -0.03724,1.37959 0.192717,2.74134 0.441321,4.09252 0.321961,1.60955 0.455397,3.24433 0.513704,4.88188 0.0035,0.0865 0.03327,0.74098 0.02978,0.89296 -0.0011,0.0455 -0.06018,0.11409 -0.01982,0.13517 0.564472,0.29488 1.124949,0.6426 1.749274,0.7683 0.13816,0.0278 -0.02032,-0.28114 -0.02853,-0.42184 -0.01196,-0.20515 -0.02132,-0.41044 -0.03199,-0.61566 -0.0588,-1.52062 -0.120616,-3.04093 -0.104925,-4.56292 0.02422,-0.65369 0.02076,-1.31261 -0.126664,-1.95219 -0.03088,-0.21221 -0.149371,-0.44 -0.157241,-0.65578 -7.68e-4,-0.021 0.04847,-0.0488 0.02876,-0.0561 -0.574493,-0.21126 -1.132113,-0.56105 -1.744064,-0.5747 -0.181468,-0.004 0.05727,0.35848 0.08591,0.53772 0.2141,1.61933 0.198588,3.25475 0.167642,4.88399 -0.02488,1.26265 0.02668,2.52487 0.02277,3.78765 0.0062,0.95794 -0.07705,1.91218 -0.119382,2.86821 -0.05535,0.78029 -0.07001,1.56239 -0.110132,2.3435 -0.03128,0.47415 -0.04315,0.94826 -0.113458,1.41855 -0.02891,0.13932 -0.06056,0.32724 -0.187265,0.42066 -0.06738,0.0497 -0.187444,0.007 -0.257186,-0.008 -0.277038,-0.0721 -0.383078,0.11112 -0.442753,0.34859 -0.005,0.25517 -0.06492,0.58382 -0.0338,0.83418 0.0063,0.0505 0.02443,0.0988 0.03664,0.14823 0.02341,0.0381 0.04223,0.0795 0.07022,0.11434 0.0254,0.0317 0.05346,0.0632 0.08857,0.0836 1.06305,0.6168 1.245701,0.99116 2.101731,1.02878 0.08704,0.02 0.477108,-0.0299 0.528084,-0.005 0.03345,0.0167 0.04652,0.0585 0.06978,0.0877 -0.521482,-0.29614 -1.034241,-0.6082 -1.564444,-0.88842 -0.04211,-0.0223 0.06446,0.0706 0.09136,0.10986 0.123619,0.18054 0.169214,0.39313 0.207378,0.60426 0.03248,0.252 0.02358,0.50421 0.09795,0.74911 0.571605,0.34162 1.119159,0.72715 1.714817,1.02485 0.04597,0.023 0.0751,-0.0728 0.09866,-0.1185 0.09356,-0.18141 0.06458,-0.6994 0.06875,-0.90904 0.0046,-0.3473 0.0529,-0.75632 -0.152874,-1.06324 -0.03247,-0.0484 -0.07629,-0.0882 -0.114432,-0.1323 -0.594322,-0.34633 -1.182127,-0.7041 -1.782965,-1.03901 -0.152219,-0.0849 -0.497159,-0.10861 -0.628219,0.0322 -0.03754,0.0403 -0.04785,0.0993 -0.07177,0.14891 0.591364,0.34821 1.151305,0.75636 1.774091,1.04463 0.0789,0.0365 0.156945,-0.075 0.234055,-0.11512 0.459176,-0.23919 0.247827,-0.14688 0.761415,-0.40756 0.349684,-0.1775 0.568055,-0.27359 0.922973,-0.43651 0.366469,-0.1846 0.734401,-0.36863 1.085969,-0.58092 0.207933,-0.12556 0.342916,-0.20418 0.480716,-0.40002 0.009,-0.039 0.02875,-0.077 0.02708,-0.11697 -0.0019,-0.0434 -1.95e-4,-0.1021 -0.03719,-0.12483 -0.578246,-0.35524 -1.167087,-0.6965 -1.778645,-0.99072 -0.06993,-0.0336 -0.433015,0.26793 -0.475054,0.30314 -0.206724,0.22101 -0.416052,0.43989 -0.619779,0.66368 -0.159715,0.17544 -0.202513,0.24556 -0.379645,0.39639 -0.06376,0.0543 -0.133752,0.10082 -0.200628,0.15123 -0.231592,0.13374 -0.499348,0.2989 -0.780547,0.27184 -0.132449,-0.0128 -0.182888,-0.0528 -0.295227,-0.11212 2.816788,1.56982 1.608041,1.11814 1.224193,0.53037 -0.20112,-0.30797 -0.337708,-0.65288 -0.485324,-0.98788 -0.0547,-0.13803 -0.1114,-0.27529 -0.164098,-0.41411 -0.09669,-0.2547 -0.187732,-0.51152 -0.283341,-0.76663 -0.09053,-0.24157 -0.176441,-0.47613 -0.233819,-0.72746 0.452342,0.46577 -0.296384,-0.31119 -1.663192,-0.6826 -0.101391,-0.0275 0.09275,0.1886 0.135824,0.28444 0.142484,0.31697 0.274461,0.63837 0.418862,0.95463 0.06919,0.14142 0.15966,0.33581 0.243289,0.47363 0.02691,0.0444 0.169787,0.25838 0.227842,0.29453 1.734232,1.08009 1.093204,1.07243 1.946971,1.04033 0.06425,-0.0204 0.131477,-0.0331 0.192749,-0.0612 0.260697,-0.11957 0.490942,-0.32032 0.728244,-0.47758 0.104926,-0.0695 0.41039,-0.25719 0.522418,-0.32642 0.315039,-0.22987 0.711872,-0.27634 1.04613,-0.45913 0.377569,-0.30981 0.775894,-0.60958 1.057072,-1.01724 0.265927,-0.38554 0.430093,-0.78622 0.628724,-1.20924 0.556903,-1.23348 0.951579,-2.5286 1.3868,-3.80724 0.01204,-0.0475 0.0795,-0.11971 0.0361,-0.14239 -0.585964,-0.3064 -1.17167,-0.65791 -1.819545,-0.79016 -0.1373,-0.028 -0.118517,0.25407 -0.171971,0.38361 -0.245073,0.59391 -0.458031,1.20152 -0.670007,1.80772 -0.167658,0.47372 -0.322993,0.95197 -0.46178,1.43498 -0.0672,0.23388 -0.118298,0.47144 -0.189973,0.70382 0.566192,0.33117 1.090591,0.74734 1.69858,0.99351 0.08941,0.0362 0.04279,-0.18862 0.05226,-0.28461 0.01154,-0.11691 0.0087,-0.2348 0.01053,-0.35225 0.01045,-0.66897 0.0011,-1.33864 -0.0027,-2.0076 0.01013,-1.35849 0.111054,-2.71617 0.309079,-4.06023 0.085,-0.57693 0.18901,-1.15091 0.283358,-1.72639 0.289017,-1.72719 0.61409,-3.44762 0.990698,-5.15781 0.16924,-0.66092 0.284958,-1.14489 0.480904,-1.79182 0.06748,-0.22279 0.131712,-0.44729 0.218363,-0.66335 0.05244,-0.13074 0.101714,-0.27033 0.197514,-0.37361 0.03213,-0.0346 0.185113,0.0263 0.141504,0.008 -0.522242,-0.21771 -1.056126,-0.40636 -1.58419,-0.60954 0.02156,0.28697 0.06828,0.57316 0.0647,0.86092 -0.01008,0.80943 -0.171839,1.95101 -0.316923,2.72172 -0.235185,1.24935 -0.483457,2.16921 -0.850305,3.38709 -0.153805,0.51061 -0.327466,1.01504 -0.491201,1.52255 -0.248904,0.70413 -0.429533,1.36161 -0.80345,2.00262 -0.05192,0.089 -0.294904,0.17302 -0.208118,0.22857 0.51308,0.32838 1.073234,0.69119 1.681945,0.71471 0.216252,0.008 0.0063,-0.43335 0.02873,-0.64859 0.03594,-0.34469 0.09747,-0.68623 0.146204,-1.02934 0.496771,-2.47455 1.336831,-4.86321 2.209948,-7.22586 0.412467,-0.99114 0.721122,-2.0183 1.045715,-3.0396 0.177115,-0.62577 0.435599,-1.21897 0.719069,-1.80244 0.240069,-0.52553 0.528232,-1.028 0.754898,-1.55944 0.0951,-0.25651 0.237757,-0.50228 0.293989,-0.7726 0.03015,-0.14494 0.03315,-0.28291 0.04253,-0.4304 7.94e-4,-0.45727 0.0576,-0.9178 -0.0021,-1.37274 -0.06989,-0.29415 -0.278352,-0.50731 -0.495456,-0.70349 -0.203755,-0.18285 -0.435326,-0.327 -0.60766,-0.54155 -0.131035,-0.16547 -0.19294,-0.36988 -0.292891,-0.55236 -0.07105,-0.12971 -0.09094,-0.14239 -0.184568,-0.25381 -0.659194,-0.58238 -1.449459,-1.16308 -2.322108,-1.30403 -0.241112,-0.05 -0.452848,0.0801 -0.662091,0.18043 -0.206576,0.099 -0.148883,0.072 -0.357843,0.15612 -0.194445,0.0557 -0.399127,0.12664 -0.603991,0.13108 -0.203441,0.004 -0.405191,-0.0726 -0.597374,-0.12809 -0.288261,-0.10191 -0.537837,-0.27925 -0.813003,-0.40994 -0.33591,-0.0817 -0.673193,-0.15213 -1.008846,-0.23577 -0.424958,-0.10891 -0.849289,-0.21118 -1.282671,-0.2802 -0.05552,-0.0138 -0.215854,-0.0706 -0.166576,-0.0415 0.537863,0.31754 1.118041,0.56396 1.637919,0.91017 0.04594,0.0306 -0.05862,0.11952 -0.02545,0.16364 0.02738,0.0364 0.09035,-0.0122 0.135681,-0.017 0.199358,-0.0208 0.213894,-0.0186 0.422365,-0.0293 0.378674,-0.009 0.757597,-0.007 1.136306,-7.9e-4 0.225414,0.004 0.450826,0.0102 0.676283,0.008 0.322331,-0.008 0.644702,-0.0106 0.967078,-0.0161 0.411165,0.007 0.822206,-7.9e-4 1.233376,-7.9e-4 0.187762,0.004 0.384882,-0.004 0.566958,0.0531 0.05112,0.0161 0.100041,0.0393 0.146764,0.0656 0.04244,0.0238 0.16201,0.10764 0.119502,0.0839 -0.51866,-0.28935 -1.032389,-0.58745 -1.548583,-0.88117 0.01828,0.022 0.04315,0.0399 0.05481,0.0659 0.09439,0.21131 -0.370123,0.33022 -0.475729,0.36158 -0.470024,0.0884 -0.945938,0.0287 -1.416122,-0.0234 -0.193185,-10e-4 -0.373718,-0.08 -0.564096,-0.0995 -0.103429,-0.0105 -0.270381,-0.008 -0.367271,-0.008 -0.758836,-0.0316 -1.496293,0.14742 -2.221733,0.34726 -0.909725,0.27744 -1.616762,0.93039 -2.299314,1.56294 -0.344967,0.33647 -0.699449,0.66554 -1.00407,1.04036 -0.06563,0.0807 -0.1266,0.16526 -0.186105,0.25063 -0.03073,0.0441 -0.129773,0.10863 -0.08437,0.13738 0.560468,0.35482 1.174737,0.61651 1.762106,0.92477 0.382404,-0.7029 0.816045,-1.37569 1.264469,-2.0382 0.224427,-0.33079 0.474323,-0.73486 0.836712,-0.93563 0.07488,-0.0415 0.156221,-0.0701 0.234331,-0.1051 0.720252,-0.25175 1.472266,-0.38794 2.21714,-0.54316 0.514101,-0.097 1.01882,-0.22949 1.538438,-0.29484 0.38326,-0.0378 0.786119,-0.0816 1.153864,0.0672 0.06035,0.0244 0.114514,0.062 0.171773,0.093 -3.108291,-1.64246 -1.324825,-0.97023 -1.016315,-0.3859 -0.0078,-0.0145 -0.0069,-0.0418 -0.02326,-0.0437 -0.04912,-0.006 -0.09735,0.0174 -0.146293,0.0243 -0.07981,0.0114 -0.159677,0.0228 -0.239906,0.0307 -0.423564,0.042 -0.846288,0.0872 -1.270609,0.12332 -0.639516,0.0716 -1.287872,0.0274 -1.927492,0.0916 -0.337836,0.0339 -0.494075,0.0803 -0.825267,0.15556 -0.800576,0.27002 -1.531513,0.7228 -2.162315,1.28262 -0.138577,0.12298 -0.267948,0.25595 -0.401922,0.38394 -0.62047,0.63383 -0.982454,1.38542 -1.150542,2.25203 -0.03173,0.16361 -0.04684,0.33001 -0.07026,0.49501 -0.05035,0.58704 -0.12549,1.17767 -0.07269,1.76764 0.0095,0.10655 0.01697,0.21457 0.0454,0.3177 0.02466,0.0894 0.07493,0.16974 0.112392,0.25461 0.616107,0.34633 1.192125,0.77642 1.848321,1.03897 0.133439,0.0534 0.278642,-0.0757 0.40927,-0.13568 0.330612,-0.15171 0.841777,-0.49653 1.124698,-0.69067 0.249396,-0.17114 1.108697,-0.79185 1.348208,-0.96426 0.752607,-0.53012 1.496086,-1.07923 2.284418,-1.55636 0.152315,-0.0922 0.67845,-0.38781 0.842846,-0.48064 0.463603,-0.23318 0.938887,-0.45554 1.443085,-0.58681 0.25178,-0.0656 0.344482,-0.0723 0.599318,-0.10992 0.259043,-0.0305 0.519782,-0.0414 0.780407,-0.0452 0.124167,-0.002 0.301435,-0.0116 0.423992,0.0292 0.06156,0.0205 0.113753,0.0624 0.17063,0.0936 -0.484058,-0.25851 -0.937691,-0.58463 -1.452176,-0.77553 -0.107855,-0.04 0.126995,0.19355 0.170622,0.29999 0.05765,0.14067 0.09656,0.28874 0.131326,0.43673 0.05608,0.23876 0.152252,0.86017 0.157731,1.09504 0.0051,0.21771 -0.0236,0.4349 -0.0354,0.65235 -0.15376,0.94595 -0.582734,1.7967 -1.235927,2.497 -0.404698,0.43388 -0.586367,0.53789 -1.055523,0.8891 -0.175728,0.10953 -0.348515,0.22393 -0.527188,0.32859 -0.105719,0.0619 -0.796927,0.42808 -0.91513,0.50242 -0.526976,0.33142 -0.998273,0.74055 -1.467252,1.14659 -0.826606,0.74435 -1.605627,1.53718 -2.382617,2.33228 -0.179939,0.21324 -0.358681,0.43434 -0.47854,0.68868 -0.09116,0.19342 -0.134818,0.40313 -0.18641,0.60913 -0.01815,0.0477 -0.0237,0.10227 -0.05445,0.14295 -0.0099,0.0131 -0.03258,-0.004 -0.04888,-0.006 0.548392,0.26164 1.06825,0.59427 1.645178,0.7849 0.09479,0.0313 -0.08222,-0.18254 -0.111266,-0.27805 -0.09155,-0.30104 -0.124391,-0.5698 -0.175659,-0.88079 -0.0519,-0.39955 -0.07954,-0.8015 -0.09529,-1.2039 -0.0079,-0.20064 -0.03095,-0.41389 0.01462,-0.61149 -0.578688,-0.24919 -1.119906,-0.61594 -1.736065,-0.74756 -0.127032,-0.0271 0.03518,0.25748 0.04729,0.38681 0.01804,0.19269 0.03256,0.38575 0.04311,0.57899 0.03973,0.72801 0.04253,1.45716 0.04295,2.18596 0.0057,1.20508 -0.04282,2.40756 -0.124795,3.60941 -0.03714,0.77424 -0.119825,1.54403 -0.215325,2.31283 -0.145972,0.86795 -0.264703,1.74052 -0.414965,2.60761 -0.133208,0.65902 -0.245998,1.31984 -0.29845,1.99033 0,0 1.656138,0.85654 1.656138,0.85654 v 0 c 0.02928,-0.67681 0.09273,-1.35157 0.200597,-2.02073 0.07312,-0.47291 0.132438,-0.94833 0.228675,-1.41734 0.06893,-0.33594 0.118065,-0.49841 0.191785,-0.82565 0.02512,-0.11151 0.04709,-0.22371 0.07063,-0.33556 0.0738,-0.78904 0.100612,-1.57973 0.122008,-2.37189 0.02463,-0.55799 0.06096,-1.11804 0.06325,-1.67669 0.0027,-0.66376 -0.0399,-1.32768 -0.0323,-1.99156 -4.24e-4,-0.71401 -8.47e-4,-1.42904 0.04204,-2.14216 0.0107,-0.17794 0.02522,-0.35574 0.04529,-0.53287 0.01252,-0.11044 0.139268,-0.25994 0.05241,-0.32929 -0.520611,-0.4157 -1.150849,-0.67151 -1.726274,-1.00726 0.07022,0.21598 0.07409,0.44326 0.0984,0.66816 0.04464,0.41294 0.09642,0.82512 0.143101,1.23783 0.02876,0.28592 0.06045,0.57156 0.087,0.8577 0.009,0.0969 -0.0551,0.2332 0.02319,0.29095 1.362282,1.00477 1.611366,1.66578 1.893097,0.76975 0.01296,-0.0653 0.06226,-0.31916 0.07905,-0.38056 0.08866,-0.32432 0.267131,-0.61037 0.459568,-0.88249 0.67437,-0.85998 1.408451,-1.67718 2.241653,-2.38713 0.426924,-0.34223 0.578477,-0.48108 1.030071,-0.77722 0.61858,-0.40565 1.289055,-0.73384 1.868588,-1.19957 0.458592,-0.36202 0.662942,-0.4929 1.060045,-0.9317 0.65881,-0.728 1.118912,-1.60203 1.311452,-2.56579 0.02916,-0.22011 0.07851,-0.43848 0.08746,-0.66034 0.0062,-0.15485 -0.06896,-0.91797 -0.09112,-1.08911 -0.0011,-0.007 -0.101147,-0.73094 -0.164761,-0.78063 -0.552249,-0.43136 -1.185053,-0.74824 -1.777582,-1.12235 -0.0663,-0.0165 -0.13127,-0.0398 -0.198914,-0.0494 -0.374713,-0.0529 -0.821213,0.0486 -1.194361,0.0838 -0.248046,0.0481 -0.361664,0.0627 -0.604813,0.14077 -0.493583,0.15853 -0.943967,0.42784 -1.406253,0.65629 -1.045072,0.64277 -1.994024,1.41756 -2.975356,2.15137 -0.656379,0.45961 -1.310442,0.94189 -2.045534,1.27246 -0.182495,0.0821 -0.369622,0.15915 -0.56473,0.20356 -0.133443,0.0304 -0.508806,-0.0765 -0.410158,0.0184 0.379244,0.36467 0.882369,0.5733 1.323553,0.85996 -0.0539,-0.07 -0.124089,-0.13009 -0.161699,-0.21005 -0.0458,-0.0974 -0.06423,-0.20592 -0.08374,-0.31173 -0.106698,-0.57852 -0.03768,-1.17667 0.0064,-1.75691 0.05076,-0.34403 0.07818,-0.60123 0.168939,-0.93715 0.176187,-0.65214 0.49655,-1.23789 0.968917,-1.72332 0.132096,-0.12369 0.258901,-0.25328 0.396289,-0.37106 0.631133,-0.54105 1.366733,-0.95662 2.168831,-1.17967 0.35647,-0.0697 0.452641,-0.097 0.810768,-0.13405 0.624898,-0.0647 1.255538,-0.071 1.881251,-0.12548 1.019458,-0.0501 0.08197,-0.009 1.048745,-0.0364 0.186925,-0.005 0.671978,2e-5 0.840975,-0.0999 0.06322,-0.0374 0.100925,-0.10672 0.151387,-0.16009 -0.0049,-0.0359 -0.0031,-0.0734 -0.01466,-0.10781 -0.03341,-0.0992 -0.09569,-0.1643 -0.167497,-0.23801 -0.565796,-0.58071 -1.419082,-0.90273 -2.062176,-1.29458 -0.455605,-0.14855 -0.892585,-0.1309 -1.362726,-0.0597 -0.513921,0.0772 -1.016407,0.20367 -1.520955,0.32721 -0.748688,0.18958 -1.500219,0.36795 -2.247658,0.5622 -0.09927,0.0409 -0.204512,0.0695 -0.297801,0.12262 -0.06118,0.0348 -0.109287,0.089 -0.159884,0.13799 -0.267298,0.2586 -0.462621,0.57292 -0.649391,0.89162 -0.321413,0.58581 -0.678828,1.24369 -1.130305,1.73811 -0.05639,0.0617 -0.125756,0.11027 -0.188634,0.16541 0.523132,0.34885 1.028359,0.72616 1.569396,1.04653 0.0367,0.0217 -0.02882,-0.0861 -0.01638,-0.12692 0.02828,-0.0928 0.08226,-0.17622 0.133836,-0.25836 0.248829,-0.39629 0.580569,-0.73488 0.908083,-1.06485 0.145403,-0.12829 0.28554,-0.26282 0.436211,-0.38489 0.568413,-0.4605 1.213102,-0.81652 1.903895,-1.0557 0.298394,-0.0884 0.451559,-0.14174 0.762656,-0.19983 0.492363,-0.0919 0.992238,-0.0972 1.489705,-0.0486 0.314325,0.0365 0.623596,0.10784 0.940554,0.12043 0.482245,0.0303 0.969497,0.0625 1.445284,-0.0468 0.288419,-0.0947 0.662601,-0.23521 0.675288,-0.6018 0.0019,-0.0523 -0.0159,-0.10338 -0.02384,-0.15507 -0.109178,-0.0664 -1.33722,-1.03998 -2.037432,-1.14659 -0.186984,-0.0285 -0.377688,-0.0188 -0.565851,-0.0183 -0.411795,1.8e-4 -0.823466,-0.007 -1.235253,-7.9e-4 -0.337277,-0.006 -0.674552,-0.008 -1.011779,-0.0167 -0.219131,-0.002 -0.438259,0.002 -0.657352,0.006 -0.369478,0.007 -0.739013,0.0125 -1.108147,0.0315 -0.08567,0.003 -0.582944,0.006 -0.64415,0.0439 -0.08202,0.0514 -0.271756,0.15547 -0.195299,0.21477 1.15924,0.89925 1.123117,0.87459 1.88391,0.99724 0.428083,0.0702 0.847514,0.18126 1.267238,0.28966 0.340977,0.0884 0.695688,0.14616 1.017273,0.29354 0.262633,0.13524 0.516027,0.29396 0.809471,0.35571 0.149738,0.0327 0.247714,0.0609 0.403029,0.0665 0.29781,0.0108 0.593847,-0.0683 0.871369,-0.16806 0.316267,-0.13774 0.622628,-0.32914 0.977884,-0.21741 0.635989,0.20679 1.388956,0.76625 -1.328693,-0.81651 -0.03544,-0.0206 0.07156,0.0401 0.107519,0.0598 0.161422,0.0886 0.07212,0.0314 0.227446,0.14399 0.04276,0.04 0.16982,0.15493 0.205534,0.20353 0.126934,0.1727 0.162406,0.39899 0.284464,0.5752 0.03685,0.0632 0.112226,0.20085 0.163647,0.25638 0.118822,0.12832 0.29482,0.19745 0.414163,0.32602 0.212844,0.17759 0.432533,0.35377 0.571146,0.59922 0.01582,0.056 0.03731,0.11075 0.04747,0.16807 0.06506,0.36696 0.0024,0.79452 -0.003,1.16554 -0.04335,0.40093 -0.128641,0.79169 -0.286491,1.16499 -0.211558,0.53573 -0.505079,1.03204 -0.743075,1.55619 -0.269144,0.60151 -0.529386,1.20582 -0.696436,1.84562 -0.112913,0.40203 -0.189373,0.80667 -0.283104,1.21339 -0.151977,0.65945 -0.332028,1.31225 -0.495488,1.96883 -0.667144,2.4346 -1.352452,4.86501 -2.198272,7.24511 -0.10818,0.31268 -0.209854,0.62769 -0.32454,0.93805 -0.069,0.18671 -0.35637,0.40192 -0.226314,0.55261 0.423164,0.49029 1.031959,0.80403 1.623938,1.06674 0.109392,0.0485 -0.03721,-0.23878 -0.02697,-0.35802 0.06725,-0.78313 0.269171,-1.4118 0.464211,-2.18925 0.141624,-0.51997 0.277945,-1.04141 0.424868,-1.55991 0.04157,-0.14668 0.928968,-3.15777 0.975892,-3.33057 0.302702,-1.11478 0.52937,-2.24799 0.805863,-3.36911 -0.56945,-0.40895 -1.106832,-0.86673 -1.708354,-1.22685 -0.05075,-0.0304 -0.05137,0.10754 -0.06519,0.16506 -0.03563,0.14838 -0.05356,0.30047 -0.08258,0.45028 -0.16447,0.84902 -0.354738,1.69271 -0.570722,2.53017 -0.406424,1.69839 -0.860335,3.39413 -1.069046,5.13116 -0.224806,1.92922 -0.453565,3.85817 -0.610352,5.79447 -0.05864,0.62672 -0.09578,1.26229 -0.208502,1.88269 -0.0186,0.10239 -0.04533,0.20314 -0.06934,0.30439 -0.0059,0.0251 -0.04196,0.0602 -0.02048,0.0745 0.539391,0.357 1.105009,0.6727 1.657515,1.00906 -0.01781,-0.25133 0.02048,-0.49765 0.06066,-0.74617 0.08086,-0.50019 0.197136,-0.99401 0.345202,-1.47861 0.207502,-0.5983 0.412477,-1.17988 0.769405,-1.70959 0.06883,-0.10215 0.320482,-0.19834 0.233966,-0.28602 -0.436618,-0.44246 -1.022834,-0.70713 -1.545717,-1.0433 -0.04467,-0.0287 0.07121,0.0788 0.10681,0.11822 -0.0085,0.12611 -0.0078,0.25318 -0.02537,0.37834 -0.170836,1.21263 -0.650994,2.37939 -1.178324,3.47417 -0.118618,0.2081 -0.225809,0.42314 -0.355852,0.62429 -0.374433,0.5792 -0.890235,1.0542 -1.51171,1.35465 -0.351395,0.14024 -0.696267,0.29193 -1.004928,0.51572 -0.321275,0.2173 -0.882482,0.63776 -1.254416,0.71134 -0.05568,0.011 -0.113491,0.002 -0.170237,0.003 -0.655598,-0.25142 -0.312701,-0.12816 1.363427,0.83706 0.05084,0.0293 -0.09613,-0.0678 -0.13926,-0.10761 -0.190357,-0.17549 -0.313396,-0.40277 -0.434313,-0.62816 -0.153138,-0.30566 -0.296669,-0.60941 -0.406021,-0.93409 -0.0289,-0.0858 -0.0031,-0.20944 -0.07809,-0.26014 -1.883293,-1.27285 -1.941849,-1.68779 -1.796234,-0.93511 0.238828,0.66468 0.567179,1.29485 0.774138,1.97212 0.12597,0.32897 0.243794,0.66173 0.394694,0.98042 0.02623,0.0554 0.154408,0.33106 0.227021,0.37664 0.58218,0.36545 1.189501,0.68922 1.784251,1.03384 0.05073,0.01 0.100663,0.0257 0.152196,0.0299 0.36516,0.0295 0.701561,-0.1759 0.987399,-0.37693 0.07058,-0.0572 0.145089,-0.10994 0.211751,-0.1717 0.348869,-0.3232 0.595733,-0.75434 1.001792,-1.01904 0.08826,-0.05 0.206933,-0.13448 0.31769,-0.14479 0.03421,-0.003 0.130474,0.0377 0.101174,0.0198 -0.520255,-0.31868 -1.065762,-0.59572 -1.579263,-0.92518 -0.02832,-0.0182 0.06405,-0.0257 0.0977,-0.0254 0.0168,1.4e-4 0.0286,0.0177 0.0429,0.0265 -0.03897,0.18 -0.18461,0.26696 -0.328705,0.37174 -0.317323,0.23074 -0.658884,0.42709 -1.006673,0.60753 -0.456128,0.22006 -0.913348,0.44877 -1.388666,0.6256 -0.126206,0.047 -0.253566,0.0929 -0.384864,0.12278 -0.07879,0.0179 -0.304433,-0.031 -0.241594,0.0198 0.475328,0.38423 1.016805,0.67851 1.525207,1.01777 -0.02026,0.005 -0.08092,0.0216 -0.06077,0.0159 0.03118,-0.009 0.06155,-0.023 0.09388,-0.0252 0.04035,-0.003 0.08124,0.002 0.120838,0.0107 0.05144,0.0107 0.101679,0.0271 0.150849,0.0456 0.04908,0.0184 0.188045,0.0922 0.143244,0.065 -0.492133,-0.29913 -0.990751,-0.58747 -1.486127,-0.88121 0.04532,0.0276 0.09566,0.0483 0.135964,0.0828 0.273615,0.23431 0.255864,0.65827 0.251559,0.98068 -0.01091,0.18063 -0.01526,0.32282 -0.04136,0.50051 -0.0083,0.0563 -0.02158,0.11176 -0.03364,0.16737 -0.0033,0.015 -0.02285,0.0556 -0.01228,0.0445 0.01455,-0.0154 0.01689,-0.0388 0.02534,-0.0583 0.543162,0.32942 1.086325,0.65883 1.629487,0.98825 -0.02082,-0.0167 -0.04613,-0.029 -0.06251,-0.0501 -0.125479,-0.16163 -0.05037,-0.4555 -0.107352,-0.64517 -0.193173,-1.2261 -0.458079,-0.9987 -1.972061,-1.88245 -0.215273,-0.0252 -0.431873,-0.004 -0.647661,-0.0279 -0.07656,-0.0113 -0.119155,-0.0146 -0.193666,-0.038 -0.03291,-0.0104 -0.12623,-0.0549 -0.09658,-0.0373 0.485556,0.28896 1.961641,1.12005 1.455657,0.86858 -0.03437,-0.0171 -0.06528,-0.0404 -0.09792,-0.0606 -0.02555,-0.028 -0.06193,-0.049 -0.07665,-0.0839 -0.06527,-0.15477 0.0039,-0.5943 0.02249,-0.77207 0.05358,-0.21042 0.112629,-0.12379 0.306796,-0.12559 0.377634,-0.0516 0.484993,-0.33164 0.545284,-0.67685 0.01243,-0.0895 0.04872,-0.34372 0.05673,-0.43087 0.03196,-0.34743 -0.01061,-0.69551 -0.0041,-1.04353 0.0031,-0.78359 0.05177,-1.564 0.102774,-2.34574 0.02513,-0.98074 0.01894,-1.96134 -0.01134,-2.94198 -0.005,-1.26205 0.04904,-2.52492 -0.01376,-3.78608 -0.08229,-1.61614 -0.173626,-3.23507 -0.09489,-4.8535 0.01194,-0.15794 0.154817,-0.3693 0.03581,-0.47382 -0.512498,-0.45011 -1.181193,-0.68289 -1.761323,-1.04164 -0.02306,-0.0143 0.06566,-0.0194 0.08131,0.003 0.03892,0.0551 0.03988,0.12891 0.05764,0.19398 0.04305,0.1577 0.07584,0.31811 0.124311,0.47439 0.182605,0.6496 0.246113,1.32395 0.2997,1.99468 0.121265,1.5124 0.219589,3.03646 0.10652,4.55213 -0.02041,0.18718 -0.03364,0.37528 -0.06124,0.56153 -0.01636,0.11037 -0.15711,0.25693 -0.07046,0.32723 0.507223,0.4115 1.127983,0.65885 1.691975,0.98828 -0.03137,-0.055 -0.07517,-0.10447 -0.09412,-0.16484 -0.0674,-0.21466 -0.135544,-0.76621 -0.1621,-0.95018 -0.182364,-1.6453 -0.286989,-3.30071 -0.580859,-4.93231 -0.207964,-1.32348 -0.365563,-2.65745 -0.320646,-4.00025 0.01261,-1.17477 -0.01617,-2.34974 0.008,-3.52452 0.02554,-1.52969 0.05827,-3.05981 0.122416,-4.58835 0.01652,-0.20784 0.02987,-0.41596 0.04955,-0.62353 0.01278,-0.13477 0.151425,-0.31616 0.04782,-0.40329 -2.167107,-1.82253 -1.69653,-1.62306 -1.744763,-0.83458 -0.01818,0.29717 -0.0546,0.59044 -0.08693,0.88647 -0.08307,0.65642 -0.17128,1.31154 -0.279298,1.96443 -0.07277,0.43983 -0.134083,0.70047 -0.179649,1.13127 -0.01215,0.11484 -0.01354,0.23056 -0.02031,0.34584 2.06e-4,0.0753 -0.05879,0.17959 6.08e-4,0.2258 0.548314,0.42657 1.393133,1.56955 1.817638,1.01964 0.05489,-0.0711 0.09285,-0.2538 0.10648,-0.32247 0.01737,-0.0875 0.02799,-0.17622 0.04198,-0.26433 0.03608,-0.38103 0.08048,-0.76117 0.126918,-1.14109 0.0122,-0.31941 0.04026,-0.63779 0.07668,-0.95533 0.0077,-0.25233 -7.15e-4,-0.50486 0.01429,-0.75696 0.01035,-0.31451 0.03362,-0.6286 0.07874,-0.94021 0.03374,-0.38981 0.101656,-0.7699 0.343897,-1.09025 0.271157,-0.35767 0.548914,-0.71471 0.891486,-1.00804 0.217017,-0.15964 0.403892,-0.33589 0.688097,-0.2971 z"
             transform="translate(1.0208333e-6)" /><path
             style="display:inline;fill:#000000;fill-opacity:1;stroke:none;stroke-width:0.365001;stroke-linecap:round;stroke-linejoin:round;stroke-dasharray:none;stroke-opacity:1"
             id="path1356"
             d="m 55.96292,187.01973 c -1.155645,0.54011 -1.735619,1.47523 -2.284378,2.58129 -0.887844,1.88036 -1.12195,3.90993 -1.111187,5.96551 0.01461,1.78012 0.613886,3.47034 1.168181,5.13999 0.530497,1.50966 0.816914,3.07913 0.948118,4.66922 0.134834,1.20083 -0.242578,2.36305 -0.560948,3.50552 -0.47724,1.52038 -0.576477,3.10804 -0.678633,4.68694 -0.06265,1.6786 -0.198697,3.35906 -0.0832,5.03759 0.124542,1.09721 0.442108,2.03624 1.17449,2.86807 2.603985,2.11704 4.170156,2.93747 6.983206,3.02231 1.14826,-0.26922 2.2072,-0.88475 3.016073,-1.74676 0.199665,-0.21278 0.371163,-0.45034 0.556744,-0.67552 0.958866,-1.28418 1.356903,-2.78907 1.631019,-4.33745 0.225978,-1.90505 0.189791,-3.82869 0.208013,-5.74365 0.04511,-1.73381 0.391268,-3.42177 1.097388,-5.00334 0.742606,-1.41782 1.606315,-2.7729 2.472269,-4.11861 0.535213,-0.89571 0.949701,-1.88352 1.13169,-2.91635 0.08886,-0.50434 0.151992,-1.41704 0.193545,-1.92069 0.108709,-1.59505 -0.309401,-3.11464 -1.228286,-4.42379 -0.162793,-0.23193 -0.354079,-0.4425 -0.531117,-0.66375 -1.830347,-1.87065 -4.206504,-3.25679 -6.707716,-4.02887 -0.735637,-0.22707 -1.054111,-0.28832 -1.800966,-0.46355 -1.259358,-0.31501 -2.546956,-0.42327 -3.838969,-0.4781 -0.665081,-0.0627 -1.308817,0.10429 -1.950157,0.25128 0,0 3.993571,2.77078 3.993571,2.77078 v 0 c 0.607586,-0.12929 1.222192,-0.21305 1.845482,-0.17401 1.229307,0.0408 2.453436,0.17361 3.652388,0.45844 0.718968,0.18419 1.071911,0.25519 1.774491,0.51534 0.277813,0.10287 1.067472,0.50639 0.81906,0.34498 -1.073361,-0.69745 -2.201955,-1.30596 -3.302931,-1.95895 0.201546,0.13722 0.412464,0.2616 0.604644,0.41166 0.20859,0.16287 0.396875,0.3502 0.595313,0.52531 0.188965,0.20421 0.392731,0.39566 0.566896,0.61264 0.963194,1.19997 1.460746,2.61752 1.394084,4.15888 -0.149341,1.61319 -0.394276,3.21592 -1.287356,4.60806 -0.833269,1.39409 -1.747182,2.74271 -2.502297,4.18049 -0.219454,0.5193 -0.435282,0.98858 -0.591781,1.53343 -0.342804,1.19348 -0.427675,2.45242 -0.501914,3.68417 -0.01222,1.87456 -0.03311,3.75764 -0.284776,5.61818 -0.244425,1.4644 -0.555983,2.92601 -1.465816,4.14136 -0.179337,0.20313 -0.344395,0.41982 -0.538012,0.60938 -0.776446,0.7602 -1.801373,1.31416 -2.89289,1.38331 -0.492649,-0.0389 -0.983226,-0.0751 -1.464199,-0.19755 -0.153662,-0.0391 -0.588817,-0.22425 -0.454763,-0.13956 2.87824,1.81839 5.079084,2.83421 3.278153,1.98994 -0.119105,-0.0867 -0.251622,-0.15745 -0.357315,-0.26006 -0.624408,-0.60619 -0.843457,-1.50907 -1.027237,-2.32286 -0.237029,-1.66142 -0.119475,-3.34644 -0.05636,-5.01745 0.108979,-1.5367 0.293301,-3.0618 0.750707,-4.53942 0.265457,-0.94628 0.646692,-2.09486 0.678424,-3.07488 0.0065,-0.19925 -0.03342,-0.39732 -0.05013,-0.59598 -0.192334,-1.62734 -0.447725,-3.24713 -0.988105,-4.80174 -0.259998,-0.80361 -0.503177,-1.6118 -0.749697,-2.41961 -0.136215,-0.44637 -0.365916,-1.19273 -0.439618,-1.64663 -0.05236,-0.32244 -0.06116,-0.65046 -0.09174,-0.97568 -0.01201,-0.34703 -0.04406,-0.69394 -0.03605,-1.04109 0.03715,-1.6113 0.427617,-3.22204 1.119474,-4.67376 0.515117,-0.92681 1.122246,-1.91031 2.260885,-2.08834 z"
             inkscape:label="line" /><path
             style="display:inline;fill:#1d1d1d;fill-opacity:1;stroke:none;stroke-width:1.37953;stroke-linecap:round;stroke-linejoin:round;stroke-dasharray:none;stroke-opacity:1;filter:url(#filter1858)"
             d="m 144.34878,801.60008 c -0.85895,-7.5921 0.85869,-25.33808 3.28914,-33.98207 2.82288,-10.03966 2.11504,-18.47916 -2.94016,-35.05538 -3.45224,-11.32005 -3.83405,-13.51008 -3.45173,-19.79899 0.4921,-8.09476 2.72032,-15.52154 5.82507,-19.41527 1.80263,-2.26071 2.37109,-2.49445 3.59539,-1.47837 0.94622,0.78529 2.62394,0.98747 4.80264,0.57874 4.69039,-0.87992 19.13554,1.30699 21.00922,3.18068 2.80839,2.80838 4.97057,9.01814 4.99168,14.33603 0.0318,8.01842 -1.90118,13.74973 -8.10073,24.01833 -8.42225,13.95018 -8.90364,15.58277 -9.86689,33.46278 -1.18825,22.05677 -2.67958,28.2259 -8.28225,34.261 -2.68541,2.89267 -6.76896,5.33698 -8.91616,5.33698 -0.93141,0 -1.52684,-1.65801 -1.95522,-5.44446 z"
             id="path1378"
             transform="matrix(0.26458333,0,0,0.26458333,19.475,7.8)"
             inkscape:label="color" /></g><g
           id="g1377"
           inkscape:label="left hand"
           style="display:inline"><path
             style="display:inline;fill:#000000;fill-opacity:1;stroke:none;stroke-width:0.365001;stroke-linecap:round;stroke-linejoin:round;stroke-dasharray:none;stroke-opacity:1"
             id="path1357"
             d="m 57.533074,193.73664 c -1.443668,0.0624 -2.889904,0.0543 -4.334616,0.0421 -0.770999,-0.004 -1.541986,0.004 -2.312974,0.005 -0.590217,7.9e-4 -1.007245,-0.0394 -1.588392,0.10479 -0.254225,0.0631 -0.491146,0.18224 -0.736719,0.27337 -0.207767,0.16258 -0.442495,0.29563 -0.6233,0.48775 -0.652852,0.69371 -1.123813,1.9326 -1.239327,2.87079 -0.02733,0.22196 -0.01662,0.44697 -0.02492,0.67046 0.117711,1.40617 0.495919,1.82755 1.655982,2.55819 2.042428,1.44633 3.971211,2.37302 6.29616,2.96439 0.892564,0.12839 1.851888,0.32466 2.758258,0.26338 0.226036,-0.0153 0.447783,-0.0692 0.671676,-0.10382 1.319176,-0.46867 2.536177,-1.21829 3.346283,-2.385 0.129726,-0.18683 0.231138,-0.39181 0.346705,-0.58771 0.526153,-1.11268 0.637659,-2.35502 0.573006,-3.56972 -0.120166,-0.92834 -0.708533,-1.53821 -1.448764,-2.04058 0,0 -3.600912,-1.38541 -3.600912,-1.38541 v 0 c 0.741666,0.37263 1.404085,0.87092 1.61898,1.71481 0.137514,1.13759 -5.3e-4,2.31726 -0.438243,3.38027 -0.834046,1.5174 -1.80303,2.24284 -3.496776,2.6735 -1.135274,0.0767 -2.277345,-0.0318 -3.383922,-0.30299 -0.489001,-0.13798 -0.977001,-0.2794 -1.455069,-0.45253 -1.270828,-0.46023 -3.464022,-1.7188 1.783088,1.21082 -1.131911,-0.65979 -1.588034,-0.81614 -1.833676,-2.20887 -0.0083,-0.20598 -0.03879,-0.41228 -0.02484,-0.61795 0.05809,-0.85662 0.47063,-2.02024 1.091006,-2.63034 0.161513,-0.15884 0.3702,-0.26118 0.555303,-0.39177 0.227274,-0.0708 0.448262,-0.16645 0.681826,-0.21247 1.205359,-0.23749 2.651879,0.0259 3.885046,-0.0688 1.483357,-0.0128 2.967961,-0.0176 4.450395,0.0421 z"
             inkscape:label="left hand" /><path
             style="fill:#f9dada;fill-opacity:1;stroke:none;stroke-width:1.37953;stroke-linecap:round;stroke-linejoin:round;stroke-dasharray:none;stroke-opacity:1"
             d="m 123.03658,731.4251 c -2.33345,-0.51457 -4.77297,-1.36961 -5.42115,-1.90009 -1.70965,-1.3992 -1.44177,-8.21678 0.47287,-12.03421 2.47124,-4.92723 4.78905,-5.64036 18.38331,-5.65607 l 12.02081,-0.0139 -0.0207,3.06413 c -0.026,3.84939 -2.80342,9.96458 -5.76035,12.68292 -5.00544,4.60157 -10.98414,5.77369 -19.67479,3.85722 z"
             id="path1377"
             transform="matrix(0.26458333,0,0,0.26458333,19.475,7.8)" /></g></g></g></g></svg>
