<?xml version="1.0" encoding="UTF-8" standalone="no"?>
<!-- Created with Inkscape (http://www.inkscape.org/) -->

<svg
   width="59.105358mm"
   height="48.358807mm"
   viewBox="0 0 59.105358 48.358807"
   version="1.1"
   id="svg1"
   inkscape:version="1.3.2 (091e20e, 2023-11-25, custom)"
   sodipodi:docname="mage-idle-0.svg"
   xml:space="preserve"
   inkscape:export-filename="..\separated\bottom-body-cloths.svg"
   inkscape:export-xdpi="96"
   inkscape:export-ydpi="96"
   xmlns:inkscape="http://www.inkscape.org/namespaces/inkscape"
   xmlns:sodipodi="http://sodipodi.sourceforge.net/DTD/sodipodi-0.dtd"
   xmlns="http://www.w3.org/2000/svg"
   xmlns:svg="http://www.w3.org/2000/svg"><sodipodi:namedview
     id="namedview1"
     pagecolor="#ffffff"
     bordercolor="#000000"
     borderopacity="0.25"
     inkscape:showpageshadow="2"
     inkscape:pageopacity="0.0"
     inkscape:pagecheckerboard="0"
     inkscape:deskcolor="#d1d1d1"
     inkscape:document-units="mm"
     inkscape:export-bgcolor="#ffffff00"
     inkscape:zoom="0.53033009"
     inkscape:cx="277.18586"
     inkscape:cy="500.6316"
     inkscape:window-width="1304"
     inkscape:window-height="745"
     inkscape:window-x="1358"
     inkscape:window-y="-8"
     inkscape:window-maximized="1"
     inkscape:current-layer="g1928" /><defs
     id="defs1" /><g
     inkscape:groupmode="layer"
     id="layer4"
     inkscape:label="mage"
     transform="translate(-106.16301,-207.44013)"
     inkscape:highlight-color="#7d39ff"><g
       id="g1314"
       inkscape:label="body"
       style="display:inline"
       transform="translate(31.929799,2.9934187)"><g
         id="g1341"
         inkscape:label="legs"
         transform="translate(-1.500346,25.49967)"
         style="display:inline"><g
           id="g1421"
           inkscape:label="top leg"
           style="display:inline"><path
             style="display:inline;fill:#000000;fill-opacity:1;stroke:none;stroke-width:0.365001;stroke-linecap:round;stroke-linejoin:round;stroke-dasharray:none;stroke-opacity:1"
             id="path1395"
             d="m 116.84349,207.13817 c -0.001,1.74423 0.34584,3.45772 0.6532,5.16741 0.51953,2.60417 1.08421,5.19793 1.82937,7.74723 0.83427,3.03398 1.56611,6.09499 2.33229,9.14661 0.69682,2.52515 1.5702,4.99392 2.44968,7.45959 1.02551,2.7895 2.24129,5.49313 3.60487,8.1319 0.79773,1.5547 1.6407,3.11651 2.12518,4.80362 0.0341,0.39597 0.0647,0.70852 -0.34779,0.87894 -0.75843,0.31333 -1.35187,-0.16841 -2.01187,-0.52053 0.63862,0.34142 1.19253,1.05873 1.91587,1.02426 0.57413,-0.0274 -0.93139,-0.67596 -1.36747,-1.05039 -0.47623,-0.4089 -0.92294,-0.85152 -1.36573,-1.29641 -1.23149,-1.23734 -2.28604,-2.54858 -3.28512,-3.97456 -1.81237,-2.78483 -3.10929,-5.86582 -4.26227,-8.97053 -0.84377,-2.11207 -1.67361,-4.24259 -2.76335,-6.24282 -1.20656,-0.68266 -2.31069,-1.59153 -3.61968,-2.04797 -0.24083,-0.084 -0.31382,0.40753 -0.4208,0.63907 -0.12744,0.27584 -0.20389,0.57361 -0.27586,0.86883 -0.2992,1.22738 -0.39156,2.50356 -0.50696,3.75685 -0.19639,2.46542 -0.22991,4.93911 -0.25548,7.41087 -0.005,0.38395 2.6e-4,1.33931 -0.0662,1.76004 -0.23899,1.51103 -3.86062,-0.42399 3.23656,1.82038 0.23237,0.0735 -0.3092,-0.37932 -0.43225,-0.58969 -0.19391,-0.33148 -0.34362,-0.68691 -0.51543,-1.03037 -1.53843,-3.37942 -2.62608,-6.93703 -3.65783,-10.49677 -0.67916,-2.18984 -1.11305,-4.4416 -1.61408,-6.67548 -0.27283,-1.40129 -0.54105,-2.7874 -0.96128,-4.1533 -0.0825,-0.26583 -0.16505,-0.53167 -0.24759,-0.79751 0,0 -3.45719,-1.63117 -3.45719,-1.63117 v 0 c 0.0842,0.26575 0.16835,0.5315 0.25252,0.79726 0.41554,1.35743 0.65608,2.74462 0.9652,4.12844 0.57486,2.26505 1.04749,4.55852 1.78549,6.7802 1.08379,3.52394 2.15687,7.05647 3.5136,10.48718 0.14283,0.34003 0.28905,0.67865 0.42848,1.02009 0.0947,0.23201 0.0615,0.56731 0.27399,0.70014 4.29291,2.68311 3.86641,2.61132 3.85094,-0.40819 -0.004,-2.46892 0.003,-4.94122 0.19378,-7.40426 0.12155,-1.2151 0.21739,-2.44872 0.55755,-3.62851 0.0729,-0.25288 0.16211,-0.50282 0.27904,-0.7386 0.0448,-0.0904 0.2804,-0.16634 0.19992,-0.22712 -0.94808,-0.71603 -2.01058,-1.26641 -3.01587,-1.89961 1.23453,1.9561 2.027,4.14273 2.94711,6.25568 1.18725,3.11151 2.44725,6.23141 4.23063,9.05609 1.03487,1.49381 2.04856,2.7476 3.31245,4.06119 0.70504,0.73276 1.75779,1.82056 2.63447,2.38617 1.45378,0.93793 2.97241,1.77131 4.45862,2.65697 0.3548,0.15023 0.69153,0.35365 1.0644,0.45068 0.59848,0.15576 1.33887,-0.0134 1.70558,-0.54965 0.18844,-0.27557 0.13766,-0.64035 0.13947,-0.94309 -0.47511,-1.74795 -1.39221,-3.35523 -2.23677,-4.94506 -1.41679,-2.60872 -2.60666,-5.31408 -3.65062,-8.09329 -0.86458,-2.45206 -1.67372,-4.92028 -2.42004,-7.41132 -0.83872,-3.04993 -1.62399,-6.11367 -2.39078,-9.18233 -0.69655,-2.53328 -1.24858,-5.10575 -1.77256,-7.67954 -0.29836,-1.65187 -0.62745,-3.32602 -0.49521,-5.01198 z"
             transform="translate(1.5003461,-25.49967)" /><path
             style="display:inline;fill:#000000;fill-opacity:1;stroke:none;stroke-width:0.365001;stroke-linecap:round;stroke-linejoin:round;stroke-dasharray:none;stroke-opacity:1"
             id="path1396"
             d="m 99.096644,214.19475 c -1.022136,1.99927 -1.449385,4.19589 -1.825631,6.38798 -0.366731,2.43829 -0.474974,4.91132 -0.59091,7.37255 -0.07827,2.61399 -0.166637,5.225 -0.391607,7.83093 -0.188629,1.97178 -0.501507,3.92958 -0.847198,5.87915 -0.222888,1.14118 -0.381818,2.86725 -1.069883,3.82075 -0.838326,-1.46527 0.230339,0.58028 2.617095,0.94221 0.374872,0.0568 -0.386596,-0.65345 -0.551037,-0.99509 -0.567399,-1.17883 -0.961896,-2.4452 -1.377868,-3.68192 -0.614434,-1.78228 -1.075727,-3.61077 -1.601708,-5.4196 -0.87801,-1.51427 -0.707856,-1.41163 -4.017685,-2.23334 -0.277839,-0.069 -0.291134,0.49534 -0.398997,0.76051 -0.432006,1.06207 -0.757603,2.34675 -1.101976,3.45063 -0.603896,1.91725 -0.825376,3.92065 -1.169972,5.89315 -0.04905,0.26191 -0.100417,0.52339 -0.147148,0.78571 -0.04267,0.23951 -0.165092,1.08087 -0.264102,1.34537 -0.02005,0.0536 -0.180541,0.0862 -0.129696,0.11236 3.674219,1.89379 3.77534,2.70233 3.166613,0.91807 -0.462182,-1.75931 -0.763111,-3.55768 -1.322374,-5.29198 -0.370878,-1.15012 -0.49216,-1.34769 -0.966076,-2.40111 -0.186701,-0.28688 -0.347036,-0.59277 -0.560102,-0.86065 -0.178536,-0.22447 -0.363736,-0.45876 -0.60838,-0.60845 -0.977662,-0.59822 -2.898918,-2.60793 -4.566751,-2.07041 -0.501192,0.16153 -0.727249,0.43213 -1.110887,0.76901 -1.19193,1.64165 -2.142837,3.46225 -3.018925,5.28943 -0.813798,1.33985 -1.460143,2.82255 -2.429931,4.06241 -0.263837,-1.59158 0.0096,0.65027 3.081613,1.10856 0.336312,0.0502 -0.111615,-0.67126 -0.14722,-1.00943 -0.143052,-1.35866 -0.146963,-2.73011 -0.174379,-4.09428 -0.06231,-2.48911 0.0371,-4.97268 0.161968,-7.45762 0.238138,-2.25168 0.600593,-4.48543 0.783651,-6.74302 0.154376,-2.05646 0.412062,-4.10312 0.588269,-6.15721 0.178448,-2.16337 0.368927,-4.3252 0.508616,-6.49161 0.01744,-0.29203 0.03487,-0.58406 0.0523,-0.8761 0,0 -3.389495,-1.74659 -3.389495,-1.74659 v 0 c -0.0094,0.29478 -0.01881,0.58956 -0.02822,0.88434 -0.101094,2.16746 -0.303702,4.32476 -0.49064,6.48584 -0.198374,2.05271 -0.424794,4.1021 -0.5998,6.15711 -0.166246,2.26659 -0.465733,4.51693 -0.750898,6.77099 -0.129898,2.49887 -0.233336,4.99679 -0.135157,7.49964 0.0213,1.6201 0.01074,1.1882 0.05094,2.78811 0.01085,0.43193 0.01852,0.86396 0.03476,1.29572 0.01275,0.3397 -0.180261,0.77045 0.05221,1.01848 2.857405,3.0486 2.143393,3.23258 3.765077,2.55148 0.867616,-1.34046 1.529567,-2.81063 2.347489,-4.18135 0.888452,-1.75958 1.724993,-3.59742 3.011887,-5.10598 0.342635,-0.26474 0.535718,-0.48905 0.981869,-0.55656 0.177694,-0.0269 0.680479,0.14053 0.538276,0.0306 -0.825471,-0.63791 -1.74352,-1.14889 -2.651075,-1.66335 -0.25088,-0.14221 0.475186,0.33355 0.673891,0.54255 0.235535,0.24774 0.412769,0.54501 0.619154,0.81751 0.515163,1.02646 0.663623,1.2414 1.050468,2.37414 0.577111,1.68987 0.858263,3.45473 1.169024,5.20672 0.350724,1.96682 -0.0072,0.94349 3.722971,2.73838 0.131389,0.0632 0.475845,-2.32975 0.496173,-2.44932 0.329681,-1.96625 0.526102,-3.96247 1.087567,-5.88241 0.290864,-0.96145 0.401283,-1.37918 0.753348,-2.32705 0.124994,-0.33652 0.248454,-0.67467 0.402571,-0.99889 0.07709,-0.16217 0.423365,-0.33638 0.288489,-0.45491 -0.908119,-0.79806 -2.013376,-1.3401 -3.046159,-1.96854 -0.136117,-0.0828 0.232392,0.21805 0.348589,0.32708 0.607838,1.81696 1.075436,3.68134 1.726827,5.48567 0.422092,1.29232 0.392856,1.24362 0.859025,2.51022 0.813874,2.21134 1.988246,5.22264 5.184661,4.77739 0.687338,-1.11336 0.83316,-2.72862 1.081662,-3.99868 0.320529,-1.97325 0.598075,-3.95509 0.783741,-5.94595 0.246411,-2.61407 0.26222,-5.23564 0.37012,-7.85754 0.145559,-2.44632 0.290609,-4.89707 0.581659,-7.33059 0.34487,-2.14211 0.76083,-4.30619 1.94177,-6.16887 z"
             transform="translate(1.5003461,-25.49967)" /><path
             style="display:inline;fill:#000000;fill-opacity:1;stroke:none;stroke-width:0.365001;stroke-linecap:round;stroke-linejoin:round;stroke-dasharray:none;stroke-opacity:1"
             id="path1411"
             d="m 79.621789,215.3201 c -0.09153,-0.80847 -0.06025,-1.62333 -0.06711,-2.43511 0.01357,-0.7245 0.01939,-1.449 0.02643,-2.17355 -0.0086,-0.51813 -0.01365,-1.04518 0.128111,-1.54914 0.04506,-0.16017 0.265761,-0.69717 0.321315,-0.83563 0.316955,-0.77655 0.958837,-1.29954 1.537444,-1.87219 0,0 -3.277849,-2.00777 -3.277849,-2.00777 v 0 c -0.60089,0.61222 -1.243827,1.20908 -1.57049,2.02316 -0.361,0.81862 -0.621215,1.57698 -0.581329,2.48738 0.0071,0.73353 0.01294,1.467 0.02643,2.20049 -0.0067,0.78888 0.02708,1.58151 -0.06711,2.36672 z"
             transform="translate(1.5003461,-25.49967)" /><path
             style="display:inline;fill:#000000;fill-opacity:1;stroke:none;stroke-width:0.365001;stroke-linecap:round;stroke-linejoin:round;stroke-dasharray:none;stroke-opacity:1"
             id="path1412"
             d="m 102.55235,216.9076 c -0.0676,-0.64059 0.40064,-1.17014 0.79104,-1.62618 0.29253,-0.32485 0.89457,-0.85763 1.38846,-0.71682 0.10602,0.0302 0.18892,0.1137 0.28339,0.17054 -4.57126,-2.4279 -3.35471,-2.37024 -2.64615,-1.10789 0.34577,0.61599 0.49494,1.31722 0.65642,1.99673 0.12428,0.65733 0.26567,1.31346 0.3579,1.97642 0.0957,0.63631 0.23612,1.26468 0.33112,1.90099 0.0407,0.56323 0.12622,1.11334 0.24889,1.66412 0.0227,0.0879 0.0454,0.17588 0.068,0.26382 0,0 3.51338,1.66363 3.51338,1.66363 v 0 c -0.0279,-0.0816 -0.0559,-0.16326 -0.0838,-0.24489 -0.13545,-0.55835 -0.24012,-1.06423 -0.27092,-1.64131 -0.098,-0.63367 -0.24135,-1.25821 -0.32741,-1.89379 -0.0962,-0.69054 -0.26051,-1.36548 -0.4078,-2.04654 -0.18791,-0.71216 -0.37327,-1.42441 -0.65479,-2.10711 -0.0738,-0.17901 -0.0844,-0.41474 -0.24109,-0.5285 -1.14245,-0.82942 -2.3917,-1.50074 -3.58755,-2.25111 -0.13241,-0.014 -0.26431,-0.0498 -0.39724,-0.0421 -0.61027,0.0354 -1.14867,0.53588 -1.51364,0.97596 -0.40142,0.50812 -0.9716,1.13407 -1.032401,1.79837 z"
             transform="translate(1.5003461,-25.49967)" /><g
             id="g1419"
             inkscape:label="colors"
             style="display:inline"><path
               style="display:inline;fill:#003f81;fill-opacity:1;stroke:none;stroke-width:1.37953;stroke-linecap:round;stroke-linejoin:round;stroke-dasharray:none;stroke-opacity:1"
               d="m 411.4077,915.24406 c -5.69941,-3.77513 -16.08352,-16.13305 -21.72843,-25.85858 -3.86037,-6.65096 -6.24707,-11.92055 -12.71166,-28.06606 -8.11414,-20.26531 -9.83592,-23.43441 -14.27454,-26.27377 -3.56299,-2.27921 -9.97083,-5.71232 -10.66196,-5.71232 -0.68546,0 -2.36023,4.86672 -3.06028,8.89286 -0.39276,2.25892 -1.07476,8.45714 -1.51554,13.77381 l -0.80142,9.66667 -3.5014,-11.97146 c -1.92578,-6.5843 -4.56938,-16.9343 -5.87467,-23 -1.30529,-6.0657 -3.13807,-14.02854 -4.07283,-17.69521 -0.93476,-3.66667 -2.53442,-10.2854 -3.55481,-14.70829 -2.73942,-11.8741 -3.12731,-12.48889 -10.98349,-17.40791 -3.66667,-2.29582 -7.20657,-4.18388 -7.86644,-4.19568 -2.02933,-0.0363 -4.66855,1.70607 -7.69841,5.08235 -3.49156,3.89076 -4.20256,5.2057 -6.03861,11.16804 -3.36019,10.91173 -4.74166,23.26504 -6.08298,54.39482 -0.38708,8.98334 -1.13081,19.59313 -1.65274,23.57732 -1.70822,13.0397 -2.55478,17.79546 -3.07448,17.27162 -0.28133,-0.28358 -1.76969,-4.8656 -3.30747,-10.18227 -3.3014,-11.41419 -4.63037,-14.29707 -7.20434,-15.62812 -2.80887,-1.45253 -11.61194,-3.77711 -12.12156,-3.20089 -0.51556,0.58296 -4.87075,14.28996 -6.12809,19.28683 l -0.87008,3.45782 -0.89334,-2.01821 c -1.21687,-2.74909 -4.19953,-5.60951 -9.92926,-9.52232 -4.12572,-2.81744 -5.3794,-3.33202 -8.70369,-3.57248 -3.58755,-0.2595 -4.06403,-0.12258 -6.24873,1.79562 -1.30077,1.14209 -3.56196,4.0997 -5.02486,6.57247 -1.46289,2.47277 -3.46363,5.84595 -4.44609,7.49595 l -1.78627,3 0.41562,-11.33334 c 0.22859,-6.23333 0.84833,-14.78333 1.3772,-19 3.27817,-26.1368 6.28085,-63.31406 6.29926,-77.99337 0.0165,-13.16678 0.60693,-15.49596 5.09837,-20.11312 1.30537,-1.3419 2.1709,-2.76746 1.92341,-3.16791 -0.97076,-1.57072 3.25628,-2.20279 12.29691,-1.83876 10.20132,0.41076 20.96556,2.15275 33.80139,5.47012 4.84076,1.25108 11.44076,2.57678 14.66666,2.946 14.64012,1.67565 62.95376,2.67455 68.38372,1.41386 3.04711,-0.70746 4.48156,0.36989 4.48156,3.36589 0,3.49053 4.54484,25.15867 8.02297,38.25063 1.85083,6.96666 5.00451,19.18838 7.00818,27.15937 6.37977,25.37997 13.23451,44.17013 24.65674,67.58889 6.20999,12.7322 8.97878,19.18276 8.97878,20.91824 0,0.34096 -0.56274,0.92108 -1.25053,1.28918 -0.98064,0.52482 -1.91769,0.22736 -4.34177,-1.37829 z"
               id="path1419"
               transform="matrix(0.26458333,0,0,0.26458333,20.975346,-17.69967)" /></g></g></g></g></g></svg>
