<?xml version="1.0" encoding="UTF-8" standalone="no"?>
<!-- Created with Inkscape (http://www.inkscape.org/) -->

<svg
   width="50.882523mm"
   height="55.614799mm"
   viewBox="0 0 50.882522 55.6148"
   version="1.1"
   id="svg1"
   inkscape:version="1.3.2 (091e20e, 2023-11-25, custom)"
   sodipodi:docname="mage-idle-0.svg"
   xml:space="preserve"
   inkscape:export-filename="..\separated\bottom-body-cloths.svg"
   inkscape:export-xdpi="96"
   inkscape:export-ydpi="96"
   xmlns:inkscape="http://www.inkscape.org/namespaces/inkscape"
   xmlns:sodipodi="http://sodipodi.sourceforge.net/DTD/sodipodi-0.dtd"
   xmlns="http://www.w3.org/2000/svg"
   xmlns:svg="http://www.w3.org/2000/svg"><sodipodi:namedview
     id="namedview1"
     pagecolor="#ffffff"
     bordercolor="#000000"
     borderopacity="0.25"
     inkscape:showpageshadow="2"
     inkscape:pageopacity="0.0"
     inkscape:pagecheckerboard="0"
     inkscape:deskcolor="#d1d1d1"
     inkscape:document-units="mm"
     inkscape:export-bgcolor="#ffffff00"
     inkscape:zoom="0.53033009"
     inkscape:cx="277.18586"
     inkscape:cy="500.6316"
     inkscape:window-width="1304"
     inkscape:window-height="745"
     inkscape:window-x="1358"
     inkscape:window-y="-8"
     inkscape:window-maximized="1"
     inkscape:current-layer="g1928" /><defs
     id="defs1" /><g
     inkscape:groupmode="layer"
     id="layer4"
     inkscape:label="mage"
     transform="translate(-108.40531,-208.10465)"
     inkscape:highlight-color="#7d39ff"><g
       id="g1314"
       inkscape:label="body"
       style="display:inline"
       transform="translate(31.929799,2.9934187)"><g
         id="g1341"
         inkscape:label="legs"
         transform="translate(-1.500346,25.49967)"
         style="display:inline"><g
           id="g1921"
           inkscape:label="pants"
           style="display:inline"><path
             style="display:inline;fill:#002145;fill-opacity:1;stroke:none;stroke-width:1.37953;stroke-linecap:round;stroke-linejoin:round;stroke-dasharray:none;stroke-opacity:1"
             d="m 310.68791,923.37452 c 0.21103,-0.58937 0.43873,-21.43625 0.50599,-46.32641 0.16783,-62.11104 0.97725,-77.02425 4.98259,-91.80305 0.77486,-2.85907 1.12069,-3.54139 1.59528,-3.14751 0.33327,0.27659 0.50202,0.7737 0.375,1.1047 -0.12701,0.331 0.18823,3.12624 0.70055,6.21165 2.03544,12.25839 2.68726,20.96893 3.11836,41.67227 0.68199,32.75266 1.32549,41.96397 4.47873,64.11102 3.01276,21.16036 3.55429,25.87659 3.02475,26.34296 -0.43667,0.38458 -11.36991,2.14115 -16.39654,2.63433 -2.72321,0.26718 -2.76215,0.25412 -2.38471,-0.79996 z"
             id="path1421"
             inkscape:label="color middle"
             transform="matrix(0.26458333,0,0,0.26458333,20.975346,-17.69967)" /><path
             style="display:inline;fill:#000000;fill-opacity:1;stroke:none;stroke-width:0.365001;stroke-linecap:round;stroke-linejoin:round;stroke-dasharray:none;stroke-opacity:1"
             id="path1330"
             d="m 79.967298,212.63633 c -0.08106,1.39703 -0.324194,2.77467 -0.577852,4.14878 -0.434571,1.75957 -0.901137,3.51218 -1.248889,5.29158 -0.238967,1.39219 -0.218419,2.77222 0.06511,4.15135 0.257635,0.96759 0.60612,1.99756 1.534109,2.52273 1.836301,1.03921 3.696899,2.03489 5.54535,3.05233 1.310647,0.29759 2.661652,0.29751 3.998261,0.31527 0.846765,-0.0812 1.769803,0.16886 2.593451,-0.12027 0.489871,-0.17197 1.060876,-0.57218 1.487646,-0.84325 0.937332,-0.56954 1.969699,-1.31551 3.119859,-1.33303 0.521295,-0.008 1.03139,0.19904 1.514747,0.3532 1.21557,0.48337 2.32734,1.13719 3.62337,1.38654 1.06574,0.19678 2.14867,0.20127 3.22791,0.21065 1.29848,0.0584 1.83155,-0.23324 2.4896,-1.34347 0.43301,-1.15139 0.60554,-2.39254 0.68994,-3.61464 0.0659,-1.15476 0.0387,-2.31197 0.0514,-3.46799 0,0 -5.05417,-2.58061 -5.05417,-2.58061 v 0 c -0.007,1.13101 -0.0378,2.2613 -0.11351,3.39008 -0.10365,1.1328 -0.21203,2.27724 -0.63636,3.3445 -0.55344,0.94861 -1.10898,0.85593 -2.12845,0.84672 -1.050135,-0.0188 -2.107473,-0.0608 -3.133797,-0.30422 -1.221785,-0.36421 -2.328352,-1.00342 -3.559032,-1.34205 -0.272699,-0.0513 -0.541468,-0.13215 -0.818092,-0.15403 -1.498097,-0.11844 -2.837233,0.75262 -4.053245,1.50696 -0.597929,0.31638 -0.786341,0.47376 -1.434616,0.61128 -0.824648,0.17492 -1.697098,-0.003 -2.529054,0.0549 -1.307774,-0.0242 -2.644788,-0.049 -3.890515,-0.49279 1.474025,0.87081 2.958735,1.72377 4.422074,2.61242 0.159829,0.0971 -0.347433,-0.14172 -0.508892,-0.23604 -0.698717,-0.40816 -1.021257,-1.13468 -1.253839,-1.87691 -0.323133,-1.30953 -0.369223,-2.61272 -0.156155,-3.94968 0.237575,-1.80212 0.624811,-3.57768 1.166263,-5.31411 0.282617,-1.34072 0.551323,-2.68448 0.792834,-4.03242 z"
             inkscape:label="left bottom pants" /><path
             style="display:inline;fill:#000000;fill-opacity:1;stroke:none;stroke-width:0.365001;stroke-linecap:round;stroke-linejoin:round;stroke-dasharray:none;stroke-opacity:1"
             id="path1331"
             d="m 120.54471,216.1701 c 0.11128,1.17732 0.49376,2.31132 0.73609,3.46765 0.27325,1.37169 0.57733,2.73514 0.99602,4.07014 0.58074,1.67734 0.88835,3.4084 1.05048,5.17066 0.0118,0.7607 0.24441,1.86717 -0.34751,2.50524 -0.20844,0.22468 -0.43653,0.25996 -0.71435,0.35437 -0.55775,0.10406 -1.13569,0.23222 -1.69931,0.0655 -0.76005,-0.22481 -7.50231,-4.09977 2.127,1.23616 -3.14309,-2.41831 -6.24553,-4.96384 -10.04653,-6.32978 -1.46996,-0.33962 -3.00201,-0.57329 -4.51264,-0.4541 -1.17593,0.16857 -2.32724,0.43682 -3.51217,0.56177 -0.73522,0.0716 -1.4739,0.0878 -2.21185,0.10522 0,0 4.71655,3.40443 4.71655,3.40443 v 0 c 0.74222,-0.0286 1.48365,-0.0746 2.22169,-0.16144 1.16777,-0.15778 2.31644,-0.4266 3.48957,-0.52767 1.45017,-0.0251 2.91542,0.1129 4.29057,0.59941 2.00632,0.91226 2.10709,0.99003 -3.31677,-2.04748 -0.28699,-0.16072 0.54449,0.36937 0.81027,0.56315 0.52251,0.38094 1.37028,1.05098 1.8677,1.44369 0.34196,0.26998 0.6826,0.54164 1.0239,0.81245 1.94097,1.16006 3.86852,2.34285 5.8229,3.48017 1.27847,0.74398 2.38446,0.96798 3.78428,0.47069 0.16793,-0.0909 0.35007,-0.1594 0.50381,-0.27264 1.02826,-0.75741 0.86372,-2.18014 0.76084,-3.29012 -0.16246,-1.76883 -0.32564,-3.53625 -0.89993,-5.23061 -0.40802,-1.32513 -0.77663,-2.66134 -1.04067,-4.02375 -0.16355,-0.88027 -0.34299,-1.76143 -0.53073,-2.6361 -0.0243,-0.11345 -0.0847,-0.2187 -0.0983,-0.33394 -0.012,-0.10148 0.0153,-0.2038 0.0229,-0.3057 z"
             inkscape:label="right bottom pants" /><path
             style="display:inline;fill:#116eff;fill-opacity:1;stroke:none;stroke-width:1.37953;stroke-linecap:round;stroke-linejoin:round;stroke-dasharray:none;stroke-opacity:1"
             d="M 370.53273,936.57407 C 359.92664,928.88793 349.97007,923.921 342.43822,922.55888 l -5.81855,-1.05228 -3.03765,-22.11139 c -3.02485,-22.01811 -5.00536,-50.79958 -5.01049,-72.8142 -0.004,-15.23421 -2.49394,-38.34313 -4.3536,-40.39803 -0.79319,-0.87646 -2.7064,-2.11723 -4.25158,-2.75726 -1.54519,-0.64004 -2.61079,-1.68136 -2.36801,-2.31405 0.24279,-0.63268 -1.1847,-2.06427 -3.1722,-3.1813 l -3.61362,-2.03097 -1.01498,3.08035 c -3.21207,9.74825 -3.91994,21.27404 -4.82152,78.50507 -0.5082,32.25986 -1.34753,59.93157 -1.91161,63.0235 -0.89822,4.92344 -0.82345,5.64628 0.70005,6.76803 1.64362,1.2102 1.64274,1.28027 -0.0243,1.9262 -3.4152,1.32333 -15.33121,-0.44021 -22.57608,-3.3412 -10.01475,-4.0101 -14.38366,-3.83382 -23.12884,0.9332 -6.38838,3.48233 -7.43987,3.75797 -14.33511,3.75797 h -7.44105 l -0.62218,-3.31649 c -0.89872,-4.7906 0.32181,-14.24646 3.44785,-26.71171 1.50189,-5.98885 2.99175,-12.85671 3.31081,-15.26191 0.5606,-4.22596 0.47039,-4.43785 -2.68094,-6.29717 l -3.26105,-1.92407 -0.67065,-28.63435 c -0.36886,-15.7489 -1.2768,-37.33177 -2.01766,-47.96194 -0.74086,-10.63018 -1.35058,-25.75061 -1.35494,-33.60098 -0.0104,-18.79776 -0.0132,-18.79368 12.55009,-18.55462 10.02648,0.19078 21.9314,2.04069 35.86889,5.57366 12.99883,3.29503 26.70586,4.33337 59.28704,4.49113 l 28.04657,0.1358 0.002,20.87761 c 0.004,38.42959 2.04219,48.71163 16.32873,82.35998 6.07356,14.30477 9.1291,23.68327 9.1291,28.02041 0,2.10577 -0.24791,2.0439 -8.58359,-2.14253 -4.72096,-2.37102 -8.77045,-4.12407 -8.99884,-3.89567 -0.46181,0.46182 2.92467,15.60321 7.18729,32.13532 1.5319,5.94129 2.86395,13.66214 2.9601,17.15745 0.15345,5.57779 -0.0858,6.5662 -1.95636,8.08086 -1.17216,0.94916 -2.82667,1.70501 -3.67667,1.67968 -0.85001,-0.0254 -5.35989,-2.81035 -10.02197,-6.18891 z"
             id="path1420"
             inkscape:label="color bottom"
             transform="matrix(0.26458333,0,0,0.26458333,20.975346,-17.69967)" /><path
             style="display:inline;fill:#000000;fill-opacity:1;stroke:none;stroke-width:0.365001;stroke-linecap:round;stroke-linejoin:round;stroke-dasharray:none;stroke-opacity:1"
             id="path1344"
             d="m 77.342843,205.11124 c 0.09449,2.27847 0.120917,4.55814 0.208706,6.83708 0.05078,2.50548 0.292767,5.00006 0.43148,7.50089 0.22316,2.81628 0.406143,5.6357 0.500089,8.45927 0.055,3.19651 0.04275,6.39377 0.05301,9.59067 0.04899,2.54125 -0.142042,5.07603 -0.58756,7.57679 0,0 3.294867,1.75269 3.294867,1.75269 v 0 c 0.452654,-2.53885 0.617825,-5.09791 0.533746,-7.67846 0.0043,-3.20599 -0.01878,-6.41151 -0.08697,-9.61688 -0.01402,-1.10423 -5.29e-4,-2.20902 -0.03665,-3.31274 -0.05599,-1.70563 -0.277765,-3.40441 -0.362787,-5.10842 -0.132066,-2.50383 -0.342471,-5.00163 -0.452535,-7.5066 -0.102666,-2.23604 -0.135752,-4.47366 0.0078,-6.70933 z"
             transform="translate(1.5003458,-25.49967)" /><path
             style="display:inline;fill:#000000;fill-opacity:1;stroke:none;stroke-width:0.365001;stroke-linecap:round;stroke-linejoin:round;stroke-dasharray:none;stroke-opacity:1"
             id="path1345"
             d="m 117.1937,206.03633 c -0.10318,2.20628 -0.10433,4.41621 -0.12967,6.6245 0.0277,2.52799 -0.11056,5.05814 0.0382,7.58407 0.0907,1.54028 0.18754,2.18287 0.36581,3.71873 0.62543,4.24263 2.32973,8.20892 4.02331,12.11459 0.67576,1.63307 1.43745,3.239 1.88712,4.95499 0.25278,0.96465 0.26453,1.23614 0.41595,2.24445 0.22431,1.98063 0.22431,3.97562 0.22506,5.96585 0,0 3.33856,1.69881 3.33856,1.69881 v 0 c -0.0208,-2.00765 -0.043,-4.01868 -0.2253,-6.01951 -0.12328,-1.03744 -0.11695,-1.298 -0.37525,-2.29121 -0.46005,-1.76894 -1.28005,-3.40513 -2.01904,-5.06689 -1.76454,-3.85508 -3.51946,-7.77368 -4.07396,-12.01883 -0.16688,-1.42762 -0.28283,-2.26227 -0.37742,-3.69477 -0.16592,-2.51286 -0.0506,-5.03136 -0.0121,-7.54632 0.0597,-2.15768 0.0711,-4.33924 0.44802,-6.47021 z"
             transform="translate(1.5003458,-25.49967)" /><path
             style="display:inline;fill:#000000;fill-opacity:1;stroke:none;stroke-width:0.365001;stroke-linecap:round;stroke-linejoin:round;stroke-dasharray:none;stroke-opacity:1"
             id="path1349"
             d="m 101.74825,213.28424 c -0.74461,2.47788 -1.03237,5.06311 -1.25603,7.63134 -0.28923,4.59294 -0.2577,9.19843 -0.29671,13.79825 -0.0281,3.11865 -0.0653,6.2373 -0.0616,9.35612 -0.0227,2.18207 0.0897,4.36742 -0.148411,6.5401 -0.03781,0.75225 -0.282165,1.43381 -0.568952,2.11788 0,0 1.677923,0.93964 1.677923,0.93964 v 0 c 0.2884,-0.70513 0.53817,-1.40702 0.56758,-2.18045 0.23206,-2.18465 0.10524,-4.38083 0.12685,-6.57421 -0.005,-3.13881 -0.0544,-6.27734 -0.0587,-9.41618 0.006,-4.5844 0.0276,-9.17516 0.35749,-13.74977 0.24316,-2.52705 0.51366,-5.09637 1.37199,-7.50154 z"
             transform="translate(1.5003458,-25.49967)" /><path
             style="display:inline;fill:#000000;fill-opacity:1;stroke:none;stroke-width:0.365001;stroke-linecap:round;stroke-linejoin:round;stroke-dasharray:none;stroke-opacity:1"
             id="path1350"
             d="m 103.61647,215.03917 c 0.44547,2.12781 0.71322,4.27733 0.88894,6.44279 0.22615,3.11129 0.18773,6.23226 0.27829,9.34829 0.12118,2.80969 0.17142,5.62057 0.40964,8.42345 0.26669,2.79566 0.78928,5.55925 1.1498,8.34462 0.23932,1.6845 0.40603,3.37786 0.65062,5.06141 0,0 1.69081,0.82878 1.69081,0.82878 v 0 c -0.28158,-1.68669 -0.47548,-3.38583 -0.70194,-5.08065 -0.34431,-2.78572 -0.86072,-5.54669 -1.15163,-8.33702 -0.23444,-2.80102 -0.27299,-5.61175 -0.42014,-8.41826 -0.11492,-3.11534 -0.0529,-6.23636 -0.26071,-9.34879 -0.16283,-2.13632 -0.39743,-4.2604 -0.77774,-6.36992 z"
             transform="translate(1.5003458,-25.49967)" /></g></g></g></g></svg>
