<?xml version="1.0" encoding="UTF-8" standalone="no"?>
<!-- Created with Inkscape (http://www.inkscape.org/) -->

<svg
   width="10.425034mm"
   height="1.5961074mm"
   viewBox="0 0 10.425034 1.5961074"
   version="1.1"
   id="svg1"
   inkscape:version="1.3.2 (091e20e, 2023-11-25, custom)"
   sodipodi:docname="mage.svg"
   xml:space="preserve"
   inkscape:export-filename="..\separated\bottom-body-cloths.svg"
   inkscape:export-xdpi="96"
   inkscape:export-ydpi="96"
   xmlns:inkscape="http://www.inkscape.org/namespaces/inkscape"
   xmlns:sodipodi="http://sodipodi.sourceforge.net/DTD/sodipodi-0.dtd"
   xmlns="http://www.w3.org/2000/svg"
   xmlns:svg="http://www.w3.org/2000/svg"><sodipodi:namedview
     id="namedview1"
     pagecolor="#ffffff"
     bordercolor="#000000"
     borderopacity="0.25"
     inkscape:showpageshadow="2"
     inkscape:pageopacity="0.0"
     inkscape:pagecheckerboard="0"
     inkscape:deskcolor="#d1d1d1"
     inkscape:document-units="mm"
     inkscape:export-bgcolor="#ffffff00"
     inkscape:zoom="4.2426407"
     inkscape:cx="241.83052"
     inkscape:cy="290.03163"
     inkscape:window-width="1304"
     inkscape:window-height="745"
     inkscape:window-x="1358"
     inkscape:window-y="-8"
     inkscape:window-maximized="1"
     inkscape:current-layer="g151" /><defs
     id="defs1" /><g
     inkscape:groupmode="layer"
     id="layer4"
     inkscape:label="mage"
     transform="translate(-123.71267,-155.86959)"
     inkscape:highlight-color="#7d39ff"><g
       id="g151"
       inkscape:label="beard"
       style="display:inline"
       transform="translate(31.929799,2.9934187)"
       inkscape:export-filename="..\separated\beard.svg"
       inkscape:export-xdpi="96"
       inkscape:export-ydpi="96"><path
         style="display:inline;fill:#000000;fill-opacity:1;stroke:none;stroke-width:0.365001;stroke-linecap:round;stroke-linejoin:round;stroke-dasharray:none;stroke-opacity:1"
         id="path52"
         d="m 93.671246,154.36897 c 0.464481,-0.14637 0.943705,-0.23799 1.409356,-0.38043 0.549505,-0.19497 1.114745,-0.3106 1.688467,-0.40312 0.72381,-0.11065 1.456407,-0.12939 2.18707,-0.14467 0.380301,0.0329 0.84038,-0.0556 1.215861,0.014 0.15979,0.0296 0.33541,0.11691 0.48185,0.18107 0.13095,0.059 0.39851,0.17784 0.52545,0.24223 0.0803,0.0407 0.31495,0.17447 0.23685,0.12972 -1.41154,-0.80878 -0.62349,-0.43305 -0.50916,-0.23612 -0.44335,0.08 -0.89811,0.0733 -1.347101,0.0774 -0.614106,5.3e-4 -1.228204,-0.002 -1.84231,-0.003 -0.53662,-0.002 -1.073234,-0.004 -1.609849,-0.007 -0.432411,-10e-4 -0.864817,-7.9e-4 -1.297228,-0.002 -0.328507,-0.002 -0.657019,-0.003 -0.985528,-0.004 -0.228373,-0.002 -0.456936,0.0169 -0.684112,-0.0138 -0.0422,-0.006 -0.16197,-0.045 -0.125735,-0.0226 0.258998,0.15992 0.533709,0.29287 0.800565,0.43931 0.0044,0.0124 2.33e-4,0.0401 0.01312,0.0373 0.05069,-0.0107 0.09222,-0.0473 0.139009,-0.0695 0.06737,-0.032 0.134551,-0.0647 0.20343,-0.0933 0.255908,-0.10651 0.520171,-0.18395 0.786728,-0.25805 0.479454,-0.15264 0.970889,-0.23926 1.471152,-0.27979 0.565081,-0.0277 1.131303,-0.0336 1.696993,-0.04 0.848418,-0.006 1.696913,0.002 2.545276,0.0117 0.21827,0.003 0.25932,-0.003 0.46227,0.0222 0.0462,0.006 0.0926,0.0122 0.13761,0.0242 0.0219,0.006 0.0803,0.0414 0.0616,0.0286 -0.83303,-0.56565 -0.50134,-0.53893 -0.91093,-0.55509 -0.0481,0.004 -0.0964,0.004 -0.14414,0.0105 -0.14859,0.0213 -0.294599,0.0581 -0.442771,0.0822 -0.277217,0.045 -0.55517,0.0741 -0.834657,0.1002 -0.619914,0.0471 -1.242034,0.0531 -1.863424,0.0584 -0.687411,0.009 -1.374851,0.001 -2.062257,-0.003 -0.0726,0.004 -0.304099,-0.006 -0.386628,0.0588 -0.09153,0.0718 -0.03806,0.18262 0.04356,0.23122 0.8978,0.53463 0.679818,0.46979 1.252382,0.57731 0.607004,0.087 1.221973,0.0968 1.834134,0.10702 0.547626,0.009 1.095317,0.006 1.642983,0.004 0.52129,0.01 1.042258,-0.003 1.563458,-0.007 0.30462,0.007 0.60949,-0.004 0.91334,-0.0251 0.002,-1.4e-4 0.22564,-0.0144 0.23908,-0.0303 0.0242,-0.0287 0.0206,-0.0723 0.0309,-0.10839 -0.30413,-0.17623 -0.601,-0.36563 -0.91238,-0.5287 -0.0374,-0.0196 -0.084,-0.008 -0.1256,-0.0149 -0.0534,-0.009 -0.10613,-0.0211 -0.15927,-0.0313 -0.18432,-0.0353 -0.36776,-0.0616 -0.55416,-0.0832 -0.473764,-0.0488 -0.951292,-0.0431 -1.426976,-0.0426 -0.853131,0.002 -1.706229,0.009 -2.559362,0.0119 -0.76535,-2.3e-4 -1.53067,-0.007 -2.29597,-0.0149 -0.494874,-0.0183 -0.986377,0.001 -1.478626,0.0514 -0.152797,0.0379 -0.910834,0.12007 -0.912689,0.37373 -2.56e-4,0.035 0.02291,0.0662 0.03437,0.0993 0.338621,0.17036 0.663366,0.37167 1.015867,0.51106 0.09551,0.0378 0.205211,0.01 0.30788,0.0124 0.142602,0.004 0.285237,0.008 0.427895,0.008 0.523581,-5.3e-4 1.047861,-0.0206 1.571275,-0.0327 0.703789,-0.0515 1.411148,-0.0704 2.113304,-0.14188 0.588285,-0.072 1.180574,-0.0934 1.772555,-0.10641 0.500983,-0.006 1.002057,-0.008 1.503067,-0.008 0,0 -0.766671,-0.55698 -0.766671,-0.55698 v 0 c -0.498498,5.3e-4 -0.997005,-10e-4 -1.495319,0.0164 -0.595307,0.0181 -1.19158,0.0358 -1.783416,0.10724 -0.688604,0.0689 -1.379397,0.11858 -2.069827,0.16487 -0.525664,0.0179 -1.051703,0.0376 -1.577748,0.0204 -0.148828,-0.005 -0.297566,-0.0137 -0.445944,-0.0263 -0.1084,-0.009 -0.394428,-0.12173 -0.324046,-0.0388 0.171625,0.20227 0.442473,0.29273 0.663712,0.4391 -0.02296,7.9e-4 -0.122335,0.0259 -0.08238,-0.0353 0.132787,-0.20359 0.605312,-0.21136 0.803963,-0.26767 0.495676,-0.0372 0.991135,-0.0322 1.487951,-0.0345 0.750938,-0.009 1.501899,-0.0155 2.252893,-0.0164 0.864629,0.002 1.729269,0.006 2.593855,0.0141 0.480077,0.007 0.961627,0.01 1.439167,0.0654 0.18638,0.0252 0.37034,0.0547 0.55452,0.093 0.40615,0.0844 0.87693,0.33057 -0.48364,-0.40246 0.0228,-0.019 0.0562,-0.03 0.0684,-0.0571 0.007,-0.0159 -0.0327,0.0128 -0.0499,0.016 -0.0496,0.009 -0.0998,0.0155 -0.14991,0.021 -0.29442,0.0325 -0.59098,0.0411 -0.88702,0.0355 -0.526417,-0.003 -1.052604,-0.0159 -1.579083,-0.004 -0.545623,2.6e-4 -1.091266,0.002 -1.636879,-0.002 -0.612484,-0.0105 -1.229219,-0.0182 -1.833462,-0.12977 -0.07929,-0.0197 -0.300095,-0.11201 -0.237865,-0.0591 0.194463,0.1654 0.445182,0.25317 0.648136,0.40804 0.184015,0.14042 -0.182673,-0.0144 -0.147471,-0.0374 0.08582,-0.056 0.268298,-0.047 0.344967,-0.0514 0.684098,-0.003 1.368195,-0.008 2.052304,-0.005 0.625903,-0.003 1.252381,-0.006 1.876581,-0.0589 0.487412,-0.0454 0.969422,-0.13042 1.456672,-0.17253 0.43129,-0.10597 0.1885,-0.0141 -0.67003,-0.61287 -0.0333,-0.0232 -0.36737,-0.0249 -0.38553,-0.0251 -0.0838,-7.9e-4 -0.167583,0.002 -0.251376,0.003 -0.84014,0.009 -1.680401,0.0131 -2.520569,0.006 -0.580311,-0.006 -1.161701,-0.0294 -1.740998,0.0187 -0.500481,0.0508 -0.989471,0.14615 -1.468837,0.30248 -0.347898,0.0986 -0.689139,0.2058 -1.021104,0.35039 -0.05677,0.0247 -0.119632,0.04 -0.168661,0.0778 -0.04319,0.0333 -0.06672,0.0863 -0.100082,0.12944 0.300117,0.16678 0.593416,0.34647 0.900348,0.50035 0.03667,0.0184 0.08151,0.009 0.122418,0.0124 0.230767,0.0167 0.462333,0.006 0.693441,0.0115 0.324622,-0.002 0.649248,-0.002 0.973868,-0.004 0.43113,-7.9e-4 0.862253,-2.6e-4 1.293381,-0.001 0.532177,-0.002 1.064371,-0.004 1.596548,-0.002 0.612588,0.002 1.225257,0.006 1.837803,-0.002 0.17788,-0.003 0.51727,-0.008 0.69238,-0.0129 0.16988,-0.005 0.5538,0.0194 0.71088,-0.0872 0.0345,-0.0234 0.053,-0.0643 0.0795,-0.0965 -0.0136,-0.11988 0.008,-0.12148 -0.12094,-0.20131 -0.56995,-0.35188 -1.14391,-0.6882 -1.762213,-0.94523 -0.193485,-0.0753 -0.29609,-0.12847 -0.503756,-0.15688 -0.393446,-0.0538 -0.799902,0.0351 -1.194216,0.01 -0.738155,0.0164 -1.478705,0.0306 -2.209815,0.14385 -0.112877,0.0176 -0.486125,0.0741 -0.601964,0.0982 -0.372375,0.0775 -0.730396,0.21162 -1.096243,0.31301 -0.478309,0.13619 -0.965841,0.23717 -1.448261,0.35796 z"
         inkscape:label="mouth"
         transform="translate(1.0208333e-6)" /></g></g></svg>
