<?xml version="1.0" encoding="UTF-8" standalone="no"?>
<!-- Created with Inkscape (http://www.inkscape.org/) -->

<svg
   width="10.509965mm"
   height="3.9307032mm"
   viewBox="0 0 10.509965 3.9307032"
   version="1.1"
   id="svg1"
   inkscape:version="1.3.2 (091e20e, 2023-11-25, custom)"
   sodipodi:docname="mage.svg"
   xml:space="preserve"
   inkscape:export-filename="..\separated\bottom-body-cloths.svg"
   inkscape:export-xdpi="96"
   inkscape:export-ydpi="96"
   xmlns:inkscape="http://www.inkscape.org/namespaces/inkscape"
   xmlns:sodipodi="http://sodipodi.sourceforge.net/DTD/sodipodi-0.dtd"
   xmlns="http://www.w3.org/2000/svg"
   xmlns:svg="http://www.w3.org/2000/svg"><sodipodi:namedview
     id="namedview1"
     pagecolor="#ffffff"
     bordercolor="#000000"
     borderopacity="0.25"
     inkscape:showpageshadow="2"
     inkscape:pageopacity="0.0"
     inkscape:pagecheckerboard="0"
     inkscape:deskcolor="#d1d1d1"
     inkscape:document-units="mm"
     inkscape:export-bgcolor="#ffffff00"
     inkscape:zoom="4.2426407"
     inkscape:cx="241.83052"
     inkscape:cy="290.03163"
     inkscape:window-width="1304"
     inkscape:window-height="745"
     inkscape:window-x="1358"
     inkscape:window-y="-8"
     inkscape:window-maximized="1"
     inkscape:current-layer="g151" /><defs
     id="defs1" /><g
     inkscape:groupmode="layer"
     id="layer4"
     inkscape:label="mage"
     transform="translate(-123.71247,-155.86922)"
     inkscape:highlight-color="#7d39ff"><g
       id="g151"
       inkscape:label="beard"
       style="display:inline"
       transform="translate(31.929799,2.9934187)"
       inkscape:export-filename="..\separated\beard.svg"
       inkscape:export-xdpi="96"
       inkscape:export-ydpi="96"><path
         style="display:inline;fill:#800000;fill-opacity:1;stroke-width:0.365001;stroke-linecap:round;stroke-linejoin:round"
         id="path136"
         d="m 99.613511,153.71721 c -0.05223,0.0867 -0.159096,0.11149 -0.247557,0.14523 -0.105947,0.022 -0.203216,0.0688 -0.304544,0.10398 -0.09406,0.069 -0.202549,0.1054 -0.310859,0.14423 -0.01842,0.005 -0.03667,0.0107 -0.05524,0.0152 -0.05566,0.0133 -0.04532,0.005 -0.09884,0.0259 -0.04489,0.0179 -0.08136,0.0338 -0.128871,0.0441 -0.02666,0.0181 -0.06069,0.0147 -0.08903,0.0274 -0.01672,0.007 -0.03086,0.0198 -0.04678,0.0289 -0.04034,0.023 -0.08011,0.0444 -0.119216,0.0697 -0.03193,0.0236 -0.07064,0.0261 -0.106717,0.0374 -0.04003,0.0126 -0.07576,0.0331 -0.116282,0.0454 -0.08289,0.0233 -0.153826,0.0724 -0.230724,0.10885 -0.05061,0.024 -0.0695,0.0284 -0.121365,0.0454 -0.09402,0.0282 -0.191966,0.0228 -0.288697,0.0246 -0.133745,0.0154 -0.268441,0.01 -0.4025,0.003 -0.06574,0.001 -0.13371,-0.0147 -0.199451,-0.008 -0.0081,8e-4 -0.09416,0.0217 -0.100227,0.0232 -0.136893,0.0378 -0.279601,0.0395 -0.42032,0.0483 -0.146005,0.009 -0.292285,0.003 -0.438422,0.002 -0.130315,-3e-5 -0.260363,-7.9e-4 -0.390549,-0.007 -0.09646,-6e-5 -0.192828,-0.003 -0.289229,-0.006 -0.08146,-0.003 -0.162719,0.003 -0.244235,0.003 -0.04838,-0.002 -0.09748,0.006 -0.145806,0.002 -0.04658,-0.005 -0.09421,-0.0173 -0.140618,-0.0245 -0.03538,-0.0281 -0.08699,-0.0158 -0.125294,-0.0328 -0.01243,-0.006 -0.0204,-0.0182 -0.0317,-0.0258 -0.126066,-0.0844 0.05069,0.0452 -0.06863,-0.0439 -0.08466,-0.0421 -0.179086,-0.0583 -0.268991,-0.0854 -0.123198,-0.0234 -0.237771,-0.0746 -0.355796,-0.11591 -0.109172,-0.041 -0.220237,-0.0795 -0.33428,-0.10446 -0.02832,-0.0103 -0.05916,-0.005 -0.08795,-0.0113 -0.01169,-0.003 -0.02204,-0.01 -0.03341,-0.0134 -0.03785,-0.0127 -0.0699,-0.0153 -0.109423,-0.013 -0.05231,-0.009 -0.115224,0.012 -0.166024,-0.007 -0.0074,-0.003 -0.02389,-0.0205 -0.01752,-0.0158 0.538657,0.39001 1.076312,0.78141 1.614466,1.17212 0.102735,-0.0246 0.212117,-0.0226 0.317458,-0.0245 0.109804,-0.007 0.220072,0.002 0.329845,-0.001 0.0529,-0.002 0.105572,-0.008 0.158364,-0.0112 0.131842,-0.011 0.264308,-0.01 0.396504,-0.0119 0.13289,-0.005 0.266036,0.001 0.398759,-0.007 0.160796,-0.004 0.320929,0.003 0.481119,-0.013 0.162967,-0.0132 0.32612,-0.0259 0.489508,-0.0333 0.142544,-0.007 0.284655,-0.0176 0.427416,-0.0181 0.169193,0.002 0.337359,-0.0159 0.506407,-0.0213 0.164005,-0.007 0.328139,-0.0109 0.49231,-0.0125 0.141028,0.004 0.28189,0.01 0.422889,0.0136 0.113374,5.3e-4 0.226597,6e-5 0.339992,-0.001 0.105961,0.004 0.211958,0.002 0.317926,0.005 0.07803,-0.002 0.15598,-2.7e-4 0.233977,0.002 0,0 -1.5693,-1.14016 -1.5693,-1.14016 v 0 c -0.07622,0.002 -0.152402,0.003 -0.228661,0.002 -0.101089,0.003 -0.202213,0.001 -0.303292,0.005 -0.114643,-0.001 -0.229121,-0.002 -0.343741,-0.002 -0.128818,0.004 -0.257426,0.009 -0.386223,0.0147 -0.170563,7.9e-4 -0.340926,-2e-5 -0.511236,0.0111 -0.16483,0.0147 -0.329342,0.0231 -0.494945,0.0184 -0.152075,0.003 -0.304715,-0.005 -0.455676,0.0185 -0.157379,0.0263 -0.316497,0.0322 -0.475888,0.0354 -0.157032,0.006 -0.314055,0.0104 -0.471196,0.004 -0.139644,-0.007 -0.279638,-0.003 -0.419418,-0.002 -0.129934,0.004 -0.258688,0.0184 -0.388236,0.0286 -0.158049,0.0111 -0.316688,0.009 -0.475004,0.005 -0.133045,-0.002 -0.266517,-0.007 -0.39856,-0.0241 0.530095,0.39105 1.058132,0.78489 1.590286,1.17313 0.0038,0.003 -0.0055,-0.0115 -0.0016,-0.0141 0.0071,-0.005 0.01693,-0.002 0.02545,-0.002 0.04013,8e-4 0.08021,0.009 0.119314,0.0168 0.06974,0.0243 0.140833,0.0298 0.211413,0.0501 0.09979,0.0308 0.199625,0.0613 0.297762,0.0971 0.123714,0.0444 0.248457,0.0848 0.374047,0.12296 0.09334,0.0317 0.182007,0.0733 0.26789,0.12157 0.0057,0.002 0.07473,0.0226 0.08095,0.0235 0.01617,0.003 0.03278,8e-4 0.04901,0.003 0.04375,0.006 0.08559,0.0246 0.130757,0.0182 0.09986,0.007 0.199607,0.002 0.299646,0.005 0.08396,-1.2e-4 0.167727,0.006 0.251619,0.003 0.09093,-0.003 0.181824,-0.006 0.272817,-0.006 0.124515,-0.006 0.248888,-0.006 0.373538,-0.006 0.147088,-0.002 0.2939,-0.009 0.440931,-0.014 0.145489,-0.009 0.288303,-0.0417 0.434248,-0.0432 0.09739,0.003 0.194595,0.01 0.291943,-7.9e-4 0.141262,-0.008 0.282438,-0.008 0.423799,-0.001 0.108342,-0.009 0.213345,-0.0423 0.31127,-0.0895 0.113043,-0.0597 0.228581,-0.10611 0.354578,-0.13129 0.08903,-0.0296 0.176401,-0.0549 0.252254,-0.11338 0.07353,-0.037 0.147259,-0.0696 0.22719,-0.0904 0.0918,-0.0341 0.18426,-0.0665 0.27367,-0.10655 0.11026,-0.0424 0.21632,-0.0929 0.32574,-0.13675 0.0961,-0.0402 0.19518,-0.0726 0.29082,-0.11411 0.1111,-0.0438 0.21229,-0.11148 0.32837,-0.14289 z"
         transform="translate(1.0208333e-6)" /><path
         id="path131"
         style="display:inline;fill:#000000;fill-opacity:1;stroke:none;stroke-width:0.365001;stroke-linecap:round;stroke-linejoin:round;stroke-dasharray:none;stroke-opacity:1"
         inkscape:label="mouth"
         d="m 99.110915,152.87618 c -0.298783,0.001 -0.601367,0.0462 -0.897102,0.0274 -0.584784,0.013 -1.170959,0.0257 -1.752865,0.0863 -0.269444,4.1e-4 -0.538843,0.006 -0.807703,0.0284 -0.50048,0.0508 -0.989795,0.14649 -1.469161,0.30282 -0.101689,0.0288 -0.202337,0.0589 -0.302823,0.0899 -0.396099,-0.003 -0.790525,0.0164 -1.185458,0.0568 -0.09797,0.0243 -0.444349,0.067 -0.681095,0.16123 l -0.06718,-0.0351 c 0.0032,0.0213 0.0028,0.0424 0.0031,0.0636 -0.0988,0.0485 -0.167396,0.10839 -0.167948,0.18396 -2.56e-4,0.035 0.02316,0.0661 0.03462,0.0992 0.02755,0.0139 0.05477,0.0287 0.08217,0.0429 -0.02779,0.12917 -0.0315,0.23014 0.01654,0.35399 0.02832,0.0523 0.05137,0.12259 0.106453,0.15451 1.666299,0.96568 1.079185,0.86995 1.716175,0.97927 0.172809,0.21331 0.204805,0.0274 1.574064,0.77566 0.01141,0.006 0.05138,0.001 0.08371,-0.004 0.03891,0.007 0.07721,0.01 0.116789,0.0134 0.07446,-0.01 0.15031,-0.006 0.225309,-0.007 0.08135,0.002 0.162573,-5.2e-4 0.243913,-5.2e-4 0.06403,-0.002 0.127463,-0.011 0.189653,-0.0258 0.0288,0.0165 0.05748,0.0331 0.0863,0.0496 0.0455,0.0282 0.09227,0.0548 0.139527,0.0827 0.03534,0.0253 0.07138,0.0461 0.10852,0.0625 0.3427,0.19296 0.710428,0.35692 1.008207,0.37 0.09,0.004 0.180248,-0.006 0.270268,-0.009 0.05075,-0.001 0.101389,-0.004 0.151929,-0.007 l 0.04444,0.0346 c -0.01529,-0.0145 -0.02543,-0.0257 -0.03927,-0.0351 0.433099,-0.029 0.857955,-0.13548 1.278474,-0.23875 0.39448,-0.12182 0.793599,-0.0477 1.193729,-0.0145 0.0813,-0.0131 0.16516,-0.0151 0.24391,-0.0393 0.4906,-0.15097 0.8541,-0.56505 1.16478,-0.94981 0.19306,-0.26634 0.36064,-0.5492 0.42995,-0.87282 0.0281,-0.15562 0.0263,-0.31417 0.0398,-0.47129 l -0.0884,-0.046 c 0.001,-0.006 0.002,-0.013 0.004,-0.0191 -0.29613,-0.1716 -0.58585,-0.35511 -0.88831,-0.51521 0.27669,-0.0695 0.0101,-0.0465 -0.76792,-0.58912 -0.0333,-0.0232 -0.36734,-0.0246 -0.3855,-0.0248 -0.0838,-7.9e-4 -0.167871,0.002 -0.251664,0.003 -0.04859,5.2e-4 -0.09714,5.5e-4 -0.145728,0.001 -0.111577,-0.0442 -0.213331,-0.0811 -0.360701,-0.10128 -0.09836,-0.0135 -0.197545,-0.018 -0.29714,-0.0176 z m -7.09104,1.23713 c -0.0045,-0.006 0.04745,0.0242 0.133326,0.0765 l -0.08578,-0.0408 c 2.8e-4,8.8e-4 7.43e-4,0.002 0.001,0.003 -0.02589,-0.0195 -0.04625,-0.0349 -0.04858,-0.0382 z m 8.292515,0.28061 c 0.001,-2e-5 0.003,2e-5 0.005,0 -0.032,0.0608 -0.0658,0.12081 -0.10232,0.17983 -0.319136,0.4516 -0.724706,0.84746 -1.317745,0.8201 -0.41687,-0.0438 -0.839599,-0.068 -1.245919,0.0594 -0.363369,0.10167 -0.732363,0.20157 -1.109493,0.22221 l -0.08992,-0.0708 c -0.04555,-9.4e-4 -0.09085,9.7e-4 -0.136426,0.001 -1.430298,-0.91468 -1.035487,-0.77087 -1.797306,-1.03405 -0.28132,-0.0481 -0.564881,-0.0647 -0.84956,-0.0703 l -0.05581,-0.0294 c 0.509149,-0.002 1.018605,-0.0208 1.527555,-0.0326 0.219632,-0.0161 0.439848,-0.0285 0.659908,-0.0408 0.359302,-3.6e-4 0.718669,1e-4 1.077971,-5.2e-4 0.532176,-0.002 1.064108,-0.004 1.596285,-0.002 0.612587,0.002 1.225585,0.006 1.83813,-0.002 z" /></g></g></svg>
