<?xml version="1.0" encoding="UTF-8" standalone="no"?>
<!-- Created with Inkscape (http://www.inkscape.org/) -->

<svg
   width="48.507626mm"
   height="70.34523mm"
   viewBox="0 0 48.507625 70.345231"
   version="1.1"
   id="svg1"
   inkscape:version="1.3.2 (091e20e, 2023-11-25, custom)"
   sodipodi:docname="mage-idle-0.svg"
   xml:space="preserve"
   inkscape:export-filename="..\separated\bottom-body-cloths.svg"
   inkscape:export-xdpi="96"
   inkscape:export-ydpi="96"
   xmlns:inkscape="http://www.inkscape.org/namespaces/inkscape"
   xmlns:sodipodi="http://sodipodi.sourceforge.net/DTD/sodipodi-0.dtd"
   xmlns="http://www.w3.org/2000/svg"
   xmlns:svg="http://www.w3.org/2000/svg"><sodipodi:namedview
     id="namedview1"
     pagecolor="#ffffff"
     bordercolor="#000000"
     borderopacity="0.25"
     inkscape:showpageshadow="2"
     inkscape:pageopacity="0.0"
     inkscape:pagecheckerboard="0"
     inkscape:deskcolor="#d1d1d1"
     inkscape:document-units="mm"
     inkscape:export-bgcolor="#ffffff00"
     inkscape:zoom="0.53033009"
     inkscape:cx="277.18586"
     inkscape:cy="500.6316"
     inkscape:window-width="1304"
     inkscape:window-height="745"
     inkscape:window-x="1358"
     inkscape:window-y="-8"
     inkscape:window-maximized="1"
     inkscape:current-layer="g1928" /><defs
     id="defs1"><filter
       style="color-interpolation-filters:sRGB"
       inkscape:label="Cutout Glow"
       id="filter1845"
       x="-0.43076707"
       y="-0.25649737"
       width="1.9296413"
       height="1.5620151"
       inkscape:menu-tooltip="In and out glow with a possible offset and colorizable flood"
       inkscape:menu="Shadows and Glows"><feFlood
         result="flood"
         in="SourceGraphic"
         flood-opacity="0.901961"
         flood-color="rgb(0,0,0)"
         id="feFlood1844" /><feGaussianBlur
         result="blur"
         in="SourceGraphic"
         stdDeviation="8.510638"
         id="feGaussianBlur1844" /><feOffset
         result="offset"
         in="blur"
         dx="1.367781"
         dy="2.279635"
         id="feOffset1844" /><feComposite
         result="comp1"
         operator="in"
         in="flood"
         in2="offset"
         id="feComposite1844" /><feComposite
         result="fbSourceGraphic"
         operator="atop"
         in="comp1"
         in2="SourceGraphic"
         id="feComposite1845" /><feColorMatrix
         result="fbSourceGraphicAlpha"
         in="fbSourceGraphic"
         values="0 0 0 -1 0 0 0 0 -1 0 0 0 0 -1 0 0 0 0 1 0"
         id="feColorMatrix1852" /><feOffset
         id="feOffset1852"
         dy="3"
         dx="3"
         in="fbSourceGraphic" /><feGaussianBlur
         id="feGaussianBlur1852"
         stdDeviation="3"
         result="blur" /><feFlood
         id="feFlood1852"
         flood-color="rgb(0,0,0)"
         flood-opacity="1"
         result="flood" /><feComposite
         id="feComposite1852"
         in="flood"
         in2="fbSourceGraphic"
         operator="in"
         result="composite" /><feBlend
         id="feBlend1852"
         in="blur"
         in2="composite"
         mode="normal" /></filter></defs><g
     inkscape:groupmode="layer"
     id="layer4"
     inkscape:label="mage"
     transform="translate(-137.82996,-162.87617)"
     inkscape:highlight-color="#7d39ff"><g
       id="g1314"
       inkscape:label="body"
       style="display:inline"
       transform="translate(31.929799,2.9934187)"><g
         id="g1372"
         inkscape:label="arm right"
         style="display:inline"
         inkscape:export-filename="..\separated\right-arm.svg"
         inkscape:export-xdpi="96"
         inkscape:export-ydpi="96"><path
           id="path74"
           style="display:inline;fill:#116eff;fill-opacity:1;stroke-width:0.365001;stroke-linecap:round;stroke-linejoin:round"
           d="m 114.07228,161.87873 -0.001,0.001 c -0.35879,0.0112 -0.71526,0.0595 -1.07228,0.10181 -0.29363,0.0317 -0.59989,0.0797 -0.87799,0.18603 -0.074,0.0283 -0.30438,0.14405 -0.37568,0.17932 -0.3956,0.21358 -0.74223,0.41178 -1.18184,0.52245 -0.21884,0.0804 -0.48645,0.0627 -0.67438,0.2191 -0.11635,0.0968 -0.14919,0.17917 -0.22324,0.30645 -0.1712,0.3552 -0.19632,0.75166 -0.22893,1.13843 -0.005,0.40154 -0.0322,0.80222 -0.062,1.20251 -0.0406,0.40328 -0.0329,0.81007 -0.0274,1.21491 -0.0259,0.4924 0.0252,0.97328 0.15865,1.44694 0.13491,0.49071 0.49298,0.85472 0.78754,1.25316 0.0288,0.0367 0.0538,0.0758 0.0816,0.11317 0.16747,0.4512 0.33311,0.90336 0.49558,1.3565 -0.19956,0.0973 -0.36237,0.25866 -0.35192,0.50953 0.002,0.0581 0.0311,0.11236 0.0465,0.16847 0.20951,0.53335 0.48245,1.03966 0.67335,1.58078 0.27978,0.7583 0.62937,1.48925 1.03611,2.18798 0.88311,1.63417 0.34399,0.63897 0.43098,0.80512 0.0171,0.20201 0.0264,0.40447 0.0269,0.60771 l 0.56069,0.28629 c -0.008,0.0812 -0.0157,0.16867 -0.0191,0.22686 -0.006,0.10973 0.0761,0.2063 0.11524,0.30903 0.0472,0.1239 0.0978,0.24613 0.14366,0.37052 0.0719,0.19512 0.21223,0.61063 0.27905,0.80666 0.0946,0.3254 0.21344,0.64031 0.34365,0.95085 9.8e-4,0.003 0.002,0.005 0.003,0.008 0.0261,0.0741 0.0101,0.18258 0.078,0.22221 0.009,0.005 0.018,0.0105 0.0269,0.0155 0.13084,0.29519 0.2678,0.58777 0.4098,0.8785 0.3351,0.69656 0.68376,1.38624 1.05161,2.06603 0.22062,0.43466 0.50124,0.82908 0.79841,1.21336 0.30446,0.38513 0.61932,0.76197 0.93637,1.13688 0.22302,0.27717 0.4261,0.56783 0.65268,0.84233 0.28267,0.32664 0.51938,0.69499 0.75395,1.05781 0.19775,0.33702 0.37381,0.68526 0.57361,1.02113 0.30177,0.44383 0.5873,0.89762 0.89814,1.33532 0.29191,0.42366 0.62559,0.81569 0.8971,1.25315 0.18178,0.34427 0.34927,0.6972 0.50591,1.05368 0.0243,0.0541 0.0466,0.10958 0.0729,0.16279 0.0981,0.19861 0.0913,0.14686 0.17828,0.3545 0.0727,0.17367 0.12442,0.35748 0.18397,0.53588 0.11562,0.47621 0.26124,0.94322 0.36432,1.42265 0.0364,0.17806 0.0595,0.35832 0.0894,0.53744 -0.23935,-0.12439 -0.4491,-0.20511 -0.59635,-0.20051 -0.1806,0.006 -0.26933,0.13553 -0.22376,0.44029 -0.003,-0.001 -0.005,-0.002 -0.008,-0.004 -0.0153,-0.007 -0.005,0.006 0.0108,0.0238 0.002,0.0115 0.002,0.0211 0.005,0.0331 0.0511,0.12689 0.10731,0.25133 0.17208,0.37 0.004,0.0141 0.007,0.0249 0.0119,0.0398 0.098,0.43425 0.12965,0.87806 0.17674,1.3193 0.0361,0.20921 0.0151,0.10729 0.0615,0.30696 l 1.3162,0.61443 c 0.032,0.18752 0.079,0.37279 0.12247,0.55811 0.0716,0.31438 0.24339,0.58678 0.38758,0.87074 0.20058,0.35779 0.3746,0.72925 0.56069,1.09451 0.15178,0.28022 0.36571,0.51697 0.60978,0.71934 0.24485,0.16382 0.45326,0.37216 0.66042,0.57981 0.22278,0.23392 0.44101,0.47238 0.66818,0.70228 0.0848,0.0919 0.16745,0.18496 0.24546,0.28267 l 0.007,0.003 c 0.0125,0.0383 0.0247,0.0764 0.0372,0.11472 0.0218,0.0593 0.0453,0.11777 0.0651,0.17777 0.0178,0.054 0.0255,0.11133 0.0475,0.16381 0.0134,0.0321 0.0476,0.054 0.0579,0.0873 0.0123,0.0399 0.005,0.0829 0.008,0.12454 0.008,0.021 0.0151,0.0426 0.0227,0.0636 l 3.52795,1.38028 c -0.0263,-0.0322 -0.0447,-0.071 -0.0692,-0.10491 -0.0337,-0.0466 -0.0739,-0.089 -0.10491,-0.13746 -0.033,-0.0516 -0.17385,-0.32749 -0.20205,-0.3824 l 0.14676,0.0641 c -0.0668,-0.1224 -0.13343,-0.24477 -0.23306,-0.34469 -0.0331,-0.0389 -0.0718,-0.0726 -0.10697,-0.10955 -0.21955,-0.4419 -0.41562,-0.89458 -0.62115,-1.34307 -0.20925,-0.45996 -0.42724,-0.91428 -0.69608,-1.34255 -0.27279,-0.40402 -0.50574,-0.83155 -0.78135,-1.23404 -0.30936,-0.40589 -0.62884,-0.80384 -0.95447,-1.19682 -0.008,-0.01 -0.0157,-0.0188 -0.0233,-0.0284 3.1e-4,-0.13109 0.005,-0.26235 0.002,-0.39325 -0.0151,-0.34276 -0.0106,-0.68495 -0.008,-1.02785 -0.0112,-0.39478 -0.0292,-0.78931 -0.0202,-1.18442 0.0276,-0.41219 0.0803,-0.83749 0.36638,-1.15755 0.12756,-0.14928 0.26834,-0.28609 0.40876,-0.42323 0.093,0.0538 0.16475,0.0873 0.26252,0.14572 0.008,0.005 0.0222,-0.008 0.0382,-0.0289 0.0957,0.0733 0.12241,-0.014 0.13849,-0.26304 0.0889,-0.19224 0.17884,-0.40919 0.19534,-0.43253 l 0.0119,-0.0238 c 0.009,-0.008 0.0179,-0.0162 0.0269,-0.0243 0.66944,-0.53447 1.37942,-1.01566 2.03811,-1.56424 0.62009,-0.50931 0.10775,-0.0852 0.71572,-0.59842 0.0442,-0.0373 0.43274,-0.36187 0.57568,-0.48731 0.25842,0.004 0.51671,0.008 0.77514,-0.004 0.3736,-0.001 0.74731,-4e-5 1.12087,-0.001 0.3778,-0.007 0.75551,0.0148 1.13274,-0.0145 0.59378,-0.0193 1.1874,-0.0596 1.78181,-0.0522 0.699,0.0142 1.41007,0.009 2.09341,0.17364 0.51039,0.13815 0.98515,0.36389 1.45624,0.60151 0.43166,0.20207 0.84868,0.45383 1.3193,0.55294 0.3346,0.0752 0.67045,0.16599 1.01286,0.19017 l -0.71624,-0.5209 0.56534,0.23409 c -0.11449,-0.1005 -0.15999,-0.1315 -0.25476,-0.24908 -0.0325,-0.0403 -0.0597,-0.0851 -0.0894,-0.12764 -0.0253,-0.0417 -0.0452,-0.0869 -0.0754,-0.12505 -0.0262,-0.0329 -0.0617,-0.0575 -0.0925,-0.0863 -0.20312,-0.18446 -0.41135,-0.36093 -0.60823,-0.55139 -0.30575,-0.22298 -0.63335,-0.41874 -0.85421,-0.73691 -0.4223,-0.51358 -0.91111,-0.97082 -1.28675,-1.52342 -0.36867,-0.51459 -0.73068,-1.02664 -1.1529,-1.49913 -0.0571,-0.06 -0.11641,-0.11805 -0.17105,-0.18035 -0.46393,-0.52888 0.14528,0.14145 -0.26871,-0.34365 -0.083,-0.0973 -0.18935,-0.17382 -0.23306,-0.30024 l -1.95441,-0.80977 c -0.0711,-0.13664 -0.14136,-0.27437 -0.20619,-0.41445 -0.17279,-0.40757 -0.31835,-0.83693 -0.52451,-1.22938 -0.0377,-0.0717 -0.0857,-0.13751 -0.12403,-0.20877 -0.0371,-0.0688 -0.0677,-0.14102 -0.1018,-0.21136 -0.15356,-0.39251 -0.33222,-0.76988 -0.56637,-1.12189 -0.25278,-0.48625 -0.57527,-0.93513 -0.80512,-1.43454 -0.0478,-0.0923 -0.0994,-0.18246 -0.14366,-0.27647 -0.16157,-0.34332 -0.26849,-0.716 -0.49041,-1.02888 -0.25435,-0.31384 -0.38405,-0.7065 -0.57929,-1.05678 -0.14175,-0.27513 -0.0727,-0.13355 -0.20619,-0.42375 -0.1424,-0.28427 -0.34329,-0.53434 -0.46922,-0.82837 -0.18885,-0.36126 -0.45467,-0.68347 -0.57671,-1.07849 -0.15738,-0.33986 -0.32479,-0.67165 -0.57826,-0.95291 -0.27099,-0.36856 -0.49475,-0.77211 -0.80305,-1.11208 -0.28149,-0.34753 -0.52226,-0.72801 -0.80202,-1.07745 -0.16834,-0.27527 -0.34342,-0.54573 -0.51315,-0.81959 -0.16392,-0.34808 -0.27307,-0.72349 -0.51935,-1.02784 -0.19456,-0.31269 -0.39986,-0.61977 -0.6165,-0.91726 -0.0712,-0.10093 -0.11715,-0.17235 -0.19792,-0.2651 -0.0286,-0.0328 -0.0643,-0.0592 -0.091,-0.0935 -0.0785,-0.10097 -0.11143,-0.23019 -0.19172,-0.33021 -0.18521,-0.24437 -0.34057,-0.51098 -0.54777,-0.73897 -0.32505,-0.4234 0.097,0.13843 -0.20877,-0.30903 -0.12781,-0.18704 -0.28735,-0.3513 -0.4191,-0.53536 -0.27481,-0.18907 -0.46525,-0.45544 -0.65009,-0.72967 -0.25326,-0.32548 -0.51083,-0.6471 -0.75602,-0.97876 -0.0502,-0.0719 -0.13201,-0.18233 -0.16898,-0.26303 -0.0304,-0.0663 -0.0655,-0.20676 -0.0935,-0.27854 -0.0461,-0.11848 -0.0301,-0.0227 -0.0403,-0.1173 l -0.8847,-0.45062 c 0.12288,-0.047 0.23362,-0.11906 0.30748,-0.25218 0.0298,-0.0537 0.0333,-0.11812 0.0501,-0.17725 -0.0841,-0.26208 -0.26945,-0.44561 -0.46147,-0.63614 -1.14773,-0.65273 -2.28882,-1.31713 -3.4432,-1.95802 -0.0345,-0.0192 -0.21278,-0.0309 -0.25011,-0.031 -0.10765,-2.6e-4 -0.21604,0.0174 -0.32401,0.0129 -0.14181,0.004 -0.28451,0.007 -0.42685,0.0139 0.0629,0.0284 0.13749,0.0654 0.20981,0.10077 -0.17003,-0.0165 -0.31877,-0.0436 -0.447,-0.0775 0.0784,-0.01 0.15694,-0.0185 0.23616,-0.0222 -0.92044,-0.4157 -0.8737,-0.14644 -0.24288,0.0222 -0.0328,0.004 -0.0662,0.004 -0.0987,0.01 -0.0402,0.0625 -0.12437,0.13315 -0.19379,0.20102 -0.53493,-0.30128 -1.06798,-0.60608 -1.60197,-0.90899 -0.39854,-0.0237 -0.79782,-0.0116 -1.19683,-0.0217 -0.12028,-0.006 -0.24007,-0.006 -0.35966,-0.003 z m 1.39319,0.57206 c -0.0353,-0.0208 0.0809,0.0181 0.11886,0.0336 0.0517,0.0211 0.0971,0.0597 0.14469,0.0868 -3.4e-4,1e-5 -7.2e-4,0 -0.001,0 -0.0181,4.6e-4 -0.0362,-3.5e-4 -0.0543,0 -0.0692,-0.0406 -0.13919,-0.0797 -0.20826,-0.1204 z m 15.11898,42.46252 c 0.005,0.006 0.009,0.0145 0.015,0.0202 0.0121,0.0111 0.12363,0.0369 0.14573,0.0429 z"
           transform="translate(1.0208333e-6)"
           inkscape:label="color" /><g
           id="g1379"
           inkscape:label="sleeve"
           style="display:inline"
           transform="translate(1.0208333e-6)"><path
             style="display:inline;fill:#000000;fill-opacity:1;stroke:none;stroke-width:0.365001;stroke-linecap:round;stroke-linejoin:round;stroke-dasharray:none;stroke-opacity:1"
             id="path1338"
             d="m 130.5293,191.9784 c -0.71372,0.16916 -1.46017,0.2338 -2.15667,0.47819 -0.20302,0.0712 -0.39447,0.17197 -0.5917,0.25795 -0.78843,0.41602 -1.66423,0.93001 -2.05678,1.77599 -0.0728,0.15698 -0.11537,0.32631 -0.17305,0.48947 -0.2667,1.03254 -0.25671,2.11076 -0.0476,3.15092 0.27499,0.90649 0.90295,1.64994 1.38239,2.45506 0.53913,1.02665 1.05417,2.05894 1.65123,3.05475 0.6627,1.05407 1.20163,2.1771 1.79289,3.27132 0.32939,0.51245 0.47407,1.12826 0.79497,1.64396 0.26274,0.42225 0.35685,0.47267 0.71178,0.82163 0.14913,0.10865 0.28824,0.23259 0.44739,0.32594 1.23558,0.72469 2.47757,1.43901 3.73417,2.12662 0.28429,0.15557 0.61089,0.21752 0.90973,0.34288 0.4758,0.19961 0.42855,0.19059 0.88148,0.4466 -4.83674,-2.78312 -2.72093,-1.86348 -1.8466,-0.40734 0.48539,0.80838 0.81444,1.72207 1.15556,2.59633 0.53282,1.48188 0.76485,3.04407 1.12205,4.57181 0.21956,0.7634 0.47612,1.68248 1.21858,2.11744 1.24382,0.72868 2.51621,1.40748 3.77431,2.11123 1.24286,0.29715 2.58951,0.3825 3.74819,-0.26183 0.27255,-0.15157 0.50602,-0.36467 0.75903,-0.547 0.21039,-0.25817 0.44341,-0.49943 0.63116,-0.77451 0.55723,-0.81643 1.18406,-2.12734 1.1681,-3.14635 -0.003,-0.21441 -0.0701,-0.42312 -0.1052,-0.63468 -0.10025,-0.21571 -0.1778,-0.4435 -0.30073,-0.64714 -0.40416,-0.66948 -1.0012,-1.19762 -1.55317,-1.7381 -0.36235,-0.35479 -0.7193,-0.71505 -1.07952,-1.072 -1.2112,-1.07598 -1.71207,-2.54191 -2.05878,-4.07491 -0.32298,-1.39067 -0.16692,-2.77337 0.16199,-4.14045 0.34228,-1.06567 0.64647,-2.13907 0.93591,-3.22026 0.28485,-1.23889 0.32201,-2.50876 0.35016,-3.77352 0.11617,-1.36838 -0.26397,-2.65531 -0.83658,-3.88044 -1.43542,-2.58129 -3.26169,-3.12462 -5.96663,-4.67372 -1.42197,-0.46496 -2.94123,-0.46206 -4.42236,-0.49412 -1.29782,0.0452 -2.56059,0.34519 -3.83465,0.56357 -0.76888,0.2822 -1.38843,0.84745 -2.04804,1.31795 0,0 3.23488,2.05819 3.23488,2.05819 v 0 c 0.62352,-0.43939 1.22036,-0.96899 1.96955,-1.17352 1.22199,-0.26289 2.44416,-0.56763 3.7039,-0.5564 1.46945,0.0414 2.98923,0.0582 4.35706,0.66189 -5.23221,-3.09883 -2.59952,-1.71921 -1.65676,-0.80716 0.47087,0.45554 0.88485,0.96493 1.20266,1.53936 0.62538,1.14818 1.0319,2.39981 0.93997,3.72282 -0.0373,1.23036 -0.0823,2.46975 -0.3533,3.67529 -0.26792,1.09095 -0.61099,2.15854 -0.91621,3.23916 -0.0711,0.30616 -0.23461,0.97842 -0.27491,1.28319 -0.1325,1.00227 -0.0969,2.04072 0.0812,3.03278 0.34586,1.55099 0.75113,3.15527 1.96604,4.26761 0.36203,0.35644 0.71107,0.72598 1.07553,1.07993 0.68859,0.66873 1.47803,1.27135 1.8943,2.16322 0.0581,0.17841 0.14999,0.34918 0.17429,0.53523 0.13156,1.00725 -0.40741,2.19721 -0.97062,2.9919 -0.17408,0.24562 -0.39617,0.45341 -0.59426,0.68012 -0.23894,0.15511 -0.46036,0.34132 -0.71682,0.46532 -1.15525,0.55858 -2.49965,0.36576 -3.66464,-0.0366 6.64967,3.99502 2.65936,1.81338 2.07098,1.12589 -0.32769,-0.38288 -0.47591,-0.87788 -0.6414,-1.34188 -0.43048,-1.54497 -0.68611,-3.13669 -1.20144,-4.65943 -0.34381,-0.87977 -0.65531,-1.79925 -1.08028,-2.64436 -0.10615,-0.21109 -0.59751,-1.07469 -0.84238,-1.23955 -1.20287,-0.80981 -2.47932,-1.50458 -3.71897,-2.25688 -0.45225,-0.22354 -0.90938,-0.407 -1.37455,-0.60081 -0.14036,-0.0585 -0.54763,-0.26212 -0.41814,-0.1824 0.38411,0.23649 4.18379,2.45898 2.3499,1.38601 -0.30126,-0.24128 -0.4998,-0.36532 -0.72749,-0.67736 -0.36471,-0.49983 -0.49678,-1.1434 -0.82786,-1.66253 -0.58919,-1.11227 -1.21289,-2.20793 -1.82768,-3.30664 -0.58551,-0.98288 -1.10568,-1.99003 -1.60281,-3.01877 -0.4183,-0.8185 -1.04162,-1.51604 -1.41383,-2.35765 -0.28239,-0.96694 -0.31317,-1.97772 -0.0641,-2.95869 0.37823,-1.09125 0.99551,-1.51694 2.02042,-2.01238 0.89505,-0.32836 1.84201,-0.52209 2.79923,-0.51988 z"
             inkscape:label="right sleeve" /><path
             id="path79"
             style="display:inline;fill:#000000;fill-opacity:1;stroke-width:0.365001;stroke-linecap:round;stroke-linejoin:round"
             d="m 137.79331,191.30794 c -0.27836,0.023 -0.55741,3.6e-4 -0.83354,0.0429 -0.33475,0.0892 -0.67869,0.1264 -1.02371,0.14263 -0.15884,0.0429 -0.32788,0.0363 -0.48783,0.0693 -0.18789,0.0386 -0.3794,0.10384 -0.56379,0.15709 -0.41173,0.099 -0.82996,0.16707 -1.25108,0.21033 -0.39943,0.0832 -0.80929,0.0729 -1.21182,0.12454 -0.54184,0.0679 -1.06506,0.24562 -1.5844,0.40876 -0.5603,0.16497 -1.16208,0.20376 -1.69085,0.46302 -0.26485,0.16406 -0.31016,0.46827 -0.37879,0.74672 -0.12733,0.35397 -0.21823,0.71838 -0.34261,1.07332 -0.0765,0.24858 -0.17815,0.4935 -0.2403,0.74673 -0.089,0.0815 -0.17495,0.16596 -0.24081,0.26665 -0.0838,0.12809 -0.10393,0.20998 -0.15606,0.35295 -0.12723,0.39893 -0.16769,0.82002 -0.18345,1.23661 -0.0138,0.36984 -0.0357,0.73778 0.0109,1.10588 0.0305,0.28371 0.097,0.53833 0.21032,0.80047 0.21144,0.39034 0.36653,0.80745 0.58033,1.19631 0.15948,0.27816 0.36214,0.52773 0.55139,0.78548 0.16223,0.25274 0.29743,0.52209 0.43459,0.7891 0.17994,0.33941 0.29799,0.70468 0.43254,1.06298 0.13926,0.313 0.27199,0.62889 0.42426,0.93586 0.19585,0.39719 0.39612,0.79227 0.58653,1.19218 0.19923,0.49274 0.4205,0.97559 0.6289,1.46451 0.14879,0.3875 0.36354,0.73836 0.60771,1.07177 0.33036,0.41899 0.70733,0.79827 1.03715,1.21749 0.2485,0.29822 0.47737,0.60546 0.6842,0.9338 0.19113,0.2895 0.30076,0.61834 0.4439,0.9312 0.19025,0.36804 0.35997,0.74707 0.56172,1.10898 0.30824,0.48657 0.68419,0.83008 1.10846,1.11621 0.0487,0.0778 0.0938,0.15804 0.13746,0.23875 0.66599,1.44252 0.63886,0.82622 3.50831,2.38021 0.17718,0.43491 0.34688,0.87315 0.5085,1.3131 0.24822,0.65237 0.37122,1.33018 0.41238,2.02365 -0.0198,0.51652 0.18207,0.99315 0.34416,1.47278 0.10106,0.31042 0.18956,0.62774 0.3452,0.91622 0.12631,0.20755 0.12513,0.25615 0.0739,0.49455 1.17168,0.62701 2.3151,1.30992 3.51503,1.88102 0.0653,0.0311 0.11837,-0.0833 0.1788,-0.12299 0.30344,-0.19914 0.18921,-0.11557 0.52761,-0.31471 0.2131,-0.1254 0.4225,-0.25893 0.63201,-0.39016 0.26416,-0.19089 0.55382,-0.34826 0.81235,-0.54725 0.19432,-0.14956 0.37325,-0.3259 0.55345,-0.49196 0.0537,-0.0539 0.20461,-0.19872 0.24857,-0.26924 0.13889,-0.22279 0.17047,-0.49855 0.19379,-0.75292 0.0195,-0.42935 0.0148,-0.86054 0.01,-1.29036 -0.007,-0.26941 0.024,-0.54768 -0.0475,-0.81184 -0.0437,-0.16133 -0.0987,-0.24748 -0.17518,-0.39532 -0.26452,-0.3813 -0.4137,-0.81672 -0.55449,-1.25419 -0.1312,-0.44252 -0.27919,-0.87828 -0.49764,-1.28571 -0.20485,-0.31486 -0.41805,-0.63349 -0.69815,-0.88677 -0.27609,-0.17597 -0.53768,-0.37093 -0.79789,-0.56947 -0.30142,-0.20978 -0.53168,-0.48559 -0.74104,-0.7829 -0.23431,-0.33414 -0.39686,-0.70678 -0.54518,-1.08469 -0.14799,-0.455 -0.35446,-0.88622 -0.52452,-1.33273 -0.18953,-0.41566 -0.27117,-0.86191 -0.35088,-1.30793 -0.0738,-0.40034 -0.11471,-0.80553 -0.17622,-1.20768 -0.008,-0.35174 -0.13604,-0.67959 -0.19017,-1.0232 -0.0275,-0.25069 -0.0394,-0.50335 -0.0393,-0.7555 0.007,-0.20243 0.004,-0.40479 0.003,-0.6072 -0.0209,-0.22197 0.0581,-0.42719 0.10232,-0.64027 0.11259,-0.47548 0.1801,-0.95925 0.26769,-1.43971 0.12141,-0.53125 0.26033,-1.05767 0.36018,-1.5937 0.0887,-0.29521 0.1467,-0.60008 0.24701,-0.89194 0.0891,-0.25935 0.2134,-0.50593 0.33022,-0.75344 0.17625,-0.31836 0.34292,-0.64138 0.44441,-0.99167 0.11186,-0.37529 0.17813,-0.76182 0.21808,-1.15083 7.9e-4,-0.43844 -0.004,-0.87476 0.0243,-1.31258 0.0196,-0.31506 0.0171,-0.63318 -0.0109,-0.94775 -0.0438,-0.28166 -0.15165,-0.54585 -0.2713,-0.80254 -0.14326,-0.32979 -0.34855,-0.62501 -0.56017,-0.91363 -0.18527,-0.26883 -0.36866,-0.53855 -0.59893,-0.77102 -0.22663,-0.20681 -0.42805,-0.4386 -0.64492,-0.65525 -0.0838,0.0764 -0.16257,0.13125 -0.24133,0.185 l -2.70371,-1.96422 c -0.031,0.0272 -0.0613,0.0551 -0.0925,0.0822 -0.21918,-0.21047 -0.45408,-0.3631 -0.71675,-0.40411 -0.0716,-0.0112 -0.17188,-0.0102 -0.2434,-0.0114 -0.22999,-0.009 -0.45976,-0.0116 -0.68988,-0.0124 z m 1.09141,0.70642 c 0.0316,0.0148 0.0588,0.0357 0.0884,0.0532 -3.9e-4,2.8e-4 -6.4e-4,7.6e-4 -0.001,0.001 -0.0351,-0.022 -0.0517,-0.0319 -0.0873,-0.0543 z m -0.25167,1.75596 2.22881,1.37201 c 0.0757,-0.0715 0.1514,-0.14312 0.22685,-0.21497 0.0823,0.28322 0.0706,0.5728 0.0842,0.8661 0.0254,0.42791 0.0285,0.85513 -0.0181,1.28209 -0.0199,0.36523 -0.053,0.73042 -0.17983,1.07693 -0.0683,0.20993 -0.14552,0.42094 -0.23668,0.62219 -0.0279,0.0616 -0.063,0.11988 -0.0873,0.18293 -0.0246,0.0638 -0.0389,0.13088 -0.0584,0.19637 -0.15747,0.57981 -0.38494,1.13496 -0.55604,1.71049 -0.1466,0.52994 -0.23761,1.07054 -0.37155,1.60352 -0.091,0.45159 -0.20146,0.9013 -0.35657,1.33532 -0.10884,0.22527 -0.20847,0.47134 -0.20464,0.72502 -0.003,0.20616 -0.007,0.41242 0.003,0.61857 0.009,0.27707 0.0165,0.55373 0.0667,0.82734 0.0261,0.1745 0.0379,0.36097 0.0832,0.53175 0.037,0.13959 0.0761,0.16265 0.10955,0.30541 0.0148,0.0634 0.0184,0.12925 0.0274,0.19378 0.049,0.41122 0.10522,0.82371 0.19637,1.22784 0.0679,0.46821 0.14519,0.94077 0.32143,1.38234 0.17587,0.44027 0.36764,0.8742 0.52658,1.32085 0.12388,0.39394 0.24511,0.79008 0.46715,1.14257 0.18678,0.33025 0.4024,0.65532 0.69557,0.9002 0.24007,0.20379 0.47731,0.41878 0.74931,0.57878 0.37012,0.19136 0.58775,0.44306 0.83767,0.77308 0.0888,0.12758 0.16899,0.23189 0.2372,0.37258 0.1294,0.26688 0.18905,0.56482 0.29765,0.83974 0.15929,0.43903 0.26392,0.9026 0.49403,1.31362 0.0958,0.13692 0.20679,0.28425 0.25993,0.44545 0.0615,0.18666 0.0617,0.39255 0.0636,0.58601 -7.9e-4,0.41338 0.01,0.82697 -0.0217,1.23972 -0.0335,0.31563 -0.0732,0.56527 -0.29301,0.81132 -0.14038,0.16004 -0.2899,0.31175 -0.44493,0.45733 -0.12452,-0.68796 -0.34519,-1.35853 -0.64596,-1.98902 -0.68703,-1.45219 -1.452,-2.86786 -2.09341,-4.34134 -0.0953,-0.17927 -0.19144,-0.35764 -0.28577,-0.53743 -0.0718,-0.13678 -0.0836,-0.32669 -0.21239,-0.41186 -0.22907,-0.15143 -2.54032,-2.47589 -3.49798,-2.04794 -0.1404,-0.21524 -0.28815,-0.42518 -0.46198,-0.61547 -0.0382,-0.0462 -0.2902,-0.35167 -0.32143,-0.38602 -0.24068,-0.26477 -0.51598,-0.50269 -0.7059,-0.81029 -0.24907,-0.33203 -0.4949,-0.66651 -0.69867,-1.02939 -0.23797,-0.46903 -0.41463,-0.95958 -0.61081,-1.44642 -0.0907,-0.22534 -0.20613,-0.42881 -0.29559,-0.65009 -0.0688,-0.17028 -0.11009,-0.3531 -0.21394,-0.5085 -0.12484,-0.3182 -0.30756,-0.61022 -0.43718,-0.92708 -0.1529,-0.36033 -0.31249,-0.7171 -0.43254,-1.09037 -0.12281,-0.27778 -0.23621,-0.55814 -0.38343,-0.82372 -0.17136,-0.28808 -0.39162,-0.53846 -0.60307,-0.79737 -0.24539,-0.34695 -0.43877,-0.72473 -0.56947,-1.13016 -0.0368,-0.0837 -0.0828,-0.1631 -0.11524,-0.24857 -0.0573,-0.15112 -0.0522,-0.32259 -0.11472,-0.47283 -0.0125,-0.0433 -0.0727,-0.24748 -0.0806,-0.28939 -0.0467,-0.2493 -0.0193,-0.50663 -0.0227,-0.7581 0.007,-0.14796 0.0147,-0.29675 0.0258,-0.44493 l 0.30593,0.15761 c 0.0124,-0.34694 0.0346,-0.69497 0.10335,-1.03611 0.0156,-0.0727 0.0279,-0.14621 0.047,-0.21807 0.0182,-0.0684 0.031,-0.10041 0.0444,-0.13798 0.0595,-0.0666 0.1201,-0.13263 0.1726,-0.20412 0.31252,-0.36212 0.64569,-0.70723 1.0051,-1.0232 0.31623,-0.2374 0.61933,-0.48665 0.91933,-0.74362 0.36891,-0.29111 0.76153,-0.55458 1.18959,-0.75137 0.39727,-0.1604 0.79721,-0.27225 1.22731,-0.18759 l -0.34468,-0.25063 c 0.35102,-0.0363 0.70123,-0.0789 1.0511,-0.12557 0.43286,-0.0597 0.85849,-0.16177 1.28726,-0.24443 0.20562,-0.045 0.41313,-0.0777 0.62115,-0.10491 z m 3.69435,0.23926 c 1.06414,0.59826 2.26474,1.48108 -0.11834,0.0538 0.0396,-0.0199 0.079,-0.0377 0.11834,-0.0538 z m -2.22105,19.1022 c 0.0655,0.026 0.12266,0.23299 0.0589,0.20309 -0.0434,-0.0203 -0.085,-0.0442 -0.12816,-0.0651 0.007,-0.0854 0.0218,-0.15681 0.0692,-0.13797 z m -3.56826,0.12867 c 0.015,0.009 0.0295,0.0181 0.0444,0.0269 -0.002,0.005 -0.005,0.009 -0.007,0.014 -0.0132,-0.007 -0.0264,-0.0147 -0.0398,-0.0222 6.7e-4,-0.005 0.002,-0.0187 0.002,-0.0186 z m 8.23515,10.10998 c 0.0372,0.0214 0.0745,0.0427 0.11163,0.0641 -0.0353,0.0303 -0.0597,0.0829 -0.10542,0.0909 -0.005,9.1e-4 -0.005,-0.0891 -0.006,-0.15503 z" /><path
             style="display:inline;fill:#1d1d1d;fill-opacity:1;stroke:none;stroke-width:1.37953;stroke-linecap:round;stroke-linejoin:round;stroke-dasharray:none;stroke-opacity:1;filter:url(#filter1845)"
             d="m 461.99032,804.04361 c -6.48633,-25.49187 -8.25717,-28.82894 -18.70829,-35.25514 -6.80894,-4.18668 -8.19675,-5.50461 -10.44635,-9.92037 -3.78388,-7.4274 -14.5533,-27.18403 -16.90887,-31.01952 -2.49557,-4.06345 -2.79714,-12.63253 -0.55712,-15.8306 1.89465,-2.705 7.31295,-5.44317 12.47084,-6.30222 3.24894,-0.54111 3.83995,-0.92469 2.99442,-1.94349 -1.69265,-2.03952 5.6984,-3.66438 16.84344,-3.70289 9.50799,-0.0329 9.79824,0.0298 12.00411,2.59222 5.6848,6.6036 6.36399,20.05696 1.8091,35.83442 -3.28702,11.38572 -3.68471,16.1676 -1.95996,23.56671 2.0709,8.88409 3.55314,11.41371 11.51594,19.6534 6.22137,6.4377 6.95496,7.58361 6.94109,10.8423 -0.0289,6.79018 -5.51383,13.65015 -11.95195,14.94825 -2.91128,0.587 -3.04499,0.47256 -4.0464,-3.46307 z"
             id="path1375"
             transform="matrix(0.26458333,0,0,0.26458333,19.475,7.7999998)" /></g><g
           id="g1376"
           inkscape:label="right hand"
           style="display:inline"
           transform="translate(1.0208333e-6)"><path
             style="display:inline;fill:#f9dada;fill-opacity:1;stroke:none;stroke-width:1.37953;stroke-linecap:round;stroke-linejoin:round;stroke-dasharray:none;stroke-opacity:1"
             d="m 463.50177,747.54171 c -4.15934,-0.97645 -10.60003,-5.45246 -16.13888,-11.21586 l -3.77124,-3.92412 4.24264,-3.77769 c 6.36741,-5.66961 10.60766,-7.33023 18.77896,-7.35442 3.84661,-0.0114 9.70141,0.4508 13.01067,1.02708 7.5286,1.31105 9.23332,3.41516 9.12667,11.2649 -0.0882,6.49412 -2.71071,11.30406 -7.36822,13.51419 -3.48803,1.65518 -11.88299,1.87393 -17.8806,0.46592 z"
             id="path1376"
             transform="matrix(0.26458333,0,0,0.26458333,19.475,7.8)" /><path
             style="display:inline;fill:#000000;fill-opacity:1;stroke:none;stroke-width:0.365001;stroke-linecap:round;stroke-linejoin:round;stroke-dasharray:none;stroke-opacity:1"
             id="path1339"
             d="m 133.27008,200.213 c 0.67677,0.8673 1.45942,1.63311 2.27751,2.3648 2.26315,1.93824 4.92042,3.30953 7.49261,4.77886 1.21573,0.53939 2.51879,0.79516 3.83894,0.87947 1.0177,0.0678 1.89261,0.0756 2.86444,-0.27366 0.84211,-0.39901 1.51483,-1.01775 2.0588,-1.76346 0.50079,-0.81802 0.5394,-1.77525 0.60025,-2.70534 0.0206,-1.09948 -0.20693,-1.96684 -0.80615,-2.88603 -0.43718,-0.54821 -1.00606,-0.97362 -1.61121,-1.32157 -3.70588,-2.1308 -2.4153,-1.58568 -4.18606,-2.30068 -1.02429,-0.3084 -2.07409,-0.51067 -3.13634,-0.62608 -1.16325,-0.1049 -2.33108,-0.0926 -3.49754,-0.0929 -1.08287,-0.0276 -2.05613,0.32087 -2.96217,0.88316 -0.8934,0.66464 -1.71515,1.42394 -2.50492,2.20775 -0.6,0.66028 -0.85241,1.04103 -0.45259,1.88377 0.0588,0.0864 0.11771,0.17276 0.17656,0.25914 0,0 3.59162,1.52715 3.59162,1.52715 v 0 c -0.0677,-0.0663 -0.13529,-0.13254 -0.20294,-0.19881 -0.4801,-0.67583 -0.38123,-0.81854 0.16392,-1.46814 0.74405,-0.78323 1.54334,-1.53661 2.45919,-2.11528 0.8766,-0.48078 1.76978,-0.8053 2.79139,-0.75297 1.16889,0.0121 2.34104,0.0281 3.50433,0.15256 1.04456,0.14077 2.09045,0.34228 3.07777,0.71996 1.46662,0.6787 0.52205,0.25931 -2.39194,-1.45582 -0.15286,-0.09 0.3115,0.17007 0.46267,0.26287 0.42973,0.26383 0.84618,0.55746 1.20254,0.91608 0.10599,0.12815 0.2259,0.24596 0.31797,0.38445 0.43682,0.65708 0.55793,1.49054 0.59152,2.25886 -0.0386,0.85286 -0.0762,1.74017 -0.52083,2.49463 -0.50273,0.68032 -1.0966,1.27071 -1.90457,1.57531 -0.90468,0.25469 -1.83407,0.21745 -2.76571,0.16061 -1.26758,-0.11669 -2.51944,-0.35832 -3.66411,-0.94445 0.81805,0.48169 1.63354,0.96777 2.45416,1.44507 0.26101,0.15181 -0.51917,-0.30858 -0.77526,-0.46856 -0.96257,-0.60136 -1.88796,-1.26393 -2.76006,-1.99062 -0.78632,-0.67434 -1.55667,-1.37422 -2.15515,-2.22637 z"
             inkscape:label="right hand" /></g><path
           id="path73"
           style="display:inline;fill:#000000;fill-opacity:1;stroke-width:0.365001;stroke-linecap:round;stroke-linejoin:round"
           d="m 113.70382,159.88505 c -0.90317,-0.0208 -1.82857,0.10497 -2.69389,0.15193 -0.91052,0.0802 -1.36727,0.11317 -2.27841,0.22169 -0.97272,0.11586 -2.02371,0.16719 -2.83136,0.78549 l 1.54048,0.94412 c -0.0146,0.13385 -0.0258,0.26864 -0.0419,0.40101 -0.0815,0.74598 -0.1727,1.48859 -0.1974,2.23914 -0.036,0.6664 -0.0348,1.33313 -0.014,1.99988 0.0228,0.48572 0.003,0.91032 0.15503,1.37718 0.23648,0.52284 0.39992,1.06833 0.52607,1.62677 0.0979,0.43443 0.20074,0.86813 0.31678,1.29811 0.0796,0.23722 0.12068,0.49098 0.21497,0.72347 0.0467,0.11517 0.15254,0.29967 0.20981,0.40411 0.28852,0.47297 0.579,0.94464 0.86506,1.41904 0.24627,0.40626 0.47986,0.81979 0.69401,1.24385 0.21432,0.4665 0.44739,0.92462 0.68782,1.37821 0.30308,0.53438 0.5579,1.09399 0.83974,1.63969 0.27225,0.57456 0.58066,1.12784 0.89142,1.68207 0.31726,0.57705 0.65477,1.14096 0.99942,1.70171 0.33582,0.57107 0.65708,1.15144 0.97307,1.73374 0.29597,0.63372 0.58459,1.26763 0.95911,1.85932 0.40676,0.65243 0.86161,1.27314 1.2883,1.91254 0.25279,0.39299 0.51155,0.78189 0.75912,1.17823 0.2137,0.34042 0.45659,0.6613 0.6966,0.9834 0.28967,0.36985 0.5388,0.76658 0.78858,1.16375 0.17889,0.25626 0.3057,0.5402 0.41135,0.83251 -0.01,1.18792 0.0423,2.37556 0.18345,3.55637 0.22379,1.68831 1.05617,2.78145 2.06912,4.06487 0.67716,0.91885 1.31179,1.86435 2.0991,2.69441 0.72423,0.78365 1.5133,1.50047 2.29133,2.22932 1.03595,0.8123 1.87407,1.78827 2.61276,2.86908 0.53677,0.95745 1.15378,1.862 1.77871,2.76262 0.47169,0.72927 1.10102,1.32792 1.67793,1.96939 0.72538,0.83146 1.43394,1.67976 2.18695,2.48667 0.82084,0.84272 1.65722,1.66221 2.43499,2.54661 0.44908,0.55011 0.22596,0.28001 0.66766,0.80977 l 3.5295,1.49345 c -0.46873,-0.52846 -0.23474,-0.25267 -0.70022,-0.82889 -0.43417,-0.48981 -0.85577,-0.99923 -1.31206,-1.46864 -0.24967,-0.25687 -0.53375,-0.47926 -0.77825,-0.74104 -0.098,-0.10491 -0.18214,-0.22197 -0.27337,-0.3328 -0.80761,-0.75921 -1.50696,-1.63417 -2.2381,-2.46445 -0.10274,-0.14319 -0.19515,-0.29449 -0.30851,-0.42943 -0.17116,-0.20376 -0.38343,-0.36942 -0.56844,-0.56069 -0.37803,-0.39081 -0.18404,-0.18935 -0.52452,-0.61702 -0.089,-0.1118 -0.1811,-0.22082 -0.27182,-0.33124 -0.63665,-0.90478 -1.30576,-1.79071 -1.82056,-2.77451 -0.73275,-1.09557 -1.51065,-2.13748 -2.57193,-2.94349 -0.76422,-0.71889 -1.54935,-1.4178 -2.25103,-2.19935 -0.84415,-0.80298 -1.5337,-1.72373 -2.19056,-2.68407 -0.96751,-1.23566 -1.97075,-2.30528 -2.23966,-3.9269 -0.0516,-0.32387 -0.11863,-0.64557 -0.15503,-0.97151 -0.0954,-0.85387 -0.0734,-1.72036 0.0202,-2.57711 l 0.21652,0.10077 c -0.0627,-0.15142 -0.11744,-0.30728 -0.17673,-0.46095 0.0383,-0.28397 0.0824,-0.56687 0.13591,-0.84698 l -0.93225,-0.50436 c -0.0799,-0.12634 -0.15935,-0.25302 -0.24236,-0.37724 -0.23063,-0.33559 -0.49517,-0.64691 -0.7307,-0.97927 -0.27098,-0.40245 -0.51191,-0.8249 -0.80357,-1.21284 -0.46234,-0.6329 -0.95593,-1.24611 -1.36116,-1.91823 -0.34407,-0.59073 -0.66597,-1.19081 -0.93689,-1.81953 -0.0519,-0.10655 -0.0993,-0.21557 -0.15555,-0.31988 -0.13056,-0.24189 -0.22187,-0.34573 -0.3452,-0.59014 -0.13983,-0.27712 -0.25124,-0.56925 -0.42529,-0.82941 -0.15988,-0.27297 -0.34944,-0.52047 -0.51677,-0.78806 -0.18617,-0.29773 -0.33821,-0.6171 -0.52038,-0.91726 -0.30126,-0.54631 -0.61023,-1.08709 -0.8599,-1.65985 -0.29343,-0.54013 -0.57644,-1.08107 -0.82837,-1.64176 -0.1737,-0.30134 -0.30733,-0.61932 -0.46922,-0.92655 -0.0356,-0.0676 -0.0821,-0.12907 -0.11421,-0.19844 -0.0331,-0.0714 -0.0538,-0.14821 -0.0806,-0.22221 -0.21064,-0.44196 -0.44673,-0.87247 -0.70694,-1.28674 -0.28461,-0.46532 -0.57978,-0.92152 -0.84232,-1.39992 -0.24646,-0.40232 0.0118,0.033 -0.1912,-0.34933 -0.0249,-0.0468 -0.0609,-0.0882 -0.0817,-0.13694 -0.073,-0.17094 -0.0932,-0.3658 -0.17519,-0.53434 -0.10409,-0.44702 -0.26754,-0.874 -0.38033,-1.31826 -0.12531,-0.55771 -0.26219,-1.11749 -0.46044,-1.65365 -0.18142,-0.41503 -0.22045,-0.85318 -0.25373,-1.30225 -0.0699,-0.66 -0.0553,-1.32136 -0.0444,-1.98437 0.0324,-0.73366 0.0513,-1.47209 0.19068,-2.19522 0.008,-0.0443 0.0153,-0.0885 0.0233,-0.1328 l 0.20308,0.12454 c 0.0674,-0.0604 0.12592,-0.13327 0.20258,-0.18139 0.92194,-0.57886 3.21195,-0.67058 4.29431,-0.75241 0.35339,-0.0164 0.70686,-0.0362 1.0604,-0.0491 0.63092,-0.0231 1.32986,-0.0704 1.99936,-0.008 2.93918,2.64569 5.53376,5.64499 7.97781,8.74624 1.85927,2.58745 3.16949,5.54633 4.58163,8.3938 0.64943,1.23867 1.19993,2.54091 2.00608,3.69125 0.46664,0.66587 0.56443,0.73144 1.11828,1.3317 0.53558,0.47292 1.09633,0.92477 1.6769,1.35237 0.0807,0.12437 0.16436,0.24767 0.25373,0.36794 0.61373,0.73443 1.20116,1.53246 2.08204,1.9637 0.94038,0.54229 1.69782,1.30696 2.26033,2.23811 0.43164,0.88166 0.84897,1.76574 1.12551,2.71043 l 3.60495,1.59731 c -0.45212,-0.89931 -0.8369,-1.83445 -1.27848,-2.74195 -0.51021,-0.97532 -1.23436,-1.76872 -2.12286,-2.40554 -0.61879,-0.31437 -1.12399,-0.75561 -1.58802,-1.24746 0.37514,0.15687 0.75304,0.30506 1.13688,0.43563 l -2.13372,-1.6738 c -0.12225,-0.19128 -0.23678,-0.38699 -0.3421,-0.58808 0.47773,0.27251 0.92989,0.52904 1.52963,0.8785 -0.148,-0.0867 -0.31845,-0.18753 -0.40566,-0.24701 -0.22619,-0.15427 -0.43458,-0.33336 -0.65164,-0.50023 -0.20464,-0.19818 -0.41942,-0.38619 -0.6134,-0.5948 -0.0602,-0.0648 -0.1149,-0.1337 -0.17312,-0.19999 -0.0173,-0.0394 -0.0367,-0.0777 -0.0537,-0.1173 l -0.0811,-0.0372 c -1.03455,-1.2285 -1.76404,-2.68187 -2.57348,-4.0597 -0.52413,-0.97783 -1.03168,-1.90069 -1.5136,-2.90215 -0.24423,-0.50752 -0.45553,-1.03062 -0.69919,-1.5384 -0.67038,-1.39706 -1.42571,-2.75571 -2.29856,-4.03697 -2.64288,-3.23272 -5.55151,-6.23792 -8.49613,-9.19478 -2.01755,-1.3161 -4.00025,-2.68652 -6.05234,-3.94808 -0.46647,-0.28678 -0.97106,-0.51878 -1.49138,-0.68937 -0.50789,-0.16651 -1.04147,-0.23197 -1.58337,-0.24443 z m 26.68675,28.31042 c 0.20681,0.12118 0.37384,0.21606 0.24649,0.14159 -0.0998,-0.0584 -0.14984,-0.0853 -0.24649,-0.14159 z m -21.60075,-25.01449 c 0.28283,0.0419 0.55808,0.10566 0.817,0.2067 0.44986,0.17555 1.72133,0.86356 1.26401,0.70849 -0.71771,-0.24337 -1.3963,-0.58764 -2.08101,-0.91519 z"
           transform="translate(1.0208333e-6)"
           inkscape:label="lines" /></g></g></g></svg>
