<?xml version="1.0" encoding="UTF-8" standalone="no"?>
<!-- Created with Inkscape (http://www.inkscape.org/) -->

<svg
   width="28.17642mm"
   height="21.100037mm"
   viewBox="0 0 28.17642 21.100037"
   version="1.1"
   id="svg1"
   inkscape:version="1.3.2 (091e20e, 2023-11-25, custom)"
   sodipodi:docname="mage-idle-0.svg"
   xml:space="preserve"
   inkscape:export-filename="..\separated\bottom-body-cloths.svg"
   inkscape:export-xdpi="96"
   inkscape:export-ydpi="96"
   xmlns:inkscape="http://www.inkscape.org/namespaces/inkscape"
   xmlns:sodipodi="http://sodipodi.sourceforge.net/DTD/sodipodi-0.dtd"
   xmlns="http://www.w3.org/2000/svg"
   xmlns:svg="http://www.w3.org/2000/svg"><sodipodi:namedview
     id="namedview1"
     pagecolor="#ffffff"
     bordercolor="#000000"
     borderopacity="0.25"
     inkscape:showpageshadow="2"
     inkscape:pageopacity="0.0"
     inkscape:pagecheckerboard="0"
     inkscape:deskcolor="#d1d1d1"
     inkscape:document-units="mm"
     inkscape:export-bgcolor="#ffffff00"
     inkscape:zoom="0.53033009"
     inkscape:cx="277.18586"
     inkscape:cy="500.6316"
     inkscape:window-width="1304"
     inkscape:window-height="745"
     inkscape:window-x="1358"
     inkscape:window-y="-8"
     inkscape:window-maximized="1"
     inkscape:current-layer="g1928" /><defs
     id="defs1" /><g
     inkscape:groupmode="layer"
     id="layer4"
     inkscape:label="mage"
     transform="translate(-138.36724,-252.68761)"
     inkscape:highlight-color="#7d39ff"><g
       id="g1314"
       inkscape:label="body"
       style="display:inline"
       transform="translate(31.929799,2.9934187)"><g
         id="g1341"
         inkscape:label="legs"
         transform="translate(-1.500346,25.49967)"
         style="display:inline"><g
           id="g1928"
           inkscape:label="right foot"
           style="display:inline"
           transform="matrix(-1,0,0,1,203.48255,-0.35277778)"><path
             style="display:inline;fill:#808080;fill-opacity:1;stroke:none;stroke-width:1.37953;stroke-linecap:round;stroke-linejoin:round;stroke-dasharray:none;stroke-opacity:1"
             d="m 219.57882,965.94419 c 3.74694,-6.70296 7.42127,-11.55605 12.06799,-15.93953 1.83255,-1.72873 3.33561,-3.46543 3.34013,-3.85932 0.005,-0.3939 1.36246,-1.783 3.01764,-3.0869 1.65519,-1.30389 4.9687,-4.07508 7.36336,-6.15818 4.95312,-4.30869 9.0002,-6.55601 13.43314,-7.45932 l 3.06413,-0.62439 0.13842,2.94682 c 0.11623,2.47426 -0.13791,3.65288 -1.58479,7.3498 -0.94777,2.42164 -1.76293,5.16015 -1.81148,6.08557 -0.18254,3.47968 -4.80225,9.62448 -10.30085,13.70144 -5.36334,3.97668 -12.88094,7.47183 -21.56094,10.02431 -4.01872,1.18177 -7.99711,2.28597 -8.84085,2.45378 l -1.53409,0.30511 z"
             id="path1926"
             transform="matrix(0.26458333,0,0,0.26458333,20.975346,-17.69967)"
             inkscape:label="color" /><path
             style="display:inline;fill:#000000;fill-opacity:1;stroke:none;stroke-width:0.365001;stroke-linecap:round;stroke-linejoin:round;stroke-dasharray:none;stroke-opacity:1"
             id="path1927"
             d="m 78.164393,229.62841 c -0.998289,0.94639 -1.874652,2.00389 -2.716787,3.08826 -0.829566,0.96725 -1.381688,2.10008 -2.001871,3.19704 -0.308476,0.63929 -0.87453,0.81004 -1.481323,1.06382 -2.496331,1.04407 1.061455,-0.37673 -1.580338,0.66705 -1.016042,0.51657 -2.374406,1.03302 -2.873674,2.17131 -0.08113,0.18498 -0.0947,0.39271 -0.142054,0.58906 0.05408,0.70178 0.363452,1.52776 1.010808,1.91437 5.226397,3.12128 3.503626,2.60849 6.092129,3.29778 1.635149,0.19866 3.078692,-0.62149 4.503039,-1.29488 1.108051,-0.5315 2.246059,-1.02572 3.422798,-1.3857 1.499847,-0.35684 2.948398,-0.88658 4.407578,-1.38088 2.008674,-0.58186 3.783975,-1.67456 5.391607,-2.98674 1.133168,-0.99199 2.002867,-2.20067 2.570091,-3.59049 0.166794,-0.48818 0.235866,-0.99698 0.301527,-1.50566 0,0 -5.174789,-2.70565 -5.174789,-2.70565 v 0 c -0.03771,0.46713 -0.07567,0.93521 -0.210397,1.38723 -0.449479,1.32819 -1.236469,2.47279 -2.289691,3.40425 -1.5646,1.27839 -3.298682,2.28544 -5.262493,2.82015 -1.51275,0.46953 -3.024386,0.92665 -4.567759,1.28408 -1.148977,0.43744 -2.264055,0.95986 -3.366024,1.5037 -1.356847,0.65533 -2.762337,1.3507 -4.300625,0.89927 -2.139204,-0.84688 -0.791186,-0.34674 3.883671,2.41479 0.147114,0.0869 -0.30095,-0.16511 -0.435287,-0.27069 -0.357741,-0.28118 -0.651767,-0.65954 -0.822391,-1.07919 0.0021,-0.1264 -0.03357,-0.25938 0.0067,-0.37922 0.326313,-0.9706 1.764281,-1.5413 2.580526,-1.93532 1.238872,-0.47713 2.708386,-0.74001 3.390355,-2.00259 0.56641,-1.08813 1.068012,-2.2084 1.859688,-3.16339 0.825314,-1.01479 1.654939,-2.10044 2.770867,-2.80873 z"
             inkscape:label="left foot" /><path
             style="display:inline;fill:#000000;fill-opacity:1;stroke:none;stroke-width:0.365001;stroke-linecap:round;stroke-linejoin:round;stroke-dasharray:none;stroke-opacity:1"
             id="path1928"
             d="m 82.417689,233.26075 c 0.38378,-0.59088 0.918411,-1.06755 1.45801,-1.51339 0.291973,-0.25442 0.634061,-0.44485 0.935543,-0.68619 0.245702,-0.19669 0.472977,-0.42694 0.700944,-0.64369 0.372714,-0.33143 0.740977,-0.66543 1.115907,-0.99443 0.293852,-0.23746 0.630941,-0.42038 0.961705,-0.60207 0.451281,-0.33389 0.983371,-0.46419 1.516203,-0.59921 0.652134,-0.20449 1.333407,-0.25373 2.011928,-0.27658 0.451906,-0.008 0.90347,0.0169 1.355199,0.0209 0.101409,0.0472 0.221623,0.0304 0.324334,0.0717 0.04974,0.02 0.08751,0.0629 0.135808,0.0862 0.05466,0.0264 0.117573,0.0335 0.171241,0.0618 0.06091,0.0321 0.229449,0.1521 0.169574,0.11806 -1.563169,-0.88866 -3.120115,-1.78821 -4.680172,-2.68232 0.449688,0.23725 0.831559,0.557 1.193953,0.9077 0.256776,0.26904 0.428353,0.58804 0.50832,0.94912 0.05602,0.3345 0.06302,0.67455 0.07485,1.01284 -0.01569,0.36349 0.0061,0.72903 -0.0204,1.09184 -0.05268,0.39655 -0.195969,0.76143 -0.360214,1.12311 -0.176157,0.32186 -0.280808,0.67439 -0.401331,1.01943 -0.0641,0.18313 -0.121205,0.3686 -0.179906,0.55349 0,0 5.087139,2.77731 5.087139,2.77731 v 0 c 0.04778,-0.18004 0.102187,-0.35691 0.183785,-0.52528 0.110042,-0.33923 0.212121,-0.67747 0.368821,-0.99989 0.142994,-0.40969 0.312018,-0.81215 0.426778,-1.23012 0.01677,-0.0752 0.04057,-0.14908 0.05035,-0.22546 0.04029,-0.31447 -0.02851,-0.64141 -0.0011,-0.95697 0.01458,-0.36325 0.03742,-0.7288 -0.0027,-1.09112 -0.06319,-0.45009 -0.173355,-0.87377 -0.440875,-1.25163 -0.30752,-0.44091 -0.709774,-0.80102 -1.160629,-1.09365 -1.713487,-0.98812 -3.418901,-1.99036 -5.14046,-2.96434 -0.07745,-0.0438 -0.167907,-0.0591 -0.252487,-0.0867 -0.244051,-0.0798 -0.495413,-0.096 -0.751284,-0.0763 -0.424659,0.005 -0.848751,0.0386 -1.269801,0.0939 -0.692129,0.0849 -1.38175,0.19536 -2.05971,0.36049 -0.585661,0.14676 -1.136573,0.36386 -1.6647,0.65797 -0.392256,0.1925 -0.770192,0.40471 -1.079424,0.71982 -0.34033,0.34964 -0.659503,0.71963 -1.018444,1.05112 -0.496885,0.46162 -0.966753,0.95305 -1.486564,1.39055 -0.309367,0.27131 -0.378048,0.34436 -0.717045,0.58833 -0.122256,0.088 -0.252971,0.16377 -0.375494,0.25138 -0.222282,0.15894 -0.420243,0.3585 -0.681921,0.45511 z" /></g></g></g></g></svg>
