<?xml version="1.0" encoding="UTF-8" standalone="no"?>
<!-- Created with Inkscape (http://www.inkscape.org/) -->

<svg
   width="71.586678mm"
   height="51.077156mm"
   viewBox="0 0 71.586677 51.077157"
   version="1.1"
   id="svg1"
   inkscape:version="1.3.2 (091e20e, 2023-11-25, custom)"
   sodipodi:docname="mage-idle-0.svg"
   xml:space="preserve"
   inkscape:export-filename="..\separated\bottom-body-cloths.svg"
   inkscape:export-xdpi="96"
   inkscape:export-ydpi="96"
   xmlns:inkscape="http://www.inkscape.org/namespaces/inkscape"
   xmlns:sodipodi="http://sodipodi.sourceforge.net/DTD/sodipodi-0.dtd"
   xmlns="http://www.w3.org/2000/svg"
   xmlns:svg="http://www.w3.org/2000/svg"><sodipodi:namedview
     id="namedview1"
     pagecolor="#ffffff"
     bordercolor="#000000"
     borderopacity="0.25"
     inkscape:showpageshadow="2"
     inkscape:pageopacity="0.0"
     inkscape:pagecheckerboard="0"
     inkscape:deskcolor="#d1d1d1"
     inkscape:document-units="mm"
     inkscape:export-bgcolor="#ffffff00"
     inkscape:zoom="0.53033009"
     inkscape:cx="277.18586"
     inkscape:cy="500.6316"
     inkscape:window-width="1304"
     inkscape:window-height="745"
     inkscape:window-x="1358"
     inkscape:window-y="-8"
     inkscape:window-maximized="1"
     inkscape:current-layer="g1928" /><defs
     id="defs1"><filter
       style="color-interpolation-filters:sRGB"
       inkscape:label="Cutout Glow"
       id="filter1845"
       x="-0.43076707"
       y="-0.25649737"
       width="1.9296413"
       height="1.5620151"
       inkscape:menu-tooltip="In and out glow with a possible offset and colorizable flood"
       inkscape:menu="Shadows and Glows"><feFlood
         result="flood"
         in="SourceGraphic"
         flood-opacity="0.901961"
         flood-color="rgb(0,0,0)"
         id="feFlood1844" /><feGaussianBlur
         result="blur"
         in="SourceGraphic"
         stdDeviation="8.510638"
         id="feGaussianBlur1844" /><feOffset
         result="offset"
         in="blur"
         dx="1.367781"
         dy="2.279635"
         id="feOffset1844" /><feComposite
         result="comp1"
         operator="in"
         in="flood"
         in2="offset"
         id="feComposite1844" /><feComposite
         result="fbSourceGraphic"
         operator="atop"
         in="comp1"
         in2="SourceGraphic"
         id="feComposite1845" /><feColorMatrix
         result="fbSourceGraphicAlpha"
         in="fbSourceGraphic"
         values="0 0 0 -1 0 0 0 0 -1 0 0 0 0 -1 0 0 0 0 1 0"
         id="feColorMatrix1852" /><feOffset
         id="feOffset1852"
         dy="3"
         dx="3"
         in="fbSourceGraphic" /><feGaussianBlur
         id="feGaussianBlur1852"
         stdDeviation="3"
         result="blur" /><feFlood
         id="feFlood1852"
         flood-color="rgb(0,0,0)"
         flood-opacity="1"
         result="flood" /><feComposite
         id="feComposite1852"
         in="flood"
         in2="fbSourceGraphic"
         operator="in"
         result="composite" /><feBlend
         id="feBlend1852"
         in="blur"
         in2="composite"
         mode="normal" /></filter></defs><g
     inkscape:groupmode="layer"
     id="layer4"
     inkscape:label="mage"
     transform="translate(-115.72514,-158.5137)"
     inkscape:highlight-color="#7d39ff"><g
       id="g1314"
       inkscape:label="body"
       style="display:inline"
       transform="translate(31.929799,2.9934187)"><g
         id="g89"
         inkscape:label="arm right - up"
         style="display:inline"
         inkscape:export-filename="..\separated\right-arm.svg"
         inkscape:export-xdpi="96"
         inkscape:export-ydpi="96"
         transform="rotate(-81.384871,113.31106,191.28105)"><path
           id="path83"
           style="display:inline;fill:#116eff;fill-opacity:1;stroke-width:0.365001;stroke-linecap:round;stroke-linejoin:round"
           inkscape:label="color"
           d="m 117.00893,167.83246 c 0.49411,0.27994 0.99321,0.55028 1.49099,0.82358 0.66226,0.5804 1.37607,1.09534 2.07865,1.62435 0.46168,0.34028 0.93364,0.66526 1.37118,1.03669 0.54661,0.42617 1.03543,0.91913 1.46974,1.45875 0.0577,0.0963 0.12272,0.19511 0.18663,0.29167 0.0319,-0.27392 0.0643,-0.54897 0.13879,-0.81364 l 0.2478,0.8504 -0.0292,-0.61134 c 0.0559,0.14174 0.07,0.19505 0.1486,0.32401 0.0269,0.0442 0.0599,0.0849 0.0898,0.12727 0.0307,0.0379 0.0665,0.0718 0.0921,0.11322 0.0221,0.0358 0.0333,0.0775 0.0499,0.11625 0.10492,0.25351 0.20043,0.50914 0.31312,0.75882 0.10648,0.36313 0.18009,0.73785 0.40484,1.05328 0.34056,0.57108 0.60536,1.18536 0.99842,1.72573 0.35964,0.52092 0.71944,1.03476 1.02136,1.59185 0.0371,0.074 0.0714,0.14935 0.11161,0.2218 0.34088,0.61542 -0.0838,-0.18421 0.23272,0.36946 0.0635,0.11105 0.0995,0.23702 0.20372,0.32089 l 0.1015,2.11287 c 0.1046,0.11309 0.20995,0.22589 0.31988,0.33424 0.32516,0.30041 0.68043,0.58269 0.98005,0.9094 0.0547,0.0597 0.10019,0.12718 0.1543,0.18735 0.0522,0.0582 0.11,0.11116 0.16463,0.16709 0.31748,0.27722 0.61226,0.57327 0.86434,0.91267 0.37215,0.40229 0.68567,0.85727 1.07796,1.24243 0.0707,0.0762 0.13776,0.15523 0.21128,0.22865 0.26849,0.26811 0.58322,0.49481 0.80265,0.80946 0.20935,0.34547 0.53511,0.60032 0.79875,0.90249 0.211,0.22643 0.10076,0.11359 0.32878,0.33732 0.21939,0.23012 0.387,0.50347 0.62114,0.7214 0.27611,0.29989 0.48962,0.65915 0.8201,0.90757 0.26668,0.26299 0.52242,0.53273 0.70142,0.86636 0.25524,0.37963 0.55915,0.72651 0.77487,1.13158 0.2319,0.3824 0.50838,0.73804 0.74266,1.11946 0.20217,0.25146 0.3976,0.50765 0.59795,0.75997 0.27214,0.27199 0.58842,0.50174 0.79161,0.83639 0.22849,0.28882 0.44838,0.58562 0.65511,0.8901 0.0709,0.10113 0.12226,0.16847 0.18226,0.27582 0.0212,0.038 0.0344,0.0807 0.0576,0.11749 0.0685,0.10803 0.17885,0.18256 0.24579,0.29195 0.16738,0.25693 0.36588,0.49345 0.51037,0.76553 0.28858,0.44905 -0.0979,-0.13821 0.21987,0.30083 0.1328,0.18355 0.23372,0.38895 0.36241,0.57517 0.085,0.32256 0.27135,0.59228 0.46695,0.85896 0.22068,0.34839 0.43586,0.69942 0.6651,1.04232 0.0505,0.0715 0.1273,0.18604 0.19075,0.24812 0.0523,0.0507 0.17262,0.13128 0.2304,0.18232 0.0959,0.0835 0.0111,0.0359 0.0966,0.0777 l 0.12471,0.98478 c 0.0854,-0.10003 0.19147,-0.1797 0.34172,-0.20424 0.0607,-0.01 0.12207,0.009 0.1834,0.0128 0.21804,0.16801 0.32821,0.40449 0.44261,0.64963 0.22624,1.30082 0.46607,2.5994 0.67893,3.90247 0.006,0.039 -0.0433,0.21074 -0.0559,0.24586 -0.0362,0.10139 -0.0889,0.19733 -0.12119,0.30049 -0.0517,0.13212 -0.10285,0.2655 -0.15754,0.3971 -0.005,-0.0689 -0.0153,-0.15149 -0.0241,-0.23152 -0.042,0.16556 -0.0665,0.3144 -0.078,0.44655 0.0359,-0.0705 0.0704,-0.14132 0.10069,-0.2146 0.08,1.00679 -0.15752,0.87173 -0.10291,0.22103 -0.0148,0.0296 -0.0262,0.061 -0.043,0.0895 -0.0724,0.0167 -0.16713,0.0721 -0.2545,0.11449 0.10269,0.6053 0.20941,1.21034 0.31394,1.8153 -0.11244,0.38307 -0.2589,0.75437 -0.3843,1.1333 -0.035,0.11527 -0.0757,0.22827 -0.1189,0.33985 l -2.4e-4,4.7e-4 c -0.13183,0.33388 -0.29782,0.65297 -0.45835,0.97464 -0.12911,0.26562 -0.27813,0.53758 -0.47226,0.76335 -0.0516,0.0602 -0.23821,0.23744 -0.29554,0.29261 -0.33475,0.3001 -0.63855,0.55945 -0.89133,0.93575 -0.14968,0.17875 -0.22363,0.43664 -0.43468,0.5604 -0.13044,0.0768 -0.21879,0.08 -0.36362,0.10667 -0.39216,0.041 -0.77386,-0.0694 -1.14889,-0.16951 -0.37958,-0.13105 -0.7659,-0.24105 -1.15271,-0.34835 -0.39326,-0.0981 -0.77334,-0.24265 -1.15251,-0.38461 -0.47216,-0.1421 -0.90751,-0.35333 -1.30813,-0.63908 -0.4162,-0.29287 -0.63788,-0.7527 -0.91327,-1.16462 -0.0248,-0.0395 -0.0531,-0.0761 -0.0789,-0.11488 -0.36799,-0.31014 -0.73751,-0.61893 -1.10901,-0.92508 -0.15903,0.15494 -0.366,0.25353 -0.59856,0.15888 -0.054,-0.0215 -0.0951,-0.0667 -0.14218,-0.10084 -0.4311,-0.37747 -0.81523,-0.80604 -1.25995,-1.16864 -0.61905,-0.51968 -1.18899,-1.09586 -1.70906,-1.71491 -1.23934,-1.38361 -0.48492,-0.53959 -0.61188,-0.67762 -0.18433,-0.0844 -0.37204,-0.16158 -0.56311,-0.23078 l -0.0797,-0.6245 c -0.0791,-0.0199 -0.16378,-0.0422 -0.21965,-0.0588 -0.10526,-0.0315 -0.16856,-0.1415 -0.25196,-0.21309 -0.10086,-0.086 -0.19893,-0.17515 -0.30046,-0.2604 -0.15929,-0.13364 -0.50281,-0.40607 -0.66467,-0.53526 -0.27422,-0.19906 -0.53044,-0.4175 -0.77872,-0.64496 -0.002,-0.002 -0.004,-0.003 -0.007,-0.006 -0.0609,-0.0496 -0.16852,-0.0714 -0.18264,-0.14886 -0.001,-0.01 -0.004,-0.0202 -0.005,-0.0305 -0.23358,-0.22291 -0.46267,-0.45108 -0.68824,-0.68305 -0.54225,-0.55087 -1.07312,-1.11195 -1.58853,-1.68796 -0.33444,-0.3546 -0.61077,-0.75211 -0.87196,-1.1617 -0.2595,-0.41674 -0.50787,-0.84057 -0.7535,-1.2657 -0.18546,-0.30361 -0.39056,-0.59277 -0.5723,-0.89882 -0.21183,-0.37646 -0.47824,-0.72372 -0.74038,-1.06714 -0.25034,-0.30001 -0.5184,-0.58372 -0.76694,-0.88531 -0.31566,-0.43406 -0.64617,-0.856 -0.95301,-1.29654 -0.30001,-0.41794 -0.55633,-0.86453 -0.87623,-1.26796 -0.26257,-0.28744 -0.53809,-0.56472 -0.82062,-0.83266 -0.0428,-0.041 -0.0872,-0.0806 -0.12837,-0.12337 -0.15371,-0.15949 -0.10747,-0.13542 -0.27345,-0.2875 -0.13886,-0.12715 -0.29445,-0.23822 -0.44223,-0.35455 -0.40905,-0.26983 -0.79928,-0.5643 -1.21559,-0.82345 -0.15529,-0.0944 -0.31728,-0.17767 -0.47574,-0.26637 0.0361,0.26732 0.0414,0.49218 -0.0127,0.62921 -0.0667,0.16797 -0.21889,0.20764 -0.49029,0.0617 -2.1e-4,0.004 -1e-5,0.005 0.001,0.008 10e-4,0.0167 -0.007,0.003 -0.0186,-0.0178 -0.01,-0.006 -0.0189,-0.009 -0.0295,-0.016 -0.10215,-0.091 -0.20036,-0.18599 -0.29008,-0.28713 -0.0119,-0.008 -0.0212,-0.015 -0.0336,-0.0246 -0.37551,-0.23905 -0.78226,-0.41891 -1.18159,-0.61241 -0.1847,-0.10471 -0.096,-0.0501 -0.2682,-0.16136 l -0.13299,-1.44678 c -0.16568,-0.0935 -0.32458,-0.20032 -0.48429,-0.30385 -0.27162,-0.17369 -0.46983,-0.4273 -0.68831,-0.659 -0.2689,-0.30974 -0.55925,-0.59918 -0.84007,-0.8978 -0.21239,-0.23762 -0.36335,-0.51913 -0.47128,-0.81724 -0.0714,-0.28582 -0.19677,-0.55197 -0.32215,-0.81714 -0.14483,-0.28875 -0.29571,-0.57498 -0.43527,-0.86651 -0.0578,-0.1109 -0.1174,-0.22026 -0.18297,-0.32673 l -3.8e-4,-0.008 c -0.0318,-0.0247 -0.0639,-0.0493 -0.0954,-0.0744 -0.0486,-0.0404 -0.0957,-0.0821 -0.14502,-0.12176 -0.0448,-0.035 -0.0958,-0.0621 -0.13796,-0.10018 -0.0258,-0.0232 -0.0349,-0.0629 -0.0628,-0.0838 -0.0334,-0.0251 -0.0761,-0.0326 -0.11425,-0.0495 -0.0174,-0.0144 -0.0351,-0.029 -0.0524,-0.0432 l -0.0545,-1.94884 c -0.19109,-0.28612 -0.37507,-0.57722 -0.54684,-0.87741 -0.18967,-0.32892 -0.5145,-0.88548 -0.68516,-1.21175 -0.24497,-0.46836 -0.46088,-0.95169 -0.65493,-1.44387 -0.27744,-0.054 -0.47044,-0.27677 -0.88358,-0.78794 -0.34967,-0.45523 -0.71046,-0.90335 -1.02021,-1.38743 -0.36087,-0.5272 -0.77497,-1.02639 -0.97394,-1.64379 -0.1313,-0.3517 -0.24485,-0.70926 -0.36168,-1.0658 -0.0701,-0.0814 -0.1391,-0.16388 -0.2096,-0.24478 -0.40778,-0.50955 -0.83748,-1.0009 -1.1995,-1.5448 -0.30023,-0.39029 -0.49245,-0.82746 -0.65105,-1.28904 -0.13476,-0.42983 -0.25981,-0.87921 -0.22112,-1.33583 0.008,-0.0983 0.0331,-0.19422 0.0499,-0.29135 0.13721,-0.34385 0.33861,-0.57515 0.58783,-0.74909 -0.0601,-0.26449 -0.12404,-0.5281 -0.19957,-0.78852 -0.11874,-0.48028 -0.24049,-0.94799 -0.10472,-1.44147 0.10491,-0.37042 0.31247,-0.69173 0.54032,-1.00029 0.0505,-0.0654 0.21053,-0.27781 0.26931,-0.33439 1.10282,-1.07073 3.94342,-0.062 4.54042,-0.49645 0.44232,0.0566 0.81329,0.18379 1.19033,0.42551 0.43859,0.23286 0.86278,0.49262 1.30886,0.71168 0.36882,0.19521 0.73788,0.39055 1.0897,0.61506 0.25818,-0.021 0.51635,-0.0416 0.7748,-0.0578 0.11311,-0.007 0.19699,0.11221 0.29695,0.16573 0.41019,0.21949 0.61806,0.31736 1.05052,0.53105 1.04411,0.47944 2.07459,0.98606 3.10275,1.4986 0.53139,0.25115 1.05419,0.51867 1.57134,0.79768 z m -13.6668,-3.99688 c -0.0927,-0.0162 -0.18587,-0.0261 -0.28046,-0.0222 -0.0728,0.003 -0.14406,0.0236 -0.21593,0.0355 0.16544,-0.004 0.33094,-0.008 0.4964,-0.0132 z m 12.36693,17.32558 c -0.0132,-0.001 -0.0252,-0.002 -0.0378,-0.003 0.007,0.0219 0.0144,0.0433 0.0211,0.0655 0.005,-0.0206 0.0118,-0.0416 0.0171,-0.0625 z m 27.41311,26.37679 c -0.006,0.0169 -0.0123,0.0341 -0.0188,0.051 0.0148,0.0789 0.028,0.15822 0.0429,0.23697 0.008,0.0403 0.0103,-0.0825 0.009,-0.12342 -0.002,-0.0554 -0.0232,-0.11091 -0.0327,-0.1645 z" /><path
           id="path102"
           style="display:inline;fill:#116eff;fill-opacity:1;stroke-width:0.365001;stroke-linecap:round;stroke-linejoin:round"
           d="m 127.07727,200.84972 c 0.009,-0.10898 -0.47084,0.74522 -0.72529,0.96705 -0.006,0.005 -0.0129,0.0101 -0.0191,0.0154 3.5e-4,-0.0143 0.002,-0.0284 0.002,-0.0427 5.4e-4,-0.14686 -0.17172,0.11856 -0.30583,0.27892 -0.0214,0.0154 -0.0433,0.03 -0.0647,0.0453 -0.008,-0.006 -0.0149,-0.0122 -0.0226,-0.018 -0.0769,-0.0571 -0.15914,-0.10687 -0.23425,-0.16626 -0.41415,-0.32751 -0.77737,-0.71723 -1.13789,-1.10081 -0.0848,-0.10095 -0.1688,-0.20329 -0.25181,-0.30628 -0.0845,-0.1445 -0.16944,-0.28891 -0.25143,-0.43492 -0.27376,-0.47594 -0.21959,-0.36583 -0.4648,-0.85312 -0.18202,-0.36172 -0.36662,-0.7302 -0.45624,-1.12777 l -0.10646,0.2184 c -0.003,-0.006 -0.006,-0.013 -0.009,-0.0195 -0.0172,-0.0334 -0.0281,-0.0538 -0.0435,-0.0838 -0.017,-0.0796 -0.0346,-0.15438 -0.0635,-0.1221 -0.24058,-0.45814 -0.24953,-0.3051 -0.53346,0.73937 -0.62576,0.83412 -0.54196,0.59473 -0.28361,0.98794 -6.3e-4,0.002 -0.001,0.003 -0.002,0.006 -0.0133,0.0435 0.0283,0.0767 0.07,0.11013 0.0127,0.0233 0.0253,0.0438 0.0384,0.0705 0.0227,0.0444 0.0464,0.0881 0.0697,0.13214 l -0.0865,0.24307 c -0.005,4e-5 -0.01,-6.6e-4 -0.0147,-3.8e-4 -0.0111,3.5e-4 -0.0222,-2.9e-4 -0.0333,8.6e-4 -0.025,0.002 -0.0474,0.0133 -0.0712,0.0202 -0.007,0.002 -0.0183,-8e-4 -0.0211,0.006 -0.24557,0.59729 -0.48024,1.199 -0.72059,1.79841 2.6e-4,2.6e-4 0.006,0.007 0.01,0.0105 -0.12603,0.3084 -0.2497,0.6176 -0.37277,0.92723 -0.0141,4.7e-4 -0.0416,0.001 -0.0553,0.004 -0.015,0.004 -0.0885,0.0276 -0.0933,0.0397 -0.14266,0.35862 -0.28107,0.7189 -0.4187,1.07949 -0.003,9.7e-4 -0.007,0.002 -0.01,0.003 -0.0688,0.012 -0.13385,0.0379 -0.20254,0.05 -0.0236,0.004 -0.0122,0.001 -0.0356,0.0101 l -0.34715,1.19983 c -0.0956,0.0605 -0.1898,0.12274 -0.28182,0.18905 -0.10358,0.0875 -0.21308,0.17868 -0.30046,0.28333 -0.0222,0.0266 -0.0406,0.0561 -0.0592,0.0853 l 0.0706,-0.25164 c -0.007,0.009 -0.0142,0.0185 -0.0214,0.0278 -0.007,0.0114 -0.012,0.0239 -0.0199,0.0344 -0.0141,0.0189 -0.0303,0.0357 -0.0457,0.0534 -0.019,0.0221 -0.0384,0.0441 -0.0574,0.0662 -0.0969,0.11237 -0.0458,0.0602 -0.14517,0.15266 -0.0477,0.0467 -0.10445,0.0805 -0.16291,0.11144 -0.0119,0.006 -0.025,0.0107 -0.0365,0.0176 -0.006,0.003 -0.0575,0.0428 -0.0643,0.0479 -0.008,0.009 -0.0154,0.0166 -0.0228,0.0254 -0.0111,0.0132 -0.0205,0.0281 -0.0325,0.0405 -0.0394,0.041 -0.0944,0.0653 -0.14565,0.0874 -0.017,0.009 -0.0368,0.009 -0.0546,0.0156 -0.007,0.002 -0.0126,0.007 -0.0194,0.01 -0.005,0.002 -0.0291,0.01 -0.0364,0.0118 l -0.28234,0.96528 c -0.38365,0.23474 -0.76756,0.46934 -1.14592,0.71247 -0.26963,0.15909 -0.54249,0.31186 -0.81474,0.46631 -0.14871,0.05 -0.29721,0.101 -0.4469,0.14819 -0.78719,0.18257 -0.0837,-0.63002 -0.79942,1.89556 -0.012,0.0424 0.0707,0.0416 0.15665,0.0301 -0.0107,0.0142 0.0299,-0.2309 0.0729,-0.18823 -0.0237,0.0626 -0.0471,0.12529 -0.0708,0.18792 0.082,-0.0112 0.16698,-0.0317 0.16767,-0.0317 0.21566,-0.11619 0.41931,-0.2522 0.61986,-0.39339 0.2467,-0.0903 0.495,-0.17667 0.73567,-0.28446 0.18297,-0.0853 0.36393,-0.17576 0.54367,-0.26844 0.004,-5.8e-4 0.009,-0.002 0.0131,-0.003 -0.0837,0.28964 -0.16454,0.58015 -0.25371,0.8679 0.0377,-0.002 0.0763,-7.3e-4 0.11398,-0.003 -0.008,0.0226 -0.0206,0.0608 -0.0272,0.0794 0.0116,-0.0263 0.0241,-0.0502 0.039,-0.0806 0.0142,-0.001 0.0289,-0.001 0.0426,-0.005 0.12364,-0.04 0.36777,-0.21628 0.46221,-0.28171 0.29639,-0.20534 0.5836,-0.4228 0.85542,-0.6601 0.0989,-0.0802 0.19942,-0.15799 0.29977,-0.23619 -1.8e-4,0.07 -4.7e-4,0.14412 -10e-4,0.22803 -0.0563,0.20972 -0.1249,0.4495 -0.22533,0.75855 -0.0152,0.0466 0.0833,-0.0515 0.12394,-0.0789 0.0176,-0.0119 0.035,-0.0242 0.0525,-0.0362 -0.003,0.0121 -0.001,0.009 0.005,-0.004 0.012,-0.008 0.024,-0.0166 0.036,-0.0248 0.006,0.0618 0.0725,0.005 0.15258,-0.0796 0.0178,-0.0166 0.0368,-0.0369 0.0576,-0.0615 0.004,-0.004 0.008,-0.008 0.0122,-0.0128 0.23213,-0.1623 0.46389,-0.32519 0.70276,-0.47756 1.36477,-0.93622 2.66547,-1.96106 4.02367,-2.90671 0.53684,-0.34367 0.93372,-0.61997 1.49351,-0.90208 0.13757,-0.0693 0.35481,-0.0413 0.42677,-0.17755 0.0159,-0.0301 0.03,-0.0611 0.0452,-0.0915 0.0332,-0.0102 0.0699,-0.001 0.10471,-0.002 0.0156,-0.0736 0.0344,-0.14718 0.0549,-0.22052 0.0602,0.0942 0.12347,0.1864 0.19512,0.27358 0.66257,0.38746 0.14803,0.12385 0.93951,-1.78507 0.011,-0.0265 -9.7e-4,-0.054 -0.0145,-0.082 0.0471,-0.0893 0.0466,-0.10518 -0.018,-0.0428 -0.002,-0.005 -0.004,-0.009 -0.005,-0.0138 -0.0538,-0.21337 -0.11423,-0.41977 -0.18459,-0.62849 -0.0892,-0.20374 -0.14976,-0.42777 -0.2807,-0.6108 0.43308,-0.93788 0.72087,-1.5727 0.72571,-1.63351 z m -10.12091,9.8761 c -0.0705,0.16034 -0.081,0.22719 0,0 z m -1.9131,0.0369 c -0.001,1.3e-4 -0.001,1.8e-4 -0.002,3.1e-4 5.4e-4,-7.2e-4 -6.3e-4,0.007 1.9e-4,0.005 6.3e-4,-0.002 0.001,-0.003 0.002,-0.005 z"
           transform="translate(-1.1951538e-6)" /><path
           id="path89"
           style="display:none;fill:#000000;fill-opacity:1;stroke-width:0.365001;stroke-linecap:round;stroke-linejoin:round"
           inkscape:label="lines"
           d="m 122.05738,168.66586 c 0.0279,0.0298 0.0583,0.0573 0.0865,0.0867 0.0624,0.037 0.12626,0.0717 0.18822,0.10937 0.31513,0.20371 0.64003,0.41378 0.84416,0.73795 0.0851,0.13722 0.16433,0.27723 0.24064,0.41896 0.0863,0.0838 0.17126,0.1692 0.25718,0.25346 0.35622,0.26584 0.68314,0.56257 0.90366,0.96384 l -0.0141,6.3e-4 c 0.54658,0.70817 0.94065,1.50217 1.18752,2.37057 0.0866,0.68862 0.33123,1.31291 0.63722,1.9159 -0.0208,-0.40607 -0.0325,-0.81186 -0.0256,-1.21725 l 0.85366,2.57435 c 0.13868,0.17971 0.28448,0.35381 0.4381,0.52091 -0.0949,-0.54174 -0.18384,-1.05421 -0.30994,-1.73678 0.0315,0.16859 0.0693,0.36307 0.0958,0.46525 0.0687,0.26503 0.16673,0.52179 0.25041,0.7825 0.1173,0.25959 0.22129,0.52499 0.35203,0.7781 0.0406,0.0785 0.0871,0.15327 0.12985,0.23046 0.0311,0.0297 0.0606,0.0609 0.0922,0.0902 l 0.008,0.0893 c 0.80635,1.38898 1.92735,2.56681 2.95037,3.79442 0.74305,0.82387 1.44039,1.61338 2.21994,2.40551 0.39508,0.40142 0.81584,0.77722 1.21133,1.17823 1.08815,1.10322 2.11124,2.27359 3.02193,3.52822 2.14879,3.58023 3.99365,7.33354 5.78081,11.10445 0.55645,2.34372 1.17584,4.67276 1.66929,7.03054 0.11218,0.53596 0.15971,1.08939 0.14433,1.63675 -0.015,0.53426 -0.13351,1.05838 -0.30499,1.57257 l -2.4e-4,4.6e-4 c -0.28579,0.85702 -0.71708,1.68525 -1.05383,2.48374 -0.38333,0.82979 -0.56878,1.24819 -0.97896,2.06897 -0.43793,0.87627 -0.84154,1.8481 -1.69651,2.39914 l -0.3679,-1.76867 c -0.13091,-0.0315 -0.26139,-0.0667 -0.39141,-0.0963 -0.7296,-0.17551 -1.45943,-0.34067 -2.17412,-0.57118 -0.63933,-0.19143 -1.26617,-0.41811 -1.88658,-0.66321 -0.4494,-0.18567 -0.8558,-0.31063 -1.24383,-0.61135 -0.41209,-0.39932 -0.87022,-0.73756 -1.35311,-1.04511 -0.37576,-0.239 -0.74888,-0.48239 -1.11428,-0.737 -0.19618,-0.1553 -0.42139,-0.27988 -0.60843,-0.44707 -0.0926,-0.0829 -0.23052,-0.24476 -0.30941,-0.334 -0.34756,-0.43144 -0.6933,-0.86444 -1.04305,-1.29403 -0.29908,-0.36912 -0.60933,-0.72866 -0.93601,-1.07357 -0.36658,-0.35941 -0.7189,-0.73336 -1.06449,-1.11299 -0.40045,-0.46591 -0.84096,-0.89531 -1.25923,-1.34506 -0.4487,-0.45043 -0.86479,-0.92763 -1.28132,-1.40749 -0.43581,-0.49367 -0.85255,-1.00211 -1.26376,-1.51605 -0.42389,-0.50911 -0.86144,-1.00754 -1.3026,-1.50181 -0.49632,-0.49282 -0.99561,-0.97885 -1.42583,-1.53135 -0.47649,-0.60341 -0.90668,-1.24095 -1.36416,-1.85868 -0.28438,-0.37077 -0.56315,-0.746 -0.85246,-1.11299 -0.24811,-0.31622 -0.46772,-0.65331 -0.6897,-0.98809 -0.25012,-0.39764 -0.5393,-0.766 -0.82862,-1.13536 -0.18072,-0.25495 -0.40494,-0.47044 -0.6443,-0.66871 -1.12136,-0.39223 -2.22161,-0.84307 -3.28515,-1.37513 -1.51324,-0.78143 -2.26045,-1.93458 -3.12581,-3.32181 -0.63579,-0.94793 -1.31078,-1.86464 -1.82578,-2.88624 -0.49263,-0.94653 -0.90062,-1.93173 -1.32349,-2.91034 -0.4142,-1.24959 -1.04953,-2.36827 -1.81695,-3.42888 -0.71958,-0.82887 -1.36221,-1.71513 -1.99852,-2.60775 -0.52683,-0.69049 -0.87715,-1.48531 -1.2858,-2.24512 -0.53724,-0.96377 -1.09629,-1.9173 -1.60109,-2.8988 -0.51556,-1.05741 -1.00382,-2.12172 -1.573181,-3.15268 -0.36589,-0.60865 -0.18737,-0.30705 -0.53659,-0.90185 l -0.0232,-0.42249 c -0.0232,-0.0368 -0.0444,-0.0746 -0.0696,-0.11041 -0.20933,-0.41357 -0.40404,-0.83679 -0.52466,-1.28597 -0.0806,-0.37498 -0.096,-0.75114 0.0768,-1.10557 0.11664,-0.21085 0.22847,-0.42394 0.3429,-0.6359 l -0.0147,-0.26637 c 0.0517,0.0947 0.0515,0.0855 0.0829,0.14344 0.0382,-0.0689 0.074,-0.13901 0.1141,-0.2068 0.19181,-0.34071 0.42157,-0.65253 0.724321,-0.90501 0.12861,-0.10756 0.19867,-0.17847 0.34663,-0.2568 0.26251,-0.13904 0.55945,-0.20331 0.83941,-0.29485 0.57651,-0.16977 1.16183,-0.30607 1.74943,-0.43232 0.47802,-0.0778 0.94946,-0.13566 1.43412,-0.1498 4.09247,-0.11931 2.71881,-0.13382 4.46252,-0.10862 0.71317,0.0605 1.42377,0.16146 2.09305,0.4299 0.66895,0.30344 1.29966,0.6774 1.9562,1.00616 0.52111,0.27837 1.04317,0.55521 1.56225,0.8374 0.33266,0.16997 0.66169,0.34725 0.99035,0.52498 0.005,0.002 0.009,0.003 0.0132,0.005 0.63573,0.25454 1.27396,0.50422 1.89721,0.78812 0.51022,0.23834 1.01172,0.49557 1.50355,0.76987 0.44615,0.2437 0.89427,0.48359 1.34494,0.71885 0.36649,0.18794 0.72572,0.38997 1.09326,0.57585 0.20552,0.10323 0.40627,0.21552 0.60552,0.33061 z m -13.69296,-4.53667 c -0.31802,-0.16633 -0.6422,-0.31965 -0.97843,-0.4481 -0.30081,-0.083 -0.608,-0.14882 -0.91719,-0.19941 -0.44489,0.0872 -0.88577,0.19749 -1.32182,0.3203 -0.39093,0.11431 -0.78116,0.23488 -1.13923,0.43127 -0.29136,0.18992 -0.50048,0.46462 -0.6944,0.74731 -0.18392,0.30812 -0.35896,0.62175 -0.52341,0.9407 -0.15408,0.27069 -0.12792,0.55128 -0.0852,0.8461 0.10453,0.40921 0.27405,0.80187 0.49438,1.16157 0.2703,0.27011 0.34022,0.65619 0.5662,0.95248 0.18172,0.30607 0.40233,0.58131 0.62824,0.85505 0.18074,0.18848 0.0959,0.0848 0.24972,0.31403 l -2.59538,0.23262 c 0.2941,0.53967 0.60367,1.07179 0.89901,1.60741 0.10003,0.14509 0.21108,0.28333 0.29976,0.43561 0.13389,0.22998 0.2178,0.4856 0.33525,0.72438 0.23998,0.48791 0.1161,0.23748 0.40346,0.7025 0.0751,0.12156 0.14681,0.24518 0.22006,0.36788 0.63625,0.90506 1.24371,1.83428 1.99551,2.65138 0.78332,1.06 1.50088,2.14404 1.90061,3.41533 0.41818,0.96227 0.81054,1.9379 1.30882,2.86249 0.47031,1.06593 1.10355,2.02603 1.78525,2.9689 0.83579,1.32831 1.50295,2.63407 2.93816,3.43541 0.28726,0.15818 0.56755,0.33001 0.86201,0.47443 0.77133,0.37848 1.59438,0.65057 2.43232,0.85215 l -0.0219,-0.23791 c 0.12133,0.11018 0.24999,0.21436 0.37458,0.32211 0.28019,0.06 0.56114,0.11436 0.84286,0.15869 l 0.15949,1.04759 c 0.0919,0.11792 0.18407,0.23582 0.2729,0.35593 0.23786,0.33052 0.44125,0.68455 0.6744,1.01858 0.28714,0.3911 0.60347,0.76084 0.86996,1.1665 0.43932,0.64909 0.84928,1.32067 1.34481,1.92927 0.43961,0.52353 0.89562,1.02935 1.39572,1.49689 0.0827,0.0849 0.16919,0.16639 0.24836,0.25457 0.18353,0.20462 0.25082,0.32572 0.43914,0.52443 0.21351,0.22531 0.45055,0.42917 0.63652,0.68095 0.20287,0.24272 0.37148,0.50456 0.56673,0.7525 0.21728,0.27586 0.46643,0.5271 0.68733,0.80002 0.41228,0.46823 0.81677,0.9418 1.27138,1.37042 0.40912,0.45876 0.82239,0.90792 1.26489,1.33459 0.22483,0.26539 0.47909,0.49859 0.71349,0.75483 0.0516,0.0564 0.0937,0.12106 0.14823,0.17464 0.056,0.0553 0.1212,0.10132 0.18206,0.15117 0.3447,0.34768 0.66982,0.71492 0.97173,1.09989 0.34166,0.42517 0.67133,0.85738 1.03282,1.26621 0.29529,0.36798 -0.0273,-0.0218 0.26412,0.29825 0.0356,0.0393 0.0623,0.0867 0.10109,0.12272 0.13617,0.12649 0.31326,0.21145 0.44401,0.34575 0.38551,0.24909 0.7317,0.54745 1.11175,0.8037 0.48249,0.3065 0.96278,0.62462 1.40031,0.99252 0.32928,0.31103 0.72879,0.49618 1.14015,0.6793 0.59752,0.28894 1.22479,0.49835 1.85245,0.71225 0.70141,0.21757 1.40278,0.44957 2.13045,0.56285 0.0445,0.007 0.0883,0.0154 0.13268,0.0229 l -0.0486,-0.23299 c 0.0796,-0.0431 0.168,-0.0739 0.23924,-0.12979 0.85648,-0.67193 1.71707,-2.79586 2.16002,-3.78682 0.13492,-0.32703 0.27322,-0.65286 0.40489,-0.98121 0.23505,-0.58595 0.51567,-1.22807 0.68359,-1.87914 -1.49616,-3.66059 -3.44148,-7.11607 -5.53376,-10.46472 -1.80647,-2.62458 -4.14815,-4.85817 -6.35048,-7.14988 -0.94616,-1.02997 -1.98569,-1.98826 -2.7957,-3.13586 -0.4689,-0.66429 -0.49742,-0.77869 -0.87507,-1.50287 -0.26398,-0.66393 -0.49992,-1.34436 -0.70606,-2.03531 -0.0898,-0.11799 -0.1772,-0.23841 -0.2602,-0.36314 -0.48368,-0.82589 -1.03633,-1.64851 -1.14435,-2.62331 -0.19244,-1.06834 -0.65579,-2.0397 -1.34192,-2.8839 -0.6838,-0.7043 -1.37462,-1.39605 -2.1702,-1.97571 l -0.0351,-0.48411 -1.89187,0.10339 c -0.0854,-0.42034 -0.28533,-0.81193 -0.47179,-1.19574 -0.0661,-0.18771 -0.15144,-0.36511 -0.24943,-0.53531 -0.0571,-0.0405 -0.11473,-0.0814 -0.17117,-0.12143 -0.71014,-0.47599 -1.43845,-0.92145 -2.18089,-1.34484 -0.58987,-0.35646 -1.19578,-0.68444 -1.80275,-1.01078 -0.62804,-0.34687 -1.26258,-0.68156 -1.8952,-1.02018 -0.51027,-0.26708 -1.01856,-0.53769 -1.53151,-0.79966 -0.0863,-0.0457 -0.17076,-0.0948 -0.25685,-0.14103 -0.45126,-0.12312 -0.90639,-0.22468 -1.36509,-0.3151 l 0.61216,-0.0993 c -0.0844,-0.0475 -0.17051,-0.0918 -0.25456,-0.1398 -0.5159,-0.27684 -1.0289,-0.55909 -1.54274,-0.83978 -0.31129,-0.17954 -0.62282,-0.35888 -0.94085,-0.52525 z m -2.99117,-0.7494 c -0.0168,3.6e-4 -0.0328,-0.002 -0.0494,-0.002 -0.83173,0.0279 -0.64702,0.0221 0.0494,0.002 z m 38.06471,38.70559 c -0.007,0.006 -0.0112,0.0369 -0.0126,0.0972 -0.0136,0.75772 0.0809,1.51258 0.15768,2.26769 0.0562,-0.28033 0.0893,-0.56076 0.0818,-0.83859 -0.0115,-0.42236 -0.17924,-1.56959 -0.2269,-1.52627 z" /><path
           id="path97"
           style="display:inline;fill:#000000;fill-opacity:1;stroke-width:0.365001;stroke-linecap:round;stroke-linejoin:round"
           inkscape:label="lines"
           transform="translate(-1.1951538e-6)"
           d="m 145.12677,207.14148 c -0.49345,-2.35778 -1.11289,-4.68666 -1.66934,-7.03038 -1.78716,-3.77087 -3.63233,-7.52434 -5.78112,-11.10457 -0.91069,-1.25463 -1.93371,-2.42477 -3.02186,-3.52799 -0.39549,-0.40101 -0.81625,-0.77711 -1.21133,-1.17853 -0.77955,-0.79213 -1.47686,-1.58172 -2.21991,-2.40555 -1.02298,-1.22761 -2.14402,-2.40546 -2.95037,-3.7944 l -0.008,-0.0893 c -0.0316,-0.0293 -0.062,-0.0602 -0.0931,-0.0899 -0.0427,-0.0772 -0.0895,-0.15215 -0.13007,-0.23065 -0.13074,-0.25311 -0.23519,-0.51803 -0.35249,-0.77762 -0.0837,-0.26071 -0.1821,-0.51756 -0.2508,-0.78258 -0.0265,-0.10218 -0.0641,-0.29674 -0.0956,-0.46533 0.1261,0.68257 0.21528,1.19511 0.31018,1.73685 -0.15362,-0.1671 -0.29985,-0.34132 -0.43853,-0.52103 l -0.85363,-2.5744 c -0.007,0.40539 0.005,0.81144 0.0261,1.21751 -0.30599,-0.60299 -0.54923,-1.22782 -0.63583,-1.91644 -0.24687,-0.8684 -0.64203,-1.66233 -1.18861,-2.3705 l 0.0135,-4.8e-4 c -0.22052,-0.40127 -0.54765,-0.69795 -0.90387,-0.96379 -0.0859,-0.0843 -0.17055,-0.16945 -0.25685,-0.25325 -0.0763,-0.14173 -0.1556,-0.28207 -0.2407,-0.41929 -0.20413,-0.32416 -0.52888,-0.53395 -0.84401,-0.73766 -0.062,-0.0377 -0.12613,-0.0724 -0.18853,-0.10942 -0.0282,-0.0294 -0.0579,-0.0572 -0.0858,-0.0868 l 0.003,0.0378 c -0.19925,-0.11509 -0.40015,-0.22732 -0.60567,-0.33055 -0.36754,-0.18588 -0.72683,-0.38755 -1.09332,-0.57549 -0.45065,-0.23526 -0.89883,-0.47503 -1.34498,-0.71873 -0.49183,-0.2743 -0.99306,-0.53166 -1.50328,-0.77 -0.62325,-0.2839 -1.26178,-0.53362 -1.89751,-0.78816 -0.004,-0.002 -0.008,-0.003 -0.0133,-0.005 -0.32866,-0.17773 -0.65733,-0.3548 -0.98999,-0.52477 -0.51907,-0.28218 -1.0415,-0.55895 -1.56261,-0.83732 -0.65654,-0.32876 -1.28719,-0.70268 -1.95613,-1.00611 -0.66928,-0.26844 -1.37988,-0.36928 -2.09304,-0.42978 -1.74369,-0.0252 -0.36982,-0.0109 -4.46226,0.10845 -0.48466,0.0141 -0.95594,0.072 -1.43396,0.14983 -0.5876,0.12625 -1.17319,0.26257 -1.7497,0.43234 -0.27996,0.0915 -0.57663,0.15587 -0.83914,0.29491 -0.14796,0.0783 -0.21827,0.14883 -0.34688,0.25639 -0.30275,0.25248 -0.532393,0.56451 -0.724201,0.90522 -0.0401,0.0678 -0.07625,0.13816 -0.114451,0.20706 -0.0314,-0.0579 -0.03123,-0.049 -0.08293,-0.14371 l 0.01475,0.26641 c -0.11443,0.21196 -0.226078,0.42489 -0.342718,0.63574 -0.1728,0.35442 -0.157182,0.73055 -0.07659,1.10553 0.12062,0.44918 0.31534,0.87267 0.52467,1.28623 0.0252,0.0358 0.04629,0.0734 0.06949,0.11021 l 0.02324,0.42244 c 0.349218,0.5948 0.170583,0.2932 0.536471,0.90185 0.569369,1.03096 1.057589,2.09529 1.573149,3.15269 0.5048,0.98149 1.06388,1.93537 1.60112,2.89914 0.40864,0.7598 0.75879,1.55452 1.28562,2.245 0.63631,0.89262 1.27906,1.77903 1.99864,2.6079 0.76742,1.0606 1.40305,2.1792 1.81725,3.42878 0.42287,0.9786 0.83058,1.96388 1.3232,2.91041 0.51499,1.02159 1.19016,1.93805 1.82595,2.88598 0.86536,1.38722 1.61227,2.54061 3.1255,3.32204 1.06354,0.53205 2.16388,0.98273 3.28523,1.37496 0.23935,0.19827 0.46362,0.41366 0.64434,0.6686 0.28932,0.36936 0.5784,0.73803 0.82852,1.13566 0.22198,0.33478 0.44198,0.6716 0.69009,0.98781 0.28931,0.36699 0.56792,0.74248 0.8523,1.11324 0.43261,0.58415 0.84315,1.18391 1.28918,1.75787 0.0685,-0.20791 0.15879,-0.40829 0.25601,-0.60431 0.0312,-0.059 0.0669,-0.0971 0.10067,-0.14278 5.3e-4,-0.008 9.9e-4,-0.0165 0.002,-0.0249 0.004,-0.0515 0.0183,-0.10168 0.0309,-0.15154 0.0161,-0.0549 0.0298,-0.10992 0.0407,-0.1661 0.0143,-0.0732 0.0287,-0.14642 0.0425,-0.21969 0.0251,-0.14011 0.0512,-0.28005 0.0775,-0.41994 0.0258,-0.14994 0.0542,-0.29929 0.0836,-0.44856 0.0326,-0.14471 0.0542,-0.2918 0.0741,-0.43877 -0.31025,-0.31951 -0.61182,-0.64689 -0.89875,-0.9886 -0.49553,-0.60859 -0.90561,-1.28013 -1.34493,-1.92922 -0.26649,-0.40566 -0.58264,-0.77541 -0.86978,-1.16651 -0.23315,-0.33403 -0.43649,-0.6879 -0.67435,-1.01842 -0.0888,-0.12011 -0.18109,-0.23847 -0.27299,-0.35639 l -0.15971,-1.04726 c -0.28172,-0.0443 -0.56286,-0.0987 -0.84305,-0.15869 -0.12459,-0.10775 -0.25311,-0.21202 -0.37444,-0.3222 l 0.022,0.23814 c -0.83794,-0.20158 -1.66119,-0.47392 -2.43251,-0.8524 -0.29446,-0.14442 -0.57432,-0.316 -0.86158,-0.47418 -1.43519,-0.80134 -2.10256,-2.10728 -2.93835,-3.43559 -0.6817,-0.94287 -1.31491,-1.90306 -1.78522,-2.96898 -0.49828,-0.92458 -0.89094,-1.90011 -1.30912,-2.86237 -0.39973,-1.27129 -1.11706,-2.35514 -1.90038,-3.41514 -0.7518,-0.8171 -1.3591,-1.74671 -1.99535,-2.65177 -0.0733,-0.1227 -0.14522,-0.24594 -0.22032,-0.3675 -0.28736,-0.46502 -0.16333,-0.2146 -0.4033,-0.70251 -0.11745,-0.23878 -0.2012,-0.49489 -0.33509,-0.72486 -0.0887,-0.15228 -0.20009,-0.29029 -0.30012,-0.43538 -0.29534,-0.53561 -0.60485,-1.06774 -0.89895,-1.6074 l 2.5953,-0.23275 c -0.15382,-0.22923 -0.0686,-0.1255 -0.24932,-0.31398 -0.22591,-0.27374 -0.44695,-0.54888 -0.62867,-0.85495 -0.22597,-0.29629 -0.29576,-0.68213 -0.56606,-0.95224 -0.22033,-0.3597 -0.38978,-0.75252 -0.49431,-1.16173 -0.0427,-0.29482 -0.0685,-0.5754 0.0856,-0.84609 0.16445,-0.31895 0.33944,-0.63252 0.52336,-0.94064 0.19392,-0.28269 0.40341,-0.55769 0.69477,-0.74761 0.35807,-0.19639 0.74794,-0.31695 1.13887,-0.43126 0.43605,-0.12281 0.87697,-0.23329 1.32186,-0.32049 0.30919,0.0506 0.61641,0.11673 0.91722,0.19973 0.33623,0.12845 0.66035,0.28179 0.97837,0.44812 0.31803,0.16637 0.62966,0.34587 0.94095,0.52541 0.51383,0.28069 1.02671,0.56299 1.54261,0.83983 0.0841,0.048 0.17038,0.0921 0.25478,0.13963 l -0.61211,0.0995 c 0.4587,0.0904 0.91354,0.19172 1.3648,0.31484 0.0861,0.0462 0.17084,0.0957 0.25714,0.14136 0.51295,0.26197 1.02104,0.53267 1.53131,0.79973 0.63261,0.33862 1.2675,0.67313 1.89552,1.02 0.60697,0.32634 1.21275,0.65408 1.80262,1.01054 0.74244,0.42339 1.47092,0.86923 2.18104,1.34522 0.0564,0.04 0.11392,0.081 0.17102,0.12148 0.098,0.1702 0.18326,0.34734 0.24936,0.53505 0.18646,0.38381 0.3864,0.77564 0.4718,1.19598 l 1.892,-0.10372 0.0342,0.48455 c 0.79558,0.57965 1.48664,1.27128 2.17044,1.97558 0.68613,0.84419 1.14924,1.81576 1.34168,2.88409 0.10802,0.9748 0.66059,1.797 1.14427,2.62288 0.083,0.12473 0.17068,0.24552 0.26048,0.36351 0.20614,0.69094 0.44206,1.37096 0.70604,2.03489 0.37765,0.72418 0.40636,0.83851 0.87526,1.5028 0.81001,1.1476 1.84964,2.10631 2.79579,3.13627 2.20232,2.29171 4.54361,4.52507 6.35007,7.14964 2.09226,3.34863 4.03749,6.80413 5.53365,10.4647 -0.16792,0.65106 -0.44817,1.29356 -0.68321,1.87951 -0.13167,0.32835 -0.27,0.65368 -0.40492,0.98071 -0.44295,0.99095 -1.30377,3.11538 -2.16024,3.78731 -0.0712,0.0559 -0.15946,0.0867 -0.23906,0.12978 l 0.0483,0.23258 c -0.0444,-0.007 -0.0875,-0.0159 -0.13203,-0.0228 -0.72766,-0.11328 -1.42952,-0.34498 -2.13093,-0.56255 -0.62766,-0.2139 -1.25455,-0.42351 -1.85206,-0.71245 -0.41136,-0.18312 -0.81059,-0.36822 -1.13987,-0.67925 -0.43753,-0.3679 -0.91811,-0.68603 -1.40058,-0.99253 -0.38005,-0.25625 -0.72618,-0.55464 -1.11169,-0.80373 -0.13075,-0.1343 -0.30819,-0.21909 -0.44436,-0.34558 -0.0388,-0.036 -0.0651,-0.0835 -0.10065,-0.12273 -0.29142,-0.32005 0.0311,0.0693 -0.26424,-0.29865 -0.36148,-0.40883 -0.69114,-0.84104 -1.0328,-1.26621 -0.30191,-0.38497 -0.62735,-0.75212 -0.97205,-1.0998 -0.0609,-0.0498 -0.12631,-0.0958 -0.18231,-0.15113 -0.0545,-0.0536 -0.0961,-0.11826 -0.14772,-0.17466 -0.2344,-0.25624 -0.48851,-0.48945 -0.71333,-0.75484 -0.24552,-0.23674 -0.48182,-0.48081 -0.71363,-0.72919 -0.0194,0.0122 -0.0301,0.0186 -0.0506,0.0317 0.0459,0.17671 0.058,0.36469 0.0222,0.53968 -0.057,0.27859 -0.577,0.37285 -0.79696,0.40769 -0.0738,0.005 -0.14841,0.009 -0.22229,0.0128 -0.23155,0.17766 -0.4631,0.35516 -0.69431,0.53326 0.0693,0.0802 0.13402,0.16447 0.20421,0.24398 0.41653,0.47985 0.83241,0.95743 1.2811,1.40786 0.41827,0.44975 0.85855,0.87892 1.259,1.34483 0.34559,0.37963 0.6984,0.75349 1.06498,1.1129 0.32668,0.34491 0.63613,0.7049 0.93521,1.07402 0.34975,0.42957 0.69622,0.86238 1.04378,1.29382 0.0789,0.0892 0.21623,0.25133 0.30883,0.33423 0.18704,0.16719 0.41245,0.29135 0.60863,0.44665 0.3654,0.25461 0.73887,0.49791 1.11463,0.7369 0.48289,0.30755 0.94107,0.64588 1.35316,1.0452 0.38803,0.30072 0.79419,0.42611 1.24359,0.61178 0.62039,0.2451 1.24705,0.47141 1.88636,0.66284 0.71469,0.23051 1.44495,0.39557 2.17455,0.57108 0.13002,0.0296 0.26003,0.065 0.39094,0.0965 l 0.36783,1.76888 c 0.85495,-0.55102 1.25836,-1.52312 1.69629,-2.39939 0.41017,-0.82078 0.59572,-1.23932 0.97905,-2.06911 0.33675,-0.79849 0.76797,-1.62638 1.05376,-2.4834 l 4.3e-4,-5.9e-4 c 0.17148,-0.51418 0.28982,-1.0381 0.30482,-1.57236 0.0154,-0.54736 -0.0318,-1.10115 -0.14402,-1.6371 z m -1.56169,-4.46735 c 0.0493,0.33419 0.094,0.72652 0.0997,0.9377 0.008,0.27783 -0.0254,0.55783 -0.0816,0.83816 -0.0768,-0.75507 -0.17158,-1.50969 -0.15798,-2.26741 0.001,-0.0603 0.005,-0.091 0.0125,-0.097 0.0238,-0.0217 0.078,0.25437 0.12733,0.58856 z m -38.19162,-39.29435 c -0.69642,0.0201 -0.88121,0.0263 -0.0494,-0.002 0.0166,0 0.0326,0.002 0.0494,0.002 z" /><path
           style="display:inline;fill:#000000;fill-opacity:1;stroke-width:0.365001;stroke-linecap:round;stroke-linejoin:round"
           id="path96"
           d="m 121.56702,201.07214 c -0.0558,0.46 -0.29225,0.87815 -0.36213,1.33338 -0.031,0.20222 0.3194,-0.74646 0.20026,-0.58015 -0.26105,0.36442 -0.40498,0.80066 -0.6342,1.1859 -0.64472,1.0836 -0.79212,1.18392 -1.59718,2.15428 -1.22654,1.3913 -2.81398,2.37068 -4.2018,3.57694 -0.71033,0.62279 -1.26462,1.37567 -1.70838,2.20365 0,0 -0.42675,1.85769 -0.42675,1.85769 v 0 c 0.40586,-0.84619 0.95646,-1.60379 1.6459,-2.24525 1.38623,-1.26569 2.99904,-2.27801 4.25797,-3.68844 0.29368,-0.34407 0.60711,-0.67222 0.88104,-1.03221 1.4425,-1.8957 2.33933,-4.16657 2.89723,-6.46714 z"
           transform="translate(-1.1951538e-6)" /><g
           id="g86"
           inkscape:label="sleeve"
           style="display:inline"
           transform="rotate(95.293579,131.20588,203.91728)"><path
             style="display:none;fill:#116eff;fill-opacity:1;stroke-width:0.365001;stroke-linecap:round;stroke-linejoin:round"
             id="path94"
             d="m 125.33405,196.04447 c 0.0788,0.43904 0.0417,0.88864 0.0529,1.33281 0.053,0.52134 0.10841,1.04247 0.1901,1.56019 0.0999,0.44615 0.23024,0.88462 0.33858,1.32858 0.0836,0.41847 0.20222,0.82817 0.29698,1.24398 0.0549,0.41167 0.26308,0.75492 0.47951,1.09945 0.33057,0.50892 0.61769,1.04421 0.92858,1.56553 0.33207,0.47002 0.67535,0.92672 0.93487,1.44198 0.23133,0.54532 0.47986,1.08506 0.69655,1.63651 0.20132,0.52169 0.34801,1.0637 0.5899,1.56855 0.24533,0.47972 0.60739,0.8821 0.986,1.2596 0.35751,0.33395 0.77136,0.59728 1.11889,0.94188 0.27611,0.26047 0.43291,0.60572 0.63594,0.91949 0.34136,0.47682 0.67287,0.9606 1.00951,1.44076 0.24917,0.3432 0.45596,0.7146 0.72177,1.04538 0.27198,0.4116 0.58959,0.78642 0.86261,1.19814 0.28425,0.41842 0.50681,0.86919 0.7262,1.32308 0.15367,0.37765 0.33901,0.74075 0.50306,1.11364 0.15208,0.41328 0.44083,0.75147 0.66517,1.12572 0.19319,0.34239 0.39859,0.6771 0.60023,1.01431 0.177,0.26312 0.2785,0.56715 0.43537,0.84081 0.10942,0.19089 0.1553,0.23758 0.28862,0.40863 0.31937,0.35189 0.70722,0.62875 1.07472,0.92648 0.29738,0.19422 0.55638,0.4396 0.84745,0.64142 2.96378,0.97875 2.78956,1.42114 4.54869,0.99453 0.27725,-0.0673 0.5518,-0.14474 0.82837,-0.21467 0.35485,-0.083 0.70109,-0.19423 1.05502,-0.28105 0.20809,-0.0479 0.41534,-0.0993 0.62325,-0.14805 0,0 -3.57332,-1.45028 -3.57332,-1.45028 v 0 c -0.20112,0.0526 -0.40293,0.1025 -0.60378,0.15616 -0.36919,0.0928 -0.74353,0.16001 -1.11062,0.26108 -0.27368,0.0702 -0.54811,0.13854 -0.825,0.19489 -0.18144,0.029 -0.36075,0.0574 -0.54152,0.007 -0.0383,-0.0107 -0.14976,-0.0527 -0.11167,-0.0415 1.19085,0.35063 2.38014,0.70653 3.57021,1.05979 -0.38947,-0.0973 -0.57293,-0.36995 -0.90719,-0.56783 -0.3841,-0.25987 -0.74313,-0.55926 -1.10377,-0.85041 -0.11929,-0.11768 -0.20479,-0.19231 -0.30373,-0.32853 -0.18676,-0.25712 -0.27375,-0.56048 -0.41595,-0.84054 -0.19177,-0.34902 -0.38795,-0.69302 -0.61801,-1.01989 -0.11093,-0.197 -0.21565,-0.4009 -0.33979,-0.59009 -0.0693,-0.10557 -0.16415,-0.19289 -0.23237,-0.29914 -0.0355,-0.0554 -0.0575,-0.11842 -0.0862,-0.17763 -0.14337,-0.39635 -0.34609,-0.75971 -0.52188,-1.14191 -0.22022,-0.47658 -0.45622,-0.94438 -0.75084,-1.38051 -0.1884,-0.29583 -0.35987,-0.61024 -0.57401,-0.8888 -0.0366,-0.0476 -0.0845,-0.086 -0.11905,-0.13498 -0.0385,-0.0546 -0.0661,-0.11625 -0.0991,-0.17437 -0.17993,-0.29336 -0.0196,-0.057 -0.22495,-0.30032 -0.2012,-0.23848 -0.3515,-0.51679 -0.55659,-0.75277 -0.32055,-0.47673 -0.68417,-0.92361 -0.98205,-1.41586 -0.0671,-0.11547 -0.14065,-0.22742 -0.20093,-0.34657 -0.11764,-0.23254 -0.20716,-0.4746 -0.40657,-0.65619 -0.10813,-0.11195 -0.20794,-0.23236 -0.32295,-0.33723 -0.2553,-0.23279 -0.56473,-0.40354 -0.83182,-0.62158 -0.37013,-0.34087 -0.71943,-0.71213 -1.00961,-1.1239 -0.23635,-0.50003 -0.45722,-1.00873 -0.614,-1.54042 -0.0365,-0.10217 -0.1585,-0.44856 -0.20191,-0.5499 -0.16046,-0.37458 -0.38206,-0.72284 -0.50685,-1.11373 -0.0767,-0.19274 -0.14921,-0.39291 -0.24962,-0.57546 -0.18267,-0.33209 -0.43582,-0.62842 -0.67078,-0.9229 -0.3417,-0.48322 -0.58148,-1.03067 -0.87909,-1.54168 -0.17856,-0.31453 -0.38834,-0.63368 -0.48164,-0.98343 -0.1118,-0.41626 -0.20038,-0.83813 -0.32491,-1.25106 -0.11077,-0.43291 -0.20431,-0.87019 -0.30385,-1.30582 -0.13075,-0.4943 -0.25345,-0.99518 -0.27136,-1.5086 -0.0121,-0.43416 0.0376,-0.85397 0.0984,-1.28244 z"
             inkscape:label="color blue" /><path
             style="display:inline;fill:#000000;fill-opacity:1;stroke:none;stroke-width:0.365001;stroke-linecap:round;stroke-linejoin:round;stroke-dasharray:none;stroke-opacity:1"
             id="path84"
             d="m 130.5293,191.9784 c -0.71372,0.16916 -1.46017,0.2338 -2.15667,0.47819 -0.20302,0.0712 -0.39447,0.17197 -0.5917,0.25795 -0.78843,0.41602 -1.66423,0.93001 -2.05678,1.77599 -0.0728,0.15698 -0.11537,0.32631 -0.17305,0.48947 -0.2667,1.03254 -0.25671,2.11076 -0.0476,3.15092 0.27499,0.90649 0.90295,1.64994 1.38239,2.45506 0.53913,1.02665 1.05417,2.05894 1.65123,3.05475 0.6627,1.05407 1.20163,2.1771 1.79289,3.27132 0.32939,0.51245 0.47407,1.12826 0.79497,1.64396 0.26274,0.42225 0.35685,0.47267 0.71178,0.82163 0.14913,0.10865 0.28824,0.23259 0.44739,0.32594 1.23558,0.72469 2.47757,1.43901 3.73417,2.12662 0.28429,0.15557 0.61089,0.21752 0.90973,0.34288 0.4758,0.19961 0.42855,0.19059 0.88148,0.4466 -4.83674,-2.78312 -2.72093,-1.86348 -1.8466,-0.40734 0.48539,0.80838 0.81444,1.72207 1.15556,2.59633 0.53282,1.48188 0.76485,3.04407 1.12205,4.57181 0.21956,0.7634 0.47612,1.68248 1.21858,2.11744 1.24382,0.72868 2.51621,1.40748 3.77431,2.11123 1.24286,0.29715 2.58951,0.3825 3.74819,-0.26183 0.27255,-0.15157 0.50602,-0.36467 0.75903,-0.547 0.21039,-0.25817 0.44341,-0.49943 0.63116,-0.77451 0.55723,-0.81643 1.18406,-2.12734 1.1681,-3.14635 -0.003,-0.21441 -0.0701,-0.42312 -0.1052,-0.63468 -0.10025,-0.21571 -0.1778,-0.4435 -0.30073,-0.64714 -0.40416,-0.66948 -1.0012,-1.19762 -1.55317,-1.7381 -0.36235,-0.35479 -0.7193,-0.71505 -1.07952,-1.072 -1.2112,-1.07598 -1.71207,-2.54191 -2.05878,-4.07491 -0.32298,-1.39067 -0.16692,-2.77337 0.16199,-4.14045 0.34228,-1.06567 0.64647,-2.13907 0.93591,-3.22026 0.28485,-1.23889 0.32201,-2.50876 0.35016,-3.77352 0.11617,-1.36838 -0.26397,-2.65531 -0.83658,-3.88044 -1.43542,-2.58129 -3.26169,-3.12462 -5.96663,-4.67372 -1.42197,-0.46496 -2.94123,-0.46206 -4.42236,-0.49412 -1.29782,0.0452 -2.56059,0.34519 -3.83465,0.56357 -0.76888,0.2822 -1.38843,0.84745 -2.04804,1.31795 0,0 3.23488,2.05819 3.23488,2.05819 v 0 c 0.62352,-0.43939 1.22036,-0.96899 1.96955,-1.17352 1.22199,-0.26289 2.44416,-0.56763 3.7039,-0.5564 1.46945,0.0414 2.98923,0.0582 4.35706,0.66189 -5.23221,-3.09883 -2.59952,-1.71921 -1.65676,-0.80716 0.47087,0.45554 0.88485,0.96493 1.20266,1.53936 0.62538,1.14818 1.0319,2.39981 0.93997,3.72282 -0.0373,1.23036 -0.0823,2.46975 -0.3533,3.67529 -0.26792,1.09095 -0.61099,2.15854 -0.91621,3.23916 -0.0711,0.30616 -0.23461,0.97842 -0.27491,1.28319 -0.1325,1.00227 -0.0969,2.04072 0.0812,3.03278 0.34586,1.55099 0.75113,3.15527 1.96604,4.26761 0.36203,0.35644 0.71107,0.72598 1.07553,1.07993 0.68859,0.66873 1.47803,1.27135 1.8943,2.16322 0.0581,0.17841 0.14999,0.34918 0.17429,0.53523 0.13156,1.00725 -0.40741,2.19721 -0.97062,2.9919 -0.17408,0.24562 -0.39617,0.45341 -0.59426,0.68012 -0.23894,0.15511 -0.46036,0.34132 -0.71682,0.46532 -1.15525,0.55858 -2.49965,0.36576 -3.66464,-0.0366 6.64967,3.99502 2.65936,1.81338 2.07098,1.12589 -0.32769,-0.38288 -0.47591,-0.87788 -0.6414,-1.34188 -0.43048,-1.54497 -0.68611,-3.13669 -1.20144,-4.65943 -0.34381,-0.87977 -0.65531,-1.79925 -1.08028,-2.64436 -0.10615,-0.21109 -0.59751,-1.07469 -0.84238,-1.23955 -1.20287,-0.80981 -2.47932,-1.50458 -3.71897,-2.25688 -0.45225,-0.22354 -0.90938,-0.407 -1.37455,-0.60081 -0.14036,-0.0585 -0.54763,-0.26212 -0.41814,-0.1824 0.38411,0.23649 4.18379,2.45898 2.3499,1.38601 -0.30126,-0.24128 -0.4998,-0.36532 -0.72749,-0.67736 -0.36471,-0.49983 -0.49678,-1.1434 -0.82786,-1.66253 -0.58919,-1.11227 -1.21289,-2.20793 -1.82768,-3.30664 -0.58551,-0.98288 -1.10568,-1.99003 -1.60281,-3.01877 -0.4183,-0.8185 -1.04162,-1.51604 -1.41383,-2.35765 -0.28239,-0.96694 -0.31317,-1.97772 -0.0641,-2.95869 0.37823,-1.09125 0.99551,-1.51694 2.02042,-2.01238 0.89505,-0.32836 1.84201,-0.52209 2.79923,-0.51988 z"
             inkscape:label="right sleeve" /><path
             id="path85"
             style="display:inline;fill:#000000;fill-opacity:1;stroke-width:0.365001;stroke-linecap:round;stroke-linejoin:round"
             d="m 137.79331,191.30794 c -0.27836,0.023 -0.55741,3.6e-4 -0.83354,0.0429 -0.33475,0.0892 -0.67869,0.1264 -1.02371,0.14263 -0.15884,0.0429 -0.32788,0.0363 -0.48783,0.0693 -0.18789,0.0386 -0.3794,0.10384 -0.56379,0.15709 -0.41173,0.099 -0.82996,0.16707 -1.25108,0.21033 -0.39943,0.0832 -0.80929,0.0729 -1.21182,0.12454 -0.54184,0.0679 -1.06506,0.24562 -1.5844,0.40876 -0.5603,0.16497 -1.16208,0.20376 -1.69085,0.46302 -0.26485,0.16406 -0.31016,0.46827 -0.37879,0.74672 -0.12733,0.35397 -0.21823,0.71838 -0.34261,1.07332 -0.0765,0.24858 -0.17815,0.4935 -0.2403,0.74673 -0.089,0.0815 -0.17495,0.16596 -0.24081,0.26665 -0.0838,0.12809 -0.10393,0.20998 -0.15606,0.35295 -0.12723,0.39893 -0.16769,0.82002 -0.18345,1.23661 -0.0138,0.36984 -0.0357,0.73778 0.0109,1.10588 0.0305,0.28371 0.097,0.53833 0.21032,0.80047 0.21144,0.39034 0.36653,0.80745 0.58033,1.19631 0.15948,0.27816 0.36214,0.52773 0.55139,0.78548 0.16223,0.25274 0.29743,0.52209 0.43459,0.7891 0.17994,0.33941 0.29799,0.70468 0.43254,1.06298 0.13926,0.313 0.27199,0.62889 0.42426,0.93586 0.19585,0.39719 0.39612,0.79227 0.58653,1.19218 0.19923,0.49274 0.4205,0.97559 0.6289,1.46451 0.14879,0.3875 0.36354,0.73836 0.60771,1.07177 0.33036,0.41899 0.70733,0.79827 1.03715,1.21749 0.2485,0.29822 0.47737,0.60546 0.6842,0.9338 0.19113,0.2895 0.30076,0.61834 0.4439,0.9312 0.19025,0.36804 0.35997,0.74707 0.56172,1.10898 0.30824,0.48657 0.68419,0.83008 1.10846,1.11621 0.0487,0.0778 0.0938,0.15804 0.13746,0.23875 0.66599,1.44252 0.63886,0.82622 3.50831,2.38021 0.17718,0.43491 0.34688,0.87315 0.5085,1.3131 0.24822,0.65237 0.37122,1.33018 0.41238,2.02365 -0.0198,0.51652 0.18207,0.99315 0.34416,1.47278 0.10106,0.31042 0.18956,0.62774 0.3452,0.91622 0.12631,0.20755 0.12513,0.25615 0.0739,0.49455 1.17168,0.62701 2.3151,1.30992 3.51503,1.88102 0.0653,0.0311 0.11837,-0.0833 0.1788,-0.12299 0.30344,-0.19914 0.18921,-0.11557 0.52761,-0.31471 0.2131,-0.1254 0.4225,-0.25893 0.63201,-0.39016 0.26416,-0.19089 0.55382,-0.34826 0.81235,-0.54725 0.19432,-0.14956 0.37325,-0.3259 0.55345,-0.49196 0.0537,-0.0539 0.20461,-0.19872 0.24857,-0.26924 0.13889,-0.22279 0.17047,-0.49855 0.19379,-0.75292 0.0195,-0.42935 0.0148,-0.86054 0.01,-1.29036 -0.007,-0.26941 0.024,-0.54768 -0.0475,-0.81184 -0.0437,-0.16133 -0.0987,-0.24748 -0.17518,-0.39532 -0.26452,-0.3813 -0.4137,-0.81672 -0.55449,-1.25419 -0.1312,-0.44252 -0.27919,-0.87828 -0.49764,-1.28571 -0.20485,-0.31486 -0.41805,-0.63349 -0.69815,-0.88677 -0.27609,-0.17597 -0.53768,-0.37093 -0.79789,-0.56947 -0.30142,-0.20978 -0.53168,-0.48559 -0.74104,-0.7829 -0.23431,-0.33414 -0.39686,-0.70678 -0.54518,-1.08469 -0.14799,-0.455 -0.35446,-0.88622 -0.52452,-1.33273 -0.18953,-0.41566 -0.27117,-0.86191 -0.35088,-1.30793 -0.0738,-0.40034 -0.11471,-0.80553 -0.17622,-1.20768 -0.008,-0.35174 -0.13604,-0.67959 -0.19017,-1.0232 -0.0275,-0.25069 -0.0394,-0.50335 -0.0393,-0.7555 0.007,-0.20243 0.004,-0.40479 0.003,-0.6072 -0.0209,-0.22197 0.0581,-0.42719 0.10232,-0.64027 0.11259,-0.47548 0.1801,-0.95925 0.26769,-1.43971 0.12141,-0.53125 0.26033,-1.05767 0.36018,-1.5937 0.0887,-0.29521 0.1467,-0.60008 0.24701,-0.89194 0.0891,-0.25935 0.2134,-0.50593 0.33022,-0.75344 0.17625,-0.31836 0.34292,-0.64138 0.44441,-0.99167 0.11186,-0.37529 0.17813,-0.76182 0.21808,-1.15083 7.9e-4,-0.43844 -0.004,-0.87476 0.0243,-1.31258 0.0196,-0.31506 0.0171,-0.63318 -0.0109,-0.94775 -0.0438,-0.28166 -0.15165,-0.54585 -0.2713,-0.80254 -0.14326,-0.32979 -0.34855,-0.62501 -0.56017,-0.91363 -0.18527,-0.26883 -0.36866,-0.53855 -0.59893,-0.77102 -0.22663,-0.20681 -0.42805,-0.4386 -0.64492,-0.65525 -0.0838,0.0764 -0.16257,0.13125 -0.24133,0.185 l -2.70371,-1.96422 c -0.031,0.0272 -0.0613,0.0551 -0.0925,0.0822 -0.21918,-0.21047 -0.45408,-0.3631 -0.71675,-0.40411 -0.0716,-0.0112 -0.17188,-0.0102 -0.2434,-0.0114 -0.22999,-0.009 -0.45976,-0.0116 -0.68988,-0.0124 z m 1.09141,0.70642 c 0.0316,0.0148 0.0588,0.0357 0.0884,0.0532 -3.9e-4,2.8e-4 -6.4e-4,7.6e-4 -0.001,0.001 -0.0351,-0.022 -0.0517,-0.0319 -0.0873,-0.0543 z m -0.25167,1.75596 2.22881,1.37201 c 0.0757,-0.0715 0.1514,-0.14312 0.22685,-0.21497 0.0823,0.28322 0.0706,0.5728 0.0842,0.8661 0.0254,0.42791 0.0285,0.85513 -0.0181,1.28209 -0.0199,0.36523 -0.053,0.73042 -0.17983,1.07693 -0.0683,0.20993 -0.14552,0.42094 -0.23668,0.62219 -0.0279,0.0616 -0.063,0.11988 -0.0873,0.18293 -0.0246,0.0638 -0.0389,0.13088 -0.0584,0.19637 -0.15747,0.57981 -0.38494,1.13496 -0.55604,1.71049 -0.1466,0.52994 -0.23761,1.07054 -0.37155,1.60352 -0.091,0.45159 -0.20146,0.9013 -0.35657,1.33532 -0.10884,0.22527 -0.20847,0.47134 -0.20464,0.72502 -0.003,0.20616 -0.007,0.41242 0.003,0.61857 0.009,0.27707 0.0165,0.55373 0.0667,0.82734 0.0261,0.1745 0.0379,0.36097 0.0832,0.53175 0.037,0.13959 0.0761,0.16265 0.10955,0.30541 0.0148,0.0634 0.0184,0.12925 0.0274,0.19378 0.049,0.41122 0.10522,0.82371 0.19637,1.22784 0.0679,0.46821 0.14519,0.94077 0.32143,1.38234 0.17587,0.44027 0.36764,0.8742 0.52658,1.32085 0.12388,0.39394 0.24511,0.79008 0.46715,1.14257 0.18678,0.33025 0.4024,0.65532 0.69557,0.9002 0.24007,0.20379 0.47731,0.41878 0.74931,0.57878 0.37012,0.19136 0.58775,0.44306 0.83767,0.77308 0.0888,0.12758 0.16899,0.23189 0.2372,0.37258 0.1294,0.26688 0.18905,0.56482 0.29765,0.83974 0.15929,0.43903 0.26392,0.9026 0.49403,1.31362 0.0958,0.13692 0.20679,0.28425 0.25993,0.44545 0.0615,0.18666 0.0617,0.39255 0.0636,0.58601 -7.9e-4,0.41338 0.01,0.82697 -0.0217,1.23972 -0.0335,0.31563 -0.0732,0.56527 -0.29301,0.81132 -0.14038,0.16004 -0.2899,0.31175 -0.44493,0.45733 -0.12452,-0.68796 -0.34519,-1.35853 -0.64596,-1.98902 -0.68703,-1.45219 -1.452,-2.86786 -2.09341,-4.34134 -0.0953,-0.17927 -0.19144,-0.35764 -0.28577,-0.53743 -0.0718,-0.13678 -0.0836,-0.32669 -0.21239,-0.41186 -0.22907,-0.15143 -2.54032,-2.47589 -3.49798,-2.04794 -0.1404,-0.21524 -0.28815,-0.42518 -0.46198,-0.61547 -0.0382,-0.0462 -0.2902,-0.35167 -0.32143,-0.38602 -0.24068,-0.26477 -0.51598,-0.50269 -0.7059,-0.81029 -0.24907,-0.33203 -0.4949,-0.66651 -0.69867,-1.02939 -0.23797,-0.46903 -0.41463,-0.95958 -0.61081,-1.44642 -0.0907,-0.22534 -0.20613,-0.42881 -0.29559,-0.65009 -0.0688,-0.17028 -0.11009,-0.3531 -0.21394,-0.5085 -0.12484,-0.3182 -0.30756,-0.61022 -0.43718,-0.92708 -0.1529,-0.36033 -0.31249,-0.7171 -0.43254,-1.09037 -0.12281,-0.27778 -0.23621,-0.55814 -0.38343,-0.82372 -0.17136,-0.28808 -0.39162,-0.53846 -0.60307,-0.79737 -0.24539,-0.34695 -0.43877,-0.72473 -0.56947,-1.13016 -0.0368,-0.0837 -0.0828,-0.1631 -0.11524,-0.24857 -0.0573,-0.15112 -0.0522,-0.32259 -0.11472,-0.47283 -0.0125,-0.0433 -0.0727,-0.24748 -0.0806,-0.28939 -0.0467,-0.2493 -0.0193,-0.50663 -0.0227,-0.7581 0.007,-0.14796 0.0147,-0.29675 0.0258,-0.44493 l 0.30593,0.15761 c 0.0124,-0.34694 0.0346,-0.69497 0.10335,-1.03611 0.0156,-0.0727 0.0279,-0.14621 0.047,-0.21807 0.0182,-0.0684 0.031,-0.10041 0.0444,-0.13798 0.0595,-0.0666 0.1201,-0.13263 0.1726,-0.20412 0.31252,-0.36212 0.64569,-0.70723 1.0051,-1.0232 0.31623,-0.2374 0.61933,-0.48665 0.91933,-0.74362 0.36891,-0.29111 0.76153,-0.55458 1.18959,-0.75137 0.39727,-0.1604 0.79721,-0.27225 1.22731,-0.18759 l -0.34468,-0.25063 c 0.35102,-0.0363 0.70123,-0.0789 1.0511,-0.12557 0.43286,-0.0597 0.85849,-0.16177 1.28726,-0.24443 0.20562,-0.045 0.41313,-0.0777 0.62115,-0.10491 z m 3.69435,0.23926 c 1.06414,0.59826 2.26474,1.48108 -0.11834,0.0538 0.0396,-0.0199 0.079,-0.0377 0.11834,-0.0538 z m -2.22105,19.1022 c 0.0655,0.026 0.12266,0.23299 0.0589,0.20309 -0.0434,-0.0203 -0.085,-0.0442 -0.12816,-0.0651 0.007,-0.0854 0.0218,-0.15681 0.0692,-0.13797 z m -3.56826,0.12867 c 0.015,0.009 0.0295,0.0181 0.0444,0.0269 -0.002,0.005 -0.005,0.009 -0.007,0.014 -0.0132,-0.007 -0.0264,-0.0147 -0.0398,-0.0222 6.7e-4,-0.005 0.002,-0.0187 0.002,-0.0186 z m 8.23515,10.10998 c 0.0372,0.0214 0.0745,0.0427 0.11163,0.0641 -0.0353,0.0303 -0.0597,0.0829 -0.10542,0.0909 -0.005,9.1e-4 -0.005,-0.0891 -0.006,-0.15503 z"
             inkscape:label="color black" /><path
             style="display:inline;fill:#1d1d1d;fill-opacity:1;stroke:none;stroke-width:1.37953;stroke-linecap:round;stroke-linejoin:round;stroke-dasharray:none;stroke-opacity:1;filter:url(#filter1845)"
             d="m 461.99032,804.04361 c -6.48633,-25.49187 -8.25717,-28.82894 -18.70829,-35.25514 -6.80894,-4.18668 -8.19675,-5.50461 -10.44635,-9.92037 -3.78388,-7.4274 -14.5533,-27.18403 -16.90887,-31.01952 -2.49557,-4.06345 -2.79714,-12.63253 -0.55712,-15.8306 1.89465,-2.705 7.31295,-5.44317 12.47084,-6.30222 3.24894,-0.54111 3.83995,-0.92469 2.99442,-1.94349 -1.69265,-2.03952 5.6984,-3.66438 16.84344,-3.70289 9.50799,-0.0329 9.79824,0.0298 12.00411,2.59222 5.6848,6.6036 6.36399,20.05696 1.8091,35.83442 -3.28702,11.38572 -3.68471,16.1676 -1.95996,23.56671 2.0709,8.88409 3.55314,11.41371 11.51594,19.6534 6.22137,6.4377 6.95496,7.58361 6.94109,10.8423 -0.0289,6.79018 -5.51383,13.65015 -11.95195,14.94825 -2.91128,0.587 -3.04499,0.47256 -4.0464,-3.46307 z"
             id="path86"
             transform="matrix(0.26458333,0,0,0.26458333,19.475,7.7999998)"
             inkscape:label="color black effect" /><path
             style="display:none;fill:#000000;fill-opacity:1;stroke-width:0.365001;stroke-linecap:round;stroke-linejoin:round"
             id="path95"
             d="m 125.87662,196.70007 c -0.2438,0.2703 -0.42388,0.60406 -0.57715,0.93324 -0.19271,0.37165 -0.3611,0.7533 -0.4455,1.16437 -0.0199,0.31686 -0.0806,0.62933 -0.10994,0.94483 -4.9e-4,0.27628 -0.0305,0.55118 -0.0345,0.82724 0.0239,0.3446 0.12753,0.67597 0.20598,1.01052 0.0656,0.31181 0.14348,0.62076 0.2145,0.93133 0.0505,0.22621 0.0998,0.45283 0.17975,0.67072 0.12103,0.29613 0.34782,0.52139 0.58638,0.72587 0.22271,0.16467 0.41949,0.34484 0.57422,0.5747 0.13596,0.22744 0.2928,0.44139 0.45527,0.65042 0.19407,0.2197 0.37603,0.44955 0.54277,0.69067 0.1212,0.18452 0.22383,0.37957 0.33231,0.5715 0.14187,0.24169 0.31768,0.46091 0.4784,0.68993 0.21974,0.31334 0.39,0.65698 0.53827,1.00875 0.0877,0.23195 0.1617,0.46745 0.26679,0.69243 0.1239,0.22872 0.24403,0.45955 0.34935,0.69745 0.10012,0.2189 0.27072,0.39125 0.40262,0.58975 0.17839,0.2465 0.33752,0.50516 0.49163,0.76725 0.12917,0.24933 0.27898,0.48326 0.48332,0.6764 0.22792,0.1893 0.44227,0.39601 0.6406,0.61613 0.16952,0.18867 0.30672,0.40244 0.45307,0.60885 0.16233,0.21645 0.31303,0.44046 0.46307,0.66546 0.13172,0.18709 0.25057,0.38228 0.36446,0.58054 0.18135,0.22506 0.34979,0.45884 0.51766,0.69433 0.23173,0.30979 0.40345,0.656 0.6333,0.96676 0.21496,0.28811 0.40356,0.59465 0.57978,0.90762 0.19313,0.38419 0.40835,0.75706 0.59579,1.14408 0.15932,0.28709 0.32273,0.57249 0.49887,0.84968 0.14833,0.24749 0.31546,0.48341 0.45291,0.73715 0.12457,0.25014 0.25269,0.4985 0.37629,0.74912 0.15148,0.26441 0.34771,0.4998 0.52538,0.74667 0.17262,0.24541 0.34167,0.49184 0.49711,0.74853 0.12079,0.19631 0.22846,0.39975 0.37218,0.58061 0.2166,0.24825 0.43917,0.49184 0.69065,0.70518 0.27736,0.19627 0.55687,0.391 0.84527,0.57094 0.24979,0.15401 0.5343,0.2279 0.80699,0.32795 0.75363,0.27519 0.23494,0.0891 2.08358,0.6085 0.16179,0.0455 0.33248,0.0657 0.49581,0.10697 0.27404,0.0776 0.55594,0.0971 0.83606,0.14283 0.32671,0.0461 0.65569,0.0704 0.98557,0.0565 0.26587,-0.0109 0.52883,-0.0343 0.79079,-0.0824 0.33706,-0.0724 0.67156,-0.15545 1.00618,-0.23815 0.30688,-0.0675 0.61017,-0.15636 0.89309,-0.29443 0.0378,-0.0184 0.0791,-0.0309 0.11343,-0.0552 0.0462,-0.0327 0.18096,-0.17611 0.2184,-0.21544 0.11455,-0.12033 0.22493,-0.24322 0.33298,-0.36939 0.20379,-0.22857 0.33886,-0.50402 0.50268,-0.76033 0.18505,-0.25114 0.21869,-0.54751 0.26306,-0.84639 0.0341,-0.23459 0.0126,-0.11596 0.0653,-0.35575 0,0 -1.83013,-0.51984 -1.83013,-0.51984 v 0 c -0.0672,0.25039 -0.0384,0.12765 -0.0876,0.36796 -0.0401,0.27162 -0.0869,0.5364 -0.24403,0.76836 -0.1564,0.24949 -0.29397,0.51211 -0.48834,0.73546 -0.18719,0.21648 -0.38161,0.44198 -0.6507,0.5562 -0.27698,0.1155 -0.56135,0.2095 -0.85564,0.27066 -0.33754,0.0811 -0.67561,0.16407 -1.01923,0.21525 -0.26,0.0334 -0.52113,0.0474 -0.78295,0.0585 -0.31842,0.002 -0.63633,-0.0287 -0.95056,-0.0799 -0.28818,-0.0464 -0.57642,-0.0915 -0.85888,-0.16705 -0.1221,-0.0253 -0.24431,-0.051 -0.36572,-0.0795 -0.0421,-0.01 -0.16749,-0.0435 -0.12598,-0.0313 3.38925,0.99939 2.16293,0.63358 1.58616,0.46139 -0.0845,-0.0327 -0.16611,-0.073 -0.25214,-0.10129 -0.1907,-0.0627 -0.39277,-0.0985 -0.57122,-0.1966 -0.29742,-0.16064 -0.56618,-0.36562 -0.85093,-0.54675 -0.26091,-0.18096 -0.47625,-0.40991 -0.67221,-0.65887 -0.0484,-0.0554 -0.10475,-0.10412 -0.14807,-0.16355 -0.0898,-0.12323 -0.1408,-0.27462 -0.23528,-0.39537 -0.17381,-0.25217 -0.33436,-0.51371 -0.5154,-0.76119 -0.16881,-0.23808 -0.33668,-0.47778 -0.50913,-0.71219 -0.12701,-0.25346 -0.26499,-0.50131 -0.39544,-0.75302 -0.12186,-0.2681 -0.28329,-0.50769 -0.43835,-0.75719 -0.18379,-0.27436 -0.35645,-0.55518 -0.53335,-0.83396 -0.19661,-0.38548 -0.40436,-0.76502 -0.60273,-1.1496 -0.15801,-0.32498 -0.33261,-0.64476 -0.55057,-0.9339 -0.071,-0.0916 -0.15024,-0.17697 -0.21747,-0.27142 -0.15591,-0.21901 -0.25546,-0.47581 -0.42547,-0.68619 -0.14789,-0.23483 -0.2806,-0.48382 -0.48094,-0.67939 -0.12904,-0.19478 -0.22957,-0.40844 -0.3725,-0.59467 -0.16393,-0.21818 -0.29599,-0.45701 -0.46739,-0.66944 -0.0795,-0.10513 -0.16585,-0.21471 -0.23523,-0.32662 -0.0644,-0.1039 -0.10857,-0.21563 -0.20761,-0.29621 -0.19546,-0.23481 -0.42612,-0.44164 -0.65173,-0.64627 -0.0692,-0.0541 -0.1443,-0.106 -0.20136,-0.17424 -0.11223,-0.13422 -0.19944,-0.29328 -0.2902,-0.44182 -0.15791,-0.25845 -0.30313,-0.52446 -0.47782,-0.7723 -0.0458,-0.0709 -0.0821,-0.14766 -0.12897,-0.21787 -0.0809,-0.12135 -0.20563,-0.21236 -0.27837,-0.34089 -0.10689,-0.23967 -0.22855,-0.47236 -0.34089,-0.70929 -0.12946,-0.21483 -0.19478,-0.4572 -0.29744,-0.68493 -0.16292,-0.35318 -0.3345,-0.70433 -0.52914,-1.04091 -0.14565,-0.22779 -0.30743,-0.44346 -0.45295,-0.67089 -0.1135,-0.19647 -0.21766,-0.39702 -0.33939,-0.58854 -0.16723,-0.24874 -0.35789,-0.48286 -0.55093,-0.71168 -0.17222,-0.18943 -0.30519,-0.41559 -0.44834,-0.62746 -0.0497,-0.0756 -0.0923,-0.1558 -0.1446,-0.22958 -0.11786,-0.16628 -0.28128,-0.28377 -0.4401,-0.40712 -0.22871,-0.1713 -0.44674,-0.35951 -0.57269,-0.62226 -0.0912,-0.20937 -0.14406,-0.42716 -0.20033,-0.64839 -0.0844,-0.3118 -0.16301,-0.62513 -0.24775,-0.93685 -0.0763,-0.31559 -0.1443,-0.63533 -0.17256,-0.95921 -0.0126,-0.27073 0.005,-0.54187 0.0201,-0.81208 0.0199,-0.31035 0.06,-0.61988 0.0868,-0.92946 0.0685,-0.39491 0.20853,-0.77126 0.39438,-1.12623 0.15062,-0.28975 0.32897,-0.63545 0.635,-0.78593 z" /></g><g
           id="g88"
           inkscape:label="right hand"
           style="display:inline"
           transform="rotate(33.425446,124.88005,204.15204)"><path
             style="display:inline;fill:#f9dada;fill-opacity:1;stroke:none;stroke-width:1.37953;stroke-linecap:round;stroke-linejoin:round;stroke-dasharray:none;stroke-opacity:1"
             d="m 463.50177,747.54171 c -4.15934,-0.97645 -10.60003,-5.45246 -16.13888,-11.21586 l -3.77124,-3.92412 4.24264,-3.77769 c 6.36741,-5.66961 10.60766,-7.33023 18.77896,-7.35442 3.84661,-0.0114 9.70141,0.4508 13.01067,1.02708 7.5286,1.31105 9.23332,3.41516 9.12667,11.2649 -0.0882,6.49412 -2.71071,11.30406 -7.36822,13.51419 -3.48803,1.65518 -11.88299,1.87393 -17.8806,0.46592 z"
             id="path87"
             transform="matrix(0.26458333,0,0,0.26458333,19.475,7.8)" /><path
             style="display:inline;fill:#000000;fill-opacity:1;stroke:none;stroke-width:0.365001;stroke-linecap:round;stroke-linejoin:round;stroke-dasharray:none;stroke-opacity:1"
             id="path88"
             d="m 133.27008,200.213 c 0.67677,0.8673 1.45942,1.63311 2.27751,2.3648 2.26315,1.93824 4.92042,3.30953 7.49261,4.77886 1.21573,0.53939 2.51879,0.79516 3.83894,0.87947 1.0177,0.0678 1.89261,0.0756 2.86444,-0.27366 0.84211,-0.39901 1.51483,-1.01775 2.0588,-1.76346 0.50079,-0.81802 0.5394,-1.77525 0.60025,-2.70534 0.0206,-1.09948 -0.20693,-1.96684 -0.80615,-2.88603 -0.43718,-0.54821 -1.00606,-0.97362 -1.61121,-1.32157 -3.70588,-2.1308 -2.4153,-1.58568 -4.18606,-2.30068 -1.02429,-0.3084 -2.07409,-0.51067 -3.13634,-0.62608 -1.16325,-0.1049 -2.33108,-0.0926 -3.49754,-0.0929 -1.08287,-0.0276 -2.05613,0.32087 -2.96217,0.88316 -0.8934,0.66464 -1.71515,1.42394 -2.50492,2.20775 -0.6,0.66028 -0.85241,1.04103 -0.45259,1.88377 0.0588,0.0864 0.11771,0.17276 0.17656,0.25914 0,0 3.59162,1.52715 3.59162,1.52715 v 0 c -0.0677,-0.0663 -0.13529,-0.13254 -0.20294,-0.19881 -0.4801,-0.67583 -0.38123,-0.81854 0.16392,-1.46814 0.74405,-0.78323 1.54334,-1.53661 2.45919,-2.11528 0.8766,-0.48078 1.76978,-0.8053 2.79139,-0.75297 1.16889,0.0121 2.34104,0.0281 3.50433,0.15256 1.04456,0.14077 2.09045,0.34228 3.07777,0.71996 1.46662,0.6787 0.52205,0.25931 -2.39194,-1.45582 -0.15286,-0.09 0.3115,0.17007 0.46267,0.26287 0.42973,0.26383 0.84618,0.55746 1.20254,0.91608 0.10599,0.12815 0.2259,0.24596 0.31797,0.38445 0.43682,0.65708 0.55793,1.49054 0.59152,2.25886 -0.0386,0.85286 -0.0762,1.74017 -0.52083,2.49463 -0.50273,0.68032 -1.0966,1.27071 -1.90457,1.57531 -0.90468,0.25469 -1.83407,0.21745 -2.76571,0.16061 -1.26758,-0.11669 -2.51944,-0.35832 -3.66411,-0.94445 0.81805,0.48169 1.63354,0.96777 2.45416,1.44507 0.26101,0.15181 -0.51917,-0.30858 -0.77526,-0.46856 -0.96257,-0.60136 -1.88796,-1.26393 -2.76006,-1.99062 -0.78632,-0.67434 -1.55667,-1.37422 -2.15515,-2.22637 z"
             inkscape:label="right hand" /></g></g></g></g></svg>
