<?xml version="1.0" encoding="UTF-8" standalone="no"?>
<!-- Created with Inkscape (http://www.inkscape.org/) -->

<svg
   width="30.260012mm"
   height="120.78031mm"
   viewBox="0 0 30.260012 120.78031"
   version="1.1"
   id="svg1"
   inkscape:version="1.3.2 (091e20e, 2023-11-25, custom)"
   sodipodi:docname="mage.svg"
   xml:space="preserve"
   inkscape:export-filename="..\separated\bottom-body-cloths.svg"
   inkscape:export-xdpi="96"
   inkscape:export-ydpi="96"
   xmlns:inkscape="http://www.inkscape.org/namespaces/inkscape"
   xmlns:sodipodi="http://sodipodi.sourceforge.net/DTD/sodipodi-0.dtd"
   xmlns="http://www.w3.org/2000/svg"
   xmlns:svg="http://www.w3.org/2000/svg"><sodipodi:namedview
     id="namedview1"
     pagecolor="#ffffff"
     bordercolor="#000000"
     borderopacity="0.25"
     inkscape:showpageshadow="2"
     inkscape:pageopacity="0.0"
     inkscape:pagecheckerboard="0"
     inkscape:deskcolor="#d1d1d1"
     inkscape:document-units="mm"
     inkscape:export-bgcolor="#ffffff00"
     inkscape:zoom="0.75000001"
     inkscape:cx="186.66667"
     inkscape:cy="378"
     inkscape:window-width="1304"
     inkscape:window-height="745"
     inkscape:window-x="1358"
     inkscape:window-y="-8"
     inkscape:window-maximized="1"
     inkscape:current-layer="g1314" /><defs
     id="defs1"><filter
       x="-0.43271199"
       width="1.865424"
       y="-0.34809086"
       height="1.6961817"
       inkscape:menu-tooltip="Smooth rainbow colors slightly melted along the edges"
       inkscape:menu="Textures"
       inkscape:label="Melted Rainbow"
       style="color-interpolation-filters:sRGB"
       id="filter1868"><feGaussianBlur
         result="result8"
         stdDeviation="5"
         id="feGaussianBlur1865" /><feTurbulence
         baseFrequency="0.015"
         numOctaves="2"
         type="fractalNoise"
         result="result7"
         seed="20"
         id="feTurbulence1865" /><feComposite
         in="SourceGraphic"
         operator="in"
         result="result6"
         in2="result8"
         id="feComposite1865" /><feComposite
         in="result6"
         operator="arithmetic"
         result="result2"
         in2="result7"
         k3="1"
         id="feComposite1866"
         k1="0"
         k2="0"
         k4="0" /><feComposite
         in2="result6"
         operator="in"
         in="result2"
         result="fbSourceGraphic"
         id="feComposite1867" /><feComposite
         in2="fbSourceGraphic"
         in="fbSourceGraphic"
         k2="2.5"
         operator="arithmetic"
         id="feComposite1868"
         k1="0"
         k3="0"
         k4="0" /></filter><filter
       style="color-interpolation-filters:sRGB"
       inkscape:label="Drop Shadow"
       id="filter2099"
       x="-0.83877852"
       y="-0.86805913"
       width="2.677557"
       height="2.7361183"><feFlood
         result="flood"
         in="SourceGraphic"
         flood-opacity="1.000000"
         flood-color="rgb(11,19,126)"
         id="feFlood2098" /><feGaussianBlur
         result="blur"
         in="SourceGraphic"
         stdDeviation="5.000000"
         id="feGaussianBlur2098" /><feOffset
         result="offset"
         in="blur"
         dx="0.000000"
         dy="0.000000"
         id="feOffset2098" /><feComposite
         result="comp1"
         in="flood"
         in2="offset"
         id="feComposite2098" /><feComposite
         result="comp2"
         operator="atop"
         in="comp1"
         in2="SourceGraphic"
         id="feComposite2099" /></filter></defs><g
     inkscape:groupmode="layer"
     id="layer4"
     inkscape:label="mage"
     transform="translate(-82.719249,-102.69204)"
     inkscape:highlight-color="#7d39ff"><g
       id="g127"
       inkscape:label="staff -up"
       style="display:inline"
       transform="rotate(-5.4540868,-303.86157,-325.94935)"
       inkscape:export-filename="mage\separated\staff-up.svg"
       inkscape:export-xdpi="96"
       inkscape:export-ydpi="96"><path
         style="display:inline;fill:#6e2813;fill-opacity:0.968627;stroke:none;stroke-width:0.365001;stroke-linecap:round;stroke-linejoin:round;stroke-dasharray:none;stroke-opacity:1"
         id="path113"
         d="m 54.26548,161.41186 c 0.03949,1.04781 0.03297,2.0966 0.02553,3.1449 -0.09166,1.12084 -0.640932,2.04109 -1.305684,2.91508 -0.416859,0.56552 -0.973847,1.00906 -1.417489,1.55006 -0.214601,0.26169 -0.433105,0.60387 -0.619403,0.88189 -0.737732,1.11337 -1.283531,2.33216 -1.915007,3.50404 -0.612023,1.0761 -0.875553,2.27155 -1.053359,3.48267 -0.0919,0.87233 -0.208203,1.75222 -0.07478,2.62656 0.08501,0.5571 0.165724,0.75806 0.326165,1.28803 0.377637,0.97177 0.906095,1.87831 1.400075,2.79472 0.581974,1.07544 1.102944,2.17726 1.565386,3.30893 0.468368,1.06433 1.039706,2.07586 1.60397,3.09089 0.728951,1.08279 1.392746,2.20415 1.980361,3.36937 0.54701,1.02426 0.672809,2.1949 0.864259,3.32348 0.266385,1.70123 0.342524,3.42297 0.385236,5.14185 0.03222,1.67768 0.02872,3.35573 0.04059,5.03361 0.05764,2.2443 -0.144098,4.48044 -0.463667,6.69889 -0.309655,1.71894 -0.950751,3.3528 -1.567487,4.97964 -0.482486,0.98386 -0.772437,2.03466 -1.076002,3.08196 -0.436012,1.22431 -0.728051,2.49068 -1.047895,3.74817 -0.355309,1.19043 -0.609635,2.39319 -0.750314,3.6268 -0.128031,1.41237 -0.13091,2.83241 -0.01299,4.24486 0.165259,1.38482 0.461542,2.01399 1.468866,2.95626 0.755055,0.57346 1.512758,1.13374 2.196153,1.79248 0.422307,0.40912 0.741193,0.90131 1.049623,1.39724 0,0 1.756895,0.77873 1.756895,0.77873 v 0 c -0.294098,-0.50904 -0.599406,-1.01568 -1.015098,-1.43739 -0.695957,-0.67609 -1.409814,-1.25173 -2.209842,-1.80491 -0.244195,-0.21436 -0.564645,-0.4771 -0.770374,-0.73193 -0.487458,-0.60381 -0.67368,-1.35779 -0.785739,-2.10862 -0.14125,-1.39822 -0.101941,-2.80126 0.01474,-4.20095 0.130689,-1.22738 0.388179,-2.42218 0.725038,-3.60969 0.325276,-1.25204 0.615897,-2.51508 1.061373,-3.73212 0.322395,-1.03723 0.592172,-2.09197 1.050899,-3.08208 0.597718,-1.65115 1.23862,-3.30488 1.537499,-5.04175 0.2999,-2.22588 0.527764,-4.4637 0.490744,-6.71355 0.01365,-1.6757 0.02312,-3.35198 -0.0164,-5.0274 -0.0554,-1.72491 -0.124931,-3.45263 -0.373028,-5.16279 -0.167368,-1.13624 -0.257403,-2.32406 -0.796862,-3.35756 -0.596902,-1.16732 -1.267658,-2.29423 -1.996263,-3.38434 -0.561215,-1.01046 -1.119134,-2.02148 -1.609545,-3.06879 -0.467344,-1.13267 -0.968737,-2.24512 -1.551061,-3.32397 -0.488209,-0.91555 -1.000895,-1.82203 -1.426208,-2.76775 -0.207573,-0.62676 -0.400708,-1.25151 -0.425915,-1.91837 -0.02418,-0.63965 0.0939,-1.2845 0.13413,-1.9206 0.168953,-1.18997 0.44009,-2.35923 1.028552,-3.42055 0.622144,-1.16901 1.138574,-2.39701 1.908421,-3.48384 0.608314,-0.86964 1.328439,-1.62962 2.02646,-2.4269 0.693131,-0.90918 1.266989,-1.85245 1.376137,-3.01849 -0.0073,-1.03962 -0.01452,-2.07978 0.02553,-3.11889 z"
         inkscape:label="color brown" /><path
         style="display:inline;fill:#000000;fill-opacity:1;stroke:none;stroke-width:0.365001;stroke-linecap:round;stroke-linejoin:round;stroke-dasharray:none;stroke-opacity:1"
         id="path114"
         d="m 50.402868,146.59031 c 0.164274,2.54461 0.192172,5.09569 0.210158,7.64487 0.01352,3.95398 0.01836,7.90797 0.03911,11.86194 5.29e-4,3.99205 -0.01437,7.98398 -0.03581,11.97597 0.03739,3.32296 0.125916,6.64483 0.165423,9.96777 -0.03149,3.36332 0.135086,6.71873 0.299151,10.07651 0.135901,3.34814 0.287303,6.69409 0.554453,10.03435 0.247251,3.02371 0.452477,6.0489 0.577329,9.08019 0.09965,2.56865 0.109614,5.14459 0.292886,7.709 0.180745,1.86589 0.416922,3.72567 0.617302,5.58969 0.16656,1.37535 0.235646,2.75897 0.366464,4.13756 0.09123,1.19891 0.181051,2.39725 0.29129,3.59463 0.103108,1.10181 0.137427,2.20894 0.146849,3.31509 -0.02859,1.07397 0.0831,2.14305 0.15345,3.2135 0.05975,0.86702 0.06112,1.73633 0.08348,2.60472 0.01474,0.9911 0.130107,1.97642 0.191003,2.96521 -0.02275,0.85392 0.09508,1.67561 0.274458,2.50662 0.166161,0.81017 0.210224,1.63627 0.328438,2.45344 0.09459,0.80204 0.175471,1.60376 0.294957,2.40276 0.04537,0.38935 0.08075,0.77864 0.131964,1.16729 0,0 3.48539,1.71345 3.48539,1.71345 v 0 c -0.06095,-0.38737 -0.100875,-0.77516 -0.138144,-1.16558 -0.0937,-0.80267 -0.238297,-1.59762 -0.293034,-2.4055 -0.114633,-0.82575 -0.189418,-1.65598 -0.329292,-2.47808 -0.07276,-0.39675 -0.198425,-0.79699 -0.246801,-1.19714 -0.05068,-0.41919 -0.01005,-0.84995 -0.06468,-1.2693 -0.05971,-0.97924 -0.178945,-1.95707 -0.179374,-2.9378 0.0026,-0.88144 -0.04811,-1.7609 -0.104812,-2.64035 -0.07708,-1.06368 -0.178287,-2.12673 -0.16269,-3.19464 -0.02241,-1.11632 -0.0391,-2.23341 -0.139017,-3.34634 -0.121327,-1.2017 -0.228725,-2.40166 -0.315103,-3.60635 -0.135747,-1.39037 -0.218297,-2.78529 -0.413462,-4.16934 -0.235106,-1.87245 -0.465095,-3.74511 -0.701056,-5.61734 -0.240355,-2.57226 -0.273052,-5.16201 -0.393467,-7.7418 -0.108876,-3.04356 -0.355909,-6.07704 -0.607766,-9.1117 -0.265099,-3.3449 -0.469646,-6.69372 -0.60365,-10.04669 -0.157027,-3.34458 -0.273087,-6.68721 -0.245202,-10.03635 -0.06055,-3.33437 -0.161706,-6.66755 -0.243062,-10.00137 -0.02138,-4.00416 -0.03628,-8.00825 -0.03581,-12.01247 0.02077,-3.94068 0.02558,-7.88139 0.03911,-11.82209 0.01762,-2.47774 0.04166,-4.95788 0.210158,-7.43069 z" /><g
         id="g119"
         inkscape:label="ball"
         inkscape:export-filename="mage\separated\staff-ball.svg"
         inkscape:export-xdpi="96"
         inkscape:export-ydpi="96"
         style="display:none"><path
           style="display:none;fill:#000000;fill-opacity:1;stroke:none;stroke-width:0.365001;stroke-linecap:round;stroke-linejoin:round;stroke-dasharray:none;stroke-opacity:1"
           id="path115"
           d="m 44.888602,134.59855 c 0.06459,1.75456 0.05941,3.51429 0.425335,5.23719 0.394766,1.3271 1.291372,2.2724 2.472694,2.95612 1.321821,0.76505 2.659787,1.50186 3.989684,2.25279 0.907774,0.37178 2.445498,0.87755 3.424504,0.57013 0.274027,-0.0861 0.508527,-0.26718 0.762791,-0.40077 1.367536,-1.00938 2.141289,-2.46072 2.730662,-4.02092 0.150071,-0.39728 0.304046,-0.79672 0.392334,-1.21212 0.07966,-0.3748 0.07234,-0.76292 0.108514,-1.14437 -0.09423,-1.8966 -1.138574,-3.31014 -2.631017,-4.37715 -3.739171,-2.25811 -3.949694,-2.49236 -7.533941,-2.57368 -1.419029,0.0306 -2.376329,0.40583 -3.206682,1.56251 -0.54699,0.91358 -0.744536,1.96491 -0.869358,3.0075 0,0 3.459709,1.80895 3.459709,1.80895 v 0 c 0.08968,-0.98247 0.237998,-1.97944 0.765736,-2.8346 0.73433,-1.02661 1.712841,-1.29265 2.948458,-1.27925 0.737957,0.028 1.477137,0.0514 2.207117,0.17511 1.440379,0.24405 3.667654,1.5208 -1.362125,-1.27039 1.511779,0.92611 2.685166,2.21404 2.879228,4.04939 -0.01363,0.36037 0.02069,0.72578 -0.04088,1.08111 -0.0706,0.40741 -0.210682,0.80091 -0.35253,1.1893 -0.544018,1.48954 -1.33322,2.84315 -2.687654,3.72239 -0.233804,0.0899 -0.456268,0.21817 -0.70141,0.26963 -1.107599,0.23245 -2.293234,-0.31862 -3.284138,-0.71841 5.582182,3.32494 2.036313,1.33845 1.223748,0.65926 -0.577966,-0.4831 -0.976426,-1.12481 -1.250855,-1.81741 -0.43861,-1.66369 -0.467913,-3.39663 -0.369353,-5.10868 z"
           inkscape:label="ball" /><path
           style="display:inline;fill:#000000;fill-opacity:1;stroke:none;stroke-width:0.365001;stroke-linecap:round;stroke-linejoin:round;stroke-dasharray:none;stroke-opacity:1;filter:url(#filter2099)"
           id="path116"
           d="m 44.888602,134.59855 c 0.06459,1.75456 0.05941,3.51429 0.425335,5.23719 0.394766,1.3271 1.291372,2.2724 2.472694,2.95612 1.321821,0.76505 2.659787,1.50186 3.989684,2.25279 0.907774,0.37178 2.445498,0.87755 3.424504,0.57013 0.274027,-0.0861 0.508527,-0.26718 0.762791,-0.40077 1.367536,-1.00938 2.141289,-2.46072 2.730662,-4.02092 0.150071,-0.39728 0.304046,-0.79672 0.392334,-1.21212 0.07966,-0.3748 0.07234,-0.76292 0.108514,-1.14437 -0.09423,-1.8966 -1.138574,-3.31014 -2.631017,-4.37715 -3.739171,-2.25811 -3.949694,-2.49236 -7.533941,-2.57368 -1.419029,0.0306 -2.376329,0.40583 -3.206682,1.56251 -0.54699,0.91358 -0.744536,1.96491 -0.869358,3.0075 0,0 3.459709,1.80895 3.459709,1.80895 v 0 c 0.08968,-0.98247 0.237998,-1.97944 0.765736,-2.8346 0.73433,-1.02661 1.712841,-1.29265 2.948458,-1.27925 0.737957,0.028 1.477137,0.0514 2.207117,0.17511 1.440379,0.24405 3.667654,1.5208 -1.362125,-1.27039 1.511779,0.92611 2.685166,2.21404 2.879228,4.04939 -0.01363,0.36037 0.02069,0.72578 -0.04088,1.08111 -0.0706,0.40741 -0.210682,0.80091 -0.35253,1.1893 -0.544018,1.48954 -1.33322,2.84315 -2.687654,3.72239 -0.233804,0.0899 -0.456268,0.21817 -0.70141,0.26963 -1.107599,0.23245 -2.293234,-0.31862 -3.284138,-0.71841 5.582182,3.32494 2.036313,1.33845 1.223748,0.65926 -0.577966,-0.4831 -0.976426,-1.12481 -1.250855,-1.81741 -0.43861,-1.66369 -0.467913,-3.39663 -0.369353,-5.10868 z"
           inkscape:label="ball" /><path
           style="display:none;fill:#800080;fill-opacity:1;stroke:none;stroke-width:1.37953;stroke-linecap:round;stroke-linejoin:round;stroke-dasharray:none;stroke-opacity:1;filter:url(#filter1868)"
           d="m 116.66667,511.66813 c -2.48945,-0.70973 -3.45112,-1.63891 -5.00384,-4.8348 -2.74068,-5.64099 -2.80138,-16.56073 -0.12521,-22.52405 1.13879,-2.53755 3.7557,-5.00948 6.20853,-5.86455 1.90706,-0.66481 7.92643,-0.8179 12.34596,-0.31399 2.61267,0.29789 3.52309,1.03449 5.22782,4.22975 2.878,5.39435 2.63618,10.57706 -0.83628,17.92335 -2.61432,5.53083 -6.10059,9.59944 -9.65032,11.26225 -2.06775,0.96861 -5.04137,1.01305 -8.16666,0.12204 z"
           id="path117"
           transform="matrix(0.26458333,0,0,0.26458333,19.475,7.8)" /><path
           style="display:none;fill:#800080;fill-opacity:1;stroke:none;stroke-width:1.37953;stroke-linecap:round;stroke-linejoin:round;stroke-dasharray:none;stroke-opacity:1"
           d="m 116.66667,511.66813 c -2.48945,-0.70973 -3.45112,-1.63891 -5.00384,-4.8348 -2.74068,-5.64099 -2.80138,-16.56073 -0.12521,-22.52405 1.13879,-2.53755 3.7557,-5.00948 6.20853,-5.86455 1.90706,-0.66481 7.92643,-0.8179 12.34596,-0.31399 2.61267,0.29789 3.52309,1.03449 5.22782,4.22975 2.878,5.39435 2.63618,10.57706 -0.83628,17.92335 -2.61432,5.53083 -6.10059,9.59944 -9.65032,11.26225 -2.06775,0.96861 -5.04137,1.01305 -8.16666,0.12204 z"
           id="path118"
           transform="matrix(0.26458333,0,0,0.26458333,19.475,7.8)" /><path
           style="display:inline;fill:#41b000;fill-opacity:1;stroke:none;stroke-width:1.37953;stroke-linecap:round;stroke-linejoin:round;stroke-dasharray:none;stroke-opacity:1;filter:url(#filter1868)"
           d="m 116.66667,511.66813 c -2.48945,-0.70973 -3.45112,-1.63891 -5.00384,-4.8348 -2.74068,-5.64099 -2.80138,-16.56073 -0.12521,-22.52405 1.13879,-2.53755 3.7557,-5.00948 6.20853,-5.86455 1.90706,-0.66481 7.92643,-0.8179 12.34596,-0.31399 2.61267,0.29789 3.52309,1.03449 5.22782,4.22975 2.878,5.39435 2.63618,10.57706 -0.83628,17.92335 -2.61432,5.53083 -6.10059,9.59944 -9.65032,11.26225 -2.06775,0.96861 -5.04137,1.01305 -8.16666,0.12204 z"
           id="path119"
           transform="matrix(0.26458333,0,0,0.26458333,19.475,7.8)" /></g><path
         id="path120"
         style="display:inline;fill:#000000;fill-opacity:1;stroke:none;stroke-width:0.365001;stroke-linecap:round;stroke-linejoin:round;stroke-dasharray:none;stroke-opacity:1"
         d="m 40.254093,138.07474 c -0.08745,0.0186 -0.112007,0.26421 -0.115238,0.38292 -0.01504,0.55258 0.131797,1.09484 0.206189,1.63762 0.328148,1.67879 0.75056,3.33855 1.349272,4.94337 0.129261,0.32641 0.263103,0.69574 0.433565,1.00562 0.324375,0.58971 0.752834,1.12674 1.00614,1.757 0.136059,0.32883 0.287136,0.65112 0.439766,0.97255 -3.09e-4,0.0105 -7.22e-4,0.021 -0.001,0.0315 -9.26e-4,0.32349 -0.0035,0.647 0,0.97048 2.91e-4,0.14542 -0.0024,0.29076 -0.0047,0.43615 l 0.521932,0.26562 c 0.0053,0.10316 0.0092,0.20644 0.01499,0.30954 0.06137,1.04348 0.185739,2.0799 0.381372,3.10627 0.176634,0.75581 0.181594,1.53406 0.284221,2.2996 0.572318,0.34463 1.093277,0.79528 1.717207,1.03404 0.1104,0.0423 0.126219,-0.20217 0.166915,-0.31315 0.01501,-0.0409 0.03834,-0.13247 0.06408,-0.24133 0.03202,0.1311 0.06796,0.26146 0.110588,0.39015 0.475883,0.65678 0.344447,0.52546 1.967321,0.96687 0.104947,0.0285 0.1315,-0.17388 0.186552,-0.26768 0.02135,-0.0364 0.03908,-0.0752 0.05891,-0.11266 0.05679,0.29741 0.111437,0.59545 0.163815,0.894 0.1192,0.80546 0.263413,1.60699 0.427364,2.40451 0.107315,0.40496 0.15845,0.81776 0.202572,1.233 0.04821,0.30186 0.02143,0.61598 0.139009,0.90278 1.86783,1.05586 1.731429,1.51671 2.146122,0.0703 0.281559,-0.9521 0.441781,-1.93053 0.596346,-2.90938 0.04914,-0.28798 0.09368,-0.57721 0.139527,-0.8661 0.125533,0.43866 0.237869,0.88142 0.347265,1.32447 0.198059,0.84352 0.367987,1.69251 0.523999,2.54455 0.227264,0.92225 0.4216,0.77464 1.911512,1.32137 0.08062,0.0296 0.101216,-0.13993 0.139009,-0.21705 0.08565,-0.17476 0.219391,-0.60644 0.271818,-0.76532 0.318463,-1.19692 0.599367,-2.40233 0.946196,-3.59152 0.13234,-0.48166 0.274732,-0.96125 0.425814,-1.43763 0.26767,0.0679 0.629146,0.14069 1.157035,0.28215 0.09092,0.0244 0.09298,-0.16449 0.129708,-0.25115 0.0946,-0.22322 0.164762,-0.45624 0.250114,-0.68316 0.04326,-0.0914 0.081,-0.1853 0.129707,-0.27389 0.03357,-0.0611 0.0722,-0.11964 0.116272,-0.17363 0.02744,-0.0336 0.07682,-0.0487 0.09663,-0.0873 0.120711,-0.23476 0.177639,-0.63419 0.221175,-0.86403 0.04708,-0.24849 0.09056,-0.49792 0.13591,-0.74673 0.09573,-0.56359 0.183438,-1.12854 0.271818,-1.69343 0.409903,-0.91094 0.835078,-1.81381 1.341003,-2.67788 0.517052,-0.88093 1.023152,-1.76667 1.463993,-2.68924 0.447146,-0.89946 0.686019,-1.88102 1.013375,-2.82825 0.06265,-0.21609 0.263091,-0.89762 0.311092,-1.10897 0.189759,-0.83552 0.15273,-1.70285 0.146245,-2.55334 -0.0023,-0.0678 -0.04533,-1.26455 -0.07855,-1.43608 -0.0026,-0.002 -0.0051,-0.004 -0.0078,-0.006 -0.01505,-0.0113 -0.03048,-0.0224 -0.04599,-0.0331 -0.0335,-0.0229 -0.06533,-0.0477 -0.09715,-0.0729 -0.0305,-0.0266 -0.05882,-0.056 -0.08837,-0.0837 -0.03394,-0.0287 -0.06788,-0.0569 -0.101285,-0.0863 -0.03617,-0.0336 -0.07184,-0.0678 -0.108521,-0.10077 -0.0097,-0.003 -0.01818,-0.005 -0.03101,-0.009 -0.604336,-0.46408 -0.925689,-0.73682 -1.141532,-0.7581 v 5.2e-4 c -0.207692,-0.0205 -0.325006,0.18695 -0.525033,0.66663 -0.359677,0.82907 -0.749971,1.64496 -1.133781,2.4629 -0.527109,1.04201 -1.216774,1.99426 -2.125451,2.73936 -0.858459,0.62397 -1.824272,1.15859 -2.913517,1.17048 l -0.0057,-0.004 c -0.0038,0.002 -0.008,0.003 -0.0124,0.005 -0.0054,3e-5 -0.01064,5.1e-4 -0.01602,5.2e-4 l 0.0031,0.002 c -0.01616,0.002 -0.03399,0.002 -0.04858,0.004 -0.03393,10e-4 -0.0675,-0.004 -0.101286,-0.005 -0.01225,0.002 -0.02504,-0.002 -0.03721,-10e-4 -0.0048,5.3e-4 -0.0093,0.003 -0.01395,0.004 -0.0085,0.002 -0.01283,0.003 -0.02119,0.004 -0.0091,0.003 -0.0194,-0.002 -0.02842,0 -0.0081,0.002 -0.02374,0.009 -0.03101,0.0134 -0.01074,0.005 -0.02291,0.003 -0.03411,0.006 -0.0047,10e-4 -0.0093,0.003 -0.01395,0.004 -0.01027,0.002 -0.01903,0.002 -0.02946,0.003 -0.0085,0.002 -0.01735,-0.002 -0.02584,0 -0.0092,0.003 -0.01675,0.006 -0.02636,0.007 -0.0105,0.002 -0.01993,0.001 -0.03049,0.001 -0.0093,0.003 -0.01914,-0.002 -0.02842,0 -0.0061,0.001 -0.01115,0.005 -0.01705,0.007 -0.01434,0.005 -0.02893,0.007 -0.04393,0.009 -0.01019,0.002 -0.02028,-3e-5 -0.03049,0.001 -0.01286,0.003 -0.02051,0.005 -0.03359,0.006 -0.0056,8e-4 -0.03053,0.002 -0.03617,0.003 -0.01252,0.002 -0.02521,-0.001 -0.03772,0 -0.0065,7.9e-4 -0.01269,0.003 -0.01912,0.004 -0.0069,0.001 -0.0142,0.001 -0.02119,0.002 -0.02938,0.006 -0.01463,0.003 -0.04393,0.007 -0.0072,7.9e-4 -0.01458,0.001 -0.0217,0.003 -0.0078,0.002 -0.01494,0.004 -0.02274,0.006 -0.03646,0.007 -0.01681,7.5e-4 -0.05478,0.008 -0.01498,0.003 -0.02969,0.007 -0.04444,0.0109 -0.345012,0.001 -0.690026,0.002 -1.035079,0.004 -0.54102,-0.006 -1.082563,0.002 -1.623157,-0.0227 -0.522371,-0.0304 -1.033215,-0.16074 -1.543575,-0.27027 -0.441474,-0.12505 -0.894165,-0.20075 -1.343587,-0.28887 -0.242033,-0.0513 -0.490639,-0.0548 -0.734839,-0.0868 -0.249531,-0.0327 -0.498527,-0.0875 -0.747241,-0.12712 -0.41359,-0.0816 -0.825547,-0.16877 -1.240751,-0.24185 -0.492447,-0.47236 -0.973929,-0.95585 -1.366842,-1.51774 -0.625269,-0.75302 -1.18347,-1.55355 -1.70894,-2.37918 -0.493651,-0.86725 -0.952729,-1.75202 -1.386995,-2.65048 -0.617911,-0.36971 -1.21054,-0.78608 -1.85415,-1.10898 -0.01516,-0.008 -0.02885,-0.01 -0.04134,-0.007 z m 1.664498,1.04799 c 0.01549,0.007 0.03494,0.10732 0.0098,0.0961 -0.01548,-0.007 -0.03054,-0.0147 -0.04599,-0.0217 0.0085,-0.0255 0.01803,-0.0498 0.02997,-0.0713 0.0019,-0.003 0.004,-0.004 0.0062,-0.003 z m 0.27802,2.58434 c 0.397582,0.60217 0.814555,1.19043 1.266589,1.7539 0.483682,0.67528 1.068114,1.26012 1.663981,1.83451 0.224832,0.21494 0.471064,0.40295 0.72192,0.58498 0.0069,0.007 0.01376,0.0148 0.02067,0.0222 0.002,-0.001 0.0043,-0.002 0.0062,-0.003 0.117286,0.0847 0.233753,0.17046 0.352434,0.25322 l 1.610237,0.63458 c 0.02944,0.0212 0.06044,0.0402 0.09147,0.0589 0.06455,0.0136 0.129246,0.026 0.193786,0.0398 0.415022,0.0783 0.828418,0.16452 1.245402,0.23203 0.494869,0.0783 0.991268,0.14163 1.485181,0.22479 0.441785,0.0846 0.882459,0.17609 1.320333,0.27906 -0.01824,0.0224 -0.03697,0.0444 -0.05478,0.0672 -0.04608,0.0589 -0.0706,0.0965 -0.12299,0.15037 -0.02228,0.0229 -0.04728,0.0435 -0.0708,0.0651 -0.02582,0.0161 -0.05016,0.0347 -0.07751,0.0481 -0.02347,0.0114 -0.09508,0.0105 -0.0739,0.0258 0.0058,0.004 0.01171,0.008 0.01757,0.0124 -0.02716,0.009 -0.05832,0.009 -0.0863,0.0103 0.255306,0.13496 0.502698,0.2857 0.763777,0.40876 0.01788,0.011 0.03546,0.0224 0.05323,0.0336 -2.56e-4,-0.003 -6.38e-4,-0.006 -5.17e-4,-0.009 0.0085,0.004 0.0168,0.008 0.02532,0.0119 0.01112,0.005 0.0108,-0.009 0.0088,-0.0253 0.0736,0.043 0.147069,0.0859 0.220141,0.12971 -9.93e-4,0.004 -0.0021,0.008 -0.0031,0.0124 -0.0045,0.0125 -0.02485,0.0308 -0.01344,0.0377 0.421288,0.25371 0.780444,0.76293 0.883667,0.3886 0.05673,0.0333 0.05915,0.033 0.0021,-0.009 6.05e-4,-0.002 0.0015,-0.004 0.0021,-0.007 0.01796,-0.0449 0.0324,-0.0924 0.06305,-0.13074 0.0051,-0.01 0.01058,-0.0188 0.0155,-0.0284 0.01027,-0.0202 0.01491,-0.0424 0.02222,-0.0636 0.0074,-0.0254 0.01594,-0.0507 0.02687,-0.0749 0.0039,-0.009 0.0091,-0.0167 0.01292,-0.0253 0.0038,-0.009 0.0056,-0.0179 0.0098,-0.0264 0.0046,-0.009 0.01112,-0.0171 0.01654,-0.0258 0.01368,-0.0212 0.02499,-0.0441 0.04186,-0.063 0.0092,-0.0103 0.02103,-0.0185 0.02945,-0.0295 0.0031,-0.004 0.0044,-0.009 0.0067,-0.0134 0.0024,-0.0144 0.0074,-0.026 0.01189,-0.0398 0.0067,-0.0203 0.009,-0.0421 0.0186,-0.0615 0.02286,-0.0623 0.03668,-0.12781 0.0677,-0.18707 0.01696,-0.0454 0.03569,-0.0906 0.05891,-0.13333 0.0088,-0.0162 0.01934,-0.0315 0.02842,-0.0475 0.04476,-0.0793 0.003,-0.0168 0.05788,-0.0925 0.0073,-0.008 0.02906,-0.0308 0.04703,-0.0496 0.389919,3.1e-4 0.7801,-0.0138 1.169954,-0.0109 0.576386,0.002 1.15272,0.004 1.729094,0.001 0.03987,-0.0113 0.07837,-0.0267 0.117822,-0.0393 0.01514,-1.5e-4 0.0303,1.7e-4 0.04547,-0.001 0.01307,-0.001 0.02665,-0.004 0.03979,-0.004 0.0034,7e-5 0.0069,10e-4 0.01033,10e-4 7.94e-4,-4e-5 0.02321,-0.005 0.02325,-0.005 0.01323,-0.003 0.0138,-0.002 0.02636,-0.006 0.0036,-0.001 0.0074,-0.003 0.01137,-0.004 l 0.01395,0.0103 c 1.105959,-0.10841 2.096509,-0.64829 2.96416,-1.31103 0.796216,-0.66965 1.429884,-1.49138 1.950269,-2.38383 -0.06358,0.27153 -0.136329,0.54515 -0.218592,0.82372 -0.325358,0.9349 -0.575637,1.90179 -1.003556,2.79621 -0.446664,0.91316 -0.945232,1.80006 -1.447457,2.68356 -0.602903,1.06843 -1.119953,2.17632 -1.62419,3.29334 -0.08417,0.16377 -0.168529,0.32768 -0.252698,0.49144 l 0.537952,0.30696 c -0.03242,0.14499 -0.06554,0.28984 -0.101803,0.43408 -0.09422,0.30983 -0.243795,0.8513 -0.388606,1.17254 -0.155593,0.34514 -0.105065,0.12905 -0.235645,0.37621 -0.0197,0.0373 -0.04879,0.10917 -0.07596,0.17466 -0.864853,-0.74576 -0.722976,-0.89283 -1.160653,-0.3793 -0.335142,0.93511 -0.545975,1.91144 -0.850077,2.85667 -0.22281,0.79849 -0.409855,1.60728 -0.634587,2.40502 -0.007,-0.031 -0.01366,-0.062 -0.02067,-0.093 -0.25509,-1.01133 -0.501764,-2.0268 -0.89607,-2.99568 -0.198091,-0.53036 -0.07583,-0.23228 -0.286287,-0.69298 -0.03662,-0.0802 -0.03379,-0.19459 -0.108521,-0.24133 -0.125476,-0.0785 -1.625848,-1.45968 -1.976623,-0.85886 -0.03458,0.0592 -0.03646,0.13236 -0.05478,0.19844 -0.107736,0.84736 -0.173125,1.70025 -0.317294,2.54299 -0.05223,0.31201 -0.110755,0.62284 -0.173632,0.93276 -0.06527,-0.34144 -0.123874,-0.68412 -0.1757,-1.02784 -0.187939,-0.9988 -0.395939,-1.99439 -0.613916,-2.9869 -0.271251,-0.9667 -0.05566,-0.48794 -1.906861,-1.39061 -0.05336,-0.026 -0.102568,0.0643 -0.139009,0.1111 -0.07672,0.0987 -0.133111,0.25071 -0.185519,0.40256 -0.02209,-0.17454 -0.045,-0.34891 -0.06718,-0.52348 -0.02331,-0.17298 -0.04279,-0.34691 -0.06976,-0.51935 -0.019,-0.12145 0.02816,-0.2853 -0.0677,-0.36225 -0.06119,-0.0491 -1.578319,-1.61231 -1.920813,-0.99942 -0.008,0.0144 -0.01692,0.0457 -0.02532,0.0667 -0.08844,-0.52309 -0.160395,-1.04898 -0.204122,-1.57872 -0.01335,-0.24629 -0.02358,-0.49298 -0.03204,-0.74 l 0.418062,0.19327 c -0.359196,-0.80705 -0.771556,-1.58897 -1.126546,-2.39779 -0.442159,-0.94717 -1.035723,-1.80026 -1.445906,-2.76262 -0.55367,-1.3331 -0.942673,-2.72318 -1.236617,-4.1336 z m 10.326501,6.73654 c 7.96e-4,0.009 0.0032,0.0175 0.0093,0.0233 0.0097,0.009 0.05049,0.0142 0.03927,0.007 -0.01607,-0.0104 -0.03239,-0.0203 -0.04858,-0.0305 z m -5.036902,5.5392 c 0.04041,-0.0105 0.139946,0.0719 0.104387,0.0548 -0.0353,-0.017 -0.06938,-0.037 -0.104387,-0.0548 z m 5.737118,3.6251 c 0.02064,-0.0184 0.09749,0.0519 0.07286,0.0393 -0.02463,-0.0126 -0.04881,-0.026 -0.07338,-0.0387 z m -4.725293,0.17208 c 0.337916,0.17307 0.457761,0.21248 0.03721,0.0646 -0.01182,-0.0217 -0.02456,-0.0432 -0.03721,-0.0646 z m 9.849011,0.86558 c 0.06857,0.0407 0.138414,0.079 0.205155,0.12248 0.04368,0.0284 -0.120922,0.0261 -0.155546,-0.0129 -0.02717,-0.0306 -0.04014,-0.0689 -0.04961,-0.10956 z m -8.201567,4.23489 c 0.0086,0.005 0.01723,0.01 0.02584,0.015 -0.0038,0.002 -0.006,0.008 -0.01034,0.008 -0.0093,0.002 -0.0236,-0.0279 -0.0155,-0.0232 z" /><path
         style="display:inline;fill:#6e2813;fill-opacity:1;stroke:none;stroke-width:0.365001;stroke-linecap:round;stroke-linejoin:round;stroke-dasharray:none;stroke-opacity:1"
         id="path121"
         d="m 49.217627,161.57575 c -0.571341,0.70788 -1.111917,1.43598 -1.603169,2.20202 -0.536768,1.0162 -0.683749,2.15087 -0.77942,3.27864 -0.09337,0.92049 0.07152,1.82008 0.432927,2.66472 0.639054,1.30804 1.461202,2.50604 2.26228,3.7166 0.561049,0.84454 1.074053,1.71431 1.498021,2.63518 0.43321,0.9062 0.755295,1.83848 0.969415,2.81928 0.198845,0.99539 0.257897,2.00906 0.286977,3.0212 0.02908,1.03095 0.02096,2.06226 0.0099,3.09339 -0.0038,0.98571 0.0031,1.97141 -7.93e-4,2.95711 -0.0191,0.69815 0.05212,1.39877 -0.05333,2.0926 -0.04328,0.28477 -0.16765,0.81828 -0.229917,1.09697 -0.332478,1.2372 -0.620969,2.48545 -0.906391,3.73419 -0.348126,1.26006 -0.582943,2.54493 -0.850112,3.82327 -0.170854,0.95994 -0.50836,1.87683 -0.741428,2.82059 -0.01921,0.0778 -0.352801,1.61887 -0.370769,1.70172 -0.290293,1.64173 -0.625848,3.27531 -0.833879,4.93034 -0.153297,1.49917 -0.225798,3.0051 -0.243592,4.51153 -0.05895,1.78377 0.22243,3.54858 0.620059,5.28088 0.411795,1.46361 0.818857,2.93007 1.350876,4.35533 0.516143,1.17902 1.061003,2.34566 1.564306,3.53019 0.496308,1.309 1.13533,2.55823 1.705907,3.8357 0.435326,1.21974 0.860676,2.43869 1.393369,3.62031 0.654238,1.50408 1.236494,3.03238 1.724319,4.59809 0.43365,1.45359 0.880904,2.90613 1.16549,4.39762 0.17922,0.98662 0.184851,1.99066 0.201266,2.98967 -0.01789,1.15899 -0.24914,2.29527 -0.560737,3.40682 -0.208743,0.79865 -0.575638,1.54832 -0.980128,2.26475 -0.341252,0.80557 -0.728199,1.57865 -1.254871,2.27828 -0.461187,0.71366 -0.924629,1.42267 -1.326859,2.17153 0,0 1.670873,0.95701 1.670873,0.95701 v 0 c 0.391758,-0.74301 0.852302,-1.44392 1.319493,-2.14152 0.528063,-0.70905 0.925623,-1.48427 1.272238,-2.29707 0.412155,-0.73104 0.792567,-1.49507 0.987481,-2.31537 0.29999,-1.13065 0.543496,-2.27946 0.587544,-3.45267 -0.0029,-1.01006 -0.01741,-2.02813 -0.19453,-3.02513 -0.294923,-1.50917 -0.773493,-2.97101 -1.212961,-4.44267 -0.472678,-1.56572 -1.016317,-3.10287 -1.674455,-4.60133 -0.536766,-1.17846 -0.963996,-2.39593 -1.3896,-3.61803 -0.576648,-1.27258 -1.213683,-2.52244 -1.704758,-3.83058 -0.500369,-1.18397 -1.03374,-2.35447 -1.566624,-3.5242 -0.561605,-1.41837 -0.959961,-2.89092 -1.399892,-4.35013 -0.412147,-1.71138 -0.688581,-3.45612 -0.606602,-5.22294 0.02215,-1.5031 0.04492,-3.00875 0.211428,-4.50443 0.207831,-1.65035 0.544695,-3.27829 0.823254,-4.91732 0.07412,-0.34312 0.287253,-1.34539 0.37446,-1.68656 0.24136,-0.94425 0.592029,-1.85931 0.765317,-2.8217 0.276472,-1.27618 0.497571,-2.56314 0.841534,-3.82415 0.290767,-1.24606 0.590936,-2.48979 0.925698,-3.72494 0.04104,-0.18055 0.214066,-0.92942 0.244655,-1.11284 0.116416,-0.69811 0.04824,-1.40606 0.06676,-2.10991 -0.0028,-0.98441 0.0056,-1.9688 0.0075,-2.95321 -0.0054,-1.03253 -0.0019,-2.06503 -0.0045,-3.09753 -0.03014,-1.0269 -0.102118,-2.05435 -0.297968,-3.06472 -0.198848,-0.98783 -0.479319,-1.93681 -0.922819,-2.84423 -0.424744,-0.94264 -0.947587,-1.82686 -1.528829,-2.68229 -0.796268,-1.19445 -1.621131,-2.37344 -2.241944,-3.67303 -0.378632,-0.80501 -0.548214,-1.68904 -0.477358,-2.57975 0.07479,-1.09946 0.20461,-2.20935 0.728935,-3.19881 0.485883,-0.76824 1.035253,-1.48613 1.646716,-2.15914 z"
         inkscape:label="color brown 2" /><g
         id="g123"
         inkscape:label="color"
         style="display:none"><path
           style="fill:#9da816;fill-opacity:1;stroke:none;stroke-width:1.37953;stroke-linecap:round;stroke-linejoin:round;stroke-dasharray:none;stroke-opacity:1"
           d="m 132.61734,576.57113 c -0.48056,-1.87245 -1.42194,-4.86595 -2.09197,-6.65222 l -1.21823,-3.24775 0.33922,-15.91891 c 0.34466,-16.1748 0.47214,-18.53729 1.08834,-20.16892 l 0.34618,-0.91666 5.37623,-0.0116 c 6.72735,-0.0145 9.70426,-0.52305 13.29536,-2.27103 3.54997,-1.72795 6.21853,-3.90711 8.9142,-7.27936 1.19166,-1.49076 2.21969,-2.65864 2.2845,-2.59528 0.17334,0.16945 -1.86068,6.23342 -3.14649,9.38053 -0.61194,1.49778 -2.78785,5.77278 -4.83534,9.5 -2.0475,3.72722 -4.80998,9.10177 -6.13884,11.94343 l -2.41612,5.16667 0.95947,0.47714 c 0.52772,0.26243 0.95948,0.65913 0.95948,0.88156 0,0.79581 -1.41211,4.99782 -2.08811,6.21358 l -0.68889,1.23895 -1.27912,-1.15562 c -1.44314,-1.30378 -1.94437,-1.41002 -2.70014,-0.57228 -0.58955,0.65349 -2.19126,5.75564 -4.28333,13.64427 -0.76904,2.89982 -1.48924,5.37941 -1.60046,5.5102 -0.11121,0.13079 -0.59539,-1.29421 -1.07594,-3.16667 z"
           id="path122"
           transform="matrix(0.26458333,0,0,0.26458333,19.475,7.8)" /><path
           style="fill:#9da816;fill-opacity:1;stroke:none;stroke-width:1.37953;stroke-linecap:round;stroke-linejoin:round;stroke-dasharray:none;stroke-opacity:1"
           d="m 116.87493,563.9929 c -0.99611,-5.03505 -0.97017,-4.99854 -4.69066,-6.60089 C 110.40661,556.6264 108.83584,556 108.69368,556 c -0.14216,0 -0.41088,0.3375 -0.59715,0.75 -0.28242,0.62541 -0.37986,0.34564 -0.58653,-1.68413 l -0.24783,-2.43413 -1.98296,-1.65023 c -2.43599,-2.02725 -3.79668,-2.75442 -4.79647,-2.56329 -0.946617,0.18095 -1.063696,-0.19475 -1.362999,-4.37383 l -0.223616,-3.12228 0.751511,0.23852 c 0.649514,0.20614 0.721804,0.14492 0.532624,-0.45112 -0.429893,-1.35449 -4.959697,-10.61059 -7.035489,-14.37618 C 91.982546,524.225 90.518782,521.15 89.891963,519.5 c -1.389537,-3.65773 -3.309194,-10.33923 -3.164324,-11.01364 0.05972,-0.27804 1.323888,1.11862 2.906536,3.21116 3.132398,4.14159 7.399456,8.60557 9.813743,10.26665 2.860012,1.96773 7.619632,3.68077 12.698422,4.57029 2.55549,0.44758 4.69601,0.86344 4.7567,0.92414 0.18355,0.18354 0.8116,32.79342 0.70042,36.36764 L 117.5,567.15247 Z"
           id="path123"
           transform="matrix(0.26458333,0,0,0.26458333,19.475,7.8)" /></g><g
         id="g126"
         inkscape:label="color"
         style="display:inline"><path
           style="fill:#c9b400;fill-opacity:1;stroke:none;stroke-width:1.37953;stroke-linecap:round;stroke-linejoin:round;stroke-dasharray:none;stroke-opacity:1"
           d="m 132.61734,576.57113 c -0.48056,-1.87245 -1.42194,-4.86595 -2.09197,-6.65222 l -1.21823,-3.24775 0.33922,-15.91891 c 0.34466,-16.1748 0.47214,-18.53729 1.08834,-20.16892 l 0.34618,-0.91666 5.37623,-0.0116 c 6.72735,-0.0145 9.70426,-0.52305 13.29536,-2.27103 3.54997,-1.72795 6.21853,-3.90711 8.9142,-7.27936 1.19166,-1.49076 2.21969,-2.65864 2.2845,-2.59528 0.17334,0.16945 -1.86068,6.23342 -3.14649,9.38053 -0.61194,1.49778 -2.78785,5.77278 -4.83534,9.5 -2.0475,3.72722 -4.80998,9.10177 -6.13884,11.94343 l -2.41612,5.16667 0.95947,0.47714 c 0.52772,0.26243 0.95948,0.65913 0.95948,0.88156 0,0.79581 -1.41211,4.99782 -2.08811,6.21358 l -0.68889,1.23895 -1.27912,-1.15562 c -1.44314,-1.30378 -1.94437,-1.41002 -2.70014,-0.57228 -0.58955,0.65349 -2.19126,5.75564 -4.28333,13.64427 -0.76904,2.89982 -1.48924,5.37941 -1.60046,5.5102 -0.11121,0.13079 -0.59539,-1.29421 -1.07594,-3.16667 z"
           id="path124"
           transform="matrix(0.26458333,0,0,0.26458333,19.475,7.8)" /><path
           style="fill:#c9b400;fill-opacity:1;stroke:none;stroke-width:1.37953;stroke-linecap:round;stroke-linejoin:round;stroke-dasharray:none;stroke-opacity:1"
           d="m 116.87493,563.9929 c -0.99611,-5.03505 -0.97017,-4.99854 -4.69066,-6.60089 C 110.40661,556.6264 108.83584,556 108.69368,556 c -0.14216,0 -0.41088,0.3375 -0.59715,0.75 -0.28242,0.62541 -0.37986,0.34564 -0.58653,-1.68413 l -0.24783,-2.43413 -1.98296,-1.65023 c -2.43599,-2.02725 -3.79668,-2.75442 -4.79647,-2.56329 -0.946617,0.18095 -1.063696,-0.19475 -1.362999,-4.37383 l -0.223616,-3.12228 0.751511,0.23852 c 0.649514,0.20614 0.721804,0.14492 0.532624,-0.45112 -0.429893,-1.35449 -4.959697,-10.61059 -7.035489,-14.37618 C 91.982546,524.225 90.518782,521.15 89.891963,519.5 c -1.389537,-3.65773 -3.309194,-10.33923 -3.164324,-11.01364 0.05972,-0.27804 1.323888,1.11862 2.906536,3.21116 3.132398,4.14159 7.399456,8.60557 9.813743,10.26665 2.860012,1.96773 7.619632,3.68077 12.698422,4.57029 2.55549,0.44758 4.69601,0.86344 4.7567,0.92414 0.18355,0.18354 0.8116,32.79342 0.70042,36.36764 L 117.5,567.15247 Z"
           id="path125"
           transform="matrix(0.26458333,0,0,0.26458333,19.475,7.8)" /></g></g></g></svg>
