<?xml version="1.0" encoding="UTF-8" standalone="no"?>
<!-- Created with Inkscape (http://www.inkscape.org/) -->

<svg
   width="41.728184mm"
   height="41.293663mm"
   viewBox="0 0 41.728184 41.293664"
   version="1.1"
   id="svg1"
   inkscape:version="1.3.2 (091e20e, 2023-11-25, custom)"
   sodipodi:docname="mage.svg"
   xml:space="preserve"
   inkscape:export-filename="..\separated\bottom-body-cloths.svg"
   inkscape:export-xdpi="96"
   inkscape:export-ydpi="96"
   xmlns:inkscape="http://www.inkscape.org/namespaces/inkscape"
   xmlns:sodipodi="http://sodipodi.sourceforge.net/DTD/sodipodi-0.dtd"
   xmlns="http://www.w3.org/2000/svg"
   xmlns:svg="http://www.w3.org/2000/svg"><sodipodi:namedview
     id="namedview1"
     pagecolor="#ffffff"
     bordercolor="#000000"
     borderopacity="0.25"
     inkscape:showpageshadow="2"
     inkscape:pageopacity="0.0"
     inkscape:pagecheckerboard="0"
     inkscape:deskcolor="#d1d1d1"
     inkscape:document-units="mm"
     inkscape:export-bgcolor="#ffffff00"
     inkscape:zoom="0.75000001"
     inkscape:cx="186.66667"
     inkscape:cy="378"
     inkscape:window-width="1304"
     inkscape:window-height="745"
     inkscape:window-x="1358"
     inkscape:window-y="-8"
     inkscape:window-maximized="1"
     inkscape:current-layer="g1314" /><defs
     id="defs1"><filter
       x="-0.43271199"
       width="1.865424"
       y="-0.34809086"
       height="1.6961817"
       inkscape:menu-tooltip="Smooth rainbow colors slightly melted along the edges"
       inkscape:menu="Textures"
       inkscape:label="Melted Rainbow"
       style="color-interpolation-filters:sRGB"
       id="filter1868"><feGaussianBlur
         result="result8"
         stdDeviation="5"
         id="feGaussianBlur1865" /><feTurbulence
         baseFrequency="0.015"
         numOctaves="2"
         type="fractalNoise"
         result="result7"
         seed="20"
         id="feTurbulence1865" /><feComposite
         in="SourceGraphic"
         operator="in"
         result="result6"
         in2="result8"
         id="feComposite1865" /><feComposite
         in="result6"
         operator="arithmetic"
         result="result2"
         in2="result7"
         k3="1"
         id="feComposite1866"
         k1="0"
         k2="0"
         k4="0" /><feComposite
         in2="result6"
         operator="in"
         in="result2"
         result="fbSourceGraphic"
         id="feComposite1867" /><feComposite
         in2="fbSourceGraphic"
         in="fbSourceGraphic"
         k2="2.5"
         operator="arithmetic"
         id="feComposite1868"
         k1="0"
         k3="0"
         k4="0" /></filter><filter
       style="color-interpolation-filters:sRGB"
       inkscape:label="Drop Shadow"
       id="filter2099"
       x="-0.83877852"
       y="-0.86805913"
       width="2.677557"
       height="2.7361183"><feFlood
         result="flood"
         in="SourceGraphic"
         flood-opacity="1.000000"
         flood-color="rgb(11,19,126)"
         id="feFlood2098" /><feGaussianBlur
         result="blur"
         in="SourceGraphic"
         stdDeviation="5.000000"
         id="feGaussianBlur2098" /><feOffset
         result="offset"
         in="blur"
         dx="0.000000"
         dy="0.000000"
         id="feOffset2098" /><feComposite
         result="comp1"
         in="flood"
         in2="offset"
         id="feComposite2098" /><feComposite
         result="comp2"
         operator="atop"
         in="comp1"
         in2="SourceGraphic"
         id="feComposite2099" /></filter></defs><g
     inkscape:groupmode="layer"
     id="layer4"
     inkscape:label="mage"
     transform="translate(-73.739797,-82.218917)"
     inkscape:highlight-color="#7d39ff"><g
       id="g127"
       inkscape:label="staff -up"
       style="display:inline"
       transform="rotate(-5.4540868,-303.86157,-325.94935)"
       inkscape:export-filename="mage\separated\staff-up.svg"
       inkscape:export-xdpi="96"
       inkscape:export-ydpi="96"><g
         id="g119"
         inkscape:label="ball"><path
           style="display:none;fill:#000000;fill-opacity:1;stroke:none;stroke-width:0.365001;stroke-linecap:round;stroke-linejoin:round;stroke-dasharray:none;stroke-opacity:1"
           id="path115"
           d="m 44.888602,134.59855 c 0.06459,1.75456 0.05941,3.51429 0.425335,5.23719 0.394766,1.3271 1.291372,2.2724 2.472694,2.95612 1.321821,0.76505 2.659787,1.50186 3.989684,2.25279 0.907774,0.37178 2.445498,0.87755 3.424504,0.57013 0.274027,-0.0861 0.508527,-0.26718 0.762791,-0.40077 1.367536,-1.00938 2.141289,-2.46072 2.730662,-4.02092 0.150071,-0.39728 0.304046,-0.79672 0.392334,-1.21212 0.07966,-0.3748 0.07234,-0.76292 0.108514,-1.14437 -0.09423,-1.8966 -1.138574,-3.31014 -2.631017,-4.37715 -3.739171,-2.25811 -3.949694,-2.49236 -7.533941,-2.57368 -1.419029,0.0306 -2.376329,0.40583 -3.206682,1.56251 -0.54699,0.91358 -0.744536,1.96491 -0.869358,3.0075 0,0 3.459709,1.80895 3.459709,1.80895 v 0 c 0.08968,-0.98247 0.237998,-1.97944 0.765736,-2.8346 0.73433,-1.02661 1.712841,-1.29265 2.948458,-1.27925 0.737957,0.028 1.477137,0.0514 2.207117,0.17511 1.440379,0.24405 3.667654,1.5208 -1.362125,-1.27039 1.511779,0.92611 2.685166,2.21404 2.879228,4.04939 -0.01363,0.36037 0.02069,0.72578 -0.04088,1.08111 -0.0706,0.40741 -0.210682,0.80091 -0.35253,1.1893 -0.544018,1.48954 -1.33322,2.84315 -2.687654,3.72239 -0.233804,0.0899 -0.456268,0.21817 -0.70141,0.26963 -1.107599,0.23245 -2.293234,-0.31862 -3.284138,-0.71841 5.582182,3.32494 2.036313,1.33845 1.223748,0.65926 -0.577966,-0.4831 -0.976426,-1.12481 -1.250855,-1.81741 -0.43861,-1.66369 -0.467913,-3.39663 -0.369353,-5.10868 z"
           inkscape:label="ball" /><path
           style="display:inline;fill:#000000;fill-opacity:1;stroke:none;stroke-width:0.365001;stroke-linecap:round;stroke-linejoin:round;stroke-dasharray:none;stroke-opacity:1;filter:url(#filter2099)"
           id="path116"
           d="m 44.888602,134.59855 c 0.06459,1.75456 0.05941,3.51429 0.425335,5.23719 0.394766,1.3271 1.291372,2.2724 2.472694,2.95612 1.321821,0.76505 2.659787,1.50186 3.989684,2.25279 0.907774,0.37178 2.445498,0.87755 3.424504,0.57013 0.274027,-0.0861 0.508527,-0.26718 0.762791,-0.40077 1.367536,-1.00938 2.141289,-2.46072 2.730662,-4.02092 0.150071,-0.39728 0.304046,-0.79672 0.392334,-1.21212 0.07966,-0.3748 0.07234,-0.76292 0.108514,-1.14437 -0.09423,-1.8966 -1.138574,-3.31014 -2.631017,-4.37715 -3.739171,-2.25811 -3.949694,-2.49236 -7.533941,-2.57368 -1.419029,0.0306 -2.376329,0.40583 -3.206682,1.56251 -0.54699,0.91358 -0.744536,1.96491 -0.869358,3.0075 0,0 3.459709,1.80895 3.459709,1.80895 v 0 c 0.08968,-0.98247 0.237998,-1.97944 0.765736,-2.8346 0.73433,-1.02661 1.712841,-1.29265 2.948458,-1.27925 0.737957,0.028 1.477137,0.0514 2.207117,0.17511 1.440379,0.24405 3.667654,1.5208 -1.362125,-1.27039 1.511779,0.92611 2.685166,2.21404 2.879228,4.04939 -0.01363,0.36037 0.02069,0.72578 -0.04088,1.08111 -0.0706,0.40741 -0.210682,0.80091 -0.35253,1.1893 -0.544018,1.48954 -1.33322,2.84315 -2.687654,3.72239 -0.233804,0.0899 -0.456268,0.21817 -0.70141,0.26963 -1.107599,0.23245 -2.293234,-0.31862 -3.284138,-0.71841 5.582182,3.32494 2.036313,1.33845 1.223748,0.65926 -0.577966,-0.4831 -0.976426,-1.12481 -1.250855,-1.81741 -0.43861,-1.66369 -0.467913,-3.39663 -0.369353,-5.10868 z"
           inkscape:label="ball" /><path
           style="display:none;fill:#800080;fill-opacity:1;stroke:none;stroke-width:1.37953;stroke-linecap:round;stroke-linejoin:round;stroke-dasharray:none;stroke-opacity:1;filter:url(#filter1868)"
           d="m 116.66667,511.66813 c -2.48945,-0.70973 -3.45112,-1.63891 -5.00384,-4.8348 -2.74068,-5.64099 -2.80138,-16.56073 -0.12521,-22.52405 1.13879,-2.53755 3.7557,-5.00948 6.20853,-5.86455 1.90706,-0.66481 7.92643,-0.8179 12.34596,-0.31399 2.61267,0.29789 3.52309,1.03449 5.22782,4.22975 2.878,5.39435 2.63618,10.57706 -0.83628,17.92335 -2.61432,5.53083 -6.10059,9.59944 -9.65032,11.26225 -2.06775,0.96861 -5.04137,1.01305 -8.16666,0.12204 z"
           id="path117"
           transform="matrix(0.26458333,0,0,0.26458333,19.475,7.8)" /><path
           style="display:none;fill:#800080;fill-opacity:1;stroke:none;stroke-width:1.37953;stroke-linecap:round;stroke-linejoin:round;stroke-dasharray:none;stroke-opacity:1"
           d="m 116.66667,511.66813 c -2.48945,-0.70973 -3.45112,-1.63891 -5.00384,-4.8348 -2.74068,-5.64099 -2.80138,-16.56073 -0.12521,-22.52405 1.13879,-2.53755 3.7557,-5.00948 6.20853,-5.86455 1.90706,-0.66481 7.92643,-0.8179 12.34596,-0.31399 2.61267,0.29789 3.52309,1.03449 5.22782,4.22975 2.878,5.39435 2.63618,10.57706 -0.83628,17.92335 -2.61432,5.53083 -6.10059,9.59944 -9.65032,11.26225 -2.06775,0.96861 -5.04137,1.01305 -8.16666,0.12204 z"
           id="path118"
           transform="matrix(0.26458333,0,0,0.26458333,19.475,7.8)" /><path
           style="display:inline;fill:#41b000;fill-opacity:1;stroke:none;stroke-width:1.37953;stroke-linecap:round;stroke-linejoin:round;stroke-dasharray:none;stroke-opacity:1;filter:url(#filter1868)"
           d="m 116.66667,511.66813 c -2.48945,-0.70973 -3.45112,-1.63891 -5.00384,-4.8348 -2.74068,-5.64099 -2.80138,-16.56073 -0.12521,-22.52405 1.13879,-2.53755 3.7557,-5.00948 6.20853,-5.86455 1.90706,-0.66481 7.92643,-0.8179 12.34596,-0.31399 2.61267,0.29789 3.52309,1.03449 5.22782,4.22975 2.878,5.39435 2.63618,10.57706 -0.83628,17.92335 -2.61432,5.53083 -6.10059,9.59944 -9.65032,11.26225 -2.06775,0.96861 -5.04137,1.01305 -8.16666,0.12204 z"
           id="path119"
           transform="matrix(0.26458333,0,0,0.26458333,19.475,7.8)" /></g></g></g></svg>
